%TF.GenerationSoftware,KiCad,Pcbnew,7.0.6*%
%TF.CreationDate,2024-02-23T14:21:37+01:00*%
%TF.ProjectId,blue_64,626c7565-5f36-4342-9e6b-696361645f70,rev?*%
%TF.SameCoordinates,Original*%
%TF.FileFunction,Legend,Top*%
%TF.FilePolarity,Positive*%
%FSLAX46Y46*%
G04 Gerber Fmt 4.6, Leading zero omitted, Abs format (unit mm)*
G04 Created by KiCad (PCBNEW 7.0.6) date 2024-02-23 14:21:37*
%MOMM*%
%LPD*%
G01*
G04 APERTURE LIST*
%ADD10C,0.300000*%
%ADD11C,0.150000*%
%ADD12C,0.120000*%
%ADD13C,0.100000*%
G04 APERTURE END LIST*
D10*
X91263828Y-90671346D02*
X91406685Y-90242774D01*
X91406685Y-90242774D02*
X91549542Y-90099917D01*
X91549542Y-90099917D02*
X91835257Y-89957060D01*
X91835257Y-89957060D02*
X92263828Y-89957060D01*
X92263828Y-89957060D02*
X92549542Y-90099917D01*
X92549542Y-90099917D02*
X92692400Y-90242774D01*
X92692400Y-90242774D02*
X92835257Y-90528489D01*
X92835257Y-90528489D02*
X92835257Y-91671346D01*
X92835257Y-91671346D02*
X89835257Y-91671346D01*
X89835257Y-91671346D02*
X89835257Y-90671346D01*
X89835257Y-90671346D02*
X89978114Y-90385632D01*
X89978114Y-90385632D02*
X90120971Y-90242774D01*
X90120971Y-90242774D02*
X90406685Y-90099917D01*
X90406685Y-90099917D02*
X90692400Y-90099917D01*
X90692400Y-90099917D02*
X90978114Y-90242774D01*
X90978114Y-90242774D02*
X91120971Y-90385632D01*
X91120971Y-90385632D02*
X91263828Y-90671346D01*
X91263828Y-90671346D02*
X91263828Y-91671346D01*
X92835257Y-88242774D02*
X92692400Y-88528489D01*
X92692400Y-88528489D02*
X92406685Y-88671346D01*
X92406685Y-88671346D02*
X89835257Y-88671346D01*
X90835257Y-85814203D02*
X92835257Y-85814203D01*
X90835257Y-87099917D02*
X92406685Y-87099917D01*
X92406685Y-87099917D02*
X92692400Y-86957060D01*
X92692400Y-86957060D02*
X92835257Y-86671345D01*
X92835257Y-86671345D02*
X92835257Y-86242774D01*
X92835257Y-86242774D02*
X92692400Y-85957060D01*
X92692400Y-85957060D02*
X92549542Y-85814203D01*
X92692400Y-83242774D02*
X92835257Y-83528488D01*
X92835257Y-83528488D02*
X92835257Y-84099917D01*
X92835257Y-84099917D02*
X92692400Y-84385631D01*
X92692400Y-84385631D02*
X92406685Y-84528488D01*
X92406685Y-84528488D02*
X91263828Y-84528488D01*
X91263828Y-84528488D02*
X90978114Y-84385631D01*
X90978114Y-84385631D02*
X90835257Y-84099917D01*
X90835257Y-84099917D02*
X90835257Y-83528488D01*
X90835257Y-83528488D02*
X90978114Y-83242774D01*
X90978114Y-83242774D02*
X91263828Y-83099917D01*
X91263828Y-83099917D02*
X91549542Y-83099917D01*
X91549542Y-83099917D02*
X91835257Y-84528488D01*
X91692400Y-81814202D02*
X91692400Y-79528488D01*
X89835257Y-76814202D02*
X89835257Y-77385630D01*
X89835257Y-77385630D02*
X89978114Y-77671344D01*
X89978114Y-77671344D02*
X90120971Y-77814202D01*
X90120971Y-77814202D02*
X90549542Y-78099916D01*
X90549542Y-78099916D02*
X91120971Y-78242773D01*
X91120971Y-78242773D02*
X92263828Y-78242773D01*
X92263828Y-78242773D02*
X92549542Y-78099916D01*
X92549542Y-78099916D02*
X92692400Y-77957059D01*
X92692400Y-77957059D02*
X92835257Y-77671344D01*
X92835257Y-77671344D02*
X92835257Y-77099916D01*
X92835257Y-77099916D02*
X92692400Y-76814202D01*
X92692400Y-76814202D02*
X92549542Y-76671344D01*
X92549542Y-76671344D02*
X92263828Y-76528487D01*
X92263828Y-76528487D02*
X91549542Y-76528487D01*
X91549542Y-76528487D02*
X91263828Y-76671344D01*
X91263828Y-76671344D02*
X91120971Y-76814202D01*
X91120971Y-76814202D02*
X90978114Y-77099916D01*
X90978114Y-77099916D02*
X90978114Y-77671344D01*
X90978114Y-77671344D02*
X91120971Y-77957059D01*
X91120971Y-77957059D02*
X91263828Y-78099916D01*
X91263828Y-78099916D02*
X91549542Y-78242773D01*
X90835257Y-73957059D02*
X92835257Y-73957059D01*
X89692400Y-74671344D02*
X91835257Y-75385630D01*
X91835257Y-75385630D02*
X91835257Y-73528487D01*
X90835257Y-70385630D02*
X92835257Y-69671344D01*
X92835257Y-69671344D02*
X90835257Y-68957059D01*
X89835257Y-67242773D02*
X89835257Y-66957059D01*
X89835257Y-66957059D02*
X89978114Y-66671345D01*
X89978114Y-66671345D02*
X90120971Y-66528488D01*
X90120971Y-66528488D02*
X90406685Y-66385630D01*
X90406685Y-66385630D02*
X90978114Y-66242773D01*
X90978114Y-66242773D02*
X91692400Y-66242773D01*
X91692400Y-66242773D02*
X92263828Y-66385630D01*
X92263828Y-66385630D02*
X92549542Y-66528488D01*
X92549542Y-66528488D02*
X92692400Y-66671345D01*
X92692400Y-66671345D02*
X92835257Y-66957059D01*
X92835257Y-66957059D02*
X92835257Y-67242773D01*
X92835257Y-67242773D02*
X92692400Y-67528488D01*
X92692400Y-67528488D02*
X92549542Y-67671345D01*
X92549542Y-67671345D02*
X92263828Y-67814202D01*
X92263828Y-67814202D02*
X91692400Y-67957059D01*
X91692400Y-67957059D02*
X90978114Y-67957059D01*
X90978114Y-67957059D02*
X90406685Y-67814202D01*
X90406685Y-67814202D02*
X90120971Y-67671345D01*
X90120971Y-67671345D02*
X89978114Y-67528488D01*
X89978114Y-67528488D02*
X89835257Y-67242773D01*
X92549542Y-64957059D02*
X92692400Y-64814202D01*
X92692400Y-64814202D02*
X92835257Y-64957059D01*
X92835257Y-64957059D02*
X92692400Y-65099916D01*
X92692400Y-65099916D02*
X92549542Y-64957059D01*
X92549542Y-64957059D02*
X92835257Y-64957059D01*
X89835257Y-63814202D02*
X89835257Y-61957059D01*
X89835257Y-61957059D02*
X90978114Y-62957059D01*
X90978114Y-62957059D02*
X90978114Y-62528488D01*
X90978114Y-62528488D02*
X91120971Y-62242774D01*
X91120971Y-62242774D02*
X91263828Y-62099916D01*
X91263828Y-62099916D02*
X91549542Y-61957059D01*
X91549542Y-61957059D02*
X92263828Y-61957059D01*
X92263828Y-61957059D02*
X92549542Y-62099916D01*
X92549542Y-62099916D02*
X92692400Y-62242774D01*
X92692400Y-62242774D02*
X92835257Y-62528488D01*
X92835257Y-62528488D02*
X92835257Y-63385631D01*
X92835257Y-63385631D02*
X92692400Y-63671345D01*
X92692400Y-63671345D02*
X92549542Y-63814202D01*
D11*
X63493666Y-101073295D02*
X63112714Y-101073295D01*
X63112714Y-101073295D02*
X63112714Y-100273295D01*
X64179380Y-101073295D02*
X63722237Y-101073295D01*
X63950809Y-101073295D02*
X63950809Y-100273295D01*
X63950809Y-100273295D02*
X63874618Y-100387580D01*
X63874618Y-100387580D02*
X63798428Y-100463771D01*
X63798428Y-100463771D02*
X63722237Y-100501866D01*
X74596666Y-99784819D02*
X74596666Y-100499104D01*
X74596666Y-100499104D02*
X74549047Y-100641961D01*
X74549047Y-100641961D02*
X74453809Y-100737200D01*
X74453809Y-100737200D02*
X74310952Y-100784819D01*
X74310952Y-100784819D02*
X74215714Y-100784819D01*
X74977619Y-99784819D02*
X75596666Y-99784819D01*
X75596666Y-99784819D02*
X75263333Y-100165771D01*
X75263333Y-100165771D02*
X75406190Y-100165771D01*
X75406190Y-100165771D02*
X75501428Y-100213390D01*
X75501428Y-100213390D02*
X75549047Y-100261009D01*
X75549047Y-100261009D02*
X75596666Y-100356247D01*
X75596666Y-100356247D02*
X75596666Y-100594342D01*
X75596666Y-100594342D02*
X75549047Y-100689580D01*
X75549047Y-100689580D02*
X75501428Y-100737200D01*
X75501428Y-100737200D02*
X75406190Y-100784819D01*
X75406190Y-100784819D02*
X75120476Y-100784819D01*
X75120476Y-100784819D02*
X75025238Y-100737200D01*
X75025238Y-100737200D02*
X74977619Y-100689580D01*
X64001667Y-66326104D02*
X63963571Y-66364200D01*
X63963571Y-66364200D02*
X63849286Y-66402295D01*
X63849286Y-66402295D02*
X63773095Y-66402295D01*
X63773095Y-66402295D02*
X63658809Y-66364200D01*
X63658809Y-66364200D02*
X63582619Y-66288009D01*
X63582619Y-66288009D02*
X63544524Y-66211819D01*
X63544524Y-66211819D02*
X63506428Y-66059438D01*
X63506428Y-66059438D02*
X63506428Y-65945152D01*
X63506428Y-65945152D02*
X63544524Y-65792771D01*
X63544524Y-65792771D02*
X63582619Y-65716580D01*
X63582619Y-65716580D02*
X63658809Y-65640390D01*
X63658809Y-65640390D02*
X63773095Y-65602295D01*
X63773095Y-65602295D02*
X63849286Y-65602295D01*
X63849286Y-65602295D02*
X63963571Y-65640390D01*
X63963571Y-65640390D02*
X64001667Y-65678485D01*
X64763571Y-66402295D02*
X64306428Y-66402295D01*
X64535000Y-66402295D02*
X64535000Y-65602295D01*
X64535000Y-65602295D02*
X64458809Y-65716580D01*
X64458809Y-65716580D02*
X64382619Y-65792771D01*
X64382619Y-65792771D02*
X64306428Y-65830866D01*
X108458095Y-98641819D02*
X108458095Y-99451342D01*
X108458095Y-99451342D02*
X108505714Y-99546580D01*
X108505714Y-99546580D02*
X108553333Y-99594200D01*
X108553333Y-99594200D02*
X108648571Y-99641819D01*
X108648571Y-99641819D02*
X108839047Y-99641819D01*
X108839047Y-99641819D02*
X108934285Y-99594200D01*
X108934285Y-99594200D02*
X108981904Y-99546580D01*
X108981904Y-99546580D02*
X109029523Y-99451342D01*
X109029523Y-99451342D02*
X109029523Y-98641819D01*
X110029523Y-99641819D02*
X109458095Y-99641819D01*
X109743809Y-99641819D02*
X109743809Y-98641819D01*
X109743809Y-98641819D02*
X109648571Y-98784676D01*
X109648571Y-98784676D02*
X109553333Y-98879914D01*
X109553333Y-98879914D02*
X109458095Y-98927533D01*
D12*
X67127000Y-99900000D02*
X67127000Y-90900000D01*
X67127000Y-90900000D02*
X60127000Y-90900000D01*
X60127000Y-99900000D02*
X67127000Y-99900000D01*
X60127000Y-90900000D02*
X60127000Y-99900000D01*
X68520000Y-49470000D02*
X69850000Y-49470000D01*
X68520000Y-50800000D02*
X68520000Y-49470000D01*
X68520000Y-52070000D02*
X68520000Y-100390000D01*
X68520000Y-52070000D02*
X71120000Y-52070000D01*
X68520000Y-100390000D02*
X73720000Y-100390000D01*
X71120000Y-49470000D02*
X73720000Y-49470000D01*
X71120000Y-52070000D02*
X71120000Y-49470000D01*
X73720000Y-49470000D02*
X73720000Y-100390000D01*
G36*
X88238798Y-52327521D02*
G01*
X88585954Y-52328142D01*
X88601403Y-52335748D01*
X88618456Y-52346268D01*
X88632011Y-52359546D01*
X88642748Y-52376261D01*
X88643587Y-52377932D01*
X88647335Y-52386013D01*
X88649604Y-52392689D01*
X88650755Y-52399703D01*
X88651152Y-52408797D01*
X88651181Y-52414432D01*
X88650986Y-52425330D01*
X88650181Y-52433335D01*
X88648416Y-52440214D01*
X88645338Y-52447735D01*
X88643978Y-52450650D01*
X88633884Y-52467038D01*
X88620502Y-52481351D01*
X88604937Y-52492460D01*
X88601197Y-52494427D01*
X88588188Y-52500820D01*
X88239915Y-52501441D01*
X87891642Y-52502061D01*
X87891642Y-52414481D01*
X87891642Y-52326901D01*
X88238798Y-52327521D01*
G37*
G36*
X88367041Y-49207428D02*
G01*
X88455940Y-49210910D01*
X88526351Y-49215383D01*
X88654305Y-49227336D01*
X88781302Y-49243846D01*
X88907259Y-49264887D01*
X89032095Y-49290435D01*
X89155730Y-49320464D01*
X89278081Y-49354949D01*
X89399067Y-49393864D01*
X89518608Y-49437185D01*
X89636622Y-49484886D01*
X89753028Y-49536941D01*
X89867744Y-49593326D01*
X89980689Y-49654016D01*
X90032405Y-49683591D01*
X90140597Y-49749365D01*
X90246228Y-49819008D01*
X90349196Y-49892427D01*
X90449402Y-49969525D01*
X90546744Y-50050208D01*
X90641122Y-50134380D01*
X90732436Y-50221947D01*
X90820585Y-50312814D01*
X90905469Y-50406885D01*
X90986987Y-50504065D01*
X91065039Y-50604259D01*
X91139524Y-50707372D01*
X91185160Y-50774676D01*
X91235214Y-50852163D01*
X91281669Y-50927852D01*
X91324897Y-51002393D01*
X91365271Y-51076440D01*
X91403162Y-51150645D01*
X91423066Y-51191734D01*
X91476301Y-51308767D01*
X91524941Y-51426248D01*
X91569030Y-51544342D01*
X91608608Y-51663218D01*
X91643721Y-51783043D01*
X91674410Y-51903984D01*
X91700719Y-52026208D01*
X91722690Y-52149881D01*
X91740367Y-52275172D01*
X91753793Y-52402247D01*
X91761725Y-52508987D01*
X91762646Y-52527537D01*
X91763430Y-52550077D01*
X91764079Y-52575974D01*
X91764593Y-52604593D01*
X91764971Y-52635301D01*
X91765214Y-52667465D01*
X91765321Y-52700450D01*
X91765293Y-52733624D01*
X91765130Y-52766352D01*
X91764833Y-52798001D01*
X91764400Y-52827937D01*
X91763832Y-52855526D01*
X91763130Y-52880135D01*
X91762293Y-52901130D01*
X91761668Y-52912680D01*
X91751386Y-53041729D01*
X91736593Y-53169669D01*
X91717311Y-53296437D01*
X91693559Y-53421966D01*
X91665360Y-53546192D01*
X91632733Y-53669048D01*
X91595700Y-53790471D01*
X91554281Y-53910394D01*
X91508498Y-54028752D01*
X91458371Y-54145481D01*
X91403920Y-54260513D01*
X91345168Y-54373785D01*
X91282133Y-54485231D01*
X91235993Y-54561289D01*
X91166882Y-54667672D01*
X91093923Y-54771440D01*
X91017188Y-54872509D01*
X90936749Y-54970797D01*
X90852677Y-55066222D01*
X90765045Y-55158700D01*
X90673924Y-55248150D01*
X90579385Y-55334489D01*
X90516815Y-55388332D01*
X90419592Y-55467166D01*
X90320098Y-55542086D01*
X90217947Y-55613368D01*
X90112751Y-55681286D01*
X90063845Y-55711108D01*
X89953302Y-55774610D01*
X89840750Y-55833920D01*
X89726301Y-55889005D01*
X89610066Y-55939830D01*
X89492156Y-55986361D01*
X89372682Y-56028564D01*
X89251756Y-56066406D01*
X89129488Y-56099852D01*
X89005990Y-56128869D01*
X88881374Y-56153422D01*
X88755750Y-56173478D01*
X88629230Y-56189002D01*
X88501924Y-56199961D01*
X88454013Y-56202886D01*
X88443100Y-56203327D01*
X88428061Y-56203711D01*
X88409435Y-56204039D01*
X88387760Y-56204309D01*
X88363577Y-56204524D01*
X88337424Y-56204682D01*
X88309843Y-56204785D01*
X88281371Y-56204832D01*
X88252549Y-56204824D01*
X88223917Y-56204761D01*
X88196013Y-56204644D01*
X88169377Y-56204472D01*
X88144550Y-56204247D01*
X88122069Y-56203968D01*
X88102475Y-56203635D01*
X88086308Y-56203250D01*
X88074107Y-56202812D01*
X88071321Y-56202672D01*
X87945828Y-56193401D01*
X87820502Y-56179508D01*
X87695538Y-56161036D01*
X87571128Y-56138031D01*
X87447467Y-56110536D01*
X87324749Y-56078596D01*
X87203166Y-56042255D01*
X87082912Y-56001557D01*
X86964182Y-55956547D01*
X86923245Y-55939875D01*
X86826010Y-55897690D01*
X86728711Y-55851810D01*
X86632094Y-55802643D01*
X86536906Y-55750601D01*
X86443892Y-55696093D01*
X86353799Y-55639530D01*
X86267373Y-55581320D01*
X86255868Y-55573246D01*
X86166768Y-55508453D01*
X86081404Y-55442323D01*
X85998879Y-55374106D01*
X85918300Y-55303053D01*
X85838771Y-55228414D01*
X85805865Y-55196209D01*
X85719421Y-55107775D01*
X85637181Y-55017789D01*
X85558845Y-54925867D01*
X85484118Y-54831624D01*
X85412700Y-54734677D01*
X85344296Y-54634642D01*
X85278607Y-54531135D01*
X85238082Y-54463282D01*
X85176849Y-54353708D01*
X85119655Y-54241871D01*
X85066550Y-54127928D01*
X85017584Y-54012040D01*
X84972807Y-53894364D01*
X84932268Y-53775060D01*
X84896018Y-53654286D01*
X84864106Y-53532201D01*
X84836583Y-53408964D01*
X84813498Y-53284734D01*
X84794901Y-53159669D01*
X84780843Y-53033928D01*
X84777760Y-52999019D01*
X84775865Y-52975580D01*
X84774229Y-52953691D01*
X84772811Y-52932554D01*
X84771571Y-52911374D01*
X84770468Y-52889355D01*
X84769462Y-52865702D01*
X84768512Y-52839617D01*
X84767578Y-52810305D01*
X84766807Y-52783710D01*
X84765694Y-52661151D01*
X84769213Y-52538029D01*
X84776834Y-52422398D01*
X85729447Y-52422398D01*
X85729982Y-52446504D01*
X85731324Y-52468787D01*
X85733481Y-52487983D01*
X85733988Y-52491201D01*
X85744213Y-52538837D01*
X85758619Y-52584606D01*
X85777039Y-52628301D01*
X85799304Y-52669713D01*
X85825245Y-52708635D01*
X85854695Y-52744857D01*
X85887485Y-52778174D01*
X85923446Y-52808375D01*
X85962410Y-52835254D01*
X86004208Y-52858602D01*
X86046692Y-52877441D01*
X86071745Y-52886221D01*
X86099746Y-52894263D01*
X86128984Y-52901105D01*
X86148572Y-52904818D01*
X86152270Y-52905402D01*
X86156333Y-52905932D01*
X86161005Y-52906412D01*
X86166529Y-52906845D01*
X86173147Y-52907236D01*
X86181103Y-52907587D01*
X86190640Y-52907903D01*
X86202001Y-52908188D01*
X86215428Y-52908445D01*
X86231166Y-52908678D01*
X86249456Y-52908890D01*
X86270542Y-52909086D01*
X86294668Y-52909269D01*
X86322075Y-52909443D01*
X86353008Y-52909611D01*
X86387708Y-52909777D01*
X86426420Y-52909946D01*
X86469385Y-52910121D01*
X86502051Y-52910248D01*
X86548378Y-52910421D01*
X86590274Y-52910572D01*
X86627973Y-52910713D01*
X86661710Y-52910854D01*
X86691722Y-52911005D01*
X86718243Y-52911177D01*
X86741508Y-52911382D01*
X86761753Y-52911629D01*
X86779212Y-52911929D01*
X86794122Y-52912293D01*
X86806717Y-52912732D01*
X86817232Y-52913256D01*
X86825903Y-52913875D01*
X86832965Y-52914601D01*
X86838653Y-52915445D01*
X86843202Y-52916416D01*
X86846847Y-52917525D01*
X86849825Y-52918784D01*
X86852369Y-52920202D01*
X86854715Y-52921791D01*
X86857098Y-52923561D01*
X86859754Y-52925522D01*
X86861165Y-52926514D01*
X86872988Y-52936173D01*
X86882443Y-52947659D01*
X86890662Y-52962358D01*
X86891031Y-52963138D01*
X86894962Y-52972634D01*
X86897042Y-52981309D01*
X86897791Y-52991576D01*
X86897831Y-52994716D01*
X86897603Y-53007166D01*
X86896492Y-53016776D01*
X86894083Y-53025351D01*
X86889958Y-53034694D01*
X86887517Y-53039466D01*
X86877717Y-53053787D01*
X86864664Y-53066483D01*
X86849760Y-53076286D01*
X86843907Y-53078986D01*
X86831073Y-53084192D01*
X86366709Y-53085432D01*
X85902345Y-53086673D01*
X85885166Y-53091684D01*
X85855145Y-53102670D01*
X85827893Y-53117158D01*
X85803628Y-53134866D01*
X85782568Y-53155509D01*
X85764932Y-53178803D01*
X85750939Y-53204464D01*
X85740806Y-53232209D01*
X85734753Y-53261753D01*
X85732973Y-53289539D01*
X85735214Y-53320475D01*
X85741815Y-53350030D01*
X85752595Y-53377893D01*
X85767373Y-53403756D01*
X85785967Y-53427310D01*
X85808195Y-53448244D01*
X85833877Y-53466251D01*
X85838174Y-53468771D01*
X85847229Y-53473182D01*
X85859340Y-53478038D01*
X85872994Y-53482825D01*
X85886680Y-53487029D01*
X85898887Y-53490135D01*
X85903776Y-53491086D01*
X85907388Y-53491302D01*
X85915451Y-53491514D01*
X85927749Y-53491721D01*
X85944065Y-53491922D01*
X85964183Y-53492115D01*
X85987889Y-53492300D01*
X86014964Y-53492475D01*
X86045193Y-53492640D01*
X86078361Y-53492792D01*
X86114250Y-53492932D01*
X86152646Y-53493058D01*
X86193331Y-53493169D01*
X86236089Y-53493264D01*
X86280705Y-53493342D01*
X86326962Y-53493402D01*
X86374645Y-53493443D01*
X86379613Y-53493446D01*
X86435223Y-53493475D01*
X86486364Y-53493494D01*
X86533234Y-53493501D01*
X86576030Y-53493495D01*
X86614952Y-53493474D01*
X86650196Y-53493438D01*
X86681961Y-53493384D01*
X86710444Y-53493312D01*
X86735844Y-53493220D01*
X86758358Y-53493107D01*
X86778185Y-53492972D01*
X86795522Y-53492813D01*
X86810567Y-53492628D01*
X86823518Y-53492418D01*
X86834573Y-53492179D01*
X86843931Y-53491912D01*
X86851788Y-53491614D01*
X86858343Y-53491284D01*
X86863794Y-53490921D01*
X86868339Y-53490524D01*
X86871754Y-53490144D01*
X86919464Y-53481935D01*
X86965616Y-53469338D01*
X87010099Y-53452404D01*
X87052799Y-53431183D01*
X87093604Y-53405725D01*
X87132401Y-53376079D01*
X87137175Y-53372020D01*
X87169159Y-53341576D01*
X87198600Y-53307656D01*
X87225151Y-53270848D01*
X87248465Y-53231741D01*
X87268194Y-53190924D01*
X87283991Y-53148987D01*
X87295508Y-53106518D01*
X87296510Y-53101787D01*
X87304230Y-53053281D01*
X87307396Y-53005242D01*
X87306041Y-52957853D01*
X87300201Y-52911301D01*
X87289911Y-52865770D01*
X87275205Y-52821446D01*
X87256119Y-52778512D01*
X87232686Y-52737154D01*
X87225687Y-52726383D01*
X87200651Y-52691973D01*
X87173087Y-52659687D01*
X87143833Y-52630451D01*
X87143584Y-52630237D01*
X87483285Y-52630237D01*
X87483286Y-52693123D01*
X87483287Y-52702068D01*
X87483301Y-52771934D01*
X87483332Y-52837845D01*
X87483382Y-52899755D01*
X87483449Y-52957618D01*
X87483533Y-53011387D01*
X87483635Y-53061017D01*
X87483754Y-53106459D01*
X87483890Y-53147669D01*
X87484043Y-53184599D01*
X87484212Y-53217204D01*
X87484397Y-53245437D01*
X87484599Y-53269251D01*
X87484817Y-53288600D01*
X87485050Y-53303438D01*
X87485299Y-53313718D01*
X87485564Y-53319393D01*
X87485661Y-53320288D01*
X87492848Y-53350719D01*
X87504202Y-53379050D01*
X87519708Y-53405255D01*
X87539355Y-53429308D01*
X87548595Y-53438534D01*
X87570020Y-53456524D01*
X87592226Y-53470503D01*
X87616375Y-53481113D01*
X87637292Y-53487458D01*
X87646810Y-53489829D01*
X87654360Y-53491451D01*
X87661190Y-53492436D01*
X87668549Y-53492895D01*
X87677686Y-53492940D01*
X87689848Y-53492681D01*
X87694463Y-53492555D01*
X87712617Y-53491663D01*
X87727029Y-53490039D01*
X87738582Y-53487580D01*
X87739966Y-53487179D01*
X87762883Y-53479431D01*
X87782449Y-53470671D01*
X87799974Y-53460161D01*
X87816766Y-53447166D01*
X87826330Y-53438534D01*
X87846022Y-53417564D01*
X87861990Y-53395065D01*
X87874798Y-53370125D01*
X87884016Y-53345068D01*
X87890433Y-53324541D01*
X87891121Y-53117500D01*
X87891340Y-53051523D01*
X89234564Y-53051523D01*
X89240019Y-53081720D01*
X89250667Y-53129043D01*
X89265105Y-53173823D01*
X89283477Y-53216426D01*
X89305929Y-53257223D01*
X89313266Y-53268834D01*
X89340810Y-53306988D01*
X89371737Y-53342187D01*
X89405726Y-53374230D01*
X89442459Y-53402914D01*
X89481615Y-53428038D01*
X89522873Y-53449400D01*
X89565915Y-53466799D01*
X89610421Y-53480032D01*
X89656069Y-53488898D01*
X89663925Y-53489957D01*
X89669534Y-53490368D01*
X89679474Y-53490757D01*
X89693471Y-53491122D01*
X89711248Y-53491464D01*
X89732531Y-53491782D01*
X89757046Y-53492077D01*
X89784516Y-53492349D01*
X89814668Y-53492596D01*
X89847225Y-53492820D01*
X89881913Y-53493019D01*
X89918457Y-53493195D01*
X89956582Y-53493346D01*
X89996013Y-53493472D01*
X90036475Y-53493575D01*
X90077692Y-53493652D01*
X90119390Y-53493705D01*
X90161294Y-53493733D01*
X90203128Y-53493736D01*
X90244618Y-53493713D01*
X90285489Y-53493666D01*
X90325465Y-53493593D01*
X90364272Y-53493494D01*
X90401634Y-53493370D01*
X90437277Y-53493220D01*
X90470926Y-53493044D01*
X90502304Y-53492842D01*
X90531139Y-53492614D01*
X90557153Y-53492360D01*
X90580073Y-53492079D01*
X90599623Y-53491772D01*
X90615529Y-53491438D01*
X90627515Y-53491078D01*
X90635306Y-53490690D01*
X90638156Y-53490396D01*
X90668530Y-53482658D01*
X90696640Y-53470948D01*
X90722233Y-53455505D01*
X90745060Y-53436568D01*
X90764870Y-53414376D01*
X90781412Y-53389166D01*
X90794435Y-53361177D01*
X90803002Y-53333555D01*
X90805556Y-53318367D01*
X90806806Y-53300352D01*
X90806776Y-53281154D01*
X90805487Y-53262420D01*
X90802962Y-53245796D01*
X90801726Y-53240535D01*
X90791505Y-53210649D01*
X90777441Y-53183266D01*
X90759778Y-53158633D01*
X90738760Y-53136996D01*
X90714630Y-53118604D01*
X90687632Y-53103703D01*
X90658008Y-53092541D01*
X90655142Y-53091706D01*
X90636989Y-53086541D01*
X90172625Y-53085366D01*
X90117688Y-53085226D01*
X90067224Y-53085091D01*
X90021039Y-53084961D01*
X89978941Y-53084832D01*
X89940735Y-53084704D01*
X89906227Y-53084574D01*
X89875225Y-53084439D01*
X89847533Y-53084299D01*
X89822960Y-53084150D01*
X89801310Y-53083990D01*
X89782391Y-53083818D01*
X89766009Y-53083630D01*
X89751970Y-53083427D01*
X89740080Y-53083204D01*
X89730145Y-53082960D01*
X89721973Y-53082693D01*
X89715369Y-53082400D01*
X89710140Y-53082080D01*
X89706092Y-53081731D01*
X89703031Y-53081350D01*
X89700764Y-53080936D01*
X89699098Y-53080485D01*
X89698319Y-53080203D01*
X89680048Y-53070503D01*
X89664776Y-53057248D01*
X89652445Y-53040383D01*
X89647882Y-53031688D01*
X89642924Y-53021188D01*
X89641757Y-52554490D01*
X89640590Y-52087793D01*
X89634145Y-52067241D01*
X89622822Y-52037790D01*
X89608214Y-52011454D01*
X89590043Y-51987779D01*
X89577417Y-51974762D01*
X89554069Y-51955689D01*
X89528433Y-51940430D01*
X89501026Y-51929131D01*
X89472363Y-51921942D01*
X89442961Y-51919011D01*
X89413335Y-51920487D01*
X89397908Y-51923067D01*
X89368272Y-51931267D01*
X89341473Y-51942986D01*
X89317007Y-51958485D01*
X89297737Y-51974762D01*
X89277311Y-51997068D01*
X89260615Y-52021765D01*
X89247370Y-52049306D01*
X89241010Y-52067241D01*
X89234564Y-52087793D01*
X89234564Y-52569658D01*
X89234564Y-53051523D01*
X87891340Y-53051523D01*
X87891809Y-52910460D01*
X88254000Y-52909750D01*
X88303168Y-52909656D01*
X88347909Y-52909572D01*
X88388462Y-52909489D01*
X88425066Y-52909397D01*
X88457961Y-52909288D01*
X88487386Y-52909154D01*
X88513580Y-52908986D01*
X88536784Y-52908776D01*
X88557235Y-52908514D01*
X88575174Y-52908192D01*
X88590840Y-52907801D01*
X88604473Y-52907333D01*
X88616311Y-52906779D01*
X88626595Y-52906130D01*
X88635563Y-52905378D01*
X88643456Y-52904514D01*
X88650512Y-52903530D01*
X88656970Y-52902416D01*
X88663071Y-52901164D01*
X88669054Y-52899766D01*
X88675157Y-52898212D01*
X88681621Y-52896495D01*
X88688685Y-52894605D01*
X88691176Y-52893945D01*
X88737144Y-52879454D01*
X88781042Y-52860824D01*
X88822690Y-52838187D01*
X88861906Y-52811672D01*
X88898509Y-52781410D01*
X88932318Y-52747530D01*
X88963152Y-52710162D01*
X88979739Y-52686736D01*
X88990847Y-52668724D01*
X89002373Y-52647561D01*
X89013650Y-52624633D01*
X89024010Y-52601328D01*
X89032786Y-52579035D01*
X89036056Y-52569658D01*
X89048201Y-52525916D01*
X89056238Y-52480595D01*
X89060139Y-52434378D01*
X89059877Y-52387950D01*
X89055425Y-52341996D01*
X89046844Y-52297554D01*
X89033302Y-52251738D01*
X89015661Y-52207919D01*
X88994136Y-52166319D01*
X88968943Y-52127156D01*
X88940298Y-52090651D01*
X88908416Y-52057024D01*
X88873513Y-52026494D01*
X88835804Y-51999281D01*
X88795506Y-51975606D01*
X88752833Y-51955688D01*
X88708002Y-51939748D01*
X88691348Y-51935018D01*
X88684940Y-51933284D01*
X88679166Y-51931687D01*
X88673824Y-51930220D01*
X88668713Y-51928879D01*
X88663630Y-51927656D01*
X88658373Y-51926548D01*
X88652741Y-51925548D01*
X88646532Y-51924650D01*
X88639544Y-51923850D01*
X88631574Y-51923142D01*
X88622422Y-51922520D01*
X88611884Y-51921979D01*
X88599760Y-51921513D01*
X88585846Y-51921117D01*
X88569942Y-51920784D01*
X88551845Y-51920511D01*
X88531354Y-51920290D01*
X88508266Y-51920117D01*
X88482380Y-51919985D01*
X88453493Y-51919891D01*
X88421404Y-51919827D01*
X88385911Y-51919788D01*
X88346811Y-51919769D01*
X88303904Y-51919765D01*
X88256987Y-51919769D01*
X88205857Y-51919777D01*
X88150314Y-51919782D01*
X88135492Y-51919782D01*
X87652460Y-51919782D01*
X87634137Y-51925090D01*
X87604912Y-51935842D01*
X87578059Y-51950314D01*
X87553888Y-51968177D01*
X87532712Y-51989101D01*
X87514842Y-52012757D01*
X87500590Y-52038814D01*
X87490265Y-52066943D01*
X87486772Y-52081203D01*
X87486401Y-52083407D01*
X87486057Y-52086410D01*
X87485739Y-52090381D01*
X87485445Y-52095485D01*
X87485174Y-52101890D01*
X87484927Y-52109764D01*
X87484701Y-52119273D01*
X87484496Y-52130585D01*
X87484311Y-52143867D01*
X87484145Y-52159285D01*
X87483997Y-52177008D01*
X87483866Y-52197201D01*
X87483751Y-52220034D01*
X87483652Y-52245671D01*
X87483566Y-52274281D01*
X87483494Y-52306031D01*
X87483435Y-52341088D01*
X87483387Y-52379620D01*
X87483349Y-52421792D01*
X87483321Y-52467773D01*
X87483302Y-52517729D01*
X87483290Y-52571828D01*
X87483285Y-52630237D01*
X87143584Y-52630237D01*
X87121592Y-52611325D01*
X87089113Y-52587679D01*
X87053501Y-52566037D01*
X87015894Y-52546966D01*
X86977431Y-52531034D01*
X86939251Y-52518808D01*
X86932579Y-52517066D01*
X86925284Y-52515210D01*
X86918691Y-52513530D01*
X86912548Y-52512016D01*
X86906601Y-52510659D01*
X86900598Y-52509448D01*
X86894285Y-52508375D01*
X86887408Y-52507430D01*
X86879715Y-52506603D01*
X86870951Y-52505885D01*
X86860865Y-52505267D01*
X86849202Y-52504738D01*
X86835709Y-52504290D01*
X86820134Y-52503912D01*
X86802222Y-52503595D01*
X86781720Y-52503330D01*
X86758375Y-52503107D01*
X86731934Y-52502917D01*
X86702144Y-52502750D01*
X86668751Y-52502596D01*
X86631502Y-52502446D01*
X86590143Y-52502291D01*
X86544422Y-52502120D01*
X86534669Y-52502083D01*
X86203262Y-52500820D01*
X86187901Y-52493257D01*
X86171351Y-52482674D01*
X86157080Y-52468706D01*
X86146113Y-52452399D01*
X86144349Y-52448826D01*
X86139646Y-52434008D01*
X86137841Y-52417146D01*
X86138952Y-52399869D01*
X86143000Y-52383808D01*
X86143538Y-52382403D01*
X86151879Y-52367061D01*
X86163828Y-52352958D01*
X86178329Y-52341206D01*
X86187746Y-52335782D01*
X86203265Y-52328142D01*
X86670012Y-52326899D01*
X86724880Y-52326752D01*
X86775278Y-52326615D01*
X86821403Y-52326486D01*
X86863453Y-52326361D01*
X86901625Y-52326238D01*
X86936117Y-52326115D01*
X86967125Y-52325989D01*
X86994846Y-52325857D01*
X87019479Y-52325718D01*
X87041219Y-52325569D01*
X87060265Y-52325407D01*
X87076814Y-52325230D01*
X87091062Y-52325035D01*
X87103208Y-52324820D01*
X87113448Y-52324582D01*
X87121979Y-52324319D01*
X87129000Y-52324029D01*
X87134706Y-52323708D01*
X87139295Y-52323354D01*
X87142965Y-52322966D01*
X87145913Y-52322540D01*
X87148336Y-52322073D01*
X87150431Y-52321565D01*
X87152396Y-52321011D01*
X87153094Y-52320804D01*
X87183433Y-52309873D01*
X87210630Y-52296097D01*
X87234299Y-52279679D01*
X87239337Y-52275434D01*
X87249688Y-52265077D01*
X87260771Y-52251805D01*
X87271532Y-52237012D01*
X87280915Y-52222093D01*
X87284261Y-52215992D01*
X87295925Y-52188692D01*
X87303413Y-52160053D01*
X87306711Y-52130697D01*
X87305805Y-52101248D01*
X87300679Y-52072326D01*
X87291319Y-52044556D01*
X87288397Y-52038038D01*
X87273163Y-52010541D01*
X87255033Y-51986659D01*
X87233820Y-51966214D01*
X87209335Y-51949029D01*
X87181392Y-51934926D01*
X87177595Y-51933350D01*
X87173864Y-51931799D01*
X87170499Y-51930369D01*
X87167305Y-51929058D01*
X87164086Y-51927859D01*
X87160646Y-51926767D01*
X87156790Y-51925779D01*
X87152321Y-51924887D01*
X87147044Y-51924088D01*
X87140763Y-51923377D01*
X87133282Y-51922748D01*
X87124405Y-51922197D01*
X87113937Y-51921717D01*
X87101682Y-51921305D01*
X87087444Y-51920956D01*
X87071027Y-51920663D01*
X87052235Y-51920423D01*
X87030872Y-51920229D01*
X87006744Y-51920078D01*
X86979653Y-51919964D01*
X86949405Y-51919882D01*
X86915802Y-51919827D01*
X86878651Y-51919794D01*
X86837753Y-51919778D01*
X86792915Y-51919774D01*
X86743940Y-51919776D01*
X86690632Y-51919781D01*
X86650228Y-51919782D01*
X86170696Y-51919782D01*
X86142694Y-51925080D01*
X86106875Y-51932822D01*
X86074103Y-51942062D01*
X86042869Y-51953304D01*
X86011661Y-51967051D01*
X86000908Y-51972325D01*
X85959217Y-51995807D01*
X85920450Y-52022838D01*
X85884756Y-52053215D01*
X85852286Y-52086734D01*
X85823191Y-52123188D01*
X85797621Y-52162375D01*
X85775727Y-52204089D01*
X85757660Y-52248126D01*
X85743570Y-52294282D01*
X85735184Y-52333033D01*
X85732588Y-52351787D01*
X85730760Y-52373775D01*
X85729710Y-52397734D01*
X85729447Y-52422398D01*
X84776834Y-52422398D01*
X84777364Y-52414351D01*
X84786005Y-52325809D01*
X84802453Y-52198294D01*
X84823416Y-52071921D01*
X84848868Y-51946765D01*
X84878778Y-51822905D01*
X84913121Y-51700419D01*
X84951866Y-51579382D01*
X84994986Y-51459874D01*
X85042453Y-51341972D01*
X85094238Y-51225753D01*
X85150313Y-51111294D01*
X85210651Y-50998674D01*
X85275222Y-50887970D01*
X85343998Y-50779258D01*
X85355956Y-50761206D01*
X85427318Y-50658342D01*
X85502640Y-50557811D01*
X85581714Y-50459853D01*
X85664331Y-50364705D01*
X85750280Y-50272609D01*
X85839352Y-50183802D01*
X85931337Y-50098524D01*
X85955201Y-50077400D01*
X86053614Y-49994178D01*
X86154538Y-49914873D01*
X86257911Y-49839520D01*
X86363670Y-49768153D01*
X86471754Y-49700806D01*
X86582101Y-49637514D01*
X86694648Y-49578312D01*
X86809334Y-49523233D01*
X86926097Y-49472312D01*
X87044874Y-49425583D01*
X87165603Y-49383080D01*
X87267435Y-49350981D01*
X87376712Y-49320411D01*
X87488593Y-49293164D01*
X87602261Y-49269390D01*
X87716897Y-49249239D01*
X87831683Y-49232861D01*
X87945801Y-49220407D01*
X88005983Y-49215430D01*
X88094530Y-49210140D01*
X88185068Y-49207043D01*
X88276328Y-49206139D01*
X88367041Y-49207428D01*
G37*
X60227000Y-66590000D02*
X60227000Y-83090000D01*
X60227000Y-83090000D02*
X67827000Y-83090000D01*
D13*
X62927000Y-84090000D02*
X63927000Y-84090000D01*
X66627000Y-84090000D02*
X67627000Y-84090000D01*
X67127000Y-83590000D02*
X67127000Y-84590000D01*
D12*
X67827000Y-66590000D02*
X60227000Y-66590000D01*
X67827000Y-83090000D02*
X67827000Y-66590000D01*
X60227000Y-66590000D02*
X61427000Y-66590000D01*
X61427000Y-66590000D02*
X61427000Y-83090000D01*
X61427000Y-83090000D02*
X60227000Y-83090000D01*
X60227000Y-83090000D02*
X60227000Y-66590000D01*
G36*
X60227000Y-66590000D02*
G01*
X61427000Y-66590000D01*
X61427000Y-83090000D01*
X60227000Y-83090000D01*
X60227000Y-66590000D01*
G37*
X95250000Y-52070000D02*
X100330000Y-52070000D01*
X95250000Y-100330000D02*
X95250000Y-52070000D01*
X100330000Y-45720000D02*
X118110000Y-45720000D01*
X100330000Y-52070000D02*
X100330000Y-45720000D01*
X118110000Y-45720000D02*
X118110000Y-52070000D01*
X118110000Y-52070000D02*
X123190000Y-52070000D01*
X123190000Y-52070000D02*
X123190000Y-100330000D01*
X123190000Y-100330000D02*
X95250000Y-100330000D01*
M02*
