%TF.GenerationSoftware,KiCad,Pcbnew,7.0.6*%
%TF.CreationDate,2023-12-10T22:56:54+01:00*%
%TF.ProjectId,blue_64,626c7565-5f36-4342-9e6b-696361645f70,rev?*%
%TF.SameCoordinates,Original*%
%TF.FileFunction,Paste,Bot*%
%TF.FilePolarity,Positive*%
%FSLAX46Y46*%
G04 Gerber Fmt 4.6, Leading zero omitted, Abs format (unit mm)*
G04 Created by KiCad (PCBNEW 7.0.6) date 2023-12-10 22:56:54*
%MOMM*%
%LPD*%
G01*
G04 APERTURE LIST*
G04 Aperture macros list*
%AMRoundRect*
0 Rectangle with rounded corners*
0 $1 Rounding radius*
0 $2 $3 $4 $5 $6 $7 $8 $9 X,Y pos of 4 corners*
0 Add a 4 corners polygon primitive as box body*
4,1,4,$2,$3,$4,$5,$6,$7,$8,$9,$2,$3,0*
0 Add four circle primitives for the rounded corners*
1,1,$1+$1,$2,$3*
1,1,$1+$1,$4,$5*
1,1,$1+$1,$6,$7*
1,1,$1+$1,$8,$9*
0 Add four rect primitives between the rounded corners*
20,1,$1+$1,$2,$3,$4,$5,0*
20,1,$1+$1,$4,$5,$6,$7,0*
20,1,$1+$1,$6,$7,$8,$9,0*
20,1,$1+$1,$8,$9,$2,$3,0*%
G04 Aperture macros list end*
%ADD10RoundRect,0.218750X0.256250X-0.218750X0.256250X0.218750X-0.256250X0.218750X-0.256250X-0.218750X0*%
%ADD11RoundRect,0.218750X0.218750X0.256250X-0.218750X0.256250X-0.218750X-0.256250X0.218750X-0.256250X0*%
%ADD12R,0.700000X0.510000*%
%ADD13RoundRect,0.218750X-0.256250X0.218750X-0.256250X-0.218750X0.256250X-0.218750X0.256250X0.218750X0*%
%ADD14R,1.000000X1.000000*%
%ADD15R,1.060000X0.650000*%
%ADD16RoundRect,0.150000X-0.150000X0.825000X-0.150000X-0.825000X0.150000X-0.825000X0.150000X0.825000X0*%
%ADD17R,0.900000X0.800000*%
G04 APERTURE END LIST*
D10*
X90424000Y-82321500D03*
X90424000Y-80746500D03*
D11*
X78765500Y-57404000D03*
X77190500Y-57404000D03*
D10*
X91948000Y-66446500D03*
X91948000Y-64871500D03*
D12*
X78884000Y-68646000D03*
X78884000Y-69596000D03*
X78884000Y-70546000D03*
X76564000Y-70546000D03*
X76564000Y-69596000D03*
X76564000Y-68646000D03*
D10*
X88900000Y-82321500D03*
X88900000Y-80746500D03*
X90424000Y-66446500D03*
X90424000Y-64871500D03*
D13*
X80314800Y-80492500D03*
X80314800Y-82067500D03*
D12*
X78884000Y-74488000D03*
X78884000Y-75438000D03*
X78884000Y-76388000D03*
X76564000Y-76388000D03*
X76564000Y-75438000D03*
X76564000Y-74488000D03*
D14*
X93833000Y-99060000D03*
X91333000Y-99060000D03*
D13*
X80264000Y-91465300D03*
X80264000Y-93040300D03*
X80314800Y-52806500D03*
X80314800Y-54381500D03*
D11*
X78765500Y-72898000D03*
X77190500Y-72898000D03*
D10*
X91948000Y-82321500D03*
X91948000Y-80746500D03*
X88900000Y-66446500D03*
X88900000Y-64871500D03*
D15*
X85768000Y-89469000D03*
X85768000Y-88519000D03*
X85768000Y-87569000D03*
X87968000Y-87569000D03*
X87968000Y-89469000D03*
D16*
X83058000Y-73725000D03*
X84328000Y-73725000D03*
X85598000Y-73725000D03*
X86868000Y-73725000D03*
X88138000Y-73725000D03*
X89408000Y-73725000D03*
X90678000Y-73725000D03*
X91948000Y-73725000D03*
X91948000Y-78675000D03*
X90678000Y-78675000D03*
X89408000Y-78675000D03*
X88138000Y-78675000D03*
X86868000Y-78675000D03*
X85598000Y-78675000D03*
X84328000Y-78675000D03*
X83058000Y-78675000D03*
D13*
X80314800Y-73888500D03*
X80314800Y-75463500D03*
X80314800Y-68046500D03*
X80314800Y-69621500D03*
D16*
X83058000Y-57850000D03*
X84328000Y-57850000D03*
X85598000Y-57850000D03*
X86868000Y-57850000D03*
X88138000Y-57850000D03*
X89408000Y-57850000D03*
X90678000Y-57850000D03*
X91948000Y-57850000D03*
X91948000Y-62800000D03*
X90678000Y-62800000D03*
X89408000Y-62800000D03*
X88138000Y-62800000D03*
X86868000Y-62800000D03*
X85598000Y-62800000D03*
X84328000Y-62800000D03*
X83058000Y-62800000D03*
D13*
X80314800Y-58394500D03*
X80314800Y-59969500D03*
D12*
X78884000Y-58994000D03*
X78884000Y-59944000D03*
X78884000Y-60894000D03*
X76564000Y-60894000D03*
X76564000Y-59944000D03*
X76564000Y-58994000D03*
D11*
X78765500Y-79502000D03*
X77190500Y-79502000D03*
D15*
X85768000Y-93279000D03*
X85768000Y-92329000D03*
X85768000Y-91379000D03*
X87968000Y-91379000D03*
X87968000Y-93279000D03*
D11*
X78765500Y-67056000D03*
X77190500Y-67056000D03*
D10*
X89662000Y-96672500D03*
X89662000Y-95097500D03*
D11*
X78740000Y-51816000D03*
X77165000Y-51816000D03*
D10*
X89662000Y-92862500D03*
X89662000Y-91287500D03*
D12*
X78884000Y-53406000D03*
X78884000Y-54356000D03*
X78884000Y-55306000D03*
X76564000Y-55306000D03*
X76564000Y-54356000D03*
X76564000Y-53406000D03*
D17*
X78724000Y-93030000D03*
X78724000Y-94930000D03*
X76724000Y-93980000D03*
D12*
X78884000Y-81092000D03*
X78884000Y-82042000D03*
X78884000Y-82992000D03*
X76564000Y-82992000D03*
X76564000Y-82042000D03*
X76564000Y-81092000D03*
D10*
X89662000Y-89052500D03*
X89662000Y-87477500D03*
D15*
X85768000Y-97089000D03*
X85768000Y-96139000D03*
X85768000Y-95189000D03*
X87968000Y-95189000D03*
X87968000Y-97089000D03*
M02*
