%TF.GenerationSoftware,KiCad,Pcbnew,7.0.6*%
%TF.CreationDate,2023-11-28T22:30:31+01:00*%
%TF.ProjectId,blue_64,626c7565-5f36-4342-9e6b-696361645f70,rev?*%
%TF.SameCoordinates,Original*%
%TF.FileFunction,Legend,Top*%
%TF.FilePolarity,Positive*%
%FSLAX46Y46*%
G04 Gerber Fmt 4.6, Leading zero omitted, Abs format (unit mm)*
G04 Created by KiCad (PCBNEW 7.0.6) date 2023-11-28 22:30:31*
%MOMM*%
%LPD*%
G01*
G04 APERTURE LIST*
%ADD10C,0.300000*%
%ADD11C,0.150000*%
%ADD12C,0.120000*%
G04 APERTURE END LIST*
D10*
X85040828Y-89655346D02*
X85183685Y-89226774D01*
X85183685Y-89226774D02*
X85326542Y-89083917D01*
X85326542Y-89083917D02*
X85612257Y-88941060D01*
X85612257Y-88941060D02*
X86040828Y-88941060D01*
X86040828Y-88941060D02*
X86326542Y-89083917D01*
X86326542Y-89083917D02*
X86469400Y-89226774D01*
X86469400Y-89226774D02*
X86612257Y-89512489D01*
X86612257Y-89512489D02*
X86612257Y-90655346D01*
X86612257Y-90655346D02*
X83612257Y-90655346D01*
X83612257Y-90655346D02*
X83612257Y-89655346D01*
X83612257Y-89655346D02*
X83755114Y-89369632D01*
X83755114Y-89369632D02*
X83897971Y-89226774D01*
X83897971Y-89226774D02*
X84183685Y-89083917D01*
X84183685Y-89083917D02*
X84469400Y-89083917D01*
X84469400Y-89083917D02*
X84755114Y-89226774D01*
X84755114Y-89226774D02*
X84897971Y-89369632D01*
X84897971Y-89369632D02*
X85040828Y-89655346D01*
X85040828Y-89655346D02*
X85040828Y-90655346D01*
X86612257Y-87226774D02*
X86469400Y-87512489D01*
X86469400Y-87512489D02*
X86183685Y-87655346D01*
X86183685Y-87655346D02*
X83612257Y-87655346D01*
X84612257Y-84798203D02*
X86612257Y-84798203D01*
X84612257Y-86083917D02*
X86183685Y-86083917D01*
X86183685Y-86083917D02*
X86469400Y-85941060D01*
X86469400Y-85941060D02*
X86612257Y-85655345D01*
X86612257Y-85655345D02*
X86612257Y-85226774D01*
X86612257Y-85226774D02*
X86469400Y-84941060D01*
X86469400Y-84941060D02*
X86326542Y-84798203D01*
X86469400Y-82226774D02*
X86612257Y-82512488D01*
X86612257Y-82512488D02*
X86612257Y-83083917D01*
X86612257Y-83083917D02*
X86469400Y-83369631D01*
X86469400Y-83369631D02*
X86183685Y-83512488D01*
X86183685Y-83512488D02*
X85040828Y-83512488D01*
X85040828Y-83512488D02*
X84755114Y-83369631D01*
X84755114Y-83369631D02*
X84612257Y-83083917D01*
X84612257Y-83083917D02*
X84612257Y-82512488D01*
X84612257Y-82512488D02*
X84755114Y-82226774D01*
X84755114Y-82226774D02*
X85040828Y-82083917D01*
X85040828Y-82083917D02*
X85326542Y-82083917D01*
X85326542Y-82083917D02*
X85612257Y-83512488D01*
X85469400Y-80798202D02*
X85469400Y-78512488D01*
X83612257Y-75798202D02*
X83612257Y-76369630D01*
X83612257Y-76369630D02*
X83755114Y-76655344D01*
X83755114Y-76655344D02*
X83897971Y-76798202D01*
X83897971Y-76798202D02*
X84326542Y-77083916D01*
X84326542Y-77083916D02*
X84897971Y-77226773D01*
X84897971Y-77226773D02*
X86040828Y-77226773D01*
X86040828Y-77226773D02*
X86326542Y-77083916D01*
X86326542Y-77083916D02*
X86469400Y-76941059D01*
X86469400Y-76941059D02*
X86612257Y-76655344D01*
X86612257Y-76655344D02*
X86612257Y-76083916D01*
X86612257Y-76083916D02*
X86469400Y-75798202D01*
X86469400Y-75798202D02*
X86326542Y-75655344D01*
X86326542Y-75655344D02*
X86040828Y-75512487D01*
X86040828Y-75512487D02*
X85326542Y-75512487D01*
X85326542Y-75512487D02*
X85040828Y-75655344D01*
X85040828Y-75655344D02*
X84897971Y-75798202D01*
X84897971Y-75798202D02*
X84755114Y-76083916D01*
X84755114Y-76083916D02*
X84755114Y-76655344D01*
X84755114Y-76655344D02*
X84897971Y-76941059D01*
X84897971Y-76941059D02*
X85040828Y-77083916D01*
X85040828Y-77083916D02*
X85326542Y-77226773D01*
X84612257Y-72941059D02*
X86612257Y-72941059D01*
X83469400Y-73655344D02*
X85612257Y-74369630D01*
X85612257Y-74369630D02*
X85612257Y-72512487D01*
X84612257Y-69369630D02*
X86612257Y-68655344D01*
X86612257Y-68655344D02*
X84612257Y-67941059D01*
X83612257Y-66226773D02*
X83612257Y-65941059D01*
X83612257Y-65941059D02*
X83755114Y-65655345D01*
X83755114Y-65655345D02*
X83897971Y-65512488D01*
X83897971Y-65512488D02*
X84183685Y-65369630D01*
X84183685Y-65369630D02*
X84755114Y-65226773D01*
X84755114Y-65226773D02*
X85469400Y-65226773D01*
X85469400Y-65226773D02*
X86040828Y-65369630D01*
X86040828Y-65369630D02*
X86326542Y-65512488D01*
X86326542Y-65512488D02*
X86469400Y-65655345D01*
X86469400Y-65655345D02*
X86612257Y-65941059D01*
X86612257Y-65941059D02*
X86612257Y-66226773D01*
X86612257Y-66226773D02*
X86469400Y-66512488D01*
X86469400Y-66512488D02*
X86326542Y-66655345D01*
X86326542Y-66655345D02*
X86040828Y-66798202D01*
X86040828Y-66798202D02*
X85469400Y-66941059D01*
X85469400Y-66941059D02*
X84755114Y-66941059D01*
X84755114Y-66941059D02*
X84183685Y-66798202D01*
X84183685Y-66798202D02*
X83897971Y-66655345D01*
X83897971Y-66655345D02*
X83755114Y-66512488D01*
X83755114Y-66512488D02*
X83612257Y-66226773D01*
X86326542Y-63941059D02*
X86469400Y-63798202D01*
X86469400Y-63798202D02*
X86612257Y-63941059D01*
X86612257Y-63941059D02*
X86469400Y-64083916D01*
X86469400Y-64083916D02*
X86326542Y-63941059D01*
X86326542Y-63941059D02*
X86612257Y-63941059D01*
X83897971Y-62655345D02*
X83755114Y-62512488D01*
X83755114Y-62512488D02*
X83612257Y-62226774D01*
X83612257Y-62226774D02*
X83612257Y-61512488D01*
X83612257Y-61512488D02*
X83755114Y-61226774D01*
X83755114Y-61226774D02*
X83897971Y-61083916D01*
X83897971Y-61083916D02*
X84183685Y-60941059D01*
X84183685Y-60941059D02*
X84469400Y-60941059D01*
X84469400Y-60941059D02*
X84897971Y-61083916D01*
X84897971Y-61083916D02*
X86612257Y-62798202D01*
X86612257Y-62798202D02*
X86612257Y-60941059D01*
D11*
X75866666Y-99784819D02*
X75866666Y-100499104D01*
X75866666Y-100499104D02*
X75819047Y-100641961D01*
X75819047Y-100641961D02*
X75723809Y-100737200D01*
X75723809Y-100737200D02*
X75580952Y-100784819D01*
X75580952Y-100784819D02*
X75485714Y-100784819D01*
X76247619Y-99784819D02*
X76866666Y-99784819D01*
X76866666Y-99784819D02*
X76533333Y-100165771D01*
X76533333Y-100165771D02*
X76676190Y-100165771D01*
X76676190Y-100165771D02*
X76771428Y-100213390D01*
X76771428Y-100213390D02*
X76819047Y-100261009D01*
X76819047Y-100261009D02*
X76866666Y-100356247D01*
X76866666Y-100356247D02*
X76866666Y-100594342D01*
X76866666Y-100594342D02*
X76819047Y-100689580D01*
X76819047Y-100689580D02*
X76771428Y-100737200D01*
X76771428Y-100737200D02*
X76676190Y-100784819D01*
X76676190Y-100784819D02*
X76390476Y-100784819D01*
X76390476Y-100784819D02*
X76295238Y-100737200D01*
X76295238Y-100737200D02*
X76247619Y-100689580D01*
X108458095Y-98641819D02*
X108458095Y-99451342D01*
X108458095Y-99451342D02*
X108505714Y-99546580D01*
X108505714Y-99546580D02*
X108553333Y-99594200D01*
X108553333Y-99594200D02*
X108648571Y-99641819D01*
X108648571Y-99641819D02*
X108839047Y-99641819D01*
X108839047Y-99641819D02*
X108934285Y-99594200D01*
X108934285Y-99594200D02*
X108981904Y-99546580D01*
X108981904Y-99546580D02*
X109029523Y-99451342D01*
X109029523Y-99451342D02*
X109029523Y-98641819D01*
X110029523Y-99641819D02*
X109458095Y-99641819D01*
X109743809Y-99641819D02*
X109743809Y-98641819D01*
X109743809Y-98641819D02*
X109648571Y-98784676D01*
X109648571Y-98784676D02*
X109553333Y-98879914D01*
X109553333Y-98879914D02*
X109458095Y-98927533D01*
D12*
X69790000Y-49470000D02*
X71120000Y-49470000D01*
X69790000Y-50800000D02*
X69790000Y-49470000D01*
X69790000Y-52070000D02*
X69790000Y-100390000D01*
X69790000Y-52070000D02*
X72390000Y-52070000D01*
X69790000Y-100390000D02*
X74990000Y-100390000D01*
X72390000Y-49470000D02*
X74990000Y-49470000D01*
X72390000Y-52070000D02*
X72390000Y-49470000D01*
X74990000Y-49470000D02*
X74990000Y-100390000D01*
G36*
X88111798Y-52581521D02*
G01*
X88458954Y-52582142D01*
X88474403Y-52589748D01*
X88491456Y-52600268D01*
X88505011Y-52613546D01*
X88515748Y-52630261D01*
X88516587Y-52631932D01*
X88520335Y-52640013D01*
X88522604Y-52646689D01*
X88523755Y-52653703D01*
X88524152Y-52662797D01*
X88524181Y-52668432D01*
X88523986Y-52679330D01*
X88523181Y-52687335D01*
X88521416Y-52694214D01*
X88518338Y-52701735D01*
X88516978Y-52704650D01*
X88506884Y-52721038D01*
X88493502Y-52735351D01*
X88477937Y-52746460D01*
X88474197Y-52748427D01*
X88461188Y-52754820D01*
X88112915Y-52755441D01*
X87764642Y-52756061D01*
X87764642Y-52668481D01*
X87764642Y-52580901D01*
X88111798Y-52581521D01*
G37*
G36*
X88240041Y-49461428D02*
G01*
X88328940Y-49464910D01*
X88399351Y-49469383D01*
X88527305Y-49481336D01*
X88654302Y-49497846D01*
X88780259Y-49518887D01*
X88905095Y-49544435D01*
X89028730Y-49574464D01*
X89151081Y-49608949D01*
X89272067Y-49647864D01*
X89391608Y-49691185D01*
X89509622Y-49738886D01*
X89626028Y-49790941D01*
X89740744Y-49847326D01*
X89853689Y-49908016D01*
X89905405Y-49937591D01*
X90013597Y-50003365D01*
X90119228Y-50073008D01*
X90222196Y-50146427D01*
X90322402Y-50223525D01*
X90419744Y-50304208D01*
X90514122Y-50388380D01*
X90605436Y-50475947D01*
X90693585Y-50566814D01*
X90778469Y-50660885D01*
X90859987Y-50758065D01*
X90938039Y-50858259D01*
X91012524Y-50961372D01*
X91058160Y-51028676D01*
X91108214Y-51106163D01*
X91154669Y-51181852D01*
X91197897Y-51256393D01*
X91238271Y-51330440D01*
X91276162Y-51404645D01*
X91296066Y-51445734D01*
X91349301Y-51562767D01*
X91397941Y-51680248D01*
X91442030Y-51798342D01*
X91481608Y-51917218D01*
X91516721Y-52037043D01*
X91547410Y-52157984D01*
X91573719Y-52280208D01*
X91595690Y-52403881D01*
X91613367Y-52529172D01*
X91626793Y-52656247D01*
X91634725Y-52762987D01*
X91635646Y-52781537D01*
X91636430Y-52804077D01*
X91637079Y-52829974D01*
X91637593Y-52858593D01*
X91637971Y-52889301D01*
X91638214Y-52921465D01*
X91638321Y-52954450D01*
X91638293Y-52987624D01*
X91638130Y-53020352D01*
X91637833Y-53052001D01*
X91637400Y-53081937D01*
X91636832Y-53109526D01*
X91636130Y-53134135D01*
X91635293Y-53155130D01*
X91634668Y-53166680D01*
X91624386Y-53295729D01*
X91609593Y-53423669D01*
X91590311Y-53550437D01*
X91566559Y-53675966D01*
X91538360Y-53800192D01*
X91505733Y-53923048D01*
X91468700Y-54044471D01*
X91427281Y-54164394D01*
X91381498Y-54282752D01*
X91331371Y-54399481D01*
X91276920Y-54514513D01*
X91218168Y-54627785D01*
X91155133Y-54739231D01*
X91108993Y-54815289D01*
X91039882Y-54921672D01*
X90966923Y-55025440D01*
X90890188Y-55126509D01*
X90809749Y-55224797D01*
X90725677Y-55320222D01*
X90638045Y-55412700D01*
X90546924Y-55502150D01*
X90452385Y-55588489D01*
X90389815Y-55642332D01*
X90292592Y-55721166D01*
X90193098Y-55796086D01*
X90090947Y-55867368D01*
X89985751Y-55935286D01*
X89936845Y-55965108D01*
X89826302Y-56028610D01*
X89713750Y-56087920D01*
X89599301Y-56143005D01*
X89483066Y-56193830D01*
X89365156Y-56240361D01*
X89245682Y-56282564D01*
X89124756Y-56320406D01*
X89002488Y-56353852D01*
X88878990Y-56382869D01*
X88754374Y-56407422D01*
X88628750Y-56427478D01*
X88502230Y-56443002D01*
X88374924Y-56453961D01*
X88327013Y-56456886D01*
X88316100Y-56457327D01*
X88301061Y-56457711D01*
X88282435Y-56458039D01*
X88260760Y-56458309D01*
X88236577Y-56458524D01*
X88210424Y-56458682D01*
X88182843Y-56458785D01*
X88154371Y-56458832D01*
X88125549Y-56458824D01*
X88096917Y-56458761D01*
X88069013Y-56458644D01*
X88042377Y-56458472D01*
X88017550Y-56458247D01*
X87995069Y-56457968D01*
X87975475Y-56457635D01*
X87959308Y-56457250D01*
X87947107Y-56456812D01*
X87944321Y-56456672D01*
X87818828Y-56447401D01*
X87693502Y-56433508D01*
X87568538Y-56415036D01*
X87444128Y-56392031D01*
X87320467Y-56364536D01*
X87197749Y-56332596D01*
X87076166Y-56296255D01*
X86955912Y-56255557D01*
X86837182Y-56210547D01*
X86796245Y-56193875D01*
X86699010Y-56151690D01*
X86601711Y-56105810D01*
X86505094Y-56056643D01*
X86409906Y-56004601D01*
X86316892Y-55950093D01*
X86226799Y-55893530D01*
X86140373Y-55835320D01*
X86128868Y-55827246D01*
X86039768Y-55762453D01*
X85954404Y-55696323D01*
X85871879Y-55628106D01*
X85791300Y-55557053D01*
X85711771Y-55482414D01*
X85678865Y-55450209D01*
X85592421Y-55361775D01*
X85510181Y-55271789D01*
X85431845Y-55179867D01*
X85357118Y-55085624D01*
X85285700Y-54988677D01*
X85217296Y-54888642D01*
X85151607Y-54785135D01*
X85111082Y-54717282D01*
X85049849Y-54607708D01*
X84992655Y-54495871D01*
X84939550Y-54381928D01*
X84890584Y-54266040D01*
X84845807Y-54148364D01*
X84805268Y-54029060D01*
X84769018Y-53908286D01*
X84737106Y-53786201D01*
X84709583Y-53662964D01*
X84686498Y-53538734D01*
X84667901Y-53413669D01*
X84653843Y-53287928D01*
X84650760Y-53253019D01*
X84648865Y-53229580D01*
X84647229Y-53207691D01*
X84645811Y-53186554D01*
X84644571Y-53165374D01*
X84643468Y-53143355D01*
X84642462Y-53119702D01*
X84641512Y-53093617D01*
X84640578Y-53064305D01*
X84639807Y-53037710D01*
X84638694Y-52915151D01*
X84642213Y-52792029D01*
X84649834Y-52676398D01*
X85602447Y-52676398D01*
X85602982Y-52700504D01*
X85604324Y-52722787D01*
X85606481Y-52741983D01*
X85606988Y-52745201D01*
X85617213Y-52792837D01*
X85631619Y-52838606D01*
X85650039Y-52882301D01*
X85672304Y-52923713D01*
X85698245Y-52962635D01*
X85727695Y-52998857D01*
X85760485Y-53032174D01*
X85796446Y-53062375D01*
X85835410Y-53089254D01*
X85877208Y-53112602D01*
X85919692Y-53131441D01*
X85944745Y-53140221D01*
X85972746Y-53148263D01*
X86001984Y-53155105D01*
X86021572Y-53158818D01*
X86025270Y-53159402D01*
X86029333Y-53159932D01*
X86034005Y-53160412D01*
X86039529Y-53160845D01*
X86046147Y-53161236D01*
X86054103Y-53161587D01*
X86063640Y-53161903D01*
X86075001Y-53162188D01*
X86088428Y-53162445D01*
X86104166Y-53162678D01*
X86122456Y-53162890D01*
X86143542Y-53163086D01*
X86167668Y-53163269D01*
X86195075Y-53163443D01*
X86226008Y-53163611D01*
X86260708Y-53163777D01*
X86299420Y-53163946D01*
X86342385Y-53164121D01*
X86375051Y-53164248D01*
X86421378Y-53164421D01*
X86463274Y-53164572D01*
X86500973Y-53164713D01*
X86534710Y-53164854D01*
X86564722Y-53165005D01*
X86591243Y-53165177D01*
X86614508Y-53165382D01*
X86634753Y-53165629D01*
X86652212Y-53165929D01*
X86667122Y-53166293D01*
X86679717Y-53166732D01*
X86690232Y-53167256D01*
X86698903Y-53167875D01*
X86705965Y-53168601D01*
X86711653Y-53169445D01*
X86716202Y-53170416D01*
X86719847Y-53171525D01*
X86722825Y-53172784D01*
X86725369Y-53174202D01*
X86727715Y-53175791D01*
X86730098Y-53177561D01*
X86732754Y-53179522D01*
X86734165Y-53180514D01*
X86745988Y-53190173D01*
X86755443Y-53201659D01*
X86763662Y-53216358D01*
X86764031Y-53217138D01*
X86767962Y-53226634D01*
X86770042Y-53235309D01*
X86770791Y-53245576D01*
X86770831Y-53248716D01*
X86770603Y-53261166D01*
X86769492Y-53270776D01*
X86767083Y-53279351D01*
X86762958Y-53288694D01*
X86760517Y-53293466D01*
X86750717Y-53307787D01*
X86737664Y-53320483D01*
X86722760Y-53330286D01*
X86716907Y-53332986D01*
X86704073Y-53338192D01*
X86239709Y-53339432D01*
X85775345Y-53340673D01*
X85758166Y-53345684D01*
X85728145Y-53356670D01*
X85700893Y-53371158D01*
X85676628Y-53388866D01*
X85655568Y-53409509D01*
X85637932Y-53432803D01*
X85623939Y-53458464D01*
X85613806Y-53486209D01*
X85607753Y-53515753D01*
X85605973Y-53543539D01*
X85608214Y-53574475D01*
X85614815Y-53604030D01*
X85625595Y-53631893D01*
X85640373Y-53657756D01*
X85658967Y-53681310D01*
X85681195Y-53702244D01*
X85706877Y-53720251D01*
X85711174Y-53722771D01*
X85720229Y-53727182D01*
X85732340Y-53732038D01*
X85745994Y-53736825D01*
X85759680Y-53741029D01*
X85771887Y-53744135D01*
X85776776Y-53745086D01*
X85780388Y-53745302D01*
X85788451Y-53745514D01*
X85800749Y-53745721D01*
X85817065Y-53745922D01*
X85837183Y-53746115D01*
X85860889Y-53746300D01*
X85887964Y-53746475D01*
X85918193Y-53746640D01*
X85951361Y-53746792D01*
X85987250Y-53746932D01*
X86025646Y-53747058D01*
X86066331Y-53747169D01*
X86109089Y-53747264D01*
X86153705Y-53747342D01*
X86199962Y-53747402D01*
X86247645Y-53747443D01*
X86252613Y-53747446D01*
X86308223Y-53747475D01*
X86359364Y-53747494D01*
X86406234Y-53747501D01*
X86449030Y-53747495D01*
X86487952Y-53747474D01*
X86523196Y-53747438D01*
X86554961Y-53747384D01*
X86583444Y-53747312D01*
X86608844Y-53747220D01*
X86631358Y-53747107D01*
X86651185Y-53746972D01*
X86668522Y-53746813D01*
X86683567Y-53746628D01*
X86696518Y-53746418D01*
X86707573Y-53746179D01*
X86716931Y-53745912D01*
X86724788Y-53745614D01*
X86731343Y-53745284D01*
X86736794Y-53744921D01*
X86741339Y-53744524D01*
X86744754Y-53744144D01*
X86792464Y-53735935D01*
X86838616Y-53723338D01*
X86883099Y-53706404D01*
X86925799Y-53685183D01*
X86966604Y-53659725D01*
X87005401Y-53630079D01*
X87010175Y-53626020D01*
X87042159Y-53595576D01*
X87071600Y-53561656D01*
X87098151Y-53524848D01*
X87121465Y-53485741D01*
X87141194Y-53444924D01*
X87156991Y-53402987D01*
X87168508Y-53360518D01*
X87169510Y-53355787D01*
X87177230Y-53307281D01*
X87180396Y-53259242D01*
X87179041Y-53211853D01*
X87173201Y-53165301D01*
X87162911Y-53119770D01*
X87148205Y-53075446D01*
X87129119Y-53032512D01*
X87105686Y-52991154D01*
X87098687Y-52980383D01*
X87073651Y-52945973D01*
X87046087Y-52913687D01*
X87016833Y-52884451D01*
X87016584Y-52884237D01*
X87356285Y-52884237D01*
X87356286Y-52947123D01*
X87356287Y-52956068D01*
X87356301Y-53025934D01*
X87356332Y-53091845D01*
X87356382Y-53153755D01*
X87356449Y-53211618D01*
X87356533Y-53265387D01*
X87356635Y-53315017D01*
X87356754Y-53360459D01*
X87356890Y-53401669D01*
X87357043Y-53438599D01*
X87357212Y-53471204D01*
X87357397Y-53499437D01*
X87357599Y-53523251D01*
X87357817Y-53542600D01*
X87358050Y-53557438D01*
X87358299Y-53567718D01*
X87358564Y-53573393D01*
X87358661Y-53574288D01*
X87365848Y-53604719D01*
X87377202Y-53633050D01*
X87392708Y-53659255D01*
X87412355Y-53683308D01*
X87421595Y-53692534D01*
X87443020Y-53710524D01*
X87465226Y-53724503D01*
X87489375Y-53735113D01*
X87510292Y-53741458D01*
X87519810Y-53743829D01*
X87527360Y-53745451D01*
X87534190Y-53746436D01*
X87541549Y-53746895D01*
X87550686Y-53746940D01*
X87562848Y-53746681D01*
X87567463Y-53746555D01*
X87585617Y-53745663D01*
X87600029Y-53744039D01*
X87611582Y-53741580D01*
X87612966Y-53741179D01*
X87635883Y-53733431D01*
X87655449Y-53724671D01*
X87672974Y-53714161D01*
X87689766Y-53701166D01*
X87699330Y-53692534D01*
X87719022Y-53671564D01*
X87734990Y-53649065D01*
X87747798Y-53624125D01*
X87757016Y-53599068D01*
X87763433Y-53578541D01*
X87764121Y-53371500D01*
X87764340Y-53305523D01*
X89107564Y-53305523D01*
X89113019Y-53335720D01*
X89123667Y-53383043D01*
X89138105Y-53427823D01*
X89156477Y-53470426D01*
X89178929Y-53511223D01*
X89186266Y-53522834D01*
X89213810Y-53560988D01*
X89244737Y-53596187D01*
X89278726Y-53628230D01*
X89315459Y-53656914D01*
X89354615Y-53682038D01*
X89395873Y-53703400D01*
X89438915Y-53720799D01*
X89483421Y-53734032D01*
X89529069Y-53742898D01*
X89536925Y-53743957D01*
X89542534Y-53744368D01*
X89552474Y-53744757D01*
X89566471Y-53745122D01*
X89584248Y-53745464D01*
X89605531Y-53745782D01*
X89630046Y-53746077D01*
X89657516Y-53746349D01*
X89687668Y-53746596D01*
X89720225Y-53746820D01*
X89754913Y-53747019D01*
X89791457Y-53747195D01*
X89829582Y-53747346D01*
X89869013Y-53747472D01*
X89909475Y-53747575D01*
X89950692Y-53747652D01*
X89992390Y-53747705D01*
X90034294Y-53747733D01*
X90076128Y-53747736D01*
X90117618Y-53747713D01*
X90158489Y-53747666D01*
X90198465Y-53747593D01*
X90237272Y-53747494D01*
X90274634Y-53747370D01*
X90310277Y-53747220D01*
X90343926Y-53747044D01*
X90375304Y-53746842D01*
X90404139Y-53746614D01*
X90430153Y-53746360D01*
X90453073Y-53746079D01*
X90472623Y-53745772D01*
X90488529Y-53745438D01*
X90500515Y-53745078D01*
X90508306Y-53744690D01*
X90511156Y-53744396D01*
X90541530Y-53736658D01*
X90569640Y-53724948D01*
X90595233Y-53709505D01*
X90618060Y-53690568D01*
X90637870Y-53668376D01*
X90654412Y-53643166D01*
X90667435Y-53615177D01*
X90676002Y-53587555D01*
X90678556Y-53572367D01*
X90679806Y-53554352D01*
X90679776Y-53535154D01*
X90678487Y-53516420D01*
X90675962Y-53499796D01*
X90674726Y-53494535D01*
X90664505Y-53464649D01*
X90650441Y-53437266D01*
X90632778Y-53412633D01*
X90611760Y-53390996D01*
X90587630Y-53372604D01*
X90560632Y-53357703D01*
X90531008Y-53346541D01*
X90528142Y-53345706D01*
X90509989Y-53340541D01*
X90045625Y-53339366D01*
X89990688Y-53339226D01*
X89940224Y-53339091D01*
X89894039Y-53338961D01*
X89851941Y-53338832D01*
X89813735Y-53338704D01*
X89779227Y-53338574D01*
X89748225Y-53338439D01*
X89720533Y-53338299D01*
X89695960Y-53338150D01*
X89674310Y-53337990D01*
X89655391Y-53337818D01*
X89639009Y-53337630D01*
X89624970Y-53337427D01*
X89613080Y-53337204D01*
X89603145Y-53336960D01*
X89594973Y-53336693D01*
X89588369Y-53336400D01*
X89583140Y-53336080D01*
X89579092Y-53335731D01*
X89576031Y-53335350D01*
X89573764Y-53334936D01*
X89572098Y-53334485D01*
X89571319Y-53334203D01*
X89553048Y-53324503D01*
X89537776Y-53311248D01*
X89525445Y-53294383D01*
X89520882Y-53285688D01*
X89515924Y-53275188D01*
X89514757Y-52808490D01*
X89513590Y-52341793D01*
X89507145Y-52321241D01*
X89495822Y-52291790D01*
X89481214Y-52265454D01*
X89463043Y-52241779D01*
X89450417Y-52228762D01*
X89427069Y-52209689D01*
X89401433Y-52194430D01*
X89374026Y-52183131D01*
X89345363Y-52175942D01*
X89315961Y-52173011D01*
X89286335Y-52174487D01*
X89270908Y-52177067D01*
X89241272Y-52185267D01*
X89214473Y-52196986D01*
X89190007Y-52212485D01*
X89170737Y-52228762D01*
X89150311Y-52251068D01*
X89133615Y-52275765D01*
X89120370Y-52303306D01*
X89114010Y-52321241D01*
X89107564Y-52341793D01*
X89107564Y-52823658D01*
X89107564Y-53305523D01*
X87764340Y-53305523D01*
X87764809Y-53164460D01*
X88127000Y-53163750D01*
X88176168Y-53163656D01*
X88220909Y-53163572D01*
X88261462Y-53163489D01*
X88298066Y-53163397D01*
X88330961Y-53163288D01*
X88360386Y-53163154D01*
X88386580Y-53162986D01*
X88409784Y-53162776D01*
X88430235Y-53162514D01*
X88448174Y-53162192D01*
X88463840Y-53161801D01*
X88477473Y-53161333D01*
X88489311Y-53160779D01*
X88499595Y-53160130D01*
X88508563Y-53159378D01*
X88516456Y-53158514D01*
X88523512Y-53157530D01*
X88529970Y-53156416D01*
X88536071Y-53155164D01*
X88542054Y-53153766D01*
X88548157Y-53152212D01*
X88554621Y-53150495D01*
X88561685Y-53148605D01*
X88564176Y-53147945D01*
X88610144Y-53133454D01*
X88654042Y-53114824D01*
X88695690Y-53092187D01*
X88734906Y-53065672D01*
X88771509Y-53035410D01*
X88805318Y-53001530D01*
X88836152Y-52964162D01*
X88852739Y-52940736D01*
X88863847Y-52922724D01*
X88875373Y-52901561D01*
X88886650Y-52878633D01*
X88897010Y-52855328D01*
X88905786Y-52833035D01*
X88909056Y-52823658D01*
X88921201Y-52779916D01*
X88929238Y-52734595D01*
X88933139Y-52688378D01*
X88932877Y-52641950D01*
X88928425Y-52595996D01*
X88919844Y-52551554D01*
X88906302Y-52505738D01*
X88888661Y-52461919D01*
X88867136Y-52420319D01*
X88841943Y-52381156D01*
X88813298Y-52344651D01*
X88781416Y-52311024D01*
X88746513Y-52280494D01*
X88708804Y-52253281D01*
X88668506Y-52229606D01*
X88625833Y-52209688D01*
X88581002Y-52193748D01*
X88564348Y-52189018D01*
X88557940Y-52187284D01*
X88552166Y-52185687D01*
X88546824Y-52184220D01*
X88541713Y-52182879D01*
X88536630Y-52181656D01*
X88531373Y-52180548D01*
X88525741Y-52179548D01*
X88519532Y-52178650D01*
X88512544Y-52177850D01*
X88504574Y-52177142D01*
X88495422Y-52176520D01*
X88484884Y-52175979D01*
X88472760Y-52175513D01*
X88458846Y-52175117D01*
X88442942Y-52174784D01*
X88424845Y-52174511D01*
X88404354Y-52174290D01*
X88381266Y-52174117D01*
X88355380Y-52173985D01*
X88326493Y-52173891D01*
X88294404Y-52173827D01*
X88258911Y-52173788D01*
X88219811Y-52173769D01*
X88176904Y-52173765D01*
X88129987Y-52173769D01*
X88078857Y-52173777D01*
X88023314Y-52173782D01*
X88008492Y-52173782D01*
X87525460Y-52173782D01*
X87507137Y-52179090D01*
X87477912Y-52189842D01*
X87451059Y-52204314D01*
X87426888Y-52222177D01*
X87405712Y-52243101D01*
X87387842Y-52266757D01*
X87373590Y-52292814D01*
X87363265Y-52320943D01*
X87359772Y-52335203D01*
X87359401Y-52337407D01*
X87359057Y-52340410D01*
X87358739Y-52344381D01*
X87358445Y-52349485D01*
X87358174Y-52355890D01*
X87357927Y-52363764D01*
X87357701Y-52373273D01*
X87357496Y-52384585D01*
X87357311Y-52397867D01*
X87357145Y-52413285D01*
X87356997Y-52431008D01*
X87356866Y-52451201D01*
X87356751Y-52474034D01*
X87356652Y-52499671D01*
X87356566Y-52528281D01*
X87356494Y-52560031D01*
X87356435Y-52595088D01*
X87356387Y-52633620D01*
X87356349Y-52675792D01*
X87356321Y-52721773D01*
X87356302Y-52771729D01*
X87356290Y-52825828D01*
X87356285Y-52884237D01*
X87016584Y-52884237D01*
X86994592Y-52865325D01*
X86962113Y-52841679D01*
X86926501Y-52820037D01*
X86888894Y-52800966D01*
X86850431Y-52785034D01*
X86812251Y-52772808D01*
X86805579Y-52771066D01*
X86798284Y-52769210D01*
X86791691Y-52767530D01*
X86785548Y-52766016D01*
X86779601Y-52764659D01*
X86773598Y-52763448D01*
X86767285Y-52762375D01*
X86760408Y-52761430D01*
X86752715Y-52760603D01*
X86743951Y-52759885D01*
X86733865Y-52759267D01*
X86722202Y-52758738D01*
X86708709Y-52758290D01*
X86693134Y-52757912D01*
X86675222Y-52757595D01*
X86654720Y-52757330D01*
X86631375Y-52757107D01*
X86604934Y-52756917D01*
X86575144Y-52756750D01*
X86541751Y-52756596D01*
X86504502Y-52756446D01*
X86463143Y-52756291D01*
X86417422Y-52756120D01*
X86407669Y-52756083D01*
X86076262Y-52754820D01*
X86060901Y-52747257D01*
X86044351Y-52736674D01*
X86030080Y-52722706D01*
X86019113Y-52706399D01*
X86017349Y-52702826D01*
X86012646Y-52688008D01*
X86010841Y-52671146D01*
X86011952Y-52653869D01*
X86016000Y-52637808D01*
X86016538Y-52636403D01*
X86024879Y-52621061D01*
X86036828Y-52606958D01*
X86051329Y-52595206D01*
X86060746Y-52589782D01*
X86076265Y-52582142D01*
X86543012Y-52580899D01*
X86597880Y-52580752D01*
X86648278Y-52580615D01*
X86694403Y-52580486D01*
X86736453Y-52580361D01*
X86774625Y-52580238D01*
X86809117Y-52580115D01*
X86840125Y-52579989D01*
X86867846Y-52579857D01*
X86892479Y-52579718D01*
X86914219Y-52579569D01*
X86933265Y-52579407D01*
X86949814Y-52579230D01*
X86964062Y-52579035D01*
X86976208Y-52578820D01*
X86986448Y-52578582D01*
X86994979Y-52578319D01*
X87002000Y-52578029D01*
X87007706Y-52577708D01*
X87012295Y-52577354D01*
X87015965Y-52576966D01*
X87018913Y-52576540D01*
X87021336Y-52576073D01*
X87023431Y-52575565D01*
X87025396Y-52575011D01*
X87026094Y-52574804D01*
X87056433Y-52563873D01*
X87083630Y-52550097D01*
X87107299Y-52533679D01*
X87112337Y-52529434D01*
X87122688Y-52519077D01*
X87133771Y-52505805D01*
X87144532Y-52491012D01*
X87153915Y-52476093D01*
X87157261Y-52469992D01*
X87168925Y-52442692D01*
X87176413Y-52414053D01*
X87179711Y-52384697D01*
X87178805Y-52355248D01*
X87173679Y-52326326D01*
X87164319Y-52298556D01*
X87161397Y-52292038D01*
X87146163Y-52264541D01*
X87128033Y-52240659D01*
X87106820Y-52220214D01*
X87082335Y-52203029D01*
X87054392Y-52188926D01*
X87050595Y-52187350D01*
X87046864Y-52185799D01*
X87043499Y-52184369D01*
X87040305Y-52183058D01*
X87037086Y-52181859D01*
X87033646Y-52180767D01*
X87029790Y-52179779D01*
X87025321Y-52178887D01*
X87020044Y-52178088D01*
X87013763Y-52177377D01*
X87006282Y-52176748D01*
X86997405Y-52176197D01*
X86986937Y-52175717D01*
X86974682Y-52175305D01*
X86960444Y-52174956D01*
X86944027Y-52174663D01*
X86925235Y-52174423D01*
X86903872Y-52174229D01*
X86879744Y-52174078D01*
X86852653Y-52173964D01*
X86822405Y-52173882D01*
X86788802Y-52173827D01*
X86751651Y-52173794D01*
X86710753Y-52173778D01*
X86665915Y-52173774D01*
X86616940Y-52173776D01*
X86563632Y-52173781D01*
X86523228Y-52173782D01*
X86043696Y-52173782D01*
X86015694Y-52179080D01*
X85979875Y-52186822D01*
X85947103Y-52196062D01*
X85915869Y-52207304D01*
X85884661Y-52221051D01*
X85873908Y-52226325D01*
X85832217Y-52249807D01*
X85793450Y-52276838D01*
X85757756Y-52307215D01*
X85725286Y-52340734D01*
X85696191Y-52377188D01*
X85670621Y-52416375D01*
X85648727Y-52458089D01*
X85630660Y-52502126D01*
X85616570Y-52548282D01*
X85608184Y-52587033D01*
X85605588Y-52605787D01*
X85603760Y-52627775D01*
X85602710Y-52651734D01*
X85602447Y-52676398D01*
X84649834Y-52676398D01*
X84650364Y-52668351D01*
X84659005Y-52579809D01*
X84675453Y-52452294D01*
X84696416Y-52325921D01*
X84721868Y-52200765D01*
X84751778Y-52076905D01*
X84786121Y-51954419D01*
X84824866Y-51833382D01*
X84867986Y-51713874D01*
X84915453Y-51595972D01*
X84967238Y-51479753D01*
X85023313Y-51365294D01*
X85083651Y-51252674D01*
X85148222Y-51141970D01*
X85216998Y-51033258D01*
X85228956Y-51015206D01*
X85300318Y-50912342D01*
X85375640Y-50811811D01*
X85454714Y-50713853D01*
X85537331Y-50618705D01*
X85623280Y-50526609D01*
X85712352Y-50437802D01*
X85804337Y-50352524D01*
X85828201Y-50331400D01*
X85926614Y-50248178D01*
X86027538Y-50168873D01*
X86130911Y-50093520D01*
X86236670Y-50022153D01*
X86344754Y-49954806D01*
X86455101Y-49891514D01*
X86567648Y-49832312D01*
X86682334Y-49777233D01*
X86799097Y-49726312D01*
X86917874Y-49679583D01*
X87038603Y-49637080D01*
X87140435Y-49604981D01*
X87249712Y-49574411D01*
X87361593Y-49547164D01*
X87475261Y-49523390D01*
X87589897Y-49503239D01*
X87704683Y-49486861D01*
X87818801Y-49474407D01*
X87878983Y-49469430D01*
X87967530Y-49464140D01*
X88058068Y-49461043D01*
X88149328Y-49460139D01*
X88240041Y-49461428D01*
G37*
X95250000Y-52070000D02*
X100330000Y-52070000D01*
X95250000Y-100330000D02*
X95250000Y-52070000D01*
X100330000Y-45720000D02*
X118110000Y-45720000D01*
X100330000Y-52070000D02*
X100330000Y-45720000D01*
X118110000Y-45720000D02*
X118110000Y-52070000D01*
X118110000Y-52070000D02*
X123190000Y-52070000D01*
X123190000Y-52070000D02*
X123190000Y-100330000D01*
X123190000Y-100330000D02*
X95250000Y-100330000D01*
M02*
