%TF.GenerationSoftware,KiCad,Pcbnew,7.0.6*%
%TF.CreationDate,2024-03-10T08:43:15+01:00*%
%TF.ProjectId,blue_64,626c7565-5f36-4342-9e6b-696361645f70,rev?*%
%TF.SameCoordinates,Original*%
%TF.FileFunction,Copper,L1,Top*%
%TF.FilePolarity,Positive*%
%FSLAX46Y46*%
G04 Gerber Fmt 4.6, Leading zero omitted, Abs format (unit mm)*
G04 Created by KiCad (PCBNEW 7.0.6) date 2024-03-10 08:43:15*
%MOMM*%
%LPD*%
G01*
G04 APERTURE LIST*
%TA.AperFunction,ComponentPad*%
%ADD10C,2.200000*%
%TD*%
%TA.AperFunction,ComponentPad*%
%ADD11O,2.200000X2.200000*%
%TD*%
%TA.AperFunction,ComponentPad*%
%ADD12R,1.700000X1.700000*%
%TD*%
%TA.AperFunction,ComponentPad*%
%ADD13O,1.700000X1.700000*%
%TD*%
%TA.AperFunction,ComponentPad*%
%ADD14C,1.700000*%
%TD*%
%TA.AperFunction,ViaPad*%
%ADD15C,0.600000*%
%TD*%
%TA.AperFunction,Conductor*%
%ADD16C,1.500000*%
%TD*%
%TA.AperFunction,Conductor*%
%ADD17C,0.400000*%
%TD*%
%TA.AperFunction,Conductor*%
%ADD18C,0.300000*%
%TD*%
G04 APERTURE END LIST*
D10*
X65127000Y-88900000D03*
D11*
X62127000Y-88900000D03*
X65377000Y-85090000D03*
D10*
X61877000Y-85090000D03*
D12*
X69850000Y-50800000D03*
D13*
X72390000Y-50800000D03*
X69850000Y-53340000D03*
X72390000Y-53340000D03*
X69850000Y-55880000D03*
X72390000Y-55880000D03*
X69850000Y-58420000D03*
X72390000Y-58420000D03*
X69850000Y-60960000D03*
X72390000Y-60960000D03*
X69850000Y-63500000D03*
X72390000Y-63500000D03*
X69850000Y-66040000D03*
X72390000Y-66040000D03*
X69850000Y-68580000D03*
X72390000Y-68580000D03*
X69850000Y-71120000D03*
X72390000Y-71120000D03*
X69850000Y-73660000D03*
X72390000Y-73660000D03*
X69850000Y-76200000D03*
X72390000Y-76200000D03*
X69850000Y-78740000D03*
X72390000Y-78740000D03*
X69850000Y-81280000D03*
X72390000Y-81280000D03*
X69850000Y-83820000D03*
X72390000Y-83820000D03*
X69850000Y-86360000D03*
X72390000Y-86360000D03*
X69850000Y-88900000D03*
X72390000Y-88900000D03*
X69850000Y-91440000D03*
X72390000Y-91440000D03*
X69850000Y-93980000D03*
X72390000Y-93980000D03*
X69850000Y-96520000D03*
X72390000Y-96520000D03*
X69850000Y-99060000D03*
X72390000Y-99060000D03*
D14*
X121920000Y-86360000D03*
X121920000Y-88900000D03*
X96520000Y-53340000D03*
X121920000Y-83820000D03*
X121920000Y-76200000D03*
X96520000Y-99060000D03*
X96520000Y-83820000D03*
X96520000Y-88900000D03*
X96520000Y-81280000D03*
X121920000Y-91440000D03*
X121920000Y-81280000D03*
X121920000Y-78740000D03*
X121920000Y-73660000D03*
X121920000Y-71120000D03*
X121920000Y-66040000D03*
X121920000Y-58420000D03*
X121920000Y-55880000D03*
X96520000Y-73660000D03*
X96520000Y-76200000D03*
X96520000Y-78740000D03*
X96520000Y-68580000D03*
X96520000Y-71120000D03*
X96520000Y-63500000D03*
X96520000Y-66040000D03*
X121920000Y-99060000D03*
X96520000Y-96520000D03*
X121920000Y-96520000D03*
X121920000Y-93980000D03*
X96520000Y-91440000D03*
X96520000Y-93980000D03*
X96520000Y-55880000D03*
X96520000Y-86360000D03*
X121920000Y-53340000D03*
X121920000Y-68580000D03*
X121920000Y-63500000D03*
X121920000Y-60960000D03*
X96520000Y-60960000D03*
X96520000Y-58420000D03*
D15*
X75946000Y-67056000D03*
X111887000Y-99695000D03*
X106172000Y-73152000D03*
X68326000Y-78740000D03*
X81153000Y-99949000D03*
X75692000Y-82931000D03*
X84201000Y-90170000D03*
X75184000Y-52324000D03*
X101219000Y-73279000D03*
X84201000Y-97917000D03*
X81915000Y-53467000D03*
X108331000Y-95758000D03*
X108839000Y-87503000D03*
X117094000Y-71247000D03*
X113665000Y-95631000D03*
X79883000Y-94869000D03*
X110744000Y-55245000D03*
X94234000Y-58674000D03*
X68326000Y-81280000D03*
X114554000Y-67183000D03*
X89789000Y-67945000D03*
X98171000Y-73914000D03*
X83566000Y-82931000D03*
X79629000Y-62865000D03*
X106172000Y-84201000D03*
X93599000Y-93853000D03*
X101219000Y-83947000D03*
X75819000Y-73025000D03*
X98679000Y-71120000D03*
X120269000Y-76200000D03*
X113157000Y-73279000D03*
X93980000Y-90932000D03*
X98679000Y-63500000D03*
X75692000Y-55245000D03*
X94488000Y-53213000D03*
X116078000Y-53340000D03*
X68326000Y-50800000D03*
X107188000Y-53467000D03*
X89535000Y-71501000D03*
X107061000Y-76708000D03*
X111506000Y-83947000D03*
X77470000Y-82931000D03*
X68326000Y-76200000D03*
X94361000Y-71120000D03*
X100838000Y-60198000D03*
X77470000Y-98298000D03*
X93472000Y-78105000D03*
X98679000Y-58420000D03*
X83058000Y-54356000D03*
X77470000Y-60833000D03*
X68326000Y-93980000D03*
X68326000Y-86360000D03*
X77470000Y-70485000D03*
X91948000Y-88773000D03*
X92456000Y-68072000D03*
X77470000Y-76327000D03*
X115570000Y-87757000D03*
X84709000Y-91313000D03*
X101727000Y-64135000D03*
X81788000Y-66294000D03*
X120650000Y-82423000D03*
X84836000Y-87503000D03*
X84455000Y-67691000D03*
X110490000Y-64008000D03*
X68326000Y-53340000D03*
X102997000Y-55372000D03*
X68326000Y-73660000D03*
X77978000Y-68580000D03*
X77978000Y-53340000D03*
X112014000Y-90805000D03*
X102743000Y-87503000D03*
X75692000Y-60833000D03*
X92710000Y-83566000D03*
X87503000Y-96139000D03*
X105537000Y-99695000D03*
X75819000Y-57785000D03*
X116967000Y-60325000D03*
X80264000Y-78740000D03*
X81153000Y-97028000D03*
X88646000Y-54229000D03*
X91948000Y-59690000D03*
X103759000Y-79502000D03*
X77978000Y-58928000D03*
X84836000Y-56007000D03*
X75692000Y-70485000D03*
X86995000Y-86741000D03*
X94488000Y-60960000D03*
X113792000Y-76581000D03*
X84074000Y-93980000D03*
X120269000Y-66040000D03*
X120269000Y-58420000D03*
X75184000Y-96520000D03*
X68326000Y-55880000D03*
X105283000Y-63500000D03*
X98933000Y-83820000D03*
X86995000Y-88519000D03*
X68326000Y-68580000D03*
X101346000Y-76835000D03*
X81407000Y-73660000D03*
X93472000Y-79883000D03*
X77978000Y-81026000D03*
X86487000Y-100076000D03*
X88138000Y-84201000D03*
X110490000Y-79502000D03*
X106045000Y-90805000D03*
X120269000Y-60960000D03*
X77978000Y-74422000D03*
X89408000Y-59690000D03*
X98679000Y-76200000D03*
X91694000Y-55499000D03*
X116967000Y-79248000D03*
X75692000Y-76327000D03*
X105791000Y-58547000D03*
X94361000Y-82296000D03*
X120269000Y-71120000D03*
X98679000Y-66040000D03*
X68326000Y-60960000D03*
X93345000Y-96266000D03*
X75438000Y-85090000D03*
X81153000Y-89408000D03*
X76835000Y-62865000D03*
X83820000Y-75692000D03*
X87630000Y-59690000D03*
X84328000Y-49784000D03*
X99568000Y-99822000D03*
X74930000Y-49911000D03*
X68326000Y-66040000D03*
X68326000Y-71120000D03*
X98679000Y-78740000D03*
X86106000Y-59690000D03*
X91948000Y-75438000D03*
X80391000Y-51308000D03*
X116713000Y-63627000D03*
X118872000Y-94488000D03*
X87503000Y-50419000D03*
X109982000Y-60071000D03*
X88392000Y-75438000D03*
X68326000Y-58420000D03*
X68326000Y-88900000D03*
X75311000Y-88900000D03*
X102235000Y-95758000D03*
X80010000Y-72136000D03*
X98679000Y-53340000D03*
X120269000Y-73660000D03*
X114427000Y-58166000D03*
X81534000Y-56896000D03*
X75819000Y-79375000D03*
X120650000Y-80137000D03*
X109982000Y-71374000D03*
X82550000Y-84836000D03*
X108839000Y-67183000D03*
X68326000Y-63500000D03*
X117856000Y-83693000D03*
X81280000Y-81534000D03*
X83947000Y-59436000D03*
X120269000Y-55880000D03*
X83693000Y-71501000D03*
X103632000Y-71247000D03*
X120269000Y-90424000D03*
X84709000Y-95123000D03*
X77470000Y-55245000D03*
X103759000Y-67183000D03*
X117475000Y-99314000D03*
X89789000Y-83820000D03*
X68326000Y-83820000D03*
X78359000Y-86741000D03*
X87503000Y-92329000D03*
X89789000Y-49149000D03*
X100584000Y-90932000D03*
X81280000Y-60579000D03*
X90297000Y-99060000D03*
X91313000Y-98044000D03*
X82296000Y-62865000D03*
X82296000Y-78740000D03*
X88011000Y-94107000D03*
X91313000Y-100076000D03*
X88011000Y-90297000D03*
X88011000Y-97917000D03*
X81407000Y-52832000D03*
X79756000Y-51816000D03*
X83185000Y-76454000D03*
X81026000Y-74422000D03*
X84645500Y-75247500D03*
X79502000Y-72898000D03*
X84455000Y-82550000D03*
X79756000Y-79502000D03*
X83312000Y-83820000D03*
X81407000Y-80645000D03*
X88900000Y-67310000D03*
X90424000Y-67310000D03*
X91948000Y-67310000D03*
X88900000Y-83185000D03*
X90424000Y-83185000D03*
X91948000Y-83185000D03*
X89408000Y-72390000D03*
X84709000Y-93345000D03*
X83058000Y-72136000D03*
X86868000Y-59309000D03*
X84709000Y-88519000D03*
X85598000Y-72390000D03*
X85344000Y-59309000D03*
X84709000Y-92329000D03*
X88392000Y-59309000D03*
X84328000Y-72136000D03*
X84709000Y-89535000D03*
X84582000Y-97155000D03*
D16*
X65377000Y-85499000D02*
X62127000Y-88749000D01*
X65377000Y-85090000D02*
X65377000Y-85499000D01*
X62127000Y-88749000D02*
X62127000Y-88900000D01*
D17*
X69850000Y-99060000D02*
X72390000Y-99060000D01*
X69850000Y-93980000D02*
X72390000Y-93980000D01*
D18*
X81407000Y-52832000D02*
X81669000Y-52570000D01*
X96012000Y-57150000D02*
X120650000Y-57150000D01*
X81669000Y-52570000D02*
X91432000Y-52570000D01*
X120650000Y-57150000D02*
X121920000Y-58420000D01*
X91432000Y-52570000D02*
X96012000Y-57150000D01*
X91639106Y-52070000D02*
X94179106Y-54610000D01*
X121150000Y-56650000D02*
X121920000Y-55880000D01*
X80010000Y-52070000D02*
X91639106Y-52070000D01*
X79756000Y-51816000D02*
X80010000Y-52070000D01*
X94179106Y-54610000D02*
X97051028Y-54610000D01*
X99091028Y-56650000D02*
X121150000Y-56650000D01*
X97051028Y-54610000D02*
X99091028Y-56650000D01*
X81026000Y-74422000D02*
X81153000Y-74422000D01*
X81153000Y-74422000D02*
X83185000Y-76454000D01*
X84645500Y-74485500D02*
X83058000Y-72898000D01*
X84645500Y-75247500D02*
X84645500Y-74485500D01*
X83058000Y-72898000D02*
X79502000Y-72898000D01*
X79756000Y-79502000D02*
X81407000Y-79502000D01*
X81915000Y-80010000D02*
X84455000Y-82550000D01*
X81407000Y-79502000D02*
X81915000Y-80010000D01*
X81407000Y-80645000D02*
X81930000Y-81168000D01*
X81930000Y-81168000D02*
X81930000Y-82438000D01*
X81930000Y-82438000D02*
X83312000Y-83820000D01*
X99885500Y-74422000D02*
X121158000Y-74422000D01*
X88900000Y-68453000D02*
X89789000Y-69342000D01*
X90424000Y-69342000D02*
X93472000Y-72390000D01*
X89789000Y-69342000D02*
X90424000Y-69342000D01*
X88900000Y-67310000D02*
X88900000Y-68453000D01*
X97853500Y-72390000D02*
X99885500Y-74422000D01*
X93472000Y-72390000D02*
X97853500Y-72390000D01*
X121158000Y-74422000D02*
X121920000Y-73660000D01*
X90424000Y-67310000D02*
X92894000Y-69780000D01*
X120580000Y-69780000D02*
X121920000Y-71120000D01*
X92894000Y-69780000D02*
X120580000Y-69780000D01*
X98917057Y-69280000D02*
X119188000Y-69280000D01*
X91948000Y-67310000D02*
X96947057Y-67310000D01*
X96947057Y-67310000D02*
X98917057Y-69280000D01*
X119188000Y-69280000D02*
X121920000Y-66548000D01*
X121920000Y-66548000D02*
X121920000Y-66040000D01*
X118737000Y-81780000D02*
X120777000Y-83820000D01*
X98044000Y-82550000D02*
X98814000Y-81780000D01*
X98814000Y-81780000D02*
X118737000Y-81780000D01*
X88900000Y-83185000D02*
X88900000Y-84137500D01*
X120777000Y-83820000D02*
X121920000Y-83820000D01*
X89852500Y-85090000D02*
X97155000Y-85090000D01*
X98044000Y-84201000D02*
X98044000Y-82550000D01*
X97155000Y-85090000D02*
X98044000Y-84201000D01*
X88900000Y-84137500D02*
X89852500Y-85090000D01*
X93853000Y-84582000D02*
X95885000Y-82550000D01*
X98217057Y-81280000D02*
X121920000Y-81280000D01*
X91821000Y-84582000D02*
X93853000Y-84582000D01*
X95885000Y-82550000D02*
X96947057Y-82550000D01*
X90424000Y-83185000D02*
X91821000Y-84582000D01*
X96947057Y-82550000D02*
X98217057Y-81280000D01*
X97917000Y-80772000D02*
X118872000Y-80772000D01*
X95053000Y-80080000D02*
X97225000Y-80080000D01*
X97225000Y-80080000D02*
X97917000Y-80772000D01*
X118872000Y-80772000D02*
X120904000Y-78740000D01*
X120904000Y-78740000D02*
X121920000Y-78740000D01*
X91948000Y-83185000D02*
X95053000Y-80080000D01*
X92710000Y-72390000D02*
X95250000Y-74930000D01*
X120650000Y-74930000D02*
X121920000Y-76200000D01*
X95250000Y-74930000D02*
X120650000Y-74930000D01*
X89408000Y-72390000D02*
X92710000Y-72390000D01*
D17*
X69850000Y-81280000D02*
X72390000Y-81280000D01*
X69850000Y-88900000D02*
X72390000Y-88900000D01*
D18*
X84709000Y-93345000D02*
X82931000Y-91567000D01*
X85868000Y-74946000D02*
X83058000Y-72136000D01*
X82931000Y-86977788D02*
X85868000Y-84040788D01*
X85868000Y-84040788D02*
X85868000Y-74946000D01*
D17*
X69850000Y-76200000D02*
X72390000Y-76200000D01*
D18*
X82931000Y-91567000D02*
X82931000Y-86977788D01*
D17*
X69850000Y-73660000D02*
X72390000Y-73660000D01*
X69850000Y-71120000D02*
X72390000Y-71120000D01*
X69850000Y-60960000D02*
X72390000Y-60960000D01*
X69850000Y-58420000D02*
X72390000Y-58420000D01*
X69850000Y-55880000D02*
X72390000Y-55880000D01*
D18*
X83947000Y-87757000D02*
X83947000Y-87376000D01*
X83947000Y-87376000D02*
X86868000Y-84455000D01*
X84709000Y-88519000D02*
X83947000Y-87757000D01*
D17*
X69850000Y-53340000D02*
X72390000Y-53340000D01*
D18*
X86868000Y-84455000D02*
X86868000Y-59309000D01*
D17*
X69850000Y-68580000D02*
X72390000Y-68580000D01*
X69850000Y-66040000D02*
X72390000Y-66040000D01*
D18*
X85344000Y-59309000D02*
X85344000Y-60960000D01*
X86368000Y-61984000D02*
X86368000Y-71620000D01*
X85344000Y-60960000D02*
X86368000Y-61984000D01*
X86368000Y-71620000D02*
X85598000Y-72390000D01*
X88392000Y-60325000D02*
X87368000Y-61349000D01*
D17*
X69850000Y-50800000D02*
X72390000Y-50800000D01*
D18*
X85852000Y-86178106D02*
X85852000Y-91186000D01*
X85852000Y-91186000D02*
X84709000Y-92329000D01*
X87368000Y-84662106D02*
X85852000Y-86178106D01*
X88392000Y-59309000D02*
X88392000Y-60325000D01*
X87368000Y-61349000D02*
X87368000Y-84662106D01*
D17*
X69850000Y-63500000D02*
X72390000Y-63500000D01*
X69850000Y-86360000D02*
X72390000Y-86360000D01*
D18*
X83439000Y-88265000D02*
X83439000Y-87176894D01*
D17*
X69850000Y-78740000D02*
X72390000Y-78740000D01*
D18*
X86368000Y-74738894D02*
X84328000Y-72698894D01*
X86368000Y-84247894D02*
X86368000Y-74738894D01*
X84709000Y-89535000D02*
X83439000Y-88265000D01*
X83439000Y-87176894D02*
X86368000Y-84247894D01*
X84328000Y-72698894D02*
X84328000Y-72136000D01*
X79883000Y-83820000D02*
X72390000Y-83820000D01*
X82431000Y-95004000D02*
X82431000Y-86368000D01*
X82431000Y-86368000D02*
X79883000Y-83820000D01*
D17*
X72390000Y-83820000D02*
X69850000Y-83820000D01*
D18*
X84582000Y-97155000D02*
X82431000Y-95004000D01*
D16*
X66040000Y-88900000D02*
X65127000Y-88900000D01*
X69850000Y-91440000D02*
X72390000Y-91440000D01*
X69850000Y-91440000D02*
X68580000Y-91440000D01*
X68580000Y-91440000D02*
X66040000Y-88900000D01*
%TA.AperFunction,Conductor*%
G36*
X85397445Y-86588690D02*
G01*
X85440710Y-86631955D01*
X85451500Y-86676900D01*
X85451500Y-88430858D01*
X85432593Y-88489049D01*
X85393360Y-88517553D01*
X85395121Y-88517785D01*
X85439503Y-88559903D01*
X85451500Y-88607141D01*
X85451500Y-89446858D01*
X85432593Y-89505049D01*
X85393360Y-89533553D01*
X85395121Y-89533785D01*
X85439503Y-89575903D01*
X85451500Y-89623141D01*
X85451500Y-90979098D01*
X85432593Y-91037289D01*
X85422504Y-91049102D01*
X84719929Y-91751676D01*
X84665412Y-91779453D01*
X84662848Y-91779825D01*
X84565290Y-91792670D01*
X84431378Y-91848137D01*
X84431374Y-91848139D01*
X84316381Y-91936377D01*
X84316377Y-91936381D01*
X84228139Y-92051374D01*
X84228137Y-92051377D01*
X84212677Y-92088701D01*
X84172940Y-92135225D01*
X84113444Y-92149508D01*
X84056917Y-92126092D01*
X84051210Y-92120817D01*
X83360496Y-91430103D01*
X83332719Y-91375586D01*
X83331500Y-91360099D01*
X83331500Y-88962900D01*
X83350407Y-88904709D01*
X83399907Y-88868745D01*
X83461093Y-88868745D01*
X83500504Y-88892896D01*
X84131676Y-89524068D01*
X84159453Y-89578585D01*
X84159825Y-89581149D01*
X84172670Y-89678709D01*
X84215445Y-89781980D01*
X84228139Y-89812625D01*
X84316379Y-89927621D01*
X84431375Y-90015861D01*
X84565291Y-90071330D01*
X84709000Y-90090250D01*
X84852709Y-90071330D01*
X84986625Y-90015861D01*
X85101621Y-89927621D01*
X85189861Y-89812625D01*
X85245330Y-89678709D01*
X85254347Y-89610218D01*
X85280688Y-89554994D01*
X85315291Y-89536206D01*
X85272407Y-89505049D01*
X85254347Y-89459781D01*
X85245330Y-89391291D01*
X85189861Y-89257375D01*
X85101621Y-89142379D01*
X85101616Y-89142375D01*
X85101615Y-89142374D01*
X85053614Y-89105542D01*
X85018958Y-89055118D01*
X85020559Y-88993953D01*
X85053614Y-88948458D01*
X85101621Y-88911621D01*
X85189861Y-88796625D01*
X85245330Y-88662709D01*
X85254347Y-88594218D01*
X85280688Y-88538994D01*
X85315291Y-88520206D01*
X85272407Y-88489049D01*
X85254347Y-88443781D01*
X85253366Y-88436332D01*
X85245330Y-88375291D01*
X85189861Y-88241375D01*
X85101621Y-88126379D01*
X84986625Y-88038139D01*
X84986621Y-88038137D01*
X84852709Y-87982670D01*
X84755150Y-87969825D01*
X84699925Y-87943483D01*
X84698069Y-87941676D01*
X84392896Y-87636503D01*
X84365119Y-87581986D01*
X84374690Y-87521554D01*
X84392893Y-87496498D01*
X85282497Y-86606895D01*
X85337013Y-86579119D01*
X85397445Y-86588690D01*
G37*
%TD.AperFunction*%
%TA.AperFunction,Conductor*%
G36*
X95604083Y-80499407D02*
G01*
X95640047Y-80548907D01*
X95640047Y-80610093D01*
X95624897Y-80639157D01*
X95620487Y-80644999D01*
X95580328Y-80698177D01*
X95580323Y-80698186D01*
X95490040Y-80879500D01*
X95489418Y-80880750D01*
X95475502Y-80929658D01*
X95433603Y-81076917D01*
X95420130Y-81222322D01*
X95414785Y-81280000D01*
X95433603Y-81483083D01*
X95489418Y-81679250D01*
X95580327Y-81861821D01*
X95703236Y-82024579D01*
X95712613Y-82033127D01*
X95742878Y-82086300D01*
X95736109Y-82147110D01*
X95704103Y-82186384D01*
X95681387Y-82202886D01*
X95668151Y-82210997D01*
X95646660Y-82221948D01*
X95646658Y-82221950D01*
X95624094Y-82244513D01*
X95624092Y-82244515D01*
X95624090Y-82244515D01*
X95624091Y-82244516D01*
X93716103Y-84152504D01*
X93661586Y-84180281D01*
X93646099Y-84181500D01*
X92027900Y-84181500D01*
X91969709Y-84162593D01*
X91957896Y-84152504D01*
X91682383Y-83876991D01*
X91654606Y-83822474D01*
X91664177Y-83762042D01*
X91707442Y-83718777D01*
X91767874Y-83709206D01*
X91790270Y-83715522D01*
X91804291Y-83721330D01*
X91947999Y-83740250D01*
X91947999Y-83740249D01*
X91948000Y-83740250D01*
X92091709Y-83721330D01*
X92225625Y-83665861D01*
X92340621Y-83577621D01*
X92428861Y-83462625D01*
X92484330Y-83328709D01*
X92497173Y-83231150D01*
X92523514Y-83175926D01*
X92525285Y-83174106D01*
X95189896Y-80509496D01*
X95244413Y-80481719D01*
X95259900Y-80480500D01*
X95545892Y-80480500D01*
X95604083Y-80499407D01*
G37*
%TD.AperFunction*%
%TA.AperFunction,Conductor*%
G36*
X97704790Y-72809407D02*
G01*
X97716603Y-72819496D01*
X99257603Y-74360496D01*
X99285380Y-74415013D01*
X99275809Y-74475445D01*
X99232544Y-74518710D01*
X99187599Y-74529500D01*
X97441246Y-74529500D01*
X97383055Y-74510593D01*
X97347091Y-74461093D01*
X97347091Y-74399907D01*
X97362239Y-74370844D01*
X97459673Y-74241821D01*
X97550582Y-74059250D01*
X97606397Y-73863083D01*
X97625215Y-73660000D01*
X97606397Y-73456917D01*
X97550582Y-73260750D01*
X97459673Y-73078179D01*
X97362240Y-72949157D01*
X97342263Y-72891330D01*
X97360092Y-72832799D01*
X97408918Y-72795927D01*
X97441246Y-72790500D01*
X97646599Y-72790500D01*
X97704790Y-72809407D01*
G37*
%TD.AperFunction*%
%TA.AperFunction,Conductor*%
G36*
X95656945Y-67729407D02*
G01*
X95692909Y-67778907D01*
X95692909Y-67840093D01*
X95677760Y-67869155D01*
X95618618Y-67947474D01*
X95580328Y-67998177D01*
X95580323Y-67998186D01*
X95514937Y-68129500D01*
X95489418Y-68180750D01*
X95433603Y-68376917D01*
X95414785Y-68580000D01*
X95433603Y-68783083D01*
X95489418Y-68979250D01*
X95580327Y-69161821D01*
X95624896Y-69220840D01*
X95644875Y-69278671D01*
X95627046Y-69337201D01*
X95578219Y-69374073D01*
X95545892Y-69379500D01*
X93100900Y-69379500D01*
X93042709Y-69360593D01*
X93030896Y-69350504D01*
X91682384Y-68001991D01*
X91654607Y-67947474D01*
X91664178Y-67887042D01*
X91707443Y-67843777D01*
X91767875Y-67834206D01*
X91790263Y-67840519D01*
X91804291Y-67846330D01*
X91948000Y-67865250D01*
X92091709Y-67846330D01*
X92225625Y-67790861D01*
X92263934Y-67761464D01*
X92303693Y-67730958D01*
X92361369Y-67710534D01*
X92363960Y-67710500D01*
X95598754Y-67710500D01*
X95656945Y-67729407D01*
G37*
%TD.AperFunction*%
%TA.AperFunction,Conductor*%
G36*
X90176620Y-48304407D02*
G01*
X90188433Y-48314496D01*
X93944458Y-52070521D01*
X93950443Y-52079479D01*
X93960482Y-52089517D01*
X93974927Y-52095500D01*
X93980000Y-52097601D01*
X93994205Y-52097601D01*
X94004766Y-52095500D01*
X96156385Y-52095500D01*
X96214576Y-52114407D01*
X96250540Y-52163907D01*
X96250540Y-52225093D01*
X96214576Y-52274593D01*
X96192151Y-52286812D01*
X96027363Y-52350652D01*
X95857792Y-52455646D01*
X95853959Y-52458019D01*
X95703237Y-52595420D01*
X95580328Y-52758177D01*
X95580323Y-52758186D01*
X95514937Y-52889500D01*
X95489418Y-52940750D01*
X95433603Y-53136917D01*
X95414785Y-53340000D01*
X95433603Y-53543083D01*
X95489418Y-53739250D01*
X95580327Y-53921821D01*
X95677759Y-54050842D01*
X95697737Y-54108670D01*
X95679908Y-54167201D01*
X95631082Y-54204073D01*
X95598754Y-54209500D01*
X94386006Y-54209500D01*
X94327815Y-54190593D01*
X94316002Y-54180504D01*
X93121942Y-52986444D01*
X91900015Y-51764516D01*
X91900014Y-51764515D01*
X91897530Y-51762031D01*
X91877449Y-51741951D01*
X91877448Y-51741950D01*
X91855953Y-51730997D01*
X91842714Y-51722884D01*
X91836687Y-51718505D01*
X91823196Y-51708704D01*
X91823194Y-51708703D01*
X91800248Y-51701247D01*
X91785894Y-51695301D01*
X91764412Y-51684354D01*
X91740580Y-51680579D01*
X91725480Y-51676953D01*
X91702543Y-51669500D01*
X91702539Y-51669500D01*
X91670625Y-51669500D01*
X80357324Y-51669500D01*
X80299133Y-51650593D01*
X80265860Y-51608385D01*
X80236862Y-51538378D01*
X80236861Y-51538375D01*
X80148621Y-51423379D01*
X80033625Y-51335139D01*
X80033621Y-51335137D01*
X79899709Y-51279670D01*
X79899708Y-51279669D01*
X79756000Y-51260750D01*
X79612291Y-51279669D01*
X79612290Y-51279670D01*
X79478378Y-51335137D01*
X79478374Y-51335139D01*
X79363381Y-51423377D01*
X79363377Y-51423381D01*
X79275139Y-51538374D01*
X79275137Y-51538378D01*
X79219670Y-51672290D01*
X79219669Y-51672291D01*
X79200750Y-51815999D01*
X79200750Y-51816000D01*
X79219669Y-51959708D01*
X79219670Y-51959709D01*
X79274307Y-52091618D01*
X79275139Y-52093625D01*
X79363379Y-52208621D01*
X79478375Y-52296861D01*
X79612291Y-52352330D01*
X79709849Y-52365173D01*
X79765074Y-52391514D01*
X79766893Y-52393285D01*
X79771658Y-52398050D01*
X79771660Y-52398051D01*
X79793149Y-52409000D01*
X79806395Y-52417117D01*
X79825910Y-52431296D01*
X79825912Y-52431296D01*
X79825913Y-52431297D01*
X79848852Y-52438750D01*
X79863195Y-52444690D01*
X79884696Y-52455646D01*
X79908524Y-52459419D01*
X79923633Y-52463047D01*
X79932194Y-52465828D01*
X79946567Y-52470499D01*
X79976437Y-52470499D01*
X79976461Y-52470500D01*
X79978481Y-52470500D01*
X80812718Y-52470500D01*
X80870909Y-52489407D01*
X80906873Y-52538907D01*
X80906873Y-52600093D01*
X80904182Y-52607385D01*
X80870670Y-52688291D01*
X80870669Y-52688291D01*
X80851750Y-52831999D01*
X80851750Y-52832000D01*
X80870669Y-52975708D01*
X80870670Y-52975709D01*
X80875116Y-52986444D01*
X80926139Y-53109625D01*
X81014379Y-53224621D01*
X81129375Y-53312861D01*
X81263291Y-53368330D01*
X81407000Y-53387250D01*
X81550709Y-53368330D01*
X81684625Y-53312861D01*
X81799621Y-53224621D01*
X81887861Y-53109625D01*
X81920173Y-53031614D01*
X81959911Y-52985089D01*
X82011638Y-52970500D01*
X91225099Y-52970500D01*
X91283290Y-52989407D01*
X91295103Y-52999496D01*
X95683950Y-57388342D01*
X95770008Y-57474400D01*
X95797785Y-57528917D01*
X95788214Y-57589349D01*
X95766700Y-57617565D01*
X95703239Y-57675417D01*
X95580328Y-57838177D01*
X95580323Y-57838186D01*
X95489419Y-58020747D01*
X95489418Y-58020750D01*
X95433603Y-58216917D01*
X95414785Y-58420000D01*
X95433603Y-58623083D01*
X95489418Y-58819250D01*
X95580327Y-59001821D01*
X95703236Y-59164579D01*
X95853959Y-59301981D01*
X96027363Y-59409348D01*
X96217544Y-59483024D01*
X96418024Y-59520500D01*
X96621976Y-59520500D01*
X96822456Y-59483024D01*
X97012637Y-59409348D01*
X97186041Y-59301981D01*
X97336764Y-59164579D01*
X97459673Y-59001821D01*
X97550582Y-58819250D01*
X97606397Y-58623083D01*
X97625215Y-58420000D01*
X97606397Y-58216917D01*
X97550582Y-58020750D01*
X97459673Y-57838179D01*
X97362240Y-57709157D01*
X97342263Y-57651330D01*
X97360092Y-57592799D01*
X97408918Y-57555927D01*
X97441246Y-57550500D01*
X120443099Y-57550500D01*
X120501290Y-57569407D01*
X120513103Y-57579496D01*
X120862663Y-57929056D01*
X120890440Y-57983573D01*
X120887880Y-58026152D01*
X120833603Y-58216915D01*
X120833602Y-58216917D01*
X120833603Y-58216917D01*
X120814785Y-58420000D01*
X120833603Y-58623083D01*
X120889418Y-58819250D01*
X120980327Y-59001821D01*
X121103236Y-59164579D01*
X121253959Y-59301981D01*
X121427363Y-59409348D01*
X121617544Y-59483024D01*
X121818024Y-59520500D01*
X122021976Y-59520500D01*
X122222456Y-59483024D01*
X122412637Y-59409348D01*
X122586041Y-59301981D01*
X122736764Y-59164579D01*
X122859673Y-59001821D01*
X122950582Y-58819250D01*
X123006397Y-58623083D01*
X123025215Y-58420000D01*
X123006397Y-58216917D01*
X122950582Y-58020750D01*
X122859673Y-57838179D01*
X122736764Y-57675421D01*
X122586041Y-57538019D01*
X122412637Y-57430652D01*
X122222456Y-57356976D01*
X122222455Y-57356975D01*
X122222453Y-57356975D01*
X122021976Y-57319500D01*
X121818024Y-57319500D01*
X121617543Y-57356976D01*
X121537738Y-57387892D01*
X121476647Y-57391282D01*
X121431972Y-57365580D01*
X121256873Y-57190480D01*
X121229096Y-57135964D01*
X121238667Y-57075532D01*
X121281928Y-57032270D01*
X121296806Y-57024689D01*
X121311151Y-57018748D01*
X121334090Y-57011296D01*
X121353612Y-56997111D01*
X121366849Y-56989000D01*
X121388342Y-56978050D01*
X121405263Y-56961127D01*
X121405268Y-56961124D01*
X121410906Y-56955485D01*
X121410909Y-56955484D01*
X121431973Y-56934419D01*
X121486485Y-56906641D01*
X121537736Y-56912106D01*
X121617544Y-56943024D01*
X121818024Y-56980500D01*
X122021976Y-56980500D01*
X122222456Y-56943024D01*
X122412637Y-56869348D01*
X122586041Y-56761981D01*
X122736764Y-56624579D01*
X122859673Y-56461821D01*
X122950582Y-56279250D01*
X123006397Y-56083083D01*
X123025215Y-55880000D01*
X123006397Y-55676917D01*
X122950582Y-55480750D01*
X122859673Y-55298179D01*
X122736764Y-55135421D01*
X122586041Y-54998019D01*
X122412637Y-54890652D01*
X122222456Y-54816976D01*
X122222455Y-54816975D01*
X122222453Y-54816975D01*
X122021976Y-54779500D01*
X121818024Y-54779500D01*
X121617546Y-54816975D01*
X121547632Y-54844059D01*
X121427363Y-54890652D01*
X121253959Y-54998018D01*
X121253959Y-54998019D01*
X121103237Y-55135420D01*
X120980328Y-55298177D01*
X120980323Y-55298186D01*
X120889419Y-55480747D01*
X120833603Y-55676917D01*
X120819581Y-55828247D01*
X120814785Y-55880000D01*
X120833603Y-56083083D01*
X120845076Y-56123409D01*
X120842816Y-56184551D01*
X120805048Y-56232688D01*
X120749856Y-56249500D01*
X99297929Y-56249500D01*
X99239738Y-56230593D01*
X99227925Y-56220504D01*
X98305598Y-55298177D01*
X97311937Y-54304516D01*
X97311933Y-54304513D01*
X97309452Y-54302032D01*
X97309452Y-54302031D01*
X97283862Y-54276442D01*
X97285873Y-54274429D01*
X97257576Y-54235465D01*
X97257588Y-54174280D01*
X97285040Y-54131730D01*
X97336764Y-54084579D01*
X97459673Y-53921821D01*
X97550582Y-53739250D01*
X97606397Y-53543083D01*
X97625215Y-53340000D01*
X97606397Y-53136917D01*
X97550582Y-52940750D01*
X97459673Y-52758179D01*
X97336764Y-52595421D01*
X97186041Y-52458019D01*
X97012637Y-52350652D01*
X96847850Y-52286813D01*
X96800421Y-52248163D01*
X96784767Y-52189015D01*
X96806870Y-52131961D01*
X96858286Y-52098795D01*
X96883615Y-52095500D01*
X121419358Y-52095500D01*
X121477549Y-52114407D01*
X121513513Y-52163907D01*
X121513513Y-52225093D01*
X121477549Y-52274593D01*
X121455121Y-52286815D01*
X121405204Y-52306152D01*
X121405202Y-52306153D01*
X121302992Y-52369437D01*
X121787468Y-52853913D01*
X121777685Y-52855320D01*
X121646900Y-52915048D01*
X121538239Y-53009202D01*
X121460507Y-53130156D01*
X121436922Y-53210476D01*
X120946835Y-52720389D01*
X120938057Y-52732013D01*
X120843064Y-52922789D01*
X120784738Y-53127783D01*
X120765073Y-53339999D01*
X120784738Y-53552216D01*
X120843064Y-53757210D01*
X120938061Y-53947992D01*
X120946834Y-53959609D01*
X121436922Y-53469521D01*
X121460507Y-53549844D01*
X121538239Y-53670798D01*
X121646900Y-53764952D01*
X121777685Y-53824680D01*
X121787466Y-53826086D01*
X121302992Y-54310561D01*
X121405202Y-54373846D01*
X121405204Y-54373847D01*
X121603941Y-54450838D01*
X121813437Y-54490000D01*
X122026563Y-54490000D01*
X122236058Y-54450838D01*
X122434795Y-54373847D01*
X122434800Y-54373844D01*
X122537006Y-54310561D01*
X122052531Y-53826086D01*
X122062315Y-53824680D01*
X122193100Y-53764952D01*
X122301761Y-53670798D01*
X122379493Y-53549844D01*
X122403077Y-53469522D01*
X122893164Y-53959609D01*
X122901941Y-53947987D01*
X122901942Y-53947984D01*
X122996935Y-53757210D01*
X123055261Y-53552216D01*
X123074926Y-53339999D01*
X123055261Y-53127783D01*
X122996935Y-52922789D01*
X122901942Y-52732016D01*
X122901932Y-52732000D01*
X122893164Y-52720389D01*
X122403076Y-53210476D01*
X122379493Y-53130156D01*
X122301761Y-53009202D01*
X122193100Y-52915048D01*
X122062315Y-52855320D01*
X122052529Y-52853913D01*
X122537006Y-52369437D01*
X122434797Y-52306153D01*
X122434795Y-52306152D01*
X122384879Y-52286815D01*
X122337448Y-52248163D01*
X122321794Y-52189014D01*
X122343897Y-52131961D01*
X122395314Y-52098795D01*
X122420642Y-52095500D01*
X124335500Y-52095500D01*
X124393691Y-52114407D01*
X124429655Y-52163907D01*
X124434500Y-52194500D01*
X124434500Y-101475500D01*
X124415593Y-101533691D01*
X124366093Y-101569655D01*
X124335500Y-101574500D01*
X59814500Y-101574500D01*
X59756309Y-101555593D01*
X59720345Y-101506093D01*
X59715500Y-101475500D01*
X59715500Y-99060000D01*
X68695073Y-99060000D01*
X68714738Y-99272216D01*
X68773064Y-99477210D01*
X68868061Y-99667992D01*
X68876834Y-99679609D01*
X69366922Y-99189521D01*
X69390507Y-99269844D01*
X69468239Y-99390798D01*
X69576900Y-99484952D01*
X69707685Y-99544680D01*
X69717466Y-99546086D01*
X69232992Y-100030561D01*
X69335202Y-100093846D01*
X69335204Y-100093847D01*
X69533941Y-100170838D01*
X69743437Y-100210000D01*
X69956563Y-100210000D01*
X70166058Y-100170838D01*
X70364795Y-100093847D01*
X70364800Y-100093844D01*
X70467006Y-100030561D01*
X69982531Y-99546086D01*
X69992315Y-99544680D01*
X70123100Y-99484952D01*
X70231761Y-99390798D01*
X70309493Y-99269844D01*
X70333077Y-99189522D01*
X70823164Y-99679609D01*
X70831941Y-99667987D01*
X70831942Y-99667984D01*
X70926935Y-99477210D01*
X70985261Y-99272216D01*
X71004926Y-99060000D01*
X71235073Y-99060000D01*
X71254738Y-99272216D01*
X71313064Y-99477210D01*
X71408061Y-99667992D01*
X71416834Y-99679609D01*
X71906922Y-99189521D01*
X71930507Y-99269844D01*
X72008239Y-99390798D01*
X72116900Y-99484952D01*
X72247685Y-99544680D01*
X72257466Y-99546086D01*
X71772992Y-100030561D01*
X71875202Y-100093846D01*
X71875204Y-100093847D01*
X72073941Y-100170838D01*
X72283437Y-100210000D01*
X72496563Y-100210000D01*
X72706058Y-100170838D01*
X72904795Y-100093847D01*
X72904800Y-100093844D01*
X72933619Y-100076000D01*
X90757750Y-100076000D01*
X90776669Y-100219708D01*
X90776670Y-100219709D01*
X90832139Y-100353625D01*
X90920379Y-100468621D01*
X91035375Y-100556861D01*
X91169291Y-100612330D01*
X91313000Y-100631250D01*
X91456709Y-100612330D01*
X91590625Y-100556861D01*
X91705621Y-100468621D01*
X91793861Y-100353625D01*
X91849330Y-100219709D01*
X91868250Y-100076000D01*
X91849330Y-99932291D01*
X91793861Y-99798375D01*
X91705621Y-99683379D01*
X91590625Y-99595139D01*
X91590621Y-99595137D01*
X91456709Y-99539670D01*
X91456708Y-99539669D01*
X91313000Y-99520750D01*
X91169291Y-99539669D01*
X91169290Y-99539670D01*
X91035378Y-99595137D01*
X91035374Y-99595139D01*
X90920381Y-99683377D01*
X90920377Y-99683381D01*
X90832139Y-99798374D01*
X90832137Y-99798378D01*
X90776670Y-99932290D01*
X90776669Y-99932291D01*
X90757750Y-100075999D01*
X90757750Y-100076000D01*
X72933619Y-100076000D01*
X73007006Y-100030561D01*
X72522531Y-99546086D01*
X72532315Y-99544680D01*
X72663100Y-99484952D01*
X72771761Y-99390798D01*
X72849493Y-99269844D01*
X72873077Y-99189522D01*
X73363164Y-99679609D01*
X73371941Y-99667987D01*
X73371942Y-99667984D01*
X73466935Y-99477210D01*
X73525261Y-99272216D01*
X73544926Y-99060000D01*
X89741750Y-99060000D01*
X89760669Y-99203708D01*
X89760670Y-99203709D01*
X89788063Y-99269844D01*
X89816139Y-99337625D01*
X89904379Y-99452621D01*
X90019375Y-99540861D01*
X90153291Y-99596330D01*
X90297000Y-99615250D01*
X90440709Y-99596330D01*
X90574625Y-99540861D01*
X90689621Y-99452621D01*
X90777861Y-99337625D01*
X90833330Y-99203709D01*
X90852250Y-99060000D01*
X95414785Y-99060000D01*
X95433603Y-99263083D01*
X95489418Y-99459250D01*
X95580327Y-99641821D01*
X95703236Y-99804579D01*
X95853959Y-99941981D01*
X96027363Y-100049348D01*
X96217544Y-100123024D01*
X96418024Y-100160500D01*
X96621976Y-100160500D01*
X96822456Y-100123024D01*
X97012637Y-100049348D01*
X97186041Y-99941981D01*
X97336764Y-99804579D01*
X97459673Y-99641821D01*
X97550582Y-99459250D01*
X97606397Y-99263083D01*
X97625215Y-99060000D01*
X120814785Y-99060000D01*
X120833603Y-99263083D01*
X120889418Y-99459250D01*
X120980327Y-99641821D01*
X121103236Y-99804579D01*
X121253959Y-99941981D01*
X121427363Y-100049348D01*
X121617544Y-100123024D01*
X121818024Y-100160500D01*
X122021976Y-100160500D01*
X122222456Y-100123024D01*
X122412637Y-100049348D01*
X122586041Y-99941981D01*
X122736764Y-99804579D01*
X122859673Y-99641821D01*
X122950582Y-99459250D01*
X123006397Y-99263083D01*
X123025215Y-99060000D01*
X123006397Y-98856917D01*
X122950582Y-98660750D01*
X122859673Y-98478179D01*
X122736764Y-98315421D01*
X122586041Y-98178019D01*
X122412637Y-98070652D01*
X122222456Y-97996976D01*
X122222455Y-97996975D01*
X122222453Y-97996975D01*
X122021976Y-97959500D01*
X121818024Y-97959500D01*
X121617546Y-97996975D01*
X121547632Y-98024059D01*
X121427363Y-98070652D01*
X121253958Y-98178019D01*
X121253959Y-98178019D01*
X121103237Y-98315420D01*
X120980328Y-98478177D01*
X120980323Y-98478186D01*
X120929462Y-98580330D01*
X120889418Y-98660750D01*
X120833603Y-98856917D01*
X120814785Y-99060000D01*
X97625215Y-99060000D01*
X97606397Y-98856917D01*
X97550582Y-98660750D01*
X97459673Y-98478179D01*
X97336764Y-98315421D01*
X97186041Y-98178019D01*
X97012637Y-98070652D01*
X96822456Y-97996976D01*
X96822455Y-97996975D01*
X96822453Y-97996975D01*
X96621976Y-97959500D01*
X96418024Y-97959500D01*
X96217546Y-97996975D01*
X96147632Y-98024059D01*
X96027363Y-98070652D01*
X95853959Y-98178018D01*
X95853959Y-98178019D01*
X95703237Y-98315420D01*
X95580328Y-98478177D01*
X95580323Y-98478186D01*
X95529462Y-98580330D01*
X95489418Y-98660750D01*
X95433603Y-98856917D01*
X95414785Y-99060000D01*
X90852250Y-99060000D01*
X90842785Y-98988111D01*
X90833330Y-98916291D01*
X90777861Y-98782375D01*
X90689621Y-98667379D01*
X90574625Y-98579139D01*
X90574621Y-98579137D01*
X90440709Y-98523670D01*
X90440708Y-98523669D01*
X90297000Y-98504750D01*
X90153291Y-98523669D01*
X90153290Y-98523670D01*
X90019378Y-98579137D01*
X90019374Y-98579139D01*
X89904381Y-98667377D01*
X89904377Y-98667381D01*
X89816139Y-98782374D01*
X89816137Y-98782378D01*
X89760670Y-98916290D01*
X89760669Y-98916291D01*
X89741750Y-99059999D01*
X89741750Y-99060000D01*
X73544926Y-99060000D01*
X73525261Y-98847783D01*
X73466935Y-98642789D01*
X73371942Y-98452016D01*
X73371932Y-98452000D01*
X73363164Y-98440389D01*
X72873076Y-98930476D01*
X72849493Y-98850156D01*
X72771761Y-98729202D01*
X72663100Y-98635048D01*
X72532315Y-98575320D01*
X72522529Y-98573913D01*
X73007006Y-98089437D01*
X72904797Y-98026153D01*
X72904795Y-98026152D01*
X72706058Y-97949161D01*
X72534010Y-97917000D01*
X87455750Y-97917000D01*
X87474669Y-98060708D01*
X87474670Y-98060709D01*
X87523260Y-98178019D01*
X87530139Y-98194625D01*
X87618379Y-98309621D01*
X87733375Y-98397861D01*
X87867291Y-98453330D01*
X88010999Y-98472250D01*
X88010999Y-98472249D01*
X88011000Y-98472250D01*
X88154709Y-98453330D01*
X88288625Y-98397861D01*
X88403621Y-98309621D01*
X88491861Y-98194625D01*
X88547330Y-98060709D01*
X88549530Y-98044000D01*
X90757750Y-98044000D01*
X90776669Y-98187708D01*
X90776670Y-98187709D01*
X90827165Y-98309618D01*
X90832139Y-98321625D01*
X90920379Y-98436621D01*
X91035375Y-98524861D01*
X91169291Y-98580330D01*
X91313000Y-98599250D01*
X91456709Y-98580330D01*
X91590625Y-98524861D01*
X91705621Y-98436621D01*
X91793861Y-98321625D01*
X91849330Y-98187709D01*
X91868250Y-98044000D01*
X91849330Y-97900291D01*
X91793861Y-97766375D01*
X91705621Y-97651379D01*
X91590625Y-97563139D01*
X91590621Y-97563137D01*
X91456709Y-97507670D01*
X91456708Y-97507669D01*
X91313000Y-97488750D01*
X91169291Y-97507669D01*
X91169290Y-97507670D01*
X91035378Y-97563137D01*
X91035374Y-97563139D01*
X90920381Y-97651377D01*
X90920377Y-97651381D01*
X90832139Y-97766374D01*
X90832137Y-97766378D01*
X90776670Y-97900290D01*
X90776669Y-97900291D01*
X90757750Y-98043999D01*
X90757750Y-98044000D01*
X88549530Y-98044000D01*
X88566250Y-97917000D01*
X88565328Y-97910000D01*
X88547330Y-97773291D01*
X88491861Y-97639375D01*
X88403621Y-97524379D01*
X88288625Y-97436139D01*
X88288621Y-97436137D01*
X88154709Y-97380670D01*
X88154708Y-97380669D01*
X88011000Y-97361750D01*
X87867291Y-97380669D01*
X87867290Y-97380670D01*
X87733378Y-97436137D01*
X87733374Y-97436139D01*
X87618381Y-97524377D01*
X87618377Y-97524381D01*
X87530139Y-97639374D01*
X87530137Y-97639378D01*
X87474670Y-97773290D01*
X87474669Y-97773291D01*
X87455750Y-97916999D01*
X87455750Y-97917000D01*
X72534010Y-97917000D01*
X72496563Y-97910000D01*
X72283437Y-97910000D01*
X72073941Y-97949161D01*
X71875204Y-98026152D01*
X71875202Y-98026153D01*
X71772992Y-98089437D01*
X72257468Y-98573913D01*
X72247685Y-98575320D01*
X72116900Y-98635048D01*
X72008239Y-98729202D01*
X71930507Y-98850156D01*
X71906922Y-98930476D01*
X71416835Y-98440389D01*
X71408057Y-98452013D01*
X71313064Y-98642789D01*
X71254738Y-98847783D01*
X71235073Y-99060000D01*
X71004926Y-99060000D01*
X70985261Y-98847783D01*
X70926935Y-98642789D01*
X70831942Y-98452016D01*
X70831932Y-98452000D01*
X70823164Y-98440389D01*
X70333076Y-98930476D01*
X70309493Y-98850156D01*
X70231761Y-98729202D01*
X70123100Y-98635048D01*
X69992315Y-98575320D01*
X69982529Y-98573913D01*
X70467006Y-98089437D01*
X70364797Y-98026153D01*
X70364795Y-98026152D01*
X70166058Y-97949161D01*
X69956563Y-97910000D01*
X69743437Y-97910000D01*
X69533941Y-97949161D01*
X69335204Y-98026152D01*
X69335202Y-98026153D01*
X69232992Y-98089437D01*
X69717468Y-98573913D01*
X69707685Y-98575320D01*
X69576900Y-98635048D01*
X69468239Y-98729202D01*
X69390507Y-98850156D01*
X69366922Y-98930476D01*
X68876835Y-98440389D01*
X68868057Y-98452013D01*
X68773064Y-98642789D01*
X68714738Y-98847783D01*
X68695073Y-99060000D01*
X59715500Y-99060000D01*
X59715500Y-96520000D01*
X68744785Y-96520000D01*
X68763603Y-96723083D01*
X68819418Y-96919250D01*
X68910327Y-97101821D01*
X69033236Y-97264579D01*
X69183959Y-97401981D01*
X69357363Y-97509348D01*
X69547544Y-97583024D01*
X69748024Y-97620500D01*
X69951976Y-97620500D01*
X70152456Y-97583024D01*
X70342637Y-97509348D01*
X70516041Y-97401981D01*
X70666764Y-97264579D01*
X70789673Y-97101821D01*
X70880582Y-96919250D01*
X70936397Y-96723083D01*
X70955215Y-96520000D01*
X71284785Y-96520000D01*
X71303603Y-96723083D01*
X71359418Y-96919250D01*
X71450327Y-97101821D01*
X71573236Y-97264579D01*
X71723959Y-97401981D01*
X71897363Y-97509348D01*
X72087544Y-97583024D01*
X72288024Y-97620500D01*
X72491976Y-97620500D01*
X72692456Y-97583024D01*
X72882637Y-97509348D01*
X73056041Y-97401981D01*
X73206764Y-97264579D01*
X73329673Y-97101821D01*
X73420582Y-96919250D01*
X73476397Y-96723083D01*
X73495215Y-96520000D01*
X73476397Y-96316917D01*
X73420582Y-96120750D01*
X73329673Y-95938179D01*
X73206764Y-95775421D01*
X73056041Y-95638019D01*
X72882637Y-95530652D01*
X72692456Y-95456976D01*
X72692455Y-95456975D01*
X72692453Y-95456975D01*
X72491976Y-95419500D01*
X72288024Y-95419500D01*
X72087546Y-95456975D01*
X72017632Y-95484059D01*
X71897363Y-95530652D01*
X71723959Y-95638019D01*
X71573237Y-95775420D01*
X71450328Y-95938177D01*
X71450323Y-95938186D01*
X71359419Y-96120747D01*
X71359418Y-96120750D01*
X71303603Y-96316917D01*
X71284785Y-96520000D01*
X70955215Y-96520000D01*
X70936397Y-96316917D01*
X70880582Y-96120750D01*
X70789673Y-95938179D01*
X70666764Y-95775421D01*
X70516041Y-95638019D01*
X70342637Y-95530652D01*
X70152456Y-95456976D01*
X70152455Y-95456975D01*
X70152453Y-95456975D01*
X69951976Y-95419500D01*
X69748024Y-95419500D01*
X69547546Y-95456975D01*
X69477632Y-95484059D01*
X69357363Y-95530652D01*
X69183959Y-95638019D01*
X69033237Y-95775420D01*
X68910328Y-95938177D01*
X68910323Y-95938186D01*
X68819419Y-96120747D01*
X68819418Y-96120750D01*
X68763603Y-96316917D01*
X68744785Y-96520000D01*
X59715500Y-96520000D01*
X59715500Y-93980000D01*
X68744785Y-93980000D01*
X68763603Y-94183083D01*
X68819418Y-94379250D01*
X68910327Y-94561821D01*
X69033236Y-94724579D01*
X69183959Y-94861981D01*
X69357363Y-94969348D01*
X69547544Y-95043024D01*
X69748024Y-95080500D01*
X69951976Y-95080500D01*
X70152456Y-95043024D01*
X70342637Y-94969348D01*
X70516041Y-94861981D01*
X70666764Y-94724579D01*
X70789673Y-94561821D01*
X70827740Y-94485371D01*
X70870603Y-94441709D01*
X70916361Y-94430500D01*
X71323639Y-94430500D01*
X71381830Y-94449407D01*
X71412259Y-94485371D01*
X71450327Y-94561821D01*
X71573236Y-94724579D01*
X71723959Y-94861981D01*
X71897363Y-94969348D01*
X72087544Y-95043024D01*
X72288024Y-95080500D01*
X72491976Y-95080500D01*
X72692456Y-95043024D01*
X72882637Y-94969348D01*
X73056041Y-94861981D01*
X73206764Y-94724579D01*
X73329673Y-94561821D01*
X73420582Y-94379250D01*
X73476397Y-94183083D01*
X73495215Y-93980000D01*
X73476397Y-93776917D01*
X73420582Y-93580750D01*
X73329673Y-93398179D01*
X73206764Y-93235421D01*
X73056041Y-93098019D01*
X72882637Y-92990652D01*
X72692456Y-92916976D01*
X72692455Y-92916975D01*
X72692453Y-92916975D01*
X72491976Y-92879500D01*
X72288024Y-92879500D01*
X72087546Y-92916975D01*
X72017632Y-92944059D01*
X71897363Y-92990652D01*
X71773451Y-93067375D01*
X71723959Y-93098019D01*
X71573237Y-93235420D01*
X71450328Y-93398177D01*
X71450323Y-93398186D01*
X71412260Y-93474628D01*
X71369397Y-93518291D01*
X71323639Y-93529500D01*
X70916361Y-93529500D01*
X70858170Y-93510593D01*
X70827740Y-93474628D01*
X70789676Y-93398186D01*
X70789673Y-93398179D01*
X70666764Y-93235421D01*
X70516041Y-93098019D01*
X70342637Y-92990652D01*
X70152456Y-92916976D01*
X70152455Y-92916975D01*
X70152453Y-92916975D01*
X69951976Y-92879500D01*
X69748024Y-92879500D01*
X69547546Y-92916975D01*
X69477632Y-92944059D01*
X69357363Y-92990652D01*
X69233451Y-93067375D01*
X69183959Y-93098019D01*
X69033237Y-93235420D01*
X68910328Y-93398177D01*
X68910323Y-93398186D01*
X68824437Y-93570670D01*
X68819418Y-93580750D01*
X68763603Y-93776917D01*
X68744785Y-93980000D01*
X59715500Y-93980000D01*
X59715500Y-88900004D01*
X60771341Y-88900004D01*
X60791935Y-89135400D01*
X60791936Y-89135407D01*
X60791937Y-89135408D01*
X60853097Y-89363663D01*
X60952965Y-89577830D01*
X61088505Y-89771401D01*
X61255599Y-89938495D01*
X61449170Y-90074035D01*
X61663337Y-90173903D01*
X61891592Y-90235063D01*
X61891596Y-90235063D01*
X61891599Y-90235064D01*
X62126996Y-90255659D01*
X62127000Y-90255659D01*
X62127004Y-90255659D01*
X62362400Y-90235064D01*
X62362401Y-90235063D01*
X62362408Y-90235063D01*
X62590663Y-90173903D01*
X62804830Y-90074035D01*
X62998401Y-89938495D01*
X63165495Y-89771401D01*
X63301035Y-89577830D01*
X63400903Y-89363663D01*
X63462063Y-89135408D01*
X63464892Y-89103082D01*
X63482659Y-88900003D01*
X63482659Y-88900000D01*
X63479924Y-88868745D01*
X63479301Y-88861629D01*
X63493063Y-88802015D01*
X63507909Y-88783010D01*
X63615485Y-88675434D01*
X63669997Y-88647660D01*
X63730429Y-88657231D01*
X63773694Y-88700496D01*
X63784107Y-88754069D01*
X63771341Y-88899995D01*
X63771341Y-88900004D01*
X63791935Y-89135400D01*
X63791936Y-89135407D01*
X63791937Y-89135408D01*
X63853097Y-89363663D01*
X63952965Y-89577830D01*
X64088505Y-89771401D01*
X64255599Y-89938495D01*
X64449170Y-90074035D01*
X64663337Y-90173903D01*
X64891592Y-90235063D01*
X64891596Y-90235063D01*
X64891599Y-90235064D01*
X65126996Y-90255659D01*
X65127000Y-90255659D01*
X65127004Y-90255659D01*
X65362400Y-90235064D01*
X65362401Y-90235063D01*
X65362408Y-90235063D01*
X65590663Y-90173903D01*
X65738104Y-90105148D01*
X65798833Y-90097692D01*
X65849947Y-90124869D01*
X67863566Y-92138487D01*
X67924941Y-92203053D01*
X67959556Y-92227145D01*
X67975683Y-92238371D01*
X67978686Y-92240636D01*
X68026591Y-92279697D01*
X68040661Y-92287046D01*
X68057741Y-92295967D01*
X68063100Y-92299214D01*
X68091948Y-92319293D01*
X68091951Y-92319295D01*
X68148783Y-92343683D01*
X68152146Y-92345281D01*
X68206951Y-92373909D01*
X68240732Y-92383574D01*
X68246642Y-92385678D01*
X68278942Y-92399540D01*
X68339500Y-92411984D01*
X68343150Y-92412879D01*
X68402582Y-92429886D01*
X68437631Y-92432555D01*
X68443819Y-92433422D01*
X68478259Y-92440500D01*
X68540079Y-92440500D01*
X68543834Y-92440642D01*
X68605476Y-92445337D01*
X68635605Y-92441499D01*
X68640340Y-92440897D01*
X68646600Y-92440500D01*
X69367643Y-92440500D01*
X69403405Y-92447185D01*
X69547543Y-92503023D01*
X69547544Y-92503024D01*
X69748024Y-92540500D01*
X69951976Y-92540500D01*
X70152456Y-92503024D01*
X70221889Y-92476125D01*
X70296595Y-92447185D01*
X70332357Y-92440500D01*
X71907643Y-92440500D01*
X71943405Y-92447185D01*
X72087544Y-92503024D01*
X72288024Y-92540500D01*
X72491976Y-92540500D01*
X72692456Y-92503024D01*
X72882637Y-92429348D01*
X73056041Y-92321981D01*
X73206764Y-92184579D01*
X73329673Y-92021821D01*
X73420582Y-91839250D01*
X73476397Y-91643083D01*
X73495215Y-91440000D01*
X73476397Y-91236917D01*
X73420582Y-91040750D01*
X73329673Y-90858179D01*
X73206764Y-90695421D01*
X73056041Y-90558019D01*
X72882637Y-90450652D01*
X72692456Y-90376976D01*
X72692455Y-90376975D01*
X72692453Y-90376975D01*
X72491976Y-90339500D01*
X72288024Y-90339500D01*
X72087544Y-90376975D01*
X71943405Y-90432815D01*
X71907643Y-90439500D01*
X70332357Y-90439500D01*
X70296595Y-90432815D01*
X70152455Y-90376975D01*
X69951976Y-90339500D01*
X69748024Y-90339500D01*
X69547544Y-90376975D01*
X69403405Y-90432815D01*
X69367643Y-90439500D01*
X69035429Y-90439500D01*
X68977238Y-90420593D01*
X68965425Y-90410504D01*
X67454921Y-88900000D01*
X68744785Y-88900000D01*
X68763603Y-89103083D01*
X68819418Y-89299250D01*
X68910327Y-89481821D01*
X69033236Y-89644579D01*
X69183959Y-89781981D01*
X69357363Y-89889348D01*
X69547544Y-89963024D01*
X69748024Y-90000500D01*
X69951976Y-90000500D01*
X70152456Y-89963024D01*
X70342637Y-89889348D01*
X70516041Y-89781981D01*
X70666764Y-89644579D01*
X70789673Y-89481821D01*
X70827740Y-89405371D01*
X70870603Y-89361709D01*
X70916361Y-89350500D01*
X71323639Y-89350500D01*
X71381830Y-89369407D01*
X71412259Y-89405371D01*
X71450327Y-89481821D01*
X71573236Y-89644579D01*
X71723959Y-89781981D01*
X71897363Y-89889348D01*
X72087544Y-89963024D01*
X72288024Y-90000500D01*
X72491976Y-90000500D01*
X72692456Y-89963024D01*
X72882637Y-89889348D01*
X73056041Y-89781981D01*
X73206764Y-89644579D01*
X73329673Y-89481821D01*
X73420582Y-89299250D01*
X73476397Y-89103083D01*
X73495215Y-88900000D01*
X73476397Y-88696917D01*
X73420582Y-88500750D01*
X73329673Y-88318179D01*
X73206764Y-88155421D01*
X73056041Y-88018019D01*
X72882637Y-87910652D01*
X72692456Y-87836976D01*
X72692455Y-87836975D01*
X72692453Y-87836975D01*
X72491976Y-87799500D01*
X72288024Y-87799500D01*
X72087546Y-87836975D01*
X72024237Y-87861501D01*
X71897363Y-87910652D01*
X71759003Y-87996321D01*
X71723959Y-88018019D01*
X71573237Y-88155420D01*
X71450328Y-88318177D01*
X71450323Y-88318186D01*
X71412260Y-88394628D01*
X71369397Y-88438291D01*
X71323639Y-88449500D01*
X70916361Y-88449500D01*
X70858170Y-88430593D01*
X70827740Y-88394628D01*
X70789676Y-88318186D01*
X70789673Y-88318179D01*
X70666764Y-88155421D01*
X70516041Y-88018019D01*
X70342637Y-87910652D01*
X70152456Y-87836976D01*
X70152455Y-87836975D01*
X70152453Y-87836975D01*
X69951976Y-87799500D01*
X69748024Y-87799500D01*
X69547546Y-87836975D01*
X69484237Y-87861501D01*
X69357363Y-87910652D01*
X69219003Y-87996321D01*
X69183959Y-88018019D01*
X69033237Y-88155420D01*
X68910328Y-88318177D01*
X68910323Y-88318186D01*
X68847785Y-88443781D01*
X68819418Y-88500750D01*
X68763603Y-88696917D01*
X68744785Y-88900000D01*
X67454921Y-88900000D01*
X66756452Y-88201531D01*
X66695063Y-88136951D01*
X66695053Y-88136942D01*
X66644318Y-88101630D01*
X66641320Y-88099370D01*
X66593407Y-88060302D01*
X66593405Y-88060301D01*
X66593404Y-88060300D01*
X66580891Y-88053764D01*
X66562251Y-88044027D01*
X66556900Y-88040786D01*
X66528049Y-88020705D01*
X66528048Y-88020704D01*
X66528046Y-88020703D01*
X66528047Y-88020703D01*
X66471233Y-87996321D01*
X66467836Y-87994708D01*
X66420197Y-87969825D01*
X66413049Y-87966091D01*
X66413046Y-87966090D01*
X66413040Y-87966088D01*
X66379262Y-87956422D01*
X66373356Y-87954319D01*
X66341054Y-87940458D01*
X66341055Y-87940458D01*
X66289427Y-87929849D01*
X66280500Y-87928014D01*
X66276856Y-87927120D01*
X66217418Y-87910113D01*
X66217413Y-87910112D01*
X66217414Y-87910112D01*
X66182371Y-87907443D01*
X66176163Y-87906572D01*
X66141746Y-87899500D01*
X66141741Y-87899500D01*
X66079924Y-87899500D01*
X66076170Y-87899357D01*
X66069520Y-87898850D01*
X66012935Y-87875579D01*
X66007048Y-87870152D01*
X65998401Y-87861505D01*
X65998397Y-87861502D01*
X65998396Y-87861501D01*
X65891007Y-87786307D01*
X65804830Y-87725965D01*
X65590663Y-87626097D01*
X65362408Y-87564937D01*
X65362407Y-87564936D01*
X65362400Y-87564935D01*
X65127004Y-87544341D01*
X65126996Y-87544341D01*
X64981070Y-87557107D01*
X64921453Y-87543343D01*
X64881312Y-87497166D01*
X64875979Y-87436213D01*
X64902436Y-87388482D01*
X65930918Y-86360000D01*
X68744785Y-86360000D01*
X68763603Y-86563083D01*
X68819418Y-86759250D01*
X68910327Y-86941821D01*
X69033236Y-87104579D01*
X69183959Y-87241981D01*
X69357363Y-87349348D01*
X69547544Y-87423024D01*
X69748024Y-87460500D01*
X69951976Y-87460500D01*
X70152456Y-87423024D01*
X70342637Y-87349348D01*
X70516041Y-87241981D01*
X70666764Y-87104579D01*
X70789673Y-86941821D01*
X70827740Y-86865371D01*
X70870603Y-86821709D01*
X70916361Y-86810500D01*
X71323639Y-86810500D01*
X71381830Y-86829407D01*
X71412259Y-86865371D01*
X71450327Y-86941821D01*
X71573236Y-87104579D01*
X71723959Y-87241981D01*
X71897363Y-87349348D01*
X72087544Y-87423024D01*
X72288024Y-87460500D01*
X72491976Y-87460500D01*
X72692456Y-87423024D01*
X72882637Y-87349348D01*
X73056041Y-87241981D01*
X73206764Y-87104579D01*
X73329673Y-86941821D01*
X73420582Y-86759250D01*
X73476397Y-86563083D01*
X73495215Y-86360000D01*
X73476397Y-86156917D01*
X73420582Y-85960750D01*
X73329673Y-85778179D01*
X73206764Y-85615421D01*
X73056041Y-85478019D01*
X72882637Y-85370652D01*
X72692456Y-85296976D01*
X72692455Y-85296975D01*
X72692453Y-85296975D01*
X72491976Y-85259500D01*
X72288024Y-85259500D01*
X72087546Y-85296975D01*
X72024963Y-85321220D01*
X71897363Y-85370652D01*
X71723959Y-85478019D01*
X71573236Y-85615421D01*
X71554675Y-85640000D01*
X71450328Y-85778177D01*
X71450323Y-85778186D01*
X71412260Y-85854628D01*
X71369397Y-85898291D01*
X71323639Y-85909500D01*
X70916361Y-85909500D01*
X70858170Y-85890593D01*
X70827740Y-85854628D01*
X70789676Y-85778186D01*
X70789673Y-85778179D01*
X70666764Y-85615421D01*
X70516041Y-85478019D01*
X70342637Y-85370652D01*
X70152456Y-85296976D01*
X70152455Y-85296975D01*
X70152453Y-85296975D01*
X69951976Y-85259500D01*
X69748024Y-85259500D01*
X69547546Y-85296975D01*
X69484963Y-85321220D01*
X69357363Y-85370652D01*
X69183959Y-85478019D01*
X69033236Y-85615421D01*
X69014675Y-85640000D01*
X68910328Y-85778177D01*
X68910323Y-85778186D01*
X68844937Y-85909500D01*
X68819418Y-85960750D01*
X68796884Y-86039949D01*
X68763603Y-86156917D01*
X68749922Y-86304567D01*
X68744785Y-86360000D01*
X65930918Y-86360000D01*
X65990128Y-86300790D01*
X66018286Y-86281075D01*
X66054830Y-86264035D01*
X66248401Y-86128495D01*
X66415495Y-85961401D01*
X66551035Y-85767830D01*
X66650903Y-85553663D01*
X66712063Y-85325408D01*
X66712064Y-85325400D01*
X66732659Y-85090004D01*
X66732659Y-85089995D01*
X66712064Y-84854599D01*
X66712063Y-84854596D01*
X66712063Y-84854592D01*
X66650903Y-84626337D01*
X66638003Y-84598673D01*
X66551040Y-84412181D01*
X66551036Y-84412173D01*
X66543788Y-84401822D01*
X66415495Y-84218599D01*
X66248401Y-84051505D01*
X66248397Y-84051502D01*
X66248396Y-84051501D01*
X66097847Y-83946086D01*
X66054830Y-83915965D01*
X65849033Y-83820000D01*
X68744785Y-83820000D01*
X68763603Y-84023083D01*
X68817532Y-84212622D01*
X68819419Y-84219252D01*
X68901995Y-84385089D01*
X68910327Y-84401821D01*
X69033236Y-84564579D01*
X69183959Y-84701981D01*
X69357363Y-84809348D01*
X69547544Y-84883024D01*
X69748024Y-84920500D01*
X69951976Y-84920500D01*
X70152456Y-84883024D01*
X70342637Y-84809348D01*
X70516041Y-84701981D01*
X70666764Y-84564579D01*
X70789673Y-84401821D01*
X70827740Y-84325371D01*
X70870603Y-84281709D01*
X70916361Y-84270500D01*
X71323639Y-84270500D01*
X71381830Y-84289407D01*
X71412259Y-84325371D01*
X71450327Y-84401821D01*
X71573236Y-84564579D01*
X71723959Y-84701981D01*
X71897363Y-84809348D01*
X72087544Y-84883024D01*
X72288024Y-84920500D01*
X72491976Y-84920500D01*
X72692456Y-84883024D01*
X72882637Y-84809348D01*
X73056041Y-84701981D01*
X73206764Y-84564579D01*
X73329673Y-84401821D01*
X73392637Y-84275371D01*
X73435500Y-84231709D01*
X73481258Y-84220500D01*
X79676099Y-84220500D01*
X79734290Y-84239407D01*
X79746103Y-84249496D01*
X82001504Y-86504896D01*
X82029281Y-86559413D01*
X82030500Y-86574900D01*
X82030500Y-95067437D01*
X82037953Y-95090374D01*
X82041579Y-95105474D01*
X82045354Y-95129306D01*
X82056301Y-95150788D01*
X82062247Y-95165142D01*
X82069703Y-95188088D01*
X82069702Y-95188088D01*
X82083884Y-95207608D01*
X82091997Y-95220847D01*
X82102950Y-95242342D01*
X82102951Y-95242343D01*
X82123031Y-95262424D01*
X84004676Y-97144068D01*
X84032453Y-97198585D01*
X84032825Y-97201149D01*
X84045670Y-97298709D01*
X84088445Y-97401980D01*
X84101139Y-97432625D01*
X84189379Y-97547621D01*
X84304375Y-97635861D01*
X84438291Y-97691330D01*
X84582000Y-97710250D01*
X84725709Y-97691330D01*
X84859625Y-97635861D01*
X84974621Y-97547621D01*
X85062861Y-97432625D01*
X85118330Y-97298709D01*
X85137250Y-97155000D01*
X85118330Y-97011291D01*
X85062861Y-96877375D01*
X84974621Y-96762379D01*
X84859625Y-96674139D01*
X84859621Y-96674137D01*
X84725709Y-96618670D01*
X84628149Y-96605825D01*
X84572924Y-96579483D01*
X84571068Y-96577676D01*
X84513392Y-96520000D01*
X95414785Y-96520000D01*
X95433603Y-96723083D01*
X95489418Y-96919250D01*
X95580327Y-97101821D01*
X95703236Y-97264579D01*
X95853959Y-97401981D01*
X96027363Y-97509348D01*
X96217544Y-97583024D01*
X96418024Y-97620500D01*
X96621976Y-97620500D01*
X96822456Y-97583024D01*
X97012637Y-97509348D01*
X97186041Y-97401981D01*
X97336764Y-97264579D01*
X97459673Y-97101821D01*
X97550582Y-96919250D01*
X97606397Y-96723083D01*
X97625215Y-96520000D01*
X120814785Y-96520000D01*
X120833603Y-96723083D01*
X120889418Y-96919250D01*
X120980327Y-97101821D01*
X121103236Y-97264579D01*
X121253959Y-97401981D01*
X121427363Y-97509348D01*
X121617544Y-97583024D01*
X121818024Y-97620500D01*
X122021976Y-97620500D01*
X122222456Y-97583024D01*
X122412637Y-97509348D01*
X122586041Y-97401981D01*
X122736764Y-97264579D01*
X122859673Y-97101821D01*
X122950582Y-96919250D01*
X123006397Y-96723083D01*
X123025215Y-96520000D01*
X123006397Y-96316917D01*
X122950582Y-96120750D01*
X122859673Y-95938179D01*
X122736764Y-95775421D01*
X122586041Y-95638019D01*
X122412637Y-95530652D01*
X122222456Y-95456976D01*
X122222455Y-95456975D01*
X122222453Y-95456975D01*
X122021976Y-95419500D01*
X121818024Y-95419500D01*
X121617546Y-95456975D01*
X121547632Y-95484059D01*
X121427363Y-95530652D01*
X121253958Y-95638018D01*
X121253959Y-95638019D01*
X121103237Y-95775420D01*
X120980328Y-95938177D01*
X120980323Y-95938186D01*
X120889419Y-96120747D01*
X120889418Y-96120750D01*
X120833603Y-96316917D01*
X120814785Y-96520000D01*
X97625215Y-96520000D01*
X97606397Y-96316917D01*
X97550582Y-96120750D01*
X97459673Y-95938179D01*
X97336764Y-95775421D01*
X97186041Y-95638019D01*
X97012637Y-95530652D01*
X96822456Y-95456976D01*
X96822455Y-95456975D01*
X96822453Y-95456975D01*
X96621976Y-95419500D01*
X96418024Y-95419500D01*
X96217546Y-95456975D01*
X96147632Y-95484059D01*
X96027363Y-95530652D01*
X95853959Y-95638018D01*
X95853959Y-95638019D01*
X95703237Y-95775420D01*
X95580328Y-95938177D01*
X95580323Y-95938186D01*
X95489419Y-96120747D01*
X95489418Y-96120750D01*
X95433603Y-96316917D01*
X95414785Y-96520000D01*
X84513392Y-96520000D01*
X82860496Y-94867103D01*
X82832719Y-94812586D01*
X82831500Y-94797099D01*
X82831500Y-94107000D01*
X87455750Y-94107000D01*
X87474669Y-94250708D01*
X87474670Y-94250709D01*
X87527912Y-94379250D01*
X87530139Y-94384625D01*
X87618379Y-94499621D01*
X87733375Y-94587861D01*
X87867291Y-94643330D01*
X88010999Y-94662250D01*
X88010999Y-94662249D01*
X88011000Y-94662250D01*
X88154709Y-94643330D01*
X88288625Y-94587861D01*
X88403621Y-94499621D01*
X88491861Y-94384625D01*
X88547330Y-94250709D01*
X88566250Y-94107000D01*
X88549530Y-93980000D01*
X95414785Y-93980000D01*
X95433603Y-94183083D01*
X95489418Y-94379250D01*
X95580327Y-94561821D01*
X95703236Y-94724579D01*
X95853959Y-94861981D01*
X96027363Y-94969348D01*
X96217544Y-95043024D01*
X96418024Y-95080500D01*
X96621976Y-95080500D01*
X96822456Y-95043024D01*
X97012637Y-94969348D01*
X97186041Y-94861981D01*
X97336764Y-94724579D01*
X97459673Y-94561821D01*
X97550582Y-94379250D01*
X97606397Y-94183083D01*
X97625215Y-93980000D01*
X120814785Y-93980000D01*
X120833603Y-94183083D01*
X120889418Y-94379250D01*
X120980327Y-94561821D01*
X121103236Y-94724579D01*
X121253959Y-94861981D01*
X121427363Y-94969348D01*
X121617544Y-95043024D01*
X121818024Y-95080500D01*
X122021976Y-95080500D01*
X122222456Y-95043024D01*
X122412637Y-94969348D01*
X122586041Y-94861981D01*
X122736764Y-94724579D01*
X122859673Y-94561821D01*
X122950582Y-94379250D01*
X123006397Y-94183083D01*
X123025215Y-93980000D01*
X123006397Y-93776917D01*
X122950582Y-93580750D01*
X122859673Y-93398179D01*
X122736764Y-93235421D01*
X122586041Y-93098019D01*
X122412637Y-92990652D01*
X122222456Y-92916976D01*
X122222455Y-92916975D01*
X122222453Y-92916975D01*
X122021976Y-92879500D01*
X121818024Y-92879500D01*
X121617546Y-92916975D01*
X121547632Y-92944059D01*
X121427363Y-92990652D01*
X121303451Y-93067375D01*
X121253959Y-93098019D01*
X121103237Y-93235420D01*
X120980328Y-93398177D01*
X120980323Y-93398186D01*
X120894437Y-93570670D01*
X120889418Y-93580750D01*
X120833603Y-93776917D01*
X120814785Y-93980000D01*
X97625215Y-93980000D01*
X97606397Y-93776917D01*
X97550582Y-93580750D01*
X97459673Y-93398179D01*
X97336764Y-93235421D01*
X97186041Y-93098019D01*
X97012637Y-92990652D01*
X96822456Y-92916976D01*
X96822455Y-92916975D01*
X96822453Y-92916975D01*
X96621976Y-92879500D01*
X96418024Y-92879500D01*
X96217546Y-92916975D01*
X96147632Y-92944059D01*
X96027363Y-92990652D01*
X95903451Y-93067375D01*
X95853959Y-93098019D01*
X95703237Y-93235420D01*
X95580328Y-93398177D01*
X95580323Y-93398186D01*
X95494437Y-93570670D01*
X95489418Y-93580750D01*
X95433603Y-93776917D01*
X95414785Y-93980000D01*
X88549530Y-93980000D01*
X88547330Y-93963291D01*
X88491861Y-93829375D01*
X88403621Y-93714379D01*
X88288625Y-93626139D01*
X88288621Y-93626137D01*
X88154709Y-93570670D01*
X88154708Y-93570669D01*
X88011000Y-93551750D01*
X87867291Y-93570669D01*
X87867290Y-93570670D01*
X87733378Y-93626137D01*
X87733374Y-93626139D01*
X87618381Y-93714377D01*
X87618377Y-93714381D01*
X87530139Y-93829374D01*
X87530137Y-93829378D01*
X87474670Y-93963290D01*
X87474669Y-93963291D01*
X87455750Y-94106999D01*
X87455750Y-94107000D01*
X82831500Y-94107000D01*
X82831500Y-92272901D01*
X82850407Y-92214710D01*
X82899907Y-92178746D01*
X82961093Y-92178746D01*
X83000504Y-92202897D01*
X84131676Y-93334069D01*
X84159453Y-93388586D01*
X84159825Y-93391150D01*
X84172670Y-93488709D01*
X84181734Y-93510593D01*
X84228139Y-93622625D01*
X84316379Y-93737621D01*
X84431375Y-93825861D01*
X84565291Y-93881330D01*
X84708999Y-93900250D01*
X84708999Y-93900249D01*
X84709000Y-93900250D01*
X84852709Y-93881330D01*
X84986625Y-93825861D01*
X85101621Y-93737621D01*
X85189861Y-93622625D01*
X85245330Y-93488709D01*
X85264250Y-93345000D01*
X85245330Y-93201291D01*
X85189861Y-93067375D01*
X85101621Y-92952379D01*
X85101616Y-92952375D01*
X85101615Y-92952374D01*
X85053614Y-92915542D01*
X85018958Y-92865118D01*
X85020559Y-92803953D01*
X85053614Y-92758458D01*
X85101621Y-92721621D01*
X85189861Y-92606625D01*
X85245330Y-92472709D01*
X85258173Y-92375150D01*
X85284514Y-92319926D01*
X85286285Y-92318106D01*
X86157483Y-91446909D01*
X86164392Y-91440000D01*
X95414785Y-91440000D01*
X95433603Y-91643083D01*
X95489418Y-91839250D01*
X95580327Y-92021821D01*
X95703236Y-92184579D01*
X95853959Y-92321981D01*
X96027363Y-92429348D01*
X96217544Y-92503024D01*
X96418024Y-92540500D01*
X96621976Y-92540500D01*
X96822456Y-92503024D01*
X97012637Y-92429348D01*
X97186041Y-92321981D01*
X97336764Y-92184579D01*
X97459673Y-92021821D01*
X97550582Y-91839250D01*
X97606397Y-91643083D01*
X97625215Y-91440000D01*
X120814785Y-91440000D01*
X120833603Y-91643083D01*
X120889418Y-91839250D01*
X120980327Y-92021821D01*
X121103236Y-92184579D01*
X121253959Y-92321981D01*
X121427363Y-92429348D01*
X121617544Y-92503024D01*
X121818024Y-92540500D01*
X122021976Y-92540500D01*
X122222456Y-92503024D01*
X122412637Y-92429348D01*
X122586041Y-92321981D01*
X122736764Y-92184579D01*
X122859673Y-92021821D01*
X122950582Y-91839250D01*
X123006397Y-91643083D01*
X123025215Y-91440000D01*
X123006397Y-91236917D01*
X122950582Y-91040750D01*
X122859673Y-90858179D01*
X122736764Y-90695421D01*
X122586041Y-90558019D01*
X122412637Y-90450652D01*
X122222456Y-90376976D01*
X122222455Y-90376975D01*
X122222453Y-90376975D01*
X122021976Y-90339500D01*
X121818024Y-90339500D01*
X121617546Y-90376975D01*
X121547632Y-90404059D01*
X121427363Y-90450652D01*
X121253958Y-90558019D01*
X121253959Y-90558019D01*
X121103237Y-90695420D01*
X120980328Y-90858177D01*
X120980323Y-90858186D01*
X120891141Y-91037289D01*
X120889418Y-91040750D01*
X120833603Y-91236917D01*
X120814785Y-91440000D01*
X97625215Y-91440000D01*
X97606397Y-91236917D01*
X97550582Y-91040750D01*
X97459673Y-90858179D01*
X97336764Y-90695421D01*
X97186041Y-90558019D01*
X97012637Y-90450652D01*
X96822456Y-90376976D01*
X96822455Y-90376975D01*
X96822453Y-90376975D01*
X96621976Y-90339500D01*
X96418024Y-90339500D01*
X96217546Y-90376975D01*
X96147632Y-90404059D01*
X96027363Y-90450652D01*
X95853958Y-90558019D01*
X95853959Y-90558019D01*
X95703237Y-90695420D01*
X95580328Y-90858177D01*
X95580323Y-90858186D01*
X95491141Y-91037289D01*
X95489418Y-91040750D01*
X95433603Y-91236917D01*
X95414785Y-91440000D01*
X86164392Y-91440000D01*
X86180050Y-91424342D01*
X86191002Y-91402843D01*
X86199115Y-91389605D01*
X86213296Y-91370090D01*
X86220751Y-91347142D01*
X86226690Y-91332802D01*
X86237646Y-91311304D01*
X86241421Y-91287465D01*
X86245043Y-91272382D01*
X86252500Y-91249433D01*
X86252500Y-91122567D01*
X86252500Y-91122566D01*
X86252500Y-90297000D01*
X87455750Y-90297000D01*
X87474669Y-90440708D01*
X87474670Y-90440709D01*
X87523260Y-90558019D01*
X87530139Y-90574625D01*
X87618379Y-90689621D01*
X87733375Y-90777861D01*
X87867291Y-90833330D01*
X88011000Y-90852250D01*
X88154709Y-90833330D01*
X88288625Y-90777861D01*
X88403621Y-90689621D01*
X88491861Y-90574625D01*
X88547330Y-90440709D01*
X88566250Y-90297000D01*
X88547330Y-90153291D01*
X88491861Y-90019375D01*
X88403621Y-89904379D01*
X88288625Y-89816139D01*
X88288621Y-89816137D01*
X88154709Y-89760670D01*
X88154708Y-89760669D01*
X88011000Y-89741750D01*
X87867291Y-89760669D01*
X87867290Y-89760670D01*
X87733378Y-89816137D01*
X87733374Y-89816139D01*
X87618381Y-89904377D01*
X87618377Y-89904381D01*
X87530139Y-90019374D01*
X87530137Y-90019378D01*
X87474670Y-90153290D01*
X87474669Y-90153291D01*
X87455750Y-90296999D01*
X87455750Y-90297000D01*
X86252500Y-90297000D01*
X86252500Y-88900000D01*
X95414785Y-88900000D01*
X95433603Y-89103083D01*
X95489418Y-89299250D01*
X95580327Y-89481821D01*
X95703236Y-89644579D01*
X95853959Y-89781981D01*
X96027363Y-89889348D01*
X96217544Y-89963024D01*
X96418024Y-90000500D01*
X96621976Y-90000500D01*
X96822456Y-89963024D01*
X97012637Y-89889348D01*
X97186041Y-89781981D01*
X97336764Y-89644579D01*
X97459673Y-89481821D01*
X97550582Y-89299250D01*
X97606397Y-89103083D01*
X97625215Y-88900000D01*
X120814785Y-88900000D01*
X120833603Y-89103083D01*
X120889418Y-89299250D01*
X120980327Y-89481821D01*
X121103236Y-89644579D01*
X121253959Y-89781981D01*
X121427363Y-89889348D01*
X121617544Y-89963024D01*
X121818024Y-90000500D01*
X122021976Y-90000500D01*
X122222456Y-89963024D01*
X122412637Y-89889348D01*
X122586041Y-89781981D01*
X122736764Y-89644579D01*
X122859673Y-89481821D01*
X122950582Y-89299250D01*
X123006397Y-89103083D01*
X123025215Y-88900000D01*
X123006397Y-88696917D01*
X122950582Y-88500750D01*
X122859673Y-88318179D01*
X122736764Y-88155421D01*
X122586041Y-88018019D01*
X122412637Y-87910652D01*
X122222456Y-87836976D01*
X122222455Y-87836975D01*
X122222453Y-87836975D01*
X122021976Y-87799500D01*
X121818024Y-87799500D01*
X121617546Y-87836975D01*
X121554237Y-87861501D01*
X121427363Y-87910652D01*
X121289003Y-87996321D01*
X121253959Y-88018019D01*
X121103237Y-88155420D01*
X120980328Y-88318177D01*
X120980323Y-88318186D01*
X120917785Y-88443781D01*
X120889418Y-88500750D01*
X120833603Y-88696917D01*
X120814785Y-88900000D01*
X97625215Y-88900000D01*
X97606397Y-88696917D01*
X97550582Y-88500750D01*
X97459673Y-88318179D01*
X97336764Y-88155421D01*
X97186041Y-88018019D01*
X97012637Y-87910652D01*
X96822456Y-87836976D01*
X96822455Y-87836975D01*
X96822453Y-87836975D01*
X96621976Y-87799500D01*
X96418024Y-87799500D01*
X96217546Y-87836975D01*
X96154237Y-87861501D01*
X96027363Y-87910652D01*
X95889003Y-87996321D01*
X95853959Y-88018019D01*
X95703237Y-88155420D01*
X95580328Y-88318177D01*
X95580323Y-88318186D01*
X95517785Y-88443781D01*
X95489418Y-88500750D01*
X95433603Y-88696917D01*
X95414785Y-88900000D01*
X86252500Y-88900000D01*
X86252500Y-86385006D01*
X86271407Y-86326815D01*
X86281490Y-86315008D01*
X87673484Y-84923015D01*
X87673485Y-84923013D01*
X87679127Y-84917371D01*
X87679129Y-84917367D01*
X87696050Y-84900448D01*
X87707004Y-84878947D01*
X87715110Y-84865719D01*
X87729296Y-84846195D01*
X87736750Y-84823252D01*
X87742691Y-84808908D01*
X87753646Y-84787410D01*
X87757421Y-84763573D01*
X87761046Y-84748477D01*
X87768500Y-84725539D01*
X87768500Y-84598673D01*
X87768500Y-83185000D01*
X88344750Y-83185000D01*
X88363669Y-83328708D01*
X88363670Y-83328709D01*
X88419137Y-83462621D01*
X88419142Y-83462630D01*
X88479041Y-83540690D01*
X88499466Y-83598365D01*
X88499500Y-83600958D01*
X88499500Y-84200937D01*
X88506953Y-84223874D01*
X88510579Y-84238974D01*
X88514354Y-84262806D01*
X88525301Y-84284288D01*
X88531247Y-84298642D01*
X88538703Y-84321588D01*
X88538702Y-84321588D01*
X88552884Y-84341108D01*
X88560997Y-84354347D01*
X88571950Y-84375842D01*
X88571951Y-84375843D01*
X88592031Y-84395924D01*
X89524449Y-85328342D01*
X89614157Y-85418049D01*
X89614158Y-85418050D01*
X89635649Y-85429000D01*
X89648895Y-85437117D01*
X89668410Y-85451296D01*
X89668412Y-85451296D01*
X89668413Y-85451297D01*
X89691352Y-85458750D01*
X89705695Y-85464690D01*
X89727196Y-85475646D01*
X89751024Y-85479419D01*
X89766133Y-85483047D01*
X89774694Y-85485828D01*
X89789067Y-85490499D01*
X89818937Y-85490499D01*
X89818961Y-85490500D01*
X95536725Y-85490500D01*
X95594916Y-85509407D01*
X95630880Y-85558907D01*
X95630880Y-85620093D01*
X95615729Y-85649161D01*
X95538062Y-85752007D01*
X95538057Y-85752016D01*
X95443064Y-85942789D01*
X95384738Y-86147783D01*
X95365073Y-86360000D01*
X95384738Y-86572216D01*
X95443064Y-86777210D01*
X95538061Y-86967992D01*
X95546834Y-86979609D01*
X96036922Y-86489522D01*
X96060507Y-86569844D01*
X96138239Y-86690798D01*
X96246900Y-86784952D01*
X96377685Y-86844680D01*
X96387466Y-86846086D01*
X95902992Y-87330561D01*
X96005202Y-87393846D01*
X96005204Y-87393847D01*
X96203941Y-87470838D01*
X96413437Y-87510000D01*
X96626563Y-87510000D01*
X96836058Y-87470838D01*
X97034795Y-87393847D01*
X97034800Y-87393844D01*
X97137006Y-87330561D01*
X96652531Y-86846086D01*
X96662315Y-86844680D01*
X96793100Y-86784952D01*
X96901761Y-86690798D01*
X96979493Y-86569844D01*
X97003077Y-86489522D01*
X97493164Y-86979609D01*
X97501941Y-86967987D01*
X97501942Y-86967984D01*
X97596935Y-86777210D01*
X97655261Y-86572216D01*
X97674926Y-86360000D01*
X120814785Y-86360000D01*
X120833603Y-86563083D01*
X120889418Y-86759250D01*
X120980327Y-86941821D01*
X121103236Y-87104579D01*
X121253959Y-87241981D01*
X121427363Y-87349348D01*
X121617544Y-87423024D01*
X121818024Y-87460500D01*
X122021976Y-87460500D01*
X122222456Y-87423024D01*
X122412637Y-87349348D01*
X122586041Y-87241981D01*
X122736764Y-87104579D01*
X122859673Y-86941821D01*
X122950582Y-86759250D01*
X123006397Y-86563083D01*
X123025215Y-86360000D01*
X123006397Y-86156917D01*
X122950582Y-85960750D01*
X122859673Y-85778179D01*
X122736764Y-85615421D01*
X122586041Y-85478019D01*
X122412637Y-85370652D01*
X122222456Y-85296976D01*
X122222455Y-85296975D01*
X122222453Y-85296975D01*
X122021976Y-85259500D01*
X121818024Y-85259500D01*
X121617546Y-85296975D01*
X121554963Y-85321220D01*
X121427363Y-85370652D01*
X121253959Y-85478019D01*
X121103236Y-85615421D01*
X121084675Y-85640000D01*
X120980328Y-85778177D01*
X120980323Y-85778186D01*
X120914937Y-85909500D01*
X120889418Y-85960750D01*
X120866884Y-86039949D01*
X120833603Y-86156917D01*
X120819922Y-86304567D01*
X120814785Y-86360000D01*
X97674926Y-86360000D01*
X97655261Y-86147783D01*
X97596935Y-85942789D01*
X97501942Y-85752016D01*
X97501932Y-85752000D01*
X97493164Y-85740389D01*
X97003076Y-86230476D01*
X96979493Y-86150156D01*
X96901761Y-86029202D01*
X96793100Y-85935048D01*
X96662315Y-85875320D01*
X96652533Y-85873913D01*
X97006950Y-85519497D01*
X97061467Y-85491719D01*
X97076954Y-85490500D01*
X97218432Y-85490500D01*
X97218433Y-85490500D01*
X97241382Y-85483043D01*
X97256465Y-85479421D01*
X97280304Y-85475646D01*
X97301802Y-85464690D01*
X97316151Y-85458748D01*
X97339090Y-85451296D01*
X97358612Y-85437111D01*
X97371849Y-85429000D01*
X97393342Y-85418050D01*
X97410261Y-85401129D01*
X97410265Y-85401127D01*
X97415907Y-85395485D01*
X97415909Y-85395484D01*
X98349484Y-84461909D01*
X98349485Y-84461907D01*
X98355127Y-84456265D01*
X98355129Y-84456261D01*
X98372050Y-84439342D01*
X98383004Y-84417841D01*
X98391110Y-84404613D01*
X98405296Y-84385089D01*
X98412750Y-84362146D01*
X98418691Y-84347802D01*
X98429646Y-84326304D01*
X98433421Y-84302467D01*
X98437046Y-84287371D01*
X98440945Y-84275372D01*
X98444500Y-84264433D01*
X98444500Y-84137567D01*
X98444500Y-84137566D01*
X98444500Y-82756900D01*
X98463407Y-82698709D01*
X98473496Y-82686896D01*
X98950896Y-82209496D01*
X99005413Y-82181719D01*
X99020900Y-82180500D01*
X118530099Y-82180500D01*
X118588290Y-82199407D01*
X118600102Y-82209495D01*
X120516091Y-84125484D01*
X120516092Y-84125484D01*
X120516092Y-84125485D01*
X120528174Y-84137566D01*
X120538658Y-84148050D01*
X120560145Y-84158998D01*
X120573386Y-84167112D01*
X120592908Y-84181294D01*
X120592909Y-84181294D01*
X120592911Y-84181296D01*
X120615861Y-84188752D01*
X120630201Y-84194693D01*
X120651696Y-84205646D01*
X120675534Y-84209421D01*
X120690611Y-84213041D01*
X120713567Y-84220500D01*
X120745481Y-84220500D01*
X120828742Y-84220500D01*
X120886933Y-84239407D01*
X120917362Y-84275371D01*
X120980327Y-84401821D01*
X121103236Y-84564579D01*
X121253959Y-84701981D01*
X121427363Y-84809348D01*
X121617544Y-84883024D01*
X121818024Y-84920500D01*
X122021976Y-84920500D01*
X122222456Y-84883024D01*
X122412637Y-84809348D01*
X122586041Y-84701981D01*
X122736764Y-84564579D01*
X122859673Y-84401821D01*
X122950582Y-84219250D01*
X123006397Y-84023083D01*
X123025215Y-83820000D01*
X123006397Y-83616917D01*
X122950582Y-83420750D01*
X122859673Y-83238179D01*
X122736764Y-83075421D01*
X122586041Y-82938019D01*
X122412637Y-82830652D01*
X122222456Y-82756976D01*
X122222455Y-82756975D01*
X122222453Y-82756975D01*
X122021976Y-82719500D01*
X121818024Y-82719500D01*
X121617546Y-82756975D01*
X121547632Y-82784059D01*
X121427363Y-82830652D01*
X121303451Y-82907375D01*
X121253959Y-82938019D01*
X121103237Y-83075420D01*
X120980328Y-83238177D01*
X120980320Y-83238191D01*
X120968939Y-83261047D01*
X120926076Y-83304709D01*
X120865735Y-83314838D01*
X120810964Y-83287564D01*
X120810315Y-83286922D01*
X119372897Y-81849504D01*
X119345120Y-81794987D01*
X119354691Y-81734555D01*
X119397956Y-81691290D01*
X119442901Y-81680500D01*
X120828742Y-81680500D01*
X120886933Y-81699407D01*
X120917362Y-81735371D01*
X120980327Y-81861821D01*
X121103236Y-82024579D01*
X121253959Y-82161981D01*
X121427363Y-82269348D01*
X121617544Y-82343024D01*
X121818024Y-82380500D01*
X122021976Y-82380500D01*
X122222456Y-82343024D01*
X122412637Y-82269348D01*
X122586041Y-82161981D01*
X122736764Y-82024579D01*
X122859673Y-81861821D01*
X122950582Y-81679250D01*
X123006397Y-81483083D01*
X123025215Y-81280000D01*
X123006397Y-81076917D01*
X122950582Y-80880750D01*
X122859673Y-80698179D01*
X122736764Y-80535421D01*
X122586041Y-80398019D01*
X122412637Y-80290652D01*
X122222456Y-80216976D01*
X122222455Y-80216975D01*
X122222453Y-80216975D01*
X122021976Y-80179500D01*
X121818024Y-80179500D01*
X121617546Y-80216975D01*
X121547632Y-80244059D01*
X121427363Y-80290652D01*
X121296789Y-80371500D01*
X121253959Y-80398019D01*
X121103237Y-80535420D01*
X120980328Y-80698177D01*
X120980323Y-80698186D01*
X120917363Y-80824628D01*
X120874500Y-80868291D01*
X120828742Y-80879500D01*
X119569901Y-80879500D01*
X119511710Y-80860593D01*
X119475746Y-80811093D01*
X119475746Y-80749907D01*
X119499897Y-80710496D01*
X119838893Y-80371500D01*
X120860404Y-79349987D01*
X120914919Y-79322212D01*
X120975351Y-79331783D01*
X121009407Y-79360330D01*
X121103236Y-79484579D01*
X121253959Y-79621981D01*
X121427363Y-79729348D01*
X121617544Y-79803024D01*
X121818024Y-79840500D01*
X122021976Y-79840500D01*
X122222456Y-79803024D01*
X122412637Y-79729348D01*
X122586041Y-79621981D01*
X122736764Y-79484579D01*
X122859673Y-79321821D01*
X122950582Y-79139250D01*
X123006397Y-78943083D01*
X123025215Y-78740000D01*
X123006397Y-78536917D01*
X122950582Y-78340750D01*
X122859673Y-78158179D01*
X122736764Y-77995421D01*
X122586041Y-77858019D01*
X122412637Y-77750652D01*
X122222456Y-77676976D01*
X122222455Y-77676975D01*
X122222453Y-77676975D01*
X122021976Y-77639500D01*
X121818024Y-77639500D01*
X121617546Y-77676975D01*
X121547632Y-77704059D01*
X121427363Y-77750652D01*
X121253959Y-77858018D01*
X121253959Y-77858019D01*
X121103237Y-77995420D01*
X120980328Y-78158177D01*
X120980323Y-78158186D01*
X120917017Y-78285321D01*
X120874154Y-78328984D01*
X120843886Y-78338974D01*
X120840565Y-78339499D01*
X120817624Y-78346953D01*
X120802529Y-78350577D01*
X120778701Y-78354352D01*
X120778691Y-78354355D01*
X120757202Y-78365305D01*
X120742852Y-78371249D01*
X120719915Y-78378701D01*
X120719906Y-78378706D01*
X120700385Y-78392887D01*
X120687151Y-78400997D01*
X120665660Y-78411948D01*
X120665658Y-78411950D01*
X120643094Y-78434513D01*
X120643092Y-78434515D01*
X120643090Y-78434515D01*
X120643091Y-78434516D01*
X118735103Y-80342504D01*
X118680586Y-80370281D01*
X118665099Y-80371500D01*
X98123901Y-80371500D01*
X98065710Y-80352593D01*
X98053897Y-80342504D01*
X97776356Y-80064963D01*
X97485909Y-79774516D01*
X97485905Y-79774513D01*
X97483424Y-79772032D01*
X97483424Y-79772031D01*
X97463343Y-79751951D01*
X97463342Y-79751950D01*
X97441847Y-79740997D01*
X97428608Y-79732884D01*
X97422581Y-79728505D01*
X97409090Y-79718704D01*
X97409088Y-79718703D01*
X97386142Y-79711247D01*
X97371788Y-79705301D01*
X97350304Y-79694353D01*
X97346098Y-79693687D01*
X97291583Y-79665906D01*
X97263810Y-79611387D01*
X97273386Y-79550956D01*
X97294892Y-79522749D01*
X97336764Y-79484579D01*
X97459673Y-79321821D01*
X97550582Y-79139250D01*
X97606397Y-78943083D01*
X97625215Y-78740000D01*
X97606397Y-78536917D01*
X97550582Y-78340750D01*
X97459673Y-78158179D01*
X97336764Y-77995421D01*
X97186041Y-77858019D01*
X97012637Y-77750652D01*
X96822456Y-77676976D01*
X96822455Y-77676975D01*
X96822453Y-77676975D01*
X96621976Y-77639500D01*
X96418024Y-77639500D01*
X96217546Y-77676975D01*
X96147632Y-77704059D01*
X96027363Y-77750652D01*
X95853958Y-77858018D01*
X95853959Y-77858019D01*
X95703237Y-77995420D01*
X95580328Y-78158177D01*
X95580323Y-78158186D01*
X95490040Y-78339500D01*
X95489418Y-78340750D01*
X95433603Y-78536917D01*
X95414785Y-78740000D01*
X95433603Y-78943083D01*
X95489418Y-79139250D01*
X95580327Y-79321821D01*
X95703236Y-79484579D01*
X95703238Y-79484581D01*
X95703239Y-79484582D01*
X95728202Y-79507339D01*
X95758468Y-79560514D01*
X95751697Y-79621324D01*
X95710476Y-79666540D01*
X95661506Y-79679500D01*
X95116433Y-79679500D01*
X94989567Y-79679500D01*
X94989565Y-79679500D01*
X94989562Y-79679501D01*
X94966624Y-79686953D01*
X94951529Y-79690577D01*
X94927701Y-79694352D01*
X94927691Y-79694355D01*
X94906202Y-79705305D01*
X94891853Y-79711248D01*
X94885532Y-79713302D01*
X94868911Y-79718703D01*
X94849393Y-79732884D01*
X94836150Y-79740999D01*
X94814658Y-79751950D01*
X94814656Y-79751951D01*
X94792091Y-79774516D01*
X94792091Y-79774517D01*
X91958929Y-82607676D01*
X91904412Y-82635453D01*
X91901848Y-82635825D01*
X91804290Y-82648670D01*
X91670378Y-82704137D01*
X91670374Y-82704139D01*
X91555381Y-82792377D01*
X91555377Y-82792381D01*
X91467139Y-82907374D01*
X91467137Y-82907378D01*
X91411670Y-83041290D01*
X91411669Y-83041291D01*
X91392750Y-83184999D01*
X91392750Y-83185000D01*
X91411669Y-83328708D01*
X91411670Y-83328709D01*
X91417476Y-83342726D01*
X91422276Y-83403723D01*
X91390307Y-83455892D01*
X91333778Y-83479306D01*
X91274284Y-83465022D01*
X91256008Y-83450615D01*
X91001322Y-83195929D01*
X90973545Y-83141412D01*
X90973173Y-83138847D01*
X90966259Y-83086329D01*
X90960330Y-83041291D01*
X90904861Y-82907375D01*
X90816621Y-82792379D01*
X90701625Y-82704139D01*
X90701621Y-82704137D01*
X90567709Y-82648670D01*
X90567708Y-82648669D01*
X90424000Y-82629750D01*
X90280291Y-82648669D01*
X90280290Y-82648670D01*
X90146378Y-82704137D01*
X90146374Y-82704139D01*
X90031381Y-82792377D01*
X90031377Y-82792381D01*
X89943139Y-82907374D01*
X89943137Y-82907378D01*
X89887670Y-83041290D01*
X89887669Y-83041291D01*
X89868750Y-83184999D01*
X89868750Y-83185000D01*
X89887669Y-83328708D01*
X89887670Y-83328709D01*
X89928540Y-83427381D01*
X89943139Y-83462625D01*
X90031379Y-83577621D01*
X90146375Y-83665861D01*
X90280291Y-83721330D01*
X90377848Y-83734173D01*
X90433072Y-83760514D01*
X90434929Y-83762322D01*
X90885652Y-84213045D01*
X91193104Y-84520496D01*
X91220881Y-84575013D01*
X91211310Y-84635445D01*
X91168045Y-84678710D01*
X91123100Y-84689500D01*
X90059400Y-84689500D01*
X90001209Y-84670593D01*
X89989396Y-84660504D01*
X89329496Y-84000603D01*
X89301719Y-83946086D01*
X89300500Y-83930599D01*
X89300500Y-83600958D01*
X89319407Y-83542767D01*
X89320959Y-83540690D01*
X89380857Y-83462630D01*
X89380856Y-83462630D01*
X89380861Y-83462625D01*
X89436330Y-83328709D01*
X89455250Y-83185000D01*
X89453560Y-83172167D01*
X89436330Y-83041291D01*
X89380861Y-82907375D01*
X89292621Y-82792379D01*
X89177625Y-82704139D01*
X89177621Y-82704137D01*
X89043709Y-82648670D01*
X89043708Y-82648669D01*
X88900000Y-82629750D01*
X88756291Y-82648669D01*
X88756290Y-82648670D01*
X88622378Y-82704137D01*
X88622374Y-82704139D01*
X88507381Y-82792377D01*
X88507377Y-82792381D01*
X88419139Y-82907374D01*
X88419137Y-82907378D01*
X88363670Y-83041290D01*
X88363669Y-83041291D01*
X88344750Y-83184999D01*
X88344750Y-83185000D01*
X87768500Y-83185000D01*
X87768500Y-67310000D01*
X88344750Y-67310000D01*
X88363669Y-67453708D01*
X88363670Y-67453709D01*
X88419137Y-67587621D01*
X88419142Y-67587630D01*
X88479041Y-67665690D01*
X88499466Y-67723365D01*
X88499500Y-67725958D01*
X88499500Y-68516437D01*
X88506953Y-68539374D01*
X88510579Y-68554474D01*
X88514354Y-68578306D01*
X88525301Y-68599788D01*
X88531247Y-68614142D01*
X88538703Y-68637088D01*
X88538702Y-68637088D01*
X88552884Y-68656608D01*
X88560997Y-68669847D01*
X88571950Y-68691342D01*
X88571951Y-68691343D01*
X88592031Y-68711424D01*
X88592032Y-68711424D01*
X88594513Y-68713905D01*
X88594516Y-68713909D01*
X89068591Y-69187984D01*
X89528092Y-69647485D01*
X89550656Y-69670048D01*
X89550658Y-69670050D01*
X89572145Y-69680998D01*
X89585386Y-69689112D01*
X89604908Y-69703294D01*
X89604909Y-69703294D01*
X89604911Y-69703296D01*
X89627861Y-69710752D01*
X89642201Y-69716693D01*
X89663696Y-69727646D01*
X89687534Y-69731421D01*
X89702611Y-69735041D01*
X89725567Y-69742500D01*
X89757481Y-69742500D01*
X90217099Y-69742500D01*
X90275290Y-69761407D01*
X90287103Y-69771496D01*
X92336103Y-71820496D01*
X92363880Y-71875013D01*
X92354309Y-71935445D01*
X92311044Y-71978710D01*
X92266099Y-71989500D01*
X89823960Y-71989500D01*
X89765769Y-71970593D01*
X89763693Y-71969042D01*
X89685629Y-71909142D01*
X89685628Y-71909141D01*
X89685625Y-71909139D01*
X89685622Y-71909138D01*
X89685621Y-71909137D01*
X89551709Y-71853670D01*
X89551708Y-71853669D01*
X89408000Y-71834750D01*
X89264291Y-71853669D01*
X89264290Y-71853670D01*
X89130378Y-71909137D01*
X89130374Y-71909139D01*
X89015381Y-71997377D01*
X89015377Y-71997381D01*
X88927139Y-72112374D01*
X88927137Y-72112378D01*
X88871670Y-72246290D01*
X88871669Y-72246291D01*
X88852750Y-72389999D01*
X88852750Y-72390000D01*
X88871669Y-72533708D01*
X88871670Y-72533709D01*
X88907567Y-72620375D01*
X88927139Y-72667625D01*
X89015379Y-72782621D01*
X89130375Y-72870861D01*
X89264291Y-72926330D01*
X89408000Y-72945250D01*
X89551709Y-72926330D01*
X89685625Y-72870861D01*
X89735228Y-72832799D01*
X89763693Y-72810958D01*
X89821369Y-72790534D01*
X89823960Y-72790500D01*
X92503099Y-72790500D01*
X92561290Y-72809407D01*
X92573103Y-72819496D01*
X94921949Y-75168342D01*
X95011657Y-75258049D01*
X95011658Y-75258050D01*
X95033149Y-75269000D01*
X95046395Y-75277117D01*
X95065910Y-75291296D01*
X95065912Y-75291296D01*
X95065913Y-75291297D01*
X95088852Y-75298750D01*
X95103195Y-75304690D01*
X95124696Y-75315646D01*
X95148524Y-75319419D01*
X95163633Y-75323047D01*
X95172194Y-75325828D01*
X95186567Y-75330499D01*
X95216437Y-75330499D01*
X95216461Y-75330500D01*
X95218481Y-75330500D01*
X95598754Y-75330500D01*
X95656945Y-75349407D01*
X95692909Y-75398907D01*
X95692909Y-75460093D01*
X95677760Y-75489155D01*
X95608783Y-75580496D01*
X95580328Y-75618177D01*
X95580323Y-75618186D01*
X95497843Y-75783830D01*
X95489418Y-75800750D01*
X95433603Y-75996917D01*
X95414785Y-76200000D01*
X95433603Y-76403083D01*
X95489418Y-76599250D01*
X95580327Y-76781821D01*
X95703236Y-76944579D01*
X95853959Y-77081981D01*
X96027363Y-77189348D01*
X96217544Y-77263024D01*
X96418024Y-77300500D01*
X96621976Y-77300500D01*
X96822456Y-77263024D01*
X97012637Y-77189348D01*
X97186041Y-77081981D01*
X97336764Y-76944579D01*
X97459673Y-76781821D01*
X97550582Y-76599250D01*
X97606397Y-76403083D01*
X97625215Y-76200000D01*
X97606397Y-75996917D01*
X97550582Y-75800750D01*
X97459673Y-75618179D01*
X97362240Y-75489157D01*
X97342263Y-75431330D01*
X97360092Y-75372799D01*
X97408918Y-75335927D01*
X97441246Y-75330500D01*
X120443099Y-75330500D01*
X120501290Y-75349407D01*
X120513103Y-75359496D01*
X120862663Y-75709056D01*
X120890440Y-75763573D01*
X120887880Y-75806152D01*
X120833603Y-75996915D01*
X120833602Y-75996917D01*
X120833603Y-75996917D01*
X120814785Y-76200000D01*
X120833603Y-76403083D01*
X120889418Y-76599250D01*
X120980327Y-76781821D01*
X121103236Y-76944579D01*
X121253959Y-77081981D01*
X121427363Y-77189348D01*
X121617544Y-77263024D01*
X121818024Y-77300500D01*
X122021976Y-77300500D01*
X122222456Y-77263024D01*
X122412637Y-77189348D01*
X122586041Y-77081981D01*
X122736764Y-76944579D01*
X122859673Y-76781821D01*
X122950582Y-76599250D01*
X123006397Y-76403083D01*
X123025215Y-76200000D01*
X123006397Y-75996917D01*
X122950582Y-75800750D01*
X122859673Y-75618179D01*
X122736764Y-75455421D01*
X122586041Y-75318019D01*
X122412637Y-75210652D01*
X122222456Y-75136976D01*
X122222455Y-75136975D01*
X122222453Y-75136975D01*
X122021976Y-75099500D01*
X121818024Y-75099500D01*
X121617543Y-75136976D01*
X121537738Y-75167892D01*
X121476647Y-75171282D01*
X121431972Y-75145580D01*
X121254274Y-74967881D01*
X121226497Y-74913365D01*
X121236068Y-74852933D01*
X121279332Y-74809669D01*
X121283301Y-74807646D01*
X121283304Y-74807646D01*
X121304800Y-74796692D01*
X121319151Y-74790748D01*
X121342090Y-74783296D01*
X121361612Y-74769111D01*
X121374849Y-74761000D01*
X121396342Y-74750050D01*
X121413263Y-74733127D01*
X121413268Y-74733124D01*
X121418906Y-74727485D01*
X121418909Y-74727484D01*
X121431972Y-74714420D01*
X121486484Y-74686642D01*
X121537736Y-74692106D01*
X121617544Y-74723024D01*
X121818024Y-74760500D01*
X122021976Y-74760500D01*
X122222456Y-74723024D01*
X122412637Y-74649348D01*
X122586041Y-74541981D01*
X122736764Y-74404579D01*
X122859673Y-74241821D01*
X122950582Y-74059250D01*
X123006397Y-73863083D01*
X123025215Y-73660000D01*
X123006397Y-73456917D01*
X122950582Y-73260750D01*
X122859673Y-73078179D01*
X122736764Y-72915421D01*
X122586041Y-72778019D01*
X122412637Y-72670652D01*
X122222456Y-72596976D01*
X122222455Y-72596975D01*
X122222453Y-72596975D01*
X122021976Y-72559500D01*
X121818024Y-72559500D01*
X121617546Y-72596975D01*
X121557146Y-72620374D01*
X121427363Y-72670652D01*
X121300305Y-72749323D01*
X121253959Y-72778019D01*
X121103237Y-72915420D01*
X120980328Y-73078177D01*
X120980323Y-73078186D01*
X120914937Y-73209500D01*
X120889418Y-73260750D01*
X120833603Y-73456917D01*
X120814785Y-73660000D01*
X120833603Y-73863083D01*
X120842800Y-73895409D01*
X120840540Y-73956550D01*
X120802772Y-74004688D01*
X120747580Y-74021500D01*
X100092401Y-74021500D01*
X100034210Y-74002593D01*
X100022397Y-73992504D01*
X99071601Y-73041708D01*
X98114409Y-72084516D01*
X98114405Y-72084513D01*
X98111924Y-72082032D01*
X98111924Y-72082031D01*
X98091843Y-72061951D01*
X98091842Y-72061950D01*
X98070347Y-72050997D01*
X98057108Y-72042884D01*
X98051081Y-72038505D01*
X98037590Y-72028704D01*
X98037588Y-72028703D01*
X98014642Y-72021247D01*
X98000288Y-72015301D01*
X97978806Y-72004354D01*
X97954974Y-72000579D01*
X97939874Y-71996953D01*
X97916937Y-71989500D01*
X97916933Y-71989500D01*
X97885019Y-71989500D01*
X97441246Y-71989500D01*
X97383055Y-71970593D01*
X97347091Y-71921093D01*
X97347091Y-71859907D01*
X97362239Y-71830844D01*
X97459673Y-71701821D01*
X97550582Y-71519250D01*
X97606397Y-71323083D01*
X97625215Y-71120000D01*
X97606397Y-70916917D01*
X97550582Y-70720750D01*
X97459673Y-70538179D01*
X97336764Y-70375421D01*
X97336760Y-70375417D01*
X97311798Y-70352661D01*
X97281532Y-70299486D01*
X97288303Y-70238676D01*
X97329524Y-70193460D01*
X97378494Y-70180500D01*
X120373099Y-70180500D01*
X120431290Y-70199407D01*
X120443103Y-70209496D01*
X120862663Y-70629056D01*
X120890440Y-70683573D01*
X120887880Y-70726152D01*
X120833603Y-70916915D01*
X120833602Y-70916917D01*
X120833603Y-70916917D01*
X120814785Y-71120000D01*
X120833603Y-71323083D01*
X120889418Y-71519250D01*
X120980327Y-71701821D01*
X121103236Y-71864579D01*
X121253959Y-72001981D01*
X121427363Y-72109348D01*
X121617544Y-72183024D01*
X121818024Y-72220500D01*
X122021976Y-72220500D01*
X122222456Y-72183024D01*
X122412637Y-72109348D01*
X122586041Y-72001981D01*
X122736764Y-71864579D01*
X122859673Y-71701821D01*
X122950582Y-71519250D01*
X123006397Y-71323083D01*
X123025215Y-71120000D01*
X123006397Y-70916917D01*
X122950582Y-70720750D01*
X122859673Y-70538179D01*
X122736764Y-70375421D01*
X122586041Y-70238019D01*
X122412637Y-70130652D01*
X122222456Y-70056976D01*
X122222455Y-70056975D01*
X122222453Y-70056975D01*
X122021976Y-70019500D01*
X121818024Y-70019500D01*
X121617544Y-70056975D01*
X121537739Y-70087892D01*
X121476648Y-70091282D01*
X121431973Y-70065581D01*
X121137888Y-69771496D01*
X120840909Y-69474516D01*
X120840908Y-69474515D01*
X120838424Y-69472031D01*
X120818343Y-69451951D01*
X120818342Y-69451950D01*
X120796847Y-69440997D01*
X120783608Y-69432884D01*
X120777581Y-69428505D01*
X120764090Y-69418704D01*
X120764088Y-69418703D01*
X120741142Y-69411247D01*
X120726788Y-69405301D01*
X120705306Y-69394354D01*
X120681474Y-69390579D01*
X120666374Y-69386953D01*
X120643437Y-69379500D01*
X120643433Y-69379500D01*
X120611519Y-69379500D01*
X119893901Y-69379500D01*
X119835710Y-69360593D01*
X119799746Y-69311093D01*
X119799746Y-69249907D01*
X119823897Y-69210497D01*
X120397305Y-68637088D01*
X120602922Y-68431470D01*
X120657438Y-68403693D01*
X120717870Y-68413264D01*
X120761135Y-68456529D01*
X120771503Y-68510608D01*
X120765073Y-68579999D01*
X120784738Y-68792216D01*
X120843064Y-68997210D01*
X120938061Y-69187992D01*
X120946834Y-69199609D01*
X121436922Y-68709522D01*
X121460507Y-68789844D01*
X121538239Y-68910798D01*
X121646900Y-69004952D01*
X121777685Y-69064680D01*
X121787466Y-69066086D01*
X121302992Y-69550561D01*
X121405202Y-69613846D01*
X121405204Y-69613847D01*
X121603941Y-69690838D01*
X121813437Y-69730000D01*
X122026563Y-69730000D01*
X122236058Y-69690838D01*
X122434795Y-69613847D01*
X122434800Y-69613844D01*
X122537006Y-69550561D01*
X122052531Y-69066086D01*
X122062315Y-69064680D01*
X122193100Y-69004952D01*
X122301761Y-68910798D01*
X122379493Y-68789844D01*
X122403077Y-68709522D01*
X122893164Y-69199609D01*
X122901941Y-69187987D01*
X122901942Y-69187984D01*
X122996935Y-68997210D01*
X123055261Y-68792216D01*
X123074926Y-68580000D01*
X123055261Y-68367783D01*
X122996935Y-68162789D01*
X122901942Y-67972016D01*
X122901932Y-67972000D01*
X122893164Y-67960389D01*
X122403076Y-68450476D01*
X122379493Y-68370156D01*
X122301761Y-68249202D01*
X122193100Y-68155048D01*
X122062315Y-68095320D01*
X122052532Y-68093913D01*
X122537007Y-67609437D01*
X122434797Y-67546153D01*
X122434795Y-67546152D01*
X122236058Y-67469161D01*
X122026563Y-67430000D01*
X121843399Y-67430000D01*
X121785208Y-67411093D01*
X121749244Y-67361593D01*
X121749244Y-67300407D01*
X121773393Y-67260998D01*
X121864897Y-67169494D01*
X121919412Y-67141719D01*
X121934899Y-67140500D01*
X122021976Y-67140500D01*
X122222456Y-67103024D01*
X122412637Y-67029348D01*
X122586041Y-66921981D01*
X122736764Y-66784579D01*
X122859673Y-66621821D01*
X122950582Y-66439250D01*
X123006397Y-66243083D01*
X123025215Y-66040000D01*
X123006397Y-65836917D01*
X122950582Y-65640750D01*
X122859673Y-65458179D01*
X122736764Y-65295421D01*
X122586041Y-65158019D01*
X122412637Y-65050652D01*
X122222456Y-64976976D01*
X122222455Y-64976975D01*
X122222453Y-64976975D01*
X122021976Y-64939500D01*
X121818024Y-64939500D01*
X121617546Y-64976975D01*
X121547632Y-65004059D01*
X121427363Y-65050652D01*
X121253959Y-65158019D01*
X121103237Y-65295420D01*
X120980328Y-65458177D01*
X120980323Y-65458186D01*
X120914937Y-65589500D01*
X120889418Y-65640750D01*
X120833603Y-65836917D01*
X120814785Y-66040000D01*
X120833603Y-66243083D01*
X120889418Y-66439250D01*
X120980327Y-66621821D01*
X120980328Y-66621822D01*
X120980332Y-66621828D01*
X121057253Y-66723689D01*
X121077232Y-66781520D01*
X121059403Y-66840050D01*
X121048253Y-66853353D01*
X119051103Y-68850504D01*
X118996586Y-68878281D01*
X118981099Y-68879500D01*
X99123958Y-68879500D01*
X99065767Y-68860593D01*
X99053954Y-68850504D01*
X98150924Y-67947474D01*
X97227647Y-67024197D01*
X97199872Y-66969683D01*
X97209443Y-66909251D01*
X97230955Y-66881036D01*
X97336764Y-66784579D01*
X97459673Y-66621821D01*
X97550582Y-66439250D01*
X97606397Y-66243083D01*
X97625215Y-66040000D01*
X97606397Y-65836917D01*
X97550582Y-65640750D01*
X97459673Y-65458179D01*
X97336764Y-65295421D01*
X97186041Y-65158019D01*
X97012637Y-65050652D01*
X96822456Y-64976976D01*
X96822455Y-64976975D01*
X96822453Y-64976975D01*
X96621976Y-64939500D01*
X96418024Y-64939500D01*
X96217546Y-64976975D01*
X96147632Y-65004059D01*
X96027363Y-65050652D01*
X95853958Y-65158018D01*
X95853959Y-65158019D01*
X95703237Y-65295420D01*
X95580328Y-65458177D01*
X95580323Y-65458186D01*
X95514937Y-65589500D01*
X95489418Y-65640750D01*
X95433603Y-65836917D01*
X95414785Y-66040000D01*
X95433603Y-66243083D01*
X95489418Y-66439250D01*
X95580327Y-66621821D01*
X95677759Y-66750842D01*
X95697737Y-66808670D01*
X95679908Y-66867201D01*
X95631082Y-66904073D01*
X95598754Y-66909500D01*
X92363960Y-66909500D01*
X92305769Y-66890593D01*
X92303693Y-66889042D01*
X92225629Y-66829142D01*
X92225628Y-66829141D01*
X92225625Y-66829139D01*
X92225622Y-66829138D01*
X92225621Y-66829137D01*
X92091709Y-66773670D01*
X92091708Y-66773669D01*
X91948000Y-66754750D01*
X91804291Y-66773669D01*
X91804290Y-66773670D01*
X91670378Y-66829137D01*
X91670374Y-66829139D01*
X91555381Y-66917377D01*
X91555377Y-66917381D01*
X91467139Y-67032374D01*
X91467137Y-67032378D01*
X91411670Y-67166290D01*
X91411669Y-67166291D01*
X91392750Y-67309999D01*
X91392750Y-67310000D01*
X91411669Y-67453708D01*
X91411670Y-67453709D01*
X91417476Y-67467726D01*
X91422276Y-67528723D01*
X91390307Y-67580892D01*
X91333778Y-67604306D01*
X91274284Y-67590022D01*
X91256008Y-67575615D01*
X91001322Y-67320929D01*
X90973545Y-67266412D01*
X90973173Y-67263847D01*
X90972798Y-67260996D01*
X90960330Y-67166291D01*
X90904861Y-67032375D01*
X90816621Y-66917379D01*
X90701625Y-66829139D01*
X90701621Y-66829137D01*
X90567709Y-66773670D01*
X90567708Y-66773669D01*
X90424000Y-66754750D01*
X90280291Y-66773669D01*
X90280290Y-66773670D01*
X90146378Y-66829137D01*
X90146374Y-66829139D01*
X90031381Y-66917377D01*
X90031377Y-66917381D01*
X89943139Y-67032374D01*
X89943137Y-67032378D01*
X89887670Y-67166290D01*
X89887669Y-67166291D01*
X89868750Y-67309999D01*
X89868750Y-67310000D01*
X89887669Y-67453708D01*
X89887670Y-67453709D01*
X89925960Y-67546152D01*
X89943139Y-67587625D01*
X90031379Y-67702621D01*
X90146375Y-67790861D01*
X90280291Y-67846330D01*
X90377848Y-67859173D01*
X90433072Y-67885514D01*
X90434929Y-67887322D01*
X92565949Y-70018342D01*
X92655657Y-70108049D01*
X92655658Y-70108050D01*
X92677149Y-70119000D01*
X92690395Y-70127117D01*
X92709910Y-70141296D01*
X92709912Y-70141296D01*
X92709913Y-70141297D01*
X92732852Y-70148750D01*
X92747195Y-70154690D01*
X92768696Y-70165646D01*
X92792524Y-70169419D01*
X92807633Y-70173047D01*
X92816194Y-70175828D01*
X92830567Y-70180499D01*
X92860437Y-70180499D01*
X92860461Y-70180500D01*
X92862481Y-70180500D01*
X95661506Y-70180500D01*
X95719697Y-70199407D01*
X95755661Y-70248907D01*
X95755661Y-70310093D01*
X95728202Y-70352661D01*
X95703239Y-70375417D01*
X95580328Y-70538177D01*
X95580323Y-70538186D01*
X95489419Y-70720747D01*
X95489418Y-70720750D01*
X95433603Y-70916917D01*
X95414785Y-71120000D01*
X95433603Y-71323083D01*
X95489418Y-71519250D01*
X95580327Y-71701821D01*
X95677759Y-71830842D01*
X95697737Y-71888670D01*
X95679908Y-71947201D01*
X95631082Y-71984073D01*
X95598754Y-71989500D01*
X93678901Y-71989500D01*
X93620710Y-71970593D01*
X93608897Y-71960504D01*
X92186570Y-70538177D01*
X90684909Y-69036516D01*
X90684905Y-69036513D01*
X90682424Y-69034032D01*
X90682424Y-69034031D01*
X90662343Y-69013951D01*
X90662342Y-69013950D01*
X90640847Y-69002997D01*
X90627608Y-68994884D01*
X90621581Y-68990505D01*
X90608090Y-68980704D01*
X90608088Y-68980703D01*
X90585142Y-68973247D01*
X90570788Y-68967301D01*
X90549306Y-68956354D01*
X90525474Y-68952579D01*
X90510374Y-68948953D01*
X90487437Y-68941500D01*
X90487433Y-68941500D01*
X90455519Y-68941500D01*
X89995901Y-68941500D01*
X89937710Y-68922593D01*
X89925897Y-68912504D01*
X89329496Y-68316102D01*
X89301719Y-68261585D01*
X89300500Y-68246098D01*
X89300500Y-67725958D01*
X89319407Y-67667767D01*
X89320959Y-67665690D01*
X89380857Y-67587630D01*
X89380856Y-67587630D01*
X89380861Y-67587625D01*
X89436330Y-67453709D01*
X89455250Y-67310000D01*
X89453560Y-67297167D01*
X89436330Y-67166291D01*
X89380861Y-67032375D01*
X89292621Y-66917379D01*
X89177625Y-66829139D01*
X89177621Y-66829137D01*
X89043709Y-66773670D01*
X89043708Y-66773669D01*
X88900000Y-66754750D01*
X88756291Y-66773669D01*
X88756290Y-66773670D01*
X88622378Y-66829137D01*
X88622374Y-66829139D01*
X88507381Y-66917377D01*
X88507377Y-66917381D01*
X88419139Y-67032374D01*
X88419137Y-67032378D01*
X88363670Y-67166290D01*
X88363669Y-67166291D01*
X88344750Y-67309999D01*
X88344750Y-67310000D01*
X87768500Y-67310000D01*
X87768500Y-63500000D01*
X95414785Y-63500000D01*
X95433603Y-63703083D01*
X95489418Y-63899250D01*
X95580327Y-64081821D01*
X95703236Y-64244579D01*
X95853959Y-64381981D01*
X96027363Y-64489348D01*
X96217544Y-64563024D01*
X96418024Y-64600500D01*
X96621976Y-64600500D01*
X96822456Y-64563024D01*
X97012637Y-64489348D01*
X97186041Y-64381981D01*
X97336764Y-64244579D01*
X97459673Y-64081821D01*
X97550582Y-63899250D01*
X97606397Y-63703083D01*
X97625215Y-63500000D01*
X120814785Y-63500000D01*
X120833603Y-63703083D01*
X120889418Y-63899250D01*
X120980327Y-64081821D01*
X121103236Y-64244579D01*
X121253959Y-64381981D01*
X121427363Y-64489348D01*
X121617544Y-64563024D01*
X121818024Y-64600500D01*
X122021976Y-64600500D01*
X122222456Y-64563024D01*
X122412637Y-64489348D01*
X122586041Y-64381981D01*
X122736764Y-64244579D01*
X122859673Y-64081821D01*
X122950582Y-63899250D01*
X123006397Y-63703083D01*
X123025215Y-63500000D01*
X123006397Y-63296917D01*
X122950582Y-63100750D01*
X122859673Y-62918179D01*
X122736764Y-62755421D01*
X122586041Y-62618019D01*
X122412637Y-62510652D01*
X122222456Y-62436976D01*
X122222455Y-62436975D01*
X122222453Y-62436975D01*
X122021976Y-62399500D01*
X121818024Y-62399500D01*
X121617546Y-62436975D01*
X121547632Y-62464059D01*
X121427363Y-62510652D01*
X121303451Y-62587375D01*
X121253959Y-62618019D01*
X121103237Y-62755420D01*
X120980328Y-62918177D01*
X120980323Y-62918186D01*
X120914937Y-63049500D01*
X120889418Y-63100750D01*
X120833603Y-63296917D01*
X120814785Y-63500000D01*
X97625215Y-63500000D01*
X97606397Y-63296917D01*
X97550582Y-63100750D01*
X97459673Y-62918179D01*
X97336764Y-62755421D01*
X97186041Y-62618019D01*
X97012637Y-62510652D01*
X96822456Y-62436976D01*
X96822455Y-62436975D01*
X96822453Y-62436975D01*
X96621976Y-62399500D01*
X96418024Y-62399500D01*
X96217546Y-62436975D01*
X96147632Y-62464059D01*
X96027363Y-62510652D01*
X95903451Y-62587375D01*
X95853959Y-62618019D01*
X95703237Y-62755420D01*
X95580328Y-62918177D01*
X95580323Y-62918186D01*
X95514937Y-63049500D01*
X95489418Y-63100750D01*
X95433603Y-63296917D01*
X95414785Y-63500000D01*
X87768500Y-63500000D01*
X87768500Y-61555900D01*
X87787407Y-61497709D01*
X87797490Y-61485902D01*
X88323393Y-60960000D01*
X95414785Y-60960000D01*
X95433603Y-61163083D01*
X95489418Y-61359250D01*
X95580327Y-61541821D01*
X95703236Y-61704579D01*
X95853959Y-61841981D01*
X96027363Y-61949348D01*
X96217544Y-62023024D01*
X96418024Y-62060500D01*
X96621976Y-62060500D01*
X96822456Y-62023024D01*
X97012637Y-61949348D01*
X97186041Y-61841981D01*
X97336764Y-61704579D01*
X97459673Y-61541821D01*
X97550582Y-61359250D01*
X97606397Y-61163083D01*
X97625215Y-60960000D01*
X120814785Y-60960000D01*
X120833603Y-61163083D01*
X120889418Y-61359250D01*
X120980327Y-61541821D01*
X121103236Y-61704579D01*
X121253959Y-61841981D01*
X121427363Y-61949348D01*
X121617544Y-62023024D01*
X121818024Y-62060500D01*
X122021976Y-62060500D01*
X122222456Y-62023024D01*
X122412637Y-61949348D01*
X122586041Y-61841981D01*
X122736764Y-61704579D01*
X122859673Y-61541821D01*
X122950582Y-61359250D01*
X123006397Y-61163083D01*
X123025215Y-60960000D01*
X123006397Y-60756917D01*
X122950582Y-60560750D01*
X122859673Y-60378179D01*
X122736764Y-60215421D01*
X122586041Y-60078019D01*
X122412637Y-59970652D01*
X122222456Y-59896976D01*
X122222455Y-59896975D01*
X122222453Y-59896975D01*
X122021976Y-59859500D01*
X121818024Y-59859500D01*
X121617546Y-59896975D01*
X121547632Y-59924059D01*
X121427363Y-59970652D01*
X121253958Y-60078018D01*
X121253959Y-60078019D01*
X121103237Y-60215420D01*
X120980328Y-60378177D01*
X120980323Y-60378186D01*
X120889419Y-60560747D01*
X120889418Y-60560750D01*
X120833603Y-60756917D01*
X120814785Y-60960000D01*
X97625215Y-60960000D01*
X97606397Y-60756917D01*
X97550582Y-60560750D01*
X97459673Y-60378179D01*
X97336764Y-60215421D01*
X97186041Y-60078019D01*
X97012637Y-59970652D01*
X96822456Y-59896976D01*
X96822455Y-59896975D01*
X96822453Y-59896975D01*
X96621976Y-59859500D01*
X96418024Y-59859500D01*
X96217546Y-59896975D01*
X96147632Y-59924059D01*
X96027363Y-59970652D01*
X95853958Y-60078018D01*
X95853959Y-60078019D01*
X95703237Y-60215420D01*
X95580328Y-60378177D01*
X95580323Y-60378186D01*
X95489419Y-60560747D01*
X95489418Y-60560750D01*
X95433603Y-60756917D01*
X95414785Y-60960000D01*
X88323393Y-60960000D01*
X88697484Y-60585909D01*
X88697485Y-60585907D01*
X88703127Y-60580265D01*
X88703129Y-60580261D01*
X88720050Y-60563342D01*
X88731004Y-60541841D01*
X88739110Y-60528613D01*
X88753296Y-60509089D01*
X88760750Y-60486146D01*
X88766691Y-60471802D01*
X88777646Y-60450304D01*
X88781421Y-60426467D01*
X88785046Y-60411371D01*
X88792500Y-60388433D01*
X88792500Y-60261567D01*
X88792500Y-59724958D01*
X88811407Y-59666767D01*
X88812959Y-59664690D01*
X88872857Y-59586630D01*
X88872856Y-59586630D01*
X88872861Y-59586625D01*
X88928330Y-59452709D01*
X88947250Y-59309000D01*
X88928330Y-59165291D01*
X88872861Y-59031375D01*
X88784621Y-58916379D01*
X88669625Y-58828139D01*
X88669621Y-58828137D01*
X88535709Y-58772670D01*
X88535708Y-58772669D01*
X88392000Y-58753750D01*
X88248291Y-58772669D01*
X88248290Y-58772670D01*
X88114378Y-58828137D01*
X88114374Y-58828139D01*
X87999381Y-58916377D01*
X87999377Y-58916381D01*
X87911139Y-59031374D01*
X87911137Y-59031378D01*
X87855670Y-59165290D01*
X87855669Y-59165291D01*
X87836750Y-59308999D01*
X87836750Y-59309000D01*
X87855669Y-59452708D01*
X87855670Y-59452709D01*
X87911137Y-59586621D01*
X87911142Y-59586630D01*
X87971041Y-59664690D01*
X87991466Y-59722365D01*
X87991500Y-59724958D01*
X87991500Y-60118098D01*
X87972593Y-60176289D01*
X87962504Y-60188102D01*
X87437504Y-60713102D01*
X87382987Y-60740879D01*
X87322555Y-60731308D01*
X87279290Y-60688043D01*
X87268500Y-60643098D01*
X87268500Y-59724958D01*
X87287407Y-59666767D01*
X87288959Y-59664690D01*
X87348857Y-59586630D01*
X87348856Y-59586630D01*
X87348861Y-59586625D01*
X87404330Y-59452709D01*
X87423250Y-59309000D01*
X87404330Y-59165291D01*
X87348861Y-59031375D01*
X87260621Y-58916379D01*
X87145625Y-58828139D01*
X87145621Y-58828137D01*
X87011709Y-58772670D01*
X87011708Y-58772669D01*
X86868000Y-58753750D01*
X86724291Y-58772669D01*
X86724290Y-58772670D01*
X86590378Y-58828137D01*
X86590374Y-58828139D01*
X86475381Y-58916377D01*
X86475377Y-58916381D01*
X86387139Y-59031374D01*
X86387137Y-59031378D01*
X86331670Y-59165290D01*
X86331669Y-59165291D01*
X86312750Y-59308999D01*
X86312750Y-59309000D01*
X86331669Y-59452708D01*
X86331670Y-59452709D01*
X86387137Y-59586621D01*
X86387142Y-59586630D01*
X86447041Y-59664690D01*
X86467466Y-59722365D01*
X86467500Y-59724958D01*
X86467500Y-61278099D01*
X86448593Y-61336290D01*
X86399093Y-61372254D01*
X86337907Y-61372254D01*
X86298496Y-61348103D01*
X85773496Y-60823103D01*
X85745719Y-60768586D01*
X85744500Y-60753099D01*
X85744500Y-59724958D01*
X85763407Y-59666767D01*
X85764959Y-59664690D01*
X85824857Y-59586630D01*
X85824856Y-59586630D01*
X85824861Y-59586625D01*
X85880330Y-59452709D01*
X85899250Y-59309000D01*
X85880330Y-59165291D01*
X85824861Y-59031375D01*
X85736621Y-58916379D01*
X85621625Y-58828139D01*
X85621621Y-58828137D01*
X85487709Y-58772670D01*
X85487708Y-58772669D01*
X85344000Y-58753750D01*
X85200291Y-58772669D01*
X85200290Y-58772670D01*
X85066378Y-58828137D01*
X85066374Y-58828139D01*
X84951381Y-58916377D01*
X84951377Y-58916381D01*
X84863139Y-59031374D01*
X84863137Y-59031378D01*
X84807670Y-59165290D01*
X84807669Y-59165291D01*
X84788750Y-59308999D01*
X84788750Y-59309000D01*
X84807669Y-59452708D01*
X84807670Y-59452709D01*
X84863137Y-59586621D01*
X84863142Y-59586630D01*
X84923041Y-59664690D01*
X84943466Y-59722365D01*
X84943500Y-59724958D01*
X84943500Y-61023437D01*
X84950953Y-61046374D01*
X84954579Y-61061474D01*
X84958354Y-61085306D01*
X84969301Y-61106788D01*
X84975247Y-61121142D01*
X84982703Y-61144088D01*
X84982702Y-61144088D01*
X84996884Y-61163608D01*
X85004997Y-61176847D01*
X85015950Y-61198342D01*
X85015951Y-61198343D01*
X85036031Y-61218424D01*
X85038515Y-61220908D01*
X85038516Y-61220909D01*
X85938505Y-62120898D01*
X85966281Y-62175413D01*
X85967500Y-62190900D01*
X85967500Y-71413099D01*
X85948593Y-71471290D01*
X85938503Y-71483103D01*
X85608929Y-71812676D01*
X85554413Y-71840453D01*
X85551849Y-71840825D01*
X85454290Y-71853670D01*
X85320378Y-71909137D01*
X85320374Y-71909139D01*
X85205381Y-71997377D01*
X85205377Y-71997381D01*
X85117139Y-72112374D01*
X85117138Y-72112375D01*
X85066603Y-72234380D01*
X85029567Y-72277742D01*
X85047124Y-72306393D01*
X85049013Y-72342427D01*
X85042750Y-72389999D01*
X85042750Y-72390000D01*
X85061669Y-72533708D01*
X85061670Y-72533709D01*
X85106290Y-72641434D01*
X85111090Y-72702431D01*
X85079121Y-72754600D01*
X85022592Y-72778014D01*
X84963098Y-72763730D01*
X84944822Y-72749323D01*
X84783531Y-72588032D01*
X84755754Y-72533515D01*
X84765325Y-72473083D01*
X84774987Y-72457768D01*
X84808861Y-72413625D01*
X84859396Y-72291619D01*
X84896431Y-72248255D01*
X84878874Y-72219605D01*
X84876986Y-72183576D01*
X84883250Y-72136000D01*
X84864330Y-71992291D01*
X84808861Y-71858375D01*
X84720621Y-71743379D01*
X84605625Y-71655139D01*
X84605621Y-71655137D01*
X84471709Y-71599670D01*
X84471708Y-71599669D01*
X84328000Y-71580750D01*
X84184291Y-71599669D01*
X84184290Y-71599670D01*
X84050378Y-71655137D01*
X84050374Y-71655139D01*
X83935381Y-71743377D01*
X83935377Y-71743381D01*
X83847139Y-71858374D01*
X83847137Y-71858378D01*
X83791670Y-71992290D01*
X83791669Y-71992294D01*
X83791151Y-71996228D01*
X83764804Y-72051450D01*
X83711030Y-72080640D01*
X83650369Y-72072648D01*
X83605991Y-72030526D01*
X83594846Y-71996214D01*
X83594330Y-71992291D01*
X83538861Y-71858375D01*
X83450621Y-71743379D01*
X83335625Y-71655139D01*
X83335621Y-71655137D01*
X83201709Y-71599670D01*
X83201708Y-71599669D01*
X83058000Y-71580750D01*
X82914291Y-71599669D01*
X82914290Y-71599670D01*
X82780378Y-71655137D01*
X82780374Y-71655139D01*
X82665381Y-71743377D01*
X82665377Y-71743381D01*
X82577139Y-71858374D01*
X82577137Y-71858378D01*
X82521670Y-71992290D01*
X82521669Y-71992291D01*
X82502750Y-72135998D01*
X82502750Y-72136000D01*
X82521670Y-72279709D01*
X82540803Y-72325900D01*
X82555182Y-72360615D01*
X82559982Y-72421612D01*
X82528013Y-72473781D01*
X82471485Y-72497195D01*
X82463718Y-72497500D01*
X79917960Y-72497500D01*
X79859769Y-72478593D01*
X79857693Y-72477042D01*
X79779629Y-72417142D01*
X79779628Y-72417141D01*
X79779625Y-72417139D01*
X79779622Y-72417138D01*
X79779621Y-72417137D01*
X79645709Y-72361670D01*
X79645708Y-72361669D01*
X79502000Y-72342750D01*
X79358291Y-72361669D01*
X79358290Y-72361670D01*
X79224378Y-72417137D01*
X79224374Y-72417139D01*
X79109381Y-72505377D01*
X79109377Y-72505381D01*
X79021139Y-72620374D01*
X79021137Y-72620378D01*
X78965670Y-72754290D01*
X78965669Y-72754291D01*
X78946750Y-72897999D01*
X78946750Y-72898000D01*
X78965669Y-73041708D01*
X78965670Y-73041709D01*
X79021139Y-73175625D01*
X79109379Y-73290621D01*
X79224375Y-73378861D01*
X79358291Y-73434330D01*
X79502000Y-73453250D01*
X79645709Y-73434330D01*
X79779625Y-73378861D01*
X79817934Y-73349464D01*
X79857693Y-73318958D01*
X79915369Y-73298534D01*
X79917960Y-73298500D01*
X82851099Y-73298500D01*
X82909290Y-73317407D01*
X82921103Y-73327496D01*
X84216004Y-74622397D01*
X84243781Y-74676914D01*
X84245000Y-74692401D01*
X84245000Y-74831540D01*
X84226093Y-74889731D01*
X84224542Y-74891807D01*
X84164642Y-74969870D01*
X84164637Y-74969878D01*
X84109170Y-75103790D01*
X84109169Y-75103791D01*
X84090250Y-75247499D01*
X84090250Y-75247500D01*
X84109169Y-75391208D01*
X84109170Y-75391209D01*
X84164639Y-75525125D01*
X84252879Y-75640121D01*
X84367875Y-75728361D01*
X84501791Y-75783830D01*
X84645500Y-75802750D01*
X84789209Y-75783830D01*
X84923125Y-75728361D01*
X85038121Y-75640121D01*
X85126361Y-75525125D01*
X85181830Y-75391209D01*
X85200750Y-75247500D01*
X85190328Y-75168342D01*
X85181830Y-75103791D01*
X85176023Y-75089772D01*
X85171222Y-75028776D01*
X85203192Y-74976607D01*
X85259720Y-74953192D01*
X85319215Y-74967476D01*
X85337491Y-74981883D01*
X85438504Y-75082896D01*
X85466281Y-75137413D01*
X85467500Y-75152900D01*
X85467500Y-83833887D01*
X85448593Y-83892078D01*
X85438504Y-83903891D01*
X82996335Y-86346059D01*
X82941818Y-86373836D01*
X82881386Y-86364265D01*
X82838121Y-86321000D01*
X82832177Y-86306648D01*
X82824045Y-86281621D01*
X82820418Y-86266514D01*
X82816646Y-86242696D01*
X82816644Y-86242693D01*
X82816644Y-86242691D01*
X82805694Y-86221201D01*
X82799748Y-86206847D01*
X82792296Y-86183910D01*
X82792293Y-86183906D01*
X82792293Y-86183905D01*
X82778119Y-86164398D01*
X82770001Y-86151152D01*
X82759050Y-86129658D01*
X82757887Y-86128495D01*
X82669342Y-86039949D01*
X80141424Y-83512031D01*
X80121343Y-83491951D01*
X80121342Y-83491950D01*
X80099847Y-83480997D01*
X80086608Y-83472884D01*
X80075786Y-83465022D01*
X80067090Y-83458704D01*
X80067088Y-83458703D01*
X80044142Y-83451247D01*
X80029788Y-83445301D01*
X80008306Y-83434354D01*
X79984474Y-83430579D01*
X79969374Y-83426953D01*
X79946437Y-83419500D01*
X79946433Y-83419500D01*
X79914519Y-83419500D01*
X73481258Y-83419500D01*
X73423067Y-83400593D01*
X73392637Y-83364628D01*
X73379944Y-83339137D01*
X73329673Y-83238179D01*
X73206764Y-83075421D01*
X73056041Y-82938019D01*
X72882637Y-82830652D01*
X72692456Y-82756976D01*
X72692455Y-82756975D01*
X72692453Y-82756975D01*
X72491976Y-82719500D01*
X72288024Y-82719500D01*
X72087546Y-82756975D01*
X72017632Y-82784059D01*
X71897363Y-82830652D01*
X71773451Y-82907375D01*
X71723959Y-82938019D01*
X71573237Y-83075420D01*
X71450328Y-83238177D01*
X71450323Y-83238186D01*
X71412260Y-83314628D01*
X71369397Y-83358291D01*
X71323639Y-83369500D01*
X70916361Y-83369500D01*
X70858170Y-83350593D01*
X70827740Y-83314628D01*
X70812325Y-83283670D01*
X70789673Y-83238179D01*
X70666764Y-83075421D01*
X70516041Y-82938019D01*
X70342637Y-82830652D01*
X70152456Y-82756976D01*
X70152455Y-82756975D01*
X70152453Y-82756975D01*
X69951976Y-82719500D01*
X69748024Y-82719500D01*
X69547546Y-82756975D01*
X69477632Y-82784059D01*
X69357363Y-82830652D01*
X69233451Y-82907375D01*
X69183959Y-82938019D01*
X69033237Y-83075420D01*
X68910328Y-83238177D01*
X68910323Y-83238186D01*
X68827896Y-83403723D01*
X68819418Y-83420750D01*
X68763603Y-83616917D01*
X68744785Y-83820000D01*
X65849033Y-83820000D01*
X65840663Y-83816097D01*
X65612408Y-83754937D01*
X65612407Y-83754936D01*
X65612400Y-83754935D01*
X65377004Y-83734341D01*
X65376996Y-83734341D01*
X65141599Y-83754935D01*
X64913332Y-83816098D01*
X64699181Y-83915959D01*
X64699173Y-83915963D01*
X64505603Y-84051501D01*
X64338501Y-84218603D01*
X64202963Y-84412173D01*
X64202959Y-84412181D01*
X64103098Y-84626332D01*
X64041935Y-84854599D01*
X64021341Y-85089995D01*
X64021341Y-85090004D01*
X64041935Y-85325400D01*
X64041936Y-85325407D01*
X64041937Y-85325408D01*
X64046951Y-85344124D01*
X64043749Y-85405224D01*
X64021329Y-85439749D01*
X61916564Y-87544514D01*
X61872183Y-87570137D01*
X61663333Y-87626098D01*
X61449181Y-87725959D01*
X61449173Y-87725963D01*
X61255603Y-87861501D01*
X61088501Y-88028603D01*
X60952963Y-88222173D01*
X60952959Y-88222181D01*
X60853098Y-88436332D01*
X60791935Y-88664599D01*
X60771341Y-88899995D01*
X60771341Y-88900004D01*
X59715500Y-88900004D01*
X59715500Y-85089999D01*
X60472202Y-85089999D01*
X60491361Y-85321220D01*
X60548318Y-85546137D01*
X60641517Y-85758609D01*
X60725812Y-85887632D01*
X61351070Y-85262374D01*
X61353884Y-85275915D01*
X61423442Y-85410156D01*
X61526638Y-85520652D01*
X61655819Y-85599209D01*
X61707002Y-85613550D01*
X61078200Y-86242352D01*
X61108646Y-86266049D01*
X61312695Y-86376475D01*
X61532145Y-86451812D01*
X61760993Y-86490000D01*
X61993007Y-86490000D01*
X62221854Y-86451812D01*
X62441304Y-86376475D01*
X62645352Y-86266049D01*
X62645356Y-86266046D01*
X62675798Y-86242352D01*
X62675798Y-86242351D01*
X62048568Y-85615121D01*
X62165458Y-85564349D01*
X62282739Y-85468934D01*
X62369928Y-85345415D01*
X62400355Y-85259801D01*
X63028187Y-85887633D01*
X63112480Y-85758614D01*
X63112485Y-85758605D01*
X63205679Y-85546140D01*
X63205680Y-85546137D01*
X63262638Y-85321220D01*
X63281797Y-85089999D01*
X63262638Y-84858779D01*
X63205680Y-84633862D01*
X63205679Y-84633859D01*
X63112485Y-84421394D01*
X63112480Y-84421385D01*
X63028187Y-84292365D01*
X62402929Y-84917622D01*
X62400116Y-84904085D01*
X62330558Y-84769844D01*
X62227362Y-84659348D01*
X62098181Y-84580791D01*
X62046994Y-84566449D01*
X62675798Y-83937646D01*
X62675798Y-83937645D01*
X62645362Y-83913956D01*
X62645353Y-83913951D01*
X62441304Y-83803524D01*
X62221854Y-83728187D01*
X61993007Y-83690000D01*
X61760993Y-83690000D01*
X61532145Y-83728187D01*
X61312695Y-83803524D01*
X61108647Y-83913950D01*
X61108647Y-83913951D01*
X61078200Y-83937646D01*
X61705432Y-84564878D01*
X61588542Y-84615651D01*
X61471261Y-84711066D01*
X61384072Y-84834585D01*
X61353645Y-84920197D01*
X60725812Y-84292364D01*
X60725811Y-84292365D01*
X60641518Y-84421388D01*
X60641516Y-84421391D01*
X60548318Y-84633862D01*
X60491361Y-84858779D01*
X60472202Y-85089999D01*
X59715500Y-85089999D01*
X59715500Y-81280000D01*
X68744785Y-81280000D01*
X68763603Y-81483083D01*
X68819418Y-81679250D01*
X68910327Y-81861821D01*
X69033236Y-82024579D01*
X69183959Y-82161981D01*
X69357363Y-82269348D01*
X69547544Y-82343024D01*
X69748024Y-82380500D01*
X69951976Y-82380500D01*
X70152456Y-82343024D01*
X70342637Y-82269348D01*
X70516041Y-82161981D01*
X70666764Y-82024579D01*
X70789673Y-81861821D01*
X70827740Y-81785371D01*
X70870603Y-81741709D01*
X70916361Y-81730500D01*
X71323639Y-81730500D01*
X71381830Y-81749407D01*
X71412259Y-81785371D01*
X71450327Y-81861821D01*
X71573236Y-82024579D01*
X71723959Y-82161981D01*
X71897363Y-82269348D01*
X72087544Y-82343024D01*
X72288024Y-82380500D01*
X72491976Y-82380500D01*
X72692456Y-82343024D01*
X72882637Y-82269348D01*
X73056041Y-82161981D01*
X73206764Y-82024579D01*
X73329673Y-81861821D01*
X73420582Y-81679250D01*
X73476397Y-81483083D01*
X73495215Y-81280000D01*
X73476397Y-81076917D01*
X73420582Y-80880750D01*
X73329673Y-80698179D01*
X73206764Y-80535421D01*
X73056041Y-80398019D01*
X72882637Y-80290652D01*
X72692456Y-80216976D01*
X72692455Y-80216975D01*
X72692453Y-80216975D01*
X72491976Y-80179500D01*
X72288024Y-80179500D01*
X72087546Y-80216975D01*
X72017632Y-80244059D01*
X71897363Y-80290652D01*
X71766789Y-80371500D01*
X71723959Y-80398019D01*
X71573237Y-80535420D01*
X71450328Y-80698177D01*
X71450323Y-80698186D01*
X71412260Y-80774628D01*
X71369397Y-80818291D01*
X71323639Y-80829500D01*
X70916361Y-80829500D01*
X70858170Y-80810593D01*
X70827740Y-80774628D01*
X70789676Y-80698186D01*
X70789673Y-80698179D01*
X70666764Y-80535421D01*
X70516041Y-80398019D01*
X70342637Y-80290652D01*
X70152456Y-80216976D01*
X70152455Y-80216975D01*
X70152453Y-80216975D01*
X69951976Y-80179500D01*
X69748024Y-80179500D01*
X69547546Y-80216975D01*
X69477632Y-80244059D01*
X69357363Y-80290652D01*
X69226789Y-80371500D01*
X69183959Y-80398019D01*
X69033237Y-80535420D01*
X68910328Y-80698177D01*
X68910323Y-80698186D01*
X68820040Y-80879500D01*
X68819418Y-80880750D01*
X68763603Y-81076917D01*
X68744785Y-81280000D01*
X59715500Y-81280000D01*
X59715500Y-78740000D01*
X68744785Y-78740000D01*
X68763603Y-78943083D01*
X68819418Y-79139250D01*
X68910327Y-79321821D01*
X69033236Y-79484579D01*
X69183959Y-79621981D01*
X69357363Y-79729348D01*
X69547544Y-79803024D01*
X69748024Y-79840500D01*
X69951976Y-79840500D01*
X70152456Y-79803024D01*
X70342637Y-79729348D01*
X70516041Y-79621981D01*
X70666764Y-79484579D01*
X70789673Y-79321821D01*
X70827740Y-79245371D01*
X70870603Y-79201709D01*
X70916361Y-79190500D01*
X71323639Y-79190500D01*
X71381830Y-79209407D01*
X71412259Y-79245371D01*
X71450327Y-79321821D01*
X71573236Y-79484579D01*
X71723959Y-79621981D01*
X71897363Y-79729348D01*
X72087544Y-79803024D01*
X72288024Y-79840500D01*
X72491976Y-79840500D01*
X72692456Y-79803024D01*
X72882637Y-79729348D01*
X73056041Y-79621981D01*
X73187654Y-79502000D01*
X79200750Y-79502000D01*
X79219669Y-79645708D01*
X79219670Y-79645709D01*
X79273022Y-79774516D01*
X79275139Y-79779625D01*
X79363379Y-79894621D01*
X79478375Y-79982861D01*
X79612291Y-80038330D01*
X79756000Y-80057250D01*
X79899709Y-80038330D01*
X80033625Y-79982861D01*
X80076432Y-79950014D01*
X80111693Y-79922958D01*
X80169369Y-79902534D01*
X80171960Y-79902500D01*
X81200099Y-79902500D01*
X81258290Y-79921407D01*
X81270103Y-79931496D01*
X81288621Y-79950014D01*
X81316398Y-80004531D01*
X81306827Y-80064963D01*
X81263562Y-80108228D01*
X81256502Y-80111482D01*
X81129378Y-80164137D01*
X81129374Y-80164139D01*
X81014381Y-80252377D01*
X81014377Y-80252381D01*
X80926139Y-80367374D01*
X80926137Y-80367378D01*
X80870670Y-80501290D01*
X80870669Y-80501291D01*
X80851750Y-80644999D01*
X80851750Y-80645000D01*
X80870669Y-80788708D01*
X80870670Y-80788709D01*
X80919704Y-80907091D01*
X80926139Y-80922625D01*
X81014379Y-81037621D01*
X81129375Y-81125861D01*
X81263291Y-81181330D01*
X81360848Y-81194173D01*
X81416072Y-81220514D01*
X81417929Y-81222322D01*
X81500504Y-81304897D01*
X81528281Y-81359414D01*
X81529500Y-81374901D01*
X81529500Y-82501437D01*
X81536953Y-82524374D01*
X81540579Y-82539474D01*
X81544354Y-82563306D01*
X81555301Y-82584788D01*
X81561247Y-82599142D01*
X81568703Y-82622088D01*
X81568702Y-82622088D01*
X81582884Y-82641608D01*
X81590997Y-82654847D01*
X81601950Y-82676342D01*
X81601951Y-82676343D01*
X81622031Y-82696424D01*
X81624515Y-82698908D01*
X81624516Y-82698909D01*
X82186654Y-83261047D01*
X82734676Y-83809068D01*
X82762453Y-83863585D01*
X82762825Y-83866149D01*
X82773350Y-83946086D01*
X82775670Y-83963709D01*
X82831139Y-84097625D01*
X82919379Y-84212621D01*
X83034375Y-84300861D01*
X83168291Y-84356330D01*
X83312000Y-84375250D01*
X83455709Y-84356330D01*
X83589625Y-84300861D01*
X83704621Y-84212621D01*
X83792861Y-84097625D01*
X83848330Y-83963709D01*
X83867250Y-83820000D01*
X83862060Y-83780582D01*
X83848330Y-83676291D01*
X83792861Y-83542375D01*
X83704621Y-83427379D01*
X83589625Y-83339139D01*
X83589621Y-83339137D01*
X83455709Y-83283670D01*
X83358149Y-83270825D01*
X83302924Y-83244483D01*
X83301068Y-83242676D01*
X82359496Y-82301103D01*
X82331719Y-82246586D01*
X82330500Y-82231099D01*
X82330500Y-81230900D01*
X82349407Y-81172709D01*
X82398907Y-81136745D01*
X82460093Y-81136745D01*
X82499502Y-81160894D01*
X83017858Y-81679250D01*
X83877676Y-82539068D01*
X83905453Y-82593585D01*
X83905825Y-82596149D01*
X83918670Y-82693709D01*
X83959540Y-82792381D01*
X83974139Y-82827625D01*
X84062379Y-82942621D01*
X84177375Y-83030861D01*
X84311291Y-83086330D01*
X84455000Y-83105250D01*
X84598709Y-83086330D01*
X84732625Y-83030861D01*
X84847621Y-82942621D01*
X84935861Y-82827625D01*
X84991330Y-82693709D01*
X85010250Y-82550000D01*
X85003856Y-82501437D01*
X84991330Y-82406291D01*
X84935861Y-82272375D01*
X84847621Y-82157379D01*
X84732625Y-82069139D01*
X84732621Y-82069137D01*
X84598709Y-82013670D01*
X84501149Y-82000825D01*
X84445924Y-81974483D01*
X84444068Y-81972676D01*
X83331985Y-80860593D01*
X82175909Y-79704516D01*
X82175908Y-79704515D01*
X81665424Y-79194031D01*
X81645343Y-79173951D01*
X81645342Y-79173950D01*
X81623847Y-79162997D01*
X81610608Y-79154884D01*
X81604581Y-79150505D01*
X81591090Y-79140704D01*
X81591088Y-79140703D01*
X81568142Y-79133247D01*
X81553788Y-79127301D01*
X81532306Y-79116354D01*
X81508474Y-79112579D01*
X81493374Y-79108953D01*
X81470437Y-79101500D01*
X81470433Y-79101500D01*
X81438519Y-79101500D01*
X80171960Y-79101500D01*
X80113769Y-79082593D01*
X80111693Y-79081042D01*
X80033629Y-79021142D01*
X80033628Y-79021141D01*
X80033625Y-79021139D01*
X80033622Y-79021138D01*
X80033621Y-79021137D01*
X79899709Y-78965670D01*
X79899708Y-78965669D01*
X79756000Y-78946750D01*
X79612291Y-78965669D01*
X79612290Y-78965670D01*
X79478378Y-79021137D01*
X79478374Y-79021139D01*
X79363381Y-79109377D01*
X79363377Y-79109381D01*
X79275139Y-79224374D01*
X79275137Y-79224378D01*
X79219670Y-79358290D01*
X79219669Y-79358291D01*
X79200750Y-79501999D01*
X79200750Y-79502000D01*
X73187654Y-79502000D01*
X73206764Y-79484579D01*
X73329673Y-79321821D01*
X73420582Y-79139250D01*
X73476397Y-78943083D01*
X73495215Y-78740000D01*
X81740750Y-78740000D01*
X81759669Y-78883708D01*
X81759670Y-78883709D01*
X81815139Y-79017625D01*
X81903379Y-79132621D01*
X82018375Y-79220861D01*
X82152291Y-79276330D01*
X82296000Y-79295250D01*
X82439709Y-79276330D01*
X82573625Y-79220861D01*
X82688621Y-79132621D01*
X82776861Y-79017625D01*
X82832330Y-78883709D01*
X82851250Y-78740000D01*
X82832330Y-78596291D01*
X82776861Y-78462375D01*
X82688621Y-78347379D01*
X82573625Y-78259139D01*
X82573621Y-78259137D01*
X82439709Y-78203670D01*
X82439708Y-78203669D01*
X82296000Y-78184750D01*
X82152291Y-78203669D01*
X82152290Y-78203670D01*
X82018378Y-78259137D01*
X82018374Y-78259139D01*
X81903381Y-78347377D01*
X81903377Y-78347381D01*
X81815139Y-78462374D01*
X81815137Y-78462378D01*
X81759670Y-78596290D01*
X81759669Y-78596291D01*
X81740750Y-78739999D01*
X81740750Y-78740000D01*
X73495215Y-78740000D01*
X73476397Y-78536917D01*
X73420582Y-78340750D01*
X73329673Y-78158179D01*
X73206764Y-77995421D01*
X73056041Y-77858019D01*
X72882637Y-77750652D01*
X72692456Y-77676976D01*
X72692455Y-77676975D01*
X72692453Y-77676975D01*
X72491976Y-77639500D01*
X72288024Y-77639500D01*
X72087546Y-77676975D01*
X72017632Y-77704059D01*
X71897363Y-77750652D01*
X71723959Y-77858019D01*
X71573237Y-77995420D01*
X71450328Y-78158177D01*
X71450323Y-78158186D01*
X71412260Y-78234628D01*
X71369397Y-78278291D01*
X71323639Y-78289500D01*
X70916361Y-78289500D01*
X70858170Y-78270593D01*
X70827740Y-78234628D01*
X70812324Y-78203669D01*
X70789673Y-78158179D01*
X70666764Y-77995421D01*
X70516041Y-77858019D01*
X70342637Y-77750652D01*
X70152456Y-77676976D01*
X70152455Y-77676975D01*
X70152453Y-77676975D01*
X69951976Y-77639500D01*
X69748024Y-77639500D01*
X69547546Y-77676975D01*
X69477632Y-77704059D01*
X69357363Y-77750652D01*
X69183958Y-77858019D01*
X69183959Y-77858019D01*
X69033237Y-77995420D01*
X68910328Y-78158177D01*
X68910323Y-78158186D01*
X68820040Y-78339500D01*
X68819418Y-78340750D01*
X68763603Y-78536917D01*
X68744785Y-78740000D01*
X59715500Y-78740000D01*
X59715500Y-76200000D01*
X68744785Y-76200000D01*
X68763603Y-76403083D01*
X68819418Y-76599250D01*
X68910327Y-76781821D01*
X69033236Y-76944579D01*
X69183959Y-77081981D01*
X69357363Y-77189348D01*
X69547544Y-77263024D01*
X69748024Y-77300500D01*
X69951976Y-77300500D01*
X70152456Y-77263024D01*
X70342637Y-77189348D01*
X70516041Y-77081981D01*
X70666764Y-76944579D01*
X70789673Y-76781821D01*
X70827740Y-76705371D01*
X70870603Y-76661709D01*
X70916361Y-76650500D01*
X71323639Y-76650500D01*
X71381830Y-76669407D01*
X71412259Y-76705371D01*
X71450327Y-76781821D01*
X71573236Y-76944579D01*
X71723959Y-77081981D01*
X71897363Y-77189348D01*
X72087544Y-77263024D01*
X72288024Y-77300500D01*
X72491976Y-77300500D01*
X72692456Y-77263024D01*
X72882637Y-77189348D01*
X73056041Y-77081981D01*
X73206764Y-76944579D01*
X73329673Y-76781821D01*
X73420582Y-76599250D01*
X73476397Y-76403083D01*
X73495215Y-76200000D01*
X73476397Y-75996917D01*
X73420582Y-75800750D01*
X73329673Y-75618179D01*
X73206764Y-75455421D01*
X73056041Y-75318019D01*
X72882637Y-75210652D01*
X72692456Y-75136976D01*
X72692455Y-75136975D01*
X72692453Y-75136975D01*
X72491976Y-75099500D01*
X72288024Y-75099500D01*
X72087546Y-75136975D01*
X72065334Y-75145580D01*
X71897363Y-75210652D01*
X71727792Y-75315646D01*
X71723959Y-75318019D01*
X71573237Y-75455420D01*
X71450328Y-75618177D01*
X71450323Y-75618186D01*
X71412260Y-75694628D01*
X71369397Y-75738291D01*
X71323639Y-75749500D01*
X70916361Y-75749500D01*
X70858170Y-75730593D01*
X70827740Y-75694628D01*
X70800599Y-75640122D01*
X70789673Y-75618179D01*
X70666764Y-75455421D01*
X70516041Y-75318019D01*
X70342637Y-75210652D01*
X70152456Y-75136976D01*
X70152455Y-75136975D01*
X70152453Y-75136975D01*
X69951976Y-75099500D01*
X69748024Y-75099500D01*
X69547546Y-75136975D01*
X69525334Y-75145580D01*
X69357363Y-75210652D01*
X69187792Y-75315646D01*
X69183959Y-75318019D01*
X69033237Y-75455420D01*
X68910328Y-75618177D01*
X68910323Y-75618186D01*
X68827843Y-75783830D01*
X68819418Y-75800750D01*
X68763603Y-75996917D01*
X68744785Y-76200000D01*
X59715500Y-76200000D01*
X59715500Y-73660000D01*
X68744785Y-73660000D01*
X68763603Y-73863083D01*
X68819418Y-74059250D01*
X68910327Y-74241821D01*
X69033236Y-74404579D01*
X69183959Y-74541981D01*
X69357363Y-74649348D01*
X69547544Y-74723024D01*
X69748024Y-74760500D01*
X69951976Y-74760500D01*
X70152456Y-74723024D01*
X70342637Y-74649348D01*
X70516041Y-74541981D01*
X70666764Y-74404579D01*
X70789673Y-74241821D01*
X70827740Y-74165371D01*
X70870603Y-74121709D01*
X70916361Y-74110500D01*
X71323639Y-74110500D01*
X71381830Y-74129407D01*
X71412259Y-74165371D01*
X71450327Y-74241821D01*
X71573236Y-74404579D01*
X71723959Y-74541981D01*
X71897363Y-74649348D01*
X72087544Y-74723024D01*
X72288024Y-74760500D01*
X72491976Y-74760500D01*
X72692456Y-74723024D01*
X72882637Y-74649348D01*
X73056041Y-74541981D01*
X73187654Y-74422000D01*
X80470750Y-74422000D01*
X80489669Y-74565708D01*
X80489670Y-74565709D01*
X80542146Y-74692401D01*
X80545139Y-74699625D01*
X80633379Y-74814621D01*
X80748375Y-74902861D01*
X80882291Y-74958330D01*
X81026000Y-74977250D01*
X81079974Y-74970143D01*
X81140132Y-74981292D01*
X81162899Y-74998292D01*
X82607676Y-76443069D01*
X82635453Y-76497586D01*
X82635825Y-76500150D01*
X82648670Y-76597708D01*
X82648670Y-76597709D01*
X82704139Y-76731625D01*
X82792379Y-76846621D01*
X82907375Y-76934861D01*
X83041291Y-76990330D01*
X83185000Y-77009250D01*
X83328709Y-76990330D01*
X83462625Y-76934861D01*
X83577621Y-76846621D01*
X83665861Y-76731625D01*
X83721330Y-76597709D01*
X83740250Y-76454000D01*
X83721330Y-76310291D01*
X83665861Y-76176375D01*
X83577621Y-76061379D01*
X83462625Y-75973139D01*
X83462621Y-75973137D01*
X83328709Y-75917670D01*
X83231150Y-75904825D01*
X83175925Y-75878483D01*
X83174069Y-75876676D01*
X81566810Y-74269417D01*
X81545350Y-74237298D01*
X81506862Y-74144378D01*
X81506861Y-74144375D01*
X81455019Y-74076814D01*
X81418625Y-74029384D01*
X81418624Y-74029383D01*
X81418621Y-74029379D01*
X81303625Y-73941139D01*
X81303621Y-73941137D01*
X81169709Y-73885670D01*
X81169708Y-73885669D01*
X81026000Y-73866750D01*
X80882291Y-73885669D01*
X80882290Y-73885670D01*
X80748378Y-73941137D01*
X80748374Y-73941139D01*
X80633381Y-74029377D01*
X80633377Y-74029381D01*
X80545139Y-74144374D01*
X80545137Y-74144378D01*
X80489670Y-74278290D01*
X80489669Y-74278291D01*
X80470750Y-74421999D01*
X80470750Y-74422000D01*
X73187654Y-74422000D01*
X73206764Y-74404579D01*
X73329673Y-74241821D01*
X73420582Y-74059250D01*
X73476397Y-73863083D01*
X73495215Y-73660000D01*
X73476397Y-73456917D01*
X73420582Y-73260750D01*
X73329673Y-73078179D01*
X73206764Y-72915421D01*
X73056041Y-72778019D01*
X72882637Y-72670652D01*
X72692456Y-72596976D01*
X72692455Y-72596975D01*
X72692453Y-72596975D01*
X72491976Y-72559500D01*
X72288024Y-72559500D01*
X72087546Y-72596975D01*
X72027146Y-72620374D01*
X71897363Y-72670652D01*
X71770305Y-72749323D01*
X71723959Y-72778019D01*
X71573237Y-72915420D01*
X71450328Y-73078177D01*
X71450323Y-73078186D01*
X71412260Y-73154628D01*
X71369397Y-73198291D01*
X71323639Y-73209500D01*
X70916361Y-73209500D01*
X70858170Y-73190593D01*
X70827740Y-73154628D01*
X70789676Y-73078186D01*
X70789673Y-73078179D01*
X70666764Y-72915421D01*
X70516041Y-72778019D01*
X70342637Y-72670652D01*
X70152456Y-72596976D01*
X70152455Y-72596975D01*
X70152453Y-72596975D01*
X69951976Y-72559500D01*
X69748024Y-72559500D01*
X69547546Y-72596975D01*
X69487146Y-72620374D01*
X69357363Y-72670652D01*
X69230305Y-72749323D01*
X69183959Y-72778019D01*
X69033237Y-72915420D01*
X68910328Y-73078177D01*
X68910323Y-73078186D01*
X68844937Y-73209500D01*
X68819418Y-73260750D01*
X68763603Y-73456917D01*
X68744785Y-73660000D01*
X59715500Y-73660000D01*
X59715500Y-71120000D01*
X68744785Y-71120000D01*
X68763603Y-71323083D01*
X68819418Y-71519250D01*
X68910327Y-71701821D01*
X69033236Y-71864579D01*
X69183959Y-72001981D01*
X69357363Y-72109348D01*
X69547544Y-72183024D01*
X69748024Y-72220500D01*
X69951976Y-72220500D01*
X70152456Y-72183024D01*
X70342637Y-72109348D01*
X70516041Y-72001981D01*
X70666764Y-71864579D01*
X70789673Y-71701821D01*
X70827740Y-71625371D01*
X70870603Y-71581709D01*
X70916361Y-71570500D01*
X71323639Y-71570500D01*
X71381830Y-71589407D01*
X71412259Y-71625371D01*
X71450327Y-71701821D01*
X71573236Y-71864579D01*
X71723959Y-72001981D01*
X71897363Y-72109348D01*
X72087544Y-72183024D01*
X72288024Y-72220500D01*
X72491976Y-72220500D01*
X72692456Y-72183024D01*
X72882637Y-72109348D01*
X73056041Y-72001981D01*
X73206764Y-71864579D01*
X73329673Y-71701821D01*
X73420582Y-71519250D01*
X73476397Y-71323083D01*
X73495215Y-71120000D01*
X73476397Y-70916917D01*
X73420582Y-70720750D01*
X73329673Y-70538179D01*
X73206764Y-70375421D01*
X73056041Y-70238019D01*
X72882637Y-70130652D01*
X72692456Y-70056976D01*
X72692455Y-70056975D01*
X72692453Y-70056975D01*
X72491976Y-70019500D01*
X72288024Y-70019500D01*
X72087546Y-70056975D01*
X72017632Y-70084059D01*
X71897363Y-70130652D01*
X71723958Y-70238019D01*
X71723959Y-70238019D01*
X71573237Y-70375420D01*
X71450328Y-70538177D01*
X71450323Y-70538186D01*
X71412260Y-70614628D01*
X71369397Y-70658291D01*
X71323639Y-70669500D01*
X70916361Y-70669500D01*
X70858170Y-70650593D01*
X70827740Y-70614628D01*
X70789676Y-70538186D01*
X70789673Y-70538179D01*
X70666764Y-70375421D01*
X70516041Y-70238019D01*
X70342637Y-70130652D01*
X70152456Y-70056976D01*
X70152455Y-70056975D01*
X70152453Y-70056975D01*
X69951976Y-70019500D01*
X69748024Y-70019500D01*
X69547546Y-70056975D01*
X69477632Y-70084059D01*
X69357363Y-70130652D01*
X69183958Y-70238019D01*
X69183959Y-70238019D01*
X69033237Y-70375420D01*
X68910328Y-70538177D01*
X68910323Y-70538186D01*
X68819419Y-70720747D01*
X68819418Y-70720750D01*
X68763603Y-70916917D01*
X68744785Y-71120000D01*
X59715500Y-71120000D01*
X59715500Y-68580000D01*
X68744785Y-68580000D01*
X68763603Y-68783083D01*
X68819418Y-68979250D01*
X68910327Y-69161821D01*
X69033236Y-69324579D01*
X69183959Y-69461981D01*
X69357363Y-69569348D01*
X69547544Y-69643024D01*
X69748024Y-69680500D01*
X69951976Y-69680500D01*
X70152456Y-69643024D01*
X70342637Y-69569348D01*
X70516041Y-69461981D01*
X70666764Y-69324579D01*
X70789673Y-69161821D01*
X70827740Y-69085371D01*
X70870603Y-69041709D01*
X70916361Y-69030500D01*
X71323639Y-69030500D01*
X71381830Y-69049407D01*
X71412259Y-69085371D01*
X71450327Y-69161821D01*
X71573236Y-69324579D01*
X71723959Y-69461981D01*
X71897363Y-69569348D01*
X72087544Y-69643024D01*
X72288024Y-69680500D01*
X72491976Y-69680500D01*
X72692456Y-69643024D01*
X72882637Y-69569348D01*
X73056041Y-69461981D01*
X73206764Y-69324579D01*
X73329673Y-69161821D01*
X73420582Y-68979250D01*
X73476397Y-68783083D01*
X73495215Y-68580000D01*
X73476397Y-68376917D01*
X73420582Y-68180750D01*
X73329673Y-67998179D01*
X73206764Y-67835421D01*
X73056041Y-67698019D01*
X72882637Y-67590652D01*
X72692456Y-67516976D01*
X72692455Y-67516975D01*
X72692453Y-67516975D01*
X72491976Y-67479500D01*
X72288024Y-67479500D01*
X72087546Y-67516975D01*
X72057221Y-67528723D01*
X71897363Y-67590652D01*
X71723959Y-67698019D01*
X71573236Y-67835421D01*
X71550710Y-67865250D01*
X71450328Y-67998177D01*
X71450323Y-67998186D01*
X71412260Y-68074628D01*
X71369397Y-68118291D01*
X71323639Y-68129500D01*
X70916361Y-68129500D01*
X70858170Y-68110593D01*
X70827740Y-68074628D01*
X70789676Y-67998186D01*
X70789673Y-67998179D01*
X70666764Y-67835421D01*
X70516041Y-67698019D01*
X70342637Y-67590652D01*
X70152456Y-67516976D01*
X70152455Y-67516975D01*
X70152453Y-67516975D01*
X69951976Y-67479500D01*
X69748024Y-67479500D01*
X69547546Y-67516975D01*
X69517221Y-67528723D01*
X69357363Y-67590652D01*
X69183959Y-67698019D01*
X69033236Y-67835421D01*
X69010710Y-67865250D01*
X68910328Y-67998177D01*
X68910323Y-67998186D01*
X68844937Y-68129500D01*
X68819418Y-68180750D01*
X68763603Y-68376917D01*
X68744785Y-68580000D01*
X59715500Y-68580000D01*
X59715500Y-66040000D01*
X68744785Y-66040000D01*
X68763603Y-66243083D01*
X68819418Y-66439250D01*
X68910327Y-66621821D01*
X69033236Y-66784579D01*
X69183959Y-66921981D01*
X69357363Y-67029348D01*
X69547544Y-67103024D01*
X69748024Y-67140500D01*
X69951976Y-67140500D01*
X70152456Y-67103024D01*
X70342637Y-67029348D01*
X70516041Y-66921981D01*
X70666764Y-66784579D01*
X70789673Y-66621821D01*
X70827740Y-66545371D01*
X70870603Y-66501709D01*
X70916361Y-66490500D01*
X71323639Y-66490500D01*
X71381830Y-66509407D01*
X71412259Y-66545371D01*
X71450327Y-66621821D01*
X71573236Y-66784579D01*
X71723959Y-66921981D01*
X71897363Y-67029348D01*
X72087544Y-67103024D01*
X72288024Y-67140500D01*
X72491976Y-67140500D01*
X72692456Y-67103024D01*
X72882637Y-67029348D01*
X73056041Y-66921981D01*
X73206764Y-66784579D01*
X73329673Y-66621821D01*
X73420582Y-66439250D01*
X73476397Y-66243083D01*
X73495215Y-66040000D01*
X73476397Y-65836917D01*
X73420582Y-65640750D01*
X73329673Y-65458179D01*
X73206764Y-65295421D01*
X73056041Y-65158019D01*
X72882637Y-65050652D01*
X72692456Y-64976976D01*
X72692455Y-64976975D01*
X72692453Y-64976975D01*
X72491976Y-64939500D01*
X72288024Y-64939500D01*
X72087546Y-64976975D01*
X72017632Y-65004059D01*
X71897363Y-65050652D01*
X71723959Y-65158019D01*
X71573237Y-65295420D01*
X71450328Y-65458177D01*
X71450323Y-65458186D01*
X71412260Y-65534628D01*
X71369397Y-65578291D01*
X71323639Y-65589500D01*
X70916361Y-65589500D01*
X70858170Y-65570593D01*
X70827740Y-65534628D01*
X70789676Y-65458186D01*
X70789673Y-65458179D01*
X70666764Y-65295421D01*
X70516041Y-65158019D01*
X70342637Y-65050652D01*
X70152456Y-64976976D01*
X70152455Y-64976975D01*
X70152453Y-64976975D01*
X69951976Y-64939500D01*
X69748024Y-64939500D01*
X69547546Y-64976975D01*
X69477632Y-65004059D01*
X69357363Y-65050652D01*
X69183959Y-65158019D01*
X69033237Y-65295420D01*
X68910328Y-65458177D01*
X68910323Y-65458186D01*
X68844937Y-65589500D01*
X68819418Y-65640750D01*
X68763603Y-65836917D01*
X68744785Y-66040000D01*
X59715500Y-66040000D01*
X59715500Y-65529500D01*
X59734407Y-65471309D01*
X59783907Y-65435345D01*
X59814500Y-65430500D01*
X67285234Y-65430500D01*
X67295795Y-65432601D01*
X67310000Y-65432601D01*
X67329517Y-65424517D01*
X67335500Y-65410072D01*
X67337601Y-65405000D01*
X67337600Y-65404997D01*
X67337601Y-65390805D01*
X67335500Y-65380236D01*
X67335500Y-63500000D01*
X68744785Y-63500000D01*
X68763603Y-63703083D01*
X68819418Y-63899250D01*
X68910327Y-64081821D01*
X69033236Y-64244579D01*
X69183959Y-64381981D01*
X69357363Y-64489348D01*
X69547544Y-64563024D01*
X69748024Y-64600500D01*
X69951976Y-64600500D01*
X70152456Y-64563024D01*
X70342637Y-64489348D01*
X70516041Y-64381981D01*
X70666764Y-64244579D01*
X70789673Y-64081821D01*
X70827740Y-64005371D01*
X70870603Y-63961709D01*
X70916361Y-63950500D01*
X71323639Y-63950500D01*
X71381830Y-63969407D01*
X71412259Y-64005371D01*
X71450327Y-64081821D01*
X71573236Y-64244579D01*
X71723959Y-64381981D01*
X71897363Y-64489348D01*
X72087544Y-64563024D01*
X72288024Y-64600500D01*
X72491976Y-64600500D01*
X72692456Y-64563024D01*
X72882637Y-64489348D01*
X73056041Y-64381981D01*
X73206764Y-64244579D01*
X73329673Y-64081821D01*
X73420582Y-63899250D01*
X73476397Y-63703083D01*
X73495215Y-63500000D01*
X73476397Y-63296917D01*
X73420582Y-63100750D01*
X73329673Y-62918179D01*
X73289514Y-62865000D01*
X81740750Y-62865000D01*
X81759669Y-63008708D01*
X81759670Y-63008709D01*
X81768734Y-63030593D01*
X81815139Y-63142625D01*
X81903379Y-63257621D01*
X82018375Y-63345861D01*
X82152291Y-63401330D01*
X82296000Y-63420250D01*
X82439709Y-63401330D01*
X82573625Y-63345861D01*
X82688621Y-63257621D01*
X82776861Y-63142625D01*
X82832330Y-63008709D01*
X82851250Y-62865000D01*
X82832330Y-62721291D01*
X82776861Y-62587375D01*
X82688621Y-62472379D01*
X82573625Y-62384139D01*
X82573621Y-62384137D01*
X82439709Y-62328670D01*
X82439708Y-62328669D01*
X82296000Y-62309750D01*
X82152291Y-62328669D01*
X82152290Y-62328670D01*
X82018378Y-62384137D01*
X82018374Y-62384139D01*
X81903381Y-62472377D01*
X81903377Y-62472381D01*
X81815139Y-62587374D01*
X81815137Y-62587378D01*
X81759670Y-62721290D01*
X81759669Y-62721291D01*
X81740750Y-62864999D01*
X81740750Y-62865000D01*
X73289514Y-62865000D01*
X73206764Y-62755421D01*
X73056041Y-62618019D01*
X72882637Y-62510652D01*
X72692456Y-62436976D01*
X72692455Y-62436975D01*
X72692453Y-62436975D01*
X72491976Y-62399500D01*
X72288024Y-62399500D01*
X72087546Y-62436975D01*
X72017632Y-62464059D01*
X71897363Y-62510652D01*
X71773451Y-62587375D01*
X71723959Y-62618019D01*
X71573237Y-62755420D01*
X71450328Y-62918177D01*
X71450323Y-62918186D01*
X71412260Y-62994628D01*
X71369397Y-63038291D01*
X71323639Y-63049500D01*
X70916361Y-63049500D01*
X70858170Y-63030593D01*
X70827740Y-62994628D01*
X70789676Y-62918186D01*
X70789673Y-62918179D01*
X70666764Y-62755421D01*
X70516041Y-62618019D01*
X70342637Y-62510652D01*
X70152456Y-62436976D01*
X70152455Y-62436975D01*
X70152453Y-62436975D01*
X69951976Y-62399500D01*
X69748024Y-62399500D01*
X69547546Y-62436975D01*
X69477632Y-62464059D01*
X69357363Y-62510652D01*
X69233451Y-62587375D01*
X69183959Y-62618019D01*
X69033237Y-62755420D01*
X68910328Y-62918177D01*
X68910323Y-62918186D01*
X68844937Y-63049500D01*
X68819418Y-63100750D01*
X68763603Y-63296917D01*
X68744785Y-63500000D01*
X67335500Y-63500000D01*
X67335500Y-60960000D01*
X68744785Y-60960000D01*
X68763603Y-61163083D01*
X68819418Y-61359250D01*
X68910327Y-61541821D01*
X69033236Y-61704579D01*
X69183959Y-61841981D01*
X69357363Y-61949348D01*
X69547544Y-62023024D01*
X69748024Y-62060500D01*
X69951976Y-62060500D01*
X70152456Y-62023024D01*
X70342637Y-61949348D01*
X70516041Y-61841981D01*
X70666764Y-61704579D01*
X70789673Y-61541821D01*
X70827740Y-61465371D01*
X70870603Y-61421709D01*
X70916361Y-61410500D01*
X71323639Y-61410500D01*
X71381830Y-61429407D01*
X71412259Y-61465371D01*
X71450327Y-61541821D01*
X71573236Y-61704579D01*
X71723959Y-61841981D01*
X71897363Y-61949348D01*
X72087544Y-62023024D01*
X72288024Y-62060500D01*
X72491976Y-62060500D01*
X72692456Y-62023024D01*
X72882637Y-61949348D01*
X73056041Y-61841981D01*
X73206764Y-61704579D01*
X73329673Y-61541821D01*
X73420582Y-61359250D01*
X73476397Y-61163083D01*
X73495215Y-60960000D01*
X73476397Y-60756917D01*
X73420582Y-60560750D01*
X73329673Y-60378179D01*
X73206764Y-60215421D01*
X73056041Y-60078019D01*
X72882637Y-59970652D01*
X72692456Y-59896976D01*
X72692455Y-59896975D01*
X72692453Y-59896975D01*
X72491976Y-59859500D01*
X72288024Y-59859500D01*
X72087546Y-59896975D01*
X72017632Y-59924059D01*
X71897363Y-59970652D01*
X71723958Y-60078018D01*
X71723959Y-60078019D01*
X71573237Y-60215420D01*
X71450328Y-60378177D01*
X71450323Y-60378186D01*
X71412260Y-60454628D01*
X71369397Y-60498291D01*
X71323639Y-60509500D01*
X70916361Y-60509500D01*
X70858170Y-60490593D01*
X70827740Y-60454628D01*
X70809891Y-60418783D01*
X70789673Y-60378179D01*
X70666764Y-60215421D01*
X70516041Y-60078019D01*
X70342637Y-59970652D01*
X70152456Y-59896976D01*
X70152455Y-59896975D01*
X70152453Y-59896975D01*
X69951976Y-59859500D01*
X69748024Y-59859500D01*
X69547546Y-59896975D01*
X69477632Y-59924059D01*
X69357363Y-59970652D01*
X69183958Y-60078018D01*
X69183959Y-60078019D01*
X69033237Y-60215420D01*
X68910328Y-60378177D01*
X68910323Y-60378186D01*
X68819419Y-60560747D01*
X68819418Y-60560750D01*
X68763603Y-60756917D01*
X68744785Y-60960000D01*
X67335500Y-60960000D01*
X67335500Y-58420000D01*
X68744785Y-58420000D01*
X68763603Y-58623083D01*
X68819418Y-58819250D01*
X68910327Y-59001821D01*
X69033236Y-59164579D01*
X69183959Y-59301981D01*
X69357363Y-59409348D01*
X69547544Y-59483024D01*
X69748024Y-59520500D01*
X69951976Y-59520500D01*
X70152456Y-59483024D01*
X70342637Y-59409348D01*
X70516041Y-59301981D01*
X70666764Y-59164579D01*
X70789673Y-59001821D01*
X70827740Y-58925371D01*
X70870603Y-58881709D01*
X70916361Y-58870500D01*
X71323639Y-58870500D01*
X71381830Y-58889407D01*
X71412259Y-58925371D01*
X71450327Y-59001821D01*
X71573236Y-59164579D01*
X71723959Y-59301981D01*
X71897363Y-59409348D01*
X72087544Y-59483024D01*
X72288024Y-59520500D01*
X72491976Y-59520500D01*
X72692456Y-59483024D01*
X72882637Y-59409348D01*
X73056041Y-59301981D01*
X73206764Y-59164579D01*
X73329673Y-59001821D01*
X73420582Y-58819250D01*
X73476397Y-58623083D01*
X73495215Y-58420000D01*
X73476397Y-58216917D01*
X73420582Y-58020750D01*
X73329673Y-57838179D01*
X73206764Y-57675421D01*
X73056041Y-57538019D01*
X72882637Y-57430652D01*
X72692456Y-57356976D01*
X72692455Y-57356975D01*
X72692453Y-57356975D01*
X72491976Y-57319500D01*
X72288024Y-57319500D01*
X72087546Y-57356975D01*
X72065334Y-57365580D01*
X71897363Y-57430652D01*
X71767118Y-57511296D01*
X71723959Y-57538019D01*
X71573237Y-57675420D01*
X71450328Y-57838177D01*
X71450323Y-57838186D01*
X71412260Y-57914628D01*
X71369397Y-57958291D01*
X71323639Y-57969500D01*
X70916361Y-57969500D01*
X70858170Y-57950593D01*
X70827740Y-57914628D01*
X70789676Y-57838186D01*
X70789673Y-57838179D01*
X70666764Y-57675421D01*
X70516041Y-57538019D01*
X70342637Y-57430652D01*
X70152456Y-57356976D01*
X70152455Y-57356975D01*
X70152453Y-57356975D01*
X69951976Y-57319500D01*
X69748024Y-57319500D01*
X69547546Y-57356975D01*
X69525334Y-57365580D01*
X69357363Y-57430652D01*
X69227118Y-57511296D01*
X69183959Y-57538019D01*
X69033237Y-57675420D01*
X68910328Y-57838177D01*
X68910323Y-57838186D01*
X68819419Y-58020747D01*
X68819418Y-58020750D01*
X68763603Y-58216917D01*
X68744785Y-58420000D01*
X67335500Y-58420000D01*
X67335500Y-55880000D01*
X68744785Y-55880000D01*
X68763603Y-56083083D01*
X68819418Y-56279250D01*
X68910327Y-56461821D01*
X69033236Y-56624579D01*
X69183959Y-56761981D01*
X69357363Y-56869348D01*
X69547544Y-56943024D01*
X69748024Y-56980500D01*
X69951976Y-56980500D01*
X70152456Y-56943024D01*
X70342637Y-56869348D01*
X70516041Y-56761981D01*
X70666764Y-56624579D01*
X70789673Y-56461821D01*
X70827740Y-56385371D01*
X70870603Y-56341709D01*
X70916361Y-56330500D01*
X71323639Y-56330500D01*
X71381830Y-56349407D01*
X71412259Y-56385371D01*
X71450327Y-56461821D01*
X71573236Y-56624579D01*
X71723959Y-56761981D01*
X71897363Y-56869348D01*
X72087544Y-56943024D01*
X72288024Y-56980500D01*
X72491976Y-56980500D01*
X72692456Y-56943024D01*
X72882637Y-56869348D01*
X73056041Y-56761981D01*
X73206764Y-56624579D01*
X73329673Y-56461821D01*
X73420582Y-56279250D01*
X73476397Y-56083083D01*
X73495215Y-55880000D01*
X73476397Y-55676917D01*
X73420582Y-55480750D01*
X73329673Y-55298179D01*
X73206764Y-55135421D01*
X73056041Y-54998019D01*
X72882637Y-54890652D01*
X72692456Y-54816976D01*
X72692455Y-54816975D01*
X72692453Y-54816975D01*
X72491976Y-54779500D01*
X72288024Y-54779500D01*
X72087546Y-54816975D01*
X72017632Y-54844059D01*
X71897363Y-54890652D01*
X71723959Y-54998018D01*
X71723959Y-54998019D01*
X71573237Y-55135420D01*
X71450328Y-55298177D01*
X71450323Y-55298186D01*
X71412260Y-55374628D01*
X71369397Y-55418291D01*
X71323639Y-55429500D01*
X70916361Y-55429500D01*
X70858170Y-55410593D01*
X70827740Y-55374628D01*
X70789676Y-55298186D01*
X70789673Y-55298179D01*
X70666764Y-55135421D01*
X70516041Y-54998019D01*
X70342637Y-54890652D01*
X70152456Y-54816976D01*
X70152455Y-54816975D01*
X70152453Y-54816975D01*
X69951976Y-54779500D01*
X69748024Y-54779500D01*
X69547546Y-54816975D01*
X69477632Y-54844059D01*
X69357363Y-54890652D01*
X69183959Y-54998018D01*
X69183959Y-54998019D01*
X69033237Y-55135420D01*
X68910328Y-55298177D01*
X68910323Y-55298186D01*
X68844937Y-55429500D01*
X68819418Y-55480750D01*
X68763603Y-55676917D01*
X68744785Y-55880000D01*
X67335500Y-55880000D01*
X67335500Y-53340000D01*
X68744785Y-53340000D01*
X68763603Y-53543083D01*
X68819418Y-53739250D01*
X68910327Y-53921821D01*
X69033236Y-54084579D01*
X69183959Y-54221981D01*
X69357363Y-54329348D01*
X69547544Y-54403024D01*
X69748024Y-54440500D01*
X69951976Y-54440500D01*
X70152456Y-54403024D01*
X70342637Y-54329348D01*
X70516041Y-54221981D01*
X70666764Y-54084579D01*
X70789673Y-53921821D01*
X70827740Y-53845371D01*
X70870603Y-53801709D01*
X70916361Y-53790500D01*
X71323639Y-53790500D01*
X71381830Y-53809407D01*
X71412259Y-53845371D01*
X71450327Y-53921821D01*
X71573236Y-54084579D01*
X71723959Y-54221981D01*
X71897363Y-54329348D01*
X72087544Y-54403024D01*
X72288024Y-54440500D01*
X72491976Y-54440500D01*
X72692456Y-54403024D01*
X72882637Y-54329348D01*
X73056041Y-54221981D01*
X73206764Y-54084579D01*
X73329673Y-53921821D01*
X73420582Y-53739250D01*
X73476397Y-53543083D01*
X73495215Y-53340000D01*
X73476397Y-53136917D01*
X73420582Y-52940750D01*
X73329673Y-52758179D01*
X73206764Y-52595421D01*
X73056041Y-52458019D01*
X72882637Y-52350652D01*
X72692456Y-52276976D01*
X72692455Y-52276975D01*
X72692453Y-52276975D01*
X72491976Y-52239500D01*
X72288024Y-52239500D01*
X72087546Y-52276975D01*
X72036212Y-52296862D01*
X71897363Y-52350652D01*
X71727792Y-52455646D01*
X71723959Y-52458019D01*
X71573237Y-52595420D01*
X71450328Y-52758177D01*
X71450323Y-52758186D01*
X71412260Y-52834628D01*
X71369397Y-52878291D01*
X71323639Y-52889500D01*
X70916361Y-52889500D01*
X70858170Y-52870593D01*
X70827740Y-52834628D01*
X70789676Y-52758186D01*
X70789673Y-52758179D01*
X70666764Y-52595421D01*
X70516041Y-52458019D01*
X70342637Y-52350652D01*
X70152456Y-52276976D01*
X70152455Y-52276975D01*
X70152453Y-52276975D01*
X69951976Y-52239500D01*
X69748024Y-52239500D01*
X69547546Y-52276975D01*
X69496212Y-52296862D01*
X69357363Y-52350652D01*
X69187792Y-52455646D01*
X69183959Y-52458019D01*
X69033237Y-52595420D01*
X68910328Y-52758177D01*
X68910323Y-52758186D01*
X68844937Y-52889500D01*
X68819418Y-52940750D01*
X68763603Y-53136917D01*
X68744785Y-53340000D01*
X67335500Y-53340000D01*
X67335500Y-51674672D01*
X68749500Y-51674672D01*
X68749501Y-51674684D01*
X68764033Y-51747736D01*
X68764035Y-51747742D01*
X68819397Y-51830599D01*
X68819399Y-51830601D01*
X68902260Y-51885966D01*
X68957808Y-51897015D01*
X68975315Y-51900498D01*
X68975320Y-51900498D01*
X68975326Y-51900500D01*
X68975327Y-51900500D01*
X70724673Y-51900500D01*
X70724674Y-51900500D01*
X70797740Y-51885966D01*
X70880601Y-51830601D01*
X70935966Y-51747740D01*
X70950500Y-51674674D01*
X70950500Y-51349499D01*
X70969407Y-51291309D01*
X71018907Y-51255345D01*
X71049500Y-51250500D01*
X71323639Y-51250500D01*
X71381830Y-51269407D01*
X71412259Y-51305371D01*
X71450327Y-51381821D01*
X71573236Y-51544579D01*
X71723959Y-51681981D01*
X71897363Y-51789348D01*
X72087544Y-51863024D01*
X72288024Y-51900500D01*
X72491976Y-51900500D01*
X72692456Y-51863024D01*
X72882637Y-51789348D01*
X73056041Y-51681981D01*
X73206764Y-51544579D01*
X73329673Y-51381821D01*
X73420582Y-51199250D01*
X73476397Y-51003083D01*
X73495215Y-50800000D01*
X73476397Y-50596917D01*
X73420582Y-50400750D01*
X73329673Y-50218179D01*
X73206764Y-50055421D01*
X73056041Y-49918019D01*
X72882637Y-49810652D01*
X72692456Y-49736976D01*
X72692455Y-49736975D01*
X72692453Y-49736975D01*
X72491976Y-49699500D01*
X72288024Y-49699500D01*
X72087546Y-49736975D01*
X72017632Y-49764059D01*
X71897363Y-49810652D01*
X71830164Y-49852260D01*
X71723959Y-49918019D01*
X71573237Y-50055420D01*
X71450328Y-50218177D01*
X71450323Y-50218186D01*
X71412260Y-50294628D01*
X71369397Y-50338291D01*
X71323639Y-50349500D01*
X71049500Y-50349500D01*
X70991309Y-50330593D01*
X70955345Y-50281093D01*
X70950500Y-50250500D01*
X70950500Y-49925327D01*
X70950498Y-49925315D01*
X70947015Y-49907808D01*
X70935966Y-49852260D01*
X70880601Y-49769399D01*
X70880599Y-49769397D01*
X70797742Y-49714035D01*
X70797740Y-49714034D01*
X70797737Y-49714033D01*
X70797736Y-49714033D01*
X70724684Y-49699501D01*
X70724674Y-49699500D01*
X68975326Y-49699500D01*
X68975325Y-49699500D01*
X68975315Y-49699501D01*
X68902263Y-49714033D01*
X68902257Y-49714035D01*
X68819400Y-49769397D01*
X68819397Y-49769400D01*
X68764035Y-49852257D01*
X68764033Y-49852263D01*
X68749501Y-49925315D01*
X68749500Y-49925327D01*
X68749500Y-51674672D01*
X67335500Y-51674672D01*
X67335500Y-48384500D01*
X67354407Y-48326309D01*
X67403907Y-48290345D01*
X67434500Y-48285500D01*
X90118429Y-48285500D01*
X90176620Y-48304407D01*
G37*
%TD.AperFunction*%
M02*
