%TF.GenerationSoftware,KiCad,Pcbnew,7.0.6*%
%TF.CreationDate,2023-12-10T22:56:55+01:00*%
%TF.ProjectId,blue_64,626c7565-5f36-4342-9e6b-696361645f70,rev?*%
%TF.SameCoordinates,Original*%
%TF.FileFunction,AssemblyDrawing,Bot*%
%FSLAX46Y46*%
G04 Gerber Fmt 4.6, Leading zero omitted, Abs format (unit mm)*
G04 Created by KiCad (PCBNEW 7.0.6) date 2023-12-10 22:56:55*
%MOMM*%
%LPD*%
G01*
G04 APERTURE LIST*
%ADD10C,0.060000*%
%ADD11C,0.075000*%
%ADD12C,0.150000*%
%ADD13C,0.100000*%
G04 APERTURE END LIST*
D10*
X90605927Y-81276857D02*
X90415451Y-81143524D01*
X90605927Y-81048286D02*
X90205927Y-81048286D01*
X90205927Y-81048286D02*
X90205927Y-81200667D01*
X90205927Y-81200667D02*
X90224975Y-81238762D01*
X90224975Y-81238762D02*
X90244022Y-81257809D01*
X90244022Y-81257809D02*
X90282118Y-81276857D01*
X90282118Y-81276857D02*
X90339260Y-81276857D01*
X90339260Y-81276857D02*
X90377356Y-81257809D01*
X90377356Y-81257809D02*
X90396403Y-81238762D01*
X90396403Y-81238762D02*
X90415451Y-81200667D01*
X90415451Y-81200667D02*
X90415451Y-81048286D01*
X90605927Y-81657809D02*
X90605927Y-81429238D01*
X90605927Y-81543524D02*
X90205927Y-81543524D01*
X90205927Y-81543524D02*
X90263070Y-81505428D01*
X90263070Y-81505428D02*
X90301165Y-81467333D01*
X90301165Y-81467333D02*
X90320213Y-81429238D01*
X90205927Y-82019714D02*
X90205927Y-81829238D01*
X90205927Y-81829238D02*
X90396403Y-81810190D01*
X90396403Y-81810190D02*
X90377356Y-81829238D01*
X90377356Y-81829238D02*
X90358308Y-81867333D01*
X90358308Y-81867333D02*
X90358308Y-81962571D01*
X90358308Y-81962571D02*
X90377356Y-82000666D01*
X90377356Y-82000666D02*
X90396403Y-82019714D01*
X90396403Y-82019714D02*
X90434499Y-82038761D01*
X90434499Y-82038761D02*
X90529737Y-82038761D01*
X90529737Y-82038761D02*
X90567832Y-82019714D01*
X90567832Y-82019714D02*
X90586880Y-82000666D01*
X90586880Y-82000666D02*
X90605927Y-81962571D01*
X90605927Y-81962571D02*
X90605927Y-81867333D01*
X90605927Y-81867333D02*
X90586880Y-81829238D01*
X90586880Y-81829238D02*
X90567832Y-81810190D01*
X78044666Y-57585927D02*
X78177999Y-57395451D01*
X78273237Y-57585927D02*
X78273237Y-57185927D01*
X78273237Y-57185927D02*
X78120856Y-57185927D01*
X78120856Y-57185927D02*
X78082761Y-57204975D01*
X78082761Y-57204975D02*
X78063714Y-57224022D01*
X78063714Y-57224022D02*
X78044666Y-57262118D01*
X78044666Y-57262118D02*
X78044666Y-57319260D01*
X78044666Y-57319260D02*
X78063714Y-57357356D01*
X78063714Y-57357356D02*
X78082761Y-57376403D01*
X78082761Y-57376403D02*
X78120856Y-57395451D01*
X78120856Y-57395451D02*
X78273237Y-57395451D01*
X77701809Y-57319260D02*
X77701809Y-57585927D01*
X77797047Y-57166880D02*
X77892285Y-57452594D01*
X77892285Y-57452594D02*
X77644666Y-57452594D01*
X92129927Y-65401857D02*
X91939451Y-65268524D01*
X92129927Y-65173286D02*
X91729927Y-65173286D01*
X91729927Y-65173286D02*
X91729927Y-65325667D01*
X91729927Y-65325667D02*
X91748975Y-65363762D01*
X91748975Y-65363762D02*
X91768022Y-65382809D01*
X91768022Y-65382809D02*
X91806118Y-65401857D01*
X91806118Y-65401857D02*
X91863260Y-65401857D01*
X91863260Y-65401857D02*
X91901356Y-65382809D01*
X91901356Y-65382809D02*
X91920403Y-65363762D01*
X91920403Y-65363762D02*
X91939451Y-65325667D01*
X91939451Y-65325667D02*
X91939451Y-65173286D01*
X92129927Y-65782809D02*
X92129927Y-65554238D01*
X92129927Y-65668524D02*
X91729927Y-65668524D01*
X91729927Y-65668524D02*
X91787070Y-65630428D01*
X91787070Y-65630428D02*
X91825165Y-65592333D01*
X91825165Y-65592333D02*
X91844213Y-65554238D01*
X91729927Y-65916142D02*
X91729927Y-66163761D01*
X91729927Y-66163761D02*
X91882308Y-66030428D01*
X91882308Y-66030428D02*
X91882308Y-66087571D01*
X91882308Y-66087571D02*
X91901356Y-66125666D01*
X91901356Y-66125666D02*
X91920403Y-66144714D01*
X91920403Y-66144714D02*
X91958499Y-66163761D01*
X91958499Y-66163761D02*
X92053737Y-66163761D01*
X92053737Y-66163761D02*
X92091832Y-66144714D01*
X92091832Y-66144714D02*
X92110880Y-66125666D01*
X92110880Y-66125666D02*
X92129927Y-66087571D01*
X92129927Y-66087571D02*
X92129927Y-65973285D01*
X92129927Y-65973285D02*
X92110880Y-65935190D01*
X92110880Y-65935190D02*
X92091832Y-65916142D01*
D11*
X77451409Y-69215047D02*
X77856171Y-69215047D01*
X77856171Y-69215047D02*
X77903790Y-69238857D01*
X77903790Y-69238857D02*
X77927600Y-69262666D01*
X77927600Y-69262666D02*
X77951409Y-69310285D01*
X77951409Y-69310285D02*
X77951409Y-69405523D01*
X77951409Y-69405523D02*
X77927600Y-69453142D01*
X77927600Y-69453142D02*
X77903790Y-69476952D01*
X77903790Y-69476952D02*
X77856171Y-69500761D01*
X77856171Y-69500761D02*
X77451409Y-69500761D01*
X77618076Y-69953143D02*
X77951409Y-69953143D01*
X77427600Y-69834095D02*
X77784742Y-69715048D01*
X77784742Y-69715048D02*
X77784742Y-70024571D01*
D10*
X89081927Y-81276857D02*
X88891451Y-81143524D01*
X89081927Y-81048286D02*
X88681927Y-81048286D01*
X88681927Y-81048286D02*
X88681927Y-81200667D01*
X88681927Y-81200667D02*
X88700975Y-81238762D01*
X88700975Y-81238762D02*
X88720022Y-81257809D01*
X88720022Y-81257809D02*
X88758118Y-81276857D01*
X88758118Y-81276857D02*
X88815260Y-81276857D01*
X88815260Y-81276857D02*
X88853356Y-81257809D01*
X88853356Y-81257809D02*
X88872403Y-81238762D01*
X88872403Y-81238762D02*
X88891451Y-81200667D01*
X88891451Y-81200667D02*
X88891451Y-81048286D01*
X89081927Y-81657809D02*
X89081927Y-81429238D01*
X89081927Y-81543524D02*
X88681927Y-81543524D01*
X88681927Y-81543524D02*
X88739070Y-81505428D01*
X88739070Y-81505428D02*
X88777165Y-81467333D01*
X88777165Y-81467333D02*
X88796213Y-81429238D01*
X88815260Y-82000666D02*
X89081927Y-82000666D01*
X88662880Y-81905428D02*
X88948594Y-81810190D01*
X88948594Y-81810190D02*
X88948594Y-82057809D01*
X90605927Y-65401857D02*
X90415451Y-65268524D01*
X90605927Y-65173286D02*
X90205927Y-65173286D01*
X90205927Y-65173286D02*
X90205927Y-65325667D01*
X90205927Y-65325667D02*
X90224975Y-65363762D01*
X90224975Y-65363762D02*
X90244022Y-65382809D01*
X90244022Y-65382809D02*
X90282118Y-65401857D01*
X90282118Y-65401857D02*
X90339260Y-65401857D01*
X90339260Y-65401857D02*
X90377356Y-65382809D01*
X90377356Y-65382809D02*
X90396403Y-65363762D01*
X90396403Y-65363762D02*
X90415451Y-65325667D01*
X90415451Y-65325667D02*
X90415451Y-65173286D01*
X90605927Y-65782809D02*
X90605927Y-65554238D01*
X90605927Y-65668524D02*
X90205927Y-65668524D01*
X90205927Y-65668524D02*
X90263070Y-65630428D01*
X90263070Y-65630428D02*
X90301165Y-65592333D01*
X90301165Y-65592333D02*
X90320213Y-65554238D01*
X90244022Y-65935190D02*
X90224975Y-65954238D01*
X90224975Y-65954238D02*
X90205927Y-65992333D01*
X90205927Y-65992333D02*
X90205927Y-66087571D01*
X90205927Y-66087571D02*
X90224975Y-66125666D01*
X90224975Y-66125666D02*
X90244022Y-66144714D01*
X90244022Y-66144714D02*
X90282118Y-66163761D01*
X90282118Y-66163761D02*
X90320213Y-66163761D01*
X90320213Y-66163761D02*
X90377356Y-66144714D01*
X90377356Y-66144714D02*
X90605927Y-65916142D01*
X90605927Y-65916142D02*
X90605927Y-66163761D01*
X80496727Y-81213333D02*
X80306251Y-81080000D01*
X80496727Y-80984762D02*
X80096727Y-80984762D01*
X80096727Y-80984762D02*
X80096727Y-81137143D01*
X80096727Y-81137143D02*
X80115775Y-81175238D01*
X80115775Y-81175238D02*
X80134822Y-81194285D01*
X80134822Y-81194285D02*
X80172918Y-81213333D01*
X80172918Y-81213333D02*
X80230060Y-81213333D01*
X80230060Y-81213333D02*
X80268156Y-81194285D01*
X80268156Y-81194285D02*
X80287203Y-81175238D01*
X80287203Y-81175238D02*
X80306251Y-81137143D01*
X80306251Y-81137143D02*
X80306251Y-80984762D01*
X80496727Y-81403809D02*
X80496727Y-81480000D01*
X80496727Y-81480000D02*
X80477680Y-81518095D01*
X80477680Y-81518095D02*
X80458632Y-81537143D01*
X80458632Y-81537143D02*
X80401489Y-81575238D01*
X80401489Y-81575238D02*
X80325299Y-81594285D01*
X80325299Y-81594285D02*
X80172918Y-81594285D01*
X80172918Y-81594285D02*
X80134822Y-81575238D01*
X80134822Y-81575238D02*
X80115775Y-81556190D01*
X80115775Y-81556190D02*
X80096727Y-81518095D01*
X80096727Y-81518095D02*
X80096727Y-81441904D01*
X80096727Y-81441904D02*
X80115775Y-81403809D01*
X80115775Y-81403809D02*
X80134822Y-81384762D01*
X80134822Y-81384762D02*
X80172918Y-81365714D01*
X80172918Y-81365714D02*
X80268156Y-81365714D01*
X80268156Y-81365714D02*
X80306251Y-81384762D01*
X80306251Y-81384762D02*
X80325299Y-81403809D01*
X80325299Y-81403809D02*
X80344346Y-81441904D01*
X80344346Y-81441904D02*
X80344346Y-81518095D01*
X80344346Y-81518095D02*
X80325299Y-81556190D01*
X80325299Y-81556190D02*
X80306251Y-81575238D01*
X80306251Y-81575238D02*
X80268156Y-81594285D01*
D11*
X77451409Y-75057047D02*
X77856171Y-75057047D01*
X77856171Y-75057047D02*
X77903790Y-75080857D01*
X77903790Y-75080857D02*
X77927600Y-75104666D01*
X77927600Y-75104666D02*
X77951409Y-75152285D01*
X77951409Y-75152285D02*
X77951409Y-75247523D01*
X77951409Y-75247523D02*
X77927600Y-75295142D01*
X77927600Y-75295142D02*
X77903790Y-75318952D01*
X77903790Y-75318952D02*
X77856171Y-75342761D01*
X77856171Y-75342761D02*
X77451409Y-75342761D01*
X77451409Y-75533238D02*
X77451409Y-75842762D01*
X77451409Y-75842762D02*
X77641885Y-75676095D01*
X77641885Y-75676095D02*
X77641885Y-75747524D01*
X77641885Y-75747524D02*
X77665695Y-75795143D01*
X77665695Y-75795143D02*
X77689504Y-75818952D01*
X77689504Y-75818952D02*
X77737123Y-75842762D01*
X77737123Y-75842762D02*
X77856171Y-75842762D01*
X77856171Y-75842762D02*
X77903790Y-75818952D01*
X77903790Y-75818952D02*
X77927600Y-75795143D01*
X77927600Y-75795143D02*
X77951409Y-75747524D01*
X77951409Y-75747524D02*
X77951409Y-75604667D01*
X77951409Y-75604667D02*
X77927600Y-75557048D01*
X77927600Y-75557048D02*
X77903790Y-75533238D01*
D12*
X93321094Y-97664819D02*
X93321094Y-96664819D01*
X93321094Y-96664819D02*
X93082999Y-96664819D01*
X93082999Y-96664819D02*
X92940142Y-96712438D01*
X92940142Y-96712438D02*
X92844904Y-96807676D01*
X92844904Y-96807676D02*
X92797285Y-96902914D01*
X92797285Y-96902914D02*
X92749666Y-97093390D01*
X92749666Y-97093390D02*
X92749666Y-97236247D01*
X92749666Y-97236247D02*
X92797285Y-97426723D01*
X92797285Y-97426723D02*
X92844904Y-97521961D01*
X92844904Y-97521961D02*
X92940142Y-97617200D01*
X92940142Y-97617200D02*
X93082999Y-97664819D01*
X93082999Y-97664819D02*
X93321094Y-97664819D01*
X91797285Y-97664819D02*
X92368713Y-97664819D01*
X92082999Y-97664819D02*
X92082999Y-96664819D01*
X92082999Y-96664819D02*
X92178237Y-96807676D01*
X92178237Y-96807676D02*
X92273475Y-96902914D01*
X92273475Y-96902914D02*
X92368713Y-96950533D01*
D10*
X80445927Y-91995657D02*
X80255451Y-91862324D01*
X80445927Y-91767086D02*
X80045927Y-91767086D01*
X80045927Y-91767086D02*
X80045927Y-91919467D01*
X80045927Y-91919467D02*
X80064975Y-91957562D01*
X80064975Y-91957562D02*
X80084022Y-91976609D01*
X80084022Y-91976609D02*
X80122118Y-91995657D01*
X80122118Y-91995657D02*
X80179260Y-91995657D01*
X80179260Y-91995657D02*
X80217356Y-91976609D01*
X80217356Y-91976609D02*
X80236403Y-91957562D01*
X80236403Y-91957562D02*
X80255451Y-91919467D01*
X80255451Y-91919467D02*
X80255451Y-91767086D01*
X80445927Y-92376609D02*
X80445927Y-92148038D01*
X80445927Y-92262324D02*
X80045927Y-92262324D01*
X80045927Y-92262324D02*
X80103070Y-92224228D01*
X80103070Y-92224228D02*
X80141165Y-92186133D01*
X80141165Y-92186133D02*
X80160213Y-92148038D01*
X80217356Y-92605180D02*
X80198308Y-92567085D01*
X80198308Y-92567085D02*
X80179260Y-92548038D01*
X80179260Y-92548038D02*
X80141165Y-92528990D01*
X80141165Y-92528990D02*
X80122118Y-92528990D01*
X80122118Y-92528990D02*
X80084022Y-92548038D01*
X80084022Y-92548038D02*
X80064975Y-92567085D01*
X80064975Y-92567085D02*
X80045927Y-92605180D01*
X80045927Y-92605180D02*
X80045927Y-92681371D01*
X80045927Y-92681371D02*
X80064975Y-92719466D01*
X80064975Y-92719466D02*
X80084022Y-92738514D01*
X80084022Y-92738514D02*
X80122118Y-92757561D01*
X80122118Y-92757561D02*
X80141165Y-92757561D01*
X80141165Y-92757561D02*
X80179260Y-92738514D01*
X80179260Y-92738514D02*
X80198308Y-92719466D01*
X80198308Y-92719466D02*
X80217356Y-92681371D01*
X80217356Y-92681371D02*
X80217356Y-92605180D01*
X80217356Y-92605180D02*
X80236403Y-92567085D01*
X80236403Y-92567085D02*
X80255451Y-92548038D01*
X80255451Y-92548038D02*
X80293546Y-92528990D01*
X80293546Y-92528990D02*
X80369737Y-92528990D01*
X80369737Y-92528990D02*
X80407832Y-92548038D01*
X80407832Y-92548038D02*
X80426880Y-92567085D01*
X80426880Y-92567085D02*
X80445927Y-92605180D01*
X80445927Y-92605180D02*
X80445927Y-92681371D01*
X80445927Y-92681371D02*
X80426880Y-92719466D01*
X80426880Y-92719466D02*
X80407832Y-92738514D01*
X80407832Y-92738514D02*
X80369737Y-92757561D01*
X80369737Y-92757561D02*
X80293546Y-92757561D01*
X80293546Y-92757561D02*
X80255451Y-92738514D01*
X80255451Y-92738514D02*
X80236403Y-92719466D01*
X80236403Y-92719466D02*
X80217356Y-92681371D01*
X80496727Y-53527333D02*
X80306251Y-53394000D01*
X80496727Y-53298762D02*
X80096727Y-53298762D01*
X80096727Y-53298762D02*
X80096727Y-53451143D01*
X80096727Y-53451143D02*
X80115775Y-53489238D01*
X80115775Y-53489238D02*
X80134822Y-53508285D01*
X80134822Y-53508285D02*
X80172918Y-53527333D01*
X80172918Y-53527333D02*
X80230060Y-53527333D01*
X80230060Y-53527333D02*
X80268156Y-53508285D01*
X80268156Y-53508285D02*
X80287203Y-53489238D01*
X80287203Y-53489238D02*
X80306251Y-53451143D01*
X80306251Y-53451143D02*
X80306251Y-53298762D01*
X80496727Y-53908285D02*
X80496727Y-53679714D01*
X80496727Y-53794000D02*
X80096727Y-53794000D01*
X80096727Y-53794000D02*
X80153870Y-53755904D01*
X80153870Y-53755904D02*
X80191965Y-53717809D01*
X80191965Y-53717809D02*
X80211013Y-53679714D01*
X78044666Y-73079927D02*
X78177999Y-72889451D01*
X78273237Y-73079927D02*
X78273237Y-72679927D01*
X78273237Y-72679927D02*
X78120856Y-72679927D01*
X78120856Y-72679927D02*
X78082761Y-72698975D01*
X78082761Y-72698975D02*
X78063714Y-72718022D01*
X78063714Y-72718022D02*
X78044666Y-72756118D01*
X78044666Y-72756118D02*
X78044666Y-72813260D01*
X78044666Y-72813260D02*
X78063714Y-72851356D01*
X78063714Y-72851356D02*
X78082761Y-72870403D01*
X78082761Y-72870403D02*
X78120856Y-72889451D01*
X78120856Y-72889451D02*
X78273237Y-72889451D01*
X77816095Y-72851356D02*
X77854190Y-72832308D01*
X77854190Y-72832308D02*
X77873237Y-72813260D01*
X77873237Y-72813260D02*
X77892285Y-72775165D01*
X77892285Y-72775165D02*
X77892285Y-72756118D01*
X77892285Y-72756118D02*
X77873237Y-72718022D01*
X77873237Y-72718022D02*
X77854190Y-72698975D01*
X77854190Y-72698975D02*
X77816095Y-72679927D01*
X77816095Y-72679927D02*
X77739904Y-72679927D01*
X77739904Y-72679927D02*
X77701809Y-72698975D01*
X77701809Y-72698975D02*
X77682761Y-72718022D01*
X77682761Y-72718022D02*
X77663714Y-72756118D01*
X77663714Y-72756118D02*
X77663714Y-72775165D01*
X77663714Y-72775165D02*
X77682761Y-72813260D01*
X77682761Y-72813260D02*
X77701809Y-72832308D01*
X77701809Y-72832308D02*
X77739904Y-72851356D01*
X77739904Y-72851356D02*
X77816095Y-72851356D01*
X77816095Y-72851356D02*
X77854190Y-72870403D01*
X77854190Y-72870403D02*
X77873237Y-72889451D01*
X77873237Y-72889451D02*
X77892285Y-72927546D01*
X77892285Y-72927546D02*
X77892285Y-73003737D01*
X77892285Y-73003737D02*
X77873237Y-73041832D01*
X77873237Y-73041832D02*
X77854190Y-73060880D01*
X77854190Y-73060880D02*
X77816095Y-73079927D01*
X77816095Y-73079927D02*
X77739904Y-73079927D01*
X77739904Y-73079927D02*
X77701809Y-73060880D01*
X77701809Y-73060880D02*
X77682761Y-73041832D01*
X77682761Y-73041832D02*
X77663714Y-73003737D01*
X77663714Y-73003737D02*
X77663714Y-72927546D01*
X77663714Y-72927546D02*
X77682761Y-72889451D01*
X77682761Y-72889451D02*
X77701809Y-72870403D01*
X77701809Y-72870403D02*
X77739904Y-72851356D01*
X92129927Y-81276857D02*
X91939451Y-81143524D01*
X92129927Y-81048286D02*
X91729927Y-81048286D01*
X91729927Y-81048286D02*
X91729927Y-81200667D01*
X91729927Y-81200667D02*
X91748975Y-81238762D01*
X91748975Y-81238762D02*
X91768022Y-81257809D01*
X91768022Y-81257809D02*
X91806118Y-81276857D01*
X91806118Y-81276857D02*
X91863260Y-81276857D01*
X91863260Y-81276857D02*
X91901356Y-81257809D01*
X91901356Y-81257809D02*
X91920403Y-81238762D01*
X91920403Y-81238762D02*
X91939451Y-81200667D01*
X91939451Y-81200667D02*
X91939451Y-81048286D01*
X92129927Y-81657809D02*
X92129927Y-81429238D01*
X92129927Y-81543524D02*
X91729927Y-81543524D01*
X91729927Y-81543524D02*
X91787070Y-81505428D01*
X91787070Y-81505428D02*
X91825165Y-81467333D01*
X91825165Y-81467333D02*
X91844213Y-81429238D01*
X91729927Y-82000666D02*
X91729927Y-81924476D01*
X91729927Y-81924476D02*
X91748975Y-81886380D01*
X91748975Y-81886380D02*
X91768022Y-81867333D01*
X91768022Y-81867333D02*
X91825165Y-81829238D01*
X91825165Y-81829238D02*
X91901356Y-81810190D01*
X91901356Y-81810190D02*
X92053737Y-81810190D01*
X92053737Y-81810190D02*
X92091832Y-81829238D01*
X92091832Y-81829238D02*
X92110880Y-81848285D01*
X92110880Y-81848285D02*
X92129927Y-81886380D01*
X92129927Y-81886380D02*
X92129927Y-81962571D01*
X92129927Y-81962571D02*
X92110880Y-82000666D01*
X92110880Y-82000666D02*
X92091832Y-82019714D01*
X92091832Y-82019714D02*
X92053737Y-82038761D01*
X92053737Y-82038761D02*
X91958499Y-82038761D01*
X91958499Y-82038761D02*
X91920403Y-82019714D01*
X91920403Y-82019714D02*
X91901356Y-82000666D01*
X91901356Y-82000666D02*
X91882308Y-81962571D01*
X91882308Y-81962571D02*
X91882308Y-81886380D01*
X91882308Y-81886380D02*
X91901356Y-81848285D01*
X91901356Y-81848285D02*
X91920403Y-81829238D01*
X91920403Y-81829238D02*
X91958499Y-81810190D01*
X89081927Y-65401857D02*
X88891451Y-65268524D01*
X89081927Y-65173286D02*
X88681927Y-65173286D01*
X88681927Y-65173286D02*
X88681927Y-65325667D01*
X88681927Y-65325667D02*
X88700975Y-65363762D01*
X88700975Y-65363762D02*
X88720022Y-65382809D01*
X88720022Y-65382809D02*
X88758118Y-65401857D01*
X88758118Y-65401857D02*
X88815260Y-65401857D01*
X88815260Y-65401857D02*
X88853356Y-65382809D01*
X88853356Y-65382809D02*
X88872403Y-65363762D01*
X88872403Y-65363762D02*
X88891451Y-65325667D01*
X88891451Y-65325667D02*
X88891451Y-65173286D01*
X89081927Y-65782809D02*
X89081927Y-65554238D01*
X89081927Y-65668524D02*
X88681927Y-65668524D01*
X88681927Y-65668524D02*
X88739070Y-65630428D01*
X88739070Y-65630428D02*
X88777165Y-65592333D01*
X88777165Y-65592333D02*
X88796213Y-65554238D01*
X89081927Y-66163761D02*
X89081927Y-65935190D01*
X89081927Y-66049476D02*
X88681927Y-66049476D01*
X88681927Y-66049476D02*
X88739070Y-66011380D01*
X88739070Y-66011380D02*
X88777165Y-65973285D01*
X88777165Y-65973285D02*
X88796213Y-65935190D01*
D11*
X86595409Y-88138047D02*
X87000171Y-88138047D01*
X87000171Y-88138047D02*
X87047790Y-88161857D01*
X87047790Y-88161857D02*
X87071600Y-88185666D01*
X87071600Y-88185666D02*
X87095409Y-88233285D01*
X87095409Y-88233285D02*
X87095409Y-88328523D01*
X87095409Y-88328523D02*
X87071600Y-88376142D01*
X87071600Y-88376142D02*
X87047790Y-88399952D01*
X87047790Y-88399952D02*
X87000171Y-88423761D01*
X87000171Y-88423761D02*
X86595409Y-88423761D01*
X87095409Y-88685667D02*
X87095409Y-88780905D01*
X87095409Y-88780905D02*
X87071600Y-88828524D01*
X87071600Y-88828524D02*
X87047790Y-88852333D01*
X87047790Y-88852333D02*
X86976361Y-88899952D01*
X86976361Y-88899952D02*
X86881123Y-88923762D01*
X86881123Y-88923762D02*
X86690647Y-88923762D01*
X86690647Y-88923762D02*
X86643028Y-88899952D01*
X86643028Y-88899952D02*
X86619219Y-88876143D01*
X86619219Y-88876143D02*
X86595409Y-88828524D01*
X86595409Y-88828524D02*
X86595409Y-88733286D01*
X86595409Y-88733286D02*
X86619219Y-88685667D01*
X86619219Y-88685667D02*
X86643028Y-88661857D01*
X86643028Y-88661857D02*
X86690647Y-88638048D01*
X86690647Y-88638048D02*
X86809695Y-88638048D01*
X86809695Y-88638048D02*
X86857314Y-88661857D01*
X86857314Y-88661857D02*
X86881123Y-88685667D01*
X86881123Y-88685667D02*
X86904933Y-88733286D01*
X86904933Y-88733286D02*
X86904933Y-88828524D01*
X86904933Y-88828524D02*
X86881123Y-88876143D01*
X86881123Y-88876143D02*
X86857314Y-88899952D01*
X86857314Y-88899952D02*
X86809695Y-88923762D01*
D12*
X86968566Y-75453333D02*
X87761900Y-75453333D01*
X87761900Y-75453333D02*
X87855233Y-75500000D01*
X87855233Y-75500000D02*
X87901900Y-75546666D01*
X87901900Y-75546666D02*
X87948566Y-75640000D01*
X87948566Y-75640000D02*
X87948566Y-75826666D01*
X87948566Y-75826666D02*
X87901900Y-75920000D01*
X87901900Y-75920000D02*
X87855233Y-75966666D01*
X87855233Y-75966666D02*
X87761900Y-76013333D01*
X87761900Y-76013333D02*
X86968566Y-76013333D01*
X87388566Y-76620000D02*
X87341900Y-76526667D01*
X87341900Y-76526667D02*
X87295233Y-76480000D01*
X87295233Y-76480000D02*
X87201900Y-76433333D01*
X87201900Y-76433333D02*
X87155233Y-76433333D01*
X87155233Y-76433333D02*
X87061900Y-76480000D01*
X87061900Y-76480000D02*
X87015233Y-76526667D01*
X87015233Y-76526667D02*
X86968566Y-76620000D01*
X86968566Y-76620000D02*
X86968566Y-76806667D01*
X86968566Y-76806667D02*
X87015233Y-76900000D01*
X87015233Y-76900000D02*
X87061900Y-76946667D01*
X87061900Y-76946667D02*
X87155233Y-76993333D01*
X87155233Y-76993333D02*
X87201900Y-76993333D01*
X87201900Y-76993333D02*
X87295233Y-76946667D01*
X87295233Y-76946667D02*
X87341900Y-76900000D01*
X87341900Y-76900000D02*
X87388566Y-76806667D01*
X87388566Y-76806667D02*
X87388566Y-76620000D01*
X87388566Y-76620000D02*
X87435233Y-76526667D01*
X87435233Y-76526667D02*
X87481900Y-76480000D01*
X87481900Y-76480000D02*
X87575233Y-76433333D01*
X87575233Y-76433333D02*
X87761900Y-76433333D01*
X87761900Y-76433333D02*
X87855233Y-76480000D01*
X87855233Y-76480000D02*
X87901900Y-76526667D01*
X87901900Y-76526667D02*
X87948566Y-76620000D01*
X87948566Y-76620000D02*
X87948566Y-76806667D01*
X87948566Y-76806667D02*
X87901900Y-76900000D01*
X87901900Y-76900000D02*
X87855233Y-76946667D01*
X87855233Y-76946667D02*
X87761900Y-76993333D01*
X87761900Y-76993333D02*
X87575233Y-76993333D01*
X87575233Y-76993333D02*
X87481900Y-76946667D01*
X87481900Y-76946667D02*
X87435233Y-76900000D01*
X87435233Y-76900000D02*
X87388566Y-76806667D01*
D10*
X80496727Y-74609333D02*
X80306251Y-74476000D01*
X80496727Y-74380762D02*
X80096727Y-74380762D01*
X80096727Y-74380762D02*
X80096727Y-74533143D01*
X80096727Y-74533143D02*
X80115775Y-74571238D01*
X80115775Y-74571238D02*
X80134822Y-74590285D01*
X80134822Y-74590285D02*
X80172918Y-74609333D01*
X80172918Y-74609333D02*
X80230060Y-74609333D01*
X80230060Y-74609333D02*
X80268156Y-74590285D01*
X80268156Y-74590285D02*
X80287203Y-74571238D01*
X80287203Y-74571238D02*
X80306251Y-74533143D01*
X80306251Y-74533143D02*
X80306251Y-74380762D01*
X80096727Y-74742666D02*
X80096727Y-75009333D01*
X80096727Y-75009333D02*
X80496727Y-74837904D01*
X80496727Y-68767333D02*
X80306251Y-68634000D01*
X80496727Y-68538762D02*
X80096727Y-68538762D01*
X80096727Y-68538762D02*
X80096727Y-68691143D01*
X80096727Y-68691143D02*
X80115775Y-68729238D01*
X80115775Y-68729238D02*
X80134822Y-68748285D01*
X80134822Y-68748285D02*
X80172918Y-68767333D01*
X80172918Y-68767333D02*
X80230060Y-68767333D01*
X80230060Y-68767333D02*
X80268156Y-68748285D01*
X80268156Y-68748285D02*
X80287203Y-68729238D01*
X80287203Y-68729238D02*
X80306251Y-68691143D01*
X80306251Y-68691143D02*
X80306251Y-68538762D01*
X80096727Y-69129238D02*
X80096727Y-68938762D01*
X80096727Y-68938762D02*
X80287203Y-68919714D01*
X80287203Y-68919714D02*
X80268156Y-68938762D01*
X80268156Y-68938762D02*
X80249108Y-68976857D01*
X80249108Y-68976857D02*
X80249108Y-69072095D01*
X80249108Y-69072095D02*
X80268156Y-69110190D01*
X80268156Y-69110190D02*
X80287203Y-69129238D01*
X80287203Y-69129238D02*
X80325299Y-69148285D01*
X80325299Y-69148285D02*
X80420537Y-69148285D01*
X80420537Y-69148285D02*
X80458632Y-69129238D01*
X80458632Y-69129238D02*
X80477680Y-69110190D01*
X80477680Y-69110190D02*
X80496727Y-69072095D01*
X80496727Y-69072095D02*
X80496727Y-68976857D01*
X80496727Y-68976857D02*
X80477680Y-68938762D01*
X80477680Y-68938762D02*
X80458632Y-68919714D01*
D12*
X86968566Y-59578333D02*
X87761900Y-59578333D01*
X87761900Y-59578333D02*
X87855233Y-59625000D01*
X87855233Y-59625000D02*
X87901900Y-59671666D01*
X87901900Y-59671666D02*
X87948566Y-59765000D01*
X87948566Y-59765000D02*
X87948566Y-59951666D01*
X87948566Y-59951666D02*
X87901900Y-60045000D01*
X87901900Y-60045000D02*
X87855233Y-60091666D01*
X87855233Y-60091666D02*
X87761900Y-60138333D01*
X87761900Y-60138333D02*
X86968566Y-60138333D01*
X86968566Y-60511667D02*
X86968566Y-61165000D01*
X86968566Y-61165000D02*
X87948566Y-60745000D01*
D10*
X80496727Y-59115333D02*
X80306251Y-58982000D01*
X80496727Y-58886762D02*
X80096727Y-58886762D01*
X80096727Y-58886762D02*
X80096727Y-59039143D01*
X80096727Y-59039143D02*
X80115775Y-59077238D01*
X80115775Y-59077238D02*
X80134822Y-59096285D01*
X80134822Y-59096285D02*
X80172918Y-59115333D01*
X80172918Y-59115333D02*
X80230060Y-59115333D01*
X80230060Y-59115333D02*
X80268156Y-59096285D01*
X80268156Y-59096285D02*
X80287203Y-59077238D01*
X80287203Y-59077238D02*
X80306251Y-59039143D01*
X80306251Y-59039143D02*
X80306251Y-58886762D01*
X80096727Y-59248666D02*
X80096727Y-59496285D01*
X80096727Y-59496285D02*
X80249108Y-59362952D01*
X80249108Y-59362952D02*
X80249108Y-59420095D01*
X80249108Y-59420095D02*
X80268156Y-59458190D01*
X80268156Y-59458190D02*
X80287203Y-59477238D01*
X80287203Y-59477238D02*
X80325299Y-59496285D01*
X80325299Y-59496285D02*
X80420537Y-59496285D01*
X80420537Y-59496285D02*
X80458632Y-59477238D01*
X80458632Y-59477238D02*
X80477680Y-59458190D01*
X80477680Y-59458190D02*
X80496727Y-59420095D01*
X80496727Y-59420095D02*
X80496727Y-59305809D01*
X80496727Y-59305809D02*
X80477680Y-59267714D01*
X80477680Y-59267714D02*
X80458632Y-59248666D01*
D11*
X77451409Y-59563047D02*
X77856171Y-59563047D01*
X77856171Y-59563047D02*
X77903790Y-59586857D01*
X77903790Y-59586857D02*
X77927600Y-59610666D01*
X77927600Y-59610666D02*
X77951409Y-59658285D01*
X77951409Y-59658285D02*
X77951409Y-59753523D01*
X77951409Y-59753523D02*
X77927600Y-59801142D01*
X77927600Y-59801142D02*
X77903790Y-59824952D01*
X77903790Y-59824952D02*
X77856171Y-59848761D01*
X77856171Y-59848761D02*
X77451409Y-59848761D01*
X77451409Y-60324952D02*
X77451409Y-60086857D01*
X77451409Y-60086857D02*
X77689504Y-60063048D01*
X77689504Y-60063048D02*
X77665695Y-60086857D01*
X77665695Y-60086857D02*
X77641885Y-60134476D01*
X77641885Y-60134476D02*
X77641885Y-60253524D01*
X77641885Y-60253524D02*
X77665695Y-60301143D01*
X77665695Y-60301143D02*
X77689504Y-60324952D01*
X77689504Y-60324952D02*
X77737123Y-60348762D01*
X77737123Y-60348762D02*
X77856171Y-60348762D01*
X77856171Y-60348762D02*
X77903790Y-60324952D01*
X77903790Y-60324952D02*
X77927600Y-60301143D01*
X77927600Y-60301143D02*
X77951409Y-60253524D01*
X77951409Y-60253524D02*
X77951409Y-60134476D01*
X77951409Y-60134476D02*
X77927600Y-60086857D01*
X77927600Y-60086857D02*
X77903790Y-60063048D01*
D10*
X78235142Y-79683927D02*
X78368475Y-79493451D01*
X78463713Y-79683927D02*
X78463713Y-79283927D01*
X78463713Y-79283927D02*
X78311332Y-79283927D01*
X78311332Y-79283927D02*
X78273237Y-79302975D01*
X78273237Y-79302975D02*
X78254190Y-79322022D01*
X78254190Y-79322022D02*
X78235142Y-79360118D01*
X78235142Y-79360118D02*
X78235142Y-79417260D01*
X78235142Y-79417260D02*
X78254190Y-79455356D01*
X78254190Y-79455356D02*
X78273237Y-79474403D01*
X78273237Y-79474403D02*
X78311332Y-79493451D01*
X78311332Y-79493451D02*
X78463713Y-79493451D01*
X77854190Y-79683927D02*
X78082761Y-79683927D01*
X77968475Y-79683927D02*
X77968475Y-79283927D01*
X77968475Y-79283927D02*
X78006571Y-79341070D01*
X78006571Y-79341070D02*
X78044666Y-79379165D01*
X78044666Y-79379165D02*
X78082761Y-79398213D01*
X77606571Y-79283927D02*
X77568476Y-79283927D01*
X77568476Y-79283927D02*
X77530380Y-79302975D01*
X77530380Y-79302975D02*
X77511333Y-79322022D01*
X77511333Y-79322022D02*
X77492285Y-79360118D01*
X77492285Y-79360118D02*
X77473238Y-79436308D01*
X77473238Y-79436308D02*
X77473238Y-79531546D01*
X77473238Y-79531546D02*
X77492285Y-79607737D01*
X77492285Y-79607737D02*
X77511333Y-79645832D01*
X77511333Y-79645832D02*
X77530380Y-79664880D01*
X77530380Y-79664880D02*
X77568476Y-79683927D01*
X77568476Y-79683927D02*
X77606571Y-79683927D01*
X77606571Y-79683927D02*
X77644666Y-79664880D01*
X77644666Y-79664880D02*
X77663714Y-79645832D01*
X77663714Y-79645832D02*
X77682761Y-79607737D01*
X77682761Y-79607737D02*
X77701809Y-79531546D01*
X77701809Y-79531546D02*
X77701809Y-79436308D01*
X77701809Y-79436308D02*
X77682761Y-79360118D01*
X77682761Y-79360118D02*
X77663714Y-79322022D01*
X77663714Y-79322022D02*
X77644666Y-79302975D01*
X77644666Y-79302975D02*
X77606571Y-79283927D01*
D11*
X86595409Y-91709952D02*
X87000171Y-91709952D01*
X87000171Y-91709952D02*
X87047790Y-91733762D01*
X87047790Y-91733762D02*
X87071600Y-91757571D01*
X87071600Y-91757571D02*
X87095409Y-91805190D01*
X87095409Y-91805190D02*
X87095409Y-91900428D01*
X87095409Y-91900428D02*
X87071600Y-91948047D01*
X87071600Y-91948047D02*
X87047790Y-91971857D01*
X87047790Y-91971857D02*
X87000171Y-91995666D01*
X87000171Y-91995666D02*
X86595409Y-91995666D01*
X87095409Y-92495667D02*
X87095409Y-92209953D01*
X87095409Y-92352810D02*
X86595409Y-92352810D01*
X86595409Y-92352810D02*
X86666838Y-92305191D01*
X86666838Y-92305191D02*
X86714457Y-92257572D01*
X86714457Y-92257572D02*
X86738266Y-92209953D01*
X86595409Y-92805190D02*
X86595409Y-92852809D01*
X86595409Y-92852809D02*
X86619219Y-92900428D01*
X86619219Y-92900428D02*
X86643028Y-92924238D01*
X86643028Y-92924238D02*
X86690647Y-92948047D01*
X86690647Y-92948047D02*
X86785885Y-92971857D01*
X86785885Y-92971857D02*
X86904933Y-92971857D01*
X86904933Y-92971857D02*
X87000171Y-92948047D01*
X87000171Y-92948047D02*
X87047790Y-92924238D01*
X87047790Y-92924238D02*
X87071600Y-92900428D01*
X87071600Y-92900428D02*
X87095409Y-92852809D01*
X87095409Y-92852809D02*
X87095409Y-92805190D01*
X87095409Y-92805190D02*
X87071600Y-92757571D01*
X87071600Y-92757571D02*
X87047790Y-92733762D01*
X87047790Y-92733762D02*
X87000171Y-92709952D01*
X87000171Y-92709952D02*
X86904933Y-92686143D01*
X86904933Y-92686143D02*
X86785885Y-92686143D01*
X86785885Y-92686143D02*
X86690647Y-92709952D01*
X86690647Y-92709952D02*
X86643028Y-92733762D01*
X86643028Y-92733762D02*
X86619219Y-92757571D01*
X86619219Y-92757571D02*
X86595409Y-92805190D01*
D10*
X78044666Y-67237927D02*
X78177999Y-67047451D01*
X78273237Y-67237927D02*
X78273237Y-66837927D01*
X78273237Y-66837927D02*
X78120856Y-66837927D01*
X78120856Y-66837927D02*
X78082761Y-66856975D01*
X78082761Y-66856975D02*
X78063714Y-66876022D01*
X78063714Y-66876022D02*
X78044666Y-66914118D01*
X78044666Y-66914118D02*
X78044666Y-66971260D01*
X78044666Y-66971260D02*
X78063714Y-67009356D01*
X78063714Y-67009356D02*
X78082761Y-67028403D01*
X78082761Y-67028403D02*
X78120856Y-67047451D01*
X78120856Y-67047451D02*
X78273237Y-67047451D01*
X77701809Y-66837927D02*
X77777999Y-66837927D01*
X77777999Y-66837927D02*
X77816095Y-66856975D01*
X77816095Y-66856975D02*
X77835142Y-66876022D01*
X77835142Y-66876022D02*
X77873237Y-66933165D01*
X77873237Y-66933165D02*
X77892285Y-67009356D01*
X77892285Y-67009356D02*
X77892285Y-67161737D01*
X77892285Y-67161737D02*
X77873237Y-67199832D01*
X77873237Y-67199832D02*
X77854190Y-67218880D01*
X77854190Y-67218880D02*
X77816095Y-67237927D01*
X77816095Y-67237927D02*
X77739904Y-67237927D01*
X77739904Y-67237927D02*
X77701809Y-67218880D01*
X77701809Y-67218880D02*
X77682761Y-67199832D01*
X77682761Y-67199832D02*
X77663714Y-67161737D01*
X77663714Y-67161737D02*
X77663714Y-67066499D01*
X77663714Y-67066499D02*
X77682761Y-67028403D01*
X77682761Y-67028403D02*
X77701809Y-67009356D01*
X77701809Y-67009356D02*
X77739904Y-66990308D01*
X77739904Y-66990308D02*
X77816095Y-66990308D01*
X77816095Y-66990308D02*
X77854190Y-67009356D01*
X77854190Y-67009356D02*
X77873237Y-67028403D01*
X77873237Y-67028403D02*
X77892285Y-67066499D01*
X89843927Y-95627857D02*
X89653451Y-95494524D01*
X89843927Y-95399286D02*
X89443927Y-95399286D01*
X89443927Y-95399286D02*
X89443927Y-95551667D01*
X89443927Y-95551667D02*
X89462975Y-95589762D01*
X89462975Y-95589762D02*
X89482022Y-95608809D01*
X89482022Y-95608809D02*
X89520118Y-95627857D01*
X89520118Y-95627857D02*
X89577260Y-95627857D01*
X89577260Y-95627857D02*
X89615356Y-95608809D01*
X89615356Y-95608809D02*
X89634403Y-95589762D01*
X89634403Y-95589762D02*
X89653451Y-95551667D01*
X89653451Y-95551667D02*
X89653451Y-95399286D01*
X89482022Y-95780238D02*
X89462975Y-95799286D01*
X89462975Y-95799286D02*
X89443927Y-95837381D01*
X89443927Y-95837381D02*
X89443927Y-95932619D01*
X89443927Y-95932619D02*
X89462975Y-95970714D01*
X89462975Y-95970714D02*
X89482022Y-95989762D01*
X89482022Y-95989762D02*
X89520118Y-96008809D01*
X89520118Y-96008809D02*
X89558213Y-96008809D01*
X89558213Y-96008809D02*
X89615356Y-95989762D01*
X89615356Y-95989762D02*
X89843927Y-95761190D01*
X89843927Y-95761190D02*
X89843927Y-96008809D01*
X89443927Y-96256428D02*
X89443927Y-96294523D01*
X89443927Y-96294523D02*
X89462975Y-96332619D01*
X89462975Y-96332619D02*
X89482022Y-96351666D01*
X89482022Y-96351666D02*
X89520118Y-96370714D01*
X89520118Y-96370714D02*
X89596308Y-96389761D01*
X89596308Y-96389761D02*
X89691546Y-96389761D01*
X89691546Y-96389761D02*
X89767737Y-96370714D01*
X89767737Y-96370714D02*
X89805832Y-96351666D01*
X89805832Y-96351666D02*
X89824880Y-96332619D01*
X89824880Y-96332619D02*
X89843927Y-96294523D01*
X89843927Y-96294523D02*
X89843927Y-96256428D01*
X89843927Y-96256428D02*
X89824880Y-96218333D01*
X89824880Y-96218333D02*
X89805832Y-96199285D01*
X89805832Y-96199285D02*
X89767737Y-96180238D01*
X89767737Y-96180238D02*
X89691546Y-96161190D01*
X89691546Y-96161190D02*
X89596308Y-96161190D01*
X89596308Y-96161190D02*
X89520118Y-96180238D01*
X89520118Y-96180238D02*
X89482022Y-96199285D01*
X89482022Y-96199285D02*
X89462975Y-96218333D01*
X89462975Y-96218333D02*
X89443927Y-96256428D01*
X78019166Y-51997927D02*
X78152499Y-51807451D01*
X78247737Y-51997927D02*
X78247737Y-51597927D01*
X78247737Y-51597927D02*
X78095356Y-51597927D01*
X78095356Y-51597927D02*
X78057261Y-51616975D01*
X78057261Y-51616975D02*
X78038214Y-51636022D01*
X78038214Y-51636022D02*
X78019166Y-51674118D01*
X78019166Y-51674118D02*
X78019166Y-51731260D01*
X78019166Y-51731260D02*
X78038214Y-51769356D01*
X78038214Y-51769356D02*
X78057261Y-51788403D01*
X78057261Y-51788403D02*
X78095356Y-51807451D01*
X78095356Y-51807451D02*
X78247737Y-51807451D01*
X77866785Y-51636022D02*
X77847737Y-51616975D01*
X77847737Y-51616975D02*
X77809642Y-51597927D01*
X77809642Y-51597927D02*
X77714404Y-51597927D01*
X77714404Y-51597927D02*
X77676309Y-51616975D01*
X77676309Y-51616975D02*
X77657261Y-51636022D01*
X77657261Y-51636022D02*
X77638214Y-51674118D01*
X77638214Y-51674118D02*
X77638214Y-51712213D01*
X77638214Y-51712213D02*
X77657261Y-51769356D01*
X77657261Y-51769356D02*
X77885833Y-51997927D01*
X77885833Y-51997927D02*
X77638214Y-51997927D01*
X89843927Y-91817857D02*
X89653451Y-91684524D01*
X89843927Y-91589286D02*
X89443927Y-91589286D01*
X89443927Y-91589286D02*
X89443927Y-91741667D01*
X89443927Y-91741667D02*
X89462975Y-91779762D01*
X89462975Y-91779762D02*
X89482022Y-91798809D01*
X89482022Y-91798809D02*
X89520118Y-91817857D01*
X89520118Y-91817857D02*
X89577260Y-91817857D01*
X89577260Y-91817857D02*
X89615356Y-91798809D01*
X89615356Y-91798809D02*
X89634403Y-91779762D01*
X89634403Y-91779762D02*
X89653451Y-91741667D01*
X89653451Y-91741667D02*
X89653451Y-91589286D01*
X89843927Y-92198809D02*
X89843927Y-91970238D01*
X89843927Y-92084524D02*
X89443927Y-92084524D01*
X89443927Y-92084524D02*
X89501070Y-92046428D01*
X89501070Y-92046428D02*
X89539165Y-92008333D01*
X89539165Y-92008333D02*
X89558213Y-91970238D01*
X89843927Y-92389285D02*
X89843927Y-92465476D01*
X89843927Y-92465476D02*
X89824880Y-92503571D01*
X89824880Y-92503571D02*
X89805832Y-92522619D01*
X89805832Y-92522619D02*
X89748689Y-92560714D01*
X89748689Y-92560714D02*
X89672499Y-92579761D01*
X89672499Y-92579761D02*
X89520118Y-92579761D01*
X89520118Y-92579761D02*
X89482022Y-92560714D01*
X89482022Y-92560714D02*
X89462975Y-92541666D01*
X89462975Y-92541666D02*
X89443927Y-92503571D01*
X89443927Y-92503571D02*
X89443927Y-92427380D01*
X89443927Y-92427380D02*
X89462975Y-92389285D01*
X89462975Y-92389285D02*
X89482022Y-92370238D01*
X89482022Y-92370238D02*
X89520118Y-92351190D01*
X89520118Y-92351190D02*
X89615356Y-92351190D01*
X89615356Y-92351190D02*
X89653451Y-92370238D01*
X89653451Y-92370238D02*
X89672499Y-92389285D01*
X89672499Y-92389285D02*
X89691546Y-92427380D01*
X89691546Y-92427380D02*
X89691546Y-92503571D01*
X89691546Y-92503571D02*
X89672499Y-92541666D01*
X89672499Y-92541666D02*
X89653451Y-92560714D01*
X89653451Y-92560714D02*
X89615356Y-92579761D01*
D11*
X77451409Y-53975047D02*
X77856171Y-53975047D01*
X77856171Y-53975047D02*
X77903790Y-53998857D01*
X77903790Y-53998857D02*
X77927600Y-54022666D01*
X77927600Y-54022666D02*
X77951409Y-54070285D01*
X77951409Y-54070285D02*
X77951409Y-54165523D01*
X77951409Y-54165523D02*
X77927600Y-54213142D01*
X77927600Y-54213142D02*
X77903790Y-54236952D01*
X77903790Y-54236952D02*
X77856171Y-54260761D01*
X77856171Y-54260761D02*
X77451409Y-54260761D01*
X77451409Y-54713143D02*
X77451409Y-54617905D01*
X77451409Y-54617905D02*
X77475219Y-54570286D01*
X77475219Y-54570286D02*
X77499028Y-54546476D01*
X77499028Y-54546476D02*
X77570457Y-54498857D01*
X77570457Y-54498857D02*
X77665695Y-54475048D01*
X77665695Y-54475048D02*
X77856171Y-54475048D01*
X77856171Y-54475048D02*
X77903790Y-54498857D01*
X77903790Y-54498857D02*
X77927600Y-54522667D01*
X77927600Y-54522667D02*
X77951409Y-54570286D01*
X77951409Y-54570286D02*
X77951409Y-54665524D01*
X77951409Y-54665524D02*
X77927600Y-54713143D01*
X77927600Y-54713143D02*
X77903790Y-54736952D01*
X77903790Y-54736952D02*
X77856171Y-54760762D01*
X77856171Y-54760762D02*
X77737123Y-54760762D01*
X77737123Y-54760762D02*
X77689504Y-54736952D01*
X77689504Y-54736952D02*
X77665695Y-54713143D01*
X77665695Y-54713143D02*
X77641885Y-54665524D01*
X77641885Y-54665524D02*
X77641885Y-54570286D01*
X77641885Y-54570286D02*
X77665695Y-54522667D01*
X77665695Y-54522667D02*
X77689504Y-54498857D01*
X77689504Y-54498857D02*
X77737123Y-54475048D01*
X77999028Y-93932380D02*
X77975219Y-93884761D01*
X77975219Y-93884761D02*
X77927600Y-93837142D01*
X77927600Y-93837142D02*
X77856171Y-93765714D01*
X77856171Y-93765714D02*
X77832361Y-93718095D01*
X77832361Y-93718095D02*
X77832361Y-93670476D01*
X77951409Y-93694285D02*
X77927600Y-93646666D01*
X77927600Y-93646666D02*
X77879980Y-93599047D01*
X77879980Y-93599047D02*
X77784742Y-93575238D01*
X77784742Y-93575238D02*
X77618076Y-93575238D01*
X77618076Y-93575238D02*
X77522838Y-93599047D01*
X77522838Y-93599047D02*
X77475219Y-93646666D01*
X77475219Y-93646666D02*
X77451409Y-93694285D01*
X77451409Y-93694285D02*
X77451409Y-93789523D01*
X77451409Y-93789523D02*
X77475219Y-93837142D01*
X77475219Y-93837142D02*
X77522838Y-93884761D01*
X77522838Y-93884761D02*
X77618076Y-93908571D01*
X77618076Y-93908571D02*
X77784742Y-93908571D01*
X77784742Y-93908571D02*
X77879980Y-93884761D01*
X77879980Y-93884761D02*
X77927600Y-93837142D01*
X77927600Y-93837142D02*
X77951409Y-93789523D01*
X77951409Y-93789523D02*
X77951409Y-93694285D01*
X77951409Y-94384762D02*
X77951409Y-94099048D01*
X77951409Y-94241905D02*
X77451409Y-94241905D01*
X77451409Y-94241905D02*
X77522838Y-94194286D01*
X77522838Y-94194286D02*
X77570457Y-94146667D01*
X77570457Y-94146667D02*
X77594266Y-94099048D01*
X77451409Y-81661047D02*
X77856171Y-81661047D01*
X77856171Y-81661047D02*
X77903790Y-81684857D01*
X77903790Y-81684857D02*
X77927600Y-81708666D01*
X77927600Y-81708666D02*
X77951409Y-81756285D01*
X77951409Y-81756285D02*
X77951409Y-81851523D01*
X77951409Y-81851523D02*
X77927600Y-81899142D01*
X77927600Y-81899142D02*
X77903790Y-81922952D01*
X77903790Y-81922952D02*
X77856171Y-81946761D01*
X77856171Y-81946761D02*
X77451409Y-81946761D01*
X77499028Y-82161048D02*
X77475219Y-82184857D01*
X77475219Y-82184857D02*
X77451409Y-82232476D01*
X77451409Y-82232476D02*
X77451409Y-82351524D01*
X77451409Y-82351524D02*
X77475219Y-82399143D01*
X77475219Y-82399143D02*
X77499028Y-82422952D01*
X77499028Y-82422952D02*
X77546647Y-82446762D01*
X77546647Y-82446762D02*
X77594266Y-82446762D01*
X77594266Y-82446762D02*
X77665695Y-82422952D01*
X77665695Y-82422952D02*
X77951409Y-82137238D01*
X77951409Y-82137238D02*
X77951409Y-82446762D01*
D10*
X89843927Y-88007857D02*
X89653451Y-87874524D01*
X89843927Y-87779286D02*
X89443927Y-87779286D01*
X89443927Y-87779286D02*
X89443927Y-87931667D01*
X89443927Y-87931667D02*
X89462975Y-87969762D01*
X89462975Y-87969762D02*
X89482022Y-87988809D01*
X89482022Y-87988809D02*
X89520118Y-88007857D01*
X89520118Y-88007857D02*
X89577260Y-88007857D01*
X89577260Y-88007857D02*
X89615356Y-87988809D01*
X89615356Y-87988809D02*
X89634403Y-87969762D01*
X89634403Y-87969762D02*
X89653451Y-87931667D01*
X89653451Y-87931667D02*
X89653451Y-87779286D01*
X89843927Y-88388809D02*
X89843927Y-88160238D01*
X89843927Y-88274524D02*
X89443927Y-88274524D01*
X89443927Y-88274524D02*
X89501070Y-88236428D01*
X89501070Y-88236428D02*
X89539165Y-88198333D01*
X89539165Y-88198333D02*
X89558213Y-88160238D01*
X89443927Y-88522142D02*
X89443927Y-88788809D01*
X89443927Y-88788809D02*
X89843927Y-88617380D01*
D11*
X86595409Y-95519952D02*
X87000171Y-95519952D01*
X87000171Y-95519952D02*
X87047790Y-95543762D01*
X87047790Y-95543762D02*
X87071600Y-95567571D01*
X87071600Y-95567571D02*
X87095409Y-95615190D01*
X87095409Y-95615190D02*
X87095409Y-95710428D01*
X87095409Y-95710428D02*
X87071600Y-95758047D01*
X87071600Y-95758047D02*
X87047790Y-95781857D01*
X87047790Y-95781857D02*
X87000171Y-95805666D01*
X87000171Y-95805666D02*
X86595409Y-95805666D01*
X87095409Y-96305667D02*
X87095409Y-96019953D01*
X87095409Y-96162810D02*
X86595409Y-96162810D01*
X86595409Y-96162810D02*
X86666838Y-96115191D01*
X86666838Y-96115191D02*
X86714457Y-96067572D01*
X86714457Y-96067572D02*
X86738266Y-96019953D01*
X87095409Y-96781857D02*
X87095409Y-96496143D01*
X87095409Y-96639000D02*
X86595409Y-96639000D01*
X86595409Y-96639000D02*
X86666838Y-96591381D01*
X86666838Y-96591381D02*
X86714457Y-96543762D01*
X86714457Y-96543762D02*
X86738266Y-96496143D01*
D13*
X90024000Y-82334000D02*
X90824000Y-82334000D01*
X90824000Y-82334000D02*
X90824000Y-80734000D01*
X90024000Y-80734000D02*
X90024000Y-82334000D01*
X90824000Y-80734000D02*
X90024000Y-80734000D01*
X78778000Y-57804000D02*
X78778000Y-57004000D01*
X78778000Y-57004000D02*
X77178000Y-57004000D01*
X77178000Y-57804000D02*
X78778000Y-57804000D01*
X77178000Y-57004000D02*
X77178000Y-57804000D01*
X91548000Y-66459000D02*
X92348000Y-66459000D01*
X92348000Y-66459000D02*
X92348000Y-64859000D01*
X91548000Y-64859000D02*
X91548000Y-66459000D01*
X92348000Y-64859000D02*
X91548000Y-64859000D01*
X78549000Y-68496000D02*
X78549000Y-71121000D01*
X78549000Y-68496000D02*
X78149000Y-68071000D01*
X76899000Y-71121000D02*
X78549000Y-71121000D01*
X76899000Y-68071000D02*
X78149000Y-68071000D01*
X76899000Y-68071000D02*
X76899000Y-71121000D01*
X88500000Y-82334000D02*
X89300000Y-82334000D01*
X89300000Y-82334000D02*
X89300000Y-80734000D01*
X88500000Y-80734000D02*
X88500000Y-82334000D01*
X89300000Y-80734000D02*
X88500000Y-80734000D01*
X90024000Y-66459000D02*
X90824000Y-66459000D01*
X90824000Y-66459000D02*
X90824000Y-64859000D01*
X90024000Y-64859000D02*
X90024000Y-66459000D01*
X90824000Y-64859000D02*
X90024000Y-64859000D01*
X80714800Y-80480000D02*
X79914800Y-80480000D01*
X79914800Y-80480000D02*
X79914800Y-82080000D01*
X80714800Y-82080000D02*
X80714800Y-80480000D01*
X79914800Y-82080000D02*
X80714800Y-82080000D01*
X78549000Y-74338000D02*
X78549000Y-76963000D01*
X78549000Y-74338000D02*
X78149000Y-73913000D01*
X76899000Y-76963000D02*
X78549000Y-76963000D01*
X76899000Y-73913000D02*
X78149000Y-73913000D01*
X76899000Y-73913000D02*
X76899000Y-76963000D01*
X93483000Y-99760000D02*
X93483000Y-98360000D01*
X93483000Y-98360000D02*
X91683000Y-98360000D01*
X92883000Y-99060000D02*
X93083000Y-99060000D01*
X92883000Y-99060000D02*
X92383000Y-98710000D01*
X92883000Y-98710000D02*
X92883000Y-99410000D01*
X92383000Y-99410000D02*
X92883000Y-99060000D01*
X92383000Y-99060000D02*
X92133000Y-99060000D01*
X92383000Y-98710000D02*
X92383000Y-99410000D01*
X91683000Y-99760000D02*
X93483000Y-99760000D01*
X91683000Y-98360000D02*
X91683000Y-99760000D01*
X80664000Y-91452800D02*
X79864000Y-91452800D01*
X79864000Y-91452800D02*
X79864000Y-93052800D01*
X80664000Y-93052800D02*
X80664000Y-91452800D01*
X79864000Y-93052800D02*
X80664000Y-93052800D01*
X80714800Y-52794000D02*
X79914800Y-52794000D01*
X79914800Y-52794000D02*
X79914800Y-54394000D01*
X80714800Y-54394000D02*
X80714800Y-52794000D01*
X79914800Y-54394000D02*
X80714800Y-54394000D01*
X78778000Y-73298000D02*
X78778000Y-72498000D01*
X78778000Y-72498000D02*
X77178000Y-72498000D01*
X77178000Y-73298000D02*
X78778000Y-73298000D01*
X77178000Y-72498000D02*
X77178000Y-73298000D01*
X91548000Y-82334000D02*
X92348000Y-82334000D01*
X92348000Y-82334000D02*
X92348000Y-80734000D01*
X91548000Y-80734000D02*
X91548000Y-82334000D01*
X92348000Y-80734000D02*
X91548000Y-80734000D01*
X88500000Y-66459000D02*
X89300000Y-66459000D01*
X89300000Y-66459000D02*
X89300000Y-64859000D01*
X88500000Y-64859000D02*
X88500000Y-66459000D01*
X89300000Y-64859000D02*
X88500000Y-64859000D01*
X85968000Y-89419000D02*
X85968000Y-86969000D01*
X85968000Y-89419000D02*
X86618000Y-90069000D01*
X87768000Y-86969000D02*
X85968000Y-86969000D01*
X87768000Y-90069000D02*
X86618000Y-90069000D01*
X87768000Y-90069000D02*
X87768000Y-86969000D01*
X92453000Y-74250000D02*
X83528000Y-74250000D01*
X83528000Y-74250000D02*
X82553000Y-75225000D01*
X82553000Y-75225000D02*
X82553000Y-78150000D01*
X92453000Y-78150000D02*
X92453000Y-74250000D01*
X82553000Y-78150000D02*
X92453000Y-78150000D01*
X80714800Y-73876000D02*
X79914800Y-73876000D01*
X79914800Y-73876000D02*
X79914800Y-75476000D01*
X80714800Y-75476000D02*
X80714800Y-73876000D01*
X79914800Y-75476000D02*
X80714800Y-75476000D01*
X80714800Y-68034000D02*
X79914800Y-68034000D01*
X79914800Y-68034000D02*
X79914800Y-69634000D01*
X80714800Y-69634000D02*
X80714800Y-68034000D01*
X79914800Y-69634000D02*
X80714800Y-69634000D01*
X92453000Y-58375000D02*
X83528000Y-58375000D01*
X83528000Y-58375000D02*
X82553000Y-59350000D01*
X82553000Y-59350000D02*
X82553000Y-62275000D01*
X92453000Y-62275000D02*
X92453000Y-58375000D01*
X82553000Y-62275000D02*
X92453000Y-62275000D01*
X80714800Y-58382000D02*
X79914800Y-58382000D01*
X79914800Y-58382000D02*
X79914800Y-59982000D01*
X80714800Y-59982000D02*
X80714800Y-58382000D01*
X79914800Y-59982000D02*
X80714800Y-59982000D01*
X78549000Y-58844000D02*
X78549000Y-61469000D01*
X78549000Y-58844000D02*
X78149000Y-58419000D01*
X76899000Y-61469000D02*
X78549000Y-61469000D01*
X76899000Y-58419000D02*
X78149000Y-58419000D01*
X76899000Y-58419000D02*
X76899000Y-61469000D01*
X78778000Y-79902000D02*
X78778000Y-79102000D01*
X78778000Y-79102000D02*
X77178000Y-79102000D01*
X77178000Y-79902000D02*
X78778000Y-79902000D01*
X77178000Y-79102000D02*
X77178000Y-79902000D01*
X85968000Y-93229000D02*
X85968000Y-90779000D01*
X85968000Y-93229000D02*
X86618000Y-93879000D01*
X87768000Y-90779000D02*
X85968000Y-90779000D01*
X87768000Y-93879000D02*
X86618000Y-93879000D01*
X87768000Y-93879000D02*
X87768000Y-90779000D01*
X78778000Y-67456000D02*
X78778000Y-66656000D01*
X78778000Y-66656000D02*
X77178000Y-66656000D01*
X77178000Y-67456000D02*
X78778000Y-67456000D01*
X77178000Y-66656000D02*
X77178000Y-67456000D01*
X89262000Y-96685000D02*
X90062000Y-96685000D01*
X90062000Y-96685000D02*
X90062000Y-95085000D01*
X89262000Y-95085000D02*
X89262000Y-96685000D01*
X90062000Y-95085000D02*
X89262000Y-95085000D01*
X78752500Y-52216000D02*
X78752500Y-51416000D01*
X78752500Y-51416000D02*
X77152500Y-51416000D01*
X77152500Y-52216000D02*
X78752500Y-52216000D01*
X77152500Y-51416000D02*
X77152500Y-52216000D01*
X89262000Y-92875000D02*
X90062000Y-92875000D01*
X90062000Y-92875000D02*
X90062000Y-91275000D01*
X89262000Y-91275000D02*
X89262000Y-92875000D01*
X90062000Y-91275000D02*
X89262000Y-91275000D01*
X78549000Y-53256000D02*
X78549000Y-55881000D01*
X78549000Y-53256000D02*
X78149000Y-52831000D01*
X76899000Y-55881000D02*
X78549000Y-55881000D01*
X76899000Y-52831000D02*
X78149000Y-52831000D01*
X76899000Y-52831000D02*
X76899000Y-55881000D01*
X78424000Y-95500000D02*
X77024000Y-95500000D01*
X78424000Y-93030000D02*
X78424000Y-95480000D01*
X78424000Y-93030000D02*
X77874000Y-92460000D01*
X77874000Y-92460000D02*
X77024000Y-92460000D01*
X77024000Y-92460000D02*
X77024000Y-95500000D01*
X78549000Y-80942000D02*
X78549000Y-83567000D01*
X78549000Y-80942000D02*
X78149000Y-80517000D01*
X76899000Y-83567000D02*
X78549000Y-83567000D01*
X76899000Y-80517000D02*
X78149000Y-80517000D01*
X76899000Y-80517000D02*
X76899000Y-83567000D01*
X89262000Y-89065000D02*
X90062000Y-89065000D01*
X90062000Y-89065000D02*
X90062000Y-87465000D01*
X89262000Y-87465000D02*
X89262000Y-89065000D01*
X90062000Y-87465000D02*
X89262000Y-87465000D01*
X85968000Y-97039000D02*
X85968000Y-94589000D01*
X85968000Y-97039000D02*
X86618000Y-97689000D01*
X87768000Y-94589000D02*
X85968000Y-94589000D01*
X87768000Y-97689000D02*
X86618000Y-97689000D01*
X87768000Y-97689000D02*
X87768000Y-94589000D01*
M02*
