%TF.GenerationSoftware,KiCad,Pcbnew,7.0.6*%
%TF.CreationDate,2023-12-10T22:56:54+01:00*%
%TF.ProjectId,blue_64,626c7565-5f36-4342-9e6b-696361645f70,rev?*%
%TF.SameCoordinates,Original*%
%TF.FileFunction,Copper,L3,Inr*%
%TF.FilePolarity,Positive*%
%FSLAX46Y46*%
G04 Gerber Fmt 4.6, Leading zero omitted, Abs format (unit mm)*
G04 Created by KiCad (PCBNEW 7.0.6) date 2023-12-10 22:56:54*
%MOMM*%
%LPD*%
G01*
G04 APERTURE LIST*
%TA.AperFunction,ComponentPad*%
%ADD10R,1.700000X1.700000*%
%TD*%
%TA.AperFunction,ComponentPad*%
%ADD11O,1.700000X1.700000*%
%TD*%
%TA.AperFunction,ComponentPad*%
%ADD12C,1.700000*%
%TD*%
%TA.AperFunction,ViaPad*%
%ADD13C,0.600000*%
%TD*%
G04 APERTURE END LIST*
D10*
X71120000Y-50800000D03*
D11*
X73660000Y-50800000D03*
X71120000Y-53340000D03*
X73660000Y-53340000D03*
X71120000Y-55880000D03*
X73660000Y-55880000D03*
X71120000Y-58420000D03*
X73660000Y-58420000D03*
X71120000Y-60960000D03*
X73660000Y-60960000D03*
X71120000Y-63500000D03*
X73660000Y-63500000D03*
X71120000Y-66040000D03*
X73660000Y-66040000D03*
X71120000Y-68580000D03*
X73660000Y-68580000D03*
X71120000Y-71120000D03*
X73660000Y-71120000D03*
X71120000Y-73660000D03*
X73660000Y-73660000D03*
X71120000Y-76200000D03*
X73660000Y-76200000D03*
X71120000Y-78740000D03*
X73660000Y-78740000D03*
X71120000Y-81280000D03*
X73660000Y-81280000D03*
X71120000Y-83820000D03*
X73660000Y-83820000D03*
X71120000Y-86360000D03*
X73660000Y-86360000D03*
X71120000Y-88900000D03*
X73660000Y-88900000D03*
X71120000Y-91440000D03*
X73660000Y-91440000D03*
X71120000Y-93980000D03*
X73660000Y-93980000D03*
X71120000Y-96520000D03*
X73660000Y-96520000D03*
X71120000Y-99060000D03*
X73660000Y-99060000D03*
D12*
X121920000Y-86360000D03*
X121920000Y-88900000D03*
X96520000Y-53340000D03*
X121920000Y-83820000D03*
X121920000Y-76200000D03*
X96520000Y-99060000D03*
X96520000Y-83820000D03*
X96520000Y-88900000D03*
X96520000Y-81280000D03*
X121920000Y-91440000D03*
X121920000Y-81280000D03*
X121920000Y-78740000D03*
X121920000Y-73660000D03*
X121920000Y-71120000D03*
X121920000Y-66040000D03*
X121920000Y-58420000D03*
X121920000Y-55880000D03*
X96520000Y-73660000D03*
X96520000Y-76200000D03*
X96520000Y-78740000D03*
X96520000Y-68580000D03*
X96520000Y-71120000D03*
X96520000Y-63500000D03*
X96520000Y-66040000D03*
X121920000Y-99060000D03*
X96520000Y-96520000D03*
X121920000Y-96520000D03*
X121920000Y-93980000D03*
X96520000Y-91440000D03*
X96520000Y-93980000D03*
X96520000Y-55880000D03*
X96520000Y-86360000D03*
X121920000Y-53340000D03*
X121920000Y-68580000D03*
X121920000Y-63500000D03*
X121920000Y-60960000D03*
X96520000Y-60960000D03*
X96520000Y-58420000D03*
D13*
X111887000Y-99695000D03*
X106172000Y-73152000D03*
X81153000Y-99949000D03*
X75692000Y-82931000D03*
X84201000Y-90170000D03*
X101219000Y-73279000D03*
X84201000Y-97917000D03*
X81915000Y-53467000D03*
X108331000Y-95758000D03*
X108839000Y-87503000D03*
X117094000Y-71247000D03*
X113665000Y-95631000D03*
X79883000Y-94869000D03*
X110744000Y-55245000D03*
X94234000Y-58674000D03*
X114554000Y-67183000D03*
X72390000Y-80010000D03*
X89789000Y-67945000D03*
X98171000Y-73914000D03*
X83566000Y-82931000D03*
X79629000Y-62865000D03*
X72390000Y-74930000D03*
X106172000Y-84201000D03*
X92583000Y-93853000D03*
X101219000Y-83947000D03*
X75819000Y-73025000D03*
X98679000Y-71120000D03*
X120269000Y-76200000D03*
X113157000Y-73279000D03*
X93980000Y-90932000D03*
X98679000Y-63500000D03*
X75692000Y-55245000D03*
X94488000Y-53213000D03*
X116078000Y-53340000D03*
X107188000Y-53467000D03*
X89535000Y-71501000D03*
X107061000Y-76708000D03*
X72390000Y-97790000D03*
X111506000Y-83947000D03*
X75311000Y-91440000D03*
X77470000Y-82931000D03*
X94361000Y-71120000D03*
X72390000Y-59690000D03*
X100838000Y-60198000D03*
X72390000Y-52070000D03*
X77470000Y-98298000D03*
X93472000Y-78105000D03*
X98679000Y-58420000D03*
X72390000Y-95250000D03*
X72390000Y-69850000D03*
X83058000Y-54356000D03*
X77470000Y-60833000D03*
X72390000Y-62230000D03*
X77470000Y-70485000D03*
X91948000Y-88773000D03*
X92456000Y-68072000D03*
X77470000Y-76327000D03*
X115570000Y-87757000D03*
X84709000Y-91313000D03*
X101727000Y-64135000D03*
X81788000Y-66294000D03*
X72390000Y-64770000D03*
X120650000Y-82423000D03*
X84836000Y-87503000D03*
X84455000Y-67691000D03*
X110490000Y-64008000D03*
X102997000Y-55372000D03*
X77978000Y-68580000D03*
X77978000Y-53340000D03*
X112014000Y-90805000D03*
X102743000Y-87503000D03*
X75692000Y-60833000D03*
X92710000Y-83566000D03*
X87503000Y-96139000D03*
X105537000Y-99695000D03*
X75819000Y-57785000D03*
X116967000Y-60325000D03*
X80264000Y-78740000D03*
X81153000Y-97028000D03*
X88646000Y-54229000D03*
X91948000Y-59690000D03*
X103759000Y-79502000D03*
X77978000Y-58928000D03*
X84836000Y-56007000D03*
X75692000Y-70485000D03*
X86995000Y-86741000D03*
X94488000Y-60960000D03*
X72390000Y-90170000D03*
X113792000Y-76581000D03*
X84074000Y-93980000D03*
X120269000Y-66040000D03*
X120269000Y-58420000D03*
X75311000Y-95250000D03*
X105283000Y-63500000D03*
X98933000Y-83820000D03*
X86995000Y-88519000D03*
X101346000Y-76835000D03*
X81407000Y-73660000D03*
X93472000Y-79883000D03*
X77978000Y-81026000D03*
X86487000Y-100076000D03*
X88138000Y-84201000D03*
X110490000Y-79502000D03*
X106045000Y-90805000D03*
X120269000Y-60960000D03*
X77978000Y-74422000D03*
X89408000Y-59690000D03*
X98679000Y-76200000D03*
X91694000Y-55499000D03*
X72390000Y-77470000D03*
X116967000Y-79248000D03*
X75692000Y-76327000D03*
X105791000Y-58547000D03*
X94361000Y-82296000D03*
X120269000Y-71120000D03*
X98679000Y-66040000D03*
X91059000Y-95758000D03*
X76835000Y-49022000D03*
X75438000Y-85090000D03*
X81153000Y-89408000D03*
X76835000Y-62865000D03*
X83820000Y-75692000D03*
X87630000Y-59690000D03*
X84328000Y-49784000D03*
X99568000Y-99822000D03*
X72390000Y-67310000D03*
X98679000Y-78740000D03*
X86106000Y-59690000D03*
X91948000Y-75438000D03*
X80391000Y-51308000D03*
X116713000Y-63627000D03*
X118872000Y-94488000D03*
X87503000Y-50419000D03*
X109982000Y-60071000D03*
X88392000Y-75438000D03*
X72390000Y-72390000D03*
X75311000Y-88900000D03*
X72390000Y-57150000D03*
X102235000Y-95758000D03*
X80010000Y-72136000D03*
X98679000Y-53340000D03*
X120269000Y-73660000D03*
X114427000Y-58166000D03*
X81534000Y-56896000D03*
X75819000Y-79375000D03*
X120650000Y-80137000D03*
X109982000Y-71374000D03*
X82550000Y-84836000D03*
X108839000Y-67183000D03*
X72390000Y-49530000D03*
X72390000Y-92710000D03*
X117856000Y-83693000D03*
X81280000Y-81534000D03*
X83947000Y-59436000D03*
X120269000Y-55880000D03*
X83693000Y-71501000D03*
X103632000Y-71247000D03*
X120269000Y-90424000D03*
X84709000Y-95123000D03*
X72390000Y-54610000D03*
X77470000Y-55245000D03*
X103759000Y-67183000D03*
X117475000Y-99314000D03*
X89789000Y-83820000D03*
X78359000Y-86741000D03*
X87503000Y-92329000D03*
X89789000Y-49149000D03*
X100584000Y-90932000D03*
X81280000Y-60579000D03*
X90297000Y-99060000D03*
X91313000Y-98044000D03*
X82296000Y-62865000D03*
X82296000Y-78740000D03*
X88011000Y-94107000D03*
X91313000Y-100076000D03*
X88011000Y-90297000D03*
X88011000Y-97917000D03*
X81407000Y-52832000D03*
X79756000Y-51816000D03*
X83185000Y-76454000D03*
X81026000Y-74422000D03*
X84645500Y-75247500D03*
X79502000Y-72898000D03*
X84455000Y-82550000D03*
X79756000Y-79502000D03*
X83312000Y-83820000D03*
X81407000Y-80645000D03*
X88900000Y-67310000D03*
X90424000Y-67310000D03*
X91948000Y-67310000D03*
X88900000Y-83185000D03*
X90424000Y-83185000D03*
X91948000Y-83185000D03*
X89408000Y-72390000D03*
X84709000Y-93345000D03*
X83058000Y-72136000D03*
X86868000Y-59309000D03*
X84709000Y-88519000D03*
X85598000Y-72390000D03*
X85344000Y-59309000D03*
X84709000Y-92329000D03*
X88392000Y-59309000D03*
X84328000Y-72136000D03*
X84709000Y-89535000D03*
X84582000Y-97155000D03*
%TA.AperFunction,Conductor*%
G36*
X73200507Y-98850156D02*
G01*
X73160000Y-98988111D01*
X73160000Y-99131889D01*
X73200507Y-99269844D01*
X73226314Y-99310000D01*
X71553686Y-99310000D01*
X71579493Y-99269844D01*
X71620000Y-99131889D01*
X71620000Y-98988111D01*
X71579493Y-98850156D01*
X71553686Y-98810000D01*
X73226314Y-98810000D01*
X73200507Y-98850156D01*
G37*
%TD.AperFunction*%
%TA.AperFunction,Conductor*%
G36*
X90176620Y-48304407D02*
G01*
X90188433Y-48314496D01*
X93944458Y-52070521D01*
X93950443Y-52079479D01*
X93960482Y-52089517D01*
X93974927Y-52095500D01*
X93980000Y-52097601D01*
X93994205Y-52097601D01*
X94004766Y-52095500D01*
X96156385Y-52095500D01*
X96214576Y-52114407D01*
X96250540Y-52163907D01*
X96250540Y-52225093D01*
X96214576Y-52274593D01*
X96192151Y-52286812D01*
X96027363Y-52350652D01*
X95853959Y-52458018D01*
X95853959Y-52458019D01*
X95703237Y-52595420D01*
X95580328Y-52758177D01*
X95580323Y-52758186D01*
X95521408Y-52876505D01*
X95489418Y-52940750D01*
X95433603Y-53136917D01*
X95414785Y-53340000D01*
X95433603Y-53543083D01*
X95489418Y-53739250D01*
X95580327Y-53921821D01*
X95703236Y-54084579D01*
X95853959Y-54221981D01*
X96027363Y-54329348D01*
X96217544Y-54403024D01*
X96418024Y-54440500D01*
X96621976Y-54440500D01*
X96822456Y-54403024D01*
X97012637Y-54329348D01*
X97186041Y-54221981D01*
X97336764Y-54084579D01*
X97459673Y-53921821D01*
X97550582Y-53739250D01*
X97606397Y-53543083D01*
X97625215Y-53340000D01*
X97606397Y-53136917D01*
X97550582Y-52940750D01*
X97459673Y-52758179D01*
X97336764Y-52595421D01*
X97186041Y-52458019D01*
X97012637Y-52350652D01*
X96847850Y-52286813D01*
X96800421Y-52248163D01*
X96784767Y-52189015D01*
X96806870Y-52131961D01*
X96858286Y-52098795D01*
X96883615Y-52095500D01*
X121061923Y-52095500D01*
X121120114Y-52114407D01*
X121156078Y-52163907D01*
X121160546Y-52203129D01*
X121158626Y-52225072D01*
X121787467Y-52853913D01*
X121777685Y-52855320D01*
X121646900Y-52915048D01*
X121538239Y-53009202D01*
X121460507Y-53130156D01*
X121436922Y-53210476D01*
X120805072Y-52578626D01*
X120746406Y-52662411D01*
X120746394Y-52662430D01*
X120646570Y-52876505D01*
X120585429Y-53104686D01*
X120564843Y-53339996D01*
X120564843Y-53340003D01*
X120585429Y-53575313D01*
X120646569Y-53803489D01*
X120746399Y-54017577D01*
X120805072Y-54101372D01*
X121436922Y-53469521D01*
X121460507Y-53549844D01*
X121538239Y-53670798D01*
X121646900Y-53764952D01*
X121777685Y-53824680D01*
X121787466Y-53826086D01*
X121158626Y-54454926D01*
X121242422Y-54513600D01*
X121456509Y-54613430D01*
X121569518Y-54643711D01*
X121620832Y-54677035D01*
X121642759Y-54734156D01*
X121626924Y-54793257D01*
X121579657Y-54831653D01*
X121427363Y-54890652D01*
X121253959Y-54998018D01*
X121253959Y-54998019D01*
X121103237Y-55135420D01*
X120980328Y-55298177D01*
X120980323Y-55298186D01*
X120889419Y-55480747D01*
X120889418Y-55480750D01*
X120833603Y-55676917D01*
X120814785Y-55880000D01*
X120833603Y-56083083D01*
X120889418Y-56279250D01*
X120980327Y-56461821D01*
X121103236Y-56624579D01*
X121253959Y-56761981D01*
X121427363Y-56869348D01*
X121617544Y-56943024D01*
X121818024Y-56980500D01*
X122021976Y-56980500D01*
X122222456Y-56943024D01*
X122412637Y-56869348D01*
X122586041Y-56761981D01*
X122736764Y-56624579D01*
X122859673Y-56461821D01*
X122950582Y-56279250D01*
X123006397Y-56083083D01*
X123025215Y-55880000D01*
X123006397Y-55676917D01*
X122950582Y-55480750D01*
X122859673Y-55298179D01*
X122736764Y-55135421D01*
X122586041Y-54998019D01*
X122412637Y-54890652D01*
X122260340Y-54831652D01*
X122212910Y-54793001D01*
X122197256Y-54733852D01*
X122219359Y-54676799D01*
X122270481Y-54643711D01*
X122383490Y-54613430D01*
X122597577Y-54513600D01*
X122681372Y-54454925D01*
X122052533Y-53826086D01*
X122062315Y-53824680D01*
X122193100Y-53764952D01*
X122301761Y-53670798D01*
X122379493Y-53549844D01*
X122403076Y-53469523D01*
X123034925Y-54101372D01*
X123093600Y-54017577D01*
X123193430Y-53803489D01*
X123254570Y-53575313D01*
X123275157Y-53340003D01*
X123275157Y-53339996D01*
X123254570Y-53104686D01*
X123193429Y-52876505D01*
X123093605Y-52662432D01*
X123093602Y-52662426D01*
X123034926Y-52578626D01*
X122403076Y-53210475D01*
X122379493Y-53130156D01*
X122301761Y-53009202D01*
X122193100Y-52915048D01*
X122062315Y-52855320D01*
X122052530Y-52853913D01*
X122681373Y-52225071D01*
X122679454Y-52203128D01*
X122693218Y-52143511D01*
X122739395Y-52103370D01*
X122778077Y-52095500D01*
X124335500Y-52095500D01*
X124393691Y-52114407D01*
X124429655Y-52163907D01*
X124434500Y-52194500D01*
X124434500Y-101475500D01*
X124415593Y-101533691D01*
X124366093Y-101569655D01*
X124335500Y-101574500D01*
X69339500Y-101574500D01*
X69281309Y-101555593D01*
X69245345Y-101506093D01*
X69240500Y-101475500D01*
X69240500Y-99310000D01*
X69789364Y-99310000D01*
X69846569Y-99523489D01*
X69946399Y-99737577D01*
X70081886Y-99931073D01*
X70248926Y-100098113D01*
X70442422Y-100233600D01*
X70656509Y-100333430D01*
X70870000Y-100390634D01*
X70870000Y-99495501D01*
X70977685Y-99544680D01*
X71084237Y-99560000D01*
X71155763Y-99560000D01*
X71262315Y-99544680D01*
X71370000Y-99495501D01*
X71370000Y-100390633D01*
X71583490Y-100333430D01*
X71797577Y-100233600D01*
X71991073Y-100098113D01*
X72158113Y-99931073D01*
X72293601Y-99737576D01*
X72293602Y-99737574D01*
X72300275Y-99723265D01*
X72342003Y-99678516D01*
X72402064Y-99666841D01*
X72457517Y-99692698D01*
X72479725Y-99723265D01*
X72486397Y-99737574D01*
X72486398Y-99737576D01*
X72621886Y-99931073D01*
X72788926Y-100098113D01*
X72982422Y-100233600D01*
X73196509Y-100333430D01*
X73410000Y-100390634D01*
X73410000Y-99495501D01*
X73517685Y-99544680D01*
X73624237Y-99560000D01*
X73695763Y-99560000D01*
X73802315Y-99544680D01*
X73910000Y-99495501D01*
X73910000Y-100390633D01*
X74123490Y-100333430D01*
X74337577Y-100233600D01*
X74531073Y-100098113D01*
X74553186Y-100076000D01*
X90757750Y-100076000D01*
X90776669Y-100219708D01*
X90776670Y-100219709D01*
X90832139Y-100353625D01*
X90920379Y-100468621D01*
X91035375Y-100556861D01*
X91169291Y-100612330D01*
X91313000Y-100631250D01*
X91456709Y-100612330D01*
X91590625Y-100556861D01*
X91705621Y-100468621D01*
X91793861Y-100353625D01*
X91849330Y-100219709D01*
X91868250Y-100076000D01*
X91849330Y-99932291D01*
X91793861Y-99798375D01*
X91705621Y-99683379D01*
X91590625Y-99595139D01*
X91590621Y-99595137D01*
X91456709Y-99539670D01*
X91456708Y-99539669D01*
X91313000Y-99520750D01*
X91169291Y-99539669D01*
X91169290Y-99539670D01*
X91035378Y-99595137D01*
X91035374Y-99595139D01*
X90920381Y-99683377D01*
X90920377Y-99683381D01*
X90832139Y-99798374D01*
X90832137Y-99798378D01*
X90776670Y-99932290D01*
X90776669Y-99932291D01*
X90757750Y-100075999D01*
X90757750Y-100076000D01*
X74553186Y-100076000D01*
X74698113Y-99931073D01*
X74833600Y-99737577D01*
X74933430Y-99523489D01*
X74990636Y-99310000D01*
X74093686Y-99310000D01*
X74119493Y-99269844D01*
X74160000Y-99131889D01*
X74160000Y-99060000D01*
X89741750Y-99060000D01*
X89760669Y-99203708D01*
X89760670Y-99203709D01*
X89804696Y-99310000D01*
X89816139Y-99337625D01*
X89904379Y-99452621D01*
X90019375Y-99540861D01*
X90153291Y-99596330D01*
X90297000Y-99615250D01*
X90440709Y-99596330D01*
X90574625Y-99540861D01*
X90689621Y-99452621D01*
X90777861Y-99337625D01*
X90833330Y-99203709D01*
X90852250Y-99060000D01*
X95414785Y-99060000D01*
X95433603Y-99263083D01*
X95489418Y-99459250D01*
X95580327Y-99641821D01*
X95703236Y-99804579D01*
X95853959Y-99941981D01*
X96027363Y-100049348D01*
X96217544Y-100123024D01*
X96418024Y-100160500D01*
X96621976Y-100160500D01*
X96822456Y-100123024D01*
X97012637Y-100049348D01*
X97186041Y-99941981D01*
X97336764Y-99804579D01*
X97459673Y-99641821D01*
X97550582Y-99459250D01*
X97606397Y-99263083D01*
X97625215Y-99060000D01*
X120814785Y-99060000D01*
X120833603Y-99263083D01*
X120889418Y-99459250D01*
X120980327Y-99641821D01*
X121103236Y-99804579D01*
X121253959Y-99941981D01*
X121427363Y-100049348D01*
X121617544Y-100123024D01*
X121818024Y-100160500D01*
X122021976Y-100160500D01*
X122222456Y-100123024D01*
X122412637Y-100049348D01*
X122586041Y-99941981D01*
X122736764Y-99804579D01*
X122859673Y-99641821D01*
X122950582Y-99459250D01*
X123006397Y-99263083D01*
X123025215Y-99060000D01*
X123006397Y-98856917D01*
X122950582Y-98660750D01*
X122859673Y-98478179D01*
X122736764Y-98315421D01*
X122586041Y-98178019D01*
X122412637Y-98070652D01*
X122222456Y-97996976D01*
X122222455Y-97996975D01*
X122222453Y-97996975D01*
X122021976Y-97959500D01*
X121818024Y-97959500D01*
X121617546Y-97996975D01*
X121553243Y-98021886D01*
X121427363Y-98070652D01*
X121253958Y-98178019D01*
X121253959Y-98178019D01*
X121103237Y-98315420D01*
X120980328Y-98478177D01*
X120980323Y-98478186D01*
X120929462Y-98580330D01*
X120889418Y-98660750D01*
X120833603Y-98856917D01*
X120814785Y-99060000D01*
X97625215Y-99060000D01*
X97606397Y-98856917D01*
X97550582Y-98660750D01*
X97459673Y-98478179D01*
X97336764Y-98315421D01*
X97186041Y-98178019D01*
X97012637Y-98070652D01*
X96822456Y-97996976D01*
X96822455Y-97996975D01*
X96822453Y-97996975D01*
X96621976Y-97959500D01*
X96418024Y-97959500D01*
X96217546Y-97996975D01*
X96153243Y-98021886D01*
X96027363Y-98070652D01*
X95853959Y-98178018D01*
X95853959Y-98178019D01*
X95703237Y-98315420D01*
X95580328Y-98478177D01*
X95580323Y-98478186D01*
X95529462Y-98580330D01*
X95489418Y-98660750D01*
X95433603Y-98856917D01*
X95414785Y-99060000D01*
X90852250Y-99060000D01*
X90842785Y-98988111D01*
X90833330Y-98916291D01*
X90777861Y-98782375D01*
X90689621Y-98667379D01*
X90574625Y-98579139D01*
X90574621Y-98579137D01*
X90440709Y-98523670D01*
X90440708Y-98523669D01*
X90297000Y-98504750D01*
X90153291Y-98523669D01*
X90153290Y-98523670D01*
X90019378Y-98579137D01*
X90019374Y-98579139D01*
X89904381Y-98667377D01*
X89904377Y-98667381D01*
X89816139Y-98782374D01*
X89816137Y-98782378D01*
X89760670Y-98916290D01*
X89760669Y-98916291D01*
X89741750Y-99059999D01*
X89741750Y-99060000D01*
X74160000Y-99060000D01*
X74160000Y-98988111D01*
X74119493Y-98850156D01*
X74093686Y-98810000D01*
X74990636Y-98810000D01*
X74933429Y-98596505D01*
X74833605Y-98382432D01*
X74833601Y-98382424D01*
X74698113Y-98188926D01*
X74531073Y-98021886D01*
X74381280Y-97917000D01*
X87455750Y-97917000D01*
X87474669Y-98060708D01*
X87474670Y-98060709D01*
X87523260Y-98178019D01*
X87530139Y-98194625D01*
X87618379Y-98309621D01*
X87733375Y-98397861D01*
X87867291Y-98453330D01*
X88010999Y-98472250D01*
X88010999Y-98472249D01*
X88011000Y-98472250D01*
X88154709Y-98453330D01*
X88288625Y-98397861D01*
X88403621Y-98309621D01*
X88491861Y-98194625D01*
X88547330Y-98060709D01*
X88549530Y-98044000D01*
X90757750Y-98044000D01*
X90776669Y-98187708D01*
X90776670Y-98187709D01*
X90827165Y-98309618D01*
X90832139Y-98321625D01*
X90920379Y-98436621D01*
X91035375Y-98524861D01*
X91169291Y-98580330D01*
X91313000Y-98599250D01*
X91456709Y-98580330D01*
X91590625Y-98524861D01*
X91705621Y-98436621D01*
X91793861Y-98321625D01*
X91849330Y-98187709D01*
X91868250Y-98044000D01*
X91849330Y-97900291D01*
X91793861Y-97766375D01*
X91705621Y-97651379D01*
X91590625Y-97563139D01*
X91590621Y-97563137D01*
X91456709Y-97507670D01*
X91456708Y-97507669D01*
X91313000Y-97488750D01*
X91169291Y-97507669D01*
X91169290Y-97507670D01*
X91035378Y-97563137D01*
X91035374Y-97563139D01*
X90920381Y-97651377D01*
X90920377Y-97651381D01*
X90832139Y-97766374D01*
X90832137Y-97766378D01*
X90776670Y-97900290D01*
X90776669Y-97900291D01*
X90757750Y-98043999D01*
X90757750Y-98044000D01*
X88549530Y-98044000D01*
X88566250Y-97917000D01*
X88547330Y-97773291D01*
X88491861Y-97639375D01*
X88403621Y-97524379D01*
X88288625Y-97436139D01*
X88288621Y-97436137D01*
X88154709Y-97380670D01*
X88154708Y-97380669D01*
X88011000Y-97361750D01*
X87867291Y-97380669D01*
X87867290Y-97380670D01*
X87733378Y-97436137D01*
X87733374Y-97436139D01*
X87618381Y-97524377D01*
X87618377Y-97524381D01*
X87530139Y-97639374D01*
X87530137Y-97639378D01*
X87474670Y-97773290D01*
X87474669Y-97773291D01*
X87455750Y-97916999D01*
X87455750Y-97917000D01*
X74381280Y-97917000D01*
X74337577Y-97886399D01*
X74123489Y-97786568D01*
X74010481Y-97756288D01*
X73959166Y-97722963D01*
X73937240Y-97665842D01*
X73953076Y-97606741D01*
X74000339Y-97568347D01*
X74152637Y-97509348D01*
X74326041Y-97401981D01*
X74476764Y-97264579D01*
X74559514Y-97155000D01*
X84026750Y-97155000D01*
X84045669Y-97298708D01*
X84045670Y-97298709D01*
X84088445Y-97401980D01*
X84101139Y-97432625D01*
X84189379Y-97547621D01*
X84304375Y-97635861D01*
X84438291Y-97691330D01*
X84582000Y-97710250D01*
X84725709Y-97691330D01*
X84859625Y-97635861D01*
X84974621Y-97547621D01*
X85062861Y-97432625D01*
X85118330Y-97298709D01*
X85137250Y-97155000D01*
X85118330Y-97011291D01*
X85062861Y-96877375D01*
X84974621Y-96762379D01*
X84859625Y-96674139D01*
X84859621Y-96674137D01*
X84725709Y-96618670D01*
X84725708Y-96618669D01*
X84582000Y-96599750D01*
X84438291Y-96618669D01*
X84438290Y-96618670D01*
X84304378Y-96674137D01*
X84304374Y-96674139D01*
X84189381Y-96762377D01*
X84189377Y-96762381D01*
X84101139Y-96877374D01*
X84101137Y-96877378D01*
X84045670Y-97011290D01*
X84045669Y-97011291D01*
X84026750Y-97154999D01*
X84026750Y-97155000D01*
X74559514Y-97155000D01*
X74599673Y-97101821D01*
X74690582Y-96919250D01*
X74746397Y-96723083D01*
X74765215Y-96520000D01*
X95414785Y-96520000D01*
X95433603Y-96723083D01*
X95489418Y-96919250D01*
X95580327Y-97101821D01*
X95703236Y-97264579D01*
X95853959Y-97401981D01*
X96027363Y-97509348D01*
X96217544Y-97583024D01*
X96418024Y-97620500D01*
X96621976Y-97620500D01*
X96822456Y-97583024D01*
X97012637Y-97509348D01*
X97186041Y-97401981D01*
X97336764Y-97264579D01*
X97459673Y-97101821D01*
X97550582Y-96919250D01*
X97606397Y-96723083D01*
X97625215Y-96520000D01*
X120814785Y-96520000D01*
X120833603Y-96723083D01*
X120889418Y-96919250D01*
X120980327Y-97101821D01*
X121103236Y-97264579D01*
X121253959Y-97401981D01*
X121427363Y-97509348D01*
X121617544Y-97583024D01*
X121818024Y-97620500D01*
X122021976Y-97620500D01*
X122222456Y-97583024D01*
X122412637Y-97509348D01*
X122586041Y-97401981D01*
X122736764Y-97264579D01*
X122859673Y-97101821D01*
X122950582Y-96919250D01*
X123006397Y-96723083D01*
X123025215Y-96520000D01*
X123006397Y-96316917D01*
X122950582Y-96120750D01*
X122859673Y-95938179D01*
X122736764Y-95775421D01*
X122586041Y-95638019D01*
X122412637Y-95530652D01*
X122222456Y-95456976D01*
X122222455Y-95456975D01*
X122222453Y-95456975D01*
X122021976Y-95419500D01*
X121818024Y-95419500D01*
X121617546Y-95456975D01*
X121547632Y-95484059D01*
X121427363Y-95530652D01*
X121253958Y-95638018D01*
X121253959Y-95638019D01*
X121103237Y-95775420D01*
X120980328Y-95938177D01*
X120980323Y-95938186D01*
X120889419Y-96120747D01*
X120889418Y-96120750D01*
X120833603Y-96316917D01*
X120814785Y-96520000D01*
X97625215Y-96520000D01*
X97606397Y-96316917D01*
X97550582Y-96120750D01*
X97459673Y-95938179D01*
X97336764Y-95775421D01*
X97186041Y-95638019D01*
X97012637Y-95530652D01*
X96822456Y-95456976D01*
X96822455Y-95456975D01*
X96822453Y-95456975D01*
X96621976Y-95419500D01*
X96418024Y-95419500D01*
X96217546Y-95456975D01*
X96147632Y-95484059D01*
X96027363Y-95530652D01*
X95853959Y-95638018D01*
X95853959Y-95638019D01*
X95703237Y-95775420D01*
X95580328Y-95938177D01*
X95580323Y-95938186D01*
X95489419Y-96120747D01*
X95489418Y-96120750D01*
X95433603Y-96316917D01*
X95414785Y-96520000D01*
X74765215Y-96520000D01*
X74746397Y-96316917D01*
X74690582Y-96120750D01*
X74599673Y-95938179D01*
X74476764Y-95775421D01*
X74326041Y-95638019D01*
X74152637Y-95530652D01*
X73962456Y-95456976D01*
X73962455Y-95456975D01*
X73962453Y-95456975D01*
X73761976Y-95419500D01*
X73558024Y-95419500D01*
X73357546Y-95456975D01*
X73287632Y-95484059D01*
X73167363Y-95530652D01*
X72993958Y-95638018D01*
X72993959Y-95638019D01*
X72843237Y-95775420D01*
X72720328Y-95938177D01*
X72720323Y-95938186D01*
X72629419Y-96120747D01*
X72629418Y-96120750D01*
X72573603Y-96316917D01*
X72554785Y-96520000D01*
X72573603Y-96723083D01*
X72629418Y-96919250D01*
X72720327Y-97101821D01*
X72843236Y-97264579D01*
X72993959Y-97401981D01*
X73167363Y-97509348D01*
X73319658Y-97568347D01*
X73367089Y-97606997D01*
X73382743Y-97666146D01*
X73360640Y-97723200D01*
X73309519Y-97756288D01*
X73196503Y-97786570D01*
X72982432Y-97886394D01*
X72982424Y-97886398D01*
X72788926Y-98021886D01*
X72621886Y-98188926D01*
X72486398Y-98382424D01*
X72486396Y-98382428D01*
X72479724Y-98396737D01*
X72437995Y-98441485D01*
X72377934Y-98453159D01*
X72322481Y-98427300D01*
X72300276Y-98396737D01*
X72293603Y-98382428D01*
X72293601Y-98382424D01*
X72158113Y-98188926D01*
X71991073Y-98021886D01*
X71797577Y-97886399D01*
X71583489Y-97786568D01*
X71470481Y-97756288D01*
X71419166Y-97722963D01*
X71397240Y-97665842D01*
X71413076Y-97606741D01*
X71460339Y-97568347D01*
X71612637Y-97509348D01*
X71786041Y-97401981D01*
X71936764Y-97264579D01*
X72059673Y-97101821D01*
X72150582Y-96919250D01*
X72206397Y-96723083D01*
X72225215Y-96520000D01*
X72206397Y-96316917D01*
X72150582Y-96120750D01*
X72059673Y-95938179D01*
X71936764Y-95775421D01*
X71786041Y-95638019D01*
X71612637Y-95530652D01*
X71422456Y-95456976D01*
X71422455Y-95456975D01*
X71422453Y-95456975D01*
X71221976Y-95419500D01*
X71018024Y-95419500D01*
X70817546Y-95456975D01*
X70747632Y-95484059D01*
X70627363Y-95530652D01*
X70453959Y-95638019D01*
X70303237Y-95775420D01*
X70180328Y-95938177D01*
X70180323Y-95938186D01*
X70089419Y-96120747D01*
X70089418Y-96120750D01*
X70033603Y-96316917D01*
X70014785Y-96520000D01*
X70033603Y-96723083D01*
X70089418Y-96919250D01*
X70180327Y-97101821D01*
X70303236Y-97264579D01*
X70453959Y-97401981D01*
X70627363Y-97509348D01*
X70779658Y-97568347D01*
X70827089Y-97606997D01*
X70842743Y-97666146D01*
X70820640Y-97723200D01*
X70769519Y-97756288D01*
X70656503Y-97786570D01*
X70442432Y-97886394D01*
X70442424Y-97886398D01*
X70248926Y-98021886D01*
X70081886Y-98188926D01*
X69946398Y-98382424D01*
X69946394Y-98382432D01*
X69846570Y-98596505D01*
X69789364Y-98810000D01*
X70686314Y-98810000D01*
X70660507Y-98850156D01*
X70620000Y-98988111D01*
X70620000Y-99131889D01*
X70660507Y-99269844D01*
X70686314Y-99310000D01*
X69789364Y-99310000D01*
X69240500Y-99310000D01*
X69240500Y-93980000D01*
X70014785Y-93980000D01*
X70033603Y-94183083D01*
X70089418Y-94379250D01*
X70180327Y-94561821D01*
X70303236Y-94724579D01*
X70453959Y-94861981D01*
X70627363Y-94969348D01*
X70817544Y-95043024D01*
X71018024Y-95080500D01*
X71221976Y-95080500D01*
X71422456Y-95043024D01*
X71612637Y-94969348D01*
X71786041Y-94861981D01*
X71936764Y-94724579D01*
X72059673Y-94561821D01*
X72150582Y-94379250D01*
X72206397Y-94183083D01*
X72225215Y-93980000D01*
X72554785Y-93980000D01*
X72573603Y-94183083D01*
X72629418Y-94379250D01*
X72720327Y-94561821D01*
X72843236Y-94724579D01*
X72993959Y-94861981D01*
X73167363Y-94969348D01*
X73357544Y-95043024D01*
X73558024Y-95080500D01*
X73761976Y-95080500D01*
X73962456Y-95043024D01*
X74152637Y-94969348D01*
X74326041Y-94861981D01*
X74476764Y-94724579D01*
X74599673Y-94561821D01*
X74690582Y-94379250D01*
X74746397Y-94183083D01*
X74753447Y-94107000D01*
X87455750Y-94107000D01*
X87474669Y-94250708D01*
X87474670Y-94250709D01*
X87527912Y-94379250D01*
X87530139Y-94384625D01*
X87618379Y-94499621D01*
X87733375Y-94587861D01*
X87867291Y-94643330D01*
X88010999Y-94662250D01*
X88010999Y-94662249D01*
X88011000Y-94662250D01*
X88154709Y-94643330D01*
X88288625Y-94587861D01*
X88403621Y-94499621D01*
X88491861Y-94384625D01*
X88547330Y-94250709D01*
X88566250Y-94107000D01*
X88549530Y-93980000D01*
X95414785Y-93980000D01*
X95433603Y-94183083D01*
X95489418Y-94379250D01*
X95580327Y-94561821D01*
X95703236Y-94724579D01*
X95853959Y-94861981D01*
X96027363Y-94969348D01*
X96217544Y-95043024D01*
X96418024Y-95080500D01*
X96621976Y-95080500D01*
X96822456Y-95043024D01*
X97012637Y-94969348D01*
X97186041Y-94861981D01*
X97336764Y-94724579D01*
X97459673Y-94561821D01*
X97550582Y-94379250D01*
X97606397Y-94183083D01*
X97625215Y-93980000D01*
X120814785Y-93980000D01*
X120833603Y-94183083D01*
X120889418Y-94379250D01*
X120980327Y-94561821D01*
X121103236Y-94724579D01*
X121253959Y-94861981D01*
X121427363Y-94969348D01*
X121617544Y-95043024D01*
X121818024Y-95080500D01*
X122021976Y-95080500D01*
X122222456Y-95043024D01*
X122412637Y-94969348D01*
X122586041Y-94861981D01*
X122736764Y-94724579D01*
X122859673Y-94561821D01*
X122950582Y-94379250D01*
X123006397Y-94183083D01*
X123025215Y-93980000D01*
X123006397Y-93776917D01*
X122950582Y-93580750D01*
X122859673Y-93398179D01*
X122736764Y-93235421D01*
X122586041Y-93098019D01*
X122412637Y-92990652D01*
X122222456Y-92916976D01*
X122222455Y-92916975D01*
X122222453Y-92916975D01*
X122021976Y-92879500D01*
X121818024Y-92879500D01*
X121617546Y-92916975D01*
X121547632Y-92944059D01*
X121427363Y-92990652D01*
X121303451Y-93067375D01*
X121253959Y-93098019D01*
X121103237Y-93235420D01*
X120980328Y-93398177D01*
X120980323Y-93398186D01*
X120894437Y-93570670D01*
X120889418Y-93580750D01*
X120833603Y-93776917D01*
X120814785Y-93980000D01*
X97625215Y-93980000D01*
X97606397Y-93776917D01*
X97550582Y-93580750D01*
X97459673Y-93398179D01*
X97336764Y-93235421D01*
X97186041Y-93098019D01*
X97012637Y-92990652D01*
X96822456Y-92916976D01*
X96822455Y-92916975D01*
X96822453Y-92916975D01*
X96621976Y-92879500D01*
X96418024Y-92879500D01*
X96217546Y-92916975D01*
X96147632Y-92944059D01*
X96027363Y-92990652D01*
X95903451Y-93067375D01*
X95853959Y-93098019D01*
X95703237Y-93235420D01*
X95580328Y-93398177D01*
X95580323Y-93398186D01*
X95494437Y-93570670D01*
X95489418Y-93580750D01*
X95433603Y-93776917D01*
X95414785Y-93980000D01*
X88549530Y-93980000D01*
X88547330Y-93963291D01*
X88491861Y-93829375D01*
X88403621Y-93714379D01*
X88288625Y-93626139D01*
X88288621Y-93626137D01*
X88154709Y-93570670D01*
X88154708Y-93570669D01*
X88011000Y-93551750D01*
X87867291Y-93570669D01*
X87867290Y-93570670D01*
X87733378Y-93626137D01*
X87733374Y-93626139D01*
X87618381Y-93714377D01*
X87618377Y-93714381D01*
X87530139Y-93829374D01*
X87530137Y-93829378D01*
X87474670Y-93963290D01*
X87474669Y-93963291D01*
X87455750Y-94106999D01*
X87455750Y-94107000D01*
X74753447Y-94107000D01*
X74765215Y-93980000D01*
X74746397Y-93776917D01*
X74690582Y-93580750D01*
X74599673Y-93398179D01*
X74559514Y-93345000D01*
X84153750Y-93345000D01*
X84172669Y-93488708D01*
X84172670Y-93488709D01*
X84228139Y-93622625D01*
X84316379Y-93737621D01*
X84431375Y-93825861D01*
X84565291Y-93881330D01*
X84708999Y-93900250D01*
X84708999Y-93900249D01*
X84709000Y-93900250D01*
X84852709Y-93881330D01*
X84986625Y-93825861D01*
X85101621Y-93737621D01*
X85189861Y-93622625D01*
X85245330Y-93488709D01*
X85264250Y-93345000D01*
X85245330Y-93201291D01*
X85189861Y-93067375D01*
X85101621Y-92952379D01*
X85101616Y-92952375D01*
X85101615Y-92952374D01*
X85053614Y-92915542D01*
X85018958Y-92865118D01*
X85020559Y-92803953D01*
X85053614Y-92758458D01*
X85101621Y-92721621D01*
X85189861Y-92606625D01*
X85245330Y-92472709D01*
X85264250Y-92329000D01*
X85245330Y-92185291D01*
X85189861Y-92051375D01*
X85101621Y-91936379D01*
X84986625Y-91848139D01*
X84986621Y-91848137D01*
X84852709Y-91792670D01*
X84852708Y-91792669D01*
X84709000Y-91773750D01*
X84565291Y-91792669D01*
X84565290Y-91792670D01*
X84431378Y-91848137D01*
X84431374Y-91848139D01*
X84316381Y-91936377D01*
X84316377Y-91936381D01*
X84228139Y-92051374D01*
X84228137Y-92051378D01*
X84172670Y-92185290D01*
X84172669Y-92185291D01*
X84153750Y-92328999D01*
X84153750Y-92329000D01*
X84172669Y-92472708D01*
X84172670Y-92472709D01*
X84200749Y-92540500D01*
X84228139Y-92606625D01*
X84316379Y-92721621D01*
X84364386Y-92758458D01*
X84399041Y-92808883D01*
X84397439Y-92870047D01*
X84364386Y-92915542D01*
X84316381Y-92952377D01*
X84316377Y-92952381D01*
X84228139Y-93067374D01*
X84228137Y-93067378D01*
X84172670Y-93201290D01*
X84172669Y-93201291D01*
X84153750Y-93344999D01*
X84153750Y-93345000D01*
X74559514Y-93345000D01*
X74476764Y-93235421D01*
X74326041Y-93098019D01*
X74152637Y-92990652D01*
X73962456Y-92916976D01*
X73962455Y-92916975D01*
X73962453Y-92916975D01*
X73761976Y-92879500D01*
X73558024Y-92879500D01*
X73357546Y-92916975D01*
X73287632Y-92944059D01*
X73167363Y-92990652D01*
X73043451Y-93067375D01*
X72993959Y-93098019D01*
X72843237Y-93235420D01*
X72720328Y-93398177D01*
X72720323Y-93398186D01*
X72634437Y-93570670D01*
X72629418Y-93580750D01*
X72573603Y-93776917D01*
X72554785Y-93980000D01*
X72225215Y-93980000D01*
X72206397Y-93776917D01*
X72150582Y-93580750D01*
X72059673Y-93398179D01*
X71936764Y-93235421D01*
X71786041Y-93098019D01*
X71612637Y-92990652D01*
X71422456Y-92916976D01*
X71422455Y-92916975D01*
X71422453Y-92916975D01*
X71221976Y-92879500D01*
X71018024Y-92879500D01*
X70817546Y-92916975D01*
X70747632Y-92944059D01*
X70627363Y-92990652D01*
X70503451Y-93067375D01*
X70453959Y-93098019D01*
X70303237Y-93235420D01*
X70180328Y-93398177D01*
X70180323Y-93398186D01*
X70094437Y-93570670D01*
X70089418Y-93580750D01*
X70033603Y-93776917D01*
X70014785Y-93980000D01*
X69240500Y-93980000D01*
X69240500Y-91440000D01*
X70014785Y-91440000D01*
X70033603Y-91643083D01*
X70089418Y-91839250D01*
X70180327Y-92021821D01*
X70303236Y-92184579D01*
X70453959Y-92321981D01*
X70627363Y-92429348D01*
X70817544Y-92503024D01*
X71018024Y-92540500D01*
X71221976Y-92540500D01*
X71422456Y-92503024D01*
X71612637Y-92429348D01*
X71786041Y-92321981D01*
X71936764Y-92184579D01*
X72059673Y-92021821D01*
X72150582Y-91839250D01*
X72206397Y-91643083D01*
X72225215Y-91440000D01*
X72554785Y-91440000D01*
X72573603Y-91643083D01*
X72629418Y-91839250D01*
X72720327Y-92021821D01*
X72843236Y-92184579D01*
X72993959Y-92321981D01*
X73167363Y-92429348D01*
X73357544Y-92503024D01*
X73558024Y-92540500D01*
X73761976Y-92540500D01*
X73962456Y-92503024D01*
X74152637Y-92429348D01*
X74326041Y-92321981D01*
X74476764Y-92184579D01*
X74599673Y-92021821D01*
X74690582Y-91839250D01*
X74746397Y-91643083D01*
X74765215Y-91440000D01*
X95414785Y-91440000D01*
X95433603Y-91643083D01*
X95489418Y-91839250D01*
X95580327Y-92021821D01*
X95703236Y-92184579D01*
X95853959Y-92321981D01*
X96027363Y-92429348D01*
X96217544Y-92503024D01*
X96418024Y-92540500D01*
X96621976Y-92540500D01*
X96822456Y-92503024D01*
X97012637Y-92429348D01*
X97186041Y-92321981D01*
X97336764Y-92184579D01*
X97459673Y-92021821D01*
X97550582Y-91839250D01*
X97606397Y-91643083D01*
X97625215Y-91440000D01*
X120814785Y-91440000D01*
X120833603Y-91643083D01*
X120889418Y-91839250D01*
X120980327Y-92021821D01*
X121103236Y-92184579D01*
X121253959Y-92321981D01*
X121427363Y-92429348D01*
X121617544Y-92503024D01*
X121818024Y-92540500D01*
X122021976Y-92540500D01*
X122222456Y-92503024D01*
X122412637Y-92429348D01*
X122586041Y-92321981D01*
X122736764Y-92184579D01*
X122859673Y-92021821D01*
X122950582Y-91839250D01*
X123006397Y-91643083D01*
X123025215Y-91440000D01*
X123006397Y-91236917D01*
X122950582Y-91040750D01*
X122859673Y-90858179D01*
X122736764Y-90695421D01*
X122586041Y-90558019D01*
X122412637Y-90450652D01*
X122222456Y-90376976D01*
X122222455Y-90376975D01*
X122222453Y-90376975D01*
X122021976Y-90339500D01*
X121818024Y-90339500D01*
X121617546Y-90376975D01*
X121547632Y-90404059D01*
X121427363Y-90450652D01*
X121253958Y-90558019D01*
X121253959Y-90558019D01*
X121103237Y-90695420D01*
X120980328Y-90858177D01*
X120980323Y-90858186D01*
X120889419Y-91040747D01*
X120889418Y-91040750D01*
X120833603Y-91236917D01*
X120814785Y-91440000D01*
X97625215Y-91440000D01*
X97606397Y-91236917D01*
X97550582Y-91040750D01*
X97459673Y-90858179D01*
X97336764Y-90695421D01*
X97186041Y-90558019D01*
X97012637Y-90450652D01*
X96822456Y-90376976D01*
X96822455Y-90376975D01*
X96822453Y-90376975D01*
X96621976Y-90339500D01*
X96418024Y-90339500D01*
X96217546Y-90376975D01*
X96147632Y-90404059D01*
X96027363Y-90450652D01*
X95853958Y-90558019D01*
X95853959Y-90558019D01*
X95703237Y-90695420D01*
X95580328Y-90858177D01*
X95580323Y-90858186D01*
X95489419Y-91040747D01*
X95489418Y-91040750D01*
X95433603Y-91236917D01*
X95414785Y-91440000D01*
X74765215Y-91440000D01*
X74746397Y-91236917D01*
X74690582Y-91040750D01*
X74599673Y-90858179D01*
X74476764Y-90695421D01*
X74326041Y-90558019D01*
X74152637Y-90450652D01*
X73962456Y-90376976D01*
X73962455Y-90376975D01*
X73962453Y-90376975D01*
X73761976Y-90339500D01*
X73558024Y-90339500D01*
X73357546Y-90376975D01*
X73287632Y-90404059D01*
X73167363Y-90450652D01*
X72993959Y-90558019D01*
X72843237Y-90695420D01*
X72720328Y-90858177D01*
X72720323Y-90858186D01*
X72629419Y-91040747D01*
X72629418Y-91040750D01*
X72573603Y-91236917D01*
X72554785Y-91440000D01*
X72225215Y-91440000D01*
X72206397Y-91236917D01*
X72150582Y-91040750D01*
X72059673Y-90858179D01*
X71936764Y-90695421D01*
X71786041Y-90558019D01*
X71612637Y-90450652D01*
X71422456Y-90376976D01*
X71422455Y-90376975D01*
X71422453Y-90376975D01*
X71221976Y-90339500D01*
X71018024Y-90339500D01*
X70817546Y-90376975D01*
X70747632Y-90404059D01*
X70627363Y-90450652D01*
X70453958Y-90558019D01*
X70453959Y-90558019D01*
X70303237Y-90695420D01*
X70180328Y-90858177D01*
X70180323Y-90858186D01*
X70089419Y-91040747D01*
X70089418Y-91040750D01*
X70033603Y-91236917D01*
X70014785Y-91440000D01*
X69240500Y-91440000D01*
X69240500Y-90297000D01*
X87455750Y-90297000D01*
X87474669Y-90440708D01*
X87474670Y-90440709D01*
X87523260Y-90558019D01*
X87530139Y-90574625D01*
X87618379Y-90689621D01*
X87733375Y-90777861D01*
X87867291Y-90833330D01*
X88011000Y-90852250D01*
X88154709Y-90833330D01*
X88288625Y-90777861D01*
X88403621Y-90689621D01*
X88491861Y-90574625D01*
X88547330Y-90440709D01*
X88566250Y-90297000D01*
X88547330Y-90153291D01*
X88491861Y-90019375D01*
X88403621Y-89904379D01*
X88288625Y-89816139D01*
X88288621Y-89816137D01*
X88154709Y-89760670D01*
X88154708Y-89760669D01*
X88011000Y-89741750D01*
X87867291Y-89760669D01*
X87867290Y-89760670D01*
X87733378Y-89816137D01*
X87733374Y-89816139D01*
X87618381Y-89904377D01*
X87618377Y-89904381D01*
X87530139Y-90019374D01*
X87530137Y-90019378D01*
X87474670Y-90153290D01*
X87474669Y-90153291D01*
X87455750Y-90296999D01*
X87455750Y-90297000D01*
X69240500Y-90297000D01*
X69240500Y-88900000D01*
X70014785Y-88900000D01*
X70033603Y-89103083D01*
X70089418Y-89299250D01*
X70180327Y-89481821D01*
X70303236Y-89644579D01*
X70453959Y-89781981D01*
X70627363Y-89889348D01*
X70817544Y-89963024D01*
X71018024Y-90000500D01*
X71221976Y-90000500D01*
X71422456Y-89963024D01*
X71612637Y-89889348D01*
X71786041Y-89781981D01*
X71936764Y-89644579D01*
X72059673Y-89481821D01*
X72150582Y-89299250D01*
X72206397Y-89103083D01*
X72225215Y-88900000D01*
X72554785Y-88900000D01*
X72573603Y-89103083D01*
X72629418Y-89299250D01*
X72720327Y-89481821D01*
X72843236Y-89644579D01*
X72993959Y-89781981D01*
X73167363Y-89889348D01*
X73357544Y-89963024D01*
X73558024Y-90000500D01*
X73761976Y-90000500D01*
X73962456Y-89963024D01*
X74152637Y-89889348D01*
X74326041Y-89781981D01*
X74476764Y-89644579D01*
X74559514Y-89535000D01*
X84153750Y-89535000D01*
X84172669Y-89678708D01*
X84172670Y-89678709D01*
X84215445Y-89781980D01*
X84228139Y-89812625D01*
X84316379Y-89927621D01*
X84431375Y-90015861D01*
X84565291Y-90071330D01*
X84709000Y-90090250D01*
X84852709Y-90071330D01*
X84986625Y-90015861D01*
X85101621Y-89927621D01*
X85189861Y-89812625D01*
X85245330Y-89678709D01*
X85264250Y-89535000D01*
X85245330Y-89391291D01*
X85189861Y-89257375D01*
X85101621Y-89142379D01*
X85101616Y-89142375D01*
X85101615Y-89142374D01*
X85053614Y-89105542D01*
X85018958Y-89055118D01*
X85020559Y-88993953D01*
X85053614Y-88948458D01*
X85101621Y-88911621D01*
X85189861Y-88796625D01*
X85245330Y-88662709D01*
X85264250Y-88519000D01*
X85245330Y-88375291D01*
X85189861Y-88241375D01*
X85101621Y-88126379D01*
X84986625Y-88038139D01*
X84986621Y-88038137D01*
X84852709Y-87982670D01*
X84852708Y-87982669D01*
X84709000Y-87963750D01*
X84565291Y-87982669D01*
X84565290Y-87982670D01*
X84431378Y-88038137D01*
X84431374Y-88038139D01*
X84316381Y-88126377D01*
X84316377Y-88126381D01*
X84228139Y-88241374D01*
X84228137Y-88241378D01*
X84172670Y-88375290D01*
X84172669Y-88375291D01*
X84153750Y-88518999D01*
X84153750Y-88519000D01*
X84172669Y-88662708D01*
X84172670Y-88662709D01*
X84228139Y-88796625D01*
X84316379Y-88911621D01*
X84364386Y-88948458D01*
X84399041Y-88998883D01*
X84397439Y-89060047D01*
X84364386Y-89105542D01*
X84316381Y-89142377D01*
X84316377Y-89142381D01*
X84228139Y-89257374D01*
X84228137Y-89257378D01*
X84172670Y-89391290D01*
X84172669Y-89391291D01*
X84153750Y-89534999D01*
X84153750Y-89535000D01*
X74559514Y-89535000D01*
X74599673Y-89481821D01*
X74690582Y-89299250D01*
X74746397Y-89103083D01*
X74765215Y-88900000D01*
X74746397Y-88696917D01*
X74690582Y-88500750D01*
X74599673Y-88318179D01*
X74476764Y-88155421D01*
X74326041Y-88018019D01*
X74152637Y-87910652D01*
X73962456Y-87836976D01*
X73962455Y-87836975D01*
X73962453Y-87836975D01*
X73761976Y-87799500D01*
X73558024Y-87799500D01*
X73357546Y-87836975D01*
X73319658Y-87851653D01*
X73167363Y-87910652D01*
X73051050Y-87982670D01*
X72993959Y-88018019D01*
X72843237Y-88155420D01*
X72720328Y-88318177D01*
X72720323Y-88318186D01*
X72629419Y-88500747D01*
X72629418Y-88500750D01*
X72573603Y-88696917D01*
X72554785Y-88900000D01*
X72225215Y-88900000D01*
X72206397Y-88696917D01*
X72150582Y-88500750D01*
X72059673Y-88318179D01*
X71936764Y-88155421D01*
X71786041Y-88018019D01*
X71612637Y-87910652D01*
X71422456Y-87836976D01*
X71422455Y-87836975D01*
X71422453Y-87836975D01*
X71221976Y-87799500D01*
X71018024Y-87799500D01*
X70817546Y-87836975D01*
X70779658Y-87851653D01*
X70627363Y-87910652D01*
X70511050Y-87982670D01*
X70453959Y-88018019D01*
X70303237Y-88155420D01*
X70180328Y-88318177D01*
X70180323Y-88318186D01*
X70089419Y-88500747D01*
X70089418Y-88500750D01*
X70033603Y-88696917D01*
X70014785Y-88900000D01*
X69240500Y-88900000D01*
X69240500Y-86360000D01*
X70014785Y-86360000D01*
X70033603Y-86563083D01*
X70089418Y-86759250D01*
X70180327Y-86941821D01*
X70303236Y-87104579D01*
X70453959Y-87241981D01*
X70627363Y-87349348D01*
X70817544Y-87423024D01*
X71018024Y-87460500D01*
X71221976Y-87460500D01*
X71422456Y-87423024D01*
X71612637Y-87349348D01*
X71786041Y-87241981D01*
X71936764Y-87104579D01*
X72059673Y-86941821D01*
X72150582Y-86759250D01*
X72206397Y-86563083D01*
X72225215Y-86360000D01*
X72554785Y-86360000D01*
X72573603Y-86563083D01*
X72629418Y-86759250D01*
X72720327Y-86941821D01*
X72843236Y-87104579D01*
X72993959Y-87241981D01*
X73167363Y-87349348D01*
X73357544Y-87423024D01*
X73558024Y-87460500D01*
X73761976Y-87460500D01*
X73962456Y-87423024D01*
X74152637Y-87349348D01*
X74326041Y-87241981D01*
X74476764Y-87104579D01*
X74599673Y-86941821D01*
X74690582Y-86759250D01*
X74746397Y-86563083D01*
X74765215Y-86360003D01*
X95164843Y-86360003D01*
X95185429Y-86595313D01*
X95246569Y-86823489D01*
X95346399Y-87037577D01*
X95405072Y-87121372D01*
X96036922Y-86489521D01*
X96060507Y-86569844D01*
X96138239Y-86690798D01*
X96246900Y-86784952D01*
X96377685Y-86844680D01*
X96387466Y-86846086D01*
X95758626Y-87474926D01*
X95842422Y-87533600D01*
X96056509Y-87633430D01*
X96169518Y-87663711D01*
X96220832Y-87697035D01*
X96242759Y-87754156D01*
X96226924Y-87813257D01*
X96179657Y-87851653D01*
X96027363Y-87910652D01*
X95911050Y-87982670D01*
X95853959Y-88018019D01*
X95703237Y-88155420D01*
X95580328Y-88318177D01*
X95580323Y-88318186D01*
X95489419Y-88500747D01*
X95489418Y-88500750D01*
X95433603Y-88696917D01*
X95414785Y-88900000D01*
X95433603Y-89103083D01*
X95489418Y-89299250D01*
X95580327Y-89481821D01*
X95703236Y-89644579D01*
X95853959Y-89781981D01*
X96027363Y-89889348D01*
X96217544Y-89963024D01*
X96418024Y-90000500D01*
X96621976Y-90000500D01*
X96822456Y-89963024D01*
X97012637Y-89889348D01*
X97186041Y-89781981D01*
X97336764Y-89644579D01*
X97459673Y-89481821D01*
X97550582Y-89299250D01*
X97606397Y-89103083D01*
X97625215Y-88900000D01*
X120814785Y-88900000D01*
X120833603Y-89103083D01*
X120889418Y-89299250D01*
X120980327Y-89481821D01*
X121103236Y-89644579D01*
X121253959Y-89781981D01*
X121427363Y-89889348D01*
X121617544Y-89963024D01*
X121818024Y-90000500D01*
X122021976Y-90000500D01*
X122222456Y-89963024D01*
X122412637Y-89889348D01*
X122586041Y-89781981D01*
X122736764Y-89644579D01*
X122859673Y-89481821D01*
X122950582Y-89299250D01*
X123006397Y-89103083D01*
X123025215Y-88900000D01*
X123006397Y-88696917D01*
X122950582Y-88500750D01*
X122859673Y-88318179D01*
X122736764Y-88155421D01*
X122586041Y-88018019D01*
X122412637Y-87910652D01*
X122222456Y-87836976D01*
X122222455Y-87836975D01*
X122222453Y-87836975D01*
X122021976Y-87799500D01*
X121818024Y-87799500D01*
X121617546Y-87836975D01*
X121579658Y-87851653D01*
X121427363Y-87910652D01*
X121311050Y-87982670D01*
X121253959Y-88018019D01*
X121103237Y-88155420D01*
X120980328Y-88318177D01*
X120980323Y-88318186D01*
X120889419Y-88500747D01*
X120889418Y-88500750D01*
X120833603Y-88696917D01*
X120814785Y-88900000D01*
X97625215Y-88900000D01*
X97606397Y-88696917D01*
X97550582Y-88500750D01*
X97459673Y-88318179D01*
X97336764Y-88155421D01*
X97186041Y-88018019D01*
X97012637Y-87910652D01*
X96860340Y-87851652D01*
X96812910Y-87813001D01*
X96797256Y-87753852D01*
X96819359Y-87696799D01*
X96870481Y-87663711D01*
X96983490Y-87633430D01*
X97197577Y-87533600D01*
X97281372Y-87474925D01*
X96652533Y-86846086D01*
X96662315Y-86844680D01*
X96793100Y-86784952D01*
X96901761Y-86690798D01*
X96979493Y-86569844D01*
X97003076Y-86489523D01*
X97634925Y-87121372D01*
X97693600Y-87037577D01*
X97793430Y-86823489D01*
X97854570Y-86595313D01*
X97875157Y-86360003D01*
X97875157Y-86360000D01*
X120814785Y-86360000D01*
X120833603Y-86563083D01*
X120889418Y-86759250D01*
X120980327Y-86941821D01*
X121103236Y-87104579D01*
X121253959Y-87241981D01*
X121427363Y-87349348D01*
X121617544Y-87423024D01*
X121818024Y-87460500D01*
X122021976Y-87460500D01*
X122222456Y-87423024D01*
X122412637Y-87349348D01*
X122586041Y-87241981D01*
X122736764Y-87104579D01*
X122859673Y-86941821D01*
X122950582Y-86759250D01*
X123006397Y-86563083D01*
X123025215Y-86360000D01*
X123006397Y-86156917D01*
X122950582Y-85960750D01*
X122859673Y-85778179D01*
X122736764Y-85615421D01*
X122586041Y-85478019D01*
X122412637Y-85370652D01*
X122222456Y-85296976D01*
X122222455Y-85296975D01*
X122222453Y-85296975D01*
X122021976Y-85259500D01*
X121818024Y-85259500D01*
X121617546Y-85296975D01*
X121547632Y-85324059D01*
X121427363Y-85370652D01*
X121253958Y-85478019D01*
X121253959Y-85478019D01*
X121103237Y-85615420D01*
X120980328Y-85778177D01*
X120980323Y-85778186D01*
X120921408Y-85896505D01*
X120889418Y-85960750D01*
X120833603Y-86156917D01*
X120814785Y-86360000D01*
X97875157Y-86360000D01*
X97875157Y-86359996D01*
X97854570Y-86124686D01*
X97793429Y-85896505D01*
X97693605Y-85682432D01*
X97693602Y-85682426D01*
X97634926Y-85598626D01*
X97003076Y-86230475D01*
X96979493Y-86150156D01*
X96901761Y-86029202D01*
X96793100Y-85935048D01*
X96662315Y-85875320D01*
X96652530Y-85873913D01*
X97281372Y-85245072D01*
X97197577Y-85186399D01*
X96983489Y-85086568D01*
X96870481Y-85056288D01*
X96819166Y-85022963D01*
X96797240Y-84965842D01*
X96813076Y-84906741D01*
X96860339Y-84868347D01*
X97012637Y-84809348D01*
X97186041Y-84701981D01*
X97336764Y-84564579D01*
X97459673Y-84401821D01*
X97550582Y-84219250D01*
X97606397Y-84023083D01*
X97625215Y-83820000D01*
X120814785Y-83820000D01*
X120833603Y-84023083D01*
X120889418Y-84219250D01*
X120980327Y-84401821D01*
X121103236Y-84564579D01*
X121253959Y-84701981D01*
X121427363Y-84809348D01*
X121617544Y-84883024D01*
X121818024Y-84920500D01*
X122021976Y-84920500D01*
X122222456Y-84883024D01*
X122412637Y-84809348D01*
X122586041Y-84701981D01*
X122736764Y-84564579D01*
X122859673Y-84401821D01*
X122950582Y-84219250D01*
X123006397Y-84023083D01*
X123025215Y-83820000D01*
X123006397Y-83616917D01*
X122950582Y-83420750D01*
X122859673Y-83238179D01*
X122736764Y-83075421D01*
X122586041Y-82938019D01*
X122412637Y-82830652D01*
X122222456Y-82756976D01*
X122222455Y-82756975D01*
X122222453Y-82756975D01*
X122021976Y-82719500D01*
X121818024Y-82719500D01*
X121617546Y-82756975D01*
X121547632Y-82784059D01*
X121427363Y-82830652D01*
X121303451Y-82907375D01*
X121253959Y-82938019D01*
X121103237Y-83075420D01*
X120980328Y-83238177D01*
X120980323Y-83238186D01*
X120930056Y-83339137D01*
X120889418Y-83420750D01*
X120833603Y-83616917D01*
X120814785Y-83820000D01*
X97625215Y-83820000D01*
X97606397Y-83616917D01*
X97550582Y-83420750D01*
X97459673Y-83238179D01*
X97336764Y-83075421D01*
X97186041Y-82938019D01*
X97012637Y-82830652D01*
X96822456Y-82756976D01*
X96822455Y-82756975D01*
X96822453Y-82756975D01*
X96621976Y-82719500D01*
X96418024Y-82719500D01*
X96217546Y-82756975D01*
X96147632Y-82784059D01*
X96027363Y-82830652D01*
X95903451Y-82907375D01*
X95853959Y-82938019D01*
X95703237Y-83075420D01*
X95580328Y-83238177D01*
X95580323Y-83238186D01*
X95530056Y-83339137D01*
X95489418Y-83420750D01*
X95433603Y-83616917D01*
X95414785Y-83820000D01*
X95433603Y-84023083D01*
X95489418Y-84219250D01*
X95580327Y-84401821D01*
X95703236Y-84564579D01*
X95853959Y-84701981D01*
X96027363Y-84809348D01*
X96179658Y-84868347D01*
X96227089Y-84906997D01*
X96242743Y-84966146D01*
X96220640Y-85023200D01*
X96169519Y-85056288D01*
X96056503Y-85086570D01*
X95842430Y-85186394D01*
X95842411Y-85186406D01*
X95758626Y-85245072D01*
X96387467Y-85873913D01*
X96377685Y-85875320D01*
X96246900Y-85935048D01*
X96138239Y-86029202D01*
X96060507Y-86150156D01*
X96036922Y-86230476D01*
X95405072Y-85598626D01*
X95346406Y-85682411D01*
X95346394Y-85682430D01*
X95246570Y-85896505D01*
X95185429Y-86124686D01*
X95164843Y-86359996D01*
X95164843Y-86360003D01*
X74765215Y-86360003D01*
X74765215Y-86360000D01*
X74746397Y-86156917D01*
X74690582Y-85960750D01*
X74599673Y-85778179D01*
X74476764Y-85615421D01*
X74326041Y-85478019D01*
X74152637Y-85370652D01*
X73962456Y-85296976D01*
X73962455Y-85296975D01*
X73962453Y-85296975D01*
X73761976Y-85259500D01*
X73558024Y-85259500D01*
X73357546Y-85296975D01*
X73287632Y-85324059D01*
X73167363Y-85370652D01*
X72993958Y-85478019D01*
X72993959Y-85478019D01*
X72843237Y-85615420D01*
X72720328Y-85778177D01*
X72720323Y-85778186D01*
X72661408Y-85896505D01*
X72629418Y-85960750D01*
X72573603Y-86156917D01*
X72554785Y-86360000D01*
X72225215Y-86360000D01*
X72206397Y-86156917D01*
X72150582Y-85960750D01*
X72059673Y-85778179D01*
X71936764Y-85615421D01*
X71786041Y-85478019D01*
X71612637Y-85370652D01*
X71422456Y-85296976D01*
X71422455Y-85296975D01*
X71422453Y-85296975D01*
X71221976Y-85259500D01*
X71018024Y-85259500D01*
X70817546Y-85296975D01*
X70747632Y-85324059D01*
X70627363Y-85370652D01*
X70453959Y-85478019D01*
X70303237Y-85615420D01*
X70180328Y-85778177D01*
X70180323Y-85778186D01*
X70121408Y-85896505D01*
X70089418Y-85960750D01*
X70033603Y-86156917D01*
X70014785Y-86360000D01*
X69240500Y-86360000D01*
X69240500Y-83820000D01*
X70014785Y-83820000D01*
X70033603Y-84023083D01*
X70089418Y-84219250D01*
X70180327Y-84401821D01*
X70303236Y-84564579D01*
X70453959Y-84701981D01*
X70627363Y-84809348D01*
X70817544Y-84883024D01*
X71018024Y-84920500D01*
X71221976Y-84920500D01*
X71422456Y-84883024D01*
X71612637Y-84809348D01*
X71786041Y-84701981D01*
X71936764Y-84564579D01*
X72059673Y-84401821D01*
X72150582Y-84219250D01*
X72206397Y-84023083D01*
X72225215Y-83820000D01*
X72554785Y-83820000D01*
X72573603Y-84023083D01*
X72629418Y-84219250D01*
X72720327Y-84401821D01*
X72843236Y-84564579D01*
X72993959Y-84701981D01*
X73167363Y-84809348D01*
X73357544Y-84883024D01*
X73558024Y-84920500D01*
X73761976Y-84920500D01*
X73962456Y-84883024D01*
X74152637Y-84809348D01*
X74326041Y-84701981D01*
X74476764Y-84564579D01*
X74599673Y-84401821D01*
X74690582Y-84219250D01*
X74746397Y-84023083D01*
X74765215Y-83820000D01*
X82756750Y-83820000D01*
X82775669Y-83963708D01*
X82775670Y-83963709D01*
X82831139Y-84097625D01*
X82919379Y-84212621D01*
X83034375Y-84300861D01*
X83168291Y-84356330D01*
X83312000Y-84375250D01*
X83455709Y-84356330D01*
X83589625Y-84300861D01*
X83704621Y-84212621D01*
X83792861Y-84097625D01*
X83848330Y-83963709D01*
X83867250Y-83820000D01*
X83854259Y-83721329D01*
X83848330Y-83676291D01*
X83792861Y-83542375D01*
X83704621Y-83427379D01*
X83589625Y-83339139D01*
X83589621Y-83339137D01*
X83455709Y-83283670D01*
X83455708Y-83283669D01*
X83312000Y-83264750D01*
X83168291Y-83283669D01*
X83168290Y-83283670D01*
X83034378Y-83339137D01*
X83034374Y-83339139D01*
X82919381Y-83427377D01*
X82919377Y-83427381D01*
X82831139Y-83542374D01*
X82831137Y-83542378D01*
X82775670Y-83676290D01*
X82775669Y-83676291D01*
X82756750Y-83819999D01*
X82756750Y-83820000D01*
X74765215Y-83820000D01*
X74746397Y-83616917D01*
X74690582Y-83420750D01*
X74599673Y-83238179D01*
X74559514Y-83185000D01*
X88344750Y-83185000D01*
X88363669Y-83328708D01*
X88363670Y-83328709D01*
X88404540Y-83427381D01*
X88419139Y-83462625D01*
X88507379Y-83577621D01*
X88622375Y-83665861D01*
X88756291Y-83721330D01*
X88899999Y-83740250D01*
X88899999Y-83740249D01*
X88900000Y-83740250D01*
X89043709Y-83721330D01*
X89177625Y-83665861D01*
X89292621Y-83577621D01*
X89380861Y-83462625D01*
X89436330Y-83328709D01*
X89455250Y-83185000D01*
X89868750Y-83185000D01*
X89887669Y-83328708D01*
X89887670Y-83328709D01*
X89928540Y-83427381D01*
X89943139Y-83462625D01*
X90031379Y-83577621D01*
X90146375Y-83665861D01*
X90280291Y-83721330D01*
X90424000Y-83740250D01*
X90567709Y-83721330D01*
X90701625Y-83665861D01*
X90816621Y-83577621D01*
X90904861Y-83462625D01*
X90960330Y-83328709D01*
X90979250Y-83185000D01*
X91392750Y-83185000D01*
X91411669Y-83328708D01*
X91411670Y-83328709D01*
X91452540Y-83427381D01*
X91467139Y-83462625D01*
X91555379Y-83577621D01*
X91670375Y-83665861D01*
X91804291Y-83721330D01*
X91947999Y-83740250D01*
X91947999Y-83740249D01*
X91948000Y-83740250D01*
X92091709Y-83721330D01*
X92225625Y-83665861D01*
X92340621Y-83577621D01*
X92428861Y-83462625D01*
X92484330Y-83328709D01*
X92503250Y-83185000D01*
X92490259Y-83086329D01*
X92484330Y-83041291D01*
X92428861Y-82907375D01*
X92340621Y-82792379D01*
X92225625Y-82704139D01*
X92225621Y-82704137D01*
X92091709Y-82648670D01*
X92091708Y-82648669D01*
X91948000Y-82629750D01*
X91804291Y-82648669D01*
X91804290Y-82648670D01*
X91670378Y-82704137D01*
X91670374Y-82704139D01*
X91555381Y-82792377D01*
X91555377Y-82792381D01*
X91467139Y-82907374D01*
X91467137Y-82907378D01*
X91411670Y-83041290D01*
X91411669Y-83041291D01*
X91392750Y-83184999D01*
X91392750Y-83185000D01*
X90979250Y-83185000D01*
X90966259Y-83086329D01*
X90960330Y-83041291D01*
X90904861Y-82907375D01*
X90816621Y-82792379D01*
X90701625Y-82704139D01*
X90701621Y-82704137D01*
X90567709Y-82648670D01*
X90567708Y-82648669D01*
X90424000Y-82629750D01*
X90280291Y-82648669D01*
X90280290Y-82648670D01*
X90146378Y-82704137D01*
X90146374Y-82704139D01*
X90031381Y-82792377D01*
X90031377Y-82792381D01*
X89943139Y-82907374D01*
X89943137Y-82907378D01*
X89887670Y-83041290D01*
X89887669Y-83041291D01*
X89868750Y-83184999D01*
X89868750Y-83185000D01*
X89455250Y-83185000D01*
X89442259Y-83086329D01*
X89436330Y-83041291D01*
X89380861Y-82907375D01*
X89292621Y-82792379D01*
X89177625Y-82704139D01*
X89177621Y-82704137D01*
X89043709Y-82648670D01*
X89043708Y-82648669D01*
X88900000Y-82629750D01*
X88756291Y-82648669D01*
X88756290Y-82648670D01*
X88622378Y-82704137D01*
X88622374Y-82704139D01*
X88507381Y-82792377D01*
X88507377Y-82792381D01*
X88419139Y-82907374D01*
X88419137Y-82907378D01*
X88363670Y-83041290D01*
X88363669Y-83041291D01*
X88344750Y-83184999D01*
X88344750Y-83185000D01*
X74559514Y-83185000D01*
X74476764Y-83075421D01*
X74326041Y-82938019D01*
X74152637Y-82830652D01*
X73962456Y-82756976D01*
X73962455Y-82756975D01*
X73962453Y-82756975D01*
X73761976Y-82719500D01*
X73558024Y-82719500D01*
X73357546Y-82756975D01*
X73287632Y-82784059D01*
X73167363Y-82830652D01*
X73043451Y-82907375D01*
X72993959Y-82938019D01*
X72843237Y-83075420D01*
X72720328Y-83238177D01*
X72720323Y-83238186D01*
X72670056Y-83339137D01*
X72629418Y-83420750D01*
X72573603Y-83616917D01*
X72554785Y-83820000D01*
X72225215Y-83820000D01*
X72206397Y-83616917D01*
X72150582Y-83420750D01*
X72059673Y-83238179D01*
X71936764Y-83075421D01*
X71786041Y-82938019D01*
X71612637Y-82830652D01*
X71422456Y-82756976D01*
X71422455Y-82756975D01*
X71422453Y-82756975D01*
X71221976Y-82719500D01*
X71018024Y-82719500D01*
X70817546Y-82756975D01*
X70747632Y-82784059D01*
X70627363Y-82830652D01*
X70503451Y-82907375D01*
X70453959Y-82938019D01*
X70303237Y-83075420D01*
X70180328Y-83238177D01*
X70180323Y-83238186D01*
X70130056Y-83339137D01*
X70089418Y-83420750D01*
X70033603Y-83616917D01*
X70014785Y-83820000D01*
X69240500Y-83820000D01*
X69240500Y-82550000D01*
X83899750Y-82550000D01*
X83918669Y-82693708D01*
X83918670Y-82693709D01*
X83959540Y-82792381D01*
X83974139Y-82827625D01*
X84062379Y-82942621D01*
X84177375Y-83030861D01*
X84311291Y-83086330D01*
X84455000Y-83105250D01*
X84598709Y-83086330D01*
X84732625Y-83030861D01*
X84847621Y-82942621D01*
X84935861Y-82827625D01*
X84991330Y-82693709D01*
X85010250Y-82550000D01*
X84991330Y-82406291D01*
X84935861Y-82272375D01*
X84847621Y-82157379D01*
X84732625Y-82069139D01*
X84732621Y-82069137D01*
X84598709Y-82013670D01*
X84598708Y-82013669D01*
X84455000Y-81994750D01*
X84311291Y-82013669D01*
X84311290Y-82013670D01*
X84177378Y-82069137D01*
X84177374Y-82069139D01*
X84062381Y-82157377D01*
X84062377Y-82157381D01*
X83974139Y-82272374D01*
X83974137Y-82272378D01*
X83918670Y-82406290D01*
X83918669Y-82406291D01*
X83899750Y-82549999D01*
X83899750Y-82550000D01*
X69240500Y-82550000D01*
X69240500Y-81280000D01*
X70014785Y-81280000D01*
X70033603Y-81483083D01*
X70089418Y-81679250D01*
X70180327Y-81861821D01*
X70303236Y-82024579D01*
X70453959Y-82161981D01*
X70627363Y-82269348D01*
X70817544Y-82343024D01*
X71018024Y-82380500D01*
X71221976Y-82380500D01*
X71422456Y-82343024D01*
X71612637Y-82269348D01*
X71786041Y-82161981D01*
X71936764Y-82024579D01*
X72059673Y-81861821D01*
X72150582Y-81679250D01*
X72206397Y-81483083D01*
X72225215Y-81280000D01*
X72554785Y-81280000D01*
X72573603Y-81483083D01*
X72629418Y-81679250D01*
X72720327Y-81861821D01*
X72843236Y-82024579D01*
X72993959Y-82161981D01*
X73167363Y-82269348D01*
X73357544Y-82343024D01*
X73558024Y-82380500D01*
X73761976Y-82380500D01*
X73962456Y-82343024D01*
X74152637Y-82269348D01*
X74326041Y-82161981D01*
X74476764Y-82024579D01*
X74599673Y-81861821D01*
X74690582Y-81679250D01*
X74746397Y-81483083D01*
X74765215Y-81280000D01*
X95414785Y-81280000D01*
X95433603Y-81483083D01*
X95489418Y-81679250D01*
X95580327Y-81861821D01*
X95703236Y-82024579D01*
X95853959Y-82161981D01*
X96027363Y-82269348D01*
X96217544Y-82343024D01*
X96418024Y-82380500D01*
X96621976Y-82380500D01*
X96822456Y-82343024D01*
X97012637Y-82269348D01*
X97186041Y-82161981D01*
X97336764Y-82024579D01*
X97459673Y-81861821D01*
X97550582Y-81679250D01*
X97606397Y-81483083D01*
X97625215Y-81280000D01*
X120814785Y-81280000D01*
X120833603Y-81483083D01*
X120889418Y-81679250D01*
X120980327Y-81861821D01*
X121103236Y-82024579D01*
X121253959Y-82161981D01*
X121427363Y-82269348D01*
X121617544Y-82343024D01*
X121818024Y-82380500D01*
X122021976Y-82380500D01*
X122222456Y-82343024D01*
X122412637Y-82269348D01*
X122586041Y-82161981D01*
X122736764Y-82024579D01*
X122859673Y-81861821D01*
X122950582Y-81679250D01*
X123006397Y-81483083D01*
X123025215Y-81280000D01*
X123006397Y-81076917D01*
X122950582Y-80880750D01*
X122859673Y-80698179D01*
X122736764Y-80535421D01*
X122586041Y-80398019D01*
X122412637Y-80290652D01*
X122222456Y-80216976D01*
X122222455Y-80216975D01*
X122222453Y-80216975D01*
X122021976Y-80179500D01*
X121818024Y-80179500D01*
X121617546Y-80216975D01*
X121547632Y-80244059D01*
X121427363Y-80290652D01*
X121303451Y-80367375D01*
X121253959Y-80398019D01*
X121103237Y-80535420D01*
X120980328Y-80698177D01*
X120980323Y-80698186D01*
X120889419Y-80880747D01*
X120889418Y-80880750D01*
X120833603Y-81076917D01*
X120814785Y-81280000D01*
X97625215Y-81280000D01*
X97606397Y-81076917D01*
X97550582Y-80880750D01*
X97459673Y-80698179D01*
X97336764Y-80535421D01*
X97186041Y-80398019D01*
X97012637Y-80290652D01*
X96822456Y-80216976D01*
X96822455Y-80216975D01*
X96822453Y-80216975D01*
X96621976Y-80179500D01*
X96418024Y-80179500D01*
X96217546Y-80216975D01*
X96147632Y-80244059D01*
X96027363Y-80290652D01*
X95903451Y-80367375D01*
X95853959Y-80398019D01*
X95703237Y-80535420D01*
X95580328Y-80698177D01*
X95580323Y-80698186D01*
X95489419Y-80880747D01*
X95489418Y-80880750D01*
X95433603Y-81076917D01*
X95414785Y-81280000D01*
X74765215Y-81280000D01*
X74746397Y-81076917D01*
X74690582Y-80880750D01*
X74599673Y-80698179D01*
X74559514Y-80645000D01*
X80851750Y-80645000D01*
X80870669Y-80788708D01*
X80870670Y-80788709D01*
X80926139Y-80922625D01*
X81014379Y-81037621D01*
X81129375Y-81125861D01*
X81263291Y-81181330D01*
X81406999Y-81200250D01*
X81406999Y-81200249D01*
X81407000Y-81200250D01*
X81550709Y-81181330D01*
X81684625Y-81125861D01*
X81799621Y-81037621D01*
X81887861Y-80922625D01*
X81943330Y-80788709D01*
X81962250Y-80645000D01*
X81943330Y-80501291D01*
X81887861Y-80367375D01*
X81799621Y-80252379D01*
X81684625Y-80164139D01*
X81684621Y-80164137D01*
X81550709Y-80108670D01*
X81550708Y-80108669D01*
X81407000Y-80089750D01*
X81263291Y-80108669D01*
X81263290Y-80108670D01*
X81129378Y-80164137D01*
X81129374Y-80164139D01*
X81014381Y-80252377D01*
X81014377Y-80252381D01*
X80926139Y-80367374D01*
X80926137Y-80367378D01*
X80870670Y-80501290D01*
X80870669Y-80501291D01*
X80851750Y-80644999D01*
X80851750Y-80645000D01*
X74559514Y-80645000D01*
X74476764Y-80535421D01*
X74326041Y-80398019D01*
X74152637Y-80290652D01*
X73962456Y-80216976D01*
X73962455Y-80216975D01*
X73962453Y-80216975D01*
X73761976Y-80179500D01*
X73558024Y-80179500D01*
X73357546Y-80216975D01*
X73287632Y-80244059D01*
X73167363Y-80290652D01*
X73043451Y-80367375D01*
X72993959Y-80398019D01*
X72843237Y-80535420D01*
X72720328Y-80698177D01*
X72720323Y-80698186D01*
X72629419Y-80880747D01*
X72629418Y-80880750D01*
X72573603Y-81076917D01*
X72554785Y-81280000D01*
X72225215Y-81280000D01*
X72206397Y-81076917D01*
X72150582Y-80880750D01*
X72059673Y-80698179D01*
X71936764Y-80535421D01*
X71786041Y-80398019D01*
X71612637Y-80290652D01*
X71422456Y-80216976D01*
X71422455Y-80216975D01*
X71422453Y-80216975D01*
X71221976Y-80179500D01*
X71018024Y-80179500D01*
X70817546Y-80216975D01*
X70747632Y-80244059D01*
X70627363Y-80290652D01*
X70503451Y-80367375D01*
X70453959Y-80398019D01*
X70303237Y-80535420D01*
X70180328Y-80698177D01*
X70180323Y-80698186D01*
X70089419Y-80880747D01*
X70089418Y-80880750D01*
X70033603Y-81076917D01*
X70014785Y-81280000D01*
X69240500Y-81280000D01*
X69240500Y-78740000D01*
X70014785Y-78740000D01*
X70033603Y-78943083D01*
X70089418Y-79139250D01*
X70180327Y-79321821D01*
X70303236Y-79484579D01*
X70453959Y-79621981D01*
X70627363Y-79729348D01*
X70817544Y-79803024D01*
X71018024Y-79840500D01*
X71221976Y-79840500D01*
X71422456Y-79803024D01*
X71612637Y-79729348D01*
X71786041Y-79621981D01*
X71936764Y-79484579D01*
X72059673Y-79321821D01*
X72150582Y-79139250D01*
X72206397Y-78943083D01*
X72225215Y-78740000D01*
X72554785Y-78740000D01*
X72573603Y-78943083D01*
X72629418Y-79139250D01*
X72720327Y-79321821D01*
X72843236Y-79484579D01*
X72993959Y-79621981D01*
X73167363Y-79729348D01*
X73357544Y-79803024D01*
X73558024Y-79840500D01*
X73761976Y-79840500D01*
X73962456Y-79803024D01*
X74152637Y-79729348D01*
X74326041Y-79621981D01*
X74457654Y-79502000D01*
X79200750Y-79502000D01*
X79219669Y-79645708D01*
X79219670Y-79645709D01*
X79275139Y-79779625D01*
X79363379Y-79894621D01*
X79478375Y-79982861D01*
X79612291Y-80038330D01*
X79756000Y-80057250D01*
X79899709Y-80038330D01*
X80033625Y-79982861D01*
X80148621Y-79894621D01*
X80236861Y-79779625D01*
X80292330Y-79645709D01*
X80311250Y-79502000D01*
X80308956Y-79484579D01*
X80292330Y-79358291D01*
X80236861Y-79224375D01*
X80148621Y-79109379D01*
X80033625Y-79021139D01*
X80033621Y-79021137D01*
X79899709Y-78965670D01*
X79899708Y-78965669D01*
X79756000Y-78946750D01*
X79612291Y-78965669D01*
X79612290Y-78965670D01*
X79478378Y-79021137D01*
X79478374Y-79021139D01*
X79363381Y-79109377D01*
X79363377Y-79109381D01*
X79275139Y-79224374D01*
X79275137Y-79224378D01*
X79219670Y-79358290D01*
X79219669Y-79358291D01*
X79200750Y-79501999D01*
X79200750Y-79502000D01*
X74457654Y-79502000D01*
X74476764Y-79484579D01*
X74599673Y-79321821D01*
X74690582Y-79139250D01*
X74746397Y-78943083D01*
X74765215Y-78740000D01*
X81740750Y-78740000D01*
X81759669Y-78883708D01*
X81759670Y-78883709D01*
X81815139Y-79017625D01*
X81903379Y-79132621D01*
X82018375Y-79220861D01*
X82152291Y-79276330D01*
X82296000Y-79295250D01*
X82439709Y-79276330D01*
X82573625Y-79220861D01*
X82688621Y-79132621D01*
X82776861Y-79017625D01*
X82832330Y-78883709D01*
X82851250Y-78740000D01*
X95414785Y-78740000D01*
X95433603Y-78943083D01*
X95489418Y-79139250D01*
X95580327Y-79321821D01*
X95703236Y-79484579D01*
X95853959Y-79621981D01*
X96027363Y-79729348D01*
X96217544Y-79803024D01*
X96418024Y-79840500D01*
X96621976Y-79840500D01*
X96822456Y-79803024D01*
X97012637Y-79729348D01*
X97186041Y-79621981D01*
X97336764Y-79484579D01*
X97459673Y-79321821D01*
X97550582Y-79139250D01*
X97606397Y-78943083D01*
X97625215Y-78740000D01*
X120814785Y-78740000D01*
X120833603Y-78943083D01*
X120889418Y-79139250D01*
X120980327Y-79321821D01*
X121103236Y-79484579D01*
X121253959Y-79621981D01*
X121427363Y-79729348D01*
X121617544Y-79803024D01*
X121818024Y-79840500D01*
X122021976Y-79840500D01*
X122222456Y-79803024D01*
X122412637Y-79729348D01*
X122586041Y-79621981D01*
X122736764Y-79484579D01*
X122859673Y-79321821D01*
X122950582Y-79139250D01*
X123006397Y-78943083D01*
X123025215Y-78740000D01*
X123006397Y-78536917D01*
X122950582Y-78340750D01*
X122859673Y-78158179D01*
X122736764Y-77995421D01*
X122586041Y-77858019D01*
X122412637Y-77750652D01*
X122222456Y-77676976D01*
X122222455Y-77676975D01*
X122222453Y-77676975D01*
X122021976Y-77639500D01*
X121818024Y-77639500D01*
X121617546Y-77676975D01*
X121547632Y-77704059D01*
X121427363Y-77750652D01*
X121253959Y-77858018D01*
X121253959Y-77858019D01*
X121103237Y-77995420D01*
X120980328Y-78158177D01*
X120980323Y-78158186D01*
X120957675Y-78203670D01*
X120889418Y-78340750D01*
X120833603Y-78536917D01*
X120814785Y-78740000D01*
X97625215Y-78740000D01*
X97606397Y-78536917D01*
X97550582Y-78340750D01*
X97459673Y-78158179D01*
X97336764Y-77995421D01*
X97186041Y-77858019D01*
X97012637Y-77750652D01*
X96822456Y-77676976D01*
X96822455Y-77676975D01*
X96822453Y-77676975D01*
X96621976Y-77639500D01*
X96418024Y-77639500D01*
X96217546Y-77676975D01*
X96147632Y-77704059D01*
X96027363Y-77750652D01*
X95853958Y-77858018D01*
X95853959Y-77858019D01*
X95703237Y-77995420D01*
X95580328Y-78158177D01*
X95580323Y-78158186D01*
X95557675Y-78203670D01*
X95489418Y-78340750D01*
X95433603Y-78536917D01*
X95414785Y-78740000D01*
X82851250Y-78740000D01*
X82832330Y-78596291D01*
X82776861Y-78462375D01*
X82688621Y-78347379D01*
X82573625Y-78259139D01*
X82573621Y-78259137D01*
X82439709Y-78203670D01*
X82439708Y-78203669D01*
X82296000Y-78184750D01*
X82152291Y-78203669D01*
X82152290Y-78203670D01*
X82018378Y-78259137D01*
X82018374Y-78259139D01*
X81903381Y-78347377D01*
X81903377Y-78347381D01*
X81815139Y-78462374D01*
X81815137Y-78462378D01*
X81759670Y-78596290D01*
X81759669Y-78596291D01*
X81740750Y-78739999D01*
X81740750Y-78740000D01*
X74765215Y-78740000D01*
X74746397Y-78536917D01*
X74690582Y-78340750D01*
X74599673Y-78158179D01*
X74476764Y-77995421D01*
X74326041Y-77858019D01*
X74152637Y-77750652D01*
X73962456Y-77676976D01*
X73962455Y-77676975D01*
X73962453Y-77676975D01*
X73761976Y-77639500D01*
X73558024Y-77639500D01*
X73357546Y-77676975D01*
X73287632Y-77704059D01*
X73167363Y-77750652D01*
X72993958Y-77858019D01*
X72993959Y-77858019D01*
X72843237Y-77995420D01*
X72720328Y-78158177D01*
X72720323Y-78158186D01*
X72697675Y-78203670D01*
X72629418Y-78340750D01*
X72573603Y-78536917D01*
X72554785Y-78740000D01*
X72225215Y-78740000D01*
X72206397Y-78536917D01*
X72150582Y-78340750D01*
X72059673Y-78158179D01*
X71936764Y-77995421D01*
X71786041Y-77858019D01*
X71612637Y-77750652D01*
X71422456Y-77676976D01*
X71422455Y-77676975D01*
X71422453Y-77676975D01*
X71221976Y-77639500D01*
X71018024Y-77639500D01*
X70817546Y-77676975D01*
X70747632Y-77704059D01*
X70627363Y-77750652D01*
X70453959Y-77858019D01*
X70303237Y-77995420D01*
X70180328Y-78158177D01*
X70180323Y-78158186D01*
X70157675Y-78203670D01*
X70089418Y-78340750D01*
X70033603Y-78536917D01*
X70014785Y-78740000D01*
X69240500Y-78740000D01*
X69240500Y-76200000D01*
X70014785Y-76200000D01*
X70033603Y-76403083D01*
X70089418Y-76599250D01*
X70180327Y-76781821D01*
X70303236Y-76944579D01*
X70453959Y-77081981D01*
X70627363Y-77189348D01*
X70817544Y-77263024D01*
X71018024Y-77300500D01*
X71221976Y-77300500D01*
X71422456Y-77263024D01*
X71612637Y-77189348D01*
X71786041Y-77081981D01*
X71936764Y-76944579D01*
X72059673Y-76781821D01*
X72150582Y-76599250D01*
X72206397Y-76403083D01*
X72225215Y-76200000D01*
X72554785Y-76200000D01*
X72573603Y-76403083D01*
X72629418Y-76599250D01*
X72720327Y-76781821D01*
X72843236Y-76944579D01*
X72993959Y-77081981D01*
X73167363Y-77189348D01*
X73357544Y-77263024D01*
X73558024Y-77300500D01*
X73761976Y-77300500D01*
X73962456Y-77263024D01*
X74152637Y-77189348D01*
X74326041Y-77081981D01*
X74476764Y-76944579D01*
X74599673Y-76781821D01*
X74690582Y-76599250D01*
X74731910Y-76454000D01*
X82629750Y-76454000D01*
X82648669Y-76597708D01*
X82648670Y-76597709D01*
X82704139Y-76731625D01*
X82792379Y-76846621D01*
X82907375Y-76934861D01*
X83041291Y-76990330D01*
X83185000Y-77009250D01*
X83328709Y-76990330D01*
X83462625Y-76934861D01*
X83577621Y-76846621D01*
X83665861Y-76731625D01*
X83721330Y-76597709D01*
X83740250Y-76454000D01*
X83721330Y-76310291D01*
X83675647Y-76200000D01*
X95414785Y-76200000D01*
X95433603Y-76403083D01*
X95489418Y-76599250D01*
X95580327Y-76781821D01*
X95703236Y-76944579D01*
X95853959Y-77081981D01*
X96027363Y-77189348D01*
X96217544Y-77263024D01*
X96418024Y-77300500D01*
X96621976Y-77300500D01*
X96822456Y-77263024D01*
X97012637Y-77189348D01*
X97186041Y-77081981D01*
X97336764Y-76944579D01*
X97459673Y-76781821D01*
X97550582Y-76599250D01*
X97606397Y-76403083D01*
X97625215Y-76200000D01*
X120814785Y-76200000D01*
X120833603Y-76403083D01*
X120889418Y-76599250D01*
X120980327Y-76781821D01*
X121103236Y-76944579D01*
X121253959Y-77081981D01*
X121427363Y-77189348D01*
X121617544Y-77263024D01*
X121818024Y-77300500D01*
X122021976Y-77300500D01*
X122222456Y-77263024D01*
X122412637Y-77189348D01*
X122586041Y-77081981D01*
X122736764Y-76944579D01*
X122859673Y-76781821D01*
X122950582Y-76599250D01*
X123006397Y-76403083D01*
X123025215Y-76200000D01*
X123006397Y-75996917D01*
X122950582Y-75800750D01*
X122859673Y-75618179D01*
X122736764Y-75455421D01*
X122586041Y-75318019D01*
X122412637Y-75210652D01*
X122222456Y-75136976D01*
X122222455Y-75136975D01*
X122222453Y-75136975D01*
X122021976Y-75099500D01*
X121818024Y-75099500D01*
X121617546Y-75136975D01*
X121547632Y-75164059D01*
X121427363Y-75210652D01*
X121253959Y-75318019D01*
X121103237Y-75455420D01*
X120980328Y-75618177D01*
X120980323Y-75618186D01*
X120897843Y-75783830D01*
X120889418Y-75800750D01*
X120833603Y-75996917D01*
X120814785Y-76200000D01*
X97625215Y-76200000D01*
X97606397Y-75996917D01*
X97550582Y-75800750D01*
X97459673Y-75618179D01*
X97336764Y-75455421D01*
X97186041Y-75318019D01*
X97012637Y-75210652D01*
X96822456Y-75136976D01*
X96822455Y-75136975D01*
X96822453Y-75136975D01*
X96621976Y-75099500D01*
X96418024Y-75099500D01*
X96217546Y-75136975D01*
X96147632Y-75164059D01*
X96027363Y-75210652D01*
X95853958Y-75318018D01*
X95853959Y-75318019D01*
X95703237Y-75455420D01*
X95580328Y-75618177D01*
X95580323Y-75618186D01*
X95497843Y-75783830D01*
X95489418Y-75800750D01*
X95433603Y-75996917D01*
X95414785Y-76200000D01*
X83675647Y-76200000D01*
X83665861Y-76176375D01*
X83577621Y-76061379D01*
X83462625Y-75973139D01*
X83462621Y-75973137D01*
X83328709Y-75917670D01*
X83328708Y-75917669D01*
X83185000Y-75898750D01*
X83041291Y-75917669D01*
X83041290Y-75917670D01*
X82907378Y-75973137D01*
X82907374Y-75973139D01*
X82792381Y-76061377D01*
X82792377Y-76061381D01*
X82704139Y-76176374D01*
X82704137Y-76176378D01*
X82648670Y-76310290D01*
X82648669Y-76310291D01*
X82629750Y-76453999D01*
X82629750Y-76454000D01*
X74731910Y-76454000D01*
X74746397Y-76403083D01*
X74765215Y-76200000D01*
X74746397Y-75996917D01*
X74690582Y-75800750D01*
X74599673Y-75618179D01*
X74476764Y-75455421D01*
X74326041Y-75318019D01*
X74212149Y-75247500D01*
X84090250Y-75247500D01*
X84109169Y-75391208D01*
X84109170Y-75391209D01*
X84164639Y-75525125D01*
X84252879Y-75640121D01*
X84367875Y-75728361D01*
X84501791Y-75783830D01*
X84645500Y-75802750D01*
X84789209Y-75783830D01*
X84923125Y-75728361D01*
X85038121Y-75640121D01*
X85126361Y-75525125D01*
X85181830Y-75391209D01*
X85200750Y-75247500D01*
X85181830Y-75103791D01*
X85126361Y-74969875D01*
X85038121Y-74854879D01*
X84923125Y-74766639D01*
X84923121Y-74766637D01*
X84789209Y-74711170D01*
X84789208Y-74711169D01*
X84645500Y-74692250D01*
X84501791Y-74711169D01*
X84501790Y-74711170D01*
X84367878Y-74766637D01*
X84367874Y-74766639D01*
X84252881Y-74854877D01*
X84252877Y-74854881D01*
X84164639Y-74969874D01*
X84164637Y-74969878D01*
X84109170Y-75103790D01*
X84109169Y-75103791D01*
X84090250Y-75247499D01*
X84090250Y-75247500D01*
X74212149Y-75247500D01*
X74152637Y-75210652D01*
X73962456Y-75136976D01*
X73962455Y-75136975D01*
X73962453Y-75136975D01*
X73761976Y-75099500D01*
X73558024Y-75099500D01*
X73357546Y-75136975D01*
X73287632Y-75164059D01*
X73167363Y-75210652D01*
X72993958Y-75318018D01*
X72993959Y-75318019D01*
X72843237Y-75455420D01*
X72720328Y-75618177D01*
X72720323Y-75618186D01*
X72637843Y-75783830D01*
X72629418Y-75800750D01*
X72573603Y-75996917D01*
X72554785Y-76200000D01*
X72225215Y-76200000D01*
X72206397Y-75996917D01*
X72150582Y-75800750D01*
X72059673Y-75618179D01*
X71936764Y-75455421D01*
X71786041Y-75318019D01*
X71612637Y-75210652D01*
X71422456Y-75136976D01*
X71422455Y-75136975D01*
X71422453Y-75136975D01*
X71221976Y-75099500D01*
X71018024Y-75099500D01*
X70817546Y-75136975D01*
X70747632Y-75164059D01*
X70627363Y-75210652D01*
X70453959Y-75318018D01*
X70453959Y-75318019D01*
X70303237Y-75455420D01*
X70180328Y-75618177D01*
X70180323Y-75618186D01*
X70097843Y-75783830D01*
X70089418Y-75800750D01*
X70033603Y-75996917D01*
X70014785Y-76200000D01*
X69240500Y-76200000D01*
X69240500Y-73660000D01*
X70014785Y-73660000D01*
X70033603Y-73863083D01*
X70089418Y-74059250D01*
X70180327Y-74241821D01*
X70303236Y-74404579D01*
X70453959Y-74541981D01*
X70627363Y-74649348D01*
X70817544Y-74723024D01*
X71018024Y-74760500D01*
X71221976Y-74760500D01*
X71422456Y-74723024D01*
X71612637Y-74649348D01*
X71786041Y-74541981D01*
X71936764Y-74404579D01*
X72059673Y-74241821D01*
X72150582Y-74059250D01*
X72206397Y-73863083D01*
X72225215Y-73660000D01*
X72554785Y-73660000D01*
X72573603Y-73863083D01*
X72629418Y-74059250D01*
X72720327Y-74241821D01*
X72843236Y-74404579D01*
X72993959Y-74541981D01*
X73167363Y-74649348D01*
X73357544Y-74723024D01*
X73558024Y-74760500D01*
X73761976Y-74760500D01*
X73962456Y-74723024D01*
X74152637Y-74649348D01*
X74326041Y-74541981D01*
X74457654Y-74422000D01*
X80470750Y-74422000D01*
X80489669Y-74565708D01*
X80489670Y-74565709D01*
X80545139Y-74699625D01*
X80633379Y-74814621D01*
X80748375Y-74902861D01*
X80882291Y-74958330D01*
X81026000Y-74977250D01*
X81169709Y-74958330D01*
X81303625Y-74902861D01*
X81418621Y-74814621D01*
X81506861Y-74699625D01*
X81562330Y-74565709D01*
X81581250Y-74422000D01*
X81578956Y-74404579D01*
X81562330Y-74278291D01*
X81506861Y-74144375D01*
X81418621Y-74029379D01*
X81303625Y-73941139D01*
X81303621Y-73941137D01*
X81169709Y-73885670D01*
X81169708Y-73885669D01*
X81026000Y-73866750D01*
X80882291Y-73885669D01*
X80882290Y-73885670D01*
X80748378Y-73941137D01*
X80748374Y-73941139D01*
X80633381Y-74029377D01*
X80633377Y-74029381D01*
X80545139Y-74144374D01*
X80545137Y-74144378D01*
X80489670Y-74278290D01*
X80489669Y-74278291D01*
X80470750Y-74421999D01*
X80470750Y-74422000D01*
X74457654Y-74422000D01*
X74476764Y-74404579D01*
X74599673Y-74241821D01*
X74690582Y-74059250D01*
X74746397Y-73863083D01*
X74765215Y-73660000D01*
X95414785Y-73660000D01*
X95433603Y-73863083D01*
X95489418Y-74059250D01*
X95580327Y-74241821D01*
X95703236Y-74404579D01*
X95853959Y-74541981D01*
X96027363Y-74649348D01*
X96217544Y-74723024D01*
X96418024Y-74760500D01*
X96621976Y-74760500D01*
X96822456Y-74723024D01*
X97012637Y-74649348D01*
X97186041Y-74541981D01*
X97336764Y-74404579D01*
X97459673Y-74241821D01*
X97550582Y-74059250D01*
X97606397Y-73863083D01*
X97625215Y-73660000D01*
X120814785Y-73660000D01*
X120833603Y-73863083D01*
X120889418Y-74059250D01*
X120980327Y-74241821D01*
X121103236Y-74404579D01*
X121253959Y-74541981D01*
X121427363Y-74649348D01*
X121617544Y-74723024D01*
X121818024Y-74760500D01*
X122021976Y-74760500D01*
X122222456Y-74723024D01*
X122412637Y-74649348D01*
X122586041Y-74541981D01*
X122736764Y-74404579D01*
X122859673Y-74241821D01*
X122950582Y-74059250D01*
X123006397Y-73863083D01*
X123025215Y-73660000D01*
X123006397Y-73456917D01*
X122950582Y-73260750D01*
X122859673Y-73078179D01*
X122736764Y-72915421D01*
X122586041Y-72778019D01*
X122412637Y-72670652D01*
X122222456Y-72596976D01*
X122222455Y-72596975D01*
X122222453Y-72596975D01*
X122021976Y-72559500D01*
X121818024Y-72559500D01*
X121617546Y-72596975D01*
X121566212Y-72616862D01*
X121427363Y-72670652D01*
X121292283Y-72754290D01*
X121253959Y-72778019D01*
X121103237Y-72915420D01*
X120980328Y-73078177D01*
X120980323Y-73078186D01*
X120889419Y-73260747D01*
X120889418Y-73260750D01*
X120833603Y-73456917D01*
X120814785Y-73660000D01*
X97625215Y-73660000D01*
X97606397Y-73456917D01*
X97550582Y-73260750D01*
X97459673Y-73078179D01*
X97336764Y-72915421D01*
X97186041Y-72778019D01*
X97012637Y-72670652D01*
X96822456Y-72596976D01*
X96822455Y-72596975D01*
X96822453Y-72596975D01*
X96621976Y-72559500D01*
X96418024Y-72559500D01*
X96217546Y-72596975D01*
X96166212Y-72616862D01*
X96027363Y-72670652D01*
X95892283Y-72754290D01*
X95853959Y-72778019D01*
X95703237Y-72915420D01*
X95580328Y-73078177D01*
X95580323Y-73078186D01*
X95489419Y-73260747D01*
X95489418Y-73260750D01*
X95433603Y-73456917D01*
X95414785Y-73660000D01*
X74765215Y-73660000D01*
X74746397Y-73456917D01*
X74690582Y-73260750D01*
X74599673Y-73078179D01*
X74476764Y-72915421D01*
X74457654Y-72898000D01*
X78946750Y-72898000D01*
X78965669Y-73041708D01*
X78965670Y-73041709D01*
X79021139Y-73175625D01*
X79109379Y-73290621D01*
X79224375Y-73378861D01*
X79358291Y-73434330D01*
X79502000Y-73453250D01*
X79645709Y-73434330D01*
X79779625Y-73378861D01*
X79894621Y-73290621D01*
X79982861Y-73175625D01*
X80038330Y-73041709D01*
X80057250Y-72898000D01*
X80038330Y-72754291D01*
X79982861Y-72620375D01*
X79894621Y-72505379D01*
X79779625Y-72417139D01*
X79779621Y-72417137D01*
X79645709Y-72361670D01*
X79645708Y-72361669D01*
X79502000Y-72342750D01*
X79358291Y-72361669D01*
X79358290Y-72361670D01*
X79224378Y-72417137D01*
X79224374Y-72417139D01*
X79109381Y-72505377D01*
X79109377Y-72505381D01*
X79021139Y-72620374D01*
X79021137Y-72620378D01*
X78965670Y-72754290D01*
X78965669Y-72754291D01*
X78946750Y-72897999D01*
X78946750Y-72898000D01*
X74457654Y-72898000D01*
X74326041Y-72778019D01*
X74152637Y-72670652D01*
X73962456Y-72596976D01*
X73962455Y-72596975D01*
X73962453Y-72596975D01*
X73761976Y-72559500D01*
X73558024Y-72559500D01*
X73357546Y-72596975D01*
X73306212Y-72616862D01*
X73167363Y-72670652D01*
X73032283Y-72754290D01*
X72993959Y-72778019D01*
X72843237Y-72915420D01*
X72720328Y-73078177D01*
X72720323Y-73078186D01*
X72629419Y-73260747D01*
X72629418Y-73260750D01*
X72573603Y-73456917D01*
X72554785Y-73660000D01*
X72225215Y-73660000D01*
X72206397Y-73456917D01*
X72150582Y-73260750D01*
X72059673Y-73078179D01*
X71936764Y-72915421D01*
X71786041Y-72778019D01*
X71612637Y-72670652D01*
X71422456Y-72596976D01*
X71422455Y-72596975D01*
X71422453Y-72596975D01*
X71221976Y-72559500D01*
X71018024Y-72559500D01*
X70817546Y-72596975D01*
X70766212Y-72616862D01*
X70627363Y-72670652D01*
X70492283Y-72754290D01*
X70453959Y-72778019D01*
X70303237Y-72915420D01*
X70180328Y-73078177D01*
X70180323Y-73078186D01*
X70089419Y-73260747D01*
X70089418Y-73260750D01*
X70033603Y-73456917D01*
X70014785Y-73660000D01*
X69240500Y-73660000D01*
X69240500Y-71120000D01*
X70014785Y-71120000D01*
X70033603Y-71323083D01*
X70089418Y-71519250D01*
X70180327Y-71701821D01*
X70303236Y-71864579D01*
X70453959Y-72001981D01*
X70627363Y-72109348D01*
X70817544Y-72183024D01*
X71018024Y-72220500D01*
X71221976Y-72220500D01*
X71422456Y-72183024D01*
X71612637Y-72109348D01*
X71786041Y-72001981D01*
X71936764Y-71864579D01*
X72059673Y-71701821D01*
X72150582Y-71519250D01*
X72206397Y-71323083D01*
X72225215Y-71120000D01*
X72554785Y-71120000D01*
X72573603Y-71323083D01*
X72629418Y-71519250D01*
X72720327Y-71701821D01*
X72843236Y-71864579D01*
X72993959Y-72001981D01*
X73167363Y-72109348D01*
X73357544Y-72183024D01*
X73558024Y-72220500D01*
X73761976Y-72220500D01*
X73962456Y-72183024D01*
X74083840Y-72136000D01*
X82502750Y-72136000D01*
X82521669Y-72279708D01*
X82521670Y-72279709D01*
X82577139Y-72413625D01*
X82665379Y-72528621D01*
X82780375Y-72616861D01*
X82914291Y-72672330D01*
X83057999Y-72691250D01*
X83057999Y-72691249D01*
X83058000Y-72691250D01*
X83201709Y-72672330D01*
X83335625Y-72616861D01*
X83450621Y-72528621D01*
X83538861Y-72413625D01*
X83594330Y-72279709D01*
X83594847Y-72275780D01*
X83621188Y-72220556D01*
X83674958Y-72191361D01*
X83735620Y-72199347D01*
X83780003Y-72241464D01*
X83791152Y-72275780D01*
X83791670Y-72279709D01*
X83847139Y-72413625D01*
X83935379Y-72528621D01*
X84050375Y-72616861D01*
X84184291Y-72672330D01*
X84328000Y-72691250D01*
X84471709Y-72672330D01*
X84605625Y-72616861D01*
X84720621Y-72528621D01*
X84808861Y-72413625D01*
X84859396Y-72291619D01*
X84871248Y-72277742D01*
X85029567Y-72277742D01*
X85047124Y-72306393D01*
X85049013Y-72342427D01*
X85042750Y-72389999D01*
X85042750Y-72390000D01*
X85061669Y-72533708D01*
X85061670Y-72533709D01*
X85097567Y-72620375D01*
X85117139Y-72667625D01*
X85205379Y-72782621D01*
X85320375Y-72870861D01*
X85454291Y-72926330D01*
X85598000Y-72945250D01*
X85741709Y-72926330D01*
X85875625Y-72870861D01*
X85990621Y-72782621D01*
X86078861Y-72667625D01*
X86134330Y-72533709D01*
X86153250Y-72390000D01*
X88852750Y-72390000D01*
X88871669Y-72533708D01*
X88871670Y-72533709D01*
X88907567Y-72620375D01*
X88927139Y-72667625D01*
X89015379Y-72782621D01*
X89130375Y-72870861D01*
X89264291Y-72926330D01*
X89408000Y-72945250D01*
X89551709Y-72926330D01*
X89685625Y-72870861D01*
X89800621Y-72782621D01*
X89888861Y-72667625D01*
X89944330Y-72533709D01*
X89963250Y-72390000D01*
X89944330Y-72246291D01*
X89888861Y-72112375D01*
X89800621Y-71997379D01*
X89685625Y-71909139D01*
X89685621Y-71909137D01*
X89551709Y-71853670D01*
X89551708Y-71853669D01*
X89408000Y-71834750D01*
X89264291Y-71853669D01*
X89264290Y-71853670D01*
X89130378Y-71909137D01*
X89130374Y-71909139D01*
X89015381Y-71997377D01*
X89015377Y-71997381D01*
X88927139Y-72112374D01*
X88927137Y-72112378D01*
X88871670Y-72246290D01*
X88871669Y-72246291D01*
X88852750Y-72389999D01*
X88852750Y-72390000D01*
X86153250Y-72390000D01*
X86134330Y-72246291D01*
X86078861Y-72112375D01*
X85990621Y-71997379D01*
X85875625Y-71909139D01*
X85875621Y-71909137D01*
X85741709Y-71853670D01*
X85741708Y-71853669D01*
X85598000Y-71834750D01*
X85454291Y-71853669D01*
X85454290Y-71853670D01*
X85320378Y-71909137D01*
X85320374Y-71909139D01*
X85205381Y-71997377D01*
X85205377Y-71997381D01*
X85117139Y-72112374D01*
X85117138Y-72112375D01*
X85066603Y-72234380D01*
X85029567Y-72277742D01*
X84871248Y-72277742D01*
X84896431Y-72248255D01*
X84878874Y-72219605D01*
X84876986Y-72183576D01*
X84883250Y-72136000D01*
X84864330Y-71992291D01*
X84808861Y-71858375D01*
X84720621Y-71743379D01*
X84605625Y-71655139D01*
X84605621Y-71655137D01*
X84471709Y-71599670D01*
X84471708Y-71599669D01*
X84328000Y-71580750D01*
X84184291Y-71599669D01*
X84184290Y-71599670D01*
X84050378Y-71655137D01*
X84050374Y-71655139D01*
X83935381Y-71743377D01*
X83935377Y-71743381D01*
X83847139Y-71858374D01*
X83847137Y-71858378D01*
X83791670Y-71992290D01*
X83791670Y-71992291D01*
X83791153Y-71996219D01*
X83764812Y-72051444D01*
X83711041Y-72080638D01*
X83650379Y-72072652D01*
X83605997Y-72030534D01*
X83594847Y-71996219D01*
X83594330Y-71992291D01*
X83538861Y-71858375D01*
X83450621Y-71743379D01*
X83335625Y-71655139D01*
X83335621Y-71655137D01*
X83201709Y-71599670D01*
X83201708Y-71599669D01*
X83058000Y-71580750D01*
X82914291Y-71599669D01*
X82914290Y-71599670D01*
X82780378Y-71655137D01*
X82780374Y-71655139D01*
X82665381Y-71743377D01*
X82665377Y-71743381D01*
X82577139Y-71858374D01*
X82577137Y-71858378D01*
X82521670Y-71992290D01*
X82521669Y-71992291D01*
X82502750Y-72135999D01*
X82502750Y-72136000D01*
X74083840Y-72136000D01*
X74152637Y-72109348D01*
X74326041Y-72001981D01*
X74476764Y-71864579D01*
X74599673Y-71701821D01*
X74690582Y-71519250D01*
X74746397Y-71323083D01*
X74765215Y-71120000D01*
X95414785Y-71120000D01*
X95433603Y-71323083D01*
X95489418Y-71519250D01*
X95580327Y-71701821D01*
X95703236Y-71864579D01*
X95853959Y-72001981D01*
X96027363Y-72109348D01*
X96217544Y-72183024D01*
X96418024Y-72220500D01*
X96621976Y-72220500D01*
X96822456Y-72183024D01*
X97012637Y-72109348D01*
X97186041Y-72001981D01*
X97336764Y-71864579D01*
X97459673Y-71701821D01*
X97550582Y-71519250D01*
X97606397Y-71323083D01*
X97625215Y-71120000D01*
X97606397Y-70916917D01*
X97550582Y-70720750D01*
X97459673Y-70538179D01*
X97336764Y-70375421D01*
X97186041Y-70238019D01*
X97012637Y-70130652D01*
X96822456Y-70056976D01*
X96822455Y-70056975D01*
X96822453Y-70056975D01*
X96621976Y-70019500D01*
X96418024Y-70019500D01*
X96217546Y-70056975D01*
X96179658Y-70071653D01*
X96027363Y-70130652D01*
X95853958Y-70238019D01*
X95853959Y-70238019D01*
X95703237Y-70375420D01*
X95580328Y-70538177D01*
X95580323Y-70538186D01*
X95489419Y-70720747D01*
X95489418Y-70720750D01*
X95433603Y-70916917D01*
X95414785Y-71120000D01*
X74765215Y-71120000D01*
X74746397Y-70916917D01*
X74690582Y-70720750D01*
X74599673Y-70538179D01*
X74476764Y-70375421D01*
X74326041Y-70238019D01*
X74152637Y-70130652D01*
X73962456Y-70056976D01*
X73962455Y-70056975D01*
X73962453Y-70056975D01*
X73761976Y-70019500D01*
X73558024Y-70019500D01*
X73357546Y-70056975D01*
X73319658Y-70071653D01*
X73167363Y-70130652D01*
X72993959Y-70238019D01*
X72843237Y-70375420D01*
X72720328Y-70538177D01*
X72720323Y-70538186D01*
X72629419Y-70720747D01*
X72629418Y-70720750D01*
X72573603Y-70916917D01*
X72554785Y-71120000D01*
X72225215Y-71120000D01*
X72206397Y-70916917D01*
X72150582Y-70720750D01*
X72059673Y-70538179D01*
X71936764Y-70375421D01*
X71786041Y-70238019D01*
X71612637Y-70130652D01*
X71422456Y-70056976D01*
X71422455Y-70056975D01*
X71422453Y-70056975D01*
X71221976Y-70019500D01*
X71018024Y-70019500D01*
X70817546Y-70056975D01*
X70779658Y-70071653D01*
X70627363Y-70130652D01*
X70453958Y-70238019D01*
X70453959Y-70238019D01*
X70303237Y-70375420D01*
X70180328Y-70538177D01*
X70180323Y-70538186D01*
X70089419Y-70720747D01*
X70089418Y-70720750D01*
X70033603Y-70916917D01*
X70014785Y-71120000D01*
X69240500Y-71120000D01*
X69240500Y-68580000D01*
X70014785Y-68580000D01*
X70033603Y-68783083D01*
X70089418Y-68979250D01*
X70180327Y-69161821D01*
X70303236Y-69324579D01*
X70453959Y-69461981D01*
X70627363Y-69569348D01*
X70817544Y-69643024D01*
X71018024Y-69680500D01*
X71221976Y-69680500D01*
X71422456Y-69643024D01*
X71612637Y-69569348D01*
X71786041Y-69461981D01*
X71936764Y-69324579D01*
X72059673Y-69161821D01*
X72150582Y-68979250D01*
X72206397Y-68783083D01*
X72225215Y-68580000D01*
X72554785Y-68580000D01*
X72573603Y-68783083D01*
X72629418Y-68979250D01*
X72720327Y-69161821D01*
X72843236Y-69324579D01*
X72993959Y-69461981D01*
X73167363Y-69569348D01*
X73357544Y-69643024D01*
X73558024Y-69680500D01*
X73761976Y-69680500D01*
X73962456Y-69643024D01*
X74152637Y-69569348D01*
X74326041Y-69461981D01*
X74476764Y-69324579D01*
X74599673Y-69161821D01*
X74690582Y-68979250D01*
X74746397Y-68783083D01*
X74765215Y-68580000D01*
X95414785Y-68580000D01*
X95433603Y-68783083D01*
X95489418Y-68979250D01*
X95580327Y-69161821D01*
X95703236Y-69324579D01*
X95853959Y-69461981D01*
X96027363Y-69569348D01*
X96217544Y-69643024D01*
X96418024Y-69680500D01*
X96621976Y-69680500D01*
X96822456Y-69643024D01*
X97012637Y-69569348D01*
X97186041Y-69461981D01*
X97336764Y-69324579D01*
X97459673Y-69161821D01*
X97550582Y-68979250D01*
X97606397Y-68783083D01*
X97625215Y-68580003D01*
X120564843Y-68580003D01*
X120585429Y-68815313D01*
X120646569Y-69043489D01*
X120746399Y-69257577D01*
X120805072Y-69341372D01*
X121436922Y-68709521D01*
X121460507Y-68789844D01*
X121538239Y-68910798D01*
X121646900Y-69004952D01*
X121777685Y-69064680D01*
X121787466Y-69066086D01*
X121158626Y-69694926D01*
X121242422Y-69753600D01*
X121456509Y-69853430D01*
X121569518Y-69883711D01*
X121620832Y-69917035D01*
X121642759Y-69974156D01*
X121626924Y-70033257D01*
X121579657Y-70071653D01*
X121427363Y-70130652D01*
X121253958Y-70238018D01*
X121253959Y-70238019D01*
X121103237Y-70375420D01*
X120980328Y-70538177D01*
X120980323Y-70538186D01*
X120889419Y-70720747D01*
X120889418Y-70720750D01*
X120833603Y-70916917D01*
X120814785Y-71120000D01*
X120833603Y-71323083D01*
X120889418Y-71519250D01*
X120980327Y-71701821D01*
X121103236Y-71864579D01*
X121253959Y-72001981D01*
X121427363Y-72109348D01*
X121617544Y-72183024D01*
X121818024Y-72220500D01*
X122021976Y-72220500D01*
X122222456Y-72183024D01*
X122412637Y-72109348D01*
X122586041Y-72001981D01*
X122736764Y-71864579D01*
X122859673Y-71701821D01*
X122950582Y-71519250D01*
X123006397Y-71323083D01*
X123025215Y-71120000D01*
X123006397Y-70916917D01*
X122950582Y-70720750D01*
X122859673Y-70538179D01*
X122736764Y-70375421D01*
X122586041Y-70238019D01*
X122412637Y-70130652D01*
X122260340Y-70071652D01*
X122212910Y-70033001D01*
X122197256Y-69973852D01*
X122219359Y-69916799D01*
X122270481Y-69883711D01*
X122383490Y-69853430D01*
X122597577Y-69753600D01*
X122681372Y-69694925D01*
X122052533Y-69066086D01*
X122062315Y-69064680D01*
X122193100Y-69004952D01*
X122301761Y-68910798D01*
X122379493Y-68789844D01*
X122403076Y-68709523D01*
X123034925Y-69341372D01*
X123093600Y-69257577D01*
X123193430Y-69043489D01*
X123254570Y-68815313D01*
X123275157Y-68580003D01*
X123275157Y-68579996D01*
X123254570Y-68344686D01*
X123193429Y-68116505D01*
X123093605Y-67902432D01*
X123093602Y-67902426D01*
X123034926Y-67818626D01*
X122403076Y-68450475D01*
X122379493Y-68370156D01*
X122301761Y-68249202D01*
X122193100Y-68155048D01*
X122062315Y-68095320D01*
X122052530Y-68093913D01*
X122681372Y-67465072D01*
X122597577Y-67406399D01*
X122383489Y-67306568D01*
X122270481Y-67276288D01*
X122219166Y-67242963D01*
X122197240Y-67185842D01*
X122213076Y-67126741D01*
X122260339Y-67088347D01*
X122412637Y-67029348D01*
X122586041Y-66921981D01*
X122736764Y-66784579D01*
X122859673Y-66621821D01*
X122950582Y-66439250D01*
X123006397Y-66243083D01*
X123025215Y-66040000D01*
X123006397Y-65836917D01*
X122950582Y-65640750D01*
X122859673Y-65458179D01*
X122736764Y-65295421D01*
X122586041Y-65158019D01*
X122412637Y-65050652D01*
X122222456Y-64976976D01*
X122222455Y-64976975D01*
X122222453Y-64976975D01*
X122021976Y-64939500D01*
X121818024Y-64939500D01*
X121617546Y-64976975D01*
X121547632Y-65004059D01*
X121427363Y-65050652D01*
X121253959Y-65158019D01*
X121103237Y-65295420D01*
X120980328Y-65458177D01*
X120980323Y-65458186D01*
X120889419Y-65640747D01*
X120889418Y-65640750D01*
X120833603Y-65836917D01*
X120814785Y-66040000D01*
X120833603Y-66243083D01*
X120889418Y-66439250D01*
X120980327Y-66621821D01*
X121103236Y-66784579D01*
X121253959Y-66921981D01*
X121427363Y-67029348D01*
X121579658Y-67088347D01*
X121627089Y-67126997D01*
X121642743Y-67186146D01*
X121620640Y-67243200D01*
X121569519Y-67276288D01*
X121456503Y-67306570D01*
X121242430Y-67406394D01*
X121242411Y-67406406D01*
X121158626Y-67465072D01*
X121787467Y-68093913D01*
X121777685Y-68095320D01*
X121646900Y-68155048D01*
X121538239Y-68249202D01*
X121460507Y-68370156D01*
X121436922Y-68450476D01*
X120805072Y-67818626D01*
X120746406Y-67902411D01*
X120746394Y-67902430D01*
X120646570Y-68116505D01*
X120585429Y-68344686D01*
X120564843Y-68579996D01*
X120564843Y-68580003D01*
X97625215Y-68580003D01*
X97625215Y-68580000D01*
X97606397Y-68376917D01*
X97550582Y-68180750D01*
X97459673Y-67998179D01*
X97336764Y-67835421D01*
X97186041Y-67698019D01*
X97012637Y-67590652D01*
X96822456Y-67516976D01*
X96822455Y-67516975D01*
X96822453Y-67516975D01*
X96621976Y-67479500D01*
X96418024Y-67479500D01*
X96217546Y-67516975D01*
X96147632Y-67544059D01*
X96027363Y-67590652D01*
X95853958Y-67698018D01*
X95853959Y-67698019D01*
X95703237Y-67835420D01*
X95580328Y-67998177D01*
X95580323Y-67998186D01*
X95521408Y-68116505D01*
X95489418Y-68180750D01*
X95433603Y-68376917D01*
X95414785Y-68580000D01*
X74765215Y-68580000D01*
X74746397Y-68376917D01*
X74690582Y-68180750D01*
X74599673Y-67998179D01*
X74476764Y-67835421D01*
X74326041Y-67698019D01*
X74152637Y-67590652D01*
X73962456Y-67516976D01*
X73962455Y-67516975D01*
X73962453Y-67516975D01*
X73761976Y-67479500D01*
X73558024Y-67479500D01*
X73357546Y-67516975D01*
X73287632Y-67544059D01*
X73167363Y-67590652D01*
X72993958Y-67698019D01*
X72993959Y-67698019D01*
X72843237Y-67835420D01*
X72720328Y-67998177D01*
X72720323Y-67998186D01*
X72661408Y-68116505D01*
X72629418Y-68180750D01*
X72573603Y-68376917D01*
X72554785Y-68580000D01*
X72225215Y-68580000D01*
X72206397Y-68376917D01*
X72150582Y-68180750D01*
X72059673Y-67998179D01*
X71936764Y-67835421D01*
X71786041Y-67698019D01*
X71612637Y-67590652D01*
X71422456Y-67516976D01*
X71422455Y-67516975D01*
X71422453Y-67516975D01*
X71221976Y-67479500D01*
X71018024Y-67479500D01*
X70817546Y-67516975D01*
X70747632Y-67544059D01*
X70627363Y-67590652D01*
X70453959Y-67698019D01*
X70303237Y-67835420D01*
X70180328Y-67998177D01*
X70180323Y-67998186D01*
X70121408Y-68116505D01*
X70089418Y-68180750D01*
X70033603Y-68376917D01*
X70014785Y-68580000D01*
X69240500Y-68580000D01*
X69240500Y-67310000D01*
X88344750Y-67310000D01*
X88363669Y-67453708D01*
X88363670Y-67453709D01*
X88389875Y-67516976D01*
X88419139Y-67587625D01*
X88507379Y-67702621D01*
X88622375Y-67790861D01*
X88756291Y-67846330D01*
X88899999Y-67865250D01*
X88899999Y-67865249D01*
X88900000Y-67865250D01*
X89043709Y-67846330D01*
X89177625Y-67790861D01*
X89292621Y-67702621D01*
X89380861Y-67587625D01*
X89436330Y-67453709D01*
X89455250Y-67310000D01*
X89868750Y-67310000D01*
X89887669Y-67453708D01*
X89887670Y-67453709D01*
X89913875Y-67516976D01*
X89943139Y-67587625D01*
X90031379Y-67702621D01*
X90146375Y-67790861D01*
X90280291Y-67846330D01*
X90424000Y-67865250D01*
X90567709Y-67846330D01*
X90701625Y-67790861D01*
X90816621Y-67702621D01*
X90904861Y-67587625D01*
X90960330Y-67453709D01*
X90979250Y-67310000D01*
X91392750Y-67310000D01*
X91411669Y-67453708D01*
X91411670Y-67453709D01*
X91437875Y-67516976D01*
X91467139Y-67587625D01*
X91555379Y-67702621D01*
X91670375Y-67790861D01*
X91804291Y-67846330D01*
X91948000Y-67865250D01*
X92091709Y-67846330D01*
X92225625Y-67790861D01*
X92340621Y-67702621D01*
X92428861Y-67587625D01*
X92484330Y-67453709D01*
X92503250Y-67310000D01*
X92502798Y-67306570D01*
X92484330Y-67166291D01*
X92428861Y-67032375D01*
X92340621Y-66917379D01*
X92225625Y-66829139D01*
X92225621Y-66829137D01*
X92091709Y-66773670D01*
X92091708Y-66773669D01*
X91948000Y-66754750D01*
X91804291Y-66773669D01*
X91804290Y-66773670D01*
X91670378Y-66829137D01*
X91670374Y-66829139D01*
X91555381Y-66917377D01*
X91555377Y-66917381D01*
X91467139Y-67032374D01*
X91467137Y-67032378D01*
X91411670Y-67166290D01*
X91411669Y-67166291D01*
X91392750Y-67309999D01*
X91392750Y-67310000D01*
X90979250Y-67310000D01*
X90978798Y-67306570D01*
X90960330Y-67166291D01*
X90904861Y-67032375D01*
X90816621Y-66917379D01*
X90701625Y-66829139D01*
X90701621Y-66829137D01*
X90567709Y-66773670D01*
X90567708Y-66773669D01*
X90424000Y-66754750D01*
X90280291Y-66773669D01*
X90280290Y-66773670D01*
X90146378Y-66829137D01*
X90146374Y-66829139D01*
X90031381Y-66917377D01*
X90031377Y-66917381D01*
X89943139Y-67032374D01*
X89943137Y-67032378D01*
X89887670Y-67166290D01*
X89887669Y-67166291D01*
X89868750Y-67309999D01*
X89868750Y-67310000D01*
X89455250Y-67310000D01*
X89454798Y-67306570D01*
X89436330Y-67166291D01*
X89380861Y-67032375D01*
X89292621Y-66917379D01*
X89177625Y-66829139D01*
X89177621Y-66829137D01*
X89043709Y-66773670D01*
X89043708Y-66773669D01*
X88900000Y-66754750D01*
X88756291Y-66773669D01*
X88756290Y-66773670D01*
X88622378Y-66829137D01*
X88622374Y-66829139D01*
X88507381Y-66917377D01*
X88507377Y-66917381D01*
X88419139Y-67032374D01*
X88419137Y-67032378D01*
X88363670Y-67166290D01*
X88363669Y-67166291D01*
X88344750Y-67309999D01*
X88344750Y-67310000D01*
X69240500Y-67310000D01*
X69240500Y-66040000D01*
X70014785Y-66040000D01*
X70033603Y-66243083D01*
X70089418Y-66439250D01*
X70180327Y-66621821D01*
X70303236Y-66784579D01*
X70453959Y-66921981D01*
X70627363Y-67029348D01*
X70817544Y-67103024D01*
X71018024Y-67140500D01*
X71221976Y-67140500D01*
X71422456Y-67103024D01*
X71612637Y-67029348D01*
X71786041Y-66921981D01*
X71936764Y-66784579D01*
X72059673Y-66621821D01*
X72150582Y-66439250D01*
X72206397Y-66243083D01*
X72225215Y-66040000D01*
X72554785Y-66040000D01*
X72573603Y-66243083D01*
X72629418Y-66439250D01*
X72720327Y-66621821D01*
X72843236Y-66784579D01*
X72993959Y-66921981D01*
X73167363Y-67029348D01*
X73357544Y-67103024D01*
X73558024Y-67140500D01*
X73761976Y-67140500D01*
X73962456Y-67103024D01*
X74152637Y-67029348D01*
X74326041Y-66921981D01*
X74476764Y-66784579D01*
X74599673Y-66621821D01*
X74690582Y-66439250D01*
X74746397Y-66243083D01*
X74765215Y-66040000D01*
X95414785Y-66040000D01*
X95433603Y-66243083D01*
X95489418Y-66439250D01*
X95580327Y-66621821D01*
X95703236Y-66784579D01*
X95853959Y-66921981D01*
X96027363Y-67029348D01*
X96217544Y-67103024D01*
X96418024Y-67140500D01*
X96621976Y-67140500D01*
X96822456Y-67103024D01*
X97012637Y-67029348D01*
X97186041Y-66921981D01*
X97336764Y-66784579D01*
X97459673Y-66621821D01*
X97550582Y-66439250D01*
X97606397Y-66243083D01*
X97625215Y-66040000D01*
X97606397Y-65836917D01*
X97550582Y-65640750D01*
X97459673Y-65458179D01*
X97336764Y-65295421D01*
X97186041Y-65158019D01*
X97012637Y-65050652D01*
X96822456Y-64976976D01*
X96822455Y-64976975D01*
X96822453Y-64976975D01*
X96621976Y-64939500D01*
X96418024Y-64939500D01*
X96217546Y-64976975D01*
X96147632Y-65004059D01*
X96027363Y-65050652D01*
X95853958Y-65158018D01*
X95853959Y-65158019D01*
X95703237Y-65295420D01*
X95580328Y-65458177D01*
X95580323Y-65458186D01*
X95489419Y-65640747D01*
X95489418Y-65640750D01*
X95433603Y-65836917D01*
X95414785Y-66040000D01*
X74765215Y-66040000D01*
X74746397Y-65836917D01*
X74690582Y-65640750D01*
X74599673Y-65458179D01*
X74476764Y-65295421D01*
X74326041Y-65158019D01*
X74152637Y-65050652D01*
X73962456Y-64976976D01*
X73962455Y-64976975D01*
X73962453Y-64976975D01*
X73761976Y-64939500D01*
X73558024Y-64939500D01*
X73357546Y-64976975D01*
X73287632Y-65004059D01*
X73167363Y-65050652D01*
X72993958Y-65158018D01*
X72993959Y-65158019D01*
X72843237Y-65295420D01*
X72720328Y-65458177D01*
X72720323Y-65458186D01*
X72629419Y-65640747D01*
X72629418Y-65640750D01*
X72573603Y-65836917D01*
X72554785Y-66040000D01*
X72225215Y-66040000D01*
X72206397Y-65836917D01*
X72150582Y-65640750D01*
X72059673Y-65458179D01*
X71936764Y-65295421D01*
X71786041Y-65158019D01*
X71612637Y-65050652D01*
X71422456Y-64976976D01*
X71422455Y-64976975D01*
X71422453Y-64976975D01*
X71221976Y-64939500D01*
X71018024Y-64939500D01*
X70817546Y-64976975D01*
X70747632Y-65004059D01*
X70627363Y-65050652D01*
X70453959Y-65158019D01*
X70303237Y-65295420D01*
X70180328Y-65458177D01*
X70180323Y-65458186D01*
X70089419Y-65640747D01*
X70089418Y-65640750D01*
X70033603Y-65836917D01*
X70014785Y-66040000D01*
X69240500Y-66040000D01*
X69240500Y-63500000D01*
X70014785Y-63500000D01*
X70033603Y-63703083D01*
X70089418Y-63899250D01*
X70180327Y-64081821D01*
X70303236Y-64244579D01*
X70453959Y-64381981D01*
X70627363Y-64489348D01*
X70817544Y-64563024D01*
X71018024Y-64600500D01*
X71221976Y-64600500D01*
X71422456Y-64563024D01*
X71612637Y-64489348D01*
X71786041Y-64381981D01*
X71936764Y-64244579D01*
X72059673Y-64081821D01*
X72150582Y-63899250D01*
X72206397Y-63703083D01*
X72225215Y-63500000D01*
X72554785Y-63500000D01*
X72573603Y-63703083D01*
X72629418Y-63899250D01*
X72720327Y-64081821D01*
X72843236Y-64244579D01*
X72993959Y-64381981D01*
X73167363Y-64489348D01*
X73357544Y-64563024D01*
X73558024Y-64600500D01*
X73761976Y-64600500D01*
X73962456Y-64563024D01*
X74152637Y-64489348D01*
X74326041Y-64381981D01*
X74476764Y-64244579D01*
X74599673Y-64081821D01*
X74690582Y-63899250D01*
X74746397Y-63703083D01*
X74765215Y-63500000D01*
X95414785Y-63500000D01*
X95433603Y-63703083D01*
X95489418Y-63899250D01*
X95580327Y-64081821D01*
X95703236Y-64244579D01*
X95853959Y-64381981D01*
X96027363Y-64489348D01*
X96217544Y-64563024D01*
X96418024Y-64600500D01*
X96621976Y-64600500D01*
X96822456Y-64563024D01*
X97012637Y-64489348D01*
X97186041Y-64381981D01*
X97336764Y-64244579D01*
X97459673Y-64081821D01*
X97550582Y-63899250D01*
X97606397Y-63703083D01*
X97625215Y-63500000D01*
X120814785Y-63500000D01*
X120833603Y-63703083D01*
X120889418Y-63899250D01*
X120980327Y-64081821D01*
X121103236Y-64244579D01*
X121253959Y-64381981D01*
X121427363Y-64489348D01*
X121617544Y-64563024D01*
X121818024Y-64600500D01*
X122021976Y-64600500D01*
X122222456Y-64563024D01*
X122412637Y-64489348D01*
X122586041Y-64381981D01*
X122736764Y-64244579D01*
X122859673Y-64081821D01*
X122950582Y-63899250D01*
X123006397Y-63703083D01*
X123025215Y-63500000D01*
X123006397Y-63296917D01*
X122950582Y-63100750D01*
X122859673Y-62918179D01*
X122736764Y-62755421D01*
X122586041Y-62618019D01*
X122412637Y-62510652D01*
X122222456Y-62436976D01*
X122222455Y-62436975D01*
X122222453Y-62436975D01*
X122021976Y-62399500D01*
X121818024Y-62399500D01*
X121617546Y-62436975D01*
X121547632Y-62464059D01*
X121427363Y-62510652D01*
X121303451Y-62587375D01*
X121253959Y-62618019D01*
X121103237Y-62755420D01*
X120980328Y-62918177D01*
X120980323Y-62918186D01*
X120889419Y-63100747D01*
X120889418Y-63100750D01*
X120833603Y-63296917D01*
X120814785Y-63500000D01*
X97625215Y-63500000D01*
X97606397Y-63296917D01*
X97550582Y-63100750D01*
X97459673Y-62918179D01*
X97336764Y-62755421D01*
X97186041Y-62618019D01*
X97012637Y-62510652D01*
X96822456Y-62436976D01*
X96822455Y-62436975D01*
X96822453Y-62436975D01*
X96621976Y-62399500D01*
X96418024Y-62399500D01*
X96217546Y-62436975D01*
X96147632Y-62464059D01*
X96027363Y-62510652D01*
X95903451Y-62587375D01*
X95853959Y-62618019D01*
X95703237Y-62755420D01*
X95580328Y-62918177D01*
X95580323Y-62918186D01*
X95489419Y-63100747D01*
X95489418Y-63100750D01*
X95433603Y-63296917D01*
X95414785Y-63500000D01*
X74765215Y-63500000D01*
X74746397Y-63296917D01*
X74690582Y-63100750D01*
X74599673Y-62918179D01*
X74559514Y-62865000D01*
X81740750Y-62865000D01*
X81759669Y-63008708D01*
X81759670Y-63008709D01*
X81815139Y-63142625D01*
X81903379Y-63257621D01*
X82018375Y-63345861D01*
X82152291Y-63401330D01*
X82296000Y-63420250D01*
X82439709Y-63401330D01*
X82573625Y-63345861D01*
X82688621Y-63257621D01*
X82776861Y-63142625D01*
X82832330Y-63008709D01*
X82851250Y-62865000D01*
X82832330Y-62721291D01*
X82776861Y-62587375D01*
X82688621Y-62472379D01*
X82573625Y-62384139D01*
X82573621Y-62384137D01*
X82439709Y-62328670D01*
X82439708Y-62328669D01*
X82296000Y-62309750D01*
X82152291Y-62328669D01*
X82152290Y-62328670D01*
X82018378Y-62384137D01*
X82018374Y-62384139D01*
X81903381Y-62472377D01*
X81903377Y-62472381D01*
X81815139Y-62587374D01*
X81815137Y-62587378D01*
X81759670Y-62721290D01*
X81759669Y-62721291D01*
X81740750Y-62864999D01*
X81740750Y-62865000D01*
X74559514Y-62865000D01*
X74476764Y-62755421D01*
X74326041Y-62618019D01*
X74152637Y-62510652D01*
X73962456Y-62436976D01*
X73962455Y-62436975D01*
X73962453Y-62436975D01*
X73761976Y-62399500D01*
X73558024Y-62399500D01*
X73357546Y-62436975D01*
X73287632Y-62464059D01*
X73167363Y-62510652D01*
X73043451Y-62587375D01*
X72993959Y-62618019D01*
X72843237Y-62755420D01*
X72720328Y-62918177D01*
X72720323Y-62918186D01*
X72629419Y-63100747D01*
X72629418Y-63100750D01*
X72573603Y-63296917D01*
X72554785Y-63500000D01*
X72225215Y-63500000D01*
X72206397Y-63296917D01*
X72150582Y-63100750D01*
X72059673Y-62918179D01*
X71936764Y-62755421D01*
X71786041Y-62618019D01*
X71612637Y-62510652D01*
X71422456Y-62436976D01*
X71422455Y-62436975D01*
X71422453Y-62436975D01*
X71221976Y-62399500D01*
X71018024Y-62399500D01*
X70817546Y-62436975D01*
X70747632Y-62464059D01*
X70627363Y-62510652D01*
X70503451Y-62587375D01*
X70453959Y-62618019D01*
X70303237Y-62755420D01*
X70180328Y-62918177D01*
X70180323Y-62918186D01*
X70089419Y-63100747D01*
X70089418Y-63100750D01*
X70033603Y-63296917D01*
X70014785Y-63500000D01*
X69240500Y-63500000D01*
X69240500Y-60960000D01*
X70014785Y-60960000D01*
X70033603Y-61163083D01*
X70089418Y-61359250D01*
X70180327Y-61541821D01*
X70303236Y-61704579D01*
X70453959Y-61841981D01*
X70627363Y-61949348D01*
X70817544Y-62023024D01*
X71018024Y-62060500D01*
X71221976Y-62060500D01*
X71422456Y-62023024D01*
X71612637Y-61949348D01*
X71786041Y-61841981D01*
X71936764Y-61704579D01*
X72059673Y-61541821D01*
X72150582Y-61359250D01*
X72206397Y-61163083D01*
X72225215Y-60960000D01*
X72554785Y-60960000D01*
X72573603Y-61163083D01*
X72629418Y-61359250D01*
X72720327Y-61541821D01*
X72843236Y-61704579D01*
X72993959Y-61841981D01*
X73167363Y-61949348D01*
X73357544Y-62023024D01*
X73558024Y-62060500D01*
X73761976Y-62060500D01*
X73962456Y-62023024D01*
X74152637Y-61949348D01*
X74326041Y-61841981D01*
X74476764Y-61704579D01*
X74599673Y-61541821D01*
X74690582Y-61359250D01*
X74746397Y-61163083D01*
X74765215Y-60960000D01*
X95414785Y-60960000D01*
X95433603Y-61163083D01*
X95489418Y-61359250D01*
X95580327Y-61541821D01*
X95703236Y-61704579D01*
X95853959Y-61841981D01*
X96027363Y-61949348D01*
X96217544Y-62023024D01*
X96418024Y-62060500D01*
X96621976Y-62060500D01*
X96822456Y-62023024D01*
X97012637Y-61949348D01*
X97186041Y-61841981D01*
X97336764Y-61704579D01*
X97459673Y-61541821D01*
X97550582Y-61359250D01*
X97606397Y-61163083D01*
X97625215Y-60960000D01*
X120814785Y-60960000D01*
X120833603Y-61163083D01*
X120889418Y-61359250D01*
X120980327Y-61541821D01*
X121103236Y-61704579D01*
X121253959Y-61841981D01*
X121427363Y-61949348D01*
X121617544Y-62023024D01*
X121818024Y-62060500D01*
X122021976Y-62060500D01*
X122222456Y-62023024D01*
X122412637Y-61949348D01*
X122586041Y-61841981D01*
X122736764Y-61704579D01*
X122859673Y-61541821D01*
X122950582Y-61359250D01*
X123006397Y-61163083D01*
X123025215Y-60960000D01*
X123006397Y-60756917D01*
X122950582Y-60560750D01*
X122859673Y-60378179D01*
X122736764Y-60215421D01*
X122586041Y-60078019D01*
X122412637Y-59970652D01*
X122222456Y-59896976D01*
X122222455Y-59896975D01*
X122222453Y-59896975D01*
X122021976Y-59859500D01*
X121818024Y-59859500D01*
X121617546Y-59896975D01*
X121547632Y-59924059D01*
X121427363Y-59970652D01*
X121253958Y-60078018D01*
X121253959Y-60078019D01*
X121103237Y-60215420D01*
X120980328Y-60378177D01*
X120980323Y-60378186D01*
X120889419Y-60560747D01*
X120889418Y-60560750D01*
X120833603Y-60756917D01*
X120814785Y-60960000D01*
X97625215Y-60960000D01*
X97606397Y-60756917D01*
X97550582Y-60560750D01*
X97459673Y-60378179D01*
X97336764Y-60215421D01*
X97186041Y-60078019D01*
X97012637Y-59970652D01*
X96822456Y-59896976D01*
X96822455Y-59896975D01*
X96822453Y-59896975D01*
X96621976Y-59859500D01*
X96418024Y-59859500D01*
X96217546Y-59896975D01*
X96147632Y-59924059D01*
X96027363Y-59970652D01*
X95853958Y-60078018D01*
X95853959Y-60078019D01*
X95703237Y-60215420D01*
X95580328Y-60378177D01*
X95580323Y-60378186D01*
X95489419Y-60560747D01*
X95489418Y-60560750D01*
X95433603Y-60756917D01*
X95414785Y-60960000D01*
X74765215Y-60960000D01*
X74746397Y-60756917D01*
X74690582Y-60560750D01*
X74599673Y-60378179D01*
X74476764Y-60215421D01*
X74326041Y-60078019D01*
X74152637Y-59970652D01*
X73962456Y-59896976D01*
X73962455Y-59896975D01*
X73962453Y-59896975D01*
X73761976Y-59859500D01*
X73558024Y-59859500D01*
X73357546Y-59896975D01*
X73287632Y-59924059D01*
X73167363Y-59970652D01*
X72993959Y-60078018D01*
X72993959Y-60078019D01*
X72843237Y-60215420D01*
X72720328Y-60378177D01*
X72720323Y-60378186D01*
X72629419Y-60560747D01*
X72629418Y-60560750D01*
X72573603Y-60756917D01*
X72554785Y-60960000D01*
X72225215Y-60960000D01*
X72206397Y-60756917D01*
X72150582Y-60560750D01*
X72059673Y-60378179D01*
X71936764Y-60215421D01*
X71786041Y-60078019D01*
X71612637Y-59970652D01*
X71422456Y-59896976D01*
X71422455Y-59896975D01*
X71422453Y-59896975D01*
X71221976Y-59859500D01*
X71018024Y-59859500D01*
X70817546Y-59896975D01*
X70747632Y-59924059D01*
X70627363Y-59970652D01*
X70453958Y-60078018D01*
X70453959Y-60078019D01*
X70303237Y-60215420D01*
X70180328Y-60378177D01*
X70180323Y-60378186D01*
X70089419Y-60560747D01*
X70089418Y-60560750D01*
X70033603Y-60756917D01*
X70014785Y-60960000D01*
X69240500Y-60960000D01*
X69240500Y-58420000D01*
X70014785Y-58420000D01*
X70033603Y-58623083D01*
X70089418Y-58819250D01*
X70180327Y-59001821D01*
X70303236Y-59164579D01*
X70453959Y-59301981D01*
X70627363Y-59409348D01*
X70817544Y-59483024D01*
X71018024Y-59520500D01*
X71221976Y-59520500D01*
X71422456Y-59483024D01*
X71612637Y-59409348D01*
X71786041Y-59301981D01*
X71936764Y-59164579D01*
X72059673Y-59001821D01*
X72150582Y-58819250D01*
X72206397Y-58623083D01*
X72225215Y-58420000D01*
X72554785Y-58420000D01*
X72573603Y-58623083D01*
X72629418Y-58819250D01*
X72720327Y-59001821D01*
X72843236Y-59164579D01*
X72993959Y-59301981D01*
X73167363Y-59409348D01*
X73357544Y-59483024D01*
X73558024Y-59520500D01*
X73761976Y-59520500D01*
X73962456Y-59483024D01*
X74152637Y-59409348D01*
X74314705Y-59309000D01*
X84788750Y-59309000D01*
X84807669Y-59452708D01*
X84807670Y-59452709D01*
X84835749Y-59520500D01*
X84863139Y-59586625D01*
X84951379Y-59701621D01*
X85066375Y-59789861D01*
X85200291Y-59845330D01*
X85344000Y-59864250D01*
X85487709Y-59845330D01*
X85621625Y-59789861D01*
X85736621Y-59701621D01*
X85824861Y-59586625D01*
X85880330Y-59452709D01*
X85899250Y-59309000D01*
X86312750Y-59309000D01*
X86331669Y-59452708D01*
X86331670Y-59452709D01*
X86359749Y-59520500D01*
X86387139Y-59586625D01*
X86475379Y-59701621D01*
X86590375Y-59789861D01*
X86724291Y-59845330D01*
X86868000Y-59864250D01*
X87011709Y-59845330D01*
X87145625Y-59789861D01*
X87260621Y-59701621D01*
X87348861Y-59586625D01*
X87404330Y-59452709D01*
X87423250Y-59309000D01*
X87836750Y-59309000D01*
X87855669Y-59452708D01*
X87855670Y-59452709D01*
X87883749Y-59520500D01*
X87911139Y-59586625D01*
X87999379Y-59701621D01*
X88114375Y-59789861D01*
X88248291Y-59845330D01*
X88392000Y-59864250D01*
X88535709Y-59845330D01*
X88669625Y-59789861D01*
X88784621Y-59701621D01*
X88872861Y-59586625D01*
X88928330Y-59452709D01*
X88947250Y-59309000D01*
X88928330Y-59165291D01*
X88872861Y-59031375D01*
X88784621Y-58916379D01*
X88669625Y-58828139D01*
X88669621Y-58828137D01*
X88535709Y-58772670D01*
X88535708Y-58772669D01*
X88392000Y-58753750D01*
X88248291Y-58772669D01*
X88248290Y-58772670D01*
X88114378Y-58828137D01*
X88114374Y-58828139D01*
X87999381Y-58916377D01*
X87999377Y-58916381D01*
X87911139Y-59031374D01*
X87911137Y-59031378D01*
X87855670Y-59165290D01*
X87855669Y-59165291D01*
X87836750Y-59308999D01*
X87836750Y-59309000D01*
X87423250Y-59309000D01*
X87404330Y-59165291D01*
X87348861Y-59031375D01*
X87260621Y-58916379D01*
X87145625Y-58828139D01*
X87145621Y-58828137D01*
X87011709Y-58772670D01*
X87011708Y-58772669D01*
X86868000Y-58753750D01*
X86724291Y-58772669D01*
X86724290Y-58772670D01*
X86590378Y-58828137D01*
X86590374Y-58828139D01*
X86475381Y-58916377D01*
X86475377Y-58916381D01*
X86387139Y-59031374D01*
X86387137Y-59031378D01*
X86331670Y-59165290D01*
X86331669Y-59165291D01*
X86312750Y-59308999D01*
X86312750Y-59309000D01*
X85899250Y-59309000D01*
X85880330Y-59165291D01*
X85824861Y-59031375D01*
X85736621Y-58916379D01*
X85621625Y-58828139D01*
X85621621Y-58828137D01*
X85487709Y-58772670D01*
X85487708Y-58772669D01*
X85344000Y-58753750D01*
X85200291Y-58772669D01*
X85200290Y-58772670D01*
X85066378Y-58828137D01*
X85066374Y-58828139D01*
X84951381Y-58916377D01*
X84951377Y-58916381D01*
X84863139Y-59031374D01*
X84863137Y-59031378D01*
X84807670Y-59165290D01*
X84807669Y-59165291D01*
X84788750Y-59308999D01*
X84788750Y-59309000D01*
X74314705Y-59309000D01*
X74326041Y-59301981D01*
X74476764Y-59164579D01*
X74599673Y-59001821D01*
X74690582Y-58819250D01*
X74746397Y-58623083D01*
X74765215Y-58420000D01*
X95414785Y-58420000D01*
X95433603Y-58623083D01*
X95489418Y-58819250D01*
X95580327Y-59001821D01*
X95703236Y-59164579D01*
X95853959Y-59301981D01*
X96027363Y-59409348D01*
X96217544Y-59483024D01*
X96418024Y-59520500D01*
X96621976Y-59520500D01*
X96822456Y-59483024D01*
X97012637Y-59409348D01*
X97186041Y-59301981D01*
X97336764Y-59164579D01*
X97459673Y-59001821D01*
X97550582Y-58819250D01*
X97606397Y-58623083D01*
X97625215Y-58420000D01*
X120814785Y-58420000D01*
X120833603Y-58623083D01*
X120889418Y-58819250D01*
X120980327Y-59001821D01*
X121103236Y-59164579D01*
X121253959Y-59301981D01*
X121427363Y-59409348D01*
X121617544Y-59483024D01*
X121818024Y-59520500D01*
X122021976Y-59520500D01*
X122222456Y-59483024D01*
X122412637Y-59409348D01*
X122586041Y-59301981D01*
X122736764Y-59164579D01*
X122859673Y-59001821D01*
X122950582Y-58819250D01*
X123006397Y-58623083D01*
X123025215Y-58420000D01*
X123006397Y-58216917D01*
X122950582Y-58020750D01*
X122859673Y-57838179D01*
X122736764Y-57675421D01*
X122586041Y-57538019D01*
X122412637Y-57430652D01*
X122222456Y-57356976D01*
X122222455Y-57356975D01*
X122222453Y-57356975D01*
X122021976Y-57319500D01*
X121818024Y-57319500D01*
X121617546Y-57356975D01*
X121547632Y-57384059D01*
X121427363Y-57430652D01*
X121253959Y-57538019D01*
X121103237Y-57675420D01*
X120980328Y-57838177D01*
X120980323Y-57838186D01*
X120889419Y-58020747D01*
X120889418Y-58020750D01*
X120833603Y-58216917D01*
X120814785Y-58420000D01*
X97625215Y-58420000D01*
X97606397Y-58216917D01*
X97550582Y-58020750D01*
X97459673Y-57838179D01*
X97336764Y-57675421D01*
X97186041Y-57538019D01*
X97012637Y-57430652D01*
X96822456Y-57356976D01*
X96822455Y-57356975D01*
X96822453Y-57356975D01*
X96621976Y-57319500D01*
X96418024Y-57319500D01*
X96217546Y-57356975D01*
X96147632Y-57384059D01*
X96027363Y-57430652D01*
X95853958Y-57538018D01*
X95853959Y-57538019D01*
X95703237Y-57675420D01*
X95580328Y-57838177D01*
X95580323Y-57838186D01*
X95489419Y-58020747D01*
X95489418Y-58020750D01*
X95433603Y-58216917D01*
X95414785Y-58420000D01*
X74765215Y-58420000D01*
X74746397Y-58216917D01*
X74690582Y-58020750D01*
X74599673Y-57838179D01*
X74476764Y-57675421D01*
X74326041Y-57538019D01*
X74152637Y-57430652D01*
X73962456Y-57356976D01*
X73962455Y-57356975D01*
X73962453Y-57356975D01*
X73761976Y-57319500D01*
X73558024Y-57319500D01*
X73357546Y-57356975D01*
X73287632Y-57384059D01*
X73167363Y-57430652D01*
X72993958Y-57538019D01*
X72993959Y-57538019D01*
X72843237Y-57675420D01*
X72720328Y-57838177D01*
X72720323Y-57838186D01*
X72629419Y-58020747D01*
X72629418Y-58020750D01*
X72573603Y-58216917D01*
X72554785Y-58420000D01*
X72225215Y-58420000D01*
X72206397Y-58216917D01*
X72150582Y-58020750D01*
X72059673Y-57838179D01*
X71936764Y-57675421D01*
X71786041Y-57538019D01*
X71612637Y-57430652D01*
X71422456Y-57356976D01*
X71422455Y-57356975D01*
X71422453Y-57356975D01*
X71221976Y-57319500D01*
X71018024Y-57319500D01*
X70817546Y-57356975D01*
X70747632Y-57384059D01*
X70627363Y-57430652D01*
X70453959Y-57538019D01*
X70303237Y-57675420D01*
X70180328Y-57838177D01*
X70180323Y-57838186D01*
X70089419Y-58020747D01*
X70089418Y-58020750D01*
X70033603Y-58216917D01*
X70014785Y-58420000D01*
X69240500Y-58420000D01*
X69240500Y-55880000D01*
X70014785Y-55880000D01*
X70033603Y-56083083D01*
X70089418Y-56279250D01*
X70180327Y-56461821D01*
X70303236Y-56624579D01*
X70453959Y-56761981D01*
X70627363Y-56869348D01*
X70817544Y-56943024D01*
X71018024Y-56980500D01*
X71221976Y-56980500D01*
X71422456Y-56943024D01*
X71612637Y-56869348D01*
X71786041Y-56761981D01*
X71936764Y-56624579D01*
X72059673Y-56461821D01*
X72150582Y-56279250D01*
X72206397Y-56083083D01*
X72225215Y-55880000D01*
X72554785Y-55880000D01*
X72573603Y-56083083D01*
X72629418Y-56279250D01*
X72720327Y-56461821D01*
X72843236Y-56624579D01*
X72993959Y-56761981D01*
X73167363Y-56869348D01*
X73357544Y-56943024D01*
X73558024Y-56980500D01*
X73761976Y-56980500D01*
X73962456Y-56943024D01*
X74152637Y-56869348D01*
X74326041Y-56761981D01*
X74476764Y-56624579D01*
X74599673Y-56461821D01*
X74690582Y-56279250D01*
X74746397Y-56083083D01*
X74765215Y-55880000D01*
X95414785Y-55880000D01*
X95433603Y-56083083D01*
X95489418Y-56279250D01*
X95580327Y-56461821D01*
X95703236Y-56624579D01*
X95853959Y-56761981D01*
X96027363Y-56869348D01*
X96217544Y-56943024D01*
X96418024Y-56980500D01*
X96621976Y-56980500D01*
X96822456Y-56943024D01*
X97012637Y-56869348D01*
X97186041Y-56761981D01*
X97336764Y-56624579D01*
X97459673Y-56461821D01*
X97550582Y-56279250D01*
X97606397Y-56083083D01*
X97625215Y-55880000D01*
X97606397Y-55676917D01*
X97550582Y-55480750D01*
X97459673Y-55298179D01*
X97336764Y-55135421D01*
X97186041Y-54998019D01*
X97012637Y-54890652D01*
X96822456Y-54816976D01*
X96822455Y-54816975D01*
X96822453Y-54816975D01*
X96621976Y-54779500D01*
X96418024Y-54779500D01*
X96217546Y-54816975D01*
X96179658Y-54831653D01*
X96027363Y-54890652D01*
X95853958Y-54998018D01*
X95853959Y-54998019D01*
X95703237Y-55135420D01*
X95580328Y-55298177D01*
X95580323Y-55298186D01*
X95489419Y-55480747D01*
X95489418Y-55480750D01*
X95433603Y-55676917D01*
X95414785Y-55880000D01*
X74765215Y-55880000D01*
X74746397Y-55676917D01*
X74690582Y-55480750D01*
X74599673Y-55298179D01*
X74476764Y-55135421D01*
X74326041Y-54998019D01*
X74152637Y-54890652D01*
X73962456Y-54816976D01*
X73962455Y-54816975D01*
X73962453Y-54816975D01*
X73761976Y-54779500D01*
X73558024Y-54779500D01*
X73357546Y-54816975D01*
X73319658Y-54831653D01*
X73167363Y-54890652D01*
X72993958Y-54998018D01*
X72993959Y-54998019D01*
X72843237Y-55135420D01*
X72720328Y-55298177D01*
X72720323Y-55298186D01*
X72629419Y-55480747D01*
X72629418Y-55480750D01*
X72573603Y-55676917D01*
X72554785Y-55880000D01*
X72225215Y-55880000D01*
X72206397Y-55676917D01*
X72150582Y-55480750D01*
X72059673Y-55298179D01*
X71936764Y-55135421D01*
X71786041Y-54998019D01*
X71612637Y-54890652D01*
X71422456Y-54816976D01*
X71422455Y-54816975D01*
X71422453Y-54816975D01*
X71221976Y-54779500D01*
X71018024Y-54779500D01*
X70817546Y-54816975D01*
X70779658Y-54831653D01*
X70627363Y-54890652D01*
X70453959Y-54998018D01*
X70453959Y-54998019D01*
X70303237Y-55135420D01*
X70180328Y-55298177D01*
X70180323Y-55298186D01*
X70089419Y-55480747D01*
X70089418Y-55480750D01*
X70033603Y-55676917D01*
X70014785Y-55880000D01*
X69240500Y-55880000D01*
X69240500Y-53340000D01*
X70014785Y-53340000D01*
X70033603Y-53543083D01*
X70089418Y-53739250D01*
X70180327Y-53921821D01*
X70303236Y-54084579D01*
X70453959Y-54221981D01*
X70627363Y-54329348D01*
X70817544Y-54403024D01*
X71018024Y-54440500D01*
X71221976Y-54440500D01*
X71422456Y-54403024D01*
X71612637Y-54329348D01*
X71786041Y-54221981D01*
X71936764Y-54084579D01*
X72059673Y-53921821D01*
X72150582Y-53739250D01*
X72206397Y-53543083D01*
X72225215Y-53340000D01*
X72554785Y-53340000D01*
X72573603Y-53543083D01*
X72629418Y-53739250D01*
X72720327Y-53921821D01*
X72843236Y-54084579D01*
X72993959Y-54221981D01*
X73167363Y-54329348D01*
X73357544Y-54403024D01*
X73558024Y-54440500D01*
X73761976Y-54440500D01*
X73962456Y-54403024D01*
X74152637Y-54329348D01*
X74326041Y-54221981D01*
X74476764Y-54084579D01*
X74599673Y-53921821D01*
X74690582Y-53739250D01*
X74746397Y-53543083D01*
X74765215Y-53340000D01*
X74746397Y-53136917D01*
X74690582Y-52940750D01*
X74636431Y-52832000D01*
X80851750Y-52832000D01*
X80870669Y-52975708D01*
X80870670Y-52975709D01*
X80926139Y-53109625D01*
X81014379Y-53224621D01*
X81129375Y-53312861D01*
X81263291Y-53368330D01*
X81407000Y-53387250D01*
X81550709Y-53368330D01*
X81684625Y-53312861D01*
X81799621Y-53224621D01*
X81887861Y-53109625D01*
X81943330Y-52975709D01*
X81962250Y-52832000D01*
X81943330Y-52688291D01*
X81887861Y-52554375D01*
X81799621Y-52439379D01*
X81684625Y-52351139D01*
X81684621Y-52351137D01*
X81550709Y-52295670D01*
X81550708Y-52295669D01*
X81407000Y-52276750D01*
X81263291Y-52295669D01*
X81263290Y-52295670D01*
X81129378Y-52351137D01*
X81129374Y-52351139D01*
X81014381Y-52439377D01*
X81014377Y-52439381D01*
X80926139Y-52554374D01*
X80926137Y-52554378D01*
X80870670Y-52688290D01*
X80870669Y-52688291D01*
X80851750Y-52831999D01*
X80851750Y-52832000D01*
X74636431Y-52832000D01*
X74599673Y-52758179D01*
X74476764Y-52595421D01*
X74326041Y-52458019D01*
X74152637Y-52350652D01*
X73962456Y-52276976D01*
X73962455Y-52276975D01*
X73962453Y-52276975D01*
X73761976Y-52239500D01*
X73558024Y-52239500D01*
X73357546Y-52276975D01*
X73306212Y-52296862D01*
X73167363Y-52350652D01*
X72993958Y-52458018D01*
X72993959Y-52458019D01*
X72843237Y-52595420D01*
X72720328Y-52758177D01*
X72720323Y-52758186D01*
X72661408Y-52876505D01*
X72629418Y-52940750D01*
X72573603Y-53136917D01*
X72554785Y-53340000D01*
X72225215Y-53340000D01*
X72206397Y-53136917D01*
X72150582Y-52940750D01*
X72059673Y-52758179D01*
X71936764Y-52595421D01*
X71786041Y-52458019D01*
X71612637Y-52350652D01*
X71422456Y-52276976D01*
X71422455Y-52276975D01*
X71422453Y-52276975D01*
X71221976Y-52239500D01*
X71018024Y-52239500D01*
X70817546Y-52276975D01*
X70766212Y-52296862D01*
X70627363Y-52350652D01*
X70453958Y-52458018D01*
X70453959Y-52458019D01*
X70303237Y-52595420D01*
X70180328Y-52758177D01*
X70180323Y-52758186D01*
X70121408Y-52876505D01*
X70089418Y-52940750D01*
X70033603Y-53136917D01*
X70014785Y-53340000D01*
X69240500Y-53340000D01*
X69240500Y-51674672D01*
X70019500Y-51674672D01*
X70019501Y-51674684D01*
X70034033Y-51747736D01*
X70034035Y-51747742D01*
X70089397Y-51830599D01*
X70089399Y-51830601D01*
X70172260Y-51885966D01*
X70227808Y-51897015D01*
X70245315Y-51900498D01*
X70245320Y-51900498D01*
X70245326Y-51900500D01*
X70245327Y-51900500D01*
X71994673Y-51900500D01*
X71994674Y-51900500D01*
X72067740Y-51885966D01*
X72150601Y-51830601D01*
X72205966Y-51747740D01*
X72220500Y-51674674D01*
X72220500Y-50800000D01*
X72554785Y-50800000D01*
X72573603Y-51003083D01*
X72629418Y-51199250D01*
X72720327Y-51381821D01*
X72843236Y-51544579D01*
X72993959Y-51681981D01*
X73167363Y-51789348D01*
X73357544Y-51863024D01*
X73558024Y-51900500D01*
X73761976Y-51900500D01*
X73962456Y-51863024D01*
X74083840Y-51816000D01*
X79200750Y-51816000D01*
X79219669Y-51959708D01*
X79219670Y-51959709D01*
X79274307Y-52091618D01*
X79275139Y-52093625D01*
X79363379Y-52208621D01*
X79478375Y-52296861D01*
X79612291Y-52352330D01*
X79756000Y-52371250D01*
X79899709Y-52352330D01*
X80033625Y-52296861D01*
X80148621Y-52208621D01*
X80236861Y-52093625D01*
X80292330Y-51959709D01*
X80311250Y-51816000D01*
X80302263Y-51747742D01*
X80292330Y-51672291D01*
X80236861Y-51538375D01*
X80148621Y-51423379D01*
X80033625Y-51335139D01*
X80033621Y-51335137D01*
X79899709Y-51279670D01*
X79899708Y-51279669D01*
X79756000Y-51260750D01*
X79612291Y-51279669D01*
X79612290Y-51279670D01*
X79478378Y-51335137D01*
X79478374Y-51335139D01*
X79363381Y-51423377D01*
X79363377Y-51423381D01*
X79275139Y-51538374D01*
X79275137Y-51538378D01*
X79219670Y-51672290D01*
X79219669Y-51672291D01*
X79200750Y-51815999D01*
X79200750Y-51816000D01*
X74083840Y-51816000D01*
X74152637Y-51789348D01*
X74326041Y-51681981D01*
X74476764Y-51544579D01*
X74599673Y-51381821D01*
X74690582Y-51199250D01*
X74746397Y-51003083D01*
X74765215Y-50800000D01*
X74746397Y-50596917D01*
X74690582Y-50400750D01*
X74599673Y-50218179D01*
X74476764Y-50055421D01*
X74326041Y-49918019D01*
X74152637Y-49810652D01*
X73962456Y-49736976D01*
X73962455Y-49736975D01*
X73962453Y-49736975D01*
X73761976Y-49699500D01*
X73558024Y-49699500D01*
X73357546Y-49736975D01*
X73287632Y-49764059D01*
X73167363Y-49810652D01*
X73100164Y-49852260D01*
X72993959Y-49918019D01*
X72843237Y-50055420D01*
X72720328Y-50218177D01*
X72720323Y-50218186D01*
X72629419Y-50400747D01*
X72629418Y-50400750D01*
X72573603Y-50596917D01*
X72554785Y-50800000D01*
X72220500Y-50800000D01*
X72220500Y-49925326D01*
X72205966Y-49852260D01*
X72150601Y-49769399D01*
X72150599Y-49769397D01*
X72067742Y-49714035D01*
X72067740Y-49714034D01*
X72067737Y-49714033D01*
X72067736Y-49714033D01*
X71994684Y-49699501D01*
X71994674Y-49699500D01*
X70245326Y-49699500D01*
X70245325Y-49699500D01*
X70245315Y-49699501D01*
X70172263Y-49714033D01*
X70172257Y-49714035D01*
X70089400Y-49769397D01*
X70089397Y-49769400D01*
X70034035Y-49852257D01*
X70034033Y-49852263D01*
X70019501Y-49925315D01*
X70019500Y-49925327D01*
X70019500Y-51674672D01*
X69240500Y-51674672D01*
X69240500Y-48384500D01*
X69259407Y-48326309D01*
X69308907Y-48290345D01*
X69339500Y-48285500D01*
X90118429Y-48285500D01*
X90176620Y-48304407D01*
G37*
%TD.AperFunction*%
M02*
