M48
; DRILL file {KiCad 7.0.6} date Sun Dec 10 22:56:57 2023
; FORMAT={-:-/ absolute / inch / decimal}
; #@! TF.CreationDate,2023-12-10T22:56:57+01:00
; #@! TF.GenerationSoftware,Kicad,Pcbnew,7.0.6
; #@! TF.FileFunction,Plated,1,4,PTH
FMAT,2
INCH
; #@! TA.AperFunction,Plated,PTH,ViaDrill
T1C0.0118
; #@! TA.AperFunction,Plated,PTH,ComponentDrill
T2C0.0394
%
G90
G05
T1
X2.85Y-1.95
X2.85Y-2.05
X2.85Y-2.15
X2.85Y-2.25
X2.85Y-2.35
X2.85Y-2.45
X2.85Y-2.55
X2.85Y-2.65
X2.85Y-2.75
X2.85Y-2.85
X2.85Y-2.95
X2.85Y-3.05
X2.85Y-3.15
X2.85Y-3.55
X2.85Y-3.65
X2.85Y-3.75
X2.85Y-3.85
X2.965Y-3.5
X2.965Y-3.6
X2.965Y-3.75
X2.97Y-3.35
X2.98Y-2.175
X2.98Y-2.395
X2.98Y-2.775
X2.98Y-3.005
X2.98Y-3.265
X2.985Y-2.275
X2.985Y-2.875
X2.985Y-3.125
X3.025Y-1.93
X3.025Y-2.475
X3.05Y-2.175
X3.05Y-2.395
X3.05Y-2.775
X3.05Y-3.005
X3.05Y-3.265
X3.05Y-3.87
X3.07Y-2.1
X3.07Y-2.32
X3.07Y-2.7
X3.07Y-2.93
X3.07Y-3.19
X3.085Y-3.415
X3.13Y-2.87
X3.135Y-2.475
X3.14Y-2.04
X3.14Y-3.13
X3.145Y-3.735
X3.15Y-2.84
X3.16Y-3.1
X3.165Y-2.02
X3.19Y-2.93
X3.195Y-3.52
X3.195Y-3.82
X3.195Y-3.935
X3.2Y-2.385
X3.2Y-3.21
X3.205Y-2.08
X3.205Y-2.9
X3.205Y-3.175
X3.21Y-2.24
X3.22Y-2.61
X3.225Y-2.105
X3.24Y-2.475
X3.24Y-3.1
X3.25Y-3.34
X3.27Y-2.14
X3.27Y-2.84
X3.275Y-3.01
X3.28Y-3.3
X3.29Y-3.265
X3.295Y-2.815
X3.3Y-2.98
X3.305Y-2.34
X3.31Y-3.7
X3.315Y-3.55
X3.315Y-3.855
X3.32Y-1.96
X3.32Y-2.84
X3.325Y-2.665
X3.325Y-3.25
X3.33Y-3.825
X3.3325Y-2.9625
X3.335Y-3.485
X3.335Y-3.525
X3.335Y-3.595
X3.335Y-3.635
X3.335Y-3.675
X3.335Y-3.745
X3.34Y-2.205
X3.34Y-3.445
X3.36Y-2.335
X3.37Y-2.85
X3.39Y-2.35
X3.405Y-3.94
X3.42Y-2.335
X3.425Y-3.415
X3.425Y-3.485
X3.445Y-1.985
X3.445Y-3.635
X3.445Y-3.785
X3.45Y-2.35
X3.465Y-3.555
X3.465Y-3.705
X3.465Y-3.855
X3.47Y-3.315
X3.48Y-2.335
X3.48Y-2.97
X3.49Y-2.135
X3.5Y-2.65
X3.5Y-3.275
X3.52Y-2.35
X3.52Y-2.85
X3.525Y-2.815
X3.535Y-1.935
X3.535Y-2.675
X3.535Y-3.3
X3.555Y-3.9
X3.56Y-2.65
X3.56Y-3.275
X3.585Y-3.77
X3.595Y-3.86
X3.595Y-3.94
X3.61Y-2.185
X3.62Y-2.35
X3.62Y-2.65
X3.62Y-2.97
X3.62Y-3.275
X3.62Y-3.495
X3.64Y-2.68
X3.645Y-3.695
X3.65Y-3.29
X3.68Y-3.075
X3.68Y-3.145
X3.7Y-3.58
X3.71Y-2.31
X3.715Y-2.8
X3.715Y-3.24
X3.72Y-2.095
X3.72Y-2.4
X3.865Y-2.91
X3.885Y-2.1
X3.885Y-2.3
X3.885Y-2.5
X3.885Y-2.6
X3.885Y-2.8
X3.885Y-3.0
X3.885Y-3.1
X3.895Y-3.3
X3.92Y-3.93
X3.96Y-3.58
X3.97Y-2.37
X3.985Y-2.885
X3.985Y-3.305
X3.99Y-3.025
X4.005Y-2.525
X4.025Y-3.77
X4.045Y-3.445
X4.055Y-2.18
X4.08Y-2.805
X4.085Y-2.645
X4.085Y-3.13
X4.145Y-2.5
X4.155Y-3.925
X4.165Y-2.305
X4.175Y-3.575
X4.18Y-2.88
X4.18Y-3.315
X4.215Y-3.02
X4.22Y-2.105
X4.265Y-3.77
X4.285Y-2.645
X4.285Y-3.445
X4.33Y-2.365
X4.33Y-2.81
X4.35Y-2.52
X4.35Y-3.13
X4.36Y-2.175
X4.39Y-3.305
X4.405Y-3.925
X4.41Y-3.575
X4.455Y-2.885
X4.475Y-3.765
X4.48Y-3.015
X4.505Y-2.29
X4.51Y-2.645
X4.55Y-3.455
X4.57Y-2.1
X4.595Y-2.505
X4.605Y-2.375
X4.605Y-3.12
X4.61Y-2.805
X4.625Y-3.91
X4.64Y-3.295
X4.68Y-3.72
X4.735Y-2.2
X4.735Y-2.3
X4.735Y-2.4
X4.735Y-2.6
X4.735Y-2.8
X4.735Y-2.9
X4.735Y-3.0
X4.735Y-3.56
X4.75Y-3.155
X4.75Y-3.245
T2
X2.8Y-2.0
X2.8Y-2.1
X2.8Y-2.2
X2.8Y-2.3
X2.8Y-2.4
X2.8Y-2.5
X2.8Y-2.6
X2.8Y-2.7
X2.8Y-2.8
X2.8Y-2.9
X2.8Y-3.0
X2.8Y-3.1
X2.8Y-3.2
X2.8Y-3.3
X2.8Y-3.4
X2.8Y-3.5
X2.8Y-3.6
X2.8Y-3.7
X2.8Y-3.8
X2.8Y-3.9
X2.9Y-2.0
X2.9Y-2.1
X2.9Y-2.2
X2.9Y-2.3
X2.9Y-2.4
X2.9Y-2.5
X2.9Y-2.6
X2.9Y-2.7
X2.9Y-2.8
X2.9Y-2.9
X2.9Y-3.0
X2.9Y-3.1
X2.9Y-3.2
X2.9Y-3.3
X2.9Y-3.4
X2.9Y-3.5
X2.9Y-3.6
X2.9Y-3.7
X2.9Y-3.8
X2.9Y-3.9
X3.8Y-2.1
X3.8Y-2.2
X3.8Y-2.3
X3.8Y-2.4
X3.8Y-2.5
X3.8Y-2.6
X3.8Y-2.7
X3.8Y-2.8
X3.8Y-2.9
X3.8Y-3.0
X3.8Y-3.1
X3.8Y-3.2
X3.8Y-3.3
X3.8Y-3.4
X3.8Y-3.5
X3.8Y-3.6
X3.8Y-3.7
X3.8Y-3.8
X3.8Y-3.9
X4.8Y-2.1
X4.8Y-2.2
X4.8Y-2.3
X4.8Y-2.4
X4.8Y-2.5
X4.8Y-2.6
X4.8Y-2.7
X4.8Y-2.8
X4.8Y-2.9
X4.8Y-3.0
X4.8Y-3.1
X4.8Y-3.2
X4.8Y-3.3
X4.8Y-3.4
X4.8Y-3.5
X4.8Y-3.6
X4.8Y-3.7
X4.8Y-3.8
X4.8Y-3.9
T0
M30
