%TF.GenerationSoftware,KiCad,Pcbnew,7.0.6*%
%TF.CreationDate,2023-12-10T22:56:54+01:00*%
%TF.ProjectId,blue_64,626c7565-5f36-4342-9e6b-696361645f70,rev?*%
%TF.SameCoordinates,Original*%
%TF.FileFunction,Soldermask,Top*%
%TF.FilePolarity,Negative*%
%FSLAX46Y46*%
G04 Gerber Fmt 4.6, Leading zero omitted, Abs format (unit mm)*
G04 Created by KiCad (PCBNEW 7.0.6) date 2023-12-10 22:56:54*
%MOMM*%
%LPD*%
G01*
G04 APERTURE LIST*
%ADD10R,1.700000X1.700000*%
%ADD11O,1.700000X1.700000*%
%ADD12C,1.700000*%
G04 APERTURE END LIST*
D10*
X71120000Y-50800000D03*
D11*
X73660000Y-50800000D03*
X71120000Y-53340000D03*
X73660000Y-53340000D03*
X71120000Y-55880000D03*
X73660000Y-55880000D03*
X71120000Y-58420000D03*
X73660000Y-58420000D03*
X71120000Y-60960000D03*
X73660000Y-60960000D03*
X71120000Y-63500000D03*
X73660000Y-63500000D03*
X71120000Y-66040000D03*
X73660000Y-66040000D03*
X71120000Y-68580000D03*
X73660000Y-68580000D03*
X71120000Y-71120000D03*
X73660000Y-71120000D03*
X71120000Y-73660000D03*
X73660000Y-73660000D03*
X71120000Y-76200000D03*
X73660000Y-76200000D03*
X71120000Y-78740000D03*
X73660000Y-78740000D03*
X71120000Y-81280000D03*
X73660000Y-81280000D03*
X71120000Y-83820000D03*
X73660000Y-83820000D03*
X71120000Y-86360000D03*
X73660000Y-86360000D03*
X71120000Y-88900000D03*
X73660000Y-88900000D03*
X71120000Y-91440000D03*
X73660000Y-91440000D03*
X71120000Y-93980000D03*
X73660000Y-93980000D03*
X71120000Y-96520000D03*
X73660000Y-96520000D03*
X71120000Y-99060000D03*
X73660000Y-99060000D03*
D12*
X121920000Y-86360000D03*
X121920000Y-88900000D03*
X96520000Y-53340000D03*
X121920000Y-83820000D03*
X121920000Y-76200000D03*
X96520000Y-99060000D03*
X96520000Y-83820000D03*
X96520000Y-88900000D03*
X96520000Y-81280000D03*
X121920000Y-91440000D03*
X121920000Y-81280000D03*
X121920000Y-78740000D03*
X121920000Y-73660000D03*
X121920000Y-71120000D03*
X121920000Y-66040000D03*
X121920000Y-58420000D03*
X121920000Y-55880000D03*
X96520000Y-73660000D03*
X96520000Y-76200000D03*
X96520000Y-78740000D03*
X96520000Y-68580000D03*
X96520000Y-71120000D03*
X96520000Y-63500000D03*
X96520000Y-66040000D03*
X121920000Y-99060000D03*
X96520000Y-96520000D03*
X121920000Y-96520000D03*
X121920000Y-93980000D03*
X96520000Y-91440000D03*
X96520000Y-93980000D03*
X96520000Y-55880000D03*
X96520000Y-86360000D03*
X121920000Y-53340000D03*
X121920000Y-68580000D03*
X121920000Y-63500000D03*
X121920000Y-60960000D03*
X96520000Y-60960000D03*
X96520000Y-58420000D03*
M02*
