%TF.GenerationSoftware,KiCad,Pcbnew,7.0.6*%
%TF.CreationDate,2024-03-10T08:43:15+01:00*%
%TF.ProjectId,blue_64,626c7565-5f36-4342-9e6b-696361645f70,rev?*%
%TF.SameCoordinates,Original*%
%TF.FileFunction,Soldermask,Top*%
%TF.FilePolarity,Negative*%
%FSLAX46Y46*%
G04 Gerber Fmt 4.6, Leading zero omitted, Abs format (unit mm)*
G04 Created by KiCad (PCBNEW 7.0.6) date 2024-03-10 08:43:15*
%MOMM*%
%LPD*%
G01*
G04 APERTURE LIST*
%ADD10C,2.200000*%
%ADD11O,2.200000X2.200000*%
%ADD12R,1.700000X1.700000*%
%ADD13O,1.700000X1.700000*%
%ADD14C,1.700000*%
G04 APERTURE END LIST*
D10*
X65127000Y-88900000D03*
D11*
X62127000Y-88900000D03*
X65377000Y-85090000D03*
D10*
X61877000Y-85090000D03*
D12*
X69850000Y-50800000D03*
D13*
X72390000Y-50800000D03*
X69850000Y-53340000D03*
X72390000Y-53340000D03*
X69850000Y-55880000D03*
X72390000Y-55880000D03*
X69850000Y-58420000D03*
X72390000Y-58420000D03*
X69850000Y-60960000D03*
X72390000Y-60960000D03*
X69850000Y-63500000D03*
X72390000Y-63500000D03*
X69850000Y-66040000D03*
X72390000Y-66040000D03*
X69850000Y-68580000D03*
X72390000Y-68580000D03*
X69850000Y-71120000D03*
X72390000Y-71120000D03*
X69850000Y-73660000D03*
X72390000Y-73660000D03*
X69850000Y-76200000D03*
X72390000Y-76200000D03*
X69850000Y-78740000D03*
X72390000Y-78740000D03*
X69850000Y-81280000D03*
X72390000Y-81280000D03*
X69850000Y-83820000D03*
X72390000Y-83820000D03*
X69850000Y-86360000D03*
X72390000Y-86360000D03*
X69850000Y-88900000D03*
X72390000Y-88900000D03*
X69850000Y-91440000D03*
X72390000Y-91440000D03*
X69850000Y-93980000D03*
X72390000Y-93980000D03*
X69850000Y-96520000D03*
X72390000Y-96520000D03*
X69850000Y-99060000D03*
X72390000Y-99060000D03*
D14*
X121920000Y-86360000D03*
X121920000Y-88900000D03*
X96520000Y-53340000D03*
X121920000Y-83820000D03*
X121920000Y-76200000D03*
X96520000Y-99060000D03*
X96520000Y-83820000D03*
X96520000Y-88900000D03*
X96520000Y-81280000D03*
X121920000Y-91440000D03*
X121920000Y-81280000D03*
X121920000Y-78740000D03*
X121920000Y-73660000D03*
X121920000Y-71120000D03*
X121920000Y-66040000D03*
X121920000Y-58420000D03*
X121920000Y-55880000D03*
X96520000Y-73660000D03*
X96520000Y-76200000D03*
X96520000Y-78740000D03*
X96520000Y-68580000D03*
X96520000Y-71120000D03*
X96520000Y-63500000D03*
X96520000Y-66040000D03*
X121920000Y-99060000D03*
X96520000Y-96520000D03*
X121920000Y-96520000D03*
X121920000Y-93980000D03*
X96520000Y-91440000D03*
X96520000Y-93980000D03*
X96520000Y-55880000D03*
X96520000Y-86360000D03*
X121920000Y-53340000D03*
X121920000Y-68580000D03*
X121920000Y-63500000D03*
X121920000Y-60960000D03*
X96520000Y-60960000D03*
X96520000Y-58420000D03*
M02*
