%TF.GenerationSoftware,KiCad,Pcbnew,7.0.6*%
%TF.CreationDate,2023-11-17T11:55:58+01:00*%
%TF.ProjectId,blue_64,626c7565-5f36-4342-9e6b-696361645f70,rev?*%
%TF.SameCoordinates,Original*%
%TF.FileFunction,AssemblyDrawing,Bot*%
%FSLAX46Y46*%
G04 Gerber Fmt 4.6, Leading zero omitted, Abs format (unit mm)*
G04 Created by KiCad (PCBNEW 7.0.6) date 2023-11-17 11:55:58*
%MOMM*%
%LPD*%
G01*
G04 APERTURE LIST*
%ADD10C,0.060000*%
%ADD11C,0.075000*%
%ADD12C,0.150000*%
%ADD13C,0.100000*%
G04 APERTURE END LIST*
D10*
X78044666Y-57077927D02*
X78177999Y-56887451D01*
X78273237Y-57077927D02*
X78273237Y-56677927D01*
X78273237Y-56677927D02*
X78120856Y-56677927D01*
X78120856Y-56677927D02*
X78082761Y-56696975D01*
X78082761Y-56696975D02*
X78063714Y-56716022D01*
X78063714Y-56716022D02*
X78044666Y-56754118D01*
X78044666Y-56754118D02*
X78044666Y-56811260D01*
X78044666Y-56811260D02*
X78063714Y-56849356D01*
X78063714Y-56849356D02*
X78082761Y-56868403D01*
X78082761Y-56868403D02*
X78120856Y-56887451D01*
X78120856Y-56887451D02*
X78273237Y-56887451D01*
X77701809Y-56811260D02*
X77701809Y-57077927D01*
X77797047Y-56658880D02*
X77892285Y-56944594D01*
X77892285Y-56944594D02*
X77644666Y-56944594D01*
D11*
X77451409Y-69215047D02*
X77856171Y-69215047D01*
X77856171Y-69215047D02*
X77903790Y-69238857D01*
X77903790Y-69238857D02*
X77927600Y-69262666D01*
X77927600Y-69262666D02*
X77951409Y-69310285D01*
X77951409Y-69310285D02*
X77951409Y-69405523D01*
X77951409Y-69405523D02*
X77927600Y-69453142D01*
X77927600Y-69453142D02*
X77903790Y-69476952D01*
X77903790Y-69476952D02*
X77856171Y-69500761D01*
X77856171Y-69500761D02*
X77451409Y-69500761D01*
X77618076Y-69953143D02*
X77951409Y-69953143D01*
X77427600Y-69834095D02*
X77784742Y-69715048D01*
X77784742Y-69715048D02*
X77784742Y-70024571D01*
D10*
X80496727Y-81467333D02*
X80306251Y-81334000D01*
X80496727Y-81238762D02*
X80096727Y-81238762D01*
X80096727Y-81238762D02*
X80096727Y-81391143D01*
X80096727Y-81391143D02*
X80115775Y-81429238D01*
X80115775Y-81429238D02*
X80134822Y-81448285D01*
X80134822Y-81448285D02*
X80172918Y-81467333D01*
X80172918Y-81467333D02*
X80230060Y-81467333D01*
X80230060Y-81467333D02*
X80268156Y-81448285D01*
X80268156Y-81448285D02*
X80287203Y-81429238D01*
X80287203Y-81429238D02*
X80306251Y-81391143D01*
X80306251Y-81391143D02*
X80306251Y-81238762D01*
X80496727Y-81657809D02*
X80496727Y-81734000D01*
X80496727Y-81734000D02*
X80477680Y-81772095D01*
X80477680Y-81772095D02*
X80458632Y-81791143D01*
X80458632Y-81791143D02*
X80401489Y-81829238D01*
X80401489Y-81829238D02*
X80325299Y-81848285D01*
X80325299Y-81848285D02*
X80172918Y-81848285D01*
X80172918Y-81848285D02*
X80134822Y-81829238D01*
X80134822Y-81829238D02*
X80115775Y-81810190D01*
X80115775Y-81810190D02*
X80096727Y-81772095D01*
X80096727Y-81772095D02*
X80096727Y-81695904D01*
X80096727Y-81695904D02*
X80115775Y-81657809D01*
X80115775Y-81657809D02*
X80134822Y-81638762D01*
X80134822Y-81638762D02*
X80172918Y-81619714D01*
X80172918Y-81619714D02*
X80268156Y-81619714D01*
X80268156Y-81619714D02*
X80306251Y-81638762D01*
X80306251Y-81638762D02*
X80325299Y-81657809D01*
X80325299Y-81657809D02*
X80344346Y-81695904D01*
X80344346Y-81695904D02*
X80344346Y-81772095D01*
X80344346Y-81772095D02*
X80325299Y-81810190D01*
X80325299Y-81810190D02*
X80306251Y-81829238D01*
X80306251Y-81829238D02*
X80268156Y-81848285D01*
D11*
X77451409Y-74295047D02*
X77856171Y-74295047D01*
X77856171Y-74295047D02*
X77903790Y-74318857D01*
X77903790Y-74318857D02*
X77927600Y-74342666D01*
X77927600Y-74342666D02*
X77951409Y-74390285D01*
X77951409Y-74390285D02*
X77951409Y-74485523D01*
X77951409Y-74485523D02*
X77927600Y-74533142D01*
X77927600Y-74533142D02*
X77903790Y-74556952D01*
X77903790Y-74556952D02*
X77856171Y-74580761D01*
X77856171Y-74580761D02*
X77451409Y-74580761D01*
X77451409Y-74771238D02*
X77451409Y-75080762D01*
X77451409Y-75080762D02*
X77641885Y-74914095D01*
X77641885Y-74914095D02*
X77641885Y-74985524D01*
X77641885Y-74985524D02*
X77665695Y-75033143D01*
X77665695Y-75033143D02*
X77689504Y-75056952D01*
X77689504Y-75056952D02*
X77737123Y-75080762D01*
X77737123Y-75080762D02*
X77856171Y-75080762D01*
X77856171Y-75080762D02*
X77903790Y-75056952D01*
X77903790Y-75056952D02*
X77927600Y-75033143D01*
X77927600Y-75033143D02*
X77951409Y-74985524D01*
X77951409Y-74985524D02*
X77951409Y-74842667D01*
X77951409Y-74842667D02*
X77927600Y-74795048D01*
X77927600Y-74795048D02*
X77903790Y-74771238D01*
D12*
X93321094Y-97664819D02*
X93321094Y-96664819D01*
X93321094Y-96664819D02*
X93082999Y-96664819D01*
X93082999Y-96664819D02*
X92940142Y-96712438D01*
X92940142Y-96712438D02*
X92844904Y-96807676D01*
X92844904Y-96807676D02*
X92797285Y-96902914D01*
X92797285Y-96902914D02*
X92749666Y-97093390D01*
X92749666Y-97093390D02*
X92749666Y-97236247D01*
X92749666Y-97236247D02*
X92797285Y-97426723D01*
X92797285Y-97426723D02*
X92844904Y-97521961D01*
X92844904Y-97521961D02*
X92940142Y-97617200D01*
X92940142Y-97617200D02*
X93082999Y-97664819D01*
X93082999Y-97664819D02*
X93321094Y-97664819D01*
X91797285Y-97664819D02*
X92368713Y-97664819D01*
X92082999Y-97664819D02*
X92082999Y-96664819D01*
X92082999Y-96664819D02*
X92178237Y-96807676D01*
X92178237Y-96807676D02*
X92273475Y-96902914D01*
X92273475Y-96902914D02*
X92368713Y-96950533D01*
D10*
X80445927Y-91995657D02*
X80255451Y-91862324D01*
X80445927Y-91767086D02*
X80045927Y-91767086D01*
X80045927Y-91767086D02*
X80045927Y-91919467D01*
X80045927Y-91919467D02*
X80064975Y-91957562D01*
X80064975Y-91957562D02*
X80084022Y-91976609D01*
X80084022Y-91976609D02*
X80122118Y-91995657D01*
X80122118Y-91995657D02*
X80179260Y-91995657D01*
X80179260Y-91995657D02*
X80217356Y-91976609D01*
X80217356Y-91976609D02*
X80236403Y-91957562D01*
X80236403Y-91957562D02*
X80255451Y-91919467D01*
X80255451Y-91919467D02*
X80255451Y-91767086D01*
X80445927Y-92376609D02*
X80445927Y-92148038D01*
X80445927Y-92262324D02*
X80045927Y-92262324D01*
X80045927Y-92262324D02*
X80103070Y-92224228D01*
X80103070Y-92224228D02*
X80141165Y-92186133D01*
X80141165Y-92186133D02*
X80160213Y-92148038D01*
X80217356Y-92605180D02*
X80198308Y-92567085D01*
X80198308Y-92567085D02*
X80179260Y-92548038D01*
X80179260Y-92548038D02*
X80141165Y-92528990D01*
X80141165Y-92528990D02*
X80122118Y-92528990D01*
X80122118Y-92528990D02*
X80084022Y-92548038D01*
X80084022Y-92548038D02*
X80064975Y-92567085D01*
X80064975Y-92567085D02*
X80045927Y-92605180D01*
X80045927Y-92605180D02*
X80045927Y-92681371D01*
X80045927Y-92681371D02*
X80064975Y-92719466D01*
X80064975Y-92719466D02*
X80084022Y-92738514D01*
X80084022Y-92738514D02*
X80122118Y-92757561D01*
X80122118Y-92757561D02*
X80141165Y-92757561D01*
X80141165Y-92757561D02*
X80179260Y-92738514D01*
X80179260Y-92738514D02*
X80198308Y-92719466D01*
X80198308Y-92719466D02*
X80217356Y-92681371D01*
X80217356Y-92681371D02*
X80217356Y-92605180D01*
X80217356Y-92605180D02*
X80236403Y-92567085D01*
X80236403Y-92567085D02*
X80255451Y-92548038D01*
X80255451Y-92548038D02*
X80293546Y-92528990D01*
X80293546Y-92528990D02*
X80369737Y-92528990D01*
X80369737Y-92528990D02*
X80407832Y-92548038D01*
X80407832Y-92548038D02*
X80426880Y-92567085D01*
X80426880Y-92567085D02*
X80445927Y-92605180D01*
X80445927Y-92605180D02*
X80445927Y-92681371D01*
X80445927Y-92681371D02*
X80426880Y-92719466D01*
X80426880Y-92719466D02*
X80407832Y-92738514D01*
X80407832Y-92738514D02*
X80369737Y-92757561D01*
X80369737Y-92757561D02*
X80293546Y-92757561D01*
X80293546Y-92757561D02*
X80255451Y-92738514D01*
X80255451Y-92738514D02*
X80236403Y-92719466D01*
X80236403Y-92719466D02*
X80217356Y-92681371D01*
X80496727Y-53527333D02*
X80306251Y-53394000D01*
X80496727Y-53298762D02*
X80096727Y-53298762D01*
X80096727Y-53298762D02*
X80096727Y-53451143D01*
X80096727Y-53451143D02*
X80115775Y-53489238D01*
X80115775Y-53489238D02*
X80134822Y-53508285D01*
X80134822Y-53508285D02*
X80172918Y-53527333D01*
X80172918Y-53527333D02*
X80230060Y-53527333D01*
X80230060Y-53527333D02*
X80268156Y-53508285D01*
X80268156Y-53508285D02*
X80287203Y-53489238D01*
X80287203Y-53489238D02*
X80306251Y-53451143D01*
X80306251Y-53451143D02*
X80306251Y-53298762D01*
X80496727Y-53908285D02*
X80496727Y-53679714D01*
X80496727Y-53794000D02*
X80096727Y-53794000D01*
X80096727Y-53794000D02*
X80153870Y-53755904D01*
X80153870Y-53755904D02*
X80191965Y-53717809D01*
X80191965Y-53717809D02*
X80211013Y-53679714D01*
X78044666Y-72317927D02*
X78177999Y-72127451D01*
X78273237Y-72317927D02*
X78273237Y-71917927D01*
X78273237Y-71917927D02*
X78120856Y-71917927D01*
X78120856Y-71917927D02*
X78082761Y-71936975D01*
X78082761Y-71936975D02*
X78063714Y-71956022D01*
X78063714Y-71956022D02*
X78044666Y-71994118D01*
X78044666Y-71994118D02*
X78044666Y-72051260D01*
X78044666Y-72051260D02*
X78063714Y-72089356D01*
X78063714Y-72089356D02*
X78082761Y-72108403D01*
X78082761Y-72108403D02*
X78120856Y-72127451D01*
X78120856Y-72127451D02*
X78273237Y-72127451D01*
X77816095Y-72089356D02*
X77854190Y-72070308D01*
X77854190Y-72070308D02*
X77873237Y-72051260D01*
X77873237Y-72051260D02*
X77892285Y-72013165D01*
X77892285Y-72013165D02*
X77892285Y-71994118D01*
X77892285Y-71994118D02*
X77873237Y-71956022D01*
X77873237Y-71956022D02*
X77854190Y-71936975D01*
X77854190Y-71936975D02*
X77816095Y-71917927D01*
X77816095Y-71917927D02*
X77739904Y-71917927D01*
X77739904Y-71917927D02*
X77701809Y-71936975D01*
X77701809Y-71936975D02*
X77682761Y-71956022D01*
X77682761Y-71956022D02*
X77663714Y-71994118D01*
X77663714Y-71994118D02*
X77663714Y-72013165D01*
X77663714Y-72013165D02*
X77682761Y-72051260D01*
X77682761Y-72051260D02*
X77701809Y-72070308D01*
X77701809Y-72070308D02*
X77739904Y-72089356D01*
X77739904Y-72089356D02*
X77816095Y-72089356D01*
X77816095Y-72089356D02*
X77854190Y-72108403D01*
X77854190Y-72108403D02*
X77873237Y-72127451D01*
X77873237Y-72127451D02*
X77892285Y-72165546D01*
X77892285Y-72165546D02*
X77892285Y-72241737D01*
X77892285Y-72241737D02*
X77873237Y-72279832D01*
X77873237Y-72279832D02*
X77854190Y-72298880D01*
X77854190Y-72298880D02*
X77816095Y-72317927D01*
X77816095Y-72317927D02*
X77739904Y-72317927D01*
X77739904Y-72317927D02*
X77701809Y-72298880D01*
X77701809Y-72298880D02*
X77682761Y-72279832D01*
X77682761Y-72279832D02*
X77663714Y-72241737D01*
X77663714Y-72241737D02*
X77663714Y-72165546D01*
X77663714Y-72165546D02*
X77682761Y-72127451D01*
X77682761Y-72127451D02*
X77701809Y-72108403D01*
X77701809Y-72108403D02*
X77739904Y-72089356D01*
X80496727Y-73847333D02*
X80306251Y-73714000D01*
X80496727Y-73618762D02*
X80096727Y-73618762D01*
X80096727Y-73618762D02*
X80096727Y-73771143D01*
X80096727Y-73771143D02*
X80115775Y-73809238D01*
X80115775Y-73809238D02*
X80134822Y-73828285D01*
X80134822Y-73828285D02*
X80172918Y-73847333D01*
X80172918Y-73847333D02*
X80230060Y-73847333D01*
X80230060Y-73847333D02*
X80268156Y-73828285D01*
X80268156Y-73828285D02*
X80287203Y-73809238D01*
X80287203Y-73809238D02*
X80306251Y-73771143D01*
X80306251Y-73771143D02*
X80306251Y-73618762D01*
X80096727Y-73980666D02*
X80096727Y-74247333D01*
X80096727Y-74247333D02*
X80496727Y-74075904D01*
X80496727Y-68767333D02*
X80306251Y-68634000D01*
X80496727Y-68538762D02*
X80096727Y-68538762D01*
X80096727Y-68538762D02*
X80096727Y-68691143D01*
X80096727Y-68691143D02*
X80115775Y-68729238D01*
X80115775Y-68729238D02*
X80134822Y-68748285D01*
X80134822Y-68748285D02*
X80172918Y-68767333D01*
X80172918Y-68767333D02*
X80230060Y-68767333D01*
X80230060Y-68767333D02*
X80268156Y-68748285D01*
X80268156Y-68748285D02*
X80287203Y-68729238D01*
X80287203Y-68729238D02*
X80306251Y-68691143D01*
X80306251Y-68691143D02*
X80306251Y-68538762D01*
X80096727Y-69129238D02*
X80096727Y-68938762D01*
X80096727Y-68938762D02*
X80287203Y-68919714D01*
X80287203Y-68919714D02*
X80268156Y-68938762D01*
X80268156Y-68938762D02*
X80249108Y-68976857D01*
X80249108Y-68976857D02*
X80249108Y-69072095D01*
X80249108Y-69072095D02*
X80268156Y-69110190D01*
X80268156Y-69110190D02*
X80287203Y-69129238D01*
X80287203Y-69129238D02*
X80325299Y-69148285D01*
X80325299Y-69148285D02*
X80420537Y-69148285D01*
X80420537Y-69148285D02*
X80458632Y-69129238D01*
X80458632Y-69129238D02*
X80477680Y-69110190D01*
X80477680Y-69110190D02*
X80496727Y-69072095D01*
X80496727Y-69072095D02*
X80496727Y-68976857D01*
X80496727Y-68976857D02*
X80477680Y-68938762D01*
X80477680Y-68938762D02*
X80458632Y-68919714D01*
X80496727Y-58607333D02*
X80306251Y-58474000D01*
X80496727Y-58378762D02*
X80096727Y-58378762D01*
X80096727Y-58378762D02*
X80096727Y-58531143D01*
X80096727Y-58531143D02*
X80115775Y-58569238D01*
X80115775Y-58569238D02*
X80134822Y-58588285D01*
X80134822Y-58588285D02*
X80172918Y-58607333D01*
X80172918Y-58607333D02*
X80230060Y-58607333D01*
X80230060Y-58607333D02*
X80268156Y-58588285D01*
X80268156Y-58588285D02*
X80287203Y-58569238D01*
X80287203Y-58569238D02*
X80306251Y-58531143D01*
X80306251Y-58531143D02*
X80306251Y-58378762D01*
X80096727Y-58740666D02*
X80096727Y-58988285D01*
X80096727Y-58988285D02*
X80249108Y-58854952D01*
X80249108Y-58854952D02*
X80249108Y-58912095D01*
X80249108Y-58912095D02*
X80268156Y-58950190D01*
X80268156Y-58950190D02*
X80287203Y-58969238D01*
X80287203Y-58969238D02*
X80325299Y-58988285D01*
X80325299Y-58988285D02*
X80420537Y-58988285D01*
X80420537Y-58988285D02*
X80458632Y-58969238D01*
X80458632Y-58969238D02*
X80477680Y-58950190D01*
X80477680Y-58950190D02*
X80496727Y-58912095D01*
X80496727Y-58912095D02*
X80496727Y-58797809D01*
X80496727Y-58797809D02*
X80477680Y-58759714D01*
X80477680Y-58759714D02*
X80458632Y-58740666D01*
D11*
X77451409Y-59055047D02*
X77856171Y-59055047D01*
X77856171Y-59055047D02*
X77903790Y-59078857D01*
X77903790Y-59078857D02*
X77927600Y-59102666D01*
X77927600Y-59102666D02*
X77951409Y-59150285D01*
X77951409Y-59150285D02*
X77951409Y-59245523D01*
X77951409Y-59245523D02*
X77927600Y-59293142D01*
X77927600Y-59293142D02*
X77903790Y-59316952D01*
X77903790Y-59316952D02*
X77856171Y-59340761D01*
X77856171Y-59340761D02*
X77451409Y-59340761D01*
X77451409Y-59816952D02*
X77451409Y-59578857D01*
X77451409Y-59578857D02*
X77689504Y-59555048D01*
X77689504Y-59555048D02*
X77665695Y-59578857D01*
X77665695Y-59578857D02*
X77641885Y-59626476D01*
X77641885Y-59626476D02*
X77641885Y-59745524D01*
X77641885Y-59745524D02*
X77665695Y-59793143D01*
X77665695Y-59793143D02*
X77689504Y-59816952D01*
X77689504Y-59816952D02*
X77737123Y-59840762D01*
X77737123Y-59840762D02*
X77856171Y-59840762D01*
X77856171Y-59840762D02*
X77903790Y-59816952D01*
X77903790Y-59816952D02*
X77927600Y-59793143D01*
X77927600Y-59793143D02*
X77951409Y-59745524D01*
X77951409Y-59745524D02*
X77951409Y-59626476D01*
X77951409Y-59626476D02*
X77927600Y-59578857D01*
X77927600Y-59578857D02*
X77903790Y-59555048D01*
D10*
X78209642Y-79810927D02*
X78342975Y-79620451D01*
X78438213Y-79810927D02*
X78438213Y-79410927D01*
X78438213Y-79410927D02*
X78285832Y-79410927D01*
X78285832Y-79410927D02*
X78247737Y-79429975D01*
X78247737Y-79429975D02*
X78228690Y-79449022D01*
X78228690Y-79449022D02*
X78209642Y-79487118D01*
X78209642Y-79487118D02*
X78209642Y-79544260D01*
X78209642Y-79544260D02*
X78228690Y-79582356D01*
X78228690Y-79582356D02*
X78247737Y-79601403D01*
X78247737Y-79601403D02*
X78285832Y-79620451D01*
X78285832Y-79620451D02*
X78438213Y-79620451D01*
X77828690Y-79810927D02*
X78057261Y-79810927D01*
X77942975Y-79810927D02*
X77942975Y-79410927D01*
X77942975Y-79410927D02*
X77981071Y-79468070D01*
X77981071Y-79468070D02*
X78019166Y-79506165D01*
X78019166Y-79506165D02*
X78057261Y-79525213D01*
X77581071Y-79410927D02*
X77542976Y-79410927D01*
X77542976Y-79410927D02*
X77504880Y-79429975D01*
X77504880Y-79429975D02*
X77485833Y-79449022D01*
X77485833Y-79449022D02*
X77466785Y-79487118D01*
X77466785Y-79487118D02*
X77447738Y-79563308D01*
X77447738Y-79563308D02*
X77447738Y-79658546D01*
X77447738Y-79658546D02*
X77466785Y-79734737D01*
X77466785Y-79734737D02*
X77485833Y-79772832D01*
X77485833Y-79772832D02*
X77504880Y-79791880D01*
X77504880Y-79791880D02*
X77542976Y-79810927D01*
X77542976Y-79810927D02*
X77581071Y-79810927D01*
X77581071Y-79810927D02*
X77619166Y-79791880D01*
X77619166Y-79791880D02*
X77638214Y-79772832D01*
X77638214Y-79772832D02*
X77657261Y-79734737D01*
X77657261Y-79734737D02*
X77676309Y-79658546D01*
X77676309Y-79658546D02*
X77676309Y-79563308D01*
X77676309Y-79563308D02*
X77657261Y-79487118D01*
X77657261Y-79487118D02*
X77638214Y-79449022D01*
X77638214Y-79449022D02*
X77619166Y-79429975D01*
X77619166Y-79429975D02*
X77581071Y-79410927D01*
X78044666Y-67237927D02*
X78177999Y-67047451D01*
X78273237Y-67237927D02*
X78273237Y-66837927D01*
X78273237Y-66837927D02*
X78120856Y-66837927D01*
X78120856Y-66837927D02*
X78082761Y-66856975D01*
X78082761Y-66856975D02*
X78063714Y-66876022D01*
X78063714Y-66876022D02*
X78044666Y-66914118D01*
X78044666Y-66914118D02*
X78044666Y-66971260D01*
X78044666Y-66971260D02*
X78063714Y-67009356D01*
X78063714Y-67009356D02*
X78082761Y-67028403D01*
X78082761Y-67028403D02*
X78120856Y-67047451D01*
X78120856Y-67047451D02*
X78273237Y-67047451D01*
X77701809Y-66837927D02*
X77777999Y-66837927D01*
X77777999Y-66837927D02*
X77816095Y-66856975D01*
X77816095Y-66856975D02*
X77835142Y-66876022D01*
X77835142Y-66876022D02*
X77873237Y-66933165D01*
X77873237Y-66933165D02*
X77892285Y-67009356D01*
X77892285Y-67009356D02*
X77892285Y-67161737D01*
X77892285Y-67161737D02*
X77873237Y-67199832D01*
X77873237Y-67199832D02*
X77854190Y-67218880D01*
X77854190Y-67218880D02*
X77816095Y-67237927D01*
X77816095Y-67237927D02*
X77739904Y-67237927D01*
X77739904Y-67237927D02*
X77701809Y-67218880D01*
X77701809Y-67218880D02*
X77682761Y-67199832D01*
X77682761Y-67199832D02*
X77663714Y-67161737D01*
X77663714Y-67161737D02*
X77663714Y-67066499D01*
X77663714Y-67066499D02*
X77682761Y-67028403D01*
X77682761Y-67028403D02*
X77701809Y-67009356D01*
X77701809Y-67009356D02*
X77739904Y-66990308D01*
X77739904Y-66990308D02*
X77816095Y-66990308D01*
X77816095Y-66990308D02*
X77854190Y-67009356D01*
X77854190Y-67009356D02*
X77873237Y-67028403D01*
X77873237Y-67028403D02*
X77892285Y-67066499D01*
X78019166Y-51997927D02*
X78152499Y-51807451D01*
X78247737Y-51997927D02*
X78247737Y-51597927D01*
X78247737Y-51597927D02*
X78095356Y-51597927D01*
X78095356Y-51597927D02*
X78057261Y-51616975D01*
X78057261Y-51616975D02*
X78038214Y-51636022D01*
X78038214Y-51636022D02*
X78019166Y-51674118D01*
X78019166Y-51674118D02*
X78019166Y-51731260D01*
X78019166Y-51731260D02*
X78038214Y-51769356D01*
X78038214Y-51769356D02*
X78057261Y-51788403D01*
X78057261Y-51788403D02*
X78095356Y-51807451D01*
X78095356Y-51807451D02*
X78247737Y-51807451D01*
X77866785Y-51636022D02*
X77847737Y-51616975D01*
X77847737Y-51616975D02*
X77809642Y-51597927D01*
X77809642Y-51597927D02*
X77714404Y-51597927D01*
X77714404Y-51597927D02*
X77676309Y-51616975D01*
X77676309Y-51616975D02*
X77657261Y-51636022D01*
X77657261Y-51636022D02*
X77638214Y-51674118D01*
X77638214Y-51674118D02*
X77638214Y-51712213D01*
X77638214Y-51712213D02*
X77657261Y-51769356D01*
X77657261Y-51769356D02*
X77885833Y-51997927D01*
X77885833Y-51997927D02*
X77638214Y-51997927D01*
D11*
X77451409Y-53975047D02*
X77856171Y-53975047D01*
X77856171Y-53975047D02*
X77903790Y-53998857D01*
X77903790Y-53998857D02*
X77927600Y-54022666D01*
X77927600Y-54022666D02*
X77951409Y-54070285D01*
X77951409Y-54070285D02*
X77951409Y-54165523D01*
X77951409Y-54165523D02*
X77927600Y-54213142D01*
X77927600Y-54213142D02*
X77903790Y-54236952D01*
X77903790Y-54236952D02*
X77856171Y-54260761D01*
X77856171Y-54260761D02*
X77451409Y-54260761D01*
X77451409Y-54713143D02*
X77451409Y-54617905D01*
X77451409Y-54617905D02*
X77475219Y-54570286D01*
X77475219Y-54570286D02*
X77499028Y-54546476D01*
X77499028Y-54546476D02*
X77570457Y-54498857D01*
X77570457Y-54498857D02*
X77665695Y-54475048D01*
X77665695Y-54475048D02*
X77856171Y-54475048D01*
X77856171Y-54475048D02*
X77903790Y-54498857D01*
X77903790Y-54498857D02*
X77927600Y-54522667D01*
X77927600Y-54522667D02*
X77951409Y-54570286D01*
X77951409Y-54570286D02*
X77951409Y-54665524D01*
X77951409Y-54665524D02*
X77927600Y-54713143D01*
X77927600Y-54713143D02*
X77903790Y-54736952D01*
X77903790Y-54736952D02*
X77856171Y-54760762D01*
X77856171Y-54760762D02*
X77737123Y-54760762D01*
X77737123Y-54760762D02*
X77689504Y-54736952D01*
X77689504Y-54736952D02*
X77665695Y-54713143D01*
X77665695Y-54713143D02*
X77641885Y-54665524D01*
X77641885Y-54665524D02*
X77641885Y-54570286D01*
X77641885Y-54570286D02*
X77665695Y-54522667D01*
X77665695Y-54522667D02*
X77689504Y-54498857D01*
X77689504Y-54498857D02*
X77737123Y-54475048D01*
X77999028Y-93932380D02*
X77975219Y-93884761D01*
X77975219Y-93884761D02*
X77927600Y-93837142D01*
X77927600Y-93837142D02*
X77856171Y-93765714D01*
X77856171Y-93765714D02*
X77832361Y-93718095D01*
X77832361Y-93718095D02*
X77832361Y-93670476D01*
X77951409Y-93694285D02*
X77927600Y-93646666D01*
X77927600Y-93646666D02*
X77879980Y-93599047D01*
X77879980Y-93599047D02*
X77784742Y-93575238D01*
X77784742Y-93575238D02*
X77618076Y-93575238D01*
X77618076Y-93575238D02*
X77522838Y-93599047D01*
X77522838Y-93599047D02*
X77475219Y-93646666D01*
X77475219Y-93646666D02*
X77451409Y-93694285D01*
X77451409Y-93694285D02*
X77451409Y-93789523D01*
X77451409Y-93789523D02*
X77475219Y-93837142D01*
X77475219Y-93837142D02*
X77522838Y-93884761D01*
X77522838Y-93884761D02*
X77618076Y-93908571D01*
X77618076Y-93908571D02*
X77784742Y-93908571D01*
X77784742Y-93908571D02*
X77879980Y-93884761D01*
X77879980Y-93884761D02*
X77927600Y-93837142D01*
X77927600Y-93837142D02*
X77951409Y-93789523D01*
X77951409Y-93789523D02*
X77951409Y-93694285D01*
X77951409Y-94384762D02*
X77951409Y-94099048D01*
X77951409Y-94241905D02*
X77451409Y-94241905D01*
X77451409Y-94241905D02*
X77522838Y-94194286D01*
X77522838Y-94194286D02*
X77570457Y-94146667D01*
X77570457Y-94146667D02*
X77594266Y-94099048D01*
X77451409Y-81915047D02*
X77856171Y-81915047D01*
X77856171Y-81915047D02*
X77903790Y-81938857D01*
X77903790Y-81938857D02*
X77927600Y-81962666D01*
X77927600Y-81962666D02*
X77951409Y-82010285D01*
X77951409Y-82010285D02*
X77951409Y-82105523D01*
X77951409Y-82105523D02*
X77927600Y-82153142D01*
X77927600Y-82153142D02*
X77903790Y-82176952D01*
X77903790Y-82176952D02*
X77856171Y-82200761D01*
X77856171Y-82200761D02*
X77451409Y-82200761D01*
X77499028Y-82415048D02*
X77475219Y-82438857D01*
X77475219Y-82438857D02*
X77451409Y-82486476D01*
X77451409Y-82486476D02*
X77451409Y-82605524D01*
X77451409Y-82605524D02*
X77475219Y-82653143D01*
X77475219Y-82653143D02*
X77499028Y-82676952D01*
X77499028Y-82676952D02*
X77546647Y-82700762D01*
X77546647Y-82700762D02*
X77594266Y-82700762D01*
X77594266Y-82700762D02*
X77665695Y-82676952D01*
X77665695Y-82676952D02*
X77951409Y-82391238D01*
X77951409Y-82391238D02*
X77951409Y-82700762D01*
D13*
X78778000Y-57296000D02*
X78778000Y-56496000D01*
X78778000Y-56496000D02*
X77178000Y-56496000D01*
X77178000Y-57296000D02*
X78778000Y-57296000D01*
X77178000Y-56496000D02*
X77178000Y-57296000D01*
X78549000Y-68496000D02*
X78549000Y-71121000D01*
X78549000Y-68496000D02*
X78149000Y-68071000D01*
X76899000Y-71121000D02*
X78549000Y-71121000D01*
X76899000Y-68071000D02*
X78149000Y-68071000D01*
X76899000Y-68071000D02*
X76899000Y-71121000D01*
X80714800Y-80734000D02*
X79914800Y-80734000D01*
X79914800Y-80734000D02*
X79914800Y-82334000D01*
X80714800Y-82334000D02*
X80714800Y-80734000D01*
X79914800Y-82334000D02*
X80714800Y-82334000D01*
X78549000Y-73576000D02*
X78549000Y-76201000D01*
X78549000Y-73576000D02*
X78149000Y-73151000D01*
X76899000Y-76201000D02*
X78549000Y-76201000D01*
X76899000Y-73151000D02*
X78149000Y-73151000D01*
X76899000Y-73151000D02*
X76899000Y-76201000D01*
X93483000Y-99760000D02*
X93483000Y-98360000D01*
X93483000Y-98360000D02*
X91683000Y-98360000D01*
X92883000Y-99060000D02*
X93083000Y-99060000D01*
X92883000Y-99060000D02*
X92383000Y-98710000D01*
X92883000Y-98710000D02*
X92883000Y-99410000D01*
X92383000Y-99410000D02*
X92883000Y-99060000D01*
X92383000Y-99060000D02*
X92133000Y-99060000D01*
X92383000Y-98710000D02*
X92383000Y-99410000D01*
X91683000Y-99760000D02*
X93483000Y-99760000D01*
X91683000Y-98360000D02*
X91683000Y-99760000D01*
X80664000Y-91452800D02*
X79864000Y-91452800D01*
X79864000Y-91452800D02*
X79864000Y-93052800D01*
X80664000Y-93052800D02*
X80664000Y-91452800D01*
X79864000Y-93052800D02*
X80664000Y-93052800D01*
X80714800Y-52794000D02*
X79914800Y-52794000D01*
X79914800Y-52794000D02*
X79914800Y-54394000D01*
X80714800Y-54394000D02*
X80714800Y-52794000D01*
X79914800Y-54394000D02*
X80714800Y-54394000D01*
X78778000Y-72536000D02*
X78778000Y-71736000D01*
X78778000Y-71736000D02*
X77178000Y-71736000D01*
X77178000Y-72536000D02*
X78778000Y-72536000D01*
X77178000Y-71736000D02*
X77178000Y-72536000D01*
X80714800Y-73114000D02*
X79914800Y-73114000D01*
X79914800Y-73114000D02*
X79914800Y-74714000D01*
X80714800Y-74714000D02*
X80714800Y-73114000D01*
X79914800Y-74714000D02*
X80714800Y-74714000D01*
X80714800Y-68034000D02*
X79914800Y-68034000D01*
X79914800Y-68034000D02*
X79914800Y-69634000D01*
X80714800Y-69634000D02*
X80714800Y-68034000D01*
X79914800Y-69634000D02*
X80714800Y-69634000D01*
X80714800Y-57874000D02*
X79914800Y-57874000D01*
X79914800Y-57874000D02*
X79914800Y-59474000D01*
X80714800Y-59474000D02*
X80714800Y-57874000D01*
X79914800Y-59474000D02*
X80714800Y-59474000D01*
X78549000Y-58336000D02*
X78549000Y-60961000D01*
X78549000Y-58336000D02*
X78149000Y-57911000D01*
X76899000Y-60961000D02*
X78549000Y-60961000D01*
X76899000Y-57911000D02*
X78149000Y-57911000D01*
X76899000Y-57911000D02*
X76899000Y-60961000D01*
X78752500Y-80029000D02*
X78752500Y-79229000D01*
X78752500Y-79229000D02*
X77152500Y-79229000D01*
X77152500Y-80029000D02*
X78752500Y-80029000D01*
X77152500Y-79229000D02*
X77152500Y-80029000D01*
X78778000Y-67456000D02*
X78778000Y-66656000D01*
X78778000Y-66656000D02*
X77178000Y-66656000D01*
X77178000Y-67456000D02*
X78778000Y-67456000D01*
X77178000Y-66656000D02*
X77178000Y-67456000D01*
X78752500Y-52216000D02*
X78752500Y-51416000D01*
X78752500Y-51416000D02*
X77152500Y-51416000D01*
X77152500Y-52216000D02*
X78752500Y-52216000D01*
X77152500Y-51416000D02*
X77152500Y-52216000D01*
X78549000Y-53256000D02*
X78549000Y-55881000D01*
X78549000Y-53256000D02*
X78149000Y-52831000D01*
X76899000Y-55881000D02*
X78549000Y-55881000D01*
X76899000Y-52831000D02*
X78149000Y-52831000D01*
X76899000Y-52831000D02*
X76899000Y-55881000D01*
X78424000Y-95500000D02*
X77024000Y-95500000D01*
X78424000Y-93030000D02*
X78424000Y-95480000D01*
X78424000Y-93030000D02*
X77874000Y-92460000D01*
X77874000Y-92460000D02*
X77024000Y-92460000D01*
X77024000Y-92460000D02*
X77024000Y-95500000D01*
X78549000Y-81196000D02*
X78549000Y-83821000D01*
X78549000Y-81196000D02*
X78149000Y-80771000D01*
X76899000Y-83821000D02*
X78549000Y-83821000D01*
X76899000Y-80771000D02*
X78149000Y-80771000D01*
X76899000Y-80771000D02*
X76899000Y-83821000D01*
M02*
