%TF.GenerationSoftware,KiCad,Pcbnew,7.0.6*%
%TF.CreationDate,2023-11-17T11:55:58+01:00*%
%TF.ProjectId,blue_64,626c7565-5f36-4342-9e6b-696361645f70,rev?*%
%TF.SameCoordinates,Original*%
%TF.FileFunction,Paste,Bot*%
%TF.FilePolarity,Positive*%
%FSLAX46Y46*%
G04 Gerber Fmt 4.6, Leading zero omitted, Abs format (unit mm)*
G04 Created by KiCad (PCBNEW 7.0.6) date 2023-11-17 11:55:58*
%MOMM*%
%LPD*%
G01*
G04 APERTURE LIST*
G04 Aperture macros list*
%AMRoundRect*
0 Rectangle with rounded corners*
0 $1 Rounding radius*
0 $2 $3 $4 $5 $6 $7 $8 $9 X,Y pos of 4 corners*
0 Add a 4 corners polygon primitive as box body*
4,1,4,$2,$3,$4,$5,$6,$7,$8,$9,$2,$3,0*
0 Add four circle primitives for the rounded corners*
1,1,$1+$1,$2,$3*
1,1,$1+$1,$4,$5*
1,1,$1+$1,$6,$7*
1,1,$1+$1,$8,$9*
0 Add four rect primitives between the rounded corners*
20,1,$1+$1,$2,$3,$4,$5,0*
20,1,$1+$1,$4,$5,$6,$7,0*
20,1,$1+$1,$6,$7,$8,$9,0*
20,1,$1+$1,$8,$9,$2,$3,0*%
G04 Aperture macros list end*
%ADD10RoundRect,0.218750X0.218750X0.256250X-0.218750X0.256250X-0.218750X-0.256250X0.218750X-0.256250X0*%
%ADD11R,0.700000X0.510000*%
%ADD12RoundRect,0.218750X-0.256250X0.218750X-0.256250X-0.218750X0.256250X-0.218750X0.256250X0.218750X0*%
%ADD13R,1.000000X1.000000*%
%ADD14R,0.900000X0.800000*%
G04 APERTURE END LIST*
D10*
X78765500Y-56896000D03*
X77190500Y-56896000D03*
D11*
X78884000Y-68646000D03*
X78884000Y-69596000D03*
X78884000Y-70546000D03*
X76564000Y-70546000D03*
X76564000Y-69596000D03*
X76564000Y-68646000D03*
D12*
X80314800Y-80746500D03*
X80314800Y-82321500D03*
D11*
X78884000Y-73726000D03*
X78884000Y-74676000D03*
X78884000Y-75626000D03*
X76564000Y-75626000D03*
X76564000Y-74676000D03*
X76564000Y-73726000D03*
D13*
X93833000Y-99060000D03*
X91333000Y-99060000D03*
D12*
X80264000Y-91465300D03*
X80264000Y-93040300D03*
X80314800Y-52806500D03*
X80314800Y-54381500D03*
D10*
X78765500Y-72136000D03*
X77190500Y-72136000D03*
D12*
X80314800Y-73126500D03*
X80314800Y-74701500D03*
X80314800Y-68046500D03*
X80314800Y-69621500D03*
X80314800Y-57886500D03*
X80314800Y-59461500D03*
D11*
X78884000Y-58486000D03*
X78884000Y-59436000D03*
X78884000Y-60386000D03*
X76564000Y-60386000D03*
X76564000Y-59436000D03*
X76564000Y-58486000D03*
D10*
X78740000Y-79629000D03*
X77165000Y-79629000D03*
X78765500Y-67056000D03*
X77190500Y-67056000D03*
X78740000Y-51816000D03*
X77165000Y-51816000D03*
D11*
X78884000Y-53406000D03*
X78884000Y-54356000D03*
X78884000Y-55306000D03*
X76564000Y-55306000D03*
X76564000Y-54356000D03*
X76564000Y-53406000D03*
D14*
X78724000Y-93030000D03*
X78724000Y-94930000D03*
X76724000Y-93980000D03*
D11*
X78884000Y-81346000D03*
X78884000Y-82296000D03*
X78884000Y-83246000D03*
X76564000Y-83246000D03*
X76564000Y-82296000D03*
X76564000Y-81346000D03*
M02*
