%TF.GenerationSoftware,KiCad,Pcbnew,7.0.6*%
%TF.CreationDate,2024-03-10T08:43:15+01:00*%
%TF.ProjectId,blue_64,626c7565-5f36-4342-9e6b-696361645f70,rev?*%
%TF.SameCoordinates,Original*%
%TF.FileFunction,Soldermask,Bot*%
%TF.FilePolarity,Negative*%
%FSLAX46Y46*%
G04 Gerber Fmt 4.6, Leading zero omitted, Abs format (unit mm)*
G04 Created by KiCad (PCBNEW 7.0.6) date 2024-03-10 08:43:15*
%MOMM*%
%LPD*%
G01*
G04 APERTURE LIST*
G04 Aperture macros list*
%AMRoundRect*
0 Rectangle with rounded corners*
0 $1 Rounding radius*
0 $2 $3 $4 $5 $6 $7 $8 $9 X,Y pos of 4 corners*
0 Add a 4 corners polygon primitive as box body*
4,1,4,$2,$3,$4,$5,$6,$7,$8,$9,$2,$3,0*
0 Add four circle primitives for the rounded corners*
1,1,$1+$1,$2,$3*
1,1,$1+$1,$4,$5*
1,1,$1+$1,$6,$7*
1,1,$1+$1,$8,$9*
0 Add four rect primitives between the rounded corners*
20,1,$1+$1,$2,$3,$4,$5,0*
20,1,$1+$1,$4,$5,$6,$7,0*
20,1,$1+$1,$6,$7,$8,$9,0*
20,1,$1+$1,$8,$9,$2,$3,0*%
%AMFreePoly0*
4,1,19,0.500000,-0.750000,0.000000,-0.750000,0.000000,-0.744911,-0.071157,-0.744911,-0.207708,-0.704816,-0.327430,-0.627875,-0.420627,-0.520320,-0.479746,-0.390866,-0.500000,-0.250000,-0.500000,0.250000,-0.479746,0.390866,-0.420627,0.520320,-0.327430,0.627875,-0.207708,0.704816,-0.071157,0.744911,0.000000,0.744911,0.000000,0.750000,0.500000,0.750000,0.500000,-0.750000,0.500000,-0.750000,
$1*%
%AMFreePoly1*
4,1,19,0.000000,0.744911,0.071157,0.744911,0.207708,0.704816,0.327430,0.627875,0.420627,0.520320,0.479746,0.390866,0.500000,0.250000,0.500000,-0.250000,0.479746,-0.390866,0.420627,-0.520320,0.327430,-0.627875,0.207708,-0.704816,0.071157,-0.744911,0.000000,-0.744911,0.000000,-0.750000,-0.500000,-0.750000,-0.500000,0.750000,0.000000,0.750000,0.000000,0.744911,0.000000,0.744911,
$1*%
G04 Aperture macros list end*
%ADD10C,2.200000*%
%ADD11O,2.200000X2.200000*%
%ADD12R,1.700000X1.700000*%
%ADD13O,1.700000X1.700000*%
%ADD14C,1.700000*%
%ADD15RoundRect,0.218750X0.256250X-0.218750X0.256250X0.218750X-0.256250X0.218750X-0.256250X-0.218750X0*%
%ADD16RoundRect,0.218750X0.218750X0.256250X-0.218750X0.256250X-0.218750X-0.256250X0.218750X-0.256250X0*%
%ADD17R,0.700000X0.510000*%
%ADD18RoundRect,0.218750X-0.256250X0.218750X-0.256250X-0.218750X0.256250X-0.218750X0.256250X0.218750X0*%
%ADD19R,1.000000X1.000000*%
%ADD20R,1.060000X0.650000*%
%ADD21RoundRect,0.150000X-0.150000X0.825000X-0.150000X-0.825000X0.150000X-0.825000X0.150000X0.825000X0*%
%ADD22FreePoly0,270.000000*%
%ADD23FreePoly1,270.000000*%
%ADD24R,0.900000X0.800000*%
G04 APERTURE END LIST*
D10*
X65127000Y-88900000D03*
D11*
X62127000Y-88900000D03*
X65377000Y-85090000D03*
D10*
X61877000Y-85090000D03*
D12*
X69850000Y-50800000D03*
D13*
X72390000Y-50800000D03*
X69850000Y-53340000D03*
X72390000Y-53340000D03*
X69850000Y-55880000D03*
X72390000Y-55880000D03*
X69850000Y-58420000D03*
X72390000Y-58420000D03*
X69850000Y-60960000D03*
X72390000Y-60960000D03*
X69850000Y-63500000D03*
X72390000Y-63500000D03*
X69850000Y-66040000D03*
X72390000Y-66040000D03*
X69850000Y-68580000D03*
X72390000Y-68580000D03*
X69850000Y-71120000D03*
X72390000Y-71120000D03*
X69850000Y-73660000D03*
X72390000Y-73660000D03*
X69850000Y-76200000D03*
X72390000Y-76200000D03*
X69850000Y-78740000D03*
X72390000Y-78740000D03*
X69850000Y-81280000D03*
X72390000Y-81280000D03*
X69850000Y-83820000D03*
X72390000Y-83820000D03*
X69850000Y-86360000D03*
X72390000Y-86360000D03*
X69850000Y-88900000D03*
X72390000Y-88900000D03*
X69850000Y-91440000D03*
X72390000Y-91440000D03*
X69850000Y-93980000D03*
X72390000Y-93980000D03*
X69850000Y-96520000D03*
X72390000Y-96520000D03*
X69850000Y-99060000D03*
X72390000Y-99060000D03*
D14*
X121920000Y-86360000D03*
X121920000Y-88900000D03*
X96520000Y-53340000D03*
X121920000Y-83820000D03*
X121920000Y-76200000D03*
X96520000Y-99060000D03*
X96520000Y-83820000D03*
X96520000Y-88900000D03*
X96520000Y-81280000D03*
X121920000Y-91440000D03*
X121920000Y-81280000D03*
X121920000Y-78740000D03*
X121920000Y-73660000D03*
X121920000Y-71120000D03*
X121920000Y-66040000D03*
X121920000Y-58420000D03*
X121920000Y-55880000D03*
X96520000Y-73660000D03*
X96520000Y-76200000D03*
X96520000Y-78740000D03*
X96520000Y-68580000D03*
X96520000Y-71120000D03*
X96520000Y-63500000D03*
X96520000Y-66040000D03*
X121920000Y-99060000D03*
X96520000Y-96520000D03*
X121920000Y-96520000D03*
X121920000Y-93980000D03*
X96520000Y-91440000D03*
X96520000Y-93980000D03*
X96520000Y-55880000D03*
X96520000Y-86360000D03*
X121920000Y-53340000D03*
X121920000Y-68580000D03*
X121920000Y-63500000D03*
X121920000Y-60960000D03*
X96520000Y-60960000D03*
X96520000Y-58420000D03*
D15*
X90424000Y-82321500D03*
X90424000Y-80746500D03*
D16*
X78765500Y-57404000D03*
X77190500Y-57404000D03*
D15*
X91948000Y-66446500D03*
X91948000Y-64871500D03*
D17*
X78884000Y-68646000D03*
X78884000Y-69596000D03*
X78884000Y-70546000D03*
X76564000Y-70546000D03*
X76564000Y-69596000D03*
X76564000Y-68646000D03*
D15*
X88900000Y-82321500D03*
X88900000Y-80746500D03*
X90424000Y-66446500D03*
X90424000Y-64871500D03*
D18*
X80314800Y-80492500D03*
X80314800Y-82067500D03*
D17*
X78884000Y-74488000D03*
X78884000Y-75438000D03*
X78884000Y-76388000D03*
X76564000Y-76388000D03*
X76564000Y-75438000D03*
X76564000Y-74488000D03*
D19*
X93833000Y-99060000D03*
X91333000Y-99060000D03*
D18*
X80264000Y-91465300D03*
X80264000Y-93040300D03*
X80314800Y-52806500D03*
X80314800Y-54381500D03*
D16*
X78765500Y-72898000D03*
X77190500Y-72898000D03*
D15*
X91948000Y-82321500D03*
X91948000Y-80746500D03*
X88900000Y-66446500D03*
X88900000Y-64871500D03*
D20*
X85768000Y-89469000D03*
X85768000Y-88519000D03*
X85768000Y-87569000D03*
X87968000Y-87569000D03*
X87968000Y-89469000D03*
D21*
X83058000Y-73725000D03*
X84328000Y-73725000D03*
X85598000Y-73725000D03*
X86868000Y-73725000D03*
X88138000Y-73725000D03*
X89408000Y-73725000D03*
X90678000Y-73725000D03*
X91948000Y-73725000D03*
X91948000Y-78675000D03*
X90678000Y-78675000D03*
X89408000Y-78675000D03*
X88138000Y-78675000D03*
X86868000Y-78675000D03*
X85598000Y-78675000D03*
X84328000Y-78675000D03*
X83058000Y-78675000D03*
D18*
X80314800Y-73888500D03*
X80314800Y-75463500D03*
X80314800Y-68046500D03*
X80314800Y-69621500D03*
D21*
X83058000Y-57850000D03*
X84328000Y-57850000D03*
X85598000Y-57850000D03*
X86868000Y-57850000D03*
X88138000Y-57850000D03*
X89408000Y-57850000D03*
X90678000Y-57850000D03*
X91948000Y-57850000D03*
X91948000Y-62800000D03*
X90678000Y-62800000D03*
X89408000Y-62800000D03*
X88138000Y-62800000D03*
X86868000Y-62800000D03*
X85598000Y-62800000D03*
X84328000Y-62800000D03*
X83058000Y-62800000D03*
D18*
X80314800Y-58394500D03*
X80314800Y-59969500D03*
D17*
X78884000Y-58994000D03*
X78884000Y-59944000D03*
X78884000Y-60894000D03*
X76564000Y-60894000D03*
X76564000Y-59944000D03*
X76564000Y-58994000D03*
D16*
X78765500Y-79502000D03*
X77190500Y-79502000D03*
D20*
X85768000Y-93279000D03*
X85768000Y-92329000D03*
X85768000Y-91379000D03*
X87968000Y-91379000D03*
X87968000Y-93279000D03*
D16*
X91084500Y-96647000D03*
X89509500Y-96647000D03*
X78765500Y-67056000D03*
X77190500Y-67056000D03*
D22*
X78181200Y-89875600D03*
D23*
X78181200Y-91175600D03*
D16*
X91084500Y-95123000D03*
X89509500Y-95123000D03*
X78740000Y-51816000D03*
X77165000Y-51816000D03*
D15*
X89662000Y-92862500D03*
X89662000Y-91287500D03*
D17*
X78884000Y-53406000D03*
X78884000Y-54356000D03*
X78884000Y-55306000D03*
X76564000Y-55306000D03*
X76564000Y-54356000D03*
X76564000Y-53406000D03*
D24*
X78724000Y-93030000D03*
X78724000Y-94930000D03*
X76724000Y-93980000D03*
D17*
X78884000Y-81092000D03*
X78884000Y-82042000D03*
X78884000Y-82992000D03*
X76564000Y-82992000D03*
X76564000Y-82042000D03*
X76564000Y-81092000D03*
D15*
X89662000Y-89052500D03*
X89662000Y-87477500D03*
D20*
X85768000Y-97089000D03*
X85768000Y-96139000D03*
X85768000Y-95189000D03*
X87968000Y-95189000D03*
X87968000Y-97089000D03*
M02*
