%TF.GenerationSoftware,KiCad,Pcbnew,7.0.6*%
%TF.CreationDate,2024-02-23T14:21:37+01:00*%
%TF.ProjectId,blue_64,626c7565-5f36-4342-9e6b-696361645f70,rev?*%
%TF.SameCoordinates,Original*%
%TF.FileFunction,AssemblyDrawing,Top*%
%FSLAX46Y46*%
G04 Gerber Fmt 4.6, Leading zero omitted, Abs format (unit mm)*
G04 Created by KiCad (PCBNEW 7.0.6) date 2024-02-23 14:21:37*
%MOMM*%
%LPD*%
G01*
G04 APERTURE LIST*
%ADD10C,0.150000*%
%ADD11C,0.100000*%
G04 APERTURE END LIST*
D10*
X64081819Y-95966666D02*
X64081819Y-96442856D01*
X64081819Y-96442856D02*
X63081819Y-96442856D01*
X64081819Y-95109523D02*
X64081819Y-95680951D01*
X64081819Y-95395237D02*
X63081819Y-95395237D01*
X63081819Y-95395237D02*
X63224676Y-95490475D01*
X63224676Y-95490475D02*
X63319914Y-95585713D01*
X63319914Y-95585713D02*
X63367533Y-95680951D01*
X70574819Y-75263333D02*
X71289104Y-75263333D01*
X71289104Y-75263333D02*
X71431961Y-75310952D01*
X71431961Y-75310952D02*
X71527200Y-75406190D01*
X71527200Y-75406190D02*
X71574819Y-75549047D01*
X71574819Y-75549047D02*
X71574819Y-75644285D01*
X70574819Y-74882380D02*
X70574819Y-74263333D01*
X70574819Y-74263333D02*
X70955771Y-74596666D01*
X70955771Y-74596666D02*
X70955771Y-74453809D01*
X70955771Y-74453809D02*
X71003390Y-74358571D01*
X71003390Y-74358571D02*
X71051009Y-74310952D01*
X71051009Y-74310952D02*
X71146247Y-74263333D01*
X71146247Y-74263333D02*
X71384342Y-74263333D01*
X71384342Y-74263333D02*
X71479580Y-74310952D01*
X71479580Y-74310952D02*
X71527200Y-74358571D01*
X71527200Y-74358571D02*
X71574819Y-74453809D01*
X71574819Y-74453809D02*
X71574819Y-74739523D01*
X71574819Y-74739523D02*
X71527200Y-74834761D01*
X71527200Y-74834761D02*
X71479580Y-74882380D01*
X62686580Y-75456666D02*
X62734200Y-75504285D01*
X62734200Y-75504285D02*
X62781819Y-75647142D01*
X62781819Y-75647142D02*
X62781819Y-75742380D01*
X62781819Y-75742380D02*
X62734200Y-75885237D01*
X62734200Y-75885237D02*
X62638961Y-75980475D01*
X62638961Y-75980475D02*
X62543723Y-76028094D01*
X62543723Y-76028094D02*
X62353247Y-76075713D01*
X62353247Y-76075713D02*
X62210390Y-76075713D01*
X62210390Y-76075713D02*
X62019914Y-76028094D01*
X62019914Y-76028094D02*
X61924676Y-75980475D01*
X61924676Y-75980475D02*
X61829438Y-75885237D01*
X61829438Y-75885237D02*
X61781819Y-75742380D01*
X61781819Y-75742380D02*
X61781819Y-75647142D01*
X61781819Y-75647142D02*
X61829438Y-75504285D01*
X61829438Y-75504285D02*
X61877057Y-75456666D01*
X62781819Y-74504285D02*
X62781819Y-75075713D01*
X62781819Y-74789999D02*
X61781819Y-74789999D01*
X61781819Y-74789999D02*
X61924676Y-74885237D01*
X61924676Y-74885237D02*
X62019914Y-74980475D01*
X62019914Y-74980475D02*
X62067533Y-75075713D01*
D11*
X67127000Y-99900000D02*
X67127000Y-90900000D01*
X67127000Y-90900000D02*
X60127000Y-90900000D01*
X60127000Y-99900000D02*
X67127000Y-99900000D01*
X60127000Y-90900000D02*
X60127000Y-99900000D01*
X68580000Y-50800000D02*
X69850000Y-49530000D01*
X68580000Y-100330000D02*
X68580000Y-50800000D01*
X69850000Y-49530000D02*
X73660000Y-49530000D01*
X73660000Y-49530000D02*
X73660000Y-100330000D01*
X73660000Y-100330000D02*
X68580000Y-100330000D01*
X60227000Y-66590000D02*
X60227000Y-83090000D01*
X60227000Y-83090000D02*
X67827000Y-83090000D01*
X67827000Y-66590000D02*
X60227000Y-66590000D01*
X67827000Y-83090000D02*
X67827000Y-66590000D01*
M02*
