%TF.GenerationSoftware,KiCad,Pcbnew,7.0.6*%
%TF.CreationDate,2023-11-17T11:55:58+01:00*%
%TF.ProjectId,blue_64,626c7565-5f36-4342-9e6b-696361645f70,rev?*%
%TF.SameCoordinates,Original*%
%TF.FileFunction,Copper,L1,Top*%
%TF.FilePolarity,Positive*%
%FSLAX46Y46*%
G04 Gerber Fmt 4.6, Leading zero omitted, Abs format (unit mm)*
G04 Created by KiCad (PCBNEW 7.0.6) date 2023-11-17 11:55:58*
%MOMM*%
%LPD*%
G01*
G04 APERTURE LIST*
G04 Aperture macros list*
%AMRoundRect*
0 Rectangle with rounded corners*
0 $1 Rounding radius*
0 $2 $3 $4 $5 $6 $7 $8 $9 X,Y pos of 4 corners*
0 Add a 4 corners polygon primitive as box body*
4,1,4,$2,$3,$4,$5,$6,$7,$8,$9,$2,$3,0*
0 Add four circle primitives for the rounded corners*
1,1,$1+$1,$2,$3*
1,1,$1+$1,$4,$5*
1,1,$1+$1,$6,$7*
1,1,$1+$1,$8,$9*
0 Add four rect primitives between the rounded corners*
20,1,$1+$1,$2,$3,$4,$5,0*
20,1,$1+$1,$4,$5,$6,$7,0*
20,1,$1+$1,$6,$7,$8,$9,0*
20,1,$1+$1,$8,$9,$2,$3,0*%
G04 Aperture macros list end*
%TA.AperFunction,SMDPad,CuDef*%
%ADD10RoundRect,0.218750X0.218750X0.256250X-0.218750X0.256250X-0.218750X-0.256250X0.218750X-0.256250X0*%
%TD*%
%TA.AperFunction,SMDPad,CuDef*%
%ADD11R,1.060000X0.650000*%
%TD*%
%TA.AperFunction,ComponentPad*%
%ADD12R,1.700000X1.700000*%
%TD*%
%TA.AperFunction,ComponentPad*%
%ADD13O,1.700000X1.700000*%
%TD*%
%TA.AperFunction,SMDPad,CuDef*%
%ADD14RoundRect,0.150000X-0.825000X-0.150000X0.825000X-0.150000X0.825000X0.150000X-0.825000X0.150000X0*%
%TD*%
%TA.AperFunction,ComponentPad*%
%ADD15C,1.700000*%
%TD*%
%TA.AperFunction,ViaPad*%
%ADD16C,0.600000*%
%TD*%
%TA.AperFunction,ViaPad*%
%ADD17C,0.800000*%
%TD*%
%TA.AperFunction,Conductor*%
%ADD18C,0.300000*%
%TD*%
%TA.AperFunction,Conductor*%
%ADD19C,0.400000*%
%TD*%
G04 APERTURE END LIST*
D10*
X119151500Y-81280000D03*
X117576500Y-81280000D03*
X119151500Y-73660000D03*
X117576500Y-73660000D03*
X119151500Y-78740000D03*
X117576500Y-78740000D03*
X119151500Y-71120000D03*
X117576500Y-71120000D03*
X119151500Y-83820000D03*
X117576500Y-83820000D03*
X119151500Y-66040000D03*
X117576500Y-66040000D03*
D11*
X108120000Y-85791000D03*
X108120000Y-86741000D03*
X108120000Y-87691000D03*
X110320000Y-87691000D03*
X110320000Y-85791000D03*
D12*
X71120000Y-50800000D03*
D13*
X73660000Y-50800000D03*
X71120000Y-53340000D03*
X73660000Y-53340000D03*
X71120000Y-55880000D03*
X73660000Y-55880000D03*
X71120000Y-58420000D03*
X73660000Y-58420000D03*
X71120000Y-60960000D03*
X73660000Y-60960000D03*
X71120000Y-63500000D03*
X73660000Y-63500000D03*
X71120000Y-66040000D03*
X73660000Y-66040000D03*
X71120000Y-68580000D03*
X73660000Y-68580000D03*
X71120000Y-71120000D03*
X73660000Y-71120000D03*
X71120000Y-73660000D03*
X73660000Y-73660000D03*
X71120000Y-76200000D03*
X73660000Y-76200000D03*
X71120000Y-78740000D03*
X73660000Y-78740000D03*
X71120000Y-81280000D03*
X73660000Y-81280000D03*
X71120000Y-83820000D03*
X73660000Y-83820000D03*
X71120000Y-86360000D03*
X73660000Y-86360000D03*
X71120000Y-88900000D03*
X73660000Y-88900000D03*
X71120000Y-91440000D03*
X73660000Y-91440000D03*
X71120000Y-93980000D03*
X73660000Y-93980000D03*
X71120000Y-96520000D03*
X73660000Y-96520000D03*
X71120000Y-99060000D03*
X73660000Y-99060000D03*
D14*
X106745000Y-72390000D03*
X106745000Y-73660000D03*
X106745000Y-74930000D03*
X106745000Y-76200000D03*
X106745000Y-77470000D03*
X106745000Y-78740000D03*
X106745000Y-80010000D03*
X106745000Y-81280000D03*
X111695000Y-81280000D03*
X111695000Y-80010000D03*
X111695000Y-78740000D03*
X111695000Y-77470000D03*
X111695000Y-76200000D03*
X111695000Y-74930000D03*
X111695000Y-73660000D03*
X111695000Y-72390000D03*
X106745000Y-59817000D03*
X106745000Y-61087000D03*
X106745000Y-62357000D03*
X106745000Y-63627000D03*
X106745000Y-64897000D03*
X106745000Y-66167000D03*
X106745000Y-67437000D03*
X106745000Y-68707000D03*
X111695000Y-68707000D03*
X111695000Y-67437000D03*
X111695000Y-66167000D03*
X111695000Y-64897000D03*
X111695000Y-63627000D03*
X111695000Y-62357000D03*
X111695000Y-61087000D03*
X111695000Y-59817000D03*
D11*
X108120000Y-89855000D03*
X108120000Y-90805000D03*
X108120000Y-91755000D03*
X110320000Y-91755000D03*
X110320000Y-89855000D03*
D10*
X119151500Y-91440000D03*
X117576500Y-91440000D03*
X119151500Y-88900000D03*
X117576500Y-88900000D03*
D15*
X121920000Y-86360000D03*
X121920000Y-88900000D03*
X96520000Y-53340000D03*
X121920000Y-83820000D03*
X121920000Y-76200000D03*
X96520000Y-99060000D03*
X96520000Y-83820000D03*
X96520000Y-88900000D03*
X96520000Y-81280000D03*
X121920000Y-91440000D03*
X121920000Y-81280000D03*
X121920000Y-78740000D03*
X121920000Y-73660000D03*
X121920000Y-71120000D03*
X121920000Y-66040000D03*
X121920000Y-58420000D03*
X121920000Y-55880000D03*
X96520000Y-73660000D03*
X96520000Y-76200000D03*
X96520000Y-78740000D03*
X96520000Y-68580000D03*
X96520000Y-71120000D03*
X96520000Y-63500000D03*
X96520000Y-66040000D03*
X121920000Y-99060000D03*
X96520000Y-96520000D03*
X121920000Y-96520000D03*
X121920000Y-93980000D03*
X96520000Y-91440000D03*
X96520000Y-93980000D03*
X96520000Y-55880000D03*
X96520000Y-86360000D03*
X121920000Y-53340000D03*
X121920000Y-68580000D03*
X121920000Y-63500000D03*
X121920000Y-60960000D03*
X96520000Y-60960000D03*
X96520000Y-58420000D03*
D10*
X119151500Y-86360000D03*
X117576500Y-86360000D03*
D11*
X108120000Y-93919000D03*
X108120000Y-94869000D03*
X108120000Y-95819000D03*
X110320000Y-95819000D03*
X110320000Y-93919000D03*
D16*
X107188000Y-87757000D03*
X109220000Y-94615000D03*
X109474000Y-65532000D03*
X114046000Y-74803000D03*
X91313000Y-89027000D03*
X120650000Y-82550000D03*
X79502000Y-77597000D03*
X81407000Y-100457000D03*
X114173000Y-95631000D03*
X91059000Y-54229000D03*
X87503000Y-83820000D03*
X102362000Y-88138000D03*
X84582000Y-96012000D03*
X108204000Y-68707000D03*
X87630000Y-65405000D03*
X103251000Y-79756000D03*
X72390000Y-57150000D03*
X120650000Y-64770000D03*
X72390000Y-85090000D03*
X112522000Y-99441000D03*
X72390000Y-82550000D03*
X98933000Y-60706000D03*
X120650000Y-62230000D03*
X78740000Y-96012000D03*
X78105000Y-73660000D03*
X92964000Y-92583000D03*
X115062000Y-72263000D03*
X113030000Y-92964000D03*
X88138000Y-86487000D03*
X113665000Y-83058000D03*
X105156000Y-81280000D03*
X72390000Y-90170000D03*
X72390000Y-87630000D03*
X78105000Y-68580000D03*
X89789000Y-94996000D03*
X104140000Y-84582000D03*
X120650000Y-74930000D03*
X78105000Y-58420000D03*
X100203000Y-53848000D03*
X78105000Y-81280000D03*
X100330000Y-71374000D03*
X83185000Y-59690000D03*
X98171000Y-73660000D03*
X93599000Y-87884000D03*
X84455000Y-81788000D03*
X104648000Y-61976000D03*
X72390000Y-69850000D03*
X98806000Y-63246000D03*
X98298000Y-88900000D03*
X72395000Y-74925000D03*
X110109000Y-78232000D03*
X86614000Y-92583000D03*
X102108000Y-69596000D03*
X86106000Y-99568000D03*
X120650000Y-80010000D03*
X115316000Y-77216000D03*
X72390000Y-95250000D03*
X100838000Y-96647000D03*
X117094000Y-93853000D03*
X113284000Y-70485000D03*
X72390000Y-59690000D03*
X120650000Y-85090000D03*
X77470000Y-55245000D03*
X105156000Y-80010000D03*
X115443000Y-59309000D03*
X72390000Y-64770000D03*
X114681000Y-62357000D03*
X72390000Y-54610000D03*
X120269000Y-58166000D03*
X93980000Y-95631000D03*
X85090000Y-60833000D03*
X90297000Y-59182000D03*
X72390000Y-92710000D03*
X93599000Y-78232000D03*
X105283000Y-68707000D03*
X98933000Y-58674000D03*
X77470000Y-60325000D03*
X99822000Y-92964000D03*
X90297000Y-49911000D03*
X102108000Y-82550000D03*
X115570000Y-67564000D03*
X72390000Y-62230000D03*
X101854000Y-58674000D03*
X119507000Y-63627000D03*
X75692000Y-60325000D03*
X99822000Y-67056000D03*
X87757000Y-77470000D03*
X89408000Y-70358000D03*
X104648000Y-75184000D03*
X119380000Y-68072000D03*
X103378000Y-75946000D03*
X107188000Y-95885000D03*
X120650000Y-87630000D03*
X75692000Y-75565000D03*
X77597000Y-98552000D03*
X115443000Y-90424000D03*
X114808000Y-53467000D03*
X77470000Y-83312000D03*
X86614000Y-54356000D03*
X72390000Y-67310000D03*
X72390000Y-77470000D03*
X81915000Y-55245000D03*
X78105000Y-53340000D03*
X98298000Y-91440000D03*
X79883000Y-94996000D03*
X93472000Y-83312000D03*
X82423000Y-64262000D03*
X72390000Y-72390000D03*
X108204000Y-80010000D03*
X75692000Y-70485000D03*
X113030000Y-88900000D03*
X117348000Y-69342000D03*
X103378000Y-98679000D03*
X120650000Y-72390000D03*
X104267000Y-90551000D03*
X118237000Y-55499000D03*
X72390000Y-52070000D03*
X116713000Y-98806000D03*
X108204000Y-67437000D03*
X93599000Y-69469000D03*
X115189000Y-84963000D03*
X90551000Y-75946000D03*
X118237000Y-60960000D03*
X93472000Y-64262000D03*
X77470000Y-70485000D03*
X112014000Y-84074000D03*
X102108000Y-64516000D03*
X93599000Y-60325000D03*
X116078000Y-64516000D03*
X105283000Y-67437000D03*
X77343000Y-75565000D03*
X109601000Y-75946000D03*
X75692000Y-55245000D03*
X75946000Y-88900000D03*
X72390000Y-97790000D03*
X103251000Y-55499000D03*
X80645000Y-83820000D03*
X107188000Y-91821000D03*
X104140000Y-95377000D03*
X100584000Y-60833000D03*
X72390000Y-80010000D03*
X110617000Y-55880000D03*
X109855000Y-61595000D03*
X104648000Y-59690000D03*
X109728000Y-89027000D03*
X98298000Y-83820000D03*
X86360000Y-68961000D03*
X108585000Y-98552000D03*
X120650000Y-92710000D03*
X84455000Y-88773000D03*
X76835000Y-65405000D03*
X98298000Y-86360000D03*
X105283000Y-66167000D03*
X93599000Y-74549000D03*
X108204000Y-81280000D03*
X118872000Y-76200000D03*
X119253000Y-96393000D03*
X91313000Y-81661000D03*
X83820000Y-50038000D03*
X115570000Y-87376000D03*
X84074000Y-74803000D03*
X107442000Y-53467000D03*
X75692000Y-83312000D03*
X77978000Y-49911000D03*
X107569000Y-84328000D03*
X104775000Y-73152000D03*
X120650000Y-90170000D03*
X82550000Y-70612000D03*
X80010000Y-86741000D03*
X111760000Y-71628000D03*
X111379000Y-93853000D03*
X111887000Y-59055000D03*
X111379000Y-89789000D03*
D17*
X90043000Y-99060000D03*
D16*
X111379000Y-85725000D03*
X113157000Y-59817000D03*
X113284000Y-72390000D03*
D17*
X91313000Y-100076000D03*
X91313000Y-98044000D03*
D16*
X114046000Y-82296000D03*
X107315000Y-90805000D03*
X110490000Y-76200000D03*
X110490000Y-62357000D03*
X108077000Y-84963000D03*
X105537000Y-62357000D03*
X105537000Y-74930000D03*
X108966000Y-89789000D03*
X108966000Y-93853000D03*
X110490000Y-61087000D03*
X110490000Y-77470000D03*
X107315000Y-86741000D03*
X105537000Y-73660000D03*
X107315000Y-94869000D03*
D18*
X107254000Y-95819000D02*
X107188000Y-95885000D01*
X108120000Y-87691000D02*
X107254000Y-87691000D01*
X107254000Y-87691000D02*
X107188000Y-87757000D01*
X108120000Y-95819000D02*
X107254000Y-95819000D01*
X108120000Y-91755000D02*
X107254000Y-91755000D01*
X107254000Y-91755000D02*
X107188000Y-91821000D01*
D19*
X111695000Y-71693000D02*
X111760000Y-71628000D01*
X110320000Y-89855000D02*
X111313000Y-89855000D01*
X111313000Y-85791000D02*
X111379000Y-85725000D01*
X113157000Y-59817000D02*
X111695000Y-59817000D01*
X111695000Y-72390000D02*
X113284000Y-72390000D01*
X110320000Y-85791000D02*
X111313000Y-85791000D01*
X110320000Y-93919000D02*
X111313000Y-93919000D01*
X111313000Y-89855000D02*
X111379000Y-89789000D01*
X111313000Y-93919000D02*
X111379000Y-93853000D01*
X111887000Y-59055000D02*
X111695000Y-59247000D01*
X111695000Y-59247000D02*
X111695000Y-59817000D01*
X111695000Y-72390000D02*
X111695000Y-71693000D01*
X119151500Y-66040000D02*
X121920000Y-66040000D01*
D18*
X111822000Y-66040000D02*
X111695000Y-66167000D01*
X117576500Y-66040000D02*
X111822000Y-66040000D01*
D19*
X119151500Y-71120000D02*
X121920000Y-71120000D01*
D18*
X116713000Y-71120000D02*
X113030000Y-67437000D01*
X117576500Y-71120000D02*
X116713000Y-71120000D01*
X113030000Y-67437000D02*
X111695000Y-67437000D01*
D19*
X119151500Y-73660000D02*
X121920000Y-73660000D01*
D18*
X116586000Y-72669500D02*
X116586000Y-71755000D01*
X117576500Y-73660000D02*
X116586000Y-72669500D01*
X113538000Y-68707000D02*
X111695000Y-68707000D01*
X116586000Y-71755000D02*
X113538000Y-68707000D01*
D19*
X121920000Y-78740000D02*
X119151500Y-78740000D01*
D18*
X111695000Y-78740000D02*
X117576500Y-78740000D01*
D19*
X121920000Y-81280000D02*
X119151500Y-81280000D01*
D18*
X116586000Y-81280000D02*
X115316000Y-80010000D01*
X115316000Y-80010000D02*
X111695000Y-80010000D01*
X117576500Y-81280000D02*
X116586000Y-81280000D01*
D19*
X121920000Y-83820000D02*
X119151500Y-83820000D01*
D18*
X117475000Y-83820000D02*
X117576500Y-83820000D01*
X111695000Y-81280000D02*
X114935000Y-81280000D01*
X114935000Y-81280000D02*
X117475000Y-83820000D01*
X121920000Y-86360000D02*
X119151500Y-86360000D01*
X113538000Y-86360000D02*
X117576500Y-86360000D01*
X110320000Y-87691000D02*
X112207000Y-87691000D01*
X112207000Y-87691000D02*
X113538000Y-86360000D01*
X111028893Y-82296000D02*
X109982000Y-81249107D01*
X109982000Y-81249107D02*
X109982000Y-79883000D01*
X109982000Y-79883000D02*
X108839000Y-78740000D01*
X108839000Y-78740000D02*
X106745000Y-78740000D01*
X114046000Y-82296000D02*
X111028893Y-82296000D01*
X92883894Y-80129000D02*
X95320000Y-82565106D01*
X95320000Y-84317057D02*
X96092943Y-85090000D01*
X99060000Y-77724000D02*
X104394000Y-72390000D01*
X73660000Y-81280000D02*
X74811000Y-80129000D01*
X98044000Y-85090000D02*
X99060000Y-84074000D01*
X99060000Y-84074000D02*
X99060000Y-77724000D01*
X74811000Y-80129000D02*
X92883894Y-80129000D01*
X104394000Y-72390000D02*
X106745000Y-72390000D01*
X95320000Y-82565106D02*
X95320000Y-84317057D01*
X96092943Y-85090000D02*
X98044000Y-85090000D01*
X73660000Y-88900000D02*
X74930000Y-90170000D01*
X96012000Y-92710000D02*
X98425000Y-92710000D01*
X100584000Y-90551000D02*
X100584000Y-78486000D01*
X100584000Y-78486000D02*
X101600000Y-77470000D01*
X101600000Y-77470000D02*
X106745000Y-77470000D01*
X74930000Y-90170000D02*
X93472000Y-90170000D01*
X98425000Y-92710000D02*
X100584000Y-90551000D01*
X93472000Y-90170000D02*
X96012000Y-92710000D01*
X111695000Y-76200000D02*
X110490000Y-76200000D01*
X108194788Y-71128000D02*
X108966000Y-71899212D01*
X73660000Y-76200000D02*
X76581000Y-79121000D01*
X96012000Y-80010000D02*
X97028000Y-80010000D01*
X95123000Y-79121000D02*
X96012000Y-80010000D01*
X76581000Y-79121000D02*
X95123000Y-79121000D01*
X110490000Y-75692000D02*
X110490000Y-76200000D01*
X108966000Y-74168000D02*
X110490000Y-75692000D01*
X107315000Y-90805000D02*
X108120000Y-90805000D01*
X98044000Y-77216000D02*
X104132000Y-71128000D01*
X98044000Y-78994000D02*
X98044000Y-77216000D01*
X104132000Y-71128000D02*
X108194788Y-71128000D01*
X97028000Y-80010000D02*
X98044000Y-78994000D01*
X108966000Y-71899212D02*
X108966000Y-74168000D01*
X110490000Y-74930000D02*
X111695000Y-74930000D01*
X96092943Y-77470000D02*
X97028000Y-77470000D01*
X95320000Y-74945106D02*
X95320000Y-76697057D01*
X103870000Y-70628000D02*
X108401895Y-70628000D01*
X74684000Y-72636000D02*
X93010894Y-72636000D01*
X73660000Y-73660000D02*
X74684000Y-72636000D01*
X109601000Y-71827106D02*
X109601000Y-74041000D01*
X108401895Y-70628000D02*
X109601000Y-71827106D01*
X109601000Y-74041000D02*
X110490000Y-74930000D01*
X97028000Y-77470000D02*
X103870000Y-70628000D01*
X95320000Y-76697057D02*
X96092943Y-77470000D01*
X93010894Y-72636000D02*
X95320000Y-74945106D01*
X93218000Y-72136000D02*
X96012000Y-74930000D01*
X110236000Y-73279000D02*
X110617000Y-73660000D01*
X103608000Y-70128000D02*
X108609002Y-70128000D01*
X98806000Y-74930000D02*
X103608000Y-70128000D01*
X73660000Y-71120000D02*
X74676000Y-72136000D01*
X110236000Y-71755000D02*
X110236000Y-73279000D01*
X108609002Y-70128000D02*
X110236000Y-71755000D01*
X110617000Y-73660000D02*
X111695000Y-73660000D01*
X96012000Y-74930000D02*
X98806000Y-74930000D01*
X74676000Y-72136000D02*
X93218000Y-72136000D01*
X98860894Y-64770000D02*
X96012000Y-64770000D01*
X74684000Y-61984000D02*
X73660000Y-60960000D01*
X103043893Y-60587000D02*
X98860894Y-64770000D01*
X96012000Y-64770000D02*
X93226000Y-61984000D01*
X93226000Y-61984000D02*
X74684000Y-61984000D01*
X105760000Y-59817000D02*
X104990000Y-60587000D01*
X104990000Y-60587000D02*
X103043893Y-60587000D01*
X106745000Y-59817000D02*
X105760000Y-59817000D01*
X95320000Y-59641606D02*
X95320000Y-61457057D01*
X96092943Y-62230000D02*
X100693787Y-62230000D01*
X73660000Y-58420000D02*
X74676000Y-57404000D01*
X93082394Y-57404000D02*
X95320000Y-59641606D01*
X95320000Y-61457057D02*
X96092943Y-62230000D01*
X104249787Y-58674000D02*
X107442000Y-58674000D01*
X108077000Y-59309000D02*
X108077000Y-62247212D01*
X108077000Y-62247212D02*
X110726788Y-64897000D01*
X110726788Y-64897000D02*
X111695000Y-64897000D01*
X107442000Y-58674000D02*
X108077000Y-59309000D01*
X74676000Y-57404000D02*
X93082394Y-57404000D01*
X100693787Y-62230000D02*
X104249787Y-58674000D01*
X73660000Y-55880000D02*
X74676000Y-56896000D01*
X102561680Y-59655000D02*
X104066680Y-58150000D01*
X96040500Y-59655000D02*
X102561680Y-59655000D01*
X74676000Y-56896000D02*
X93281500Y-56896000D01*
X107625106Y-58150000D02*
X108577000Y-59101894D01*
X110163894Y-63627000D02*
X111695000Y-63627000D01*
X93281500Y-56896000D02*
X96040500Y-59655000D01*
X104066680Y-58150000D02*
X107625106Y-58150000D01*
X108577000Y-59101894D02*
X108577000Y-62040106D01*
X108577000Y-62040106D02*
X110163894Y-63627000D01*
X74676000Y-52324000D02*
X91266943Y-52324000D01*
X108077000Y-84963000D02*
X108077000Y-85748000D01*
X109077000Y-58894788D02*
X109077000Y-61833000D01*
X73660000Y-53340000D02*
X74676000Y-52324000D01*
X97529000Y-57150000D02*
X98029000Y-57650000D01*
X109601000Y-62357000D02*
X110490000Y-62357000D01*
X108077000Y-85748000D02*
X108120000Y-85791000D01*
X111695000Y-62357000D02*
X110490000Y-62357000D01*
X98029000Y-57650000D02*
X107832212Y-57650000D01*
X96092943Y-57150000D02*
X97529000Y-57150000D01*
X91266943Y-52324000D02*
X96092943Y-57150000D01*
X109077000Y-61833000D02*
X109601000Y-62357000D01*
X107832212Y-57650000D02*
X109077000Y-58894788D01*
X106745000Y-64897000D02*
X104648000Y-64897000D01*
X74684000Y-67556000D02*
X73660000Y-68580000D01*
X95320000Y-69865106D02*
X93010894Y-67556000D01*
X93010894Y-67556000D02*
X74684000Y-67556000D01*
X96092943Y-72390000D02*
X95320000Y-71617057D01*
X95320000Y-71617057D02*
X95320000Y-69865106D01*
X104648000Y-64897000D02*
X97155000Y-72390000D01*
X97155000Y-72390000D02*
X96092943Y-72390000D01*
X74676000Y-67056000D02*
X73660000Y-66040000D01*
X106745000Y-63627000D02*
X105210894Y-63627000D01*
X98987894Y-69850000D02*
X96012000Y-69850000D01*
X105210894Y-63627000D02*
X98987894Y-69850000D01*
X96012000Y-69850000D02*
X93218000Y-67056000D01*
X93218000Y-67056000D02*
X74676000Y-67056000D01*
X106745000Y-62357000D02*
X105537000Y-62357000D01*
X105537000Y-74930000D02*
X106745000Y-74930000D01*
X97155000Y-54610000D02*
X94260049Y-54610000D01*
X108039318Y-57150000D02*
X99695000Y-57150000D01*
X109601000Y-58711682D02*
X108039318Y-57150000D01*
X111695000Y-61087000D02*
X110490000Y-61087000D01*
X91474050Y-51824000D02*
X74684000Y-51824000D01*
X108186000Y-89789000D02*
X108120000Y-89855000D01*
X99695000Y-57150000D02*
X97155000Y-54610000D01*
X108966000Y-89789000D02*
X108186000Y-89789000D01*
X108120000Y-93919000D02*
X108900000Y-93919000D01*
X74684000Y-51824000D02*
X73660000Y-50800000D01*
X109601000Y-60198000D02*
X109601000Y-58711682D01*
X110490000Y-61087000D02*
X109601000Y-60198000D01*
X94260049Y-54610000D02*
X91474050Y-51824000D01*
X108900000Y-93919000D02*
X108966000Y-93853000D01*
X95320000Y-64785106D02*
X93018894Y-62484000D01*
X95320000Y-66537057D02*
X95320000Y-64785106D01*
X106745000Y-61087000D02*
X103251000Y-61087000D01*
X103251000Y-61087000D02*
X97028000Y-67310000D01*
X97028000Y-67310000D02*
X96092943Y-67310000D01*
X96092943Y-67310000D02*
X95320000Y-66537057D01*
X93018894Y-62484000D02*
X74676000Y-62484000D01*
X74676000Y-62484000D02*
X73660000Y-63500000D01*
X100076000Y-88392000D02*
X100076000Y-78232000D01*
X95320000Y-89397057D02*
X96092943Y-90170000D01*
X74576447Y-85443553D02*
X74595894Y-85463000D01*
X104894000Y-76970000D02*
X105664000Y-76200000D01*
X98298000Y-90170000D02*
X100076000Y-88392000D01*
X74595894Y-85463000D02*
X93137894Y-85463000D01*
X100076000Y-78232000D02*
X101338000Y-76970000D01*
X105664000Y-76200000D02*
X106745000Y-76200000D01*
X95320000Y-87645106D02*
X95320000Y-89397057D01*
X93137894Y-85463000D02*
X95320000Y-87645106D01*
X101338000Y-76970000D02*
X104894000Y-76970000D01*
X96092943Y-90170000D02*
X98298000Y-90170000D01*
X73660000Y-86360000D02*
X74576447Y-85443553D01*
X93091000Y-79629000D02*
X96012000Y-82550000D01*
X73660000Y-78740000D02*
X74549000Y-79629000D01*
X98552000Y-77470000D02*
X104394000Y-71628000D01*
X98552000Y-81026000D02*
X98552000Y-77470000D01*
X109982000Y-77470000D02*
X110490000Y-77470000D01*
X108331000Y-75819000D02*
X109982000Y-77470000D01*
X96012000Y-82550000D02*
X97028000Y-82550000D01*
X107665107Y-71628000D02*
X108331000Y-72293893D01*
X74549000Y-79629000D02*
X93091000Y-79629000D01*
X111695000Y-77470000D02*
X110490000Y-77470000D01*
X107315000Y-86741000D02*
X108120000Y-86741000D01*
X108331000Y-72293893D02*
X108331000Y-75819000D01*
X97028000Y-82550000D02*
X98552000Y-81026000D01*
X104394000Y-71628000D02*
X107665107Y-71628000D01*
X105029000Y-74168000D02*
X105537000Y-73660000D01*
X103378000Y-74168000D02*
X105029000Y-74168000D01*
X107315000Y-94869000D02*
X108120000Y-94869000D01*
X99568000Y-77978000D02*
X103378000Y-74168000D01*
X98171000Y-87630000D02*
X99568000Y-86233000D01*
X74803000Y-84963000D02*
X93345000Y-84963000D01*
X99568000Y-86233000D02*
X99568000Y-77978000D01*
X93345000Y-84963000D02*
X96012000Y-87630000D01*
X73660000Y-83820000D02*
X74803000Y-84963000D01*
X96012000Y-87630000D02*
X98171000Y-87630000D01*
X106745000Y-73660000D02*
X105537000Y-73660000D01*
X121920000Y-88900000D02*
X119151500Y-88900000D01*
X117576500Y-88900000D02*
X114935000Y-88900000D01*
X112080000Y-91755000D02*
X110320000Y-91755000D01*
X114935000Y-88900000D02*
X112080000Y-91755000D01*
X121920000Y-91440000D02*
X119151500Y-91440000D01*
X111699000Y-95819000D02*
X116078000Y-91440000D01*
X116078000Y-91440000D02*
X117576500Y-91440000D01*
X110320000Y-95819000D02*
X111699000Y-95819000D01*
%TA.AperFunction,Conductor*%
G36*
X73200507Y-98850156D02*
G01*
X73160000Y-98988111D01*
X73160000Y-99131889D01*
X73200507Y-99269844D01*
X73226314Y-99310000D01*
X71553686Y-99310000D01*
X71579493Y-99269844D01*
X71620000Y-99131889D01*
X71620000Y-98988111D01*
X71579493Y-98850156D01*
X71553686Y-98810000D01*
X73226314Y-98810000D01*
X73200507Y-98850156D01*
G37*
%TD.AperFunction*%
%TA.AperFunction,Conductor*%
G36*
X90176620Y-48304407D02*
G01*
X90188433Y-48314496D01*
X93944458Y-52070521D01*
X93950443Y-52079479D01*
X93960482Y-52089517D01*
X93965555Y-52091618D01*
X93980000Y-52097601D01*
X93994205Y-52097601D01*
X94004766Y-52095500D01*
X96156385Y-52095500D01*
X96214576Y-52114407D01*
X96250540Y-52163907D01*
X96250540Y-52225093D01*
X96214576Y-52274593D01*
X96192151Y-52286812D01*
X96027363Y-52350652D01*
X95853959Y-52458018D01*
X95853959Y-52458019D01*
X95703237Y-52595420D01*
X95580328Y-52758177D01*
X95580323Y-52758186D01*
X95521408Y-52876505D01*
X95489418Y-52940750D01*
X95433603Y-53136917D01*
X95414785Y-53340000D01*
X95433603Y-53543083D01*
X95489418Y-53739250D01*
X95580327Y-53921821D01*
X95677759Y-54050842D01*
X95697737Y-54108670D01*
X95679908Y-54167201D01*
X95631082Y-54204073D01*
X95598754Y-54209500D01*
X94466949Y-54209500D01*
X94408758Y-54190593D01*
X94396945Y-54180504D01*
X93759523Y-53543082D01*
X91734959Y-51518516D01*
X91734955Y-51518513D01*
X91732474Y-51516032D01*
X91732474Y-51516031D01*
X91712393Y-51495951D01*
X91712392Y-51495950D01*
X91690897Y-51484997D01*
X91677658Y-51476884D01*
X91671631Y-51472505D01*
X91658140Y-51462704D01*
X91658138Y-51462703D01*
X91635192Y-51455247D01*
X91620838Y-51449301D01*
X91599356Y-51438354D01*
X91575524Y-51434579D01*
X91560424Y-51430953D01*
X91537487Y-51423500D01*
X91537483Y-51423500D01*
X91505569Y-51423500D01*
X74890901Y-51423500D01*
X74832710Y-51404593D01*
X74820897Y-51394504D01*
X74717336Y-51290943D01*
X74689559Y-51236426D01*
X74692118Y-51193848D01*
X74746397Y-51003083D01*
X74765215Y-50800000D01*
X74746397Y-50596917D01*
X74690582Y-50400750D01*
X74599673Y-50218179D01*
X74476764Y-50055421D01*
X74326041Y-49918019D01*
X74152637Y-49810652D01*
X73962456Y-49736976D01*
X73962455Y-49736975D01*
X73962453Y-49736975D01*
X73761976Y-49699500D01*
X73558024Y-49699500D01*
X73357546Y-49736975D01*
X73287632Y-49764059D01*
X73167363Y-49810652D01*
X73100164Y-49852260D01*
X72993959Y-49918019D01*
X72843237Y-50055420D01*
X72720328Y-50218177D01*
X72720323Y-50218186D01*
X72629419Y-50400747D01*
X72629418Y-50400750D01*
X72573603Y-50596917D01*
X72554785Y-50800000D01*
X72573603Y-51003083D01*
X72629418Y-51199250D01*
X72720327Y-51381821D01*
X72843236Y-51544579D01*
X72993959Y-51681981D01*
X73167363Y-51789348D01*
X73357544Y-51863024D01*
X73558024Y-51900500D01*
X73761976Y-51900500D01*
X73962456Y-51863024D01*
X74042260Y-51832107D01*
X74103350Y-51828717D01*
X74148025Y-51854418D01*
X74293602Y-51999994D01*
X74321380Y-52054511D01*
X74311809Y-52114943D01*
X74293603Y-52140002D01*
X74148025Y-52285580D01*
X74093508Y-52313357D01*
X74042259Y-52307891D01*
X73962460Y-52276977D01*
X73962447Y-52276974D01*
X73761976Y-52239500D01*
X73558024Y-52239500D01*
X73357546Y-52276975D01*
X73357541Y-52276977D01*
X73167363Y-52350652D01*
X72993958Y-52458018D01*
X72993959Y-52458019D01*
X72843237Y-52595420D01*
X72720328Y-52758177D01*
X72720323Y-52758186D01*
X72661408Y-52876505D01*
X72629418Y-52940750D01*
X72573603Y-53136917D01*
X72554785Y-53340000D01*
X72573603Y-53543083D01*
X72629418Y-53739250D01*
X72720327Y-53921821D01*
X72843236Y-54084579D01*
X72993959Y-54221981D01*
X73167363Y-54329348D01*
X73357544Y-54403024D01*
X73558024Y-54440500D01*
X73761976Y-54440500D01*
X73962456Y-54403024D01*
X74152637Y-54329348D01*
X74326041Y-54221981D01*
X74476764Y-54084579D01*
X74599673Y-53921821D01*
X74690582Y-53739250D01*
X74746397Y-53543083D01*
X74765215Y-53340000D01*
X74746397Y-53136917D01*
X74692118Y-52946148D01*
X74694379Y-52885008D01*
X74717333Y-52849058D01*
X74812896Y-52753496D01*
X74867414Y-52725719D01*
X74882900Y-52724500D01*
X91060042Y-52724500D01*
X91118233Y-52743407D01*
X91130045Y-52753496D01*
X95812351Y-57435801D01*
X95840127Y-57490316D01*
X95830556Y-57550748D01*
X95809043Y-57578964D01*
X95703237Y-57675420D01*
X95580328Y-57838177D01*
X95580323Y-57838186D01*
X95489419Y-58020747D01*
X95489418Y-58020750D01*
X95480953Y-58050500D01*
X95433603Y-58216917D01*
X95430606Y-58249264D01*
X95406409Y-58305461D01*
X95353802Y-58336704D01*
X95292877Y-58331058D01*
X95262024Y-58310132D01*
X94459264Y-57507372D01*
X93542409Y-56590516D01*
X93542408Y-56590515D01*
X93539924Y-56588031D01*
X93519843Y-56567951D01*
X93519842Y-56567950D01*
X93498347Y-56556997D01*
X93485108Y-56548884D01*
X93479081Y-56544505D01*
X93465590Y-56534704D01*
X93465588Y-56534703D01*
X93442642Y-56527247D01*
X93428288Y-56521301D01*
X93406806Y-56510354D01*
X93382974Y-56506579D01*
X93367874Y-56502953D01*
X93344937Y-56495500D01*
X93344933Y-56495500D01*
X93313019Y-56495500D01*
X74882901Y-56495500D01*
X74824710Y-56476593D01*
X74812897Y-56466504D01*
X74717336Y-56370943D01*
X74689559Y-56316426D01*
X74692118Y-56273848D01*
X74746397Y-56083083D01*
X74765215Y-55880000D01*
X74746397Y-55676917D01*
X74690582Y-55480750D01*
X74599673Y-55298179D01*
X74476764Y-55135421D01*
X74326041Y-54998019D01*
X74152637Y-54890652D01*
X73962456Y-54816976D01*
X73962455Y-54816975D01*
X73962453Y-54816975D01*
X73761976Y-54779500D01*
X73558024Y-54779500D01*
X73357546Y-54816975D01*
X73319658Y-54831653D01*
X73167363Y-54890652D01*
X72993958Y-54998018D01*
X72993959Y-54998019D01*
X72843237Y-55135420D01*
X72720328Y-55298177D01*
X72720323Y-55298186D01*
X72629419Y-55480747D01*
X72573603Y-55676917D01*
X72566878Y-55749498D01*
X72554785Y-55880000D01*
X72573603Y-56083083D01*
X72629418Y-56279250D01*
X72720327Y-56461821D01*
X72843236Y-56624579D01*
X72993959Y-56761981D01*
X73167363Y-56869348D01*
X73357544Y-56943024D01*
X73558024Y-56980500D01*
X73761976Y-56980500D01*
X73962456Y-56943024D01*
X74042259Y-56912107D01*
X74103351Y-56908718D01*
X74148026Y-56934419D01*
X74293603Y-57079996D01*
X74321380Y-57134513D01*
X74311809Y-57194945D01*
X74293602Y-57220004D01*
X74148025Y-57365580D01*
X74093509Y-57393357D01*
X74042261Y-57387891D01*
X73962464Y-57356979D01*
X73962462Y-57356978D01*
X73962456Y-57356976D01*
X73962449Y-57356974D01*
X73962447Y-57356974D01*
X73761976Y-57319500D01*
X73558024Y-57319500D01*
X73357546Y-57356975D01*
X73357536Y-57356979D01*
X73167363Y-57430652D01*
X73043456Y-57507372D01*
X72993959Y-57538019D01*
X72843237Y-57675420D01*
X72720328Y-57838177D01*
X72720323Y-57838186D01*
X72629419Y-58020747D01*
X72629418Y-58020750D01*
X72573603Y-58216917D01*
X72554785Y-58420000D01*
X72573603Y-58623083D01*
X72629418Y-58819250D01*
X72720327Y-59001821D01*
X72843236Y-59164579D01*
X72993959Y-59301981D01*
X73167363Y-59409348D01*
X73357544Y-59483024D01*
X73558024Y-59520500D01*
X73761976Y-59520500D01*
X73962456Y-59483024D01*
X74152637Y-59409348D01*
X74326041Y-59301981D01*
X74476764Y-59164579D01*
X74599673Y-59001821D01*
X74690582Y-58819250D01*
X74746397Y-58623083D01*
X74765215Y-58420000D01*
X74746397Y-58216917D01*
X74692118Y-58026148D01*
X74694379Y-57965008D01*
X74717333Y-57929058D01*
X74812896Y-57833496D01*
X74867414Y-57805719D01*
X74882900Y-57804500D01*
X92875493Y-57804500D01*
X92933684Y-57823407D01*
X92945497Y-57833496D01*
X94890504Y-59778503D01*
X94918281Y-59833020D01*
X94919500Y-59848507D01*
X94919500Y-61520494D01*
X94926953Y-61543431D01*
X94930579Y-61558531D01*
X94934354Y-61582363D01*
X94945301Y-61603845D01*
X94951247Y-61618199D01*
X94958703Y-61641145D01*
X94958702Y-61641145D01*
X94972884Y-61660665D01*
X94980997Y-61673904D01*
X94991950Y-61695399D01*
X94991951Y-61695400D01*
X95012031Y-61715481D01*
X95764892Y-62468342D01*
X95812350Y-62515799D01*
X95840128Y-62570315D01*
X95830557Y-62630747D01*
X95809043Y-62658965D01*
X95709598Y-62749621D01*
X95703236Y-62755421D01*
X95699777Y-62760002D01*
X95580328Y-62918177D01*
X95580323Y-62918186D01*
X95489419Y-63100747D01*
X95489418Y-63100750D01*
X95461889Y-63197504D01*
X95433603Y-63296917D01*
X95425221Y-63387377D01*
X95401025Y-63443575D01*
X95348417Y-63474818D01*
X95287493Y-63469172D01*
X95256639Y-63448246D01*
X94378708Y-62570315D01*
X93486909Y-61678516D01*
X93486905Y-61678513D01*
X93484424Y-61676032D01*
X93484424Y-61676031D01*
X93464343Y-61655951D01*
X93464342Y-61655950D01*
X93442847Y-61644997D01*
X93429608Y-61636884D01*
X93423581Y-61632505D01*
X93410090Y-61622704D01*
X93410088Y-61622703D01*
X93387142Y-61615247D01*
X93372788Y-61609301D01*
X93351306Y-61598354D01*
X93327474Y-61594579D01*
X93312374Y-61590953D01*
X93289437Y-61583500D01*
X93289433Y-61583500D01*
X93257519Y-61583500D01*
X74890901Y-61583500D01*
X74832710Y-61564593D01*
X74820897Y-61554504D01*
X74717336Y-61450943D01*
X74689559Y-61396426D01*
X74692118Y-61353848D01*
X74746397Y-61163083D01*
X74765215Y-60960000D01*
X74746397Y-60756917D01*
X74690582Y-60560750D01*
X74599673Y-60378179D01*
X74476764Y-60215421D01*
X74326041Y-60078019D01*
X74152637Y-59970652D01*
X73962456Y-59896976D01*
X73962455Y-59896975D01*
X73962453Y-59896975D01*
X73761976Y-59859500D01*
X73558024Y-59859500D01*
X73357546Y-59896975D01*
X73287632Y-59924059D01*
X73167363Y-59970652D01*
X73054716Y-60040400D01*
X72993959Y-60078019D01*
X72843237Y-60215420D01*
X72720328Y-60378177D01*
X72720323Y-60378186D01*
X72629419Y-60560747D01*
X72629418Y-60560750D01*
X72573603Y-60756917D01*
X72554785Y-60960000D01*
X72573603Y-61163083D01*
X72627880Y-61353846D01*
X72629419Y-61359252D01*
X72693885Y-61488719D01*
X72720327Y-61541821D01*
X72843236Y-61704579D01*
X72993959Y-61841981D01*
X73167363Y-61949348D01*
X73357544Y-62023024D01*
X73558024Y-62060500D01*
X73761976Y-62060500D01*
X73962456Y-62023024D01*
X74042259Y-61992107D01*
X74103351Y-61988718D01*
X74148026Y-62014419D01*
X74293603Y-62159996D01*
X74321380Y-62214513D01*
X74311809Y-62274945D01*
X74293602Y-62300004D01*
X74148025Y-62445580D01*
X74093509Y-62473357D01*
X74042261Y-62467891D01*
X73962464Y-62436979D01*
X73962462Y-62436978D01*
X73962456Y-62436976D01*
X73962449Y-62436974D01*
X73962447Y-62436974D01*
X73761976Y-62399500D01*
X73558024Y-62399500D01*
X73357546Y-62436975D01*
X73357536Y-62436979D01*
X73167363Y-62510652D01*
X72993959Y-62618019D01*
X72843236Y-62755421D01*
X72839777Y-62760002D01*
X72720328Y-62918177D01*
X72720323Y-62918186D01*
X72629419Y-63100747D01*
X72629418Y-63100750D01*
X72601889Y-63197504D01*
X72573603Y-63296917D01*
X72557642Y-63469172D01*
X72554785Y-63500000D01*
X72573603Y-63703083D01*
X72603603Y-63808522D01*
X72629419Y-63899252D01*
X72693885Y-64028719D01*
X72720327Y-64081821D01*
X72843236Y-64244579D01*
X72993959Y-64381981D01*
X73167363Y-64489348D01*
X73357544Y-64563024D01*
X73558024Y-64600500D01*
X73761976Y-64600500D01*
X73962456Y-64563024D01*
X74152637Y-64489348D01*
X74326041Y-64381981D01*
X74476764Y-64244579D01*
X74599673Y-64081821D01*
X74690582Y-63899250D01*
X74746397Y-63703083D01*
X74765215Y-63500000D01*
X74746397Y-63296917D01*
X74692118Y-63106148D01*
X74694379Y-63045008D01*
X74717333Y-63009058D01*
X74812896Y-62913496D01*
X74867414Y-62885719D01*
X74882900Y-62884500D01*
X92811993Y-62884500D01*
X92870184Y-62903407D01*
X92881997Y-62913496D01*
X94890504Y-64922002D01*
X94918281Y-64976519D01*
X94919500Y-64992006D01*
X94919500Y-66600494D01*
X94926953Y-66623431D01*
X94930579Y-66638531D01*
X94934354Y-66662363D01*
X94945301Y-66683845D01*
X94951247Y-66698199D01*
X94958703Y-66721145D01*
X94958702Y-66721145D01*
X94972884Y-66740665D01*
X94980997Y-66753904D01*
X94991950Y-66775399D01*
X94991951Y-66775400D01*
X95012031Y-66795481D01*
X95764892Y-67548342D01*
X95812350Y-67595799D01*
X95840128Y-67650315D01*
X95830557Y-67710747D01*
X95809043Y-67738965D01*
X95703237Y-67835420D01*
X95580328Y-67998177D01*
X95580323Y-67998186D01*
X95489419Y-68180747D01*
X95489418Y-68180750D01*
X95433603Y-68376917D01*
X95426183Y-68457000D01*
X95425221Y-68467377D01*
X95401025Y-68523575D01*
X95348417Y-68554818D01*
X95287493Y-68549172D01*
X95256639Y-68528246D01*
X94378708Y-67650315D01*
X93478909Y-66750516D01*
X93478905Y-66750513D01*
X93476424Y-66748032D01*
X93476424Y-66748031D01*
X93456343Y-66727951D01*
X93456342Y-66727950D01*
X93434847Y-66716997D01*
X93421608Y-66708884D01*
X93415184Y-66704217D01*
X93402090Y-66694704D01*
X93402088Y-66694703D01*
X93379142Y-66687247D01*
X93364788Y-66681301D01*
X93343306Y-66670354D01*
X93319474Y-66666579D01*
X93304374Y-66662953D01*
X93281437Y-66655500D01*
X93281433Y-66655500D01*
X93249519Y-66655500D01*
X74882901Y-66655500D01*
X74824710Y-66636593D01*
X74812897Y-66626504D01*
X74717336Y-66530943D01*
X74689559Y-66476426D01*
X74692118Y-66433848D01*
X74746397Y-66243083D01*
X74765215Y-66040000D01*
X74746397Y-65836917D01*
X74690582Y-65640750D01*
X74599673Y-65458179D01*
X74476764Y-65295421D01*
X74326041Y-65158019D01*
X74152637Y-65050652D01*
X73962456Y-64976976D01*
X73962455Y-64976975D01*
X73962453Y-64976975D01*
X73761976Y-64939500D01*
X73558024Y-64939500D01*
X73357546Y-64976975D01*
X73318747Y-64992006D01*
X73167363Y-65050652D01*
X72993959Y-65158019D01*
X72843236Y-65295421D01*
X72824290Y-65320510D01*
X72720328Y-65458177D01*
X72720323Y-65458186D01*
X72633835Y-65631879D01*
X72629418Y-65640750D01*
X72573603Y-65836917D01*
X72554785Y-66040000D01*
X72573603Y-66243083D01*
X72629418Y-66439250D01*
X72720327Y-66621821D01*
X72843236Y-66784579D01*
X72993959Y-66921981D01*
X73167363Y-67029348D01*
X73357544Y-67103024D01*
X73558024Y-67140500D01*
X73761976Y-67140500D01*
X73962456Y-67103024D01*
X74042260Y-67072107D01*
X74103350Y-67068717D01*
X74148025Y-67094418D01*
X74293602Y-67239994D01*
X74321380Y-67294511D01*
X74311809Y-67354943D01*
X74293603Y-67380002D01*
X74148025Y-67525580D01*
X74093508Y-67553357D01*
X74042259Y-67547891D01*
X73962460Y-67516977D01*
X73962447Y-67516974D01*
X73761976Y-67479500D01*
X73558024Y-67479500D01*
X73357546Y-67516975D01*
X73357541Y-67516977D01*
X73167363Y-67590652D01*
X73049582Y-67663579D01*
X72993959Y-67698019D01*
X72843237Y-67835420D01*
X72720328Y-67998177D01*
X72720323Y-67998186D01*
X72629419Y-68180747D01*
X72629418Y-68180750D01*
X72609019Y-68252445D01*
X72573603Y-68376917D01*
X72557642Y-68549172D01*
X72554785Y-68580000D01*
X72573603Y-68783083D01*
X72623087Y-68957000D01*
X72629419Y-68979252D01*
X72693885Y-69108719D01*
X72720327Y-69161821D01*
X72843236Y-69324579D01*
X72993959Y-69461981D01*
X73167363Y-69569348D01*
X73357544Y-69643024D01*
X73558024Y-69680500D01*
X73761976Y-69680500D01*
X73962456Y-69643024D01*
X74152637Y-69569348D01*
X74326041Y-69461981D01*
X74476764Y-69324579D01*
X74599673Y-69161821D01*
X74690582Y-68979250D01*
X74746397Y-68783083D01*
X74765215Y-68580000D01*
X74746397Y-68376917D01*
X74692118Y-68186148D01*
X74694379Y-68125008D01*
X74717333Y-68089058D01*
X74820896Y-67985496D01*
X74875414Y-67957719D01*
X74890900Y-67956500D01*
X92803993Y-67956500D01*
X92862184Y-67975407D01*
X92873997Y-67985496D01*
X94890504Y-70002003D01*
X94918281Y-70056520D01*
X94919500Y-70072007D01*
X94919500Y-71680494D01*
X94926953Y-71703431D01*
X94930579Y-71718531D01*
X94934354Y-71742363D01*
X94945301Y-71763845D01*
X94951247Y-71778199D01*
X94958703Y-71801145D01*
X94958702Y-71801145D01*
X94972884Y-71820665D01*
X94980997Y-71833904D01*
X94991950Y-71855399D01*
X94991951Y-71855400D01*
X95012031Y-71875481D01*
X95764892Y-72628342D01*
X95812350Y-72675799D01*
X95840128Y-72730315D01*
X95830557Y-72790747D01*
X95809043Y-72818965D01*
X95712612Y-72906874D01*
X95703236Y-72915421D01*
X95684290Y-72940510D01*
X95580328Y-73078177D01*
X95580323Y-73078186D01*
X95517174Y-73205008D01*
X95489418Y-73260750D01*
X95433603Y-73456917D01*
X95426054Y-73538392D01*
X95425221Y-73547377D01*
X95401025Y-73603575D01*
X95348417Y-73634818D01*
X95287493Y-73629172D01*
X95256639Y-73608246D01*
X94377391Y-72728998D01*
X93478909Y-71830516D01*
X93478905Y-71830513D01*
X93476424Y-71828032D01*
X93476424Y-71828031D01*
X93456343Y-71807951D01*
X93456342Y-71807950D01*
X93434847Y-71796997D01*
X93421608Y-71788884D01*
X93415581Y-71784505D01*
X93402090Y-71774704D01*
X93402088Y-71774703D01*
X93379142Y-71767247D01*
X93364788Y-71761301D01*
X93343306Y-71750354D01*
X93319474Y-71746579D01*
X93304374Y-71742953D01*
X93281437Y-71735500D01*
X93281433Y-71735500D01*
X93249519Y-71735500D01*
X74882901Y-71735500D01*
X74824710Y-71716593D01*
X74812897Y-71706504D01*
X74717336Y-71610943D01*
X74689559Y-71556426D01*
X74692118Y-71513848D01*
X74746397Y-71323083D01*
X74765215Y-71120000D01*
X74746397Y-70916917D01*
X74690582Y-70720750D01*
X74599673Y-70538179D01*
X74476764Y-70375421D01*
X74326041Y-70238019D01*
X74152637Y-70130652D01*
X73962456Y-70056976D01*
X73962455Y-70056975D01*
X73962453Y-70056975D01*
X73761976Y-70019500D01*
X73558024Y-70019500D01*
X73357546Y-70056975D01*
X73319658Y-70071653D01*
X73167363Y-70130652D01*
X72993959Y-70238019D01*
X72843236Y-70375421D01*
X72824290Y-70400510D01*
X72720328Y-70538177D01*
X72720323Y-70538186D01*
X72654937Y-70669500D01*
X72629418Y-70720750D01*
X72573603Y-70916917D01*
X72554785Y-71120000D01*
X72573603Y-71323083D01*
X72629418Y-71519250D01*
X72720327Y-71701821D01*
X72843236Y-71864579D01*
X72993959Y-72001981D01*
X73167363Y-72109348D01*
X73357544Y-72183024D01*
X73558024Y-72220500D01*
X73761976Y-72220500D01*
X73962456Y-72183024D01*
X74042259Y-72152107D01*
X74103351Y-72148718D01*
X74148026Y-72174419D01*
X74293603Y-72319996D01*
X74321380Y-72374513D01*
X74311809Y-72434945D01*
X74293602Y-72460004D01*
X74148025Y-72605580D01*
X74093509Y-72633357D01*
X74042261Y-72627891D01*
X73962464Y-72596979D01*
X73962462Y-72596978D01*
X73962456Y-72596976D01*
X73962449Y-72596974D01*
X73962447Y-72596974D01*
X73761976Y-72559500D01*
X73558024Y-72559500D01*
X73357546Y-72596975D01*
X73357536Y-72596979D01*
X73167363Y-72670652D01*
X73021192Y-72761157D01*
X72993959Y-72778019D01*
X72854116Y-72905503D01*
X72843236Y-72915421D01*
X72824290Y-72940510D01*
X72720328Y-73078177D01*
X72720323Y-73078186D01*
X72657174Y-73205008D01*
X72629418Y-73260750D01*
X72573603Y-73456917D01*
X72554785Y-73660000D01*
X72573603Y-73863083D01*
X72627758Y-74053417D01*
X72629419Y-74059252D01*
X72668654Y-74138048D01*
X72720327Y-74241821D01*
X72843236Y-74404579D01*
X72993959Y-74541981D01*
X73167363Y-74649348D01*
X73357544Y-74723024D01*
X73558024Y-74760500D01*
X73761976Y-74760500D01*
X73962456Y-74723024D01*
X74152637Y-74649348D01*
X74326041Y-74541981D01*
X74476764Y-74404579D01*
X74599673Y-74241821D01*
X74690582Y-74059250D01*
X74746397Y-73863083D01*
X74765215Y-73660000D01*
X74746397Y-73456917D01*
X74692118Y-73266148D01*
X74694379Y-73205008D01*
X74717333Y-73169058D01*
X74820896Y-73065496D01*
X74875414Y-73037719D01*
X74890900Y-73036500D01*
X92803993Y-73036500D01*
X92862184Y-73055407D01*
X92873997Y-73065496D01*
X94890504Y-75082003D01*
X94918281Y-75136520D01*
X94919500Y-75152007D01*
X94919500Y-76760494D01*
X94926953Y-76783431D01*
X94930579Y-76798531D01*
X94934354Y-76822363D01*
X94945301Y-76843845D01*
X94951247Y-76858199D01*
X94958703Y-76881145D01*
X94958702Y-76881145D01*
X94972884Y-76900665D01*
X94980997Y-76913904D01*
X94991950Y-76935399D01*
X94991951Y-76935400D01*
X95012031Y-76955481D01*
X95764892Y-77708342D01*
X95812350Y-77755799D01*
X95840128Y-77810315D01*
X95830557Y-77870747D01*
X95809043Y-77898965D01*
X95705532Y-77993328D01*
X95703236Y-77995421D01*
X95684290Y-78020510D01*
X95580328Y-78158177D01*
X95580323Y-78158186D01*
X95490040Y-78339500D01*
X95489418Y-78340750D01*
X95469160Y-78411950D01*
X95433603Y-78536917D01*
X95421288Y-78669819D01*
X95397092Y-78726017D01*
X95344484Y-78757260D01*
X95292116Y-78754838D01*
X95284142Y-78752247D01*
X95269788Y-78746301D01*
X95248306Y-78735354D01*
X95224474Y-78731579D01*
X95209374Y-78727953D01*
X95186437Y-78720500D01*
X95186433Y-78720500D01*
X95154519Y-78720500D01*
X76787901Y-78720500D01*
X76729710Y-78701593D01*
X76717897Y-78691504D01*
X74717336Y-76690943D01*
X74689559Y-76636426D01*
X74692118Y-76593848D01*
X74746397Y-76403083D01*
X74765215Y-76200000D01*
X74746397Y-75996917D01*
X74690582Y-75800750D01*
X74599673Y-75618179D01*
X74476764Y-75455421D01*
X74326041Y-75318019D01*
X74152637Y-75210652D01*
X73962456Y-75136976D01*
X73962455Y-75136975D01*
X73962453Y-75136975D01*
X73761976Y-75099500D01*
X73558024Y-75099500D01*
X73357546Y-75136975D01*
X73318744Y-75152007D01*
X73167363Y-75210652D01*
X72993959Y-75318019D01*
X72843236Y-75455421D01*
X72827099Y-75476790D01*
X72720328Y-75618177D01*
X72720323Y-75618186D01*
X72629419Y-75800747D01*
X72629418Y-75800750D01*
X72609160Y-75871950D01*
X72573603Y-75996917D01*
X72557589Y-76169744D01*
X72554785Y-76200000D01*
X72573603Y-76403083D01*
X72629418Y-76599250D01*
X72720327Y-76781821D01*
X72843236Y-76944579D01*
X72993959Y-77081981D01*
X73167363Y-77189348D01*
X73357544Y-77263024D01*
X73558024Y-77300500D01*
X73761976Y-77300500D01*
X73962456Y-77263024D01*
X74042259Y-77232107D01*
X74103351Y-77228718D01*
X74148026Y-77254419D01*
X75953103Y-79059496D01*
X75980880Y-79114013D01*
X75971309Y-79174445D01*
X75928044Y-79217710D01*
X75883099Y-79228500D01*
X74796285Y-79228500D01*
X74738094Y-79209593D01*
X74702130Y-79160093D01*
X74701064Y-79102409D01*
X74746397Y-78943083D01*
X74765215Y-78740000D01*
X74746397Y-78536917D01*
X74690582Y-78340750D01*
X74599673Y-78158179D01*
X74476764Y-77995421D01*
X74326041Y-77858019D01*
X74152637Y-77750652D01*
X73962456Y-77676976D01*
X73962455Y-77676975D01*
X73962453Y-77676975D01*
X73761976Y-77639500D01*
X73558024Y-77639500D01*
X73357546Y-77676975D01*
X73287632Y-77704059D01*
X73167363Y-77750652D01*
X73037118Y-77831296D01*
X72993959Y-77858019D01*
X72859423Y-77980665D01*
X72843236Y-77995421D01*
X72824290Y-78020510D01*
X72720328Y-78158177D01*
X72720323Y-78158186D01*
X72630040Y-78339500D01*
X72629418Y-78340750D01*
X72573603Y-78536917D01*
X72554785Y-78740000D01*
X72573603Y-78943083D01*
X72626314Y-79128342D01*
X72629419Y-79139252D01*
X72668654Y-79218048D01*
X72720327Y-79321821D01*
X72843236Y-79484579D01*
X72993959Y-79621981D01*
X73167363Y-79729348D01*
X73357544Y-79803024D01*
X73558024Y-79840500D01*
X73761976Y-79840500D01*
X73962456Y-79803024D01*
X74042259Y-79772107D01*
X74103351Y-79768718D01*
X74148026Y-79794419D01*
X74288087Y-79934480D01*
X74293596Y-79939988D01*
X74321379Y-79994502D01*
X74311813Y-80054935D01*
X74293603Y-80080002D01*
X74148025Y-80225580D01*
X74093508Y-80253357D01*
X74042259Y-80247891D01*
X73962460Y-80216977D01*
X73962447Y-80216974D01*
X73761976Y-80179500D01*
X73558024Y-80179500D01*
X73357546Y-80216975D01*
X73357541Y-80216977D01*
X73167363Y-80290652D01*
X72993959Y-80398019D01*
X72843236Y-80535421D01*
X72824290Y-80560510D01*
X72720328Y-80698177D01*
X72720323Y-80698186D01*
X72631141Y-80877289D01*
X72629418Y-80880750D01*
X72573603Y-81076917D01*
X72554785Y-81280000D01*
X72573603Y-81483083D01*
X72629418Y-81679250D01*
X72720327Y-81861821D01*
X72843236Y-82024579D01*
X72993959Y-82161981D01*
X73167363Y-82269348D01*
X73357544Y-82343024D01*
X73558024Y-82380500D01*
X73761976Y-82380500D01*
X73962456Y-82343024D01*
X74152637Y-82269348D01*
X74326041Y-82161981D01*
X74476764Y-82024579D01*
X74599673Y-81861821D01*
X74690582Y-81679250D01*
X74746397Y-81483083D01*
X74765215Y-81280000D01*
X74746397Y-81076917D01*
X74692118Y-80886148D01*
X74694379Y-80825008D01*
X74717333Y-80789058D01*
X74947896Y-80558496D01*
X75002413Y-80530719D01*
X75017900Y-80529500D01*
X92676993Y-80529500D01*
X92735184Y-80548407D01*
X92746997Y-80558496D01*
X94890504Y-82702002D01*
X94918281Y-82756519D01*
X94919500Y-82772006D01*
X94919500Y-84380494D01*
X94926953Y-84403431D01*
X94930579Y-84418531D01*
X94934354Y-84442363D01*
X94945301Y-84463845D01*
X94951247Y-84478199D01*
X94958703Y-84501145D01*
X94958702Y-84501145D01*
X94972884Y-84520665D01*
X94980997Y-84533904D01*
X94991950Y-84555399D01*
X94991951Y-84555400D01*
X95012031Y-84575481D01*
X95764892Y-85328342D01*
X95854600Y-85418049D01*
X95854601Y-85418050D01*
X95876092Y-85429000D01*
X95889338Y-85437117D01*
X95908853Y-85451296D01*
X95908855Y-85451296D01*
X95908856Y-85451297D01*
X95931795Y-85458750D01*
X95946138Y-85464690D01*
X95967639Y-85475646D01*
X95967644Y-85475646D01*
X95975051Y-85478054D01*
X95974065Y-85481086D01*
X96015981Y-85502429D01*
X96016001Y-85502448D01*
X96387466Y-85873913D01*
X96377685Y-85875320D01*
X96246900Y-85935048D01*
X96138239Y-86029202D01*
X96060507Y-86150156D01*
X96036922Y-86230476D01*
X95405072Y-85598626D01*
X95346406Y-85682411D01*
X95346394Y-85682430D01*
X95246570Y-85896505D01*
X95206067Y-86047663D01*
X95172742Y-86098978D01*
X95115621Y-86120904D01*
X95056520Y-86105068D01*
X95040441Y-86092048D01*
X93605909Y-84657516D01*
X93605908Y-84657515D01*
X93603424Y-84655031D01*
X93583343Y-84634951D01*
X93583342Y-84634950D01*
X93561847Y-84623997D01*
X93548608Y-84615884D01*
X93542581Y-84611505D01*
X93529090Y-84601704D01*
X93529088Y-84601703D01*
X93506142Y-84594247D01*
X93491788Y-84588301D01*
X93470306Y-84577354D01*
X93446474Y-84573579D01*
X93431374Y-84569953D01*
X93408437Y-84562500D01*
X93408433Y-84562500D01*
X93376519Y-84562500D01*
X75009899Y-84562500D01*
X74951708Y-84543593D01*
X74939895Y-84533503D01*
X74717335Y-84310942D01*
X74689558Y-84256426D01*
X74692117Y-84213853D01*
X74746397Y-84023083D01*
X74765215Y-83820000D01*
X74746397Y-83616917D01*
X74690582Y-83420750D01*
X74599673Y-83238179D01*
X74476764Y-83075421D01*
X74326041Y-82938019D01*
X74152637Y-82830652D01*
X73962456Y-82756976D01*
X73962455Y-82756975D01*
X73962453Y-82756975D01*
X73761976Y-82719500D01*
X73558024Y-82719500D01*
X73357546Y-82756975D01*
X73306212Y-82776862D01*
X73167363Y-82830652D01*
X72993959Y-82938019D01*
X72843236Y-83075421D01*
X72824290Y-83100510D01*
X72720328Y-83238177D01*
X72720323Y-83238186D01*
X72654937Y-83369500D01*
X72629418Y-83420750D01*
X72573603Y-83616917D01*
X72554785Y-83820000D01*
X72573603Y-84023083D01*
X72629418Y-84219250D01*
X72720327Y-84401821D01*
X72843236Y-84564579D01*
X72993959Y-84701981D01*
X73167363Y-84809348D01*
X73357544Y-84883024D01*
X73558024Y-84920500D01*
X73761976Y-84920500D01*
X73962456Y-84883024D01*
X74042258Y-84852107D01*
X74103350Y-84848717D01*
X74148026Y-84874418D01*
X74290074Y-85016466D01*
X74317851Y-85070983D01*
X74308280Y-85131415D01*
X74290080Y-85156468D01*
X74289721Y-85156826D01*
X74275545Y-85176337D01*
X74265459Y-85188146D01*
X74148025Y-85305580D01*
X74093508Y-85333357D01*
X74042259Y-85327891D01*
X73962460Y-85296977D01*
X73962447Y-85296974D01*
X73761976Y-85259500D01*
X73558024Y-85259500D01*
X73357546Y-85296975D01*
X73357541Y-85296977D01*
X73167363Y-85370652D01*
X72993959Y-85478019D01*
X72843236Y-85615421D01*
X72824290Y-85640510D01*
X72720328Y-85778177D01*
X72720323Y-85778186D01*
X72629419Y-85960747D01*
X72629418Y-85960750D01*
X72573603Y-86156917D01*
X72554785Y-86360000D01*
X72573603Y-86563083D01*
X72629418Y-86759250D01*
X72720327Y-86941821D01*
X72843236Y-87104579D01*
X72993959Y-87241981D01*
X73167363Y-87349348D01*
X73357544Y-87423024D01*
X73558024Y-87460500D01*
X73761976Y-87460500D01*
X73962456Y-87423024D01*
X74152637Y-87349348D01*
X74326041Y-87241981D01*
X74476764Y-87104579D01*
X74599673Y-86941821D01*
X74690582Y-86759250D01*
X74746397Y-86563083D01*
X74765215Y-86360000D01*
X74746397Y-86156917D01*
X74698788Y-85989591D01*
X74701049Y-85928449D01*
X74738817Y-85880312D01*
X74794009Y-85863500D01*
X92930993Y-85863500D01*
X92989184Y-85882407D01*
X93000997Y-85892496D01*
X94890504Y-87782002D01*
X94918281Y-87836519D01*
X94919500Y-87852006D01*
X94919500Y-89460494D01*
X94926953Y-89483431D01*
X94930579Y-89498531D01*
X94934354Y-89522363D01*
X94945301Y-89543845D01*
X94951247Y-89558199D01*
X94958703Y-89581145D01*
X94958702Y-89581145D01*
X94972884Y-89600665D01*
X94980997Y-89613904D01*
X94991950Y-89635399D01*
X94991951Y-89635400D01*
X95012031Y-89655481D01*
X95764892Y-90408342D01*
X95812350Y-90455799D01*
X95840128Y-90510315D01*
X95830557Y-90570747D01*
X95809043Y-90598965D01*
X95724206Y-90676304D01*
X95703236Y-90695421D01*
X95684290Y-90720510D01*
X95580328Y-90858177D01*
X95580323Y-90858186D01*
X95489419Y-91040747D01*
X95489418Y-91040750D01*
X95433603Y-91236917D01*
X95425395Y-91325504D01*
X95425221Y-91327377D01*
X95401025Y-91383575D01*
X95348417Y-91414818D01*
X95287493Y-91409172D01*
X95256639Y-91388246D01*
X94505763Y-90637370D01*
X93732909Y-89864516D01*
X93732905Y-89864513D01*
X93730424Y-89862032D01*
X93730424Y-89862031D01*
X93710343Y-89841951D01*
X93710342Y-89841950D01*
X93688847Y-89830997D01*
X93675608Y-89822884D01*
X93669581Y-89818505D01*
X93656090Y-89808704D01*
X93656088Y-89808703D01*
X93633142Y-89801247D01*
X93618788Y-89795301D01*
X93597306Y-89784354D01*
X93573474Y-89780579D01*
X93558374Y-89776953D01*
X93535437Y-89769500D01*
X93535433Y-89769500D01*
X93503519Y-89769500D01*
X75136899Y-89769500D01*
X75078708Y-89750593D01*
X75066895Y-89740503D01*
X74717335Y-89390942D01*
X74689558Y-89336426D01*
X74692117Y-89293853D01*
X74746397Y-89103083D01*
X74765215Y-88900000D01*
X74746397Y-88696917D01*
X74690582Y-88500750D01*
X74599673Y-88318179D01*
X74476764Y-88155421D01*
X74326041Y-88018019D01*
X74152637Y-87910652D01*
X73962456Y-87836976D01*
X73962455Y-87836975D01*
X73962453Y-87836975D01*
X73761976Y-87799500D01*
X73558024Y-87799500D01*
X73357546Y-87836975D01*
X73318747Y-87852006D01*
X73167363Y-87910652D01*
X73021192Y-88001157D01*
X72993959Y-88018019D01*
X72948186Y-88059747D01*
X72843236Y-88155421D01*
X72824290Y-88180510D01*
X72720328Y-88318177D01*
X72720323Y-88318186D01*
X72629419Y-88500747D01*
X72629418Y-88500750D01*
X72573603Y-88696917D01*
X72554785Y-88900000D01*
X72573603Y-89103083D01*
X72629418Y-89299250D01*
X72720327Y-89481821D01*
X72843236Y-89644579D01*
X72993959Y-89781981D01*
X73167363Y-89889348D01*
X73357544Y-89963024D01*
X73558024Y-90000500D01*
X73761976Y-90000500D01*
X73962456Y-89963024D01*
X74042258Y-89932107D01*
X74103350Y-89928717D01*
X74148026Y-89954418D01*
X74601949Y-90408342D01*
X74691657Y-90498049D01*
X74691658Y-90498050D01*
X74713149Y-90509000D01*
X74726395Y-90517117D01*
X74745910Y-90531296D01*
X74745912Y-90531296D01*
X74745913Y-90531297D01*
X74768852Y-90538750D01*
X74783195Y-90544690D01*
X74804696Y-90555646D01*
X74828524Y-90559419D01*
X74843633Y-90563047D01*
X74852194Y-90565828D01*
X74866567Y-90570499D01*
X74896437Y-90570499D01*
X74896461Y-90570500D01*
X74898481Y-90570500D01*
X93265099Y-90570500D01*
X93323290Y-90589407D01*
X93335103Y-90599496D01*
X95683950Y-92948342D01*
X95770008Y-93034400D01*
X95797785Y-93088917D01*
X95788214Y-93149349D01*
X95766700Y-93177565D01*
X95703239Y-93235417D01*
X95580328Y-93398177D01*
X95580323Y-93398186D01*
X95489419Y-93580747D01*
X95489418Y-93580750D01*
X95433603Y-93776917D01*
X95414785Y-93980000D01*
X95433603Y-94183083D01*
X95489418Y-94379250D01*
X95580327Y-94561821D01*
X95703236Y-94724579D01*
X95853959Y-94861981D01*
X96027363Y-94969348D01*
X96217544Y-95043024D01*
X96418024Y-95080500D01*
X96621976Y-95080500D01*
X96822456Y-95043024D01*
X97012637Y-94969348D01*
X97174705Y-94869000D01*
X106759750Y-94869000D01*
X106778669Y-95012708D01*
X106778670Y-95012709D01*
X106830075Y-95136815D01*
X106834139Y-95146625D01*
X106922379Y-95261621D01*
X107037375Y-95349861D01*
X107037376Y-95349861D01*
X107037377Y-95349862D01*
X107040854Y-95351870D01*
X107081793Y-95397341D01*
X107089074Y-95443470D01*
X107090142Y-95443528D01*
X107090000Y-95446175D01*
X107090000Y-95568999D01*
X107090001Y-95569000D01*
X109149999Y-95569000D01*
X109150000Y-95568999D01*
X109150000Y-95446175D01*
X109143598Y-95386629D01*
X109143596Y-95386618D01*
X109093353Y-95251911D01*
X109093352Y-95251909D01*
X109007192Y-95136815D01*
X109007187Y-95136810D01*
X108940170Y-95086640D01*
X108904918Y-95036630D01*
X108900500Y-95007387D01*
X108900500Y-94861980D01*
X108900500Y-94519326D01*
X108900497Y-94519315D01*
X108900023Y-94514482D01*
X108902320Y-94514255D01*
X108908444Y-94462416D01*
X108949967Y-94417477D01*
X108985433Y-94405691D01*
X109109709Y-94389330D01*
X109243625Y-94333861D01*
X109358621Y-94245621D01*
X109365610Y-94236512D01*
X109416032Y-94201858D01*
X109477197Y-94203459D01*
X109525739Y-94240706D01*
X109541248Y-94277466D01*
X109554033Y-94341736D01*
X109554035Y-94341742D01*
X109609397Y-94424599D01*
X109609400Y-94424602D01*
X109665994Y-94462416D01*
X109692260Y-94479966D01*
X109747808Y-94491015D01*
X109765315Y-94494498D01*
X109765320Y-94494498D01*
X109765326Y-94494500D01*
X109765327Y-94494500D01*
X110874673Y-94494500D01*
X110874674Y-94494500D01*
X110947740Y-94479966D01*
X111030601Y-94424601D01*
X111038019Y-94413498D01*
X111086070Y-94375619D01*
X111120335Y-94369500D01*
X111167725Y-94369500D01*
X111205605Y-94377034D01*
X111235291Y-94389330D01*
X111343072Y-94403520D01*
X111378999Y-94408250D01*
X111378999Y-94408249D01*
X111379000Y-94408250D01*
X111522709Y-94389330D01*
X111656625Y-94333861D01*
X111771621Y-94245621D01*
X111859861Y-94130625D01*
X111915330Y-93996709D01*
X111934250Y-93853000D01*
X111915330Y-93709291D01*
X111859861Y-93575375D01*
X111771621Y-93460379D01*
X111656625Y-93372139D01*
X111656621Y-93372137D01*
X111522709Y-93316670D01*
X111522708Y-93316669D01*
X111379000Y-93297750D01*
X111235291Y-93316669D01*
X111235290Y-93316670D01*
X111101378Y-93372137D01*
X111101371Y-93372141D01*
X111095967Y-93376288D01*
X111038291Y-93396709D01*
X110980703Y-93380059D01*
X110975059Y-93376288D01*
X110968201Y-93371705D01*
X110947742Y-93358035D01*
X110947740Y-93358034D01*
X110947737Y-93358033D01*
X110947736Y-93358033D01*
X110874684Y-93343501D01*
X110874674Y-93343500D01*
X109765326Y-93343500D01*
X109765325Y-93343500D01*
X109765315Y-93343501D01*
X109692263Y-93358033D01*
X109692257Y-93358035D01*
X109609400Y-93413397D01*
X109609397Y-93413400D01*
X109552646Y-93498336D01*
X109504596Y-93536216D01*
X109443458Y-93538618D01*
X109392584Y-93504626D01*
X109391789Y-93503603D01*
X109358626Y-93460385D01*
X109358624Y-93460383D01*
X109358621Y-93460379D01*
X109243625Y-93372139D01*
X109243621Y-93372137D01*
X109109709Y-93316670D01*
X109109708Y-93316669D01*
X108966000Y-93297750D01*
X108822289Y-93316670D01*
X108758383Y-93343140D01*
X108701186Y-93348773D01*
X108674679Y-93343500D01*
X108674674Y-93343500D01*
X107565326Y-93343500D01*
X107565325Y-93343500D01*
X107565315Y-93343501D01*
X107492263Y-93358033D01*
X107492257Y-93358035D01*
X107409400Y-93413397D01*
X107409397Y-93413400D01*
X107354035Y-93496257D01*
X107354033Y-93496263D01*
X107339501Y-93569315D01*
X107339500Y-93569327D01*
X107339500Y-94223704D01*
X107320593Y-94281895D01*
X107271093Y-94317859D01*
X107253422Y-94321857D01*
X107171291Y-94332669D01*
X107171290Y-94332670D01*
X107037378Y-94388137D01*
X107037374Y-94388139D01*
X106922381Y-94476377D01*
X106922377Y-94476381D01*
X106834139Y-94591374D01*
X106834137Y-94591378D01*
X106778670Y-94725290D01*
X106778669Y-94725291D01*
X106759750Y-94868999D01*
X106759750Y-94869000D01*
X97174705Y-94869000D01*
X97186041Y-94861981D01*
X97336764Y-94724579D01*
X97459673Y-94561821D01*
X97550582Y-94379250D01*
X97606397Y-94183083D01*
X97625215Y-93980000D01*
X97606397Y-93776917D01*
X97550582Y-93580750D01*
X97459673Y-93398179D01*
X97362240Y-93269157D01*
X97342263Y-93211330D01*
X97360092Y-93152799D01*
X97408918Y-93115927D01*
X97441246Y-93110500D01*
X98488432Y-93110500D01*
X98488433Y-93110500D01*
X98511382Y-93103043D01*
X98526465Y-93099421D01*
X98550304Y-93095646D01*
X98571802Y-93084690D01*
X98586151Y-93078748D01*
X98609090Y-93071296D01*
X98628612Y-93057111D01*
X98641849Y-93049000D01*
X98663342Y-93038050D01*
X98680261Y-93021129D01*
X98680265Y-93021127D01*
X98685907Y-93015485D01*
X98685909Y-93015484D01*
X99573569Y-92127824D01*
X107089999Y-92127824D01*
X107096401Y-92187370D01*
X107096403Y-92187381D01*
X107146646Y-92322088D01*
X107146647Y-92322090D01*
X107232807Y-92437184D01*
X107232815Y-92437192D01*
X107347909Y-92523352D01*
X107347911Y-92523353D01*
X107482618Y-92573596D01*
X107482629Y-92573598D01*
X107542176Y-92580000D01*
X107869999Y-92580000D01*
X107870000Y-92579999D01*
X107870000Y-92005001D01*
X107869999Y-92005000D01*
X108370000Y-92005000D01*
X108370000Y-92579999D01*
X108370001Y-92580000D01*
X108697824Y-92580000D01*
X108757370Y-92573598D01*
X108757381Y-92573596D01*
X108892088Y-92523353D01*
X108892090Y-92523352D01*
X109007184Y-92437192D01*
X109007192Y-92437184D01*
X109093352Y-92322090D01*
X109093353Y-92322088D01*
X109143596Y-92187381D01*
X109143598Y-92187370D01*
X109150000Y-92127824D01*
X109150000Y-92104672D01*
X109539500Y-92104672D01*
X109539501Y-92104684D01*
X109554033Y-92177736D01*
X109554035Y-92177742D01*
X109609397Y-92260599D01*
X109609399Y-92260601D01*
X109692260Y-92315966D01*
X109747808Y-92327015D01*
X109765315Y-92330498D01*
X109765320Y-92330498D01*
X109765326Y-92330500D01*
X109765327Y-92330500D01*
X110874673Y-92330500D01*
X110874674Y-92330500D01*
X110947740Y-92315966D01*
X111030601Y-92260601D01*
X111044530Y-92239753D01*
X111071428Y-92199499D01*
X111119478Y-92161619D01*
X111153744Y-92155500D01*
X112143432Y-92155500D01*
X112143433Y-92155500D01*
X112166382Y-92148043D01*
X112181465Y-92144421D01*
X112205304Y-92140646D01*
X112226802Y-92129690D01*
X112241151Y-92123748D01*
X112264090Y-92116296D01*
X112283612Y-92102111D01*
X112296849Y-92094000D01*
X112318342Y-92083050D01*
X112335261Y-92066129D01*
X112335265Y-92066127D01*
X112340907Y-92060484D01*
X112340909Y-92060484D01*
X115071896Y-89329496D01*
X115126414Y-89301719D01*
X115141901Y-89300500D01*
X116841988Y-89300500D01*
X116900179Y-89319407D01*
X116934746Y-89364903D01*
X116941663Y-89383449D01*
X116978205Y-89432263D01*
X117022528Y-89491472D01*
X117063791Y-89522361D01*
X117130551Y-89572337D01*
X117256972Y-89619489D01*
X117256973Y-89619489D01*
X117256978Y-89619491D01*
X117312870Y-89625500D01*
X117312874Y-89625500D01*
X117840126Y-89625500D01*
X117840130Y-89625500D01*
X117896022Y-89619491D01*
X117998827Y-89581147D01*
X118022448Y-89572337D01*
X118022448Y-89572336D01*
X118022450Y-89572336D01*
X118130472Y-89491472D01*
X118211336Y-89383450D01*
X118220820Y-89358024D01*
X118258489Y-89257027D01*
X118258488Y-89257027D01*
X118258491Y-89257022D01*
X118264500Y-89201130D01*
X118264500Y-89201126D01*
X118463499Y-89201126D01*
X118469508Y-89257016D01*
X118469510Y-89257027D01*
X118516662Y-89383448D01*
X118558699Y-89439603D01*
X118597528Y-89491472D01*
X118638791Y-89522361D01*
X118705551Y-89572337D01*
X118831972Y-89619489D01*
X118831973Y-89619489D01*
X118831978Y-89619491D01*
X118887870Y-89625500D01*
X118887874Y-89625500D01*
X119415126Y-89625500D01*
X119415130Y-89625500D01*
X119471022Y-89619491D01*
X119573827Y-89581147D01*
X119597448Y-89572337D01*
X119597448Y-89572336D01*
X119597450Y-89572336D01*
X119705472Y-89491472D01*
X119786336Y-89383450D01*
X119793253Y-89364903D01*
X119831305Y-89316989D01*
X119886012Y-89300500D01*
X120828742Y-89300500D01*
X120886933Y-89319407D01*
X120917362Y-89355371D01*
X120980327Y-89481821D01*
X121103236Y-89644579D01*
X121253959Y-89781981D01*
X121427363Y-89889348D01*
X121617544Y-89963024D01*
X121818024Y-90000500D01*
X122021976Y-90000500D01*
X122222456Y-89963024D01*
X122412637Y-89889348D01*
X122586041Y-89781981D01*
X122736764Y-89644579D01*
X122859673Y-89481821D01*
X122950582Y-89299250D01*
X123006397Y-89103083D01*
X123025215Y-88900000D01*
X123006397Y-88696917D01*
X122950582Y-88500750D01*
X122859673Y-88318179D01*
X122736764Y-88155421D01*
X122586041Y-88018019D01*
X122412637Y-87910652D01*
X122222456Y-87836976D01*
X122222455Y-87836975D01*
X122222453Y-87836975D01*
X122021976Y-87799500D01*
X121818024Y-87799500D01*
X121617546Y-87836975D01*
X121578747Y-87852006D01*
X121427363Y-87910652D01*
X121281192Y-88001157D01*
X121253959Y-88018019D01*
X121208186Y-88059747D01*
X121103236Y-88155421D01*
X121084290Y-88180510D01*
X120980328Y-88318177D01*
X120980323Y-88318186D01*
X120917363Y-88444628D01*
X120874500Y-88488291D01*
X120828742Y-88499500D01*
X119886012Y-88499500D01*
X119827821Y-88480593D01*
X119793254Y-88435097D01*
X119786336Y-88416550D01*
X119712702Y-88318186D01*
X119705472Y-88308528D01*
X119649329Y-88266500D01*
X119597448Y-88227662D01*
X119471027Y-88180510D01*
X119471022Y-88180509D01*
X119471020Y-88180508D01*
X119471016Y-88180508D01*
X119445744Y-88177791D01*
X119415130Y-88174500D01*
X118887870Y-88174500D01*
X118860943Y-88177394D01*
X118831983Y-88180508D01*
X118831972Y-88180510D01*
X118705551Y-88227662D01*
X118597531Y-88308525D01*
X118597525Y-88308531D01*
X118516662Y-88416551D01*
X118469510Y-88542972D01*
X118469508Y-88542978D01*
X118469509Y-88542978D01*
X118463969Y-88594513D01*
X118463500Y-88598873D01*
X118463500Y-89201126D01*
X118463499Y-89201126D01*
X118264500Y-89201126D01*
X118264500Y-88598870D01*
X118258491Y-88542978D01*
X118248429Y-88516000D01*
X118211337Y-88416551D01*
X118137702Y-88318186D01*
X118130472Y-88308528D01*
X118074329Y-88266500D01*
X118022448Y-88227662D01*
X117896027Y-88180510D01*
X117896022Y-88180509D01*
X117896020Y-88180508D01*
X117896016Y-88180508D01*
X117870744Y-88177791D01*
X117840130Y-88174500D01*
X117312870Y-88174500D01*
X117285943Y-88177394D01*
X117256983Y-88180508D01*
X117256972Y-88180510D01*
X117130551Y-88227662D01*
X117022531Y-88308525D01*
X117022525Y-88308531D01*
X116941663Y-88416550D01*
X116934746Y-88435097D01*
X116896695Y-88483011D01*
X116841988Y-88499500D01*
X114998433Y-88499500D01*
X114871567Y-88499500D01*
X114871566Y-88499500D01*
X114871560Y-88499501D01*
X114848624Y-88506953D01*
X114833525Y-88510578D01*
X114809701Y-88514352D01*
X114809695Y-88514354D01*
X114788196Y-88525307D01*
X114773857Y-88531246D01*
X114750914Y-88538702D01*
X114750911Y-88538704D01*
X114731392Y-88552884D01*
X114718156Y-88560995D01*
X114696658Y-88571950D01*
X114674094Y-88594513D01*
X114674092Y-88594515D01*
X114674090Y-88594515D01*
X114674091Y-88594516D01*
X111943103Y-91325504D01*
X111888586Y-91353281D01*
X111873099Y-91354500D01*
X111153744Y-91354500D01*
X111095553Y-91335593D01*
X111071428Y-91310501D01*
X111030602Y-91249400D01*
X111030599Y-91249397D01*
X110947742Y-91194035D01*
X110947740Y-91194034D01*
X110947737Y-91194033D01*
X110947736Y-91194033D01*
X110874684Y-91179501D01*
X110874674Y-91179500D01*
X109765326Y-91179500D01*
X109765325Y-91179500D01*
X109765315Y-91179501D01*
X109692263Y-91194033D01*
X109692257Y-91194035D01*
X109609400Y-91249397D01*
X109609397Y-91249400D01*
X109554035Y-91332257D01*
X109554033Y-91332263D01*
X109539501Y-91405315D01*
X109539500Y-91405327D01*
X109539500Y-92104672D01*
X109150000Y-92104672D01*
X109150000Y-92005001D01*
X109149999Y-92005000D01*
X108370000Y-92005000D01*
X107869999Y-92005000D01*
X107090001Y-92005000D01*
X107090000Y-92005001D01*
X107090000Y-92127824D01*
X107089999Y-92127824D01*
X99573569Y-92127824D01*
X100889484Y-90811909D01*
X100889485Y-90811907D01*
X100895127Y-90806265D01*
X100895129Y-90806261D01*
X100896390Y-90805000D01*
X106759750Y-90805000D01*
X106778669Y-90948708D01*
X106778670Y-90948709D01*
X106830075Y-91072815D01*
X106834139Y-91082625D01*
X106922379Y-91197621D01*
X107037375Y-91285861D01*
X107037376Y-91285861D01*
X107037377Y-91285862D01*
X107040854Y-91287870D01*
X107081793Y-91333341D01*
X107089074Y-91379470D01*
X107090142Y-91379528D01*
X107090000Y-91382175D01*
X107090000Y-91504999D01*
X107090001Y-91505000D01*
X109149999Y-91505000D01*
X109150000Y-91504999D01*
X109150000Y-91382175D01*
X109143598Y-91322629D01*
X109143596Y-91322618D01*
X109093353Y-91187911D01*
X109093352Y-91187909D01*
X109007192Y-91072815D01*
X109007187Y-91072810D01*
X108940170Y-91022640D01*
X108904918Y-90972630D01*
X108900500Y-90943387D01*
X108900500Y-90704738D01*
X108900500Y-90455326D01*
X108900497Y-90455315D01*
X108900023Y-90450482D01*
X108902320Y-90450255D01*
X108908444Y-90398416D01*
X108949967Y-90353477D01*
X108985433Y-90341691D01*
X109109709Y-90325330D01*
X109243625Y-90269861D01*
X109358621Y-90181621D01*
X109365610Y-90172512D01*
X109416032Y-90137858D01*
X109477197Y-90139459D01*
X109525739Y-90176706D01*
X109541248Y-90213466D01*
X109554033Y-90277736D01*
X109554035Y-90277742D01*
X109609397Y-90360599D01*
X109609400Y-90360602D01*
X109646075Y-90385107D01*
X109692260Y-90415966D01*
X109747808Y-90427015D01*
X109765315Y-90430498D01*
X109765320Y-90430498D01*
X109765326Y-90430500D01*
X109765327Y-90430500D01*
X110874673Y-90430500D01*
X110874674Y-90430500D01*
X110947740Y-90415966D01*
X111030601Y-90360601D01*
X111038019Y-90349498D01*
X111086070Y-90311619D01*
X111120335Y-90305500D01*
X111167725Y-90305500D01*
X111205605Y-90313034D01*
X111235291Y-90325330D01*
X111379000Y-90344250D01*
X111522709Y-90325330D01*
X111656625Y-90269861D01*
X111771621Y-90181621D01*
X111859861Y-90066625D01*
X111915330Y-89932709D01*
X111934250Y-89789000D01*
X111915330Y-89645291D01*
X111859861Y-89511375D01*
X111771621Y-89396379D01*
X111656625Y-89308139D01*
X111656621Y-89308137D01*
X111522709Y-89252670D01*
X111522708Y-89252669D01*
X111379000Y-89233750D01*
X111235291Y-89252669D01*
X111235290Y-89252670D01*
X111101378Y-89308137D01*
X111101371Y-89308141D01*
X111095967Y-89312288D01*
X111038291Y-89332709D01*
X110980703Y-89316059D01*
X110975059Y-89312288D01*
X110957417Y-89300500D01*
X110947742Y-89294035D01*
X110947740Y-89294034D01*
X110947737Y-89294033D01*
X110947736Y-89294033D01*
X110874684Y-89279501D01*
X110874674Y-89279500D01*
X109765326Y-89279500D01*
X109765325Y-89279500D01*
X109765315Y-89279501D01*
X109692263Y-89294033D01*
X109692257Y-89294035D01*
X109609400Y-89349397D01*
X109609397Y-89349400D01*
X109552646Y-89434336D01*
X109504596Y-89472216D01*
X109443458Y-89474618D01*
X109392584Y-89440626D01*
X109391789Y-89439603D01*
X109358626Y-89396385D01*
X109358624Y-89396383D01*
X109358621Y-89396379D01*
X109243625Y-89308139D01*
X109243621Y-89308137D01*
X109109709Y-89252670D01*
X109109708Y-89252669D01*
X108966000Y-89233750D01*
X108822289Y-89252670D01*
X108758383Y-89279140D01*
X108701186Y-89284773D01*
X108674679Y-89279500D01*
X108674674Y-89279500D01*
X107565326Y-89279500D01*
X107565325Y-89279500D01*
X107565315Y-89279501D01*
X107492263Y-89294033D01*
X107492257Y-89294035D01*
X107409400Y-89349397D01*
X107409397Y-89349400D01*
X107354035Y-89432257D01*
X107354033Y-89432263D01*
X107339501Y-89505315D01*
X107339500Y-89505327D01*
X107339500Y-90159704D01*
X107320593Y-90217895D01*
X107271093Y-90253859D01*
X107253422Y-90257857D01*
X107171291Y-90268669D01*
X107171290Y-90268670D01*
X107037378Y-90324137D01*
X107037374Y-90324139D01*
X106922381Y-90412377D01*
X106922377Y-90412381D01*
X106834139Y-90527374D01*
X106834137Y-90527378D01*
X106778670Y-90661290D01*
X106778669Y-90661291D01*
X106759750Y-90804999D01*
X106759750Y-90805000D01*
X100896390Y-90805000D01*
X100912050Y-90789342D01*
X100923000Y-90767849D01*
X100931111Y-90754612D01*
X100945296Y-90735090D01*
X100952748Y-90712151D01*
X100958690Y-90697802D01*
X100969646Y-90676304D01*
X100973421Y-90652465D01*
X100977043Y-90637382D01*
X100984500Y-90614433D01*
X100984500Y-90487567D01*
X100984500Y-90487566D01*
X100984500Y-88063824D01*
X107089999Y-88063824D01*
X107096401Y-88123370D01*
X107096403Y-88123381D01*
X107146646Y-88258088D01*
X107146647Y-88258090D01*
X107232807Y-88373184D01*
X107232815Y-88373192D01*
X107347909Y-88459352D01*
X107347911Y-88459353D01*
X107482618Y-88509596D01*
X107482629Y-88509598D01*
X107542176Y-88516000D01*
X107869999Y-88516000D01*
X107870000Y-88515999D01*
X108370000Y-88515999D01*
X108370001Y-88516000D01*
X108697824Y-88516000D01*
X108757370Y-88509598D01*
X108757381Y-88509596D01*
X108892088Y-88459353D01*
X108892090Y-88459352D01*
X109007184Y-88373192D01*
X109007192Y-88373184D01*
X109093352Y-88258090D01*
X109093353Y-88258088D01*
X109143596Y-88123381D01*
X109143598Y-88123370D01*
X109150000Y-88063824D01*
X109150000Y-88040672D01*
X109539500Y-88040672D01*
X109539501Y-88040684D01*
X109554033Y-88113736D01*
X109554035Y-88113742D01*
X109609397Y-88196599D01*
X109609399Y-88196601D01*
X109692260Y-88251966D01*
X109747808Y-88263015D01*
X109765315Y-88266498D01*
X109765320Y-88266498D01*
X109765326Y-88266500D01*
X109765327Y-88266500D01*
X110874673Y-88266500D01*
X110874674Y-88266500D01*
X110947740Y-88251966D01*
X111030601Y-88196601D01*
X111058117Y-88155420D01*
X111071428Y-88135499D01*
X111119478Y-88097619D01*
X111153744Y-88091500D01*
X112270432Y-88091500D01*
X112270433Y-88091500D01*
X112293382Y-88084043D01*
X112308465Y-88080421D01*
X112332304Y-88076646D01*
X112353802Y-88065690D01*
X112368151Y-88059748D01*
X112391090Y-88052296D01*
X112410612Y-88038111D01*
X112423849Y-88030000D01*
X112445342Y-88019050D01*
X112462261Y-88002129D01*
X112462265Y-88002127D01*
X112467907Y-87996485D01*
X112467909Y-87996484D01*
X113674896Y-86789495D01*
X113729413Y-86761719D01*
X113744900Y-86760500D01*
X116841988Y-86760500D01*
X116900179Y-86779407D01*
X116934746Y-86824903D01*
X116941663Y-86843449D01*
X116941664Y-86843450D01*
X117022528Y-86951472D01*
X117075927Y-86991446D01*
X117130551Y-87032337D01*
X117256972Y-87079489D01*
X117256973Y-87079489D01*
X117256978Y-87079491D01*
X117312870Y-87085500D01*
X117312874Y-87085500D01*
X117840126Y-87085500D01*
X117840130Y-87085500D01*
X117896022Y-87079491D01*
X117939918Y-87063118D01*
X118022448Y-87032337D01*
X118022448Y-87032336D01*
X118022450Y-87032336D01*
X118130472Y-86951472D01*
X118211336Y-86843450D01*
X118211620Y-86842690D01*
X118258489Y-86717027D01*
X118258488Y-86717027D01*
X118258491Y-86717022D01*
X118264500Y-86661130D01*
X118264500Y-86661126D01*
X118463499Y-86661126D01*
X118469508Y-86717016D01*
X118469510Y-86717027D01*
X118516662Y-86843448D01*
X118565457Y-86908630D01*
X118597528Y-86951472D01*
X118650927Y-86991446D01*
X118705551Y-87032337D01*
X118831972Y-87079489D01*
X118831973Y-87079489D01*
X118831978Y-87079491D01*
X118887870Y-87085500D01*
X118887874Y-87085500D01*
X119415126Y-87085500D01*
X119415130Y-87085500D01*
X119471022Y-87079491D01*
X119514918Y-87063118D01*
X119597448Y-87032337D01*
X119597448Y-87032336D01*
X119597450Y-87032336D01*
X119705472Y-86951472D01*
X119786336Y-86843450D01*
X119793253Y-86824903D01*
X119831305Y-86776989D01*
X119886012Y-86760500D01*
X120828742Y-86760500D01*
X120886933Y-86779407D01*
X120917362Y-86815371D01*
X120980327Y-86941821D01*
X121103236Y-87104579D01*
X121253959Y-87241981D01*
X121427363Y-87349348D01*
X121617544Y-87423024D01*
X121818024Y-87460500D01*
X122021976Y-87460500D01*
X122222456Y-87423024D01*
X122412637Y-87349348D01*
X122586041Y-87241981D01*
X122736764Y-87104579D01*
X122859673Y-86941821D01*
X122950582Y-86759250D01*
X123006397Y-86563083D01*
X123025215Y-86360000D01*
X123006397Y-86156917D01*
X122950582Y-85960750D01*
X122859673Y-85778179D01*
X122736764Y-85615421D01*
X122586041Y-85478019D01*
X122412637Y-85370652D01*
X122222456Y-85296976D01*
X122222455Y-85296975D01*
X122222453Y-85296975D01*
X122021976Y-85259500D01*
X121818024Y-85259500D01*
X121617546Y-85296975D01*
X121617541Y-85296977D01*
X121427363Y-85370652D01*
X121253959Y-85478019D01*
X121103236Y-85615421D01*
X121084290Y-85640510D01*
X120980328Y-85778177D01*
X120980323Y-85778186D01*
X120917363Y-85904628D01*
X120874500Y-85948291D01*
X120828742Y-85959500D01*
X119886012Y-85959500D01*
X119827821Y-85940593D01*
X119793254Y-85895097D01*
X119786336Y-85876550D01*
X119712702Y-85778186D01*
X119705472Y-85768528D01*
X119705468Y-85768525D01*
X119597448Y-85687662D01*
X119471027Y-85640510D01*
X119471022Y-85640509D01*
X119471020Y-85640508D01*
X119471016Y-85640508D01*
X119445744Y-85637791D01*
X119415130Y-85634500D01*
X118887870Y-85634500D01*
X118860943Y-85637394D01*
X118831983Y-85640508D01*
X118831972Y-85640510D01*
X118705551Y-85687662D01*
X118597531Y-85768525D01*
X118597525Y-85768531D01*
X118516662Y-85876551D01*
X118469510Y-86002972D01*
X118469508Y-86002983D01*
X118463500Y-86058873D01*
X118463500Y-86661126D01*
X118463499Y-86661126D01*
X118264500Y-86661126D01*
X118264500Y-86058870D01*
X118258491Y-86002978D01*
X118258489Y-86002972D01*
X118211337Y-85876551D01*
X118137702Y-85778186D01*
X118130472Y-85768528D01*
X118130468Y-85768525D01*
X118022448Y-85687662D01*
X117896027Y-85640510D01*
X117896022Y-85640509D01*
X117896020Y-85640508D01*
X117896016Y-85640508D01*
X117870744Y-85637791D01*
X117840130Y-85634500D01*
X117312870Y-85634500D01*
X117285943Y-85637394D01*
X117256983Y-85640508D01*
X117256972Y-85640510D01*
X117130551Y-85687662D01*
X117022531Y-85768525D01*
X117022525Y-85768531D01*
X116941663Y-85876550D01*
X116934746Y-85895097D01*
X116896695Y-85943011D01*
X116841988Y-85959500D01*
X113504461Y-85959500D01*
X113504437Y-85959501D01*
X113474563Y-85959501D01*
X113451626Y-85966954D01*
X113436524Y-85970580D01*
X113412693Y-85974354D01*
X113391198Y-85985306D01*
X113376853Y-85991248D01*
X113353910Y-85998703D01*
X113340244Y-86008632D01*
X113334391Y-86012885D01*
X113321148Y-86021000D01*
X113299657Y-86031949D01*
X113299657Y-86031950D01*
X113230332Y-86101271D01*
X113230315Y-86101292D01*
X112070103Y-87261504D01*
X112015586Y-87289281D01*
X112000099Y-87290500D01*
X111153744Y-87290500D01*
X111095553Y-87271593D01*
X111071428Y-87246501D01*
X111030602Y-87185400D01*
X111030599Y-87185397D01*
X110947742Y-87130035D01*
X110947740Y-87130034D01*
X110947737Y-87130033D01*
X110947736Y-87130033D01*
X110874684Y-87115501D01*
X110874674Y-87115500D01*
X109765326Y-87115500D01*
X109765325Y-87115500D01*
X109765315Y-87115501D01*
X109692263Y-87130033D01*
X109692257Y-87130035D01*
X109609400Y-87185397D01*
X109609397Y-87185400D01*
X109554035Y-87268257D01*
X109554033Y-87268263D01*
X109539501Y-87341315D01*
X109539500Y-87341327D01*
X109539500Y-88040672D01*
X109150000Y-88040672D01*
X109150000Y-87941001D01*
X109149999Y-87941000D01*
X108370001Y-87941000D01*
X108370000Y-87941001D01*
X108370000Y-88515999D01*
X107870000Y-88515999D01*
X107870000Y-88515998D01*
X107870000Y-87941001D01*
X107869999Y-87941000D01*
X107090001Y-87941000D01*
X107090000Y-87941001D01*
X107090000Y-88063824D01*
X107089999Y-88063824D01*
X100984500Y-88063824D01*
X100984500Y-86741000D01*
X106759750Y-86741000D01*
X106778669Y-86884708D01*
X106778670Y-86884709D01*
X106830075Y-87008815D01*
X106834139Y-87018625D01*
X106922379Y-87133621D01*
X107037375Y-87221861D01*
X107037376Y-87221861D01*
X107037377Y-87221862D01*
X107040854Y-87223870D01*
X107081793Y-87269341D01*
X107089074Y-87315470D01*
X107090142Y-87315528D01*
X107090000Y-87318175D01*
X107090000Y-87440999D01*
X107090001Y-87441000D01*
X109149999Y-87441000D01*
X109150000Y-87440999D01*
X109150000Y-87318175D01*
X109143598Y-87258629D01*
X109143596Y-87258618D01*
X109093353Y-87123911D01*
X109093352Y-87123909D01*
X109007192Y-87008815D01*
X109007187Y-87008810D01*
X108940170Y-86958640D01*
X108904918Y-86908630D01*
X108900500Y-86879387D01*
X108900500Y-86643549D01*
X108900500Y-86391326D01*
X108885966Y-86318260D01*
X108885962Y-86318255D01*
X108882233Y-86309248D01*
X108884248Y-86308413D01*
X108871189Y-86262120D01*
X108883773Y-86223389D01*
X108882233Y-86222752D01*
X108885961Y-86213746D01*
X108885966Y-86213740D01*
X108900500Y-86140674D01*
X108900500Y-86140672D01*
X109539500Y-86140672D01*
X109539501Y-86140684D01*
X109554033Y-86213736D01*
X109554035Y-86213742D01*
X109609397Y-86296599D01*
X109609400Y-86296602D01*
X109641819Y-86318263D01*
X109692260Y-86351966D01*
X109747808Y-86363015D01*
X109765315Y-86366498D01*
X109765320Y-86366498D01*
X109765326Y-86366500D01*
X109765327Y-86366500D01*
X110874673Y-86366500D01*
X110874674Y-86366500D01*
X110947740Y-86351966D01*
X111030601Y-86296601D01*
X111038019Y-86285498D01*
X111086070Y-86247619D01*
X111120335Y-86241500D01*
X111167725Y-86241500D01*
X111205605Y-86249034D01*
X111235291Y-86261330D01*
X111343072Y-86275520D01*
X111378999Y-86280250D01*
X111378999Y-86280249D01*
X111379000Y-86280250D01*
X111522709Y-86261330D01*
X111656625Y-86205861D01*
X111771621Y-86117621D01*
X111859861Y-86002625D01*
X111915330Y-85868709D01*
X111934250Y-85725000D01*
X111928645Y-85682430D01*
X111915330Y-85581291D01*
X111859861Y-85447375D01*
X111771621Y-85332379D01*
X111656625Y-85244139D01*
X111656621Y-85244137D01*
X111522709Y-85188670D01*
X111522708Y-85188669D01*
X111379000Y-85169750D01*
X111235291Y-85188669D01*
X111235290Y-85188670D01*
X111101378Y-85244137D01*
X111101371Y-85244141D01*
X111095967Y-85248288D01*
X111038291Y-85268709D01*
X110980703Y-85252059D01*
X110975059Y-85248288D01*
X110968201Y-85243705D01*
X110947742Y-85230035D01*
X110947740Y-85230034D01*
X110947737Y-85230033D01*
X110947736Y-85230033D01*
X110874684Y-85215501D01*
X110874674Y-85215500D01*
X109765326Y-85215500D01*
X109765325Y-85215500D01*
X109765315Y-85215501D01*
X109692263Y-85230033D01*
X109692257Y-85230035D01*
X109609400Y-85285397D01*
X109609397Y-85285400D01*
X109554035Y-85368257D01*
X109554033Y-85368263D01*
X109539501Y-85441315D01*
X109539500Y-85441327D01*
X109539500Y-86140672D01*
X108900500Y-86140672D01*
X108900500Y-85441326D01*
X108885966Y-85368260D01*
X108861993Y-85332381D01*
X108830602Y-85285400D01*
X108830599Y-85285397D01*
X108747742Y-85230035D01*
X108747737Y-85230033D01*
X108691878Y-85218921D01*
X108638495Y-85189024D01*
X108612880Y-85133458D01*
X108613041Y-85108901D01*
X108614528Y-85097613D01*
X108632250Y-84963000D01*
X108613330Y-84819291D01*
X108557861Y-84685375D01*
X108469621Y-84570379D01*
X108354625Y-84482139D01*
X108354621Y-84482137D01*
X108220709Y-84426670D01*
X108220708Y-84426669D01*
X108077000Y-84407750D01*
X107933291Y-84426669D01*
X107933290Y-84426670D01*
X107799378Y-84482137D01*
X107799374Y-84482139D01*
X107684381Y-84570377D01*
X107684377Y-84570381D01*
X107596139Y-84685374D01*
X107596137Y-84685378D01*
X107540670Y-84819290D01*
X107540669Y-84819291D01*
X107521750Y-84962999D01*
X107521750Y-84963000D01*
X107540669Y-85106708D01*
X107542349Y-85112974D01*
X107540098Y-85113576D01*
X107544097Y-85164393D01*
X107512126Y-85216561D01*
X107499964Y-85224013D01*
X107500367Y-85224617D01*
X107409400Y-85285397D01*
X107409397Y-85285400D01*
X107354035Y-85368257D01*
X107354033Y-85368263D01*
X107339501Y-85441315D01*
X107339500Y-85441327D01*
X107339500Y-86095704D01*
X107320593Y-86153895D01*
X107271093Y-86189859D01*
X107253422Y-86193857D01*
X107171291Y-86204669D01*
X107171290Y-86204670D01*
X107037378Y-86260137D01*
X107037374Y-86260139D01*
X106922381Y-86348377D01*
X106922377Y-86348381D01*
X106834139Y-86463374D01*
X106834137Y-86463378D01*
X106778670Y-86597290D01*
X106778669Y-86597291D01*
X106759750Y-86740999D01*
X106759750Y-86741000D01*
X100984500Y-86741000D01*
X100984500Y-81530000D01*
X105272704Y-81530000D01*
X105272899Y-81532486D01*
X105272901Y-81532493D01*
X105318719Y-81690200D01*
X105318719Y-81690201D01*
X105402314Y-81831552D01*
X105518447Y-81947685D01*
X105659799Y-82031280D01*
X105817510Y-82077100D01*
X105854362Y-82080000D01*
X106494999Y-82080000D01*
X106495000Y-82079998D01*
X106495000Y-81530001D01*
X106494999Y-81530000D01*
X106995000Y-81530000D01*
X106995000Y-82079999D01*
X106995001Y-82080000D01*
X107635638Y-82080000D01*
X107672489Y-82077100D01*
X107830200Y-82031280D01*
X107830201Y-82031280D01*
X107971552Y-81947685D01*
X108087685Y-81831552D01*
X108171280Y-81690201D01*
X108171280Y-81690200D01*
X108217098Y-81532493D01*
X108217100Y-81532486D01*
X108217296Y-81530000D01*
X106995000Y-81530000D01*
X106494999Y-81530000D01*
X105272704Y-81530000D01*
X100984500Y-81530000D01*
X100984500Y-80260000D01*
X105272704Y-80260000D01*
X105272899Y-80262486D01*
X105272901Y-80262493D01*
X105318719Y-80420200D01*
X105318719Y-80420201D01*
X105402314Y-80561552D01*
X105415759Y-80574998D01*
X105443535Y-80629516D01*
X105433961Y-80689948D01*
X105415759Y-80715002D01*
X105402314Y-80728447D01*
X105318719Y-80869798D01*
X105318719Y-80869799D01*
X105272901Y-81027506D01*
X105272899Y-81027513D01*
X105272704Y-81030000D01*
X106494999Y-81030000D01*
X106495000Y-81029999D01*
X106995000Y-81029999D01*
X106995001Y-81030000D01*
X108217295Y-81030000D01*
X108217100Y-81027513D01*
X108217098Y-81027506D01*
X108171280Y-80869799D01*
X108171280Y-80869798D01*
X108087685Y-80728447D01*
X108074240Y-80715001D01*
X108046464Y-80660483D01*
X108056038Y-80600051D01*
X108074244Y-80574993D01*
X108087686Y-80561551D01*
X108171280Y-80420201D01*
X108171280Y-80420200D01*
X108217098Y-80262493D01*
X108217100Y-80262486D01*
X108217296Y-80260000D01*
X106995001Y-80260000D01*
X106995000Y-80260001D01*
X106995000Y-81029999D01*
X106495000Y-81029999D01*
X106495000Y-81029998D01*
X106495000Y-80260001D01*
X106494999Y-80260000D01*
X105272704Y-80260000D01*
X100984500Y-80260000D01*
X100984500Y-78692901D01*
X101003407Y-78634710D01*
X101013496Y-78622897D01*
X101736897Y-77899496D01*
X101791414Y-77871719D01*
X101806901Y-77870500D01*
X105563100Y-77870500D01*
X105621291Y-77889407D01*
X105633103Y-77899496D01*
X105671172Y-77937564D01*
X105681658Y-77948050D01*
X105794696Y-78005646D01*
X105804625Y-78007218D01*
X105859140Y-78034993D01*
X105886919Y-78089509D01*
X105877349Y-78149941D01*
X105834086Y-78193207D01*
X105804628Y-78202780D01*
X105794698Y-78204353D01*
X105794695Y-78204354D01*
X105681659Y-78261949D01*
X105591949Y-78351659D01*
X105534354Y-78464695D01*
X105519500Y-78558477D01*
X105519500Y-78921520D01*
X105519501Y-78921523D01*
X105534352Y-79015299D01*
X105534354Y-79015304D01*
X105591950Y-79128342D01*
X105608844Y-79145236D01*
X105636620Y-79199751D01*
X105627049Y-79260183D01*
X105589234Y-79300451D01*
X105518447Y-79342314D01*
X105402314Y-79458447D01*
X105318719Y-79599798D01*
X105318719Y-79599799D01*
X105272901Y-79757506D01*
X105272899Y-79757513D01*
X105272704Y-79760000D01*
X108217295Y-79760000D01*
X108217100Y-79757513D01*
X108217098Y-79757506D01*
X108171280Y-79599799D01*
X108171280Y-79599798D01*
X108087685Y-79458447D01*
X107971554Y-79342316D01*
X107941790Y-79324714D01*
X107901327Y-79278818D01*
X107895569Y-79217904D01*
X107926715Y-79165239D01*
X107982868Y-79140939D01*
X107992185Y-79140500D01*
X108632099Y-79140500D01*
X108690290Y-79159407D01*
X108702103Y-79169496D01*
X109552504Y-80019896D01*
X109580281Y-80074413D01*
X109581500Y-80089900D01*
X109581500Y-81312544D01*
X109588953Y-81335481D01*
X109592579Y-81350581D01*
X109596354Y-81374413D01*
X109607301Y-81395895D01*
X109613247Y-81410249D01*
X109620703Y-81433195D01*
X109620702Y-81433195D01*
X109634884Y-81452715D01*
X109642997Y-81465954D01*
X109653950Y-81487449D01*
X109653951Y-81487450D01*
X109674031Y-81507531D01*
X110700842Y-82534342D01*
X110790550Y-82624049D01*
X110790551Y-82624050D01*
X110812042Y-82635000D01*
X110825288Y-82643117D01*
X110844803Y-82657296D01*
X110844805Y-82657296D01*
X110844806Y-82657297D01*
X110867745Y-82664750D01*
X110882088Y-82670690D01*
X110903589Y-82681646D01*
X110927417Y-82685419D01*
X110942526Y-82689047D01*
X110951087Y-82691828D01*
X110965460Y-82696499D01*
X110995330Y-82696499D01*
X110995354Y-82696500D01*
X110997374Y-82696500D01*
X113630040Y-82696500D01*
X113688231Y-82715407D01*
X113690307Y-82716958D01*
X113708605Y-82730998D01*
X113768375Y-82776861D01*
X113902291Y-82832330D01*
X114046000Y-82851250D01*
X114189709Y-82832330D01*
X114323625Y-82776861D01*
X114438621Y-82688621D01*
X114526861Y-82573625D01*
X114582330Y-82439709D01*
X114601250Y-82296000D01*
X114582330Y-82152291D01*
X114526861Y-82018375D01*
X114438621Y-81903379D01*
X114438616Y-81903375D01*
X114438615Y-81903374D01*
X114379537Y-81858042D01*
X114344881Y-81807617D01*
X114346483Y-81746453D01*
X114383730Y-81697911D01*
X114439804Y-81680500D01*
X114728099Y-81680500D01*
X114786290Y-81699407D01*
X114798103Y-81709496D01*
X116859503Y-83770896D01*
X116887280Y-83825413D01*
X116888499Y-83840900D01*
X116888499Y-84121126D01*
X116894508Y-84177016D01*
X116894510Y-84177027D01*
X116941662Y-84303448D01*
X116999335Y-84380490D01*
X117022528Y-84411472D01*
X117022531Y-84411474D01*
X117130551Y-84492337D01*
X117256972Y-84539489D01*
X117256973Y-84539489D01*
X117256978Y-84539491D01*
X117312870Y-84545500D01*
X117312874Y-84545500D01*
X117840126Y-84545500D01*
X117840130Y-84545500D01*
X117896022Y-84539491D01*
X117998827Y-84501147D01*
X118022448Y-84492337D01*
X118022448Y-84492336D01*
X118022450Y-84492336D01*
X118130472Y-84411472D01*
X118211336Y-84303450D01*
X118226572Y-84262602D01*
X118258489Y-84177027D01*
X118258488Y-84177027D01*
X118258491Y-84177022D01*
X118264500Y-84121130D01*
X118264500Y-84121126D01*
X118463499Y-84121126D01*
X118469508Y-84177016D01*
X118469510Y-84177027D01*
X118516662Y-84303448D01*
X118574335Y-84380490D01*
X118597528Y-84411472D01*
X118597531Y-84411474D01*
X118705551Y-84492337D01*
X118831972Y-84539489D01*
X118831973Y-84539489D01*
X118831978Y-84539491D01*
X118887870Y-84545500D01*
X118887874Y-84545500D01*
X119415126Y-84545500D01*
X119415130Y-84545500D01*
X119471022Y-84539491D01*
X119573827Y-84501147D01*
X119597448Y-84492337D01*
X119597448Y-84492336D01*
X119597450Y-84492336D01*
X119705472Y-84411472D01*
X119781303Y-84310172D01*
X119831313Y-84274918D01*
X119860558Y-84270500D01*
X120853639Y-84270500D01*
X120911830Y-84289407D01*
X120942259Y-84325371D01*
X120980327Y-84401821D01*
X121103236Y-84564579D01*
X121253959Y-84701981D01*
X121427363Y-84809348D01*
X121617544Y-84883024D01*
X121818024Y-84920500D01*
X122021976Y-84920500D01*
X122222456Y-84883024D01*
X122412637Y-84809348D01*
X122586041Y-84701981D01*
X122736764Y-84564579D01*
X122859673Y-84401821D01*
X122950582Y-84219250D01*
X123006397Y-84023083D01*
X123025215Y-83820000D01*
X123006397Y-83616917D01*
X122950582Y-83420750D01*
X122859673Y-83238179D01*
X122736764Y-83075421D01*
X122586041Y-82938019D01*
X122412637Y-82830652D01*
X122222456Y-82756976D01*
X122222455Y-82756975D01*
X122222453Y-82756975D01*
X122021976Y-82719500D01*
X121818024Y-82719500D01*
X121617546Y-82756975D01*
X121566212Y-82776862D01*
X121427363Y-82830652D01*
X121253959Y-82938019D01*
X121103236Y-83075421D01*
X121084290Y-83100510D01*
X120980328Y-83238177D01*
X120980323Y-83238186D01*
X120942260Y-83314628D01*
X120899397Y-83358291D01*
X120853639Y-83369500D01*
X119860558Y-83369500D01*
X119802367Y-83350593D01*
X119781304Y-83329828D01*
X119712702Y-83238186D01*
X119705472Y-83228528D01*
X119705468Y-83228525D01*
X119597448Y-83147662D01*
X119471027Y-83100510D01*
X119471022Y-83100509D01*
X119471020Y-83100508D01*
X119471016Y-83100508D01*
X119445744Y-83097791D01*
X119415130Y-83094500D01*
X118887870Y-83094500D01*
X118860943Y-83097394D01*
X118831983Y-83100508D01*
X118831972Y-83100510D01*
X118705551Y-83147662D01*
X118597531Y-83228525D01*
X118597525Y-83228531D01*
X118516662Y-83336551D01*
X118469510Y-83462972D01*
X118469508Y-83462983D01*
X118463500Y-83518873D01*
X118463500Y-84121126D01*
X118463499Y-84121126D01*
X118264500Y-84121126D01*
X118264500Y-83518870D01*
X118258491Y-83462978D01*
X118216574Y-83350593D01*
X118211337Y-83336551D01*
X118137702Y-83238186D01*
X118130472Y-83228528D01*
X118130468Y-83228525D01*
X118022448Y-83147662D01*
X117896027Y-83100510D01*
X117896022Y-83100509D01*
X117896020Y-83100508D01*
X117896016Y-83100508D01*
X117870744Y-83097791D01*
X117840130Y-83094500D01*
X117840126Y-83094500D01*
X117356900Y-83094500D01*
X117298709Y-83075593D01*
X117286896Y-83065504D01*
X116252672Y-82031280D01*
X115195909Y-80974516D01*
X115195908Y-80974515D01*
X115193424Y-80972031D01*
X115173343Y-80951951D01*
X115173342Y-80951950D01*
X115151847Y-80940997D01*
X115138608Y-80932884D01*
X115132581Y-80928505D01*
X115119090Y-80918704D01*
X115119088Y-80918703D01*
X115096142Y-80911247D01*
X115081788Y-80905301D01*
X115060306Y-80894354D01*
X115036474Y-80890579D01*
X115021374Y-80886953D01*
X114998437Y-80879500D01*
X114998433Y-80879500D01*
X114966519Y-80879500D01*
X112876900Y-80879500D01*
X112818709Y-80860593D01*
X112806897Y-80850504D01*
X112758343Y-80801951D01*
X112758342Y-80801950D01*
X112645304Y-80744354D01*
X112645306Y-80744354D01*
X112635372Y-80742781D01*
X112580856Y-80715002D01*
X112553080Y-80660485D01*
X112562652Y-80600053D01*
X112605917Y-80556790D01*
X112635376Y-80547218D01*
X112645304Y-80545646D01*
X112758342Y-80488050D01*
X112782619Y-80463771D01*
X112806897Y-80439496D01*
X112861414Y-80411719D01*
X112876900Y-80410500D01*
X115109099Y-80410500D01*
X115167290Y-80429407D01*
X115179103Y-80439496D01*
X116257949Y-81518342D01*
X116347657Y-81608049D01*
X116347658Y-81608050D01*
X116369149Y-81619000D01*
X116382395Y-81627117D01*
X116401910Y-81641296D01*
X116401912Y-81641296D01*
X116401913Y-81641297D01*
X116424852Y-81648750D01*
X116439195Y-81654690D01*
X116460696Y-81665646D01*
X116484524Y-81669419D01*
X116499633Y-81673047D01*
X116508194Y-81675828D01*
X116522567Y-81680499D01*
X116552437Y-81680499D01*
X116552461Y-81680500D01*
X116554481Y-81680500D01*
X116841988Y-81680500D01*
X116900179Y-81699407D01*
X116934746Y-81744903D01*
X116941663Y-81763449D01*
X116974727Y-81807617D01*
X117022528Y-81871472D01*
X117022531Y-81871474D01*
X117130551Y-81952337D01*
X117256972Y-81999489D01*
X117256973Y-81999489D01*
X117256978Y-81999491D01*
X117312870Y-82005500D01*
X117312874Y-82005500D01*
X117840126Y-82005500D01*
X117840130Y-82005500D01*
X117896022Y-81999491D01*
X117939918Y-81983118D01*
X118022448Y-81952337D01*
X118022448Y-81952336D01*
X118022450Y-81952336D01*
X118130472Y-81871472D01*
X118211336Y-81763450D01*
X118231461Y-81709494D01*
X118254117Y-81648750D01*
X118258491Y-81637022D01*
X118264500Y-81581130D01*
X118264500Y-81581126D01*
X118463499Y-81581126D01*
X118469508Y-81637016D01*
X118469510Y-81637027D01*
X118516662Y-81763448D01*
X118549727Y-81807617D01*
X118597528Y-81871472D01*
X118597531Y-81871474D01*
X118705551Y-81952337D01*
X118831972Y-81999489D01*
X118831973Y-81999489D01*
X118831978Y-81999491D01*
X118887870Y-82005500D01*
X118887874Y-82005500D01*
X119415126Y-82005500D01*
X119415130Y-82005500D01*
X119471022Y-81999491D01*
X119514918Y-81983118D01*
X119597448Y-81952337D01*
X119597448Y-81952336D01*
X119597450Y-81952336D01*
X119705472Y-81871472D01*
X119781303Y-81770172D01*
X119831313Y-81734918D01*
X119860558Y-81730500D01*
X120853639Y-81730500D01*
X120911830Y-81749407D01*
X120942259Y-81785371D01*
X120980327Y-81861821D01*
X121103236Y-82024579D01*
X121253959Y-82161981D01*
X121427363Y-82269348D01*
X121617544Y-82343024D01*
X121818024Y-82380500D01*
X122021976Y-82380500D01*
X122222456Y-82343024D01*
X122412637Y-82269348D01*
X122586041Y-82161981D01*
X122736764Y-82024579D01*
X122859673Y-81861821D01*
X122950582Y-81679250D01*
X123006397Y-81483083D01*
X123025215Y-81280000D01*
X123006397Y-81076917D01*
X122950582Y-80880750D01*
X122859673Y-80698179D01*
X122736764Y-80535421D01*
X122586041Y-80398019D01*
X122412637Y-80290652D01*
X122222456Y-80216976D01*
X122222455Y-80216975D01*
X122222453Y-80216975D01*
X122021976Y-80179500D01*
X121818024Y-80179500D01*
X121617546Y-80216975D01*
X121617541Y-80216977D01*
X121427363Y-80290652D01*
X121253959Y-80398019D01*
X121103236Y-80535421D01*
X121084290Y-80560510D01*
X120980328Y-80698177D01*
X120980323Y-80698186D01*
X120942260Y-80774628D01*
X120899397Y-80818291D01*
X120853639Y-80829500D01*
X119860558Y-80829500D01*
X119802367Y-80810593D01*
X119781304Y-80789828D01*
X119712702Y-80698186D01*
X119705472Y-80688528D01*
X119626632Y-80629509D01*
X119597448Y-80607662D01*
X119471027Y-80560510D01*
X119471022Y-80560509D01*
X119471020Y-80560508D01*
X119471016Y-80560508D01*
X119445744Y-80557791D01*
X119415130Y-80554500D01*
X118887870Y-80554500D01*
X118860943Y-80557394D01*
X118831983Y-80560508D01*
X118831972Y-80560510D01*
X118705551Y-80607662D01*
X118597531Y-80688525D01*
X118597525Y-80688531D01*
X118516662Y-80796551D01*
X118469510Y-80922972D01*
X118469508Y-80922983D01*
X118466394Y-80951950D01*
X118463969Y-80974513D01*
X118463500Y-80978873D01*
X118463500Y-81581126D01*
X118463499Y-81581126D01*
X118264500Y-81581126D01*
X118264500Y-80978870D01*
X118258491Y-80922978D01*
X118254116Y-80911247D01*
X118211337Y-80796551D01*
X118137702Y-80698186D01*
X118130472Y-80688528D01*
X118051632Y-80629509D01*
X118022448Y-80607662D01*
X117896027Y-80560510D01*
X117896022Y-80560509D01*
X117896020Y-80560508D01*
X117896016Y-80560508D01*
X117870744Y-80557791D01*
X117840130Y-80554500D01*
X117312870Y-80554500D01*
X117285943Y-80557394D01*
X117256983Y-80560508D01*
X117256972Y-80560510D01*
X117130551Y-80607662D01*
X117022531Y-80688525D01*
X117022525Y-80688531D01*
X116941663Y-80796550D01*
X116934746Y-80815097D01*
X116896695Y-80863011D01*
X116841988Y-80879500D01*
X116792900Y-80879500D01*
X116734709Y-80860593D01*
X116722896Y-80850504D01*
X116163044Y-80290652D01*
X115576909Y-79704516D01*
X115576908Y-79704515D01*
X115574424Y-79702031D01*
X115554343Y-79681951D01*
X115554342Y-79681950D01*
X115532847Y-79670997D01*
X115519608Y-79662884D01*
X115513581Y-79658505D01*
X115500090Y-79648704D01*
X115500088Y-79648703D01*
X115477142Y-79641247D01*
X115462788Y-79635301D01*
X115441306Y-79624354D01*
X115417474Y-79620579D01*
X115402374Y-79616953D01*
X115379437Y-79609500D01*
X115379433Y-79609500D01*
X115347519Y-79609500D01*
X112876900Y-79609500D01*
X112818709Y-79590593D01*
X112806897Y-79580504D01*
X112758343Y-79531951D01*
X112758342Y-79531950D01*
X112645304Y-79474354D01*
X112645306Y-79474354D01*
X112635372Y-79472781D01*
X112580856Y-79445002D01*
X112553080Y-79390485D01*
X112562652Y-79330053D01*
X112605917Y-79286790D01*
X112635376Y-79277218D01*
X112645304Y-79275646D01*
X112758342Y-79218050D01*
X112793790Y-79182602D01*
X112806897Y-79169496D01*
X112861414Y-79141719D01*
X112876900Y-79140500D01*
X116841988Y-79140500D01*
X116900179Y-79159407D01*
X116934746Y-79204903D01*
X116941663Y-79223449D01*
X116991856Y-79290499D01*
X117022528Y-79331472D01*
X117037014Y-79342316D01*
X117130551Y-79412337D01*
X117256972Y-79459489D01*
X117256973Y-79459489D01*
X117256978Y-79459491D01*
X117312870Y-79465500D01*
X117312874Y-79465500D01*
X117840126Y-79465500D01*
X117840130Y-79465500D01*
X117896022Y-79459491D01*
X117939918Y-79443118D01*
X118022448Y-79412337D01*
X118022448Y-79412336D01*
X118022450Y-79412336D01*
X118130472Y-79331472D01*
X118211336Y-79223450D01*
X118213351Y-79218049D01*
X118252154Y-79114013D01*
X118258491Y-79097022D01*
X118264500Y-79041130D01*
X118264500Y-79041126D01*
X118463499Y-79041126D01*
X118469508Y-79097016D01*
X118469510Y-79097027D01*
X118516662Y-79223448D01*
X118566856Y-79290499D01*
X118597528Y-79331472D01*
X118612014Y-79342316D01*
X118705551Y-79412337D01*
X118831972Y-79459489D01*
X118831973Y-79459489D01*
X118831978Y-79459491D01*
X118887870Y-79465500D01*
X118887874Y-79465500D01*
X119415126Y-79465500D01*
X119415130Y-79465500D01*
X119471022Y-79459491D01*
X119514918Y-79443118D01*
X119597448Y-79412337D01*
X119597448Y-79412336D01*
X119597450Y-79412336D01*
X119705472Y-79331472D01*
X119781303Y-79230172D01*
X119831313Y-79194918D01*
X119860558Y-79190500D01*
X120853639Y-79190500D01*
X120911830Y-79209407D01*
X120942259Y-79245371D01*
X120980327Y-79321821D01*
X121103236Y-79484579D01*
X121253959Y-79621981D01*
X121427363Y-79729348D01*
X121617544Y-79803024D01*
X121818024Y-79840500D01*
X122021976Y-79840500D01*
X122222456Y-79803024D01*
X122412637Y-79729348D01*
X122586041Y-79621981D01*
X122736764Y-79484579D01*
X122859673Y-79321821D01*
X122950582Y-79139250D01*
X123006397Y-78943083D01*
X123025215Y-78740000D01*
X123006397Y-78536917D01*
X122950582Y-78340750D01*
X122859673Y-78158179D01*
X122736764Y-77995421D01*
X122586041Y-77858019D01*
X122412637Y-77750652D01*
X122222456Y-77676976D01*
X122222455Y-77676975D01*
X122222453Y-77676975D01*
X122021976Y-77639500D01*
X121818024Y-77639500D01*
X121617546Y-77676975D01*
X121547632Y-77704059D01*
X121427363Y-77750652D01*
X121297118Y-77831296D01*
X121253959Y-77858019D01*
X121119423Y-77980665D01*
X121103236Y-77995421D01*
X121084290Y-78020510D01*
X120980328Y-78158177D01*
X120980323Y-78158186D01*
X120942260Y-78234628D01*
X120899397Y-78278291D01*
X120853639Y-78289500D01*
X119860558Y-78289500D01*
X119802367Y-78270593D01*
X119781304Y-78249828D01*
X119746084Y-78202780D01*
X119705472Y-78148528D01*
X119626632Y-78089509D01*
X119597448Y-78067662D01*
X119471027Y-78020510D01*
X119471022Y-78020509D01*
X119471020Y-78020508D01*
X119471016Y-78020508D01*
X119445744Y-78017791D01*
X119415130Y-78014500D01*
X118887870Y-78014500D01*
X118860943Y-78017394D01*
X118831983Y-78020508D01*
X118831972Y-78020510D01*
X118705551Y-78067662D01*
X118597531Y-78148525D01*
X118597525Y-78148531D01*
X118516662Y-78256551D01*
X118469510Y-78382972D01*
X118469508Y-78382983D01*
X118466394Y-78411950D01*
X118463969Y-78434513D01*
X118463500Y-78438873D01*
X118463500Y-79041126D01*
X118463499Y-79041126D01*
X118264500Y-79041126D01*
X118264500Y-78438870D01*
X118258491Y-78382978D01*
X118246810Y-78351659D01*
X118211337Y-78256551D01*
X118137698Y-78158181D01*
X118130472Y-78148528D01*
X118051632Y-78089509D01*
X118022448Y-78067662D01*
X117896027Y-78020510D01*
X117896022Y-78020509D01*
X117896020Y-78020508D01*
X117896016Y-78020508D01*
X117870744Y-78017791D01*
X117840130Y-78014500D01*
X117312870Y-78014500D01*
X117285943Y-78017394D01*
X117256983Y-78020508D01*
X117256972Y-78020510D01*
X117130551Y-78067662D01*
X117022531Y-78148525D01*
X117022525Y-78148531D01*
X116941663Y-78256550D01*
X116934746Y-78275097D01*
X116896695Y-78323011D01*
X116841988Y-78339500D01*
X112876900Y-78339500D01*
X112818709Y-78320593D01*
X112806897Y-78310504D01*
X112758343Y-78261951D01*
X112758342Y-78261950D01*
X112645304Y-78204354D01*
X112645306Y-78204354D01*
X112635372Y-78202781D01*
X112580856Y-78175002D01*
X112553080Y-78120485D01*
X112562652Y-78060053D01*
X112605917Y-78016790D01*
X112635376Y-78007218D01*
X112645304Y-78005646D01*
X112758342Y-77948050D01*
X112848050Y-77858342D01*
X112905646Y-77745304D01*
X112920500Y-77651519D01*
X112920499Y-77288482D01*
X112916467Y-77263024D01*
X112905647Y-77194700D01*
X112905646Y-77194698D01*
X112905646Y-77194696D01*
X112848050Y-77081658D01*
X112758342Y-76991950D01*
X112645304Y-76934354D01*
X112645306Y-76934354D01*
X112635372Y-76932781D01*
X112580856Y-76905002D01*
X112553080Y-76850485D01*
X112562652Y-76790053D01*
X112605917Y-76746790D01*
X112635376Y-76737218D01*
X112645304Y-76735646D01*
X112758342Y-76678050D01*
X112848050Y-76588342D01*
X112905646Y-76475304D01*
X112920500Y-76381519D01*
X112920499Y-76200000D01*
X120814785Y-76200000D01*
X120833603Y-76403083D01*
X120889418Y-76599250D01*
X120980327Y-76781821D01*
X121103236Y-76944579D01*
X121253959Y-77081981D01*
X121427363Y-77189348D01*
X121617544Y-77263024D01*
X121818024Y-77300500D01*
X122021976Y-77300500D01*
X122222456Y-77263024D01*
X122412637Y-77189348D01*
X122586041Y-77081981D01*
X122736764Y-76944579D01*
X122859673Y-76781821D01*
X122950582Y-76599250D01*
X123006397Y-76403083D01*
X123025215Y-76200000D01*
X123006397Y-75996917D01*
X122950582Y-75800750D01*
X122859673Y-75618179D01*
X122736764Y-75455421D01*
X122586041Y-75318019D01*
X122412637Y-75210652D01*
X122222456Y-75136976D01*
X122222455Y-75136975D01*
X122222453Y-75136975D01*
X122021976Y-75099500D01*
X121818024Y-75099500D01*
X121617546Y-75136975D01*
X121578744Y-75152007D01*
X121427363Y-75210652D01*
X121253959Y-75318019D01*
X121103236Y-75455421D01*
X121087099Y-75476790D01*
X120980328Y-75618177D01*
X120980323Y-75618186D01*
X120889419Y-75800747D01*
X120889418Y-75800750D01*
X120833603Y-75996917D01*
X120814785Y-76200000D01*
X112920499Y-76200000D01*
X112920499Y-76018482D01*
X112905646Y-75924696D01*
X112848050Y-75811658D01*
X112758342Y-75721950D01*
X112645304Y-75664354D01*
X112645306Y-75664354D01*
X112635372Y-75662781D01*
X112580856Y-75635002D01*
X112553080Y-75580485D01*
X112562652Y-75520053D01*
X112605917Y-75476790D01*
X112635376Y-75467218D01*
X112645304Y-75465646D01*
X112758342Y-75408050D01*
X112848050Y-75318342D01*
X112905646Y-75205304D01*
X112920500Y-75111519D01*
X112920499Y-74748482D01*
X112905646Y-74654696D01*
X112848050Y-74541658D01*
X112758342Y-74451950D01*
X112645304Y-74394354D01*
X112645306Y-74394354D01*
X112635372Y-74392781D01*
X112580856Y-74365002D01*
X112553080Y-74310485D01*
X112562652Y-74250053D01*
X112605917Y-74206790D01*
X112635376Y-74197218D01*
X112645304Y-74195646D01*
X112758342Y-74138050D01*
X112848050Y-74048342D01*
X112905646Y-73935304D01*
X112920500Y-73841519D01*
X112920499Y-73478482D01*
X112905646Y-73384696D01*
X112848050Y-73271658D01*
X112758342Y-73181950D01*
X112645304Y-73124354D01*
X112645306Y-73124354D01*
X112635372Y-73122781D01*
X112580856Y-73095002D01*
X112553080Y-73040485D01*
X112562652Y-72980053D01*
X112605917Y-72936790D01*
X112635376Y-72927218D01*
X112645304Y-72925646D01*
X112758342Y-72868050D01*
X112758348Y-72868043D01*
X112764647Y-72863469D01*
X112765748Y-72864985D01*
X112811412Y-72841719D01*
X112826899Y-72840500D01*
X112933201Y-72840500D01*
X112991392Y-72859407D01*
X112993465Y-72860955D01*
X113006375Y-72870861D01*
X113140291Y-72926330D01*
X113283999Y-72945250D01*
X113283999Y-72945249D01*
X113284000Y-72945250D01*
X113427709Y-72926330D01*
X113561625Y-72870861D01*
X113676621Y-72782621D01*
X113764861Y-72667625D01*
X113820330Y-72533709D01*
X113839250Y-72390000D01*
X113820330Y-72246291D01*
X113764861Y-72112375D01*
X113676621Y-71997379D01*
X113561625Y-71909139D01*
X113561621Y-71909137D01*
X113427709Y-71853670D01*
X113427708Y-71853669D01*
X113284000Y-71834750D01*
X113140291Y-71853669D01*
X113140290Y-71853670D01*
X113006378Y-71909137D01*
X113006374Y-71909139D01*
X112993468Y-71919043D01*
X112935791Y-71939466D01*
X112933201Y-71939500D01*
X112826899Y-71939500D01*
X112768708Y-71920593D01*
X112759992Y-71913149D01*
X112758344Y-71911952D01*
X112758342Y-71911950D01*
X112645304Y-71854354D01*
X112645305Y-71854354D01*
X112551522Y-71839500D01*
X112551519Y-71839500D01*
X112400293Y-71839500D01*
X112342102Y-71820593D01*
X112306138Y-71771093D01*
X112302140Y-71727578D01*
X112315250Y-71628000D01*
X112315250Y-71627999D01*
X112296330Y-71484291D01*
X112240861Y-71350375D01*
X112152621Y-71235379D01*
X112037625Y-71147139D01*
X112037621Y-71147137D01*
X111903709Y-71091670D01*
X111903708Y-71091669D01*
X111760000Y-71072750D01*
X111616291Y-71091669D01*
X111616290Y-71091670D01*
X111482378Y-71147137D01*
X111482374Y-71147139D01*
X111367381Y-71235377D01*
X111367377Y-71235381D01*
X111279139Y-71350374D01*
X111279137Y-71350378D01*
X111223670Y-71484290D01*
X111223669Y-71484291D01*
X111204750Y-71627999D01*
X111204750Y-71628000D01*
X111217859Y-71727578D01*
X111206709Y-71787739D01*
X111162326Y-71829856D01*
X111119706Y-71839500D01*
X110838479Y-71839500D01*
X110838476Y-71839501D01*
X110750985Y-71853357D01*
X110690554Y-71843785D01*
X110647290Y-71800520D01*
X110636500Y-71755576D01*
X110636500Y-71691569D01*
X110636500Y-71691568D01*
X110636500Y-71691567D01*
X110629041Y-71668611D01*
X110625421Y-71653534D01*
X110621646Y-71629696D01*
X110610693Y-71608201D01*
X110604752Y-71593861D01*
X110597296Y-71570911D01*
X110597294Y-71570908D01*
X110583112Y-71551386D01*
X110574997Y-71538143D01*
X110564050Y-71516658D01*
X110561238Y-71513846D01*
X110541486Y-71494093D01*
X108869911Y-69822517D01*
X108869911Y-69822516D01*
X108847344Y-69799949D01*
X108847342Y-69799948D01*
X108825850Y-69788998D01*
X108812600Y-69780878D01*
X108793092Y-69766703D01*
X108770144Y-69759247D01*
X108755790Y-69753301D01*
X108734308Y-69742354D01*
X108710476Y-69738579D01*
X108695376Y-69734953D01*
X108672439Y-69727500D01*
X108672435Y-69727500D01*
X108640521Y-69727500D01*
X103671433Y-69727500D01*
X103544567Y-69727500D01*
X103544565Y-69727500D01*
X103544559Y-69727501D01*
X103521619Y-69734954D01*
X103506524Y-69738578D01*
X103482701Y-69742352D01*
X103482695Y-69742354D01*
X103461201Y-69753305D01*
X103446857Y-69759246D01*
X103423911Y-69766702D01*
X103423908Y-69766704D01*
X103404390Y-69780884D01*
X103391152Y-69788997D01*
X103369657Y-69799950D01*
X103347093Y-69822514D01*
X103347090Y-69822515D01*
X103347091Y-69822516D01*
X98669103Y-74500504D01*
X98614586Y-74528281D01*
X98599099Y-74529500D01*
X97441246Y-74529500D01*
X97383055Y-74510593D01*
X97347091Y-74461093D01*
X97347091Y-74399907D01*
X97362239Y-74370844D01*
X97459673Y-74241821D01*
X97550582Y-74059250D01*
X97606397Y-73863083D01*
X97625215Y-73660000D01*
X97606397Y-73456917D01*
X97550582Y-73260750D01*
X97459673Y-73078179D01*
X97336764Y-72915421D01*
X97327385Y-72906871D01*
X97297121Y-72853699D01*
X97303890Y-72792889D01*
X97335893Y-72753617D01*
X97339085Y-72751297D01*
X97339090Y-72751296D01*
X97358613Y-72737110D01*
X97371849Y-72729000D01*
X97393342Y-72718050D01*
X97410261Y-72701129D01*
X97410265Y-72701127D01*
X97415907Y-72695485D01*
X97415909Y-72695484D01*
X101154392Y-68957000D01*
X105272704Y-68957000D01*
X105272899Y-68959486D01*
X105272901Y-68959493D01*
X105318719Y-69117200D01*
X105318719Y-69117201D01*
X105402314Y-69258552D01*
X105518447Y-69374685D01*
X105659799Y-69458280D01*
X105817510Y-69504100D01*
X105854362Y-69507000D01*
X106494999Y-69507000D01*
X106495000Y-69506999D01*
X106495000Y-68957001D01*
X106494999Y-68957000D01*
X106995000Y-68957000D01*
X106995000Y-69506999D01*
X106995001Y-69507000D01*
X107635638Y-69507000D01*
X107672489Y-69504100D01*
X107830200Y-69458280D01*
X107830201Y-69458280D01*
X107971552Y-69374685D01*
X108087685Y-69258552D01*
X108171280Y-69117201D01*
X108171280Y-69117200D01*
X108217098Y-68959493D01*
X108217100Y-68959486D01*
X108217296Y-68957000D01*
X106995000Y-68957000D01*
X106494999Y-68957000D01*
X105272704Y-68957000D01*
X101154392Y-68957000D01*
X102424391Y-67687000D01*
X105272704Y-67687000D01*
X105272899Y-67689486D01*
X105272901Y-67689493D01*
X105318719Y-67847200D01*
X105318719Y-67847201D01*
X105402314Y-67988552D01*
X105415759Y-68001998D01*
X105443535Y-68056516D01*
X105433961Y-68116948D01*
X105415759Y-68142002D01*
X105402314Y-68155447D01*
X105318719Y-68296798D01*
X105318719Y-68296799D01*
X105272901Y-68454506D01*
X105272899Y-68454513D01*
X105272704Y-68457000D01*
X106494999Y-68457000D01*
X106495000Y-68456999D01*
X106995000Y-68456999D01*
X106995001Y-68457000D01*
X108217295Y-68457000D01*
X108217100Y-68454513D01*
X108217098Y-68454506D01*
X108171280Y-68296799D01*
X108171280Y-68296798D01*
X108087685Y-68155447D01*
X108074242Y-68142004D01*
X108046465Y-68087487D01*
X108056036Y-68027055D01*
X108074242Y-68001996D01*
X108087685Y-67988552D01*
X108171280Y-67847201D01*
X108171280Y-67847200D01*
X108217098Y-67689493D01*
X108217100Y-67689486D01*
X108217296Y-67687000D01*
X106995001Y-67687000D01*
X106995000Y-67687001D01*
X106995000Y-68456999D01*
X106495000Y-68456999D01*
X106495000Y-67687001D01*
X106494999Y-67687000D01*
X105272704Y-67687000D01*
X102424391Y-67687000D01*
X103694391Y-66417000D01*
X105272704Y-66417000D01*
X105272899Y-66419486D01*
X105272901Y-66419493D01*
X105318719Y-66577200D01*
X105318719Y-66577201D01*
X105402314Y-66718552D01*
X105415759Y-66731998D01*
X105443535Y-66786516D01*
X105433961Y-66846948D01*
X105415759Y-66872002D01*
X105402314Y-66885447D01*
X105318719Y-67026798D01*
X105318719Y-67026799D01*
X105272901Y-67184506D01*
X105272899Y-67184513D01*
X105272704Y-67187000D01*
X106494999Y-67187000D01*
X106495000Y-67186999D01*
X106995000Y-67186999D01*
X106995001Y-67187000D01*
X108217295Y-67187000D01*
X108217100Y-67184513D01*
X108217098Y-67184506D01*
X108171280Y-67026799D01*
X108171280Y-67026798D01*
X108087685Y-66885447D01*
X108074242Y-66872004D01*
X108046465Y-66817487D01*
X108056036Y-66757055D01*
X108074244Y-66731994D01*
X108087684Y-66718554D01*
X108171280Y-66577201D01*
X108171280Y-66577200D01*
X108217098Y-66419493D01*
X108217100Y-66419486D01*
X108217296Y-66417000D01*
X106995001Y-66417000D01*
X106995000Y-66417001D01*
X106995000Y-67186999D01*
X106495000Y-67186999D01*
X106495000Y-66417001D01*
X106494999Y-66417000D01*
X105272704Y-66417000D01*
X103694391Y-66417000D01*
X104784896Y-65326495D01*
X104839413Y-65298719D01*
X104854900Y-65297500D01*
X105497815Y-65297500D01*
X105556006Y-65316407D01*
X105591970Y-65365907D01*
X105591970Y-65427093D01*
X105556006Y-65476593D01*
X105548210Y-65481714D01*
X105518445Y-65499316D01*
X105402314Y-65615447D01*
X105318719Y-65756798D01*
X105318719Y-65756799D01*
X105272901Y-65914506D01*
X105272899Y-65914513D01*
X105272704Y-65917000D01*
X108217295Y-65917000D01*
X108217100Y-65914513D01*
X108217098Y-65914506D01*
X108171280Y-65756799D01*
X108171280Y-65756798D01*
X108087685Y-65615447D01*
X107971554Y-65499316D01*
X107900765Y-65457452D01*
X107860302Y-65411556D01*
X107854544Y-65350642D01*
X107881156Y-65302235D01*
X107898050Y-65285342D01*
X107955646Y-65172304D01*
X107970500Y-65078519D01*
X107970499Y-64715482D01*
X107955646Y-64621696D01*
X107898050Y-64508658D01*
X107808342Y-64418950D01*
X107695304Y-64361354D01*
X107695306Y-64361354D01*
X107685372Y-64359781D01*
X107630856Y-64332002D01*
X107603080Y-64277485D01*
X107612652Y-64217053D01*
X107655917Y-64173790D01*
X107685376Y-64164218D01*
X107695304Y-64162646D01*
X107808342Y-64105050D01*
X107898050Y-64015342D01*
X107955646Y-63902304D01*
X107970500Y-63808519D01*
X107970499Y-63445482D01*
X107955646Y-63351696D01*
X107898050Y-63238658D01*
X107808342Y-63148950D01*
X107695304Y-63091354D01*
X107695306Y-63091354D01*
X107685372Y-63089781D01*
X107630856Y-63062002D01*
X107603080Y-63007485D01*
X107612652Y-62947053D01*
X107655917Y-62903790D01*
X107685376Y-62894218D01*
X107695304Y-62892646D01*
X107808342Y-62835050D01*
X107883391Y-62760000D01*
X107937905Y-62732224D01*
X107998338Y-62741795D01*
X108023393Y-62759998D01*
X109189470Y-63926075D01*
X110398737Y-65135342D01*
X110452803Y-65189407D01*
X110488446Y-65225050D01*
X110490556Y-65226125D01*
X110492230Y-65227799D01*
X110494750Y-65229630D01*
X110494460Y-65230028D01*
X110533820Y-65269387D01*
X110541950Y-65285342D01*
X110631658Y-65375050D01*
X110744696Y-65432646D01*
X110754625Y-65434218D01*
X110809140Y-65461993D01*
X110836919Y-65516509D01*
X110827349Y-65576941D01*
X110784086Y-65620207D01*
X110754628Y-65629780D01*
X110744698Y-65631353D01*
X110744695Y-65631354D01*
X110631659Y-65688949D01*
X110541949Y-65778659D01*
X110484354Y-65891695D01*
X110469500Y-65985477D01*
X110469500Y-66348520D01*
X110469501Y-66348523D01*
X110484352Y-66442299D01*
X110484354Y-66442304D01*
X110541950Y-66555342D01*
X110631658Y-66645050D01*
X110744696Y-66702646D01*
X110754625Y-66704218D01*
X110809140Y-66731993D01*
X110836919Y-66786509D01*
X110827349Y-66846941D01*
X110784086Y-66890207D01*
X110754628Y-66899780D01*
X110744698Y-66901353D01*
X110744695Y-66901354D01*
X110631659Y-66958949D01*
X110541949Y-67048659D01*
X110484354Y-67161695D01*
X110469500Y-67255477D01*
X110469500Y-67618520D01*
X110469501Y-67618523D01*
X110484352Y-67712299D01*
X110484354Y-67712304D01*
X110541950Y-67825342D01*
X110631658Y-67915050D01*
X110744696Y-67972646D01*
X110754625Y-67974218D01*
X110809140Y-68001993D01*
X110836919Y-68056509D01*
X110827349Y-68116941D01*
X110784086Y-68160207D01*
X110754628Y-68169780D01*
X110744698Y-68171353D01*
X110744695Y-68171354D01*
X110631659Y-68228949D01*
X110541949Y-68318659D01*
X110484354Y-68431695D01*
X110469500Y-68525477D01*
X110469500Y-68888520D01*
X110469501Y-68888523D01*
X110484352Y-68982299D01*
X110484354Y-68982304D01*
X110541950Y-69095342D01*
X110631658Y-69185050D01*
X110744696Y-69242646D01*
X110838481Y-69257500D01*
X112551518Y-69257499D01*
X112551521Y-69257499D01*
X112551522Y-69257498D01*
X112598410Y-69250072D01*
X112645299Y-69242647D01*
X112645299Y-69242646D01*
X112645304Y-69242646D01*
X112758342Y-69185050D01*
X112782619Y-69160772D01*
X112806897Y-69136496D01*
X112861414Y-69108719D01*
X112876900Y-69107500D01*
X113331099Y-69107500D01*
X113389290Y-69126407D01*
X113401103Y-69136496D01*
X116156503Y-71891896D01*
X116184280Y-71946413D01*
X116185499Y-71961900D01*
X116185500Y-72606067D01*
X116185500Y-72732937D01*
X116192953Y-72755874D01*
X116196579Y-72770974D01*
X116200354Y-72794806D01*
X116211301Y-72816288D01*
X116217247Y-72830642D01*
X116224703Y-72853588D01*
X116224702Y-72853588D01*
X116238884Y-72873108D01*
X116246997Y-72886347D01*
X116257950Y-72907842D01*
X116257951Y-72907843D01*
X116278031Y-72927924D01*
X116859504Y-73509396D01*
X116887281Y-73563913D01*
X116888500Y-73579400D01*
X116888500Y-73961126D01*
X116888499Y-73961126D01*
X116894508Y-74017016D01*
X116894510Y-74017027D01*
X116941662Y-74143448D01*
X117000370Y-74221872D01*
X117022528Y-74251472D01*
X117022531Y-74251474D01*
X117130551Y-74332337D01*
X117256972Y-74379489D01*
X117256973Y-74379489D01*
X117256978Y-74379491D01*
X117312870Y-74385500D01*
X117312874Y-74385500D01*
X117840126Y-74385500D01*
X117840130Y-74385500D01*
X117896022Y-74379491D01*
X117939918Y-74363118D01*
X118022448Y-74332337D01*
X118022448Y-74332336D01*
X118022450Y-74332336D01*
X118130472Y-74251472D01*
X118211336Y-74143450D01*
X118213351Y-74138049D01*
X118247815Y-74045646D01*
X118258491Y-74017022D01*
X118264500Y-73961130D01*
X118264500Y-73961126D01*
X118463499Y-73961126D01*
X118469508Y-74017016D01*
X118469510Y-74017027D01*
X118516662Y-74143448D01*
X118575370Y-74221872D01*
X118597528Y-74251472D01*
X118597531Y-74251474D01*
X118705551Y-74332337D01*
X118831972Y-74379489D01*
X118831973Y-74379489D01*
X118831978Y-74379491D01*
X118887870Y-74385500D01*
X118887874Y-74385500D01*
X119415126Y-74385500D01*
X119415130Y-74385500D01*
X119471022Y-74379491D01*
X119514918Y-74363118D01*
X119597448Y-74332337D01*
X119597448Y-74332336D01*
X119597450Y-74332336D01*
X119705472Y-74251472D01*
X119781303Y-74150172D01*
X119831313Y-74114918D01*
X119860558Y-74110500D01*
X120853639Y-74110500D01*
X120911830Y-74129407D01*
X120942259Y-74165371D01*
X120980327Y-74241821D01*
X121103236Y-74404579D01*
X121253959Y-74541981D01*
X121427363Y-74649348D01*
X121617544Y-74723024D01*
X121818024Y-74760500D01*
X122021976Y-74760500D01*
X122222456Y-74723024D01*
X122412637Y-74649348D01*
X122586041Y-74541981D01*
X122736764Y-74404579D01*
X122859673Y-74241821D01*
X122950582Y-74059250D01*
X123006397Y-73863083D01*
X123025215Y-73660000D01*
X123006397Y-73456917D01*
X122950582Y-73260750D01*
X122859673Y-73078179D01*
X122736764Y-72915421D01*
X122586041Y-72778019D01*
X122412637Y-72670652D01*
X122222456Y-72596976D01*
X122222455Y-72596975D01*
X122222453Y-72596975D01*
X122021976Y-72559500D01*
X121818024Y-72559500D01*
X121617546Y-72596975D01*
X121617536Y-72596979D01*
X121427363Y-72670652D01*
X121281192Y-72761157D01*
X121253959Y-72778019D01*
X121114116Y-72905503D01*
X121103236Y-72915421D01*
X121084290Y-72940510D01*
X120980328Y-73078177D01*
X120980323Y-73078186D01*
X120942260Y-73154628D01*
X120899397Y-73198291D01*
X120853639Y-73209500D01*
X119860558Y-73209500D01*
X119802367Y-73190593D01*
X119781304Y-73169828D01*
X119712702Y-73078186D01*
X119705472Y-73068528D01*
X119664316Y-73037719D01*
X119597448Y-72987662D01*
X119471027Y-72940510D01*
X119471022Y-72940509D01*
X119471020Y-72940508D01*
X119471016Y-72940508D01*
X119445744Y-72937791D01*
X119415130Y-72934500D01*
X118887870Y-72934500D01*
X118860943Y-72937394D01*
X118831983Y-72940508D01*
X118831972Y-72940510D01*
X118705551Y-72987662D01*
X118597531Y-73068525D01*
X118597525Y-73068531D01*
X118516662Y-73176551D01*
X118469510Y-73302972D01*
X118469508Y-73302983D01*
X118463500Y-73358873D01*
X118463500Y-73961126D01*
X118463499Y-73961126D01*
X118264500Y-73961126D01*
X118264500Y-73358870D01*
X118258491Y-73302978D01*
X118246810Y-73271659D01*
X118211337Y-73176551D01*
X118137702Y-73078186D01*
X118130472Y-73068528D01*
X118089316Y-73037719D01*
X118022448Y-72987662D01*
X117896027Y-72940510D01*
X117896022Y-72940509D01*
X117896020Y-72940508D01*
X117896016Y-72940508D01*
X117870744Y-72937791D01*
X117840130Y-72934500D01*
X117840126Y-72934500D01*
X117458401Y-72934500D01*
X117400210Y-72915593D01*
X117388397Y-72905503D01*
X117015496Y-72532601D01*
X116987719Y-72478085D01*
X116986500Y-72462598D01*
X116986500Y-71880534D01*
X117005407Y-71822343D01*
X117054907Y-71786379D01*
X117116093Y-71786379D01*
X117125814Y-71790570D01*
X117256972Y-71839489D01*
X117256973Y-71839489D01*
X117256978Y-71839491D01*
X117312870Y-71845500D01*
X117312874Y-71845500D01*
X117840126Y-71845500D01*
X117840130Y-71845500D01*
X117896022Y-71839491D01*
X117946690Y-71820593D01*
X118022448Y-71792337D01*
X118022448Y-71792336D01*
X118022450Y-71792336D01*
X118130472Y-71711472D01*
X118211336Y-71603450D01*
X118223473Y-71570911D01*
X118244756Y-71513846D01*
X118258491Y-71477022D01*
X118264500Y-71421130D01*
X118264500Y-71421126D01*
X118463499Y-71421126D01*
X118469508Y-71477016D01*
X118469510Y-71477027D01*
X118516662Y-71603448D01*
X118536309Y-71629693D01*
X118597528Y-71711472D01*
X118597531Y-71711474D01*
X118705551Y-71792337D01*
X118831972Y-71839489D01*
X118831973Y-71839489D01*
X118831978Y-71839491D01*
X118887870Y-71845500D01*
X118887874Y-71845500D01*
X119415126Y-71845500D01*
X119415130Y-71845500D01*
X119471022Y-71839491D01*
X119521690Y-71820593D01*
X119597448Y-71792337D01*
X119597448Y-71792336D01*
X119597450Y-71792336D01*
X119705472Y-71711472D01*
X119781303Y-71610172D01*
X119831313Y-71574918D01*
X119860558Y-71570500D01*
X120853639Y-71570500D01*
X120911830Y-71589407D01*
X120942259Y-71625371D01*
X120980327Y-71701821D01*
X121103236Y-71864579D01*
X121253959Y-72001981D01*
X121427363Y-72109348D01*
X121617544Y-72183024D01*
X121818024Y-72220500D01*
X122021976Y-72220500D01*
X122222456Y-72183024D01*
X122412637Y-72109348D01*
X122586041Y-72001981D01*
X122736764Y-71864579D01*
X122859673Y-71701821D01*
X122950582Y-71519250D01*
X123006397Y-71323083D01*
X123025215Y-71120000D01*
X123006397Y-70916917D01*
X122950582Y-70720750D01*
X122859673Y-70538179D01*
X122736764Y-70375421D01*
X122586041Y-70238019D01*
X122412637Y-70130652D01*
X122260340Y-70071652D01*
X122212910Y-70033001D01*
X122197256Y-69973852D01*
X122219359Y-69916799D01*
X122270481Y-69883711D01*
X122383490Y-69853430D01*
X122597577Y-69753600D01*
X122681372Y-69694925D01*
X122052533Y-69066086D01*
X122062315Y-69064680D01*
X122193100Y-69004952D01*
X122301761Y-68910798D01*
X122379493Y-68789844D01*
X122403076Y-68709523D01*
X123034925Y-69341372D01*
X123093600Y-69257577D01*
X123193430Y-69043489D01*
X123254570Y-68815313D01*
X123275157Y-68580003D01*
X123275157Y-68579996D01*
X123254570Y-68344686D01*
X123193429Y-68116505D01*
X123093605Y-67902432D01*
X123093602Y-67902426D01*
X123034926Y-67818626D01*
X122403076Y-68450475D01*
X122379493Y-68370156D01*
X122301761Y-68249202D01*
X122193100Y-68155048D01*
X122062315Y-68095320D01*
X122052530Y-68093913D01*
X122681372Y-67465072D01*
X122597577Y-67406399D01*
X122383489Y-67306568D01*
X122270481Y-67276288D01*
X122219166Y-67242963D01*
X122197240Y-67185842D01*
X122213076Y-67126741D01*
X122260339Y-67088347D01*
X122412637Y-67029348D01*
X122586041Y-66921981D01*
X122736764Y-66784579D01*
X122859673Y-66621821D01*
X122950582Y-66439250D01*
X123006397Y-66243083D01*
X123025215Y-66040000D01*
X123006397Y-65836917D01*
X122950582Y-65640750D01*
X122859673Y-65458179D01*
X122736764Y-65295421D01*
X122586041Y-65158019D01*
X122412637Y-65050652D01*
X122222456Y-64976976D01*
X122222455Y-64976975D01*
X122222453Y-64976975D01*
X122021976Y-64939500D01*
X121818024Y-64939500D01*
X121617546Y-64976975D01*
X121578747Y-64992006D01*
X121427363Y-65050652D01*
X121253959Y-65158019D01*
X121103236Y-65295421D01*
X121084290Y-65320510D01*
X120980328Y-65458177D01*
X120980323Y-65458186D01*
X120942260Y-65534628D01*
X120899397Y-65578291D01*
X120853639Y-65589500D01*
X119860558Y-65589500D01*
X119802367Y-65570593D01*
X119781304Y-65549828D01*
X119734311Y-65487053D01*
X119705472Y-65448528D01*
X119684255Y-65432645D01*
X119597448Y-65367662D01*
X119471027Y-65320510D01*
X119471022Y-65320509D01*
X119471020Y-65320508D01*
X119471016Y-65320508D01*
X119445744Y-65317791D01*
X119415130Y-65314500D01*
X118887870Y-65314500D01*
X118860943Y-65317394D01*
X118831983Y-65320508D01*
X118831972Y-65320510D01*
X118705551Y-65367662D01*
X118597531Y-65448525D01*
X118597525Y-65448531D01*
X118516662Y-65556551D01*
X118469510Y-65682972D01*
X118469508Y-65682983D01*
X118463500Y-65738873D01*
X118463500Y-66341126D01*
X118463499Y-66341126D01*
X118469508Y-66397016D01*
X118469510Y-66397027D01*
X118516662Y-66523448D01*
X118556901Y-66577201D01*
X118597528Y-66631472D01*
X118597531Y-66631474D01*
X118705551Y-66712337D01*
X118831972Y-66759489D01*
X118831973Y-66759489D01*
X118831978Y-66759491D01*
X118887870Y-66765500D01*
X118887874Y-66765500D01*
X119415126Y-66765500D01*
X119415130Y-66765500D01*
X119471022Y-66759491D01*
X119544745Y-66731994D01*
X119597448Y-66712337D01*
X119597448Y-66712336D01*
X119597450Y-66712336D01*
X119705472Y-66631472D01*
X119781303Y-66530172D01*
X119831313Y-66494918D01*
X119860558Y-66490500D01*
X120853639Y-66490500D01*
X120911830Y-66509407D01*
X120942259Y-66545371D01*
X120980327Y-66621821D01*
X121103236Y-66784579D01*
X121253959Y-66921981D01*
X121427363Y-67029348D01*
X121579658Y-67088347D01*
X121627089Y-67126997D01*
X121642743Y-67186146D01*
X121620640Y-67243200D01*
X121569519Y-67276288D01*
X121456503Y-67306570D01*
X121242430Y-67406394D01*
X121242411Y-67406406D01*
X121158626Y-67465072D01*
X121787467Y-68093913D01*
X121777685Y-68095320D01*
X121646900Y-68155048D01*
X121538239Y-68249202D01*
X121460507Y-68370156D01*
X121436922Y-68450476D01*
X120805072Y-67818626D01*
X120746406Y-67902411D01*
X120746394Y-67902430D01*
X120646570Y-68116505D01*
X120585429Y-68344686D01*
X120564843Y-68579996D01*
X120564843Y-68580003D01*
X120585429Y-68815313D01*
X120646569Y-69043489D01*
X120746399Y-69257577D01*
X120805072Y-69341372D01*
X121436922Y-68709521D01*
X121460507Y-68789844D01*
X121538239Y-68910798D01*
X121646900Y-69004952D01*
X121777685Y-69064680D01*
X121787466Y-69066086D01*
X121158626Y-69694926D01*
X121242422Y-69753600D01*
X121456509Y-69853430D01*
X121569518Y-69883711D01*
X121620832Y-69917035D01*
X121642759Y-69974156D01*
X121626924Y-70033257D01*
X121579657Y-70071653D01*
X121427363Y-70130652D01*
X121253959Y-70238019D01*
X121103236Y-70375421D01*
X121084290Y-70400510D01*
X120980328Y-70538177D01*
X120980323Y-70538186D01*
X120942260Y-70614628D01*
X120899397Y-70658291D01*
X120853639Y-70669500D01*
X119860558Y-70669500D01*
X119802367Y-70650593D01*
X119781304Y-70629828D01*
X119712702Y-70538186D01*
X119705472Y-70528528D01*
X119705468Y-70528525D01*
X119597448Y-70447662D01*
X119471027Y-70400510D01*
X119471022Y-70400509D01*
X119471020Y-70400508D01*
X119471016Y-70400508D01*
X119445744Y-70397791D01*
X119415130Y-70394500D01*
X118887870Y-70394500D01*
X118860943Y-70397394D01*
X118831983Y-70400508D01*
X118831972Y-70400510D01*
X118705551Y-70447662D01*
X118597531Y-70528525D01*
X118597525Y-70528531D01*
X118516662Y-70636551D01*
X118469510Y-70762972D01*
X118469508Y-70762983D01*
X118463500Y-70818873D01*
X118463500Y-71421126D01*
X118463499Y-71421126D01*
X118264500Y-71421126D01*
X118264500Y-70818870D01*
X118258491Y-70762978D01*
X118223626Y-70669500D01*
X118211337Y-70636551D01*
X118137702Y-70538186D01*
X118130472Y-70528528D01*
X118130468Y-70528525D01*
X118022448Y-70447662D01*
X117896027Y-70400510D01*
X117896022Y-70400509D01*
X117896020Y-70400508D01*
X117896016Y-70400508D01*
X117870744Y-70397791D01*
X117840130Y-70394500D01*
X117312870Y-70394500D01*
X117285943Y-70397394D01*
X117256983Y-70400508D01*
X117256972Y-70400510D01*
X117130551Y-70447662D01*
X117022531Y-70528525D01*
X117022524Y-70528532D01*
X116947747Y-70628422D01*
X116897738Y-70663675D01*
X116836559Y-70662801D01*
X116798490Y-70639097D01*
X115047911Y-68888518D01*
X113290909Y-67131516D01*
X113290905Y-67131513D01*
X113288424Y-67129032D01*
X113288424Y-67129031D01*
X113268343Y-67108951D01*
X113268342Y-67108950D01*
X113246847Y-67097997D01*
X113233608Y-67089884D01*
X113227581Y-67085505D01*
X113214090Y-67075704D01*
X113214088Y-67075703D01*
X113191142Y-67068247D01*
X113176788Y-67062301D01*
X113155306Y-67051354D01*
X113131474Y-67047579D01*
X113116374Y-67043953D01*
X113093437Y-67036500D01*
X113093433Y-67036500D01*
X113061519Y-67036500D01*
X112876900Y-67036500D01*
X112818709Y-67017593D01*
X112806897Y-67007504D01*
X112758343Y-66958951D01*
X112758342Y-66958950D01*
X112645304Y-66901354D01*
X112645306Y-66901354D01*
X112635372Y-66899781D01*
X112580856Y-66872002D01*
X112553080Y-66817485D01*
X112562652Y-66757053D01*
X112605917Y-66713790D01*
X112635376Y-66704218D01*
X112645304Y-66702646D01*
X112758342Y-66645050D01*
X112848050Y-66555342D01*
X112879022Y-66494555D01*
X112922287Y-66451290D01*
X112967232Y-66440500D01*
X116841988Y-66440500D01*
X116900179Y-66459407D01*
X116934746Y-66504903D01*
X116941663Y-66523449D01*
X116981901Y-66577201D01*
X117022528Y-66631472D01*
X117022531Y-66631474D01*
X117130551Y-66712337D01*
X117256972Y-66759489D01*
X117256973Y-66759489D01*
X117256978Y-66759491D01*
X117312870Y-66765500D01*
X117312874Y-66765500D01*
X117840126Y-66765500D01*
X117840130Y-66765500D01*
X117896022Y-66759491D01*
X117969745Y-66731994D01*
X118022448Y-66712337D01*
X118022448Y-66712336D01*
X118022450Y-66712336D01*
X118130472Y-66631472D01*
X118211336Y-66523450D01*
X118226572Y-66482602D01*
X118258489Y-66397027D01*
X118258488Y-66397027D01*
X118258491Y-66397022D01*
X118264500Y-66341130D01*
X118264500Y-65738870D01*
X118258491Y-65682978D01*
X118240135Y-65633763D01*
X118211337Y-65556551D01*
X118137702Y-65458186D01*
X118130472Y-65448528D01*
X118109255Y-65432645D01*
X118022448Y-65367662D01*
X117896027Y-65320510D01*
X117896022Y-65320509D01*
X117896020Y-65320508D01*
X117896016Y-65320508D01*
X117870744Y-65317791D01*
X117840130Y-65314500D01*
X117312870Y-65314500D01*
X117285943Y-65317394D01*
X117256983Y-65320508D01*
X117256972Y-65320510D01*
X117130551Y-65367662D01*
X117022531Y-65448525D01*
X117022525Y-65448531D01*
X116941663Y-65556550D01*
X116934746Y-65575097D01*
X116896695Y-65623011D01*
X116841988Y-65639500D01*
X112685060Y-65639500D01*
X112653330Y-65631879D01*
X112652719Y-65633763D01*
X112645305Y-65631354D01*
X112635372Y-65629781D01*
X112580856Y-65602002D01*
X112553080Y-65547485D01*
X112562652Y-65487053D01*
X112605917Y-65443790D01*
X112635376Y-65434218D01*
X112645304Y-65432646D01*
X112758342Y-65375050D01*
X112848050Y-65285342D01*
X112905646Y-65172304D01*
X112920500Y-65078519D01*
X112920499Y-64715482D01*
X112905646Y-64621696D01*
X112848050Y-64508658D01*
X112758342Y-64418950D01*
X112645304Y-64361354D01*
X112645306Y-64361354D01*
X112635372Y-64359781D01*
X112580856Y-64332002D01*
X112553080Y-64277485D01*
X112562652Y-64217053D01*
X112605917Y-64173790D01*
X112635376Y-64164218D01*
X112645304Y-64162646D01*
X112758342Y-64105050D01*
X112848050Y-64015342D01*
X112905646Y-63902304D01*
X112920500Y-63808519D01*
X112920499Y-63500000D01*
X120814785Y-63500000D01*
X120833603Y-63703083D01*
X120863603Y-63808522D01*
X120889419Y-63899252D01*
X120953885Y-64028719D01*
X120980327Y-64081821D01*
X121103236Y-64244579D01*
X121253959Y-64381981D01*
X121427363Y-64489348D01*
X121617544Y-64563024D01*
X121818024Y-64600500D01*
X122021976Y-64600500D01*
X122222456Y-64563024D01*
X122412637Y-64489348D01*
X122586041Y-64381981D01*
X122736764Y-64244579D01*
X122859673Y-64081821D01*
X122950582Y-63899250D01*
X123006397Y-63703083D01*
X123025215Y-63500000D01*
X123006397Y-63296917D01*
X122950582Y-63100750D01*
X122859673Y-62918179D01*
X122736764Y-62755421D01*
X122586041Y-62618019D01*
X122412637Y-62510652D01*
X122222456Y-62436976D01*
X122222455Y-62436975D01*
X122222453Y-62436975D01*
X122021976Y-62399500D01*
X121818024Y-62399500D01*
X121617546Y-62436975D01*
X121617536Y-62436979D01*
X121427363Y-62510652D01*
X121253959Y-62618019D01*
X121103236Y-62755421D01*
X121099777Y-62760002D01*
X120980328Y-62918177D01*
X120980323Y-62918186D01*
X120889419Y-63100747D01*
X120889418Y-63100750D01*
X120833603Y-63296917D01*
X120814785Y-63500000D01*
X112920499Y-63500000D01*
X112920499Y-63445482D01*
X112905646Y-63351696D01*
X112848050Y-63238658D01*
X112758342Y-63148950D01*
X112645304Y-63091354D01*
X112645306Y-63091354D01*
X112635372Y-63089781D01*
X112580856Y-63062002D01*
X112553080Y-63007485D01*
X112562652Y-62947053D01*
X112605917Y-62903790D01*
X112635376Y-62894218D01*
X112645304Y-62892646D01*
X112758342Y-62835050D01*
X112848050Y-62745342D01*
X112905646Y-62632304D01*
X112920500Y-62538519D01*
X112920499Y-62175482D01*
X112905646Y-62081696D01*
X112848050Y-61968658D01*
X112758342Y-61878950D01*
X112645304Y-61821354D01*
X112645306Y-61821354D01*
X112635372Y-61819781D01*
X112580856Y-61792002D01*
X112553080Y-61737485D01*
X112562652Y-61677053D01*
X112605917Y-61633790D01*
X112635376Y-61624218D01*
X112645304Y-61622646D01*
X112758342Y-61565050D01*
X112848050Y-61475342D01*
X112905646Y-61362304D01*
X112920500Y-61268519D01*
X112920499Y-60960000D01*
X120814785Y-60960000D01*
X120833603Y-61163083D01*
X120887880Y-61353846D01*
X120889419Y-61359252D01*
X120953885Y-61488719D01*
X120980327Y-61541821D01*
X121103236Y-61704579D01*
X121253959Y-61841981D01*
X121427363Y-61949348D01*
X121617544Y-62023024D01*
X121818024Y-62060500D01*
X122021976Y-62060500D01*
X122222456Y-62023024D01*
X122412637Y-61949348D01*
X122586041Y-61841981D01*
X122736764Y-61704579D01*
X122859673Y-61541821D01*
X122950582Y-61359250D01*
X123006397Y-61163083D01*
X123025215Y-60960000D01*
X123006397Y-60756917D01*
X122950582Y-60560750D01*
X122859673Y-60378179D01*
X122736764Y-60215421D01*
X122586041Y-60078019D01*
X122412637Y-59970652D01*
X122222456Y-59896976D01*
X122222455Y-59896975D01*
X122222453Y-59896975D01*
X122021976Y-59859500D01*
X121818024Y-59859500D01*
X121617546Y-59896975D01*
X121547632Y-59924059D01*
X121427363Y-59970652D01*
X121314716Y-60040400D01*
X121253959Y-60078019D01*
X121103237Y-60215420D01*
X120980328Y-60378177D01*
X120980323Y-60378186D01*
X120889419Y-60560747D01*
X120889418Y-60560750D01*
X120833603Y-60756917D01*
X120814785Y-60960000D01*
X112920499Y-60960000D01*
X112920499Y-60905482D01*
X112905646Y-60811696D01*
X112848050Y-60698658D01*
X112758342Y-60608950D01*
X112645304Y-60551354D01*
X112645306Y-60551354D01*
X112635372Y-60549781D01*
X112580856Y-60522002D01*
X112553080Y-60467485D01*
X112562652Y-60407053D01*
X112605917Y-60363790D01*
X112635376Y-60354218D01*
X112645304Y-60352646D01*
X112758342Y-60295050D01*
X112758347Y-60295044D01*
X112758816Y-60294705D01*
X112759374Y-60294523D01*
X112765283Y-60291513D01*
X112765759Y-60292448D01*
X112817005Y-60275794D01*
X112875197Y-60294698D01*
X112877283Y-60296255D01*
X112879375Y-60297861D01*
X113013291Y-60353330D01*
X113156999Y-60372250D01*
X113156999Y-60372249D01*
X113157000Y-60372250D01*
X113300709Y-60353330D01*
X113434625Y-60297861D01*
X113549621Y-60209621D01*
X113637861Y-60094625D01*
X113693330Y-59960709D01*
X113712250Y-59817000D01*
X113693330Y-59673291D01*
X113637861Y-59539375D01*
X113549621Y-59424379D01*
X113434625Y-59336139D01*
X113434621Y-59336137D01*
X113300709Y-59280670D01*
X113300708Y-59280669D01*
X113157000Y-59261750D01*
X113013291Y-59280669D01*
X113013290Y-59280670D01*
X112879378Y-59336137D01*
X112879371Y-59336141D01*
X112877275Y-59337750D01*
X112875490Y-59338381D01*
X112873753Y-59339385D01*
X112873567Y-59339062D01*
X112819598Y-59358171D01*
X112765463Y-59342133D01*
X112765283Y-59342487D01*
X112763373Y-59341513D01*
X112760933Y-59340791D01*
X112758823Y-59339300D01*
X112758343Y-59338951D01*
X112758342Y-59338950D01*
X112645304Y-59281354D01*
X112645305Y-59281354D01*
X112551522Y-59266500D01*
X112551519Y-59266500D01*
X112527293Y-59266500D01*
X112469102Y-59247593D01*
X112433138Y-59198093D01*
X112429140Y-59154578D01*
X112442250Y-59055000D01*
X112442250Y-59054999D01*
X112423330Y-58911291D01*
X112367861Y-58777375D01*
X112279621Y-58662379D01*
X112164625Y-58574139D01*
X112164621Y-58574137D01*
X112030709Y-58518670D01*
X112030708Y-58518669D01*
X111887000Y-58499750D01*
X111743291Y-58518669D01*
X111743290Y-58518670D01*
X111609378Y-58574137D01*
X111609374Y-58574139D01*
X111494381Y-58662377D01*
X111494377Y-58662381D01*
X111406139Y-58777374D01*
X111406137Y-58777378D01*
X111350670Y-58911289D01*
X111347052Y-58938766D01*
X111330709Y-58981590D01*
X111328714Y-58984517D01*
X111327519Y-58986271D01*
X111292205Y-59034120D01*
X111288742Y-59040674D01*
X111288353Y-59040468D01*
X111287350Y-59042455D01*
X111287746Y-59042646D01*
X111284528Y-59049327D01*
X111266992Y-59106177D01*
X111247355Y-59162297D01*
X111245976Y-59169587D01*
X111245544Y-59169505D01*
X111245171Y-59171701D01*
X111245605Y-59171767D01*
X111244025Y-59182252D01*
X111242728Y-59184845D01*
X111242318Y-59186176D01*
X111242096Y-59186107D01*
X111216658Y-59236976D01*
X111162351Y-59265162D01*
X111146130Y-59266500D01*
X110838479Y-59266500D01*
X110838476Y-59266501D01*
X110744700Y-59281352D01*
X110744695Y-59281354D01*
X110631659Y-59338949D01*
X110541949Y-59428659D01*
X110484354Y-59541695D01*
X110469500Y-59635477D01*
X110469500Y-59998520D01*
X110469501Y-59998523D01*
X110484352Y-60092299D01*
X110484354Y-60092304D01*
X110541950Y-60205342D01*
X110631658Y-60295050D01*
X110744696Y-60352646D01*
X110754625Y-60354218D01*
X110809140Y-60381993D01*
X110836920Y-60436508D01*
X110827350Y-60496941D01*
X110784087Y-60540207D01*
X110754629Y-60549780D01*
X110744699Y-60551353D01*
X110744696Y-60551353D01*
X110736329Y-60555617D01*
X110675897Y-60565186D01*
X110653505Y-60558869D01*
X110633709Y-60550670D01*
X110633706Y-60550669D01*
X110633704Y-60550669D01*
X110536150Y-60537825D01*
X110480925Y-60511483D01*
X110479069Y-60509675D01*
X110030496Y-60061101D01*
X110002719Y-60006585D01*
X110001500Y-59991098D01*
X110001500Y-58648253D01*
X110001499Y-58648252D01*
X110001500Y-58648249D01*
X109994041Y-58625293D01*
X109990421Y-58610216D01*
X109986646Y-58586378D01*
X109975693Y-58564883D01*
X109969752Y-58550543D01*
X109962296Y-58527593D01*
X109962294Y-58527590D01*
X109948112Y-58508068D01*
X109939997Y-58494825D01*
X109929050Y-58473340D01*
X109922983Y-58467273D01*
X109906486Y-58450775D01*
X109875711Y-58420000D01*
X120814785Y-58420000D01*
X120833603Y-58623083D01*
X120889418Y-58819250D01*
X120980327Y-59001821D01*
X121103236Y-59164579D01*
X121253959Y-59301981D01*
X121427363Y-59409348D01*
X121617544Y-59483024D01*
X121818024Y-59520500D01*
X122021976Y-59520500D01*
X122222456Y-59483024D01*
X122412637Y-59409348D01*
X122586041Y-59301981D01*
X122736764Y-59164579D01*
X122859673Y-59001821D01*
X122950582Y-58819250D01*
X123006397Y-58623083D01*
X123025215Y-58420000D01*
X123006397Y-58216917D01*
X122950582Y-58020750D01*
X122859673Y-57838179D01*
X122736764Y-57675421D01*
X122586041Y-57538019D01*
X122412637Y-57430652D01*
X122222456Y-57356976D01*
X122222455Y-57356975D01*
X122222453Y-57356975D01*
X122021976Y-57319500D01*
X121818024Y-57319500D01*
X121617546Y-57356975D01*
X121617536Y-57356979D01*
X121427363Y-57430652D01*
X121303456Y-57507372D01*
X121253959Y-57538019D01*
X121103237Y-57675420D01*
X120980328Y-57838177D01*
X120980323Y-57838186D01*
X120889419Y-58020747D01*
X120889418Y-58020750D01*
X120880953Y-58050500D01*
X120833603Y-58216917D01*
X120823027Y-58331058D01*
X120814785Y-58420000D01*
X109875711Y-58420000D01*
X108297742Y-56842031D01*
X108277661Y-56821951D01*
X108277660Y-56821950D01*
X108256165Y-56810997D01*
X108242926Y-56802884D01*
X108236899Y-56798505D01*
X108223408Y-56788704D01*
X108223406Y-56788703D01*
X108200460Y-56781247D01*
X108186106Y-56775301D01*
X108164624Y-56764354D01*
X108140792Y-56760579D01*
X108125692Y-56756953D01*
X108102755Y-56749500D01*
X108102751Y-56749500D01*
X108070837Y-56749500D01*
X99901900Y-56749500D01*
X99843709Y-56730593D01*
X99831896Y-56720504D01*
X97413424Y-54302031D01*
X97393343Y-54281951D01*
X97393342Y-54281950D01*
X97371847Y-54270997D01*
X97358608Y-54262884D01*
X97335894Y-54246382D01*
X97299929Y-54196883D01*
X97299928Y-54135697D01*
X97327385Y-54093128D01*
X97336764Y-54084579D01*
X97459673Y-53921821D01*
X97550582Y-53739250D01*
X97606397Y-53543083D01*
X97625215Y-53340000D01*
X97606397Y-53136917D01*
X97550582Y-52940750D01*
X97459673Y-52758179D01*
X97336764Y-52595421D01*
X97186041Y-52458019D01*
X97012637Y-52350652D01*
X96847850Y-52286813D01*
X96800421Y-52248163D01*
X96784767Y-52189015D01*
X96806870Y-52131961D01*
X96858286Y-52098795D01*
X96883615Y-52095500D01*
X121061923Y-52095500D01*
X121120114Y-52114407D01*
X121156078Y-52163907D01*
X121160546Y-52203129D01*
X121158626Y-52225072D01*
X121787467Y-52853913D01*
X121777685Y-52855320D01*
X121646900Y-52915048D01*
X121538239Y-53009202D01*
X121460507Y-53130156D01*
X121436922Y-53210476D01*
X120805072Y-52578626D01*
X120746406Y-52662411D01*
X120746394Y-52662430D01*
X120646570Y-52876505D01*
X120585429Y-53104686D01*
X120564843Y-53339996D01*
X120564843Y-53340003D01*
X120585429Y-53575313D01*
X120646569Y-53803489D01*
X120746399Y-54017577D01*
X120805072Y-54101372D01*
X121436922Y-53469521D01*
X121460507Y-53549844D01*
X121538239Y-53670798D01*
X121646900Y-53764952D01*
X121777685Y-53824680D01*
X121787466Y-53826086D01*
X121158626Y-54454926D01*
X121242422Y-54513600D01*
X121456509Y-54613430D01*
X121569518Y-54643711D01*
X121620832Y-54677035D01*
X121642759Y-54734156D01*
X121626924Y-54793257D01*
X121579657Y-54831653D01*
X121427363Y-54890652D01*
X121253959Y-54998018D01*
X121253959Y-54998019D01*
X121103237Y-55135420D01*
X120980328Y-55298177D01*
X120980323Y-55298186D01*
X120889419Y-55480747D01*
X120833603Y-55676917D01*
X120826878Y-55749498D01*
X120814785Y-55880000D01*
X120833603Y-56083083D01*
X120889418Y-56279250D01*
X120980327Y-56461821D01*
X121103236Y-56624579D01*
X121253959Y-56761981D01*
X121427363Y-56869348D01*
X121617544Y-56943024D01*
X121818024Y-56980500D01*
X122021976Y-56980500D01*
X122222456Y-56943024D01*
X122412637Y-56869348D01*
X122586041Y-56761981D01*
X122736764Y-56624579D01*
X122859673Y-56461821D01*
X122950582Y-56279250D01*
X123006397Y-56083083D01*
X123025215Y-55880000D01*
X123006397Y-55676917D01*
X122950582Y-55480750D01*
X122859673Y-55298179D01*
X122736764Y-55135421D01*
X122586041Y-54998019D01*
X122412637Y-54890652D01*
X122260340Y-54831652D01*
X122212910Y-54793001D01*
X122197256Y-54733852D01*
X122219359Y-54676799D01*
X122270481Y-54643711D01*
X122383490Y-54613430D01*
X122597577Y-54513600D01*
X122681372Y-54454925D01*
X122052533Y-53826086D01*
X122062315Y-53824680D01*
X122193100Y-53764952D01*
X122301761Y-53670798D01*
X122379493Y-53549844D01*
X122403076Y-53469523D01*
X123034925Y-54101372D01*
X123093600Y-54017577D01*
X123193430Y-53803489D01*
X123254570Y-53575313D01*
X123275157Y-53340003D01*
X123275157Y-53339996D01*
X123254570Y-53104686D01*
X123193429Y-52876505D01*
X123093605Y-52662432D01*
X123093602Y-52662426D01*
X123034926Y-52578626D01*
X122403076Y-53210475D01*
X122379493Y-53130156D01*
X122301761Y-53009202D01*
X122193100Y-52915048D01*
X122062315Y-52855320D01*
X122052530Y-52853913D01*
X122681373Y-52225071D01*
X122679454Y-52203128D01*
X122693218Y-52143511D01*
X122739395Y-52103370D01*
X122778077Y-52095500D01*
X124335500Y-52095500D01*
X124393691Y-52114407D01*
X124429655Y-52163907D01*
X124434500Y-52194500D01*
X124434500Y-101475500D01*
X124415593Y-101533691D01*
X124366093Y-101569655D01*
X124335500Y-101574500D01*
X69339500Y-101574500D01*
X69281309Y-101555593D01*
X69245345Y-101506093D01*
X69240500Y-101475500D01*
X69240500Y-99310000D01*
X69789364Y-99310000D01*
X69846569Y-99523489D01*
X69946399Y-99737577D01*
X70081886Y-99931073D01*
X70248926Y-100098113D01*
X70442422Y-100233600D01*
X70656509Y-100333430D01*
X70870000Y-100390634D01*
X70870000Y-99495501D01*
X70977685Y-99544680D01*
X71084237Y-99560000D01*
X71155763Y-99560000D01*
X71262315Y-99544680D01*
X71370000Y-99495501D01*
X71370000Y-100390633D01*
X71583490Y-100333430D01*
X71797577Y-100233600D01*
X71991073Y-100098113D01*
X72158113Y-99931073D01*
X72293601Y-99737576D01*
X72293602Y-99737574D01*
X72300275Y-99723265D01*
X72342003Y-99678516D01*
X72402064Y-99666841D01*
X72457517Y-99692698D01*
X72479725Y-99723265D01*
X72486397Y-99737574D01*
X72486398Y-99737576D01*
X72621886Y-99931073D01*
X72788926Y-100098113D01*
X72982422Y-100233600D01*
X73196509Y-100333430D01*
X73410000Y-100390634D01*
X73410000Y-99495501D01*
X73517685Y-99544680D01*
X73624237Y-99560000D01*
X73695763Y-99560000D01*
X73802315Y-99544680D01*
X73910000Y-99495501D01*
X73910000Y-100390633D01*
X74123490Y-100333430D01*
X74337577Y-100233600D01*
X74531073Y-100098113D01*
X74553185Y-100076001D01*
X90657722Y-100076001D01*
X90676762Y-100232816D01*
X90676763Y-100232817D01*
X90732780Y-100380523D01*
X90822515Y-100510528D01*
X90822516Y-100510529D01*
X90822517Y-100510530D01*
X90940760Y-100615283D01*
X91080635Y-100688696D01*
X91234015Y-100726500D01*
X91234018Y-100726500D01*
X91391982Y-100726500D01*
X91391985Y-100726500D01*
X91545365Y-100688696D01*
X91685240Y-100615283D01*
X91803483Y-100510530D01*
X91893220Y-100380523D01*
X91949237Y-100232818D01*
X91968278Y-100076000D01*
X91949237Y-99919182D01*
X91893220Y-99771477D01*
X91803726Y-99641822D01*
X91803484Y-99641471D01*
X91685241Y-99536718D01*
X91685240Y-99536717D01*
X91615302Y-99500010D01*
X91545364Y-99463303D01*
X91391987Y-99425500D01*
X91391985Y-99425500D01*
X91234015Y-99425500D01*
X91234012Y-99425500D01*
X91080635Y-99463303D01*
X90940758Y-99536718D01*
X90822515Y-99641471D01*
X90732780Y-99771476D01*
X90676763Y-99919182D01*
X90676762Y-99919183D01*
X90657722Y-100075998D01*
X90657722Y-100076001D01*
X74553185Y-100076001D01*
X74698113Y-99931073D01*
X74833600Y-99737577D01*
X74933430Y-99523489D01*
X74990636Y-99310000D01*
X74093686Y-99310000D01*
X74119493Y-99269844D01*
X74160000Y-99131889D01*
X74160000Y-99060001D01*
X89387722Y-99060001D01*
X89406762Y-99216816D01*
X89406763Y-99216817D01*
X89462780Y-99364523D01*
X89552515Y-99494528D01*
X89552516Y-99494529D01*
X89552517Y-99494530D01*
X89670760Y-99599283D01*
X89810635Y-99672696D01*
X89964015Y-99710500D01*
X89964018Y-99710500D01*
X90121982Y-99710500D01*
X90121985Y-99710500D01*
X90275365Y-99672696D01*
X90415240Y-99599283D01*
X90533483Y-99494530D01*
X90623220Y-99364523D01*
X90679237Y-99216818D01*
X90698278Y-99060000D01*
X95414785Y-99060000D01*
X95433603Y-99263083D01*
X95489418Y-99459250D01*
X95580327Y-99641821D01*
X95703236Y-99804579D01*
X95853959Y-99941981D01*
X96027363Y-100049348D01*
X96217544Y-100123024D01*
X96418024Y-100160500D01*
X96621976Y-100160500D01*
X96822456Y-100123024D01*
X97012637Y-100049348D01*
X97186041Y-99941981D01*
X97336764Y-99804579D01*
X97459673Y-99641821D01*
X97550582Y-99459250D01*
X97606397Y-99263083D01*
X97625215Y-99060000D01*
X120814785Y-99060000D01*
X120833603Y-99263083D01*
X120889418Y-99459250D01*
X120980327Y-99641821D01*
X121103236Y-99804579D01*
X121253959Y-99941981D01*
X121427363Y-100049348D01*
X121617544Y-100123024D01*
X121818024Y-100160500D01*
X122021976Y-100160500D01*
X122222456Y-100123024D01*
X122412637Y-100049348D01*
X122586041Y-99941981D01*
X122736764Y-99804579D01*
X122859673Y-99641821D01*
X122950582Y-99459250D01*
X123006397Y-99263083D01*
X123025215Y-99060000D01*
X123006397Y-98856917D01*
X122950582Y-98660750D01*
X122859673Y-98478179D01*
X122736764Y-98315421D01*
X122586041Y-98178019D01*
X122412637Y-98070652D01*
X122222456Y-97996976D01*
X122222455Y-97996975D01*
X122222453Y-97996975D01*
X122021976Y-97959500D01*
X121818024Y-97959500D01*
X121617546Y-97996975D01*
X121553243Y-98021886D01*
X121427363Y-98070652D01*
X121253958Y-98178019D01*
X121253959Y-98178019D01*
X121103237Y-98315420D01*
X120980328Y-98478177D01*
X120980323Y-98478186D01*
X120889419Y-98660747D01*
X120889418Y-98660750D01*
X120833603Y-98856917D01*
X120814785Y-99060000D01*
X97625215Y-99060000D01*
X97606397Y-98856917D01*
X97550582Y-98660750D01*
X97459673Y-98478179D01*
X97336764Y-98315421D01*
X97186041Y-98178019D01*
X97012637Y-98070652D01*
X96822456Y-97996976D01*
X96822455Y-97996975D01*
X96822453Y-97996975D01*
X96621976Y-97959500D01*
X96418024Y-97959500D01*
X96217546Y-97996975D01*
X96153243Y-98021886D01*
X96027363Y-98070652D01*
X95853959Y-98178018D01*
X95853959Y-98178019D01*
X95703237Y-98315420D01*
X95580328Y-98478177D01*
X95580323Y-98478186D01*
X95489419Y-98660747D01*
X95489418Y-98660750D01*
X95433603Y-98856917D01*
X95414785Y-99060000D01*
X90698278Y-99060000D01*
X90679237Y-98903182D01*
X90623220Y-98755477D01*
X90533483Y-98625470D01*
X90415240Y-98520717D01*
X90345302Y-98484010D01*
X90275364Y-98447303D01*
X90121987Y-98409500D01*
X90121985Y-98409500D01*
X89964015Y-98409500D01*
X89964012Y-98409500D01*
X89810635Y-98447303D01*
X89670758Y-98520718D01*
X89552515Y-98625471D01*
X89462780Y-98755476D01*
X89406763Y-98903182D01*
X89406762Y-98903183D01*
X89387722Y-99059998D01*
X89387722Y-99060001D01*
X74160000Y-99060001D01*
X74160000Y-98988111D01*
X74119493Y-98850156D01*
X74093686Y-98810000D01*
X74990636Y-98810000D01*
X74933429Y-98596505D01*
X74833605Y-98382432D01*
X74833601Y-98382424D01*
X74698113Y-98188926D01*
X74553188Y-98044001D01*
X90657722Y-98044001D01*
X90676762Y-98200816D01*
X90676763Y-98200817D01*
X90732780Y-98348523D01*
X90822515Y-98478528D01*
X90822516Y-98478529D01*
X90822517Y-98478530D01*
X90940760Y-98583283D01*
X91080635Y-98656696D01*
X91234015Y-98694500D01*
X91234018Y-98694500D01*
X91391982Y-98694500D01*
X91391985Y-98694500D01*
X91545365Y-98656696D01*
X91685240Y-98583283D01*
X91803483Y-98478530D01*
X91893220Y-98348523D01*
X91949237Y-98200818D01*
X91968278Y-98044000D01*
X91949237Y-97887182D01*
X91893220Y-97739477D01*
X91848351Y-97674473D01*
X91803484Y-97609471D01*
X91800692Y-97606997D01*
X91685240Y-97504717D01*
X91615302Y-97468010D01*
X91545364Y-97431303D01*
X91391987Y-97393500D01*
X91391985Y-97393500D01*
X91234015Y-97393500D01*
X91234012Y-97393500D01*
X91080635Y-97431303D01*
X90940758Y-97504718D01*
X90822515Y-97609471D01*
X90732780Y-97739476D01*
X90676763Y-97887182D01*
X90676762Y-97887183D01*
X90657722Y-98043998D01*
X90657722Y-98044001D01*
X74553188Y-98044001D01*
X74531073Y-98021886D01*
X74337577Y-97886399D01*
X74123489Y-97786568D01*
X74010481Y-97756288D01*
X73959166Y-97722963D01*
X73937240Y-97665842D01*
X73953076Y-97606741D01*
X74000339Y-97568347D01*
X74152637Y-97509348D01*
X74326041Y-97401981D01*
X74476764Y-97264579D01*
X74599673Y-97101821D01*
X74690582Y-96919250D01*
X74746397Y-96723083D01*
X74765215Y-96520000D01*
X95414785Y-96520000D01*
X95433603Y-96723083D01*
X95489418Y-96919250D01*
X95580327Y-97101821D01*
X95703236Y-97264579D01*
X95853959Y-97401981D01*
X96027363Y-97509348D01*
X96217544Y-97583024D01*
X96418024Y-97620500D01*
X96621976Y-97620500D01*
X96822456Y-97583024D01*
X97012637Y-97509348D01*
X97186041Y-97401981D01*
X97336764Y-97264579D01*
X97459673Y-97101821D01*
X97550582Y-96919250D01*
X97606397Y-96723083D01*
X97625215Y-96520000D01*
X97606397Y-96316917D01*
X97570805Y-96191824D01*
X107089999Y-96191824D01*
X107096401Y-96251370D01*
X107096403Y-96251381D01*
X107146646Y-96386088D01*
X107146647Y-96386090D01*
X107232807Y-96501184D01*
X107232815Y-96501192D01*
X107347909Y-96587352D01*
X107347911Y-96587353D01*
X107482618Y-96637596D01*
X107482629Y-96637598D01*
X107542176Y-96644000D01*
X107869999Y-96644000D01*
X107870000Y-96643999D01*
X108370000Y-96643999D01*
X108370001Y-96644000D01*
X108697824Y-96644000D01*
X108757370Y-96637598D01*
X108757381Y-96637596D01*
X108892088Y-96587353D01*
X108892090Y-96587352D01*
X108982060Y-96520000D01*
X120814785Y-96520000D01*
X120833603Y-96723083D01*
X120889418Y-96919250D01*
X120980327Y-97101821D01*
X121103236Y-97264579D01*
X121253959Y-97401981D01*
X121427363Y-97509348D01*
X121617544Y-97583024D01*
X121818024Y-97620500D01*
X122021976Y-97620500D01*
X122222456Y-97583024D01*
X122412637Y-97509348D01*
X122586041Y-97401981D01*
X122736764Y-97264579D01*
X122859673Y-97101821D01*
X122950582Y-96919250D01*
X123006397Y-96723083D01*
X123025215Y-96520000D01*
X123006397Y-96316917D01*
X122950582Y-96120750D01*
X122859673Y-95938179D01*
X122736764Y-95775421D01*
X122586041Y-95638019D01*
X122412637Y-95530652D01*
X122222456Y-95456976D01*
X122222455Y-95456975D01*
X122222453Y-95456975D01*
X122021976Y-95419500D01*
X121818024Y-95419500D01*
X121617546Y-95456975D01*
X121585662Y-95469327D01*
X121427363Y-95530652D01*
X121365429Y-95569000D01*
X121253959Y-95638019D01*
X121103237Y-95775420D01*
X120980328Y-95938177D01*
X120980323Y-95938186D01*
X120889419Y-96120747D01*
X120889418Y-96120750D01*
X120868663Y-96193695D01*
X120833603Y-96316917D01*
X120816529Y-96501184D01*
X120814785Y-96520000D01*
X108982060Y-96520000D01*
X109007184Y-96501192D01*
X109007192Y-96501184D01*
X109093352Y-96386090D01*
X109093353Y-96386088D01*
X109143596Y-96251381D01*
X109143598Y-96251370D01*
X109150000Y-96191824D01*
X109150000Y-96168672D01*
X109539500Y-96168672D01*
X109539501Y-96168684D01*
X109554033Y-96241736D01*
X109554035Y-96241742D01*
X109609397Y-96324599D01*
X109609399Y-96324601D01*
X109692260Y-96379966D01*
X109747808Y-96391015D01*
X109765315Y-96394498D01*
X109765320Y-96394498D01*
X109765326Y-96394500D01*
X109765327Y-96394500D01*
X110874673Y-96394500D01*
X110874674Y-96394500D01*
X110947740Y-96379966D01*
X111030601Y-96324601D01*
X111044530Y-96303753D01*
X111071428Y-96263499D01*
X111119478Y-96225619D01*
X111153744Y-96219500D01*
X111762432Y-96219500D01*
X111762433Y-96219500D01*
X111785382Y-96212043D01*
X111800465Y-96208421D01*
X111824304Y-96204646D01*
X111845802Y-96193690D01*
X111860151Y-96187748D01*
X111883090Y-96180296D01*
X111902612Y-96166111D01*
X111915849Y-96158000D01*
X111937342Y-96147050D01*
X111954261Y-96130129D01*
X111954265Y-96130127D01*
X111959907Y-96124485D01*
X111959909Y-96124484D01*
X114104392Y-93980000D01*
X120814785Y-93980000D01*
X120833603Y-94183083D01*
X120889418Y-94379250D01*
X120980327Y-94561821D01*
X121103236Y-94724579D01*
X121253959Y-94861981D01*
X121427363Y-94969348D01*
X121617544Y-95043024D01*
X121818024Y-95080500D01*
X122021976Y-95080500D01*
X122222456Y-95043024D01*
X122412637Y-94969348D01*
X122586041Y-94861981D01*
X122736764Y-94724579D01*
X122859673Y-94561821D01*
X122950582Y-94379250D01*
X123006397Y-94183083D01*
X123025215Y-93980000D01*
X123006397Y-93776917D01*
X122950582Y-93580750D01*
X122859673Y-93398179D01*
X122736764Y-93235421D01*
X122586041Y-93098019D01*
X122412637Y-92990652D01*
X122222456Y-92916976D01*
X122222455Y-92916975D01*
X122222453Y-92916975D01*
X122021976Y-92879500D01*
X121818024Y-92879500D01*
X121617546Y-92916975D01*
X121547632Y-92944059D01*
X121427363Y-92990652D01*
X121281192Y-93081157D01*
X121253959Y-93098019D01*
X121103237Y-93235420D01*
X120980328Y-93398177D01*
X120980323Y-93398186D01*
X120889419Y-93580747D01*
X120889418Y-93580750D01*
X120833603Y-93776917D01*
X120814785Y-93980000D01*
X114104392Y-93980000D01*
X116214896Y-91869495D01*
X116269413Y-91841719D01*
X116284900Y-91840500D01*
X116841988Y-91840500D01*
X116900179Y-91859407D01*
X116934746Y-91904903D01*
X116941663Y-91923449D01*
X116941664Y-91923450D01*
X117022528Y-92031472D01*
X117075927Y-92071446D01*
X117130551Y-92112337D01*
X117256972Y-92159489D01*
X117256973Y-92159489D01*
X117256978Y-92159491D01*
X117312870Y-92165500D01*
X117312874Y-92165500D01*
X117840126Y-92165500D01*
X117840130Y-92165500D01*
X117896022Y-92159491D01*
X117980925Y-92127824D01*
X118022448Y-92112337D01*
X118022448Y-92112336D01*
X118022450Y-92112336D01*
X118130472Y-92031472D01*
X118211336Y-91923450D01*
X118258491Y-91797022D01*
X118264500Y-91741130D01*
X118264500Y-91741126D01*
X118463499Y-91741126D01*
X118469508Y-91797016D01*
X118469510Y-91797027D01*
X118516662Y-91923448D01*
X118577711Y-92005000D01*
X118597528Y-92031472D01*
X118650927Y-92071446D01*
X118705551Y-92112337D01*
X118831972Y-92159489D01*
X118831973Y-92159489D01*
X118831978Y-92159491D01*
X118887870Y-92165500D01*
X118887874Y-92165500D01*
X119415126Y-92165500D01*
X119415130Y-92165500D01*
X119471022Y-92159491D01*
X119555925Y-92127824D01*
X119597448Y-92112337D01*
X119597448Y-92112336D01*
X119597450Y-92112336D01*
X119705472Y-92031472D01*
X119786336Y-91923450D01*
X119793253Y-91904903D01*
X119831305Y-91856989D01*
X119886012Y-91840500D01*
X120828742Y-91840500D01*
X120886933Y-91859407D01*
X120917362Y-91895371D01*
X120980327Y-92021821D01*
X121103236Y-92184579D01*
X121253959Y-92321981D01*
X121427363Y-92429348D01*
X121617544Y-92503024D01*
X121818024Y-92540500D01*
X122021976Y-92540500D01*
X122222456Y-92503024D01*
X122412637Y-92429348D01*
X122586041Y-92321981D01*
X122736764Y-92184579D01*
X122859673Y-92021821D01*
X122950582Y-91839250D01*
X123006397Y-91643083D01*
X123025215Y-91440000D01*
X123006397Y-91236917D01*
X122950582Y-91040750D01*
X122859673Y-90858179D01*
X122736764Y-90695421D01*
X122586041Y-90558019D01*
X122412637Y-90450652D01*
X122222456Y-90376976D01*
X122222455Y-90376975D01*
X122222453Y-90376975D01*
X122021976Y-90339500D01*
X121818024Y-90339500D01*
X121617546Y-90376975D01*
X121552201Y-90402290D01*
X121427363Y-90450652D01*
X121253959Y-90558019D01*
X121103236Y-90695421D01*
X121084290Y-90720510D01*
X120980328Y-90858177D01*
X120980323Y-90858186D01*
X120917363Y-90984628D01*
X120874500Y-91028291D01*
X120828742Y-91039500D01*
X119886012Y-91039500D01*
X119827821Y-91020593D01*
X119793254Y-90975097D01*
X119786336Y-90956550D01*
X119712702Y-90858186D01*
X119705472Y-90848528D01*
X119656555Y-90811909D01*
X119597448Y-90767662D01*
X119471027Y-90720510D01*
X119471022Y-90720509D01*
X119471020Y-90720508D01*
X119471016Y-90720508D01*
X119445744Y-90717791D01*
X119415130Y-90714500D01*
X118887870Y-90714500D01*
X118860943Y-90717394D01*
X118831983Y-90720508D01*
X118831972Y-90720510D01*
X118705551Y-90767662D01*
X118597531Y-90848525D01*
X118597525Y-90848531D01*
X118516662Y-90956551D01*
X118469510Y-91082972D01*
X118469508Y-91082983D01*
X118463500Y-91138873D01*
X118463500Y-91741126D01*
X118463499Y-91741126D01*
X118264500Y-91741126D01*
X118264500Y-91138870D01*
X118258491Y-91082978D01*
X118258489Y-91082972D01*
X118211337Y-90956551D01*
X118137702Y-90858186D01*
X118130472Y-90848528D01*
X118081555Y-90811909D01*
X118022448Y-90767662D01*
X117896027Y-90720510D01*
X117896022Y-90720509D01*
X117896020Y-90720508D01*
X117896016Y-90720508D01*
X117870744Y-90717791D01*
X117840130Y-90714500D01*
X117312870Y-90714500D01*
X117285943Y-90717394D01*
X117256983Y-90720508D01*
X117256972Y-90720510D01*
X117130551Y-90767662D01*
X117022531Y-90848525D01*
X117022525Y-90848531D01*
X116941663Y-90956550D01*
X116934746Y-90975097D01*
X116896695Y-91023011D01*
X116841988Y-91039500D01*
X116044461Y-91039500D01*
X116044437Y-91039501D01*
X116014563Y-91039501D01*
X115991626Y-91046954D01*
X115976524Y-91050580D01*
X115952693Y-91054354D01*
X115931198Y-91065306D01*
X115916853Y-91071248D01*
X115893911Y-91078703D01*
X115874393Y-91092884D01*
X115861150Y-91100999D01*
X115839658Y-91111950D01*
X115839656Y-91111951D01*
X111562103Y-95389504D01*
X111507586Y-95417281D01*
X111492099Y-95418500D01*
X111153744Y-95418500D01*
X111095553Y-95399593D01*
X111071428Y-95374501D01*
X111030602Y-95313400D01*
X111030599Y-95313397D01*
X110947742Y-95258035D01*
X110947740Y-95258034D01*
X110947737Y-95258033D01*
X110947736Y-95258033D01*
X110874684Y-95243501D01*
X110874674Y-95243500D01*
X109765326Y-95243500D01*
X109765325Y-95243500D01*
X109765315Y-95243501D01*
X109692263Y-95258033D01*
X109692257Y-95258035D01*
X109609400Y-95313397D01*
X109609397Y-95313400D01*
X109554035Y-95396257D01*
X109554033Y-95396263D01*
X109539501Y-95469315D01*
X109539500Y-95469327D01*
X109539500Y-96168672D01*
X109150000Y-96168672D01*
X109150000Y-96069001D01*
X109149999Y-96069000D01*
X108370001Y-96069000D01*
X108370000Y-96069001D01*
X108370000Y-96643999D01*
X107870000Y-96643999D01*
X107870000Y-96643998D01*
X107870000Y-96069001D01*
X107869999Y-96069000D01*
X107090001Y-96069000D01*
X107090000Y-96069001D01*
X107090000Y-96191824D01*
X107089999Y-96191824D01*
X97570805Y-96191824D01*
X97550582Y-96120750D01*
X97459673Y-95938179D01*
X97336764Y-95775421D01*
X97186041Y-95638019D01*
X97012637Y-95530652D01*
X96822456Y-95456976D01*
X96822455Y-95456975D01*
X96822453Y-95456975D01*
X96621976Y-95419500D01*
X96418024Y-95419500D01*
X96217546Y-95456975D01*
X96185662Y-95469327D01*
X96027363Y-95530652D01*
X95965429Y-95569000D01*
X95853959Y-95638019D01*
X95703237Y-95775420D01*
X95580328Y-95938177D01*
X95580323Y-95938186D01*
X95489419Y-96120747D01*
X95489418Y-96120750D01*
X95468663Y-96193695D01*
X95433603Y-96316917D01*
X95416529Y-96501184D01*
X95414785Y-96520000D01*
X74765215Y-96520000D01*
X74746397Y-96316917D01*
X74690582Y-96120750D01*
X74599673Y-95938179D01*
X74476764Y-95775421D01*
X74326041Y-95638019D01*
X74152637Y-95530652D01*
X73962456Y-95456976D01*
X73962455Y-95456975D01*
X73962453Y-95456975D01*
X73761976Y-95419500D01*
X73558024Y-95419500D01*
X73357546Y-95456975D01*
X73325662Y-95469327D01*
X73167363Y-95530652D01*
X73105429Y-95569000D01*
X72993959Y-95638019D01*
X72843237Y-95775420D01*
X72720328Y-95938177D01*
X72720323Y-95938186D01*
X72629419Y-96120747D01*
X72629418Y-96120750D01*
X72608663Y-96193695D01*
X72573603Y-96316917D01*
X72556529Y-96501184D01*
X72554785Y-96520000D01*
X72573603Y-96723083D01*
X72629418Y-96919250D01*
X72720327Y-97101821D01*
X72843236Y-97264579D01*
X72993959Y-97401981D01*
X73167363Y-97509348D01*
X73319658Y-97568347D01*
X73367089Y-97606997D01*
X73382743Y-97666146D01*
X73360640Y-97723200D01*
X73309519Y-97756288D01*
X73196503Y-97786570D01*
X72982432Y-97886394D01*
X72982424Y-97886398D01*
X72788926Y-98021886D01*
X72621886Y-98188926D01*
X72486398Y-98382424D01*
X72486396Y-98382428D01*
X72479724Y-98396737D01*
X72437995Y-98441485D01*
X72377934Y-98453159D01*
X72322481Y-98427300D01*
X72300276Y-98396737D01*
X72293603Y-98382428D01*
X72293601Y-98382424D01*
X72158113Y-98188926D01*
X71991073Y-98021886D01*
X71797577Y-97886399D01*
X71583489Y-97786568D01*
X71470481Y-97756288D01*
X71419166Y-97722963D01*
X71397240Y-97665842D01*
X71413076Y-97606741D01*
X71460339Y-97568347D01*
X71612637Y-97509348D01*
X71786041Y-97401981D01*
X71936764Y-97264579D01*
X72059673Y-97101821D01*
X72150582Y-96919250D01*
X72206397Y-96723083D01*
X72225215Y-96520000D01*
X72206397Y-96316917D01*
X72150582Y-96120750D01*
X72059673Y-95938179D01*
X71936764Y-95775421D01*
X71786041Y-95638019D01*
X71612637Y-95530652D01*
X71422456Y-95456976D01*
X71422455Y-95456975D01*
X71422453Y-95456975D01*
X71221976Y-95419500D01*
X71018024Y-95419500D01*
X70817546Y-95456975D01*
X70785662Y-95469327D01*
X70627363Y-95530652D01*
X70565429Y-95569000D01*
X70453959Y-95638019D01*
X70303237Y-95775420D01*
X70180328Y-95938177D01*
X70180323Y-95938186D01*
X70089419Y-96120747D01*
X70089418Y-96120750D01*
X70068663Y-96193695D01*
X70033603Y-96316917D01*
X70016529Y-96501184D01*
X70014785Y-96520000D01*
X70033603Y-96723083D01*
X70089418Y-96919250D01*
X70180327Y-97101821D01*
X70303236Y-97264579D01*
X70453959Y-97401981D01*
X70627363Y-97509348D01*
X70779658Y-97568347D01*
X70827089Y-97606997D01*
X70842743Y-97666146D01*
X70820640Y-97723200D01*
X70769519Y-97756288D01*
X70656503Y-97786570D01*
X70442432Y-97886394D01*
X70442424Y-97886398D01*
X70248926Y-98021886D01*
X70081886Y-98188926D01*
X69946398Y-98382424D01*
X69946394Y-98382432D01*
X69846570Y-98596505D01*
X69789364Y-98810000D01*
X70686314Y-98810000D01*
X70660507Y-98850156D01*
X70620000Y-98988111D01*
X70620000Y-99131889D01*
X70660507Y-99269844D01*
X70686314Y-99310000D01*
X69789364Y-99310000D01*
X69240500Y-99310000D01*
X69240500Y-93980000D01*
X70014785Y-93980000D01*
X70033603Y-94183083D01*
X70089418Y-94379250D01*
X70180327Y-94561821D01*
X70303236Y-94724579D01*
X70453959Y-94861981D01*
X70627363Y-94969348D01*
X70817544Y-95043024D01*
X71018024Y-95080500D01*
X71221976Y-95080500D01*
X71422456Y-95043024D01*
X71612637Y-94969348D01*
X71786041Y-94861981D01*
X71936764Y-94724579D01*
X72059673Y-94561821D01*
X72150582Y-94379250D01*
X72206397Y-94183083D01*
X72225215Y-93980000D01*
X72554785Y-93980000D01*
X72573603Y-94183083D01*
X72629418Y-94379250D01*
X72720327Y-94561821D01*
X72843236Y-94724579D01*
X72993959Y-94861981D01*
X73167363Y-94969348D01*
X73357544Y-95043024D01*
X73558024Y-95080500D01*
X73761976Y-95080500D01*
X73962456Y-95043024D01*
X74152637Y-94969348D01*
X74326041Y-94861981D01*
X74476764Y-94724579D01*
X74599673Y-94561821D01*
X74690582Y-94379250D01*
X74746397Y-94183083D01*
X74765215Y-93980000D01*
X74746397Y-93776917D01*
X74690582Y-93580750D01*
X74599673Y-93398179D01*
X74476764Y-93235421D01*
X74326041Y-93098019D01*
X74152637Y-92990652D01*
X73962456Y-92916976D01*
X73962455Y-92916975D01*
X73962453Y-92916975D01*
X73761976Y-92879500D01*
X73558024Y-92879500D01*
X73357546Y-92916975D01*
X73287632Y-92944059D01*
X73167363Y-92990652D01*
X73021192Y-93081157D01*
X72993959Y-93098019D01*
X72843237Y-93235420D01*
X72720328Y-93398177D01*
X72720323Y-93398186D01*
X72629419Y-93580747D01*
X72629418Y-93580750D01*
X72573603Y-93776917D01*
X72554785Y-93980000D01*
X72225215Y-93980000D01*
X72206397Y-93776917D01*
X72150582Y-93580750D01*
X72059673Y-93398179D01*
X71936764Y-93235421D01*
X71786041Y-93098019D01*
X71612637Y-92990652D01*
X71422456Y-92916976D01*
X71422455Y-92916975D01*
X71422453Y-92916975D01*
X71221976Y-92879500D01*
X71018024Y-92879500D01*
X70817546Y-92916975D01*
X70747632Y-92944059D01*
X70627363Y-92990652D01*
X70481192Y-93081157D01*
X70453959Y-93098019D01*
X70303237Y-93235420D01*
X70180328Y-93398177D01*
X70180323Y-93398186D01*
X70089419Y-93580747D01*
X70089418Y-93580750D01*
X70033603Y-93776917D01*
X70014785Y-93980000D01*
X69240500Y-93980000D01*
X69240500Y-91440000D01*
X70014785Y-91440000D01*
X70033603Y-91643083D01*
X70089418Y-91839250D01*
X70180327Y-92021821D01*
X70303236Y-92184579D01*
X70453959Y-92321981D01*
X70627363Y-92429348D01*
X70817544Y-92503024D01*
X71018024Y-92540500D01*
X71221976Y-92540500D01*
X71422456Y-92503024D01*
X71612637Y-92429348D01*
X71786041Y-92321981D01*
X71936764Y-92184579D01*
X72059673Y-92021821D01*
X72150582Y-91839250D01*
X72206397Y-91643083D01*
X72225215Y-91440000D01*
X72554785Y-91440000D01*
X72573603Y-91643083D01*
X72629418Y-91839250D01*
X72720327Y-92021821D01*
X72843236Y-92184579D01*
X72993959Y-92321981D01*
X73167363Y-92429348D01*
X73357544Y-92503024D01*
X73558024Y-92540500D01*
X73761976Y-92540500D01*
X73962456Y-92503024D01*
X74152637Y-92429348D01*
X74326041Y-92321981D01*
X74476764Y-92184579D01*
X74599673Y-92021821D01*
X74690582Y-91839250D01*
X74746397Y-91643083D01*
X74765215Y-91440000D01*
X74746397Y-91236917D01*
X74690582Y-91040750D01*
X74599673Y-90858179D01*
X74476764Y-90695421D01*
X74326041Y-90558019D01*
X74152637Y-90450652D01*
X73962456Y-90376976D01*
X73962455Y-90376975D01*
X73962453Y-90376975D01*
X73761976Y-90339500D01*
X73558024Y-90339500D01*
X73357546Y-90376975D01*
X73292201Y-90402290D01*
X73167363Y-90450652D01*
X72993959Y-90558019D01*
X72843236Y-90695421D01*
X72824290Y-90720510D01*
X72720328Y-90858177D01*
X72720323Y-90858186D01*
X72629419Y-91040747D01*
X72629418Y-91040750D01*
X72573603Y-91236917D01*
X72554785Y-91440000D01*
X72225215Y-91440000D01*
X72206397Y-91236917D01*
X72150582Y-91040750D01*
X72059673Y-90858179D01*
X71936764Y-90695421D01*
X71786041Y-90558019D01*
X71612637Y-90450652D01*
X71422456Y-90376976D01*
X71422455Y-90376975D01*
X71422453Y-90376975D01*
X71221976Y-90339500D01*
X71018024Y-90339500D01*
X70817546Y-90376975D01*
X70752201Y-90402290D01*
X70627363Y-90450652D01*
X70453959Y-90558019D01*
X70303236Y-90695421D01*
X70284290Y-90720510D01*
X70180328Y-90858177D01*
X70180323Y-90858186D01*
X70089419Y-91040747D01*
X70089418Y-91040750D01*
X70033603Y-91236917D01*
X70014785Y-91440000D01*
X69240500Y-91440000D01*
X69240500Y-88900000D01*
X70014785Y-88900000D01*
X70033603Y-89103083D01*
X70089418Y-89299250D01*
X70180327Y-89481821D01*
X70303236Y-89644579D01*
X70453959Y-89781981D01*
X70627363Y-89889348D01*
X70817544Y-89963024D01*
X71018024Y-90000500D01*
X71221976Y-90000500D01*
X71422456Y-89963024D01*
X71612637Y-89889348D01*
X71786041Y-89781981D01*
X71936764Y-89644579D01*
X72059673Y-89481821D01*
X72150582Y-89299250D01*
X72206397Y-89103083D01*
X72225215Y-88900000D01*
X72206397Y-88696917D01*
X72150582Y-88500750D01*
X72059673Y-88318179D01*
X71936764Y-88155421D01*
X71786041Y-88018019D01*
X71612637Y-87910652D01*
X71422456Y-87836976D01*
X71422455Y-87836975D01*
X71422453Y-87836975D01*
X71221976Y-87799500D01*
X71018024Y-87799500D01*
X70817546Y-87836975D01*
X70778747Y-87852006D01*
X70627363Y-87910652D01*
X70481192Y-88001157D01*
X70453959Y-88018019D01*
X70408186Y-88059747D01*
X70303236Y-88155421D01*
X70284290Y-88180510D01*
X70180328Y-88318177D01*
X70180323Y-88318186D01*
X70089419Y-88500747D01*
X70089418Y-88500750D01*
X70033603Y-88696917D01*
X70014785Y-88900000D01*
X69240500Y-88900000D01*
X69240500Y-86360000D01*
X70014785Y-86360000D01*
X70033603Y-86563083D01*
X70089418Y-86759250D01*
X70180327Y-86941821D01*
X70303236Y-87104579D01*
X70453959Y-87241981D01*
X70627363Y-87349348D01*
X70817544Y-87423024D01*
X71018024Y-87460500D01*
X71221976Y-87460500D01*
X71422456Y-87423024D01*
X71612637Y-87349348D01*
X71786041Y-87241981D01*
X71936764Y-87104579D01*
X72059673Y-86941821D01*
X72150582Y-86759250D01*
X72206397Y-86563083D01*
X72225215Y-86360000D01*
X72206397Y-86156917D01*
X72150582Y-85960750D01*
X72059673Y-85778179D01*
X71936764Y-85615421D01*
X71786041Y-85478019D01*
X71612637Y-85370652D01*
X71422456Y-85296976D01*
X71422455Y-85296975D01*
X71422453Y-85296975D01*
X71221976Y-85259500D01*
X71018024Y-85259500D01*
X70817546Y-85296975D01*
X70817541Y-85296977D01*
X70627363Y-85370652D01*
X70453959Y-85478019D01*
X70303236Y-85615421D01*
X70284290Y-85640510D01*
X70180328Y-85778177D01*
X70180323Y-85778186D01*
X70089419Y-85960747D01*
X70089418Y-85960750D01*
X70033603Y-86156917D01*
X70014785Y-86360000D01*
X69240500Y-86360000D01*
X69240500Y-83820000D01*
X70014785Y-83820000D01*
X70033603Y-84023083D01*
X70089418Y-84219250D01*
X70180327Y-84401821D01*
X70303236Y-84564579D01*
X70453959Y-84701981D01*
X70627363Y-84809348D01*
X70817544Y-84883024D01*
X71018024Y-84920500D01*
X71221976Y-84920500D01*
X71422456Y-84883024D01*
X71612637Y-84809348D01*
X71786041Y-84701981D01*
X71936764Y-84564579D01*
X72059673Y-84401821D01*
X72150582Y-84219250D01*
X72206397Y-84023083D01*
X72225215Y-83820000D01*
X72206397Y-83616917D01*
X72150582Y-83420750D01*
X72059673Y-83238179D01*
X71936764Y-83075421D01*
X71786041Y-82938019D01*
X71612637Y-82830652D01*
X71422456Y-82756976D01*
X71422455Y-82756975D01*
X71422453Y-82756975D01*
X71221976Y-82719500D01*
X71018024Y-82719500D01*
X70817546Y-82756975D01*
X70766212Y-82776862D01*
X70627363Y-82830652D01*
X70453959Y-82938019D01*
X70303236Y-83075421D01*
X70284290Y-83100510D01*
X70180328Y-83238177D01*
X70180323Y-83238186D01*
X70114937Y-83369500D01*
X70089418Y-83420750D01*
X70033603Y-83616917D01*
X70014785Y-83820000D01*
X69240500Y-83820000D01*
X69240500Y-81280000D01*
X70014785Y-81280000D01*
X70033603Y-81483083D01*
X70089418Y-81679250D01*
X70180327Y-81861821D01*
X70303236Y-82024579D01*
X70453959Y-82161981D01*
X70627363Y-82269348D01*
X70817544Y-82343024D01*
X71018024Y-82380500D01*
X71221976Y-82380500D01*
X71422456Y-82343024D01*
X71612637Y-82269348D01*
X71786041Y-82161981D01*
X71936764Y-82024579D01*
X72059673Y-81861821D01*
X72150582Y-81679250D01*
X72206397Y-81483083D01*
X72225215Y-81280000D01*
X72206397Y-81076917D01*
X72150582Y-80880750D01*
X72059673Y-80698179D01*
X71936764Y-80535421D01*
X71786041Y-80398019D01*
X71612637Y-80290652D01*
X71422456Y-80216976D01*
X71422455Y-80216975D01*
X71422453Y-80216975D01*
X71221976Y-80179500D01*
X71018024Y-80179500D01*
X70817546Y-80216975D01*
X70817541Y-80216977D01*
X70627363Y-80290652D01*
X70453959Y-80398019D01*
X70303236Y-80535421D01*
X70284290Y-80560510D01*
X70180328Y-80698177D01*
X70180323Y-80698186D01*
X70091141Y-80877289D01*
X70089418Y-80880750D01*
X70033603Y-81076917D01*
X70014785Y-81280000D01*
X69240500Y-81280000D01*
X69240500Y-78740000D01*
X70014785Y-78740000D01*
X70033603Y-78943083D01*
X70086314Y-79128342D01*
X70089419Y-79139252D01*
X70128654Y-79218048D01*
X70180327Y-79321821D01*
X70303236Y-79484579D01*
X70453959Y-79621981D01*
X70627363Y-79729348D01*
X70817544Y-79803024D01*
X71018024Y-79840500D01*
X71221976Y-79840500D01*
X71422456Y-79803024D01*
X71612637Y-79729348D01*
X71786041Y-79621981D01*
X71936764Y-79484579D01*
X72059673Y-79321821D01*
X72150582Y-79139250D01*
X72206397Y-78943083D01*
X72225215Y-78740000D01*
X72206397Y-78536917D01*
X72150582Y-78340750D01*
X72059673Y-78158179D01*
X71936764Y-77995421D01*
X71786041Y-77858019D01*
X71612637Y-77750652D01*
X71422456Y-77676976D01*
X71422455Y-77676975D01*
X71422453Y-77676975D01*
X71221976Y-77639500D01*
X71018024Y-77639500D01*
X70817546Y-77676975D01*
X70747632Y-77704059D01*
X70627363Y-77750652D01*
X70497118Y-77831296D01*
X70453959Y-77858019D01*
X70319423Y-77980665D01*
X70303236Y-77995421D01*
X70284290Y-78020510D01*
X70180328Y-78158177D01*
X70180323Y-78158186D01*
X70090040Y-78339500D01*
X70089418Y-78340750D01*
X70069160Y-78411950D01*
X70033603Y-78536917D01*
X70015216Y-78735354D01*
X70014785Y-78740000D01*
X69240500Y-78740000D01*
X69240500Y-76200000D01*
X70014785Y-76200000D01*
X70033603Y-76403083D01*
X70089418Y-76599250D01*
X70180327Y-76781821D01*
X70303236Y-76944579D01*
X70453959Y-77081981D01*
X70627363Y-77189348D01*
X70817544Y-77263024D01*
X71018024Y-77300500D01*
X71221976Y-77300500D01*
X71422456Y-77263024D01*
X71612637Y-77189348D01*
X71786041Y-77081981D01*
X71936764Y-76944579D01*
X72059673Y-76781821D01*
X72150582Y-76599250D01*
X72206397Y-76403083D01*
X72225215Y-76200000D01*
X72206397Y-75996917D01*
X72150582Y-75800750D01*
X72059673Y-75618179D01*
X71936764Y-75455421D01*
X71786041Y-75318019D01*
X71612637Y-75210652D01*
X71422456Y-75136976D01*
X71422455Y-75136975D01*
X71422453Y-75136975D01*
X71221976Y-75099500D01*
X71018024Y-75099500D01*
X70817546Y-75136975D01*
X70778744Y-75152007D01*
X70627363Y-75210652D01*
X70453959Y-75318019D01*
X70303236Y-75455421D01*
X70287099Y-75476790D01*
X70180328Y-75618177D01*
X70180323Y-75618186D01*
X70089419Y-75800747D01*
X70089418Y-75800750D01*
X70069160Y-75871950D01*
X70033603Y-75996917D01*
X70017589Y-76169744D01*
X70014785Y-76200000D01*
X69240500Y-76200000D01*
X69240500Y-73660000D01*
X70014785Y-73660000D01*
X70033603Y-73863083D01*
X70087758Y-74053417D01*
X70089419Y-74059252D01*
X70128654Y-74138048D01*
X70180327Y-74241821D01*
X70303236Y-74404579D01*
X70453959Y-74541981D01*
X70627363Y-74649348D01*
X70817544Y-74723024D01*
X71018024Y-74760500D01*
X71221976Y-74760500D01*
X71422456Y-74723024D01*
X71612637Y-74649348D01*
X71786041Y-74541981D01*
X71936764Y-74404579D01*
X72059673Y-74241821D01*
X72150582Y-74059250D01*
X72206397Y-73863083D01*
X72225215Y-73660000D01*
X72206397Y-73456917D01*
X72150582Y-73260750D01*
X72059673Y-73078179D01*
X71936764Y-72915421D01*
X71786041Y-72778019D01*
X71612637Y-72670652D01*
X71422456Y-72596976D01*
X71422455Y-72596975D01*
X71422453Y-72596975D01*
X71221976Y-72559500D01*
X71018024Y-72559500D01*
X70817546Y-72596975D01*
X70817536Y-72596979D01*
X70627363Y-72670652D01*
X70481192Y-72761157D01*
X70453959Y-72778019D01*
X70314116Y-72905503D01*
X70303236Y-72915421D01*
X70284290Y-72940510D01*
X70180328Y-73078177D01*
X70180323Y-73078186D01*
X70117174Y-73205008D01*
X70089418Y-73260750D01*
X70033603Y-73456917D01*
X70014785Y-73660000D01*
X69240500Y-73660000D01*
X69240500Y-71120000D01*
X70014785Y-71120000D01*
X70033603Y-71323083D01*
X70089418Y-71519250D01*
X70180327Y-71701821D01*
X70303236Y-71864579D01*
X70453959Y-72001981D01*
X70627363Y-72109348D01*
X70817544Y-72183024D01*
X71018024Y-72220500D01*
X71221976Y-72220500D01*
X71422456Y-72183024D01*
X71612637Y-72109348D01*
X71786041Y-72001981D01*
X71936764Y-71864579D01*
X72059673Y-71701821D01*
X72150582Y-71519250D01*
X72206397Y-71323083D01*
X72225215Y-71120000D01*
X72206397Y-70916917D01*
X72150582Y-70720750D01*
X72059673Y-70538179D01*
X71936764Y-70375421D01*
X71786041Y-70238019D01*
X71612637Y-70130652D01*
X71422456Y-70056976D01*
X71422455Y-70056975D01*
X71422453Y-70056975D01*
X71221976Y-70019500D01*
X71018024Y-70019500D01*
X70817546Y-70056975D01*
X70779658Y-70071653D01*
X70627363Y-70130652D01*
X70453959Y-70238019D01*
X70303236Y-70375421D01*
X70284290Y-70400510D01*
X70180328Y-70538177D01*
X70180323Y-70538186D01*
X70114937Y-70669500D01*
X70089418Y-70720750D01*
X70033603Y-70916917D01*
X70014785Y-71120000D01*
X69240500Y-71120000D01*
X69240500Y-68580000D01*
X70014785Y-68580000D01*
X70033603Y-68783083D01*
X70083087Y-68957000D01*
X70089419Y-68979252D01*
X70153885Y-69108719D01*
X70180327Y-69161821D01*
X70303236Y-69324579D01*
X70453959Y-69461981D01*
X70627363Y-69569348D01*
X70817544Y-69643024D01*
X71018024Y-69680500D01*
X71221976Y-69680500D01*
X71422456Y-69643024D01*
X71612637Y-69569348D01*
X71786041Y-69461981D01*
X71936764Y-69324579D01*
X72059673Y-69161821D01*
X72150582Y-68979250D01*
X72206397Y-68783083D01*
X72225215Y-68580000D01*
X72206397Y-68376917D01*
X72150582Y-68180750D01*
X72059673Y-67998179D01*
X71936764Y-67835421D01*
X71786041Y-67698019D01*
X71612637Y-67590652D01*
X71422456Y-67516976D01*
X71422455Y-67516975D01*
X71422453Y-67516975D01*
X71221976Y-67479500D01*
X71018024Y-67479500D01*
X70817546Y-67516975D01*
X70817541Y-67516977D01*
X70627363Y-67590652D01*
X70509582Y-67663579D01*
X70453959Y-67698019D01*
X70303237Y-67835420D01*
X70180328Y-67998177D01*
X70180323Y-67998186D01*
X70089419Y-68180747D01*
X70089418Y-68180750D01*
X70069019Y-68252445D01*
X70033603Y-68376917D01*
X70017642Y-68549172D01*
X70014785Y-68580000D01*
X69240500Y-68580000D01*
X69240500Y-66040000D01*
X70014785Y-66040000D01*
X70033603Y-66243083D01*
X70089418Y-66439250D01*
X70180327Y-66621821D01*
X70303236Y-66784579D01*
X70453959Y-66921981D01*
X70627363Y-67029348D01*
X70817544Y-67103024D01*
X71018024Y-67140500D01*
X71221976Y-67140500D01*
X71422456Y-67103024D01*
X71612637Y-67029348D01*
X71786041Y-66921981D01*
X71936764Y-66784579D01*
X72059673Y-66621821D01*
X72150582Y-66439250D01*
X72206397Y-66243083D01*
X72225215Y-66040000D01*
X72206397Y-65836917D01*
X72150582Y-65640750D01*
X72059673Y-65458179D01*
X71936764Y-65295421D01*
X71786041Y-65158019D01*
X71612637Y-65050652D01*
X71422456Y-64976976D01*
X71422455Y-64976975D01*
X71422453Y-64976975D01*
X71221976Y-64939500D01*
X71018024Y-64939500D01*
X70817546Y-64976975D01*
X70778747Y-64992006D01*
X70627363Y-65050652D01*
X70453959Y-65158019D01*
X70303236Y-65295421D01*
X70284290Y-65320510D01*
X70180328Y-65458177D01*
X70180323Y-65458186D01*
X70093835Y-65631879D01*
X70089418Y-65640750D01*
X70033603Y-65836917D01*
X70014785Y-66040000D01*
X69240500Y-66040000D01*
X69240500Y-63500000D01*
X70014785Y-63500000D01*
X70033603Y-63703083D01*
X70063603Y-63808522D01*
X70089419Y-63899252D01*
X70153885Y-64028719D01*
X70180327Y-64081821D01*
X70303236Y-64244579D01*
X70453959Y-64381981D01*
X70627363Y-64489348D01*
X70817544Y-64563024D01*
X71018024Y-64600500D01*
X71221976Y-64600500D01*
X71422456Y-64563024D01*
X71612637Y-64489348D01*
X71786041Y-64381981D01*
X71936764Y-64244579D01*
X72059673Y-64081821D01*
X72150582Y-63899250D01*
X72206397Y-63703083D01*
X72225215Y-63500000D01*
X72206397Y-63296917D01*
X72150582Y-63100750D01*
X72059673Y-62918179D01*
X71936764Y-62755421D01*
X71786041Y-62618019D01*
X71612637Y-62510652D01*
X71422456Y-62436976D01*
X71422455Y-62436975D01*
X71422453Y-62436975D01*
X71221976Y-62399500D01*
X71018024Y-62399500D01*
X70817546Y-62436975D01*
X70817536Y-62436979D01*
X70627363Y-62510652D01*
X70453959Y-62618019D01*
X70303236Y-62755421D01*
X70299777Y-62760002D01*
X70180328Y-62918177D01*
X70180323Y-62918186D01*
X70089419Y-63100747D01*
X70089418Y-63100750D01*
X70033603Y-63296917D01*
X70014785Y-63500000D01*
X69240500Y-63500000D01*
X69240500Y-60960000D01*
X70014785Y-60960000D01*
X70033603Y-61163083D01*
X70087880Y-61353846D01*
X70089419Y-61359252D01*
X70153885Y-61488719D01*
X70180327Y-61541821D01*
X70303236Y-61704579D01*
X70453959Y-61841981D01*
X70627363Y-61949348D01*
X70817544Y-62023024D01*
X71018024Y-62060500D01*
X71221976Y-62060500D01*
X71422456Y-62023024D01*
X71612637Y-61949348D01*
X71786041Y-61841981D01*
X71936764Y-61704579D01*
X72059673Y-61541821D01*
X72150582Y-61359250D01*
X72206397Y-61163083D01*
X72225215Y-60960000D01*
X72206397Y-60756917D01*
X72150582Y-60560750D01*
X72059673Y-60378179D01*
X71936764Y-60215421D01*
X71786041Y-60078019D01*
X71612637Y-59970652D01*
X71422456Y-59896976D01*
X71422455Y-59896975D01*
X71422453Y-59896975D01*
X71221976Y-59859500D01*
X71018024Y-59859500D01*
X70817546Y-59896975D01*
X70747632Y-59924059D01*
X70627363Y-59970652D01*
X70514716Y-60040400D01*
X70453959Y-60078019D01*
X70303237Y-60215420D01*
X70180328Y-60378177D01*
X70180323Y-60378186D01*
X70089419Y-60560747D01*
X70089418Y-60560750D01*
X70033603Y-60756917D01*
X70014785Y-60960000D01*
X69240500Y-60960000D01*
X69240500Y-58420000D01*
X70014785Y-58420000D01*
X70033603Y-58623083D01*
X70089418Y-58819250D01*
X70180327Y-59001821D01*
X70303236Y-59164579D01*
X70453959Y-59301981D01*
X70627363Y-59409348D01*
X70817544Y-59483024D01*
X71018024Y-59520500D01*
X71221976Y-59520500D01*
X71422456Y-59483024D01*
X71612637Y-59409348D01*
X71786041Y-59301981D01*
X71936764Y-59164579D01*
X72059673Y-59001821D01*
X72150582Y-58819250D01*
X72206397Y-58623083D01*
X72225215Y-58420000D01*
X72206397Y-58216917D01*
X72150582Y-58020750D01*
X72059673Y-57838179D01*
X71936764Y-57675421D01*
X71786041Y-57538019D01*
X71612637Y-57430652D01*
X71422456Y-57356976D01*
X71422455Y-57356975D01*
X71422453Y-57356975D01*
X71221976Y-57319500D01*
X71018024Y-57319500D01*
X70817546Y-57356975D01*
X70817536Y-57356979D01*
X70627363Y-57430652D01*
X70503456Y-57507372D01*
X70453959Y-57538019D01*
X70303237Y-57675420D01*
X70180328Y-57838177D01*
X70180323Y-57838186D01*
X70089419Y-58020747D01*
X70089418Y-58020750D01*
X70080953Y-58050500D01*
X70033603Y-58216917D01*
X70023027Y-58331058D01*
X70014785Y-58420000D01*
X69240500Y-58420000D01*
X69240500Y-55880000D01*
X70014785Y-55880000D01*
X70033603Y-56083083D01*
X70089418Y-56279250D01*
X70180327Y-56461821D01*
X70303236Y-56624579D01*
X70453959Y-56761981D01*
X70627363Y-56869348D01*
X70817544Y-56943024D01*
X71018024Y-56980500D01*
X71221976Y-56980500D01*
X71422456Y-56943024D01*
X71612637Y-56869348D01*
X71786041Y-56761981D01*
X71936764Y-56624579D01*
X72059673Y-56461821D01*
X72150582Y-56279250D01*
X72206397Y-56083083D01*
X72225215Y-55880000D01*
X72206397Y-55676917D01*
X72150582Y-55480750D01*
X72059673Y-55298179D01*
X71936764Y-55135421D01*
X71786041Y-54998019D01*
X71612637Y-54890652D01*
X71422456Y-54816976D01*
X71422455Y-54816975D01*
X71422453Y-54816975D01*
X71221976Y-54779500D01*
X71018024Y-54779500D01*
X70817546Y-54816975D01*
X70779658Y-54831653D01*
X70627363Y-54890652D01*
X70453959Y-54998018D01*
X70453959Y-54998019D01*
X70303237Y-55135420D01*
X70180328Y-55298177D01*
X70180323Y-55298186D01*
X70089419Y-55480747D01*
X70033603Y-55676917D01*
X70026878Y-55749498D01*
X70014785Y-55880000D01*
X69240500Y-55880000D01*
X69240500Y-53340000D01*
X70014785Y-53340000D01*
X70033603Y-53543083D01*
X70089418Y-53739250D01*
X70180327Y-53921821D01*
X70303236Y-54084579D01*
X70453959Y-54221981D01*
X70627363Y-54329348D01*
X70817544Y-54403024D01*
X71018024Y-54440500D01*
X71221976Y-54440500D01*
X71422456Y-54403024D01*
X71612637Y-54329348D01*
X71786041Y-54221981D01*
X71936764Y-54084579D01*
X72059673Y-53921821D01*
X72150582Y-53739250D01*
X72206397Y-53543083D01*
X72225215Y-53340000D01*
X72206397Y-53136917D01*
X72150582Y-52940750D01*
X72059673Y-52758179D01*
X71936764Y-52595421D01*
X71786041Y-52458019D01*
X71612637Y-52350652D01*
X71422456Y-52276976D01*
X71422455Y-52276975D01*
X71422453Y-52276975D01*
X71221976Y-52239500D01*
X71018024Y-52239500D01*
X70817546Y-52276975D01*
X70817541Y-52276977D01*
X70627363Y-52350652D01*
X70453958Y-52458018D01*
X70453959Y-52458019D01*
X70303237Y-52595420D01*
X70180328Y-52758177D01*
X70180323Y-52758186D01*
X70121408Y-52876505D01*
X70089418Y-52940750D01*
X70033603Y-53136917D01*
X70014785Y-53340000D01*
X69240500Y-53340000D01*
X69240500Y-51674672D01*
X70019500Y-51674672D01*
X70019501Y-51674684D01*
X70034033Y-51747736D01*
X70034035Y-51747742D01*
X70089397Y-51830599D01*
X70089399Y-51830601D01*
X70172260Y-51885966D01*
X70227808Y-51897015D01*
X70245315Y-51900498D01*
X70245320Y-51900498D01*
X70245326Y-51900500D01*
X70245327Y-51900500D01*
X71994673Y-51900500D01*
X71994674Y-51900500D01*
X72067740Y-51885966D01*
X72150601Y-51830601D01*
X72205966Y-51747740D01*
X72220500Y-51674674D01*
X72220500Y-49925326D01*
X72205966Y-49852260D01*
X72150601Y-49769399D01*
X72150599Y-49769397D01*
X72067742Y-49714035D01*
X72067740Y-49714034D01*
X72067737Y-49714033D01*
X72067736Y-49714033D01*
X71994684Y-49699501D01*
X71994674Y-49699500D01*
X70245326Y-49699500D01*
X70245325Y-49699500D01*
X70245315Y-49699501D01*
X70172263Y-49714033D01*
X70172257Y-49714035D01*
X70089400Y-49769397D01*
X70089397Y-49769400D01*
X70034035Y-49852257D01*
X70034033Y-49852263D01*
X70019501Y-49925315D01*
X70019500Y-49925327D01*
X70019500Y-51674672D01*
X69240500Y-51674672D01*
X69240500Y-48384500D01*
X69259407Y-48326309D01*
X69308907Y-48290345D01*
X69339500Y-48285500D01*
X90118429Y-48285500D01*
X90176620Y-48304407D01*
G37*
%TD.AperFunction*%
%TA.AperFunction,Conductor*%
G36*
X100129445Y-89001690D02*
G01*
X100172710Y-89044955D01*
X100183500Y-89089900D01*
X100183500Y-90344099D01*
X100164593Y-90402290D01*
X100154504Y-90414103D01*
X98288103Y-92280504D01*
X98233586Y-92308281D01*
X98218099Y-92309500D01*
X97441246Y-92309500D01*
X97383055Y-92290593D01*
X97347091Y-92241093D01*
X97347091Y-92179907D01*
X97362239Y-92150844D01*
X97459673Y-92021821D01*
X97550582Y-91839250D01*
X97606397Y-91643083D01*
X97625215Y-91440000D01*
X97606397Y-91236917D01*
X97550582Y-91040750D01*
X97459673Y-90858179D01*
X97362240Y-90729157D01*
X97342263Y-90671330D01*
X97360092Y-90612799D01*
X97408918Y-90575927D01*
X97441246Y-90570500D01*
X98361432Y-90570500D01*
X98361433Y-90570500D01*
X98384382Y-90563043D01*
X98399465Y-90559421D01*
X98423304Y-90555646D01*
X98444802Y-90544690D01*
X98459151Y-90538748D01*
X98482090Y-90531296D01*
X98501612Y-90517111D01*
X98514849Y-90509000D01*
X98536342Y-90498050D01*
X98553261Y-90481129D01*
X98553265Y-90481127D01*
X98558907Y-90475485D01*
X98558909Y-90475484D01*
X100014498Y-89019894D01*
X100069013Y-88992119D01*
X100129445Y-89001690D01*
G37*
%TD.AperFunction*%
%TA.AperFunction,Conductor*%
G36*
X99621445Y-86842690D02*
G01*
X99664710Y-86885955D01*
X99675500Y-86930900D01*
X99675500Y-88185098D01*
X99656593Y-88243289D01*
X99646504Y-88255102D01*
X98161103Y-89740504D01*
X98106586Y-89768281D01*
X98091099Y-89769500D01*
X97441246Y-89769500D01*
X97383055Y-89750593D01*
X97347091Y-89701093D01*
X97347091Y-89639907D01*
X97362239Y-89610844D01*
X97459673Y-89481821D01*
X97550582Y-89299250D01*
X97606397Y-89103083D01*
X97625215Y-88900000D01*
X97606397Y-88696917D01*
X97550582Y-88500750D01*
X97459673Y-88318179D01*
X97362240Y-88189157D01*
X97342263Y-88131330D01*
X97360092Y-88072799D01*
X97408918Y-88035927D01*
X97441246Y-88030500D01*
X98234432Y-88030500D01*
X98234433Y-88030500D01*
X98257382Y-88023043D01*
X98272465Y-88019421D01*
X98296304Y-88015646D01*
X98317802Y-88004690D01*
X98332151Y-87998748D01*
X98355090Y-87991296D01*
X98374612Y-87977111D01*
X98387849Y-87969000D01*
X98409342Y-87958050D01*
X98426261Y-87941129D01*
X98426265Y-87941127D01*
X98431907Y-87935485D01*
X98431909Y-87935484D01*
X99506496Y-86860895D01*
X99561013Y-86833119D01*
X99621445Y-86842690D01*
G37*
%TD.AperFunction*%
%TA.AperFunction,Conductor*%
G36*
X99113444Y-84683690D02*
G01*
X99156709Y-84726955D01*
X99167499Y-84771900D01*
X99167499Y-86026098D01*
X99148592Y-86084289D01*
X99138503Y-86096102D01*
X98034103Y-87200504D01*
X97979586Y-87228281D01*
X97964099Y-87229500D01*
X97749392Y-87229500D01*
X97691201Y-87210593D01*
X97655237Y-87161093D01*
X97655237Y-87099907D01*
X97668296Y-87073716D01*
X97693600Y-87037577D01*
X97793430Y-86823489D01*
X97854570Y-86595313D01*
X97875157Y-86360003D01*
X97875157Y-86359996D01*
X97854570Y-86124686D01*
X97793429Y-85896505D01*
X97693605Y-85682432D01*
X97693602Y-85682426D01*
X97668295Y-85646283D01*
X97650407Y-85587771D01*
X97670328Y-85529920D01*
X97720448Y-85494826D01*
X97749392Y-85490500D01*
X98107432Y-85490500D01*
X98107433Y-85490500D01*
X98130382Y-85483043D01*
X98145465Y-85479421D01*
X98169304Y-85475646D01*
X98190802Y-85464690D01*
X98205151Y-85458748D01*
X98228090Y-85451296D01*
X98247612Y-85437111D01*
X98260849Y-85429000D01*
X98282342Y-85418050D01*
X98299261Y-85401129D01*
X98299265Y-85401127D01*
X98304906Y-85395485D01*
X98304909Y-85395484D01*
X98998499Y-84701893D01*
X99053012Y-84674119D01*
X99113444Y-84683690D01*
G37*
%TD.AperFunction*%
%TA.AperFunction,Conductor*%
G36*
X98605445Y-81635690D02*
G01*
X98648710Y-81678955D01*
X98659500Y-81723900D01*
X98659500Y-83867098D01*
X98640593Y-83925289D01*
X98630504Y-83937102D01*
X97907103Y-84660504D01*
X97852586Y-84688281D01*
X97837099Y-84689500D01*
X97441246Y-84689500D01*
X97383055Y-84670593D01*
X97347091Y-84621093D01*
X97347091Y-84559907D01*
X97362239Y-84530844D01*
X97459673Y-84401821D01*
X97550582Y-84219250D01*
X97606397Y-84023083D01*
X97625215Y-83820000D01*
X97606397Y-83616917D01*
X97550582Y-83420750D01*
X97459673Y-83238179D01*
X97336764Y-83075421D01*
X97325886Y-83065504D01*
X97273299Y-83017564D01*
X97243033Y-82964389D01*
X97249804Y-82903579D01*
X97269987Y-82874404D01*
X97288905Y-82855486D01*
X97288909Y-82855484D01*
X98490496Y-81653895D01*
X98545013Y-81626119D01*
X98605445Y-81635690D01*
G37*
%TD.AperFunction*%
%TA.AperFunction,Conductor*%
G36*
X108139500Y-76193893D02*
G01*
X109721091Y-77775484D01*
X109721094Y-77775486D01*
X109721096Y-77775489D01*
X109740010Y-77794402D01*
X109743658Y-77798050D01*
X109765145Y-77808998D01*
X109778386Y-77817112D01*
X109797908Y-77831294D01*
X109797909Y-77831294D01*
X109797911Y-77831296D01*
X109820861Y-77838752D01*
X109835201Y-77844693D01*
X109856696Y-77855646D01*
X109880534Y-77859421D01*
X109895611Y-77863041D01*
X109918567Y-77870500D01*
X109950481Y-77870500D01*
X110074040Y-77870500D01*
X110132231Y-77889407D01*
X110134307Y-77890958D01*
X110195046Y-77937564D01*
X110212375Y-77950861D01*
X110346291Y-78006330D01*
X110490000Y-78025250D01*
X110633709Y-78006330D01*
X110653500Y-77998131D01*
X110714495Y-77993328D01*
X110736333Y-78001385D01*
X110744696Y-78005646D01*
X110754625Y-78007218D01*
X110809140Y-78034993D01*
X110836919Y-78089509D01*
X110827349Y-78149941D01*
X110784086Y-78193207D01*
X110754628Y-78202780D01*
X110744698Y-78204353D01*
X110744695Y-78204354D01*
X110631659Y-78261949D01*
X110541949Y-78351659D01*
X110484354Y-78464695D01*
X110469500Y-78558477D01*
X110469500Y-78921520D01*
X110469501Y-78921523D01*
X110484352Y-79015299D01*
X110484354Y-79015304D01*
X110541950Y-79128342D01*
X110631658Y-79218050D01*
X110744696Y-79275646D01*
X110754625Y-79277218D01*
X110809140Y-79304993D01*
X110836919Y-79359509D01*
X110827349Y-79419941D01*
X110784086Y-79463207D01*
X110754628Y-79472780D01*
X110744698Y-79474353D01*
X110744695Y-79474354D01*
X110631659Y-79531949D01*
X110541950Y-79621658D01*
X110510268Y-79683836D01*
X110467002Y-79727099D01*
X110406570Y-79736670D01*
X110352054Y-79708891D01*
X110341969Y-79697083D01*
X110329119Y-79679398D01*
X110321001Y-79666152D01*
X110310050Y-79644658D01*
X110269082Y-79603690D01*
X110220342Y-79554949D01*
X109097424Y-78432031D01*
X109077343Y-78411951D01*
X109077342Y-78411950D01*
X109055847Y-78400997D01*
X109042608Y-78392884D01*
X109036581Y-78388505D01*
X109023090Y-78378704D01*
X109023088Y-78378703D01*
X109000142Y-78371247D01*
X108985788Y-78365301D01*
X108964306Y-78354354D01*
X108940474Y-78350579D01*
X108925374Y-78346953D01*
X108902437Y-78339500D01*
X108902433Y-78339500D01*
X108870519Y-78339500D01*
X107926900Y-78339500D01*
X107868709Y-78320593D01*
X107856897Y-78310504D01*
X107808343Y-78261951D01*
X107808342Y-78261950D01*
X107695304Y-78204354D01*
X107695306Y-78204354D01*
X107685372Y-78202781D01*
X107630856Y-78175002D01*
X107603080Y-78120485D01*
X107612652Y-78060053D01*
X107655917Y-78016790D01*
X107685376Y-78007218D01*
X107695304Y-78005646D01*
X107808342Y-77948050D01*
X107898050Y-77858342D01*
X107955646Y-77745304D01*
X107970500Y-77651519D01*
X107970499Y-77288482D01*
X107966467Y-77263024D01*
X107955647Y-77194700D01*
X107955646Y-77194698D01*
X107955646Y-77194696D01*
X107898050Y-77081658D01*
X107808342Y-76991950D01*
X107695304Y-76934354D01*
X107695306Y-76934354D01*
X107685372Y-76932781D01*
X107630856Y-76905002D01*
X107603080Y-76850485D01*
X107612652Y-76790053D01*
X107655917Y-76746790D01*
X107685376Y-76737218D01*
X107695304Y-76735646D01*
X107808342Y-76678050D01*
X107898050Y-76588342D01*
X107955646Y-76475304D01*
X107970500Y-76381519D01*
X107970499Y-76263897D01*
X107989406Y-76205709D01*
X108038906Y-76169745D01*
X108100091Y-76169744D01*
X108139500Y-76193893D01*
G37*
%TD.AperFunction*%
%TA.AperFunction,Conductor*%
G36*
X108900501Y-74668893D02*
G01*
X109467092Y-75235484D01*
X110010635Y-75779027D01*
X110038412Y-75833544D01*
X110028841Y-75893976D01*
X110019174Y-75909297D01*
X110009139Y-75922374D01*
X110009137Y-75922378D01*
X109953670Y-76056290D01*
X109953669Y-76056291D01*
X109934750Y-76199999D01*
X109934750Y-76200000D01*
X109953669Y-76343708D01*
X109953670Y-76343709D01*
X110008177Y-76475304D01*
X110009139Y-76477625D01*
X110097379Y-76592621D01*
X110212375Y-76680861D01*
X110346291Y-76736330D01*
X110350219Y-76736847D01*
X110405444Y-76763188D01*
X110434638Y-76816959D01*
X110426652Y-76877621D01*
X110384534Y-76922003D01*
X110350219Y-76933152D01*
X110346291Y-76933670D01*
X110346290Y-76933670D01*
X110212378Y-76989137D01*
X110212371Y-76989141D01*
X110199294Y-76999175D01*
X110141617Y-77019596D01*
X110082952Y-77002216D01*
X110069027Y-76990634D01*
X108760496Y-75682103D01*
X108732719Y-75627586D01*
X108731500Y-75612099D01*
X108731500Y-74738899D01*
X108750407Y-74680708D01*
X108799907Y-74644744D01*
X108861093Y-74644744D01*
X108900501Y-74668893D01*
G37*
%TD.AperFunction*%
%TA.AperFunction,Conductor*%
G36*
X105000909Y-74587407D02*
G01*
X105036873Y-74636907D01*
X105036873Y-74698093D01*
X105034182Y-74705385D01*
X105000670Y-74786291D01*
X105000669Y-74786291D01*
X104981750Y-74929999D01*
X104981750Y-74930000D01*
X105000669Y-75073708D01*
X105000670Y-75073709D01*
X105055177Y-75205304D01*
X105056139Y-75207625D01*
X105144379Y-75322621D01*
X105259375Y-75410861D01*
X105393291Y-75466330D01*
X105537000Y-75485250D01*
X105680709Y-75466330D01*
X105702157Y-75457445D01*
X105763152Y-75452644D01*
X105784986Y-75460698D01*
X105794696Y-75465646D01*
X105804625Y-75467218D01*
X105859140Y-75494993D01*
X105886919Y-75549509D01*
X105877349Y-75609941D01*
X105834086Y-75653207D01*
X105804628Y-75662780D01*
X105794698Y-75664353D01*
X105794695Y-75664354D01*
X105681658Y-75721950D01*
X105681655Y-75721951D01*
X105622614Y-75780992D01*
X105583208Y-75805140D01*
X105577632Y-75806952D01*
X105562524Y-75810580D01*
X105538693Y-75814354D01*
X105517198Y-75825306D01*
X105502853Y-75831248D01*
X105479911Y-75838703D01*
X105460393Y-75852884D01*
X105447150Y-75860999D01*
X105425658Y-75871950D01*
X105425656Y-75871951D01*
X105403091Y-75894516D01*
X105403091Y-75894517D01*
X104757103Y-76540504D01*
X104702586Y-76568281D01*
X104687099Y-76569500D01*
X101781901Y-76569500D01*
X101723710Y-76550593D01*
X101687746Y-76501093D01*
X101687746Y-76439907D01*
X101711897Y-76400496D01*
X103514897Y-74597496D01*
X103569414Y-74569719D01*
X103584901Y-74568500D01*
X104942718Y-74568500D01*
X105000909Y-74587407D01*
G37*
%TD.AperFunction*%
%TA.AperFunction,Conductor*%
G36*
X105621291Y-72809407D02*
G01*
X105633103Y-72819496D01*
X105667196Y-72853588D01*
X105681658Y-72868050D01*
X105794696Y-72925646D01*
X105804625Y-72927218D01*
X105859140Y-72954993D01*
X105886920Y-73009508D01*
X105877350Y-73069941D01*
X105834087Y-73113207D01*
X105804629Y-73122780D01*
X105794699Y-73124353D01*
X105794692Y-73124355D01*
X105784982Y-73129302D01*
X105724550Y-73138869D01*
X105702161Y-73132554D01*
X105680712Y-73123670D01*
X105537000Y-73104750D01*
X105393291Y-73123669D01*
X105393290Y-73123670D01*
X105259378Y-73179137D01*
X105259374Y-73179139D01*
X105144381Y-73267377D01*
X105144377Y-73267381D01*
X105056139Y-73382374D01*
X105056137Y-73382378D01*
X105000670Y-73516290D01*
X104987825Y-73613849D01*
X104961483Y-73669074D01*
X104959676Y-73670929D01*
X104892103Y-73738503D01*
X104837587Y-73766281D01*
X104822099Y-73767500D01*
X103821900Y-73767500D01*
X103763709Y-73748593D01*
X103727745Y-73699093D01*
X103727745Y-73637907D01*
X103751896Y-73598496D01*
X104530896Y-72819496D01*
X104585413Y-72791719D01*
X104600900Y-72790500D01*
X105563100Y-72790500D01*
X105621291Y-72809407D01*
G37*
%TD.AperFunction*%
%TA.AperFunction,Conductor*%
G36*
X105621291Y-61506407D02*
G01*
X105633103Y-61516496D01*
X105658421Y-61541813D01*
X105681658Y-61565050D01*
X105794696Y-61622646D01*
X105804625Y-61624218D01*
X105859140Y-61651993D01*
X105886920Y-61706508D01*
X105877350Y-61766941D01*
X105834087Y-61810207D01*
X105804629Y-61819780D01*
X105794699Y-61821353D01*
X105794692Y-61821355D01*
X105784982Y-61826302D01*
X105724550Y-61835869D01*
X105702161Y-61829554D01*
X105680712Y-61820670D01*
X105537000Y-61801750D01*
X105393291Y-61820669D01*
X105393290Y-61820670D01*
X105259378Y-61876137D01*
X105259374Y-61876139D01*
X105144381Y-61964377D01*
X105144377Y-61964381D01*
X105056139Y-62079374D01*
X105056137Y-62079378D01*
X105000670Y-62213290D01*
X105000669Y-62213291D01*
X104981750Y-62356999D01*
X104981750Y-62357000D01*
X105000669Y-62500708D01*
X105000670Y-62500709D01*
X105055177Y-62632304D01*
X105056139Y-62634625D01*
X105144379Y-62749621D01*
X105259375Y-62837861D01*
X105393291Y-62893330D01*
X105537000Y-62912250D01*
X105680709Y-62893330D01*
X105702157Y-62884445D01*
X105763152Y-62879644D01*
X105784986Y-62887698D01*
X105794696Y-62892646D01*
X105804625Y-62894218D01*
X105859140Y-62921993D01*
X105886919Y-62976509D01*
X105877349Y-63036941D01*
X105834086Y-63080207D01*
X105804628Y-63089780D01*
X105794698Y-63091353D01*
X105794695Y-63091354D01*
X105681658Y-63148950D01*
X105681656Y-63148951D01*
X105633103Y-63197504D01*
X105578586Y-63225281D01*
X105563100Y-63226500D01*
X105274327Y-63226500D01*
X105147461Y-63226500D01*
X105147459Y-63226500D01*
X105147456Y-63226501D01*
X105124518Y-63233953D01*
X105109423Y-63237577D01*
X105085595Y-63241352D01*
X105085585Y-63241355D01*
X105064096Y-63252305D01*
X105049746Y-63258249D01*
X105026809Y-63265701D01*
X105026800Y-63265706D01*
X105007279Y-63279887D01*
X104994045Y-63287997D01*
X104972554Y-63298948D01*
X104972552Y-63298950D01*
X104949988Y-63321513D01*
X104949986Y-63321515D01*
X104949984Y-63321515D01*
X104949985Y-63321516D01*
X98850997Y-69420504D01*
X98796480Y-69448281D01*
X98780993Y-69449500D01*
X97441246Y-69449500D01*
X97383055Y-69430593D01*
X97347091Y-69381093D01*
X97347091Y-69319907D01*
X97362239Y-69290844D01*
X97459673Y-69161821D01*
X97550582Y-68979250D01*
X97606397Y-68783083D01*
X97625215Y-68580000D01*
X97606397Y-68376917D01*
X97550582Y-68180750D01*
X97459673Y-67998179D01*
X97336764Y-67835421D01*
X97318341Y-67818626D01*
X97273299Y-67777564D01*
X97243033Y-67724389D01*
X97249804Y-67663579D01*
X97269987Y-67634404D01*
X97288905Y-67615486D01*
X97288909Y-67615484D01*
X103387897Y-61516495D01*
X103442414Y-61488719D01*
X103457901Y-61487500D01*
X105563100Y-61487500D01*
X105621291Y-61506407D01*
G37*
%TD.AperFunction*%
%TA.AperFunction,Conductor*%
G36*
X100253184Y-62649407D02*
G01*
X100289148Y-62698907D01*
X100289148Y-62760093D01*
X100264997Y-62799504D01*
X98723997Y-64340504D01*
X98669480Y-64368281D01*
X98653993Y-64369500D01*
X97441246Y-64369500D01*
X97383055Y-64350593D01*
X97347091Y-64301093D01*
X97347091Y-64239907D01*
X97362239Y-64210844D01*
X97459673Y-64081821D01*
X97550582Y-63899250D01*
X97606397Y-63703083D01*
X97625215Y-63500000D01*
X97606397Y-63296917D01*
X97550582Y-63100750D01*
X97459673Y-62918179D01*
X97362240Y-62789157D01*
X97342263Y-62731330D01*
X97360092Y-62672799D01*
X97408918Y-62635927D01*
X97441246Y-62630500D01*
X100194993Y-62630500D01*
X100253184Y-62649407D01*
G37*
%TD.AperFunction*%
%TA.AperFunction,Conductor*%
G36*
X109646503Y-60809896D02*
G01*
X109912676Y-61076069D01*
X109940453Y-61130586D01*
X109940825Y-61133150D01*
X109953670Y-61230709D01*
X110008177Y-61362304D01*
X110009139Y-61364625D01*
X110097379Y-61479621D01*
X110212375Y-61567861D01*
X110346291Y-61623330D01*
X110350219Y-61623847D01*
X110405444Y-61650188D01*
X110434638Y-61703959D01*
X110426652Y-61764621D01*
X110384534Y-61809003D01*
X110350219Y-61820152D01*
X110346291Y-61820670D01*
X110346290Y-61820670D01*
X110212378Y-61876137D01*
X110212370Y-61876142D01*
X110134307Y-61936042D01*
X110076631Y-61956466D01*
X110074040Y-61956500D01*
X109807901Y-61956500D01*
X109749710Y-61937593D01*
X109737897Y-61927504D01*
X109506495Y-61696102D01*
X109478718Y-61641585D01*
X109477499Y-61626098D01*
X109477499Y-60879900D01*
X109496406Y-60821709D01*
X109545906Y-60785745D01*
X109607092Y-60785745D01*
X109646503Y-60809896D01*
G37*
%TD.AperFunction*%
%TA.AperFunction,Conductor*%
G36*
X102121078Y-60074407D02*
G01*
X102157042Y-60123907D01*
X102157042Y-60185093D01*
X102132891Y-60224503D01*
X101281325Y-61076069D01*
X100556890Y-61800504D01*
X100502373Y-61828281D01*
X100486886Y-61829500D01*
X97441246Y-61829500D01*
X97383055Y-61810593D01*
X97347091Y-61761093D01*
X97347091Y-61699907D01*
X97362239Y-61670844D01*
X97459673Y-61541821D01*
X97550582Y-61359250D01*
X97606397Y-61163083D01*
X97625215Y-60960000D01*
X97606397Y-60756917D01*
X97550582Y-60560750D01*
X97459673Y-60378179D01*
X97336764Y-60215421D01*
X97336759Y-60215416D01*
X97335811Y-60214161D01*
X97315832Y-60156330D01*
X97333661Y-60097799D01*
X97382487Y-60060927D01*
X97414815Y-60055500D01*
X102062887Y-60055500D01*
X102121078Y-60074407D01*
G37*
%TD.AperFunction*%
%TA.AperFunction,Conductor*%
G36*
X105901001Y-59093407D02*
G01*
X105936965Y-59142907D01*
X105936965Y-59204093D01*
X105901001Y-59253593D01*
X105858295Y-59271281D01*
X105794700Y-59281352D01*
X105794695Y-59281354D01*
X105681658Y-59338950D01*
X105681656Y-59338951D01*
X105591950Y-59428656D01*
X105591950Y-59428657D01*
X105590282Y-59431930D01*
X105560269Y-59467068D01*
X105556396Y-59469882D01*
X105543149Y-59477999D01*
X105521662Y-59488947D01*
X105521656Y-59488951D01*
X104853103Y-60157504D01*
X104798586Y-60185281D01*
X104783099Y-60186500D01*
X103542687Y-60186500D01*
X103484496Y-60167593D01*
X103448532Y-60118093D01*
X103448532Y-60056907D01*
X103472683Y-60017496D01*
X104386683Y-59103496D01*
X104441200Y-59075719D01*
X104456687Y-59074500D01*
X105842810Y-59074500D01*
X105901001Y-59093407D01*
G37*
%TD.AperFunction*%
%TA.AperFunction,Conductor*%
G36*
X97675024Y-57868875D02*
G01*
X97699270Y-57886663D01*
X97768085Y-57955479D01*
X97768092Y-57955485D01*
X97790005Y-57977397D01*
X97790658Y-57978050D01*
X97812145Y-57988998D01*
X97825386Y-57997112D01*
X97844908Y-58011294D01*
X97844909Y-58011294D01*
X97844911Y-58011296D01*
X97867861Y-58018752D01*
X97882201Y-58024693D01*
X97903696Y-58035646D01*
X97927534Y-58039421D01*
X97942611Y-58043041D01*
X97965567Y-58050500D01*
X97997481Y-58050500D01*
X103360780Y-58050500D01*
X103418971Y-58069407D01*
X103454935Y-58118907D01*
X103454935Y-58180093D01*
X103430784Y-58219503D01*
X102872913Y-58777374D01*
X102424783Y-59225504D01*
X102370266Y-59253281D01*
X102354779Y-59254500D01*
X97467677Y-59254500D01*
X97409486Y-59235593D01*
X97373522Y-59186093D01*
X97373522Y-59124907D01*
X97388670Y-59095843D01*
X97459673Y-59001821D01*
X97550582Y-58819250D01*
X97606397Y-58623083D01*
X97625215Y-58420000D01*
X97606397Y-58216917D01*
X97550582Y-58020750D01*
X97540644Y-58000793D01*
X97531632Y-57940276D01*
X97559912Y-57886019D01*
X97614683Y-57858746D01*
X97675024Y-57868875D01*
G37*
%TD.AperFunction*%
M02*
