%TF.GenerationSoftware,KiCad,Pcbnew,7.0.6*%
%TF.CreationDate,2023-11-17T11:55:58+01:00*%
%TF.ProjectId,blue_64,626c7565-5f36-4342-9e6b-696361645f70,rev?*%
%TF.SameCoordinates,Original*%
%TF.FileFunction,Legend,Bot*%
%TF.FilePolarity,Positive*%
%FSLAX46Y46*%
G04 Gerber Fmt 4.6, Leading zero omitted, Abs format (unit mm)*
G04 Created by KiCad (PCBNEW 7.0.6) date 2023-11-17 11:55:58*
%MOMM*%
%LPD*%
G01*
G04 APERTURE LIST*
%ADD10C,0.150000*%
%ADD11C,0.120000*%
G04 APERTURE END LIST*
D10*
X80811666Y-56461819D02*
X81144999Y-55985628D01*
X81383094Y-56461819D02*
X81383094Y-55461819D01*
X81383094Y-55461819D02*
X81002142Y-55461819D01*
X81002142Y-55461819D02*
X80906904Y-55509438D01*
X80906904Y-55509438D02*
X80859285Y-55557057D01*
X80859285Y-55557057D02*
X80811666Y-55652295D01*
X80811666Y-55652295D02*
X80811666Y-55795152D01*
X80811666Y-55795152D02*
X80859285Y-55890390D01*
X80859285Y-55890390D02*
X80906904Y-55938009D01*
X80906904Y-55938009D02*
X81002142Y-55985628D01*
X81002142Y-55985628D02*
X81383094Y-55985628D01*
X79954523Y-55795152D02*
X79954523Y-56461819D01*
X80192618Y-55414200D02*
X80430713Y-56128485D01*
X80430713Y-56128485D02*
X79811666Y-56128485D01*
X78485904Y-65113819D02*
X78485904Y-65923342D01*
X78485904Y-65923342D02*
X78438285Y-66018580D01*
X78438285Y-66018580D02*
X78390666Y-66066200D01*
X78390666Y-66066200D02*
X78295428Y-66113819D01*
X78295428Y-66113819D02*
X78104952Y-66113819D01*
X78104952Y-66113819D02*
X78009714Y-66066200D01*
X78009714Y-66066200D02*
X77962095Y-66018580D01*
X77962095Y-66018580D02*
X77914476Y-65923342D01*
X77914476Y-65923342D02*
X77914476Y-65113819D01*
X77009714Y-65447152D02*
X77009714Y-66113819D01*
X77247809Y-65066200D02*
X77485904Y-65780485D01*
X77485904Y-65780485D02*
X76866857Y-65780485D01*
X82242819Y-81367333D02*
X81766628Y-81034000D01*
X82242819Y-80795905D02*
X81242819Y-80795905D01*
X81242819Y-80795905D02*
X81242819Y-81176857D01*
X81242819Y-81176857D02*
X81290438Y-81272095D01*
X81290438Y-81272095D02*
X81338057Y-81319714D01*
X81338057Y-81319714D02*
X81433295Y-81367333D01*
X81433295Y-81367333D02*
X81576152Y-81367333D01*
X81576152Y-81367333D02*
X81671390Y-81319714D01*
X81671390Y-81319714D02*
X81719009Y-81272095D01*
X81719009Y-81272095D02*
X81766628Y-81176857D01*
X81766628Y-81176857D02*
X81766628Y-80795905D01*
X82242819Y-81843524D02*
X82242819Y-82034000D01*
X82242819Y-82034000D02*
X82195200Y-82129238D01*
X82195200Y-82129238D02*
X82147580Y-82176857D01*
X82147580Y-82176857D02*
X82004723Y-82272095D01*
X82004723Y-82272095D02*
X81814247Y-82319714D01*
X81814247Y-82319714D02*
X81433295Y-82319714D01*
X81433295Y-82319714D02*
X81338057Y-82272095D01*
X81338057Y-82272095D02*
X81290438Y-82224476D01*
X81290438Y-82224476D02*
X81242819Y-82129238D01*
X81242819Y-82129238D02*
X81242819Y-81938762D01*
X81242819Y-81938762D02*
X81290438Y-81843524D01*
X81290438Y-81843524D02*
X81338057Y-81795905D01*
X81338057Y-81795905D02*
X81433295Y-81748286D01*
X81433295Y-81748286D02*
X81671390Y-81748286D01*
X81671390Y-81748286D02*
X81766628Y-81795905D01*
X81766628Y-81795905D02*
X81814247Y-81843524D01*
X81814247Y-81843524D02*
X81861866Y-81938762D01*
X81861866Y-81938762D02*
X81861866Y-82129238D01*
X81861866Y-82129238D02*
X81814247Y-82224476D01*
X81814247Y-82224476D02*
X81766628Y-82272095D01*
X81766628Y-82272095D02*
X81671390Y-82319714D01*
X78485904Y-76670819D02*
X78485904Y-77480342D01*
X78485904Y-77480342D02*
X78438285Y-77575580D01*
X78438285Y-77575580D02*
X78390666Y-77623200D01*
X78390666Y-77623200D02*
X78295428Y-77670819D01*
X78295428Y-77670819D02*
X78104952Y-77670819D01*
X78104952Y-77670819D02*
X78009714Y-77623200D01*
X78009714Y-77623200D02*
X77962095Y-77575580D01*
X77962095Y-77575580D02*
X77914476Y-77480342D01*
X77914476Y-77480342D02*
X77914476Y-76670819D01*
X77533523Y-76670819D02*
X76914476Y-76670819D01*
X76914476Y-76670819D02*
X77247809Y-77051771D01*
X77247809Y-77051771D02*
X77104952Y-77051771D01*
X77104952Y-77051771D02*
X77009714Y-77099390D01*
X77009714Y-77099390D02*
X76962095Y-77147009D01*
X76962095Y-77147009D02*
X76914476Y-77242247D01*
X76914476Y-77242247D02*
X76914476Y-77480342D01*
X76914476Y-77480342D02*
X76962095Y-77575580D01*
X76962095Y-77575580D02*
X77009714Y-77623200D01*
X77009714Y-77623200D02*
X77104952Y-77670819D01*
X77104952Y-77670819D02*
X77390666Y-77670819D01*
X77390666Y-77670819D02*
X77485904Y-77623200D01*
X77485904Y-77623200D02*
X77533523Y-77575580D01*
X93321094Y-97664819D02*
X93321094Y-96664819D01*
X93321094Y-96664819D02*
X93082999Y-96664819D01*
X93082999Y-96664819D02*
X92940142Y-96712438D01*
X92940142Y-96712438D02*
X92844904Y-96807676D01*
X92844904Y-96807676D02*
X92797285Y-96902914D01*
X92797285Y-96902914D02*
X92749666Y-97093390D01*
X92749666Y-97093390D02*
X92749666Y-97236247D01*
X92749666Y-97236247D02*
X92797285Y-97426723D01*
X92797285Y-97426723D02*
X92844904Y-97521961D01*
X92844904Y-97521961D02*
X92940142Y-97617200D01*
X92940142Y-97617200D02*
X93082999Y-97664819D01*
X93082999Y-97664819D02*
X93321094Y-97664819D01*
X91797285Y-97664819D02*
X92368713Y-97664819D01*
X92082999Y-97664819D02*
X92082999Y-96664819D01*
X92082999Y-96664819D02*
X92178237Y-96807676D01*
X92178237Y-96807676D02*
X92273475Y-96902914D01*
X92273475Y-96902914D02*
X92368713Y-96950533D01*
X82242819Y-91686142D02*
X81766628Y-91352809D01*
X82242819Y-91114714D02*
X81242819Y-91114714D01*
X81242819Y-91114714D02*
X81242819Y-91495666D01*
X81242819Y-91495666D02*
X81290438Y-91590904D01*
X81290438Y-91590904D02*
X81338057Y-91638523D01*
X81338057Y-91638523D02*
X81433295Y-91686142D01*
X81433295Y-91686142D02*
X81576152Y-91686142D01*
X81576152Y-91686142D02*
X81671390Y-91638523D01*
X81671390Y-91638523D02*
X81719009Y-91590904D01*
X81719009Y-91590904D02*
X81766628Y-91495666D01*
X81766628Y-91495666D02*
X81766628Y-91114714D01*
X82242819Y-92638523D02*
X82242819Y-92067095D01*
X82242819Y-92352809D02*
X81242819Y-92352809D01*
X81242819Y-92352809D02*
X81385676Y-92257571D01*
X81385676Y-92257571D02*
X81480914Y-92162333D01*
X81480914Y-92162333D02*
X81528533Y-92067095D01*
X81671390Y-93209952D02*
X81623771Y-93114714D01*
X81623771Y-93114714D02*
X81576152Y-93067095D01*
X81576152Y-93067095D02*
X81480914Y-93019476D01*
X81480914Y-93019476D02*
X81433295Y-93019476D01*
X81433295Y-93019476D02*
X81338057Y-93067095D01*
X81338057Y-93067095D02*
X81290438Y-93114714D01*
X81290438Y-93114714D02*
X81242819Y-93209952D01*
X81242819Y-93209952D02*
X81242819Y-93400428D01*
X81242819Y-93400428D02*
X81290438Y-93495666D01*
X81290438Y-93495666D02*
X81338057Y-93543285D01*
X81338057Y-93543285D02*
X81433295Y-93590904D01*
X81433295Y-93590904D02*
X81480914Y-93590904D01*
X81480914Y-93590904D02*
X81576152Y-93543285D01*
X81576152Y-93543285D02*
X81623771Y-93495666D01*
X81623771Y-93495666D02*
X81671390Y-93400428D01*
X81671390Y-93400428D02*
X81671390Y-93209952D01*
X81671390Y-93209952D02*
X81719009Y-93114714D01*
X81719009Y-93114714D02*
X81766628Y-93067095D01*
X81766628Y-93067095D02*
X81861866Y-93019476D01*
X81861866Y-93019476D02*
X82052342Y-93019476D01*
X82052342Y-93019476D02*
X82147580Y-93067095D01*
X82147580Y-93067095D02*
X82195200Y-93114714D01*
X82195200Y-93114714D02*
X82242819Y-93209952D01*
X82242819Y-93209952D02*
X82242819Y-93400428D01*
X82242819Y-93400428D02*
X82195200Y-93495666D01*
X82195200Y-93495666D02*
X82147580Y-93543285D01*
X82147580Y-93543285D02*
X82052342Y-93590904D01*
X82052342Y-93590904D02*
X81861866Y-93590904D01*
X81861866Y-93590904D02*
X81766628Y-93543285D01*
X81766628Y-93543285D02*
X81719009Y-93495666D01*
X81719009Y-93495666D02*
X81671390Y-93400428D01*
X82242819Y-53554333D02*
X81766628Y-53221000D01*
X82242819Y-52982905D02*
X81242819Y-52982905D01*
X81242819Y-52982905D02*
X81242819Y-53363857D01*
X81242819Y-53363857D02*
X81290438Y-53459095D01*
X81290438Y-53459095D02*
X81338057Y-53506714D01*
X81338057Y-53506714D02*
X81433295Y-53554333D01*
X81433295Y-53554333D02*
X81576152Y-53554333D01*
X81576152Y-53554333D02*
X81671390Y-53506714D01*
X81671390Y-53506714D02*
X81719009Y-53459095D01*
X81719009Y-53459095D02*
X81766628Y-53363857D01*
X81766628Y-53363857D02*
X81766628Y-52982905D01*
X82242819Y-54506714D02*
X82242819Y-53935286D01*
X82242819Y-54221000D02*
X81242819Y-54221000D01*
X81242819Y-54221000D02*
X81385676Y-54125762D01*
X81385676Y-54125762D02*
X81480914Y-54030524D01*
X81480914Y-54030524D02*
X81528533Y-53935286D01*
X80811666Y-71828819D02*
X81144999Y-71352628D01*
X81383094Y-71828819D02*
X81383094Y-70828819D01*
X81383094Y-70828819D02*
X81002142Y-70828819D01*
X81002142Y-70828819D02*
X80906904Y-70876438D01*
X80906904Y-70876438D02*
X80859285Y-70924057D01*
X80859285Y-70924057D02*
X80811666Y-71019295D01*
X80811666Y-71019295D02*
X80811666Y-71162152D01*
X80811666Y-71162152D02*
X80859285Y-71257390D01*
X80859285Y-71257390D02*
X80906904Y-71305009D01*
X80906904Y-71305009D02*
X81002142Y-71352628D01*
X81002142Y-71352628D02*
X81383094Y-71352628D01*
X80240237Y-71257390D02*
X80335475Y-71209771D01*
X80335475Y-71209771D02*
X80383094Y-71162152D01*
X80383094Y-71162152D02*
X80430713Y-71066914D01*
X80430713Y-71066914D02*
X80430713Y-71019295D01*
X80430713Y-71019295D02*
X80383094Y-70924057D01*
X80383094Y-70924057D02*
X80335475Y-70876438D01*
X80335475Y-70876438D02*
X80240237Y-70828819D01*
X80240237Y-70828819D02*
X80049761Y-70828819D01*
X80049761Y-70828819D02*
X79954523Y-70876438D01*
X79954523Y-70876438D02*
X79906904Y-70924057D01*
X79906904Y-70924057D02*
X79859285Y-71019295D01*
X79859285Y-71019295D02*
X79859285Y-71066914D01*
X79859285Y-71066914D02*
X79906904Y-71162152D01*
X79906904Y-71162152D02*
X79954523Y-71209771D01*
X79954523Y-71209771D02*
X80049761Y-71257390D01*
X80049761Y-71257390D02*
X80240237Y-71257390D01*
X80240237Y-71257390D02*
X80335475Y-71305009D01*
X80335475Y-71305009D02*
X80383094Y-71352628D01*
X80383094Y-71352628D02*
X80430713Y-71447866D01*
X80430713Y-71447866D02*
X80430713Y-71638342D01*
X80430713Y-71638342D02*
X80383094Y-71733580D01*
X80383094Y-71733580D02*
X80335475Y-71781200D01*
X80335475Y-71781200D02*
X80240237Y-71828819D01*
X80240237Y-71828819D02*
X80049761Y-71828819D01*
X80049761Y-71828819D02*
X79954523Y-71781200D01*
X79954523Y-71781200D02*
X79906904Y-71733580D01*
X79906904Y-71733580D02*
X79859285Y-71638342D01*
X79859285Y-71638342D02*
X79859285Y-71447866D01*
X79859285Y-71447866D02*
X79906904Y-71352628D01*
X79906904Y-71352628D02*
X79954523Y-71305009D01*
X79954523Y-71305009D02*
X80049761Y-71257390D01*
X82369819Y-73747333D02*
X81893628Y-73414000D01*
X82369819Y-73175905D02*
X81369819Y-73175905D01*
X81369819Y-73175905D02*
X81369819Y-73556857D01*
X81369819Y-73556857D02*
X81417438Y-73652095D01*
X81417438Y-73652095D02*
X81465057Y-73699714D01*
X81465057Y-73699714D02*
X81560295Y-73747333D01*
X81560295Y-73747333D02*
X81703152Y-73747333D01*
X81703152Y-73747333D02*
X81798390Y-73699714D01*
X81798390Y-73699714D02*
X81846009Y-73652095D01*
X81846009Y-73652095D02*
X81893628Y-73556857D01*
X81893628Y-73556857D02*
X81893628Y-73175905D01*
X81369819Y-74080667D02*
X81369819Y-74747333D01*
X81369819Y-74747333D02*
X82369819Y-74318762D01*
X82369819Y-68667333D02*
X81893628Y-68334000D01*
X82369819Y-68095905D02*
X81369819Y-68095905D01*
X81369819Y-68095905D02*
X81369819Y-68476857D01*
X81369819Y-68476857D02*
X81417438Y-68572095D01*
X81417438Y-68572095D02*
X81465057Y-68619714D01*
X81465057Y-68619714D02*
X81560295Y-68667333D01*
X81560295Y-68667333D02*
X81703152Y-68667333D01*
X81703152Y-68667333D02*
X81798390Y-68619714D01*
X81798390Y-68619714D02*
X81846009Y-68572095D01*
X81846009Y-68572095D02*
X81893628Y-68476857D01*
X81893628Y-68476857D02*
X81893628Y-68095905D01*
X81369819Y-69572095D02*
X81369819Y-69095905D01*
X81369819Y-69095905D02*
X81846009Y-69048286D01*
X81846009Y-69048286D02*
X81798390Y-69095905D01*
X81798390Y-69095905D02*
X81750771Y-69191143D01*
X81750771Y-69191143D02*
X81750771Y-69429238D01*
X81750771Y-69429238D02*
X81798390Y-69524476D01*
X81798390Y-69524476D02*
X81846009Y-69572095D01*
X81846009Y-69572095D02*
X81941247Y-69619714D01*
X81941247Y-69619714D02*
X82179342Y-69619714D01*
X82179342Y-69619714D02*
X82274580Y-69572095D01*
X82274580Y-69572095D02*
X82322200Y-69524476D01*
X82322200Y-69524476D02*
X82369819Y-69429238D01*
X82369819Y-69429238D02*
X82369819Y-69191143D01*
X82369819Y-69191143D02*
X82322200Y-69095905D01*
X82322200Y-69095905D02*
X82274580Y-69048286D01*
X82242819Y-58507333D02*
X81766628Y-58174000D01*
X82242819Y-57935905D02*
X81242819Y-57935905D01*
X81242819Y-57935905D02*
X81242819Y-58316857D01*
X81242819Y-58316857D02*
X81290438Y-58412095D01*
X81290438Y-58412095D02*
X81338057Y-58459714D01*
X81338057Y-58459714D02*
X81433295Y-58507333D01*
X81433295Y-58507333D02*
X81576152Y-58507333D01*
X81576152Y-58507333D02*
X81671390Y-58459714D01*
X81671390Y-58459714D02*
X81719009Y-58412095D01*
X81719009Y-58412095D02*
X81766628Y-58316857D01*
X81766628Y-58316857D02*
X81766628Y-57935905D01*
X81242819Y-58840667D02*
X81242819Y-59459714D01*
X81242819Y-59459714D02*
X81623771Y-59126381D01*
X81623771Y-59126381D02*
X81623771Y-59269238D01*
X81623771Y-59269238D02*
X81671390Y-59364476D01*
X81671390Y-59364476D02*
X81719009Y-59412095D01*
X81719009Y-59412095D02*
X81814247Y-59459714D01*
X81814247Y-59459714D02*
X82052342Y-59459714D01*
X82052342Y-59459714D02*
X82147580Y-59412095D01*
X82147580Y-59412095D02*
X82195200Y-59364476D01*
X82195200Y-59364476D02*
X82242819Y-59269238D01*
X82242819Y-59269238D02*
X82242819Y-58983524D01*
X82242819Y-58983524D02*
X82195200Y-58888286D01*
X82195200Y-58888286D02*
X82147580Y-58840667D01*
X78485904Y-61430819D02*
X78485904Y-62240342D01*
X78485904Y-62240342D02*
X78438285Y-62335580D01*
X78438285Y-62335580D02*
X78390666Y-62383200D01*
X78390666Y-62383200D02*
X78295428Y-62430819D01*
X78295428Y-62430819D02*
X78104952Y-62430819D01*
X78104952Y-62430819D02*
X78009714Y-62383200D01*
X78009714Y-62383200D02*
X77962095Y-62335580D01*
X77962095Y-62335580D02*
X77914476Y-62240342D01*
X77914476Y-62240342D02*
X77914476Y-61430819D01*
X76962095Y-61430819D02*
X77438285Y-61430819D01*
X77438285Y-61430819D02*
X77485904Y-61907009D01*
X77485904Y-61907009D02*
X77438285Y-61859390D01*
X77438285Y-61859390D02*
X77343047Y-61811771D01*
X77343047Y-61811771D02*
X77104952Y-61811771D01*
X77104952Y-61811771D02*
X77009714Y-61859390D01*
X77009714Y-61859390D02*
X76962095Y-61907009D01*
X76962095Y-61907009D02*
X76914476Y-62002247D01*
X76914476Y-62002247D02*
X76914476Y-62240342D01*
X76914476Y-62240342D02*
X76962095Y-62335580D01*
X76962095Y-62335580D02*
X77009714Y-62383200D01*
X77009714Y-62383200D02*
X77104952Y-62430819D01*
X77104952Y-62430819D02*
X77343047Y-62430819D01*
X77343047Y-62430819D02*
X77438285Y-62383200D01*
X77438285Y-62383200D02*
X77485904Y-62335580D01*
X81541857Y-79194819D02*
X81875190Y-78718628D01*
X82113285Y-79194819D02*
X82113285Y-78194819D01*
X82113285Y-78194819D02*
X81732333Y-78194819D01*
X81732333Y-78194819D02*
X81637095Y-78242438D01*
X81637095Y-78242438D02*
X81589476Y-78290057D01*
X81589476Y-78290057D02*
X81541857Y-78385295D01*
X81541857Y-78385295D02*
X81541857Y-78528152D01*
X81541857Y-78528152D02*
X81589476Y-78623390D01*
X81589476Y-78623390D02*
X81637095Y-78671009D01*
X81637095Y-78671009D02*
X81732333Y-78718628D01*
X81732333Y-78718628D02*
X82113285Y-78718628D01*
X80589476Y-79194819D02*
X81160904Y-79194819D01*
X80875190Y-79194819D02*
X80875190Y-78194819D01*
X80875190Y-78194819D02*
X80970428Y-78337676D01*
X80970428Y-78337676D02*
X81065666Y-78432914D01*
X81065666Y-78432914D02*
X81160904Y-78480533D01*
X79970428Y-78194819D02*
X79875190Y-78194819D01*
X79875190Y-78194819D02*
X79779952Y-78242438D01*
X79779952Y-78242438D02*
X79732333Y-78290057D01*
X79732333Y-78290057D02*
X79684714Y-78385295D01*
X79684714Y-78385295D02*
X79637095Y-78575771D01*
X79637095Y-78575771D02*
X79637095Y-78813866D01*
X79637095Y-78813866D02*
X79684714Y-79004342D01*
X79684714Y-79004342D02*
X79732333Y-79099580D01*
X79732333Y-79099580D02*
X79779952Y-79147200D01*
X79779952Y-79147200D02*
X79875190Y-79194819D01*
X79875190Y-79194819D02*
X79970428Y-79194819D01*
X79970428Y-79194819D02*
X80065666Y-79147200D01*
X80065666Y-79147200D02*
X80113285Y-79099580D01*
X80113285Y-79099580D02*
X80160904Y-79004342D01*
X80160904Y-79004342D02*
X80208523Y-78813866D01*
X80208523Y-78813866D02*
X80208523Y-78575771D01*
X80208523Y-78575771D02*
X80160904Y-78385295D01*
X80160904Y-78385295D02*
X80113285Y-78290057D01*
X80113285Y-78290057D02*
X80065666Y-78242438D01*
X80065666Y-78242438D02*
X79970428Y-78194819D01*
X78144666Y-64716819D02*
X78477999Y-64240628D01*
X78716094Y-64716819D02*
X78716094Y-63716819D01*
X78716094Y-63716819D02*
X78335142Y-63716819D01*
X78335142Y-63716819D02*
X78239904Y-63764438D01*
X78239904Y-63764438D02*
X78192285Y-63812057D01*
X78192285Y-63812057D02*
X78144666Y-63907295D01*
X78144666Y-63907295D02*
X78144666Y-64050152D01*
X78144666Y-64050152D02*
X78192285Y-64145390D01*
X78192285Y-64145390D02*
X78239904Y-64193009D01*
X78239904Y-64193009D02*
X78335142Y-64240628D01*
X78335142Y-64240628D02*
X78716094Y-64240628D01*
X77287523Y-63716819D02*
X77477999Y-63716819D01*
X77477999Y-63716819D02*
X77573237Y-63764438D01*
X77573237Y-63764438D02*
X77620856Y-63812057D01*
X77620856Y-63812057D02*
X77716094Y-63954914D01*
X77716094Y-63954914D02*
X77763713Y-64145390D01*
X77763713Y-64145390D02*
X77763713Y-64526342D01*
X77763713Y-64526342D02*
X77716094Y-64621580D01*
X77716094Y-64621580D02*
X77668475Y-64669200D01*
X77668475Y-64669200D02*
X77573237Y-64716819D01*
X77573237Y-64716819D02*
X77382761Y-64716819D01*
X77382761Y-64716819D02*
X77287523Y-64669200D01*
X77287523Y-64669200D02*
X77239904Y-64621580D01*
X77239904Y-64621580D02*
X77192285Y-64526342D01*
X77192285Y-64526342D02*
X77192285Y-64288247D01*
X77192285Y-64288247D02*
X77239904Y-64193009D01*
X77239904Y-64193009D02*
X77287523Y-64145390D01*
X77287523Y-64145390D02*
X77382761Y-64097771D01*
X77382761Y-64097771D02*
X77573237Y-64097771D01*
X77573237Y-64097771D02*
X77668475Y-64145390D01*
X77668475Y-64145390D02*
X77716094Y-64193009D01*
X77716094Y-64193009D02*
X77763713Y-64288247D01*
X79065333Y-87465819D02*
X79065333Y-88180104D01*
X79065333Y-88180104D02*
X79112952Y-88322961D01*
X79112952Y-88322961D02*
X79208190Y-88418200D01*
X79208190Y-88418200D02*
X79351047Y-88465819D01*
X79351047Y-88465819D02*
X79446285Y-88465819D01*
X78589142Y-88465819D02*
X78589142Y-87465819D01*
X78589142Y-87465819D02*
X78208190Y-87465819D01*
X78208190Y-87465819D02*
X78112952Y-87513438D01*
X78112952Y-87513438D02*
X78065333Y-87561057D01*
X78065333Y-87561057D02*
X78017714Y-87656295D01*
X78017714Y-87656295D02*
X78017714Y-87799152D01*
X78017714Y-87799152D02*
X78065333Y-87894390D01*
X78065333Y-87894390D02*
X78112952Y-87942009D01*
X78112952Y-87942009D02*
X78208190Y-87989628D01*
X78208190Y-87989628D02*
X78589142Y-87989628D01*
X77065333Y-88465819D02*
X77636761Y-88465819D01*
X77351047Y-88465819D02*
X77351047Y-87465819D01*
X77351047Y-87465819D02*
X77446285Y-87608676D01*
X77446285Y-87608676D02*
X77541523Y-87703914D01*
X77541523Y-87703914D02*
X77636761Y-87751533D01*
X80684666Y-51381819D02*
X81017999Y-50905628D01*
X81256094Y-51381819D02*
X81256094Y-50381819D01*
X81256094Y-50381819D02*
X80875142Y-50381819D01*
X80875142Y-50381819D02*
X80779904Y-50429438D01*
X80779904Y-50429438D02*
X80732285Y-50477057D01*
X80732285Y-50477057D02*
X80684666Y-50572295D01*
X80684666Y-50572295D02*
X80684666Y-50715152D01*
X80684666Y-50715152D02*
X80732285Y-50810390D01*
X80732285Y-50810390D02*
X80779904Y-50858009D01*
X80779904Y-50858009D02*
X80875142Y-50905628D01*
X80875142Y-50905628D02*
X81256094Y-50905628D01*
X80303713Y-50477057D02*
X80256094Y-50429438D01*
X80256094Y-50429438D02*
X80160856Y-50381819D01*
X80160856Y-50381819D02*
X79922761Y-50381819D01*
X79922761Y-50381819D02*
X79827523Y-50429438D01*
X79827523Y-50429438D02*
X79779904Y-50477057D01*
X79779904Y-50477057D02*
X79732285Y-50572295D01*
X79732285Y-50572295D02*
X79732285Y-50667533D01*
X79732285Y-50667533D02*
X79779904Y-50810390D01*
X79779904Y-50810390D02*
X80351332Y-51381819D01*
X80351332Y-51381819D02*
X79732285Y-51381819D01*
X78485904Y-49746819D02*
X78485904Y-50556342D01*
X78485904Y-50556342D02*
X78438285Y-50651580D01*
X78438285Y-50651580D02*
X78390666Y-50699200D01*
X78390666Y-50699200D02*
X78295428Y-50746819D01*
X78295428Y-50746819D02*
X78104952Y-50746819D01*
X78104952Y-50746819D02*
X78009714Y-50699200D01*
X78009714Y-50699200D02*
X77962095Y-50651580D01*
X77962095Y-50651580D02*
X77914476Y-50556342D01*
X77914476Y-50556342D02*
X77914476Y-49746819D01*
X77009714Y-49746819D02*
X77200190Y-49746819D01*
X77200190Y-49746819D02*
X77295428Y-49794438D01*
X77295428Y-49794438D02*
X77343047Y-49842057D01*
X77343047Y-49842057D02*
X77438285Y-49984914D01*
X77438285Y-49984914D02*
X77485904Y-50175390D01*
X77485904Y-50175390D02*
X77485904Y-50556342D01*
X77485904Y-50556342D02*
X77438285Y-50651580D01*
X77438285Y-50651580D02*
X77390666Y-50699200D01*
X77390666Y-50699200D02*
X77295428Y-50746819D01*
X77295428Y-50746819D02*
X77104952Y-50746819D01*
X77104952Y-50746819D02*
X77009714Y-50699200D01*
X77009714Y-50699200D02*
X76962095Y-50651580D01*
X76962095Y-50651580D02*
X76914476Y-50556342D01*
X76914476Y-50556342D02*
X76914476Y-50318247D01*
X76914476Y-50318247D02*
X76962095Y-50223009D01*
X76962095Y-50223009D02*
X77009714Y-50175390D01*
X77009714Y-50175390D02*
X77104952Y-50127771D01*
X77104952Y-50127771D02*
X77295428Y-50127771D01*
X77295428Y-50127771D02*
X77390666Y-50175390D01*
X77390666Y-50175390D02*
X77438285Y-50223009D01*
X77438285Y-50223009D02*
X77485904Y-50318247D01*
X77819238Y-97070057D02*
X77914476Y-97022438D01*
X77914476Y-97022438D02*
X78009714Y-96927200D01*
X78009714Y-96927200D02*
X78152571Y-96784342D01*
X78152571Y-96784342D02*
X78247809Y-96736723D01*
X78247809Y-96736723D02*
X78343047Y-96736723D01*
X78295428Y-96974819D02*
X78390666Y-96927200D01*
X78390666Y-96927200D02*
X78485904Y-96831961D01*
X78485904Y-96831961D02*
X78533523Y-96641485D01*
X78533523Y-96641485D02*
X78533523Y-96308152D01*
X78533523Y-96308152D02*
X78485904Y-96117676D01*
X78485904Y-96117676D02*
X78390666Y-96022438D01*
X78390666Y-96022438D02*
X78295428Y-95974819D01*
X78295428Y-95974819D02*
X78104952Y-95974819D01*
X78104952Y-95974819D02*
X78009714Y-96022438D01*
X78009714Y-96022438D02*
X77914476Y-96117676D01*
X77914476Y-96117676D02*
X77866857Y-96308152D01*
X77866857Y-96308152D02*
X77866857Y-96641485D01*
X77866857Y-96641485D02*
X77914476Y-96831961D01*
X77914476Y-96831961D02*
X78009714Y-96927200D01*
X78009714Y-96927200D02*
X78104952Y-96974819D01*
X78104952Y-96974819D02*
X78295428Y-96974819D01*
X76914476Y-96974819D02*
X77485904Y-96974819D01*
X77200190Y-96974819D02*
X77200190Y-95974819D01*
X77200190Y-95974819D02*
X77295428Y-96117676D01*
X77295428Y-96117676D02*
X77390666Y-96212914D01*
X77390666Y-96212914D02*
X77485904Y-96260533D01*
X78485904Y-84290819D02*
X78485904Y-85100342D01*
X78485904Y-85100342D02*
X78438285Y-85195580D01*
X78438285Y-85195580D02*
X78390666Y-85243200D01*
X78390666Y-85243200D02*
X78295428Y-85290819D01*
X78295428Y-85290819D02*
X78104952Y-85290819D01*
X78104952Y-85290819D02*
X78009714Y-85243200D01*
X78009714Y-85243200D02*
X77962095Y-85195580D01*
X77962095Y-85195580D02*
X77914476Y-85100342D01*
X77914476Y-85100342D02*
X77914476Y-84290819D01*
X77485904Y-84386057D02*
X77438285Y-84338438D01*
X77438285Y-84338438D02*
X77343047Y-84290819D01*
X77343047Y-84290819D02*
X77104952Y-84290819D01*
X77104952Y-84290819D02*
X77009714Y-84338438D01*
X77009714Y-84338438D02*
X76962095Y-84386057D01*
X76962095Y-84386057D02*
X76914476Y-84481295D01*
X76914476Y-84481295D02*
X76914476Y-84576533D01*
X76914476Y-84576533D02*
X76962095Y-84719390D01*
X76962095Y-84719390D02*
X77533523Y-85290819D01*
X77533523Y-85290819D02*
X76914476Y-85290819D01*
D11*
X78140779Y-57406000D02*
X77815221Y-57406000D01*
X78140779Y-56386000D02*
X77815221Y-56386000D01*
X78524000Y-71196000D02*
X76924000Y-71196000D01*
X76924000Y-67996000D02*
X79224000Y-67996000D01*
X80824800Y-81371221D02*
X80824800Y-81696779D01*
X79804800Y-81371221D02*
X79804800Y-81696779D01*
X78524000Y-76276000D02*
X76924000Y-76276000D01*
X76924000Y-73076000D02*
X79224000Y-73076000D01*
X94483000Y-99910000D02*
X91333000Y-99910000D01*
X94483000Y-98210000D02*
X94483000Y-99910000D01*
X94483000Y-98210000D02*
X91333000Y-98210000D01*
X80774000Y-92090021D02*
X80774000Y-92415579D01*
X79754000Y-92090021D02*
X79754000Y-92415579D01*
X80824800Y-53431221D02*
X80824800Y-53756779D01*
X79804800Y-53431221D02*
X79804800Y-53756779D01*
X78140779Y-72646000D02*
X77815221Y-72646000D01*
X78140779Y-71626000D02*
X77815221Y-71626000D01*
X80824800Y-73751221D02*
X80824800Y-74076779D01*
X79804800Y-73751221D02*
X79804800Y-74076779D01*
X80824800Y-68671221D02*
X80824800Y-68996779D01*
X79804800Y-68671221D02*
X79804800Y-68996779D01*
X80824800Y-58511221D02*
X80824800Y-58836779D01*
X79804800Y-58511221D02*
X79804800Y-58836779D01*
X78524000Y-61036000D02*
X76924000Y-61036000D01*
X76924000Y-57836000D02*
X79224000Y-57836000D01*
X78115279Y-80139000D02*
X77789721Y-80139000D01*
X78115279Y-79119000D02*
X77789721Y-79119000D01*
X78140779Y-67566000D02*
X77815221Y-67566000D01*
X78140779Y-66546000D02*
X77815221Y-66546000D01*
X78481200Y-89125600D02*
X77881200Y-89125600D01*
X77181200Y-89825600D02*
X77181200Y-91225600D01*
X79181200Y-91225600D02*
X79181200Y-89825600D01*
X77881200Y-91925600D02*
X78481200Y-91925600D01*
X79181200Y-89825600D02*
G75*
G03*
X78481200Y-89125600I-699999J1D01*
G01*
X77881200Y-89125600D02*
G75*
G03*
X77181200Y-89825600I-1J-699999D01*
G01*
X78481200Y-91925600D02*
G75*
G03*
X79181200Y-91225600I0J700000D01*
G01*
X77181200Y-91225600D02*
G75*
G03*
X77881200Y-91925600I700000J0D01*
G01*
X78115279Y-52326000D02*
X77789721Y-52326000D01*
X78115279Y-51306000D02*
X77789721Y-51306000D01*
X78524000Y-55956000D02*
X76924000Y-55956000D01*
X76924000Y-52756000D02*
X79224000Y-52756000D01*
X76964000Y-95560000D02*
X78424000Y-95560000D01*
X76964000Y-95560000D02*
X76964000Y-94630000D01*
X76964000Y-92400000D02*
X79124000Y-92400000D01*
X76964000Y-92400000D02*
X76964000Y-93330000D01*
X78524000Y-83896000D02*
X76924000Y-83896000D01*
X76924000Y-80696000D02*
X79224000Y-80696000D01*
M02*
