%TF.GenerationSoftware,KiCad,Pcbnew,7.0.6*%
%TF.CreationDate,2024-03-10T08:43:15+01:00*%
%TF.ProjectId,blue_64,626c7565-5f36-4342-9e6b-696361645f70,rev?*%
%TF.SameCoordinates,Original*%
%TF.FileFunction,Legend,Bot*%
%TF.FilePolarity,Positive*%
%FSLAX46Y46*%
G04 Gerber Fmt 4.6, Leading zero omitted, Abs format (unit mm)*
G04 Created by KiCad (PCBNEW 7.0.6) date 2024-03-10 08:43:15*
%MOMM*%
%LPD*%
G01*
G04 APERTURE LIST*
%ADD10C,0.150000*%
%ADD11C,0.120000*%
G04 APERTURE END LIST*
D10*
X90878819Y-83939142D02*
X90402628Y-83605809D01*
X90878819Y-83367714D02*
X89878819Y-83367714D01*
X89878819Y-83367714D02*
X89878819Y-83748666D01*
X89878819Y-83748666D02*
X89926438Y-83843904D01*
X89926438Y-83843904D02*
X89974057Y-83891523D01*
X89974057Y-83891523D02*
X90069295Y-83939142D01*
X90069295Y-83939142D02*
X90212152Y-83939142D01*
X90212152Y-83939142D02*
X90307390Y-83891523D01*
X90307390Y-83891523D02*
X90355009Y-83843904D01*
X90355009Y-83843904D02*
X90402628Y-83748666D01*
X90402628Y-83748666D02*
X90402628Y-83367714D01*
X90878819Y-84891523D02*
X90878819Y-84320095D01*
X90878819Y-84605809D02*
X89878819Y-84605809D01*
X89878819Y-84605809D02*
X90021676Y-84510571D01*
X90021676Y-84510571D02*
X90116914Y-84415333D01*
X90116914Y-84415333D02*
X90164533Y-84320095D01*
X89878819Y-85796285D02*
X89878819Y-85320095D01*
X89878819Y-85320095D02*
X90355009Y-85272476D01*
X90355009Y-85272476D02*
X90307390Y-85320095D01*
X90307390Y-85320095D02*
X90259771Y-85415333D01*
X90259771Y-85415333D02*
X90259771Y-85653428D01*
X90259771Y-85653428D02*
X90307390Y-85748666D01*
X90307390Y-85748666D02*
X90355009Y-85796285D01*
X90355009Y-85796285D02*
X90450247Y-85843904D01*
X90450247Y-85843904D02*
X90688342Y-85843904D01*
X90688342Y-85843904D02*
X90783580Y-85796285D01*
X90783580Y-85796285D02*
X90831200Y-85748666D01*
X90831200Y-85748666D02*
X90878819Y-85653428D01*
X90878819Y-85653428D02*
X90878819Y-85415333D01*
X90878819Y-85415333D02*
X90831200Y-85320095D01*
X90831200Y-85320095D02*
X90783580Y-85272476D01*
X80811666Y-56969819D02*
X81144999Y-56493628D01*
X81383094Y-56969819D02*
X81383094Y-55969819D01*
X81383094Y-55969819D02*
X81002142Y-55969819D01*
X81002142Y-55969819D02*
X80906904Y-56017438D01*
X80906904Y-56017438D02*
X80859285Y-56065057D01*
X80859285Y-56065057D02*
X80811666Y-56160295D01*
X80811666Y-56160295D02*
X80811666Y-56303152D01*
X80811666Y-56303152D02*
X80859285Y-56398390D01*
X80859285Y-56398390D02*
X80906904Y-56446009D01*
X80906904Y-56446009D02*
X81002142Y-56493628D01*
X81002142Y-56493628D02*
X81383094Y-56493628D01*
X79954523Y-56303152D02*
X79954523Y-56969819D01*
X80192618Y-55922200D02*
X80430713Y-56636485D01*
X80430713Y-56636485D02*
X79811666Y-56636485D01*
X92402819Y-67937142D02*
X91926628Y-67603809D01*
X92402819Y-67365714D02*
X91402819Y-67365714D01*
X91402819Y-67365714D02*
X91402819Y-67746666D01*
X91402819Y-67746666D02*
X91450438Y-67841904D01*
X91450438Y-67841904D02*
X91498057Y-67889523D01*
X91498057Y-67889523D02*
X91593295Y-67937142D01*
X91593295Y-67937142D02*
X91736152Y-67937142D01*
X91736152Y-67937142D02*
X91831390Y-67889523D01*
X91831390Y-67889523D02*
X91879009Y-67841904D01*
X91879009Y-67841904D02*
X91926628Y-67746666D01*
X91926628Y-67746666D02*
X91926628Y-67365714D01*
X92402819Y-68889523D02*
X92402819Y-68318095D01*
X92402819Y-68603809D02*
X91402819Y-68603809D01*
X91402819Y-68603809D02*
X91545676Y-68508571D01*
X91545676Y-68508571D02*
X91640914Y-68413333D01*
X91640914Y-68413333D02*
X91688533Y-68318095D01*
X91402819Y-69222857D02*
X91402819Y-69841904D01*
X91402819Y-69841904D02*
X91783771Y-69508571D01*
X91783771Y-69508571D02*
X91783771Y-69651428D01*
X91783771Y-69651428D02*
X91831390Y-69746666D01*
X91831390Y-69746666D02*
X91879009Y-69794285D01*
X91879009Y-69794285D02*
X91974247Y-69841904D01*
X91974247Y-69841904D02*
X92212342Y-69841904D01*
X92212342Y-69841904D02*
X92307580Y-69794285D01*
X92307580Y-69794285D02*
X92355200Y-69746666D01*
X92355200Y-69746666D02*
X92402819Y-69651428D01*
X92402819Y-69651428D02*
X92402819Y-69365714D01*
X92402819Y-69365714D02*
X92355200Y-69270476D01*
X92355200Y-69270476D02*
X92307580Y-69222857D01*
X75273819Y-66040095D02*
X76083342Y-66040095D01*
X76083342Y-66040095D02*
X76178580Y-66087714D01*
X76178580Y-66087714D02*
X76226200Y-66135333D01*
X76226200Y-66135333D02*
X76273819Y-66230571D01*
X76273819Y-66230571D02*
X76273819Y-66421047D01*
X76273819Y-66421047D02*
X76226200Y-66516285D01*
X76226200Y-66516285D02*
X76178580Y-66563904D01*
X76178580Y-66563904D02*
X76083342Y-66611523D01*
X76083342Y-66611523D02*
X75273819Y-66611523D01*
X75607152Y-67516285D02*
X76273819Y-67516285D01*
X75226200Y-67278190D02*
X75940485Y-67040095D01*
X75940485Y-67040095D02*
X75940485Y-67659142D01*
X89354819Y-83939142D02*
X88878628Y-83605809D01*
X89354819Y-83367714D02*
X88354819Y-83367714D01*
X88354819Y-83367714D02*
X88354819Y-83748666D01*
X88354819Y-83748666D02*
X88402438Y-83843904D01*
X88402438Y-83843904D02*
X88450057Y-83891523D01*
X88450057Y-83891523D02*
X88545295Y-83939142D01*
X88545295Y-83939142D02*
X88688152Y-83939142D01*
X88688152Y-83939142D02*
X88783390Y-83891523D01*
X88783390Y-83891523D02*
X88831009Y-83843904D01*
X88831009Y-83843904D02*
X88878628Y-83748666D01*
X88878628Y-83748666D02*
X88878628Y-83367714D01*
X89354819Y-84891523D02*
X89354819Y-84320095D01*
X89354819Y-84605809D02*
X88354819Y-84605809D01*
X88354819Y-84605809D02*
X88497676Y-84510571D01*
X88497676Y-84510571D02*
X88592914Y-84415333D01*
X88592914Y-84415333D02*
X88640533Y-84320095D01*
X88688152Y-85748666D02*
X89354819Y-85748666D01*
X88307200Y-85510571D02*
X89021485Y-85272476D01*
X89021485Y-85272476D02*
X89021485Y-85891523D01*
X90878819Y-67937142D02*
X90402628Y-67603809D01*
X90878819Y-67365714D02*
X89878819Y-67365714D01*
X89878819Y-67365714D02*
X89878819Y-67746666D01*
X89878819Y-67746666D02*
X89926438Y-67841904D01*
X89926438Y-67841904D02*
X89974057Y-67889523D01*
X89974057Y-67889523D02*
X90069295Y-67937142D01*
X90069295Y-67937142D02*
X90212152Y-67937142D01*
X90212152Y-67937142D02*
X90307390Y-67889523D01*
X90307390Y-67889523D02*
X90355009Y-67841904D01*
X90355009Y-67841904D02*
X90402628Y-67746666D01*
X90402628Y-67746666D02*
X90402628Y-67365714D01*
X90878819Y-68889523D02*
X90878819Y-68318095D01*
X90878819Y-68603809D02*
X89878819Y-68603809D01*
X89878819Y-68603809D02*
X90021676Y-68508571D01*
X90021676Y-68508571D02*
X90116914Y-68413333D01*
X90116914Y-68413333D02*
X90164533Y-68318095D01*
X89974057Y-69270476D02*
X89926438Y-69318095D01*
X89926438Y-69318095D02*
X89878819Y-69413333D01*
X89878819Y-69413333D02*
X89878819Y-69651428D01*
X89878819Y-69651428D02*
X89926438Y-69746666D01*
X89926438Y-69746666D02*
X89974057Y-69794285D01*
X89974057Y-69794285D02*
X90069295Y-69841904D01*
X90069295Y-69841904D02*
X90164533Y-69841904D01*
X90164533Y-69841904D02*
X90307390Y-69794285D01*
X90307390Y-69794285D02*
X90878819Y-69222857D01*
X90878819Y-69222857D02*
X90878819Y-69841904D01*
X82242819Y-81113333D02*
X81766628Y-80780000D01*
X82242819Y-80541905D02*
X81242819Y-80541905D01*
X81242819Y-80541905D02*
X81242819Y-80922857D01*
X81242819Y-80922857D02*
X81290438Y-81018095D01*
X81290438Y-81018095D02*
X81338057Y-81065714D01*
X81338057Y-81065714D02*
X81433295Y-81113333D01*
X81433295Y-81113333D02*
X81576152Y-81113333D01*
X81576152Y-81113333D02*
X81671390Y-81065714D01*
X81671390Y-81065714D02*
X81719009Y-81018095D01*
X81719009Y-81018095D02*
X81766628Y-80922857D01*
X81766628Y-80922857D02*
X81766628Y-80541905D01*
X82242819Y-81589524D02*
X82242819Y-81780000D01*
X82242819Y-81780000D02*
X82195200Y-81875238D01*
X82195200Y-81875238D02*
X82147580Y-81922857D01*
X82147580Y-81922857D02*
X82004723Y-82018095D01*
X82004723Y-82018095D02*
X81814247Y-82065714D01*
X81814247Y-82065714D02*
X81433295Y-82065714D01*
X81433295Y-82065714D02*
X81338057Y-82018095D01*
X81338057Y-82018095D02*
X81290438Y-81970476D01*
X81290438Y-81970476D02*
X81242819Y-81875238D01*
X81242819Y-81875238D02*
X81242819Y-81684762D01*
X81242819Y-81684762D02*
X81290438Y-81589524D01*
X81290438Y-81589524D02*
X81338057Y-81541905D01*
X81338057Y-81541905D02*
X81433295Y-81494286D01*
X81433295Y-81494286D02*
X81671390Y-81494286D01*
X81671390Y-81494286D02*
X81766628Y-81541905D01*
X81766628Y-81541905D02*
X81814247Y-81589524D01*
X81814247Y-81589524D02*
X81861866Y-81684762D01*
X81861866Y-81684762D02*
X81861866Y-81875238D01*
X81861866Y-81875238D02*
X81814247Y-81970476D01*
X81814247Y-81970476D02*
X81766628Y-82018095D01*
X81766628Y-82018095D02*
X81671390Y-82065714D01*
X78485904Y-77432819D02*
X78485904Y-78242342D01*
X78485904Y-78242342D02*
X78438285Y-78337580D01*
X78438285Y-78337580D02*
X78390666Y-78385200D01*
X78390666Y-78385200D02*
X78295428Y-78432819D01*
X78295428Y-78432819D02*
X78104952Y-78432819D01*
X78104952Y-78432819D02*
X78009714Y-78385200D01*
X78009714Y-78385200D02*
X77962095Y-78337580D01*
X77962095Y-78337580D02*
X77914476Y-78242342D01*
X77914476Y-78242342D02*
X77914476Y-77432819D01*
X77533523Y-77432819D02*
X76914476Y-77432819D01*
X76914476Y-77432819D02*
X77247809Y-77813771D01*
X77247809Y-77813771D02*
X77104952Y-77813771D01*
X77104952Y-77813771D02*
X77009714Y-77861390D01*
X77009714Y-77861390D02*
X76962095Y-77909009D01*
X76962095Y-77909009D02*
X76914476Y-78004247D01*
X76914476Y-78004247D02*
X76914476Y-78242342D01*
X76914476Y-78242342D02*
X76962095Y-78337580D01*
X76962095Y-78337580D02*
X77009714Y-78385200D01*
X77009714Y-78385200D02*
X77104952Y-78432819D01*
X77104952Y-78432819D02*
X77390666Y-78432819D01*
X77390666Y-78432819D02*
X77485904Y-78385200D01*
X77485904Y-78385200D02*
X77533523Y-78337580D01*
X94210094Y-97736819D02*
X94210094Y-96736819D01*
X94210094Y-96736819D02*
X93971999Y-96736819D01*
X93971999Y-96736819D02*
X93829142Y-96784438D01*
X93829142Y-96784438D02*
X93733904Y-96879676D01*
X93733904Y-96879676D02*
X93686285Y-96974914D01*
X93686285Y-96974914D02*
X93638666Y-97165390D01*
X93638666Y-97165390D02*
X93638666Y-97308247D01*
X93638666Y-97308247D02*
X93686285Y-97498723D01*
X93686285Y-97498723D02*
X93733904Y-97593961D01*
X93733904Y-97593961D02*
X93829142Y-97689200D01*
X93829142Y-97689200D02*
X93971999Y-97736819D01*
X93971999Y-97736819D02*
X94210094Y-97736819D01*
X92686285Y-97736819D02*
X93257713Y-97736819D01*
X92971999Y-97736819D02*
X92971999Y-96736819D01*
X92971999Y-96736819D02*
X93067237Y-96879676D01*
X93067237Y-96879676D02*
X93162475Y-96974914D01*
X93162475Y-96974914D02*
X93257713Y-97022533D01*
X82242819Y-91686142D02*
X81766628Y-91352809D01*
X82242819Y-91114714D02*
X81242819Y-91114714D01*
X81242819Y-91114714D02*
X81242819Y-91495666D01*
X81242819Y-91495666D02*
X81290438Y-91590904D01*
X81290438Y-91590904D02*
X81338057Y-91638523D01*
X81338057Y-91638523D02*
X81433295Y-91686142D01*
X81433295Y-91686142D02*
X81576152Y-91686142D01*
X81576152Y-91686142D02*
X81671390Y-91638523D01*
X81671390Y-91638523D02*
X81719009Y-91590904D01*
X81719009Y-91590904D02*
X81766628Y-91495666D01*
X81766628Y-91495666D02*
X81766628Y-91114714D01*
X82242819Y-92638523D02*
X82242819Y-92067095D01*
X82242819Y-92352809D02*
X81242819Y-92352809D01*
X81242819Y-92352809D02*
X81385676Y-92257571D01*
X81385676Y-92257571D02*
X81480914Y-92162333D01*
X81480914Y-92162333D02*
X81528533Y-92067095D01*
X81671390Y-93209952D02*
X81623771Y-93114714D01*
X81623771Y-93114714D02*
X81576152Y-93067095D01*
X81576152Y-93067095D02*
X81480914Y-93019476D01*
X81480914Y-93019476D02*
X81433295Y-93019476D01*
X81433295Y-93019476D02*
X81338057Y-93067095D01*
X81338057Y-93067095D02*
X81290438Y-93114714D01*
X81290438Y-93114714D02*
X81242819Y-93209952D01*
X81242819Y-93209952D02*
X81242819Y-93400428D01*
X81242819Y-93400428D02*
X81290438Y-93495666D01*
X81290438Y-93495666D02*
X81338057Y-93543285D01*
X81338057Y-93543285D02*
X81433295Y-93590904D01*
X81433295Y-93590904D02*
X81480914Y-93590904D01*
X81480914Y-93590904D02*
X81576152Y-93543285D01*
X81576152Y-93543285D02*
X81623771Y-93495666D01*
X81623771Y-93495666D02*
X81671390Y-93400428D01*
X81671390Y-93400428D02*
X81671390Y-93209952D01*
X81671390Y-93209952D02*
X81719009Y-93114714D01*
X81719009Y-93114714D02*
X81766628Y-93067095D01*
X81766628Y-93067095D02*
X81861866Y-93019476D01*
X81861866Y-93019476D02*
X82052342Y-93019476D01*
X82052342Y-93019476D02*
X82147580Y-93067095D01*
X82147580Y-93067095D02*
X82195200Y-93114714D01*
X82195200Y-93114714D02*
X82242819Y-93209952D01*
X82242819Y-93209952D02*
X82242819Y-93400428D01*
X82242819Y-93400428D02*
X82195200Y-93495666D01*
X82195200Y-93495666D02*
X82147580Y-93543285D01*
X82147580Y-93543285D02*
X82052342Y-93590904D01*
X82052342Y-93590904D02*
X81861866Y-93590904D01*
X81861866Y-93590904D02*
X81766628Y-93543285D01*
X81766628Y-93543285D02*
X81719009Y-93495666D01*
X81719009Y-93495666D02*
X81671390Y-93400428D01*
X82242819Y-53554333D02*
X81766628Y-53221000D01*
X82242819Y-52982905D02*
X81242819Y-52982905D01*
X81242819Y-52982905D02*
X81242819Y-53363857D01*
X81242819Y-53363857D02*
X81290438Y-53459095D01*
X81290438Y-53459095D02*
X81338057Y-53506714D01*
X81338057Y-53506714D02*
X81433295Y-53554333D01*
X81433295Y-53554333D02*
X81576152Y-53554333D01*
X81576152Y-53554333D02*
X81671390Y-53506714D01*
X81671390Y-53506714D02*
X81719009Y-53459095D01*
X81719009Y-53459095D02*
X81766628Y-53363857D01*
X81766628Y-53363857D02*
X81766628Y-52982905D01*
X82242819Y-54506714D02*
X82242819Y-53935286D01*
X82242819Y-54221000D02*
X81242819Y-54221000D01*
X81242819Y-54221000D02*
X81385676Y-54125762D01*
X81385676Y-54125762D02*
X81480914Y-54030524D01*
X81480914Y-54030524D02*
X81528533Y-53935286D01*
X80811666Y-72590819D02*
X81144999Y-72114628D01*
X81383094Y-72590819D02*
X81383094Y-71590819D01*
X81383094Y-71590819D02*
X81002142Y-71590819D01*
X81002142Y-71590819D02*
X80906904Y-71638438D01*
X80906904Y-71638438D02*
X80859285Y-71686057D01*
X80859285Y-71686057D02*
X80811666Y-71781295D01*
X80811666Y-71781295D02*
X80811666Y-71924152D01*
X80811666Y-71924152D02*
X80859285Y-72019390D01*
X80859285Y-72019390D02*
X80906904Y-72067009D01*
X80906904Y-72067009D02*
X81002142Y-72114628D01*
X81002142Y-72114628D02*
X81383094Y-72114628D01*
X80240237Y-72019390D02*
X80335475Y-71971771D01*
X80335475Y-71971771D02*
X80383094Y-71924152D01*
X80383094Y-71924152D02*
X80430713Y-71828914D01*
X80430713Y-71828914D02*
X80430713Y-71781295D01*
X80430713Y-71781295D02*
X80383094Y-71686057D01*
X80383094Y-71686057D02*
X80335475Y-71638438D01*
X80335475Y-71638438D02*
X80240237Y-71590819D01*
X80240237Y-71590819D02*
X80049761Y-71590819D01*
X80049761Y-71590819D02*
X79954523Y-71638438D01*
X79954523Y-71638438D02*
X79906904Y-71686057D01*
X79906904Y-71686057D02*
X79859285Y-71781295D01*
X79859285Y-71781295D02*
X79859285Y-71828914D01*
X79859285Y-71828914D02*
X79906904Y-71924152D01*
X79906904Y-71924152D02*
X79954523Y-71971771D01*
X79954523Y-71971771D02*
X80049761Y-72019390D01*
X80049761Y-72019390D02*
X80240237Y-72019390D01*
X80240237Y-72019390D02*
X80335475Y-72067009D01*
X80335475Y-72067009D02*
X80383094Y-72114628D01*
X80383094Y-72114628D02*
X80430713Y-72209866D01*
X80430713Y-72209866D02*
X80430713Y-72400342D01*
X80430713Y-72400342D02*
X80383094Y-72495580D01*
X80383094Y-72495580D02*
X80335475Y-72543200D01*
X80335475Y-72543200D02*
X80240237Y-72590819D01*
X80240237Y-72590819D02*
X80049761Y-72590819D01*
X80049761Y-72590819D02*
X79954523Y-72543200D01*
X79954523Y-72543200D02*
X79906904Y-72495580D01*
X79906904Y-72495580D02*
X79859285Y-72400342D01*
X79859285Y-72400342D02*
X79859285Y-72209866D01*
X79859285Y-72209866D02*
X79906904Y-72114628D01*
X79906904Y-72114628D02*
X79954523Y-72067009D01*
X79954523Y-72067009D02*
X80049761Y-72019390D01*
X92402819Y-83939142D02*
X91926628Y-83605809D01*
X92402819Y-83367714D02*
X91402819Y-83367714D01*
X91402819Y-83367714D02*
X91402819Y-83748666D01*
X91402819Y-83748666D02*
X91450438Y-83843904D01*
X91450438Y-83843904D02*
X91498057Y-83891523D01*
X91498057Y-83891523D02*
X91593295Y-83939142D01*
X91593295Y-83939142D02*
X91736152Y-83939142D01*
X91736152Y-83939142D02*
X91831390Y-83891523D01*
X91831390Y-83891523D02*
X91879009Y-83843904D01*
X91879009Y-83843904D02*
X91926628Y-83748666D01*
X91926628Y-83748666D02*
X91926628Y-83367714D01*
X92402819Y-84891523D02*
X92402819Y-84320095D01*
X92402819Y-84605809D02*
X91402819Y-84605809D01*
X91402819Y-84605809D02*
X91545676Y-84510571D01*
X91545676Y-84510571D02*
X91640914Y-84415333D01*
X91640914Y-84415333D02*
X91688533Y-84320095D01*
X91402819Y-85748666D02*
X91402819Y-85558190D01*
X91402819Y-85558190D02*
X91450438Y-85462952D01*
X91450438Y-85462952D02*
X91498057Y-85415333D01*
X91498057Y-85415333D02*
X91640914Y-85320095D01*
X91640914Y-85320095D02*
X91831390Y-85272476D01*
X91831390Y-85272476D02*
X92212342Y-85272476D01*
X92212342Y-85272476D02*
X92307580Y-85320095D01*
X92307580Y-85320095D02*
X92355200Y-85367714D01*
X92355200Y-85367714D02*
X92402819Y-85462952D01*
X92402819Y-85462952D02*
X92402819Y-85653428D01*
X92402819Y-85653428D02*
X92355200Y-85748666D01*
X92355200Y-85748666D02*
X92307580Y-85796285D01*
X92307580Y-85796285D02*
X92212342Y-85843904D01*
X92212342Y-85843904D02*
X91974247Y-85843904D01*
X91974247Y-85843904D02*
X91879009Y-85796285D01*
X91879009Y-85796285D02*
X91831390Y-85748666D01*
X91831390Y-85748666D02*
X91783771Y-85653428D01*
X91783771Y-85653428D02*
X91783771Y-85462952D01*
X91783771Y-85462952D02*
X91831390Y-85367714D01*
X91831390Y-85367714D02*
X91879009Y-85320095D01*
X91879009Y-85320095D02*
X91974247Y-85272476D01*
X89354819Y-67937142D02*
X88878628Y-67603809D01*
X89354819Y-67365714D02*
X88354819Y-67365714D01*
X88354819Y-67365714D02*
X88354819Y-67746666D01*
X88354819Y-67746666D02*
X88402438Y-67841904D01*
X88402438Y-67841904D02*
X88450057Y-67889523D01*
X88450057Y-67889523D02*
X88545295Y-67937142D01*
X88545295Y-67937142D02*
X88688152Y-67937142D01*
X88688152Y-67937142D02*
X88783390Y-67889523D01*
X88783390Y-67889523D02*
X88831009Y-67841904D01*
X88831009Y-67841904D02*
X88878628Y-67746666D01*
X88878628Y-67746666D02*
X88878628Y-67365714D01*
X89354819Y-68889523D02*
X89354819Y-68318095D01*
X89354819Y-68603809D02*
X88354819Y-68603809D01*
X88354819Y-68603809D02*
X88497676Y-68508571D01*
X88497676Y-68508571D02*
X88592914Y-68413333D01*
X88592914Y-68413333D02*
X88640533Y-68318095D01*
X89354819Y-69841904D02*
X89354819Y-69270476D01*
X89354819Y-69556190D02*
X88354819Y-69556190D01*
X88354819Y-69556190D02*
X88497676Y-69460952D01*
X88497676Y-69460952D02*
X88592914Y-69365714D01*
X88592914Y-69365714D02*
X88640533Y-69270476D01*
X83655819Y-87757095D02*
X84465342Y-87757095D01*
X84465342Y-87757095D02*
X84560580Y-87804714D01*
X84560580Y-87804714D02*
X84608200Y-87852333D01*
X84608200Y-87852333D02*
X84655819Y-87947571D01*
X84655819Y-87947571D02*
X84655819Y-88138047D01*
X84655819Y-88138047D02*
X84608200Y-88233285D01*
X84608200Y-88233285D02*
X84560580Y-88280904D01*
X84560580Y-88280904D02*
X84465342Y-88328523D01*
X84465342Y-88328523D02*
X83655819Y-88328523D01*
X84655819Y-88852333D02*
X84655819Y-89042809D01*
X84655819Y-89042809D02*
X84608200Y-89138047D01*
X84608200Y-89138047D02*
X84560580Y-89185666D01*
X84560580Y-89185666D02*
X84417723Y-89280904D01*
X84417723Y-89280904D02*
X84227247Y-89328523D01*
X84227247Y-89328523D02*
X83846295Y-89328523D01*
X83846295Y-89328523D02*
X83751057Y-89280904D01*
X83751057Y-89280904D02*
X83703438Y-89233285D01*
X83703438Y-89233285D02*
X83655819Y-89138047D01*
X83655819Y-89138047D02*
X83655819Y-88947571D01*
X83655819Y-88947571D02*
X83703438Y-88852333D01*
X83703438Y-88852333D02*
X83751057Y-88804714D01*
X83751057Y-88804714D02*
X83846295Y-88757095D01*
X83846295Y-88757095D02*
X84084390Y-88757095D01*
X84084390Y-88757095D02*
X84179628Y-88804714D01*
X84179628Y-88804714D02*
X84227247Y-88852333D01*
X84227247Y-88852333D02*
X84274866Y-88947571D01*
X84274866Y-88947571D02*
X84274866Y-89138047D01*
X84274866Y-89138047D02*
X84227247Y-89233285D01*
X84227247Y-89233285D02*
X84179628Y-89280904D01*
X84179628Y-89280904D02*
X84084390Y-89328523D01*
X93003019Y-75438095D02*
X93812542Y-75438095D01*
X93812542Y-75438095D02*
X93907780Y-75485714D01*
X93907780Y-75485714D02*
X93955400Y-75533333D01*
X93955400Y-75533333D02*
X94003019Y-75628571D01*
X94003019Y-75628571D02*
X94003019Y-75819047D01*
X94003019Y-75819047D02*
X93955400Y-75914285D01*
X93955400Y-75914285D02*
X93907780Y-75961904D01*
X93907780Y-75961904D02*
X93812542Y-76009523D01*
X93812542Y-76009523D02*
X93003019Y-76009523D01*
X93431590Y-76628571D02*
X93383971Y-76533333D01*
X93383971Y-76533333D02*
X93336352Y-76485714D01*
X93336352Y-76485714D02*
X93241114Y-76438095D01*
X93241114Y-76438095D02*
X93193495Y-76438095D01*
X93193495Y-76438095D02*
X93098257Y-76485714D01*
X93098257Y-76485714D02*
X93050638Y-76533333D01*
X93050638Y-76533333D02*
X93003019Y-76628571D01*
X93003019Y-76628571D02*
X93003019Y-76819047D01*
X93003019Y-76819047D02*
X93050638Y-76914285D01*
X93050638Y-76914285D02*
X93098257Y-76961904D01*
X93098257Y-76961904D02*
X93193495Y-77009523D01*
X93193495Y-77009523D02*
X93241114Y-77009523D01*
X93241114Y-77009523D02*
X93336352Y-76961904D01*
X93336352Y-76961904D02*
X93383971Y-76914285D01*
X93383971Y-76914285D02*
X93431590Y-76819047D01*
X93431590Y-76819047D02*
X93431590Y-76628571D01*
X93431590Y-76628571D02*
X93479209Y-76533333D01*
X93479209Y-76533333D02*
X93526828Y-76485714D01*
X93526828Y-76485714D02*
X93622066Y-76438095D01*
X93622066Y-76438095D02*
X93812542Y-76438095D01*
X93812542Y-76438095D02*
X93907780Y-76485714D01*
X93907780Y-76485714D02*
X93955400Y-76533333D01*
X93955400Y-76533333D02*
X94003019Y-76628571D01*
X94003019Y-76628571D02*
X94003019Y-76819047D01*
X94003019Y-76819047D02*
X93955400Y-76914285D01*
X93955400Y-76914285D02*
X93907780Y-76961904D01*
X93907780Y-76961904D02*
X93812542Y-77009523D01*
X93812542Y-77009523D02*
X93622066Y-77009523D01*
X93622066Y-77009523D02*
X93526828Y-76961904D01*
X93526828Y-76961904D02*
X93479209Y-76914285D01*
X93479209Y-76914285D02*
X93431590Y-76819047D01*
X80684666Y-77416819D02*
X81017999Y-76940628D01*
X81256094Y-77416819D02*
X81256094Y-76416819D01*
X81256094Y-76416819D02*
X80875142Y-76416819D01*
X80875142Y-76416819D02*
X80779904Y-76464438D01*
X80779904Y-76464438D02*
X80732285Y-76512057D01*
X80732285Y-76512057D02*
X80684666Y-76607295D01*
X80684666Y-76607295D02*
X80684666Y-76750152D01*
X80684666Y-76750152D02*
X80732285Y-76845390D01*
X80732285Y-76845390D02*
X80779904Y-76893009D01*
X80779904Y-76893009D02*
X80875142Y-76940628D01*
X80875142Y-76940628D02*
X81256094Y-76940628D01*
X80351332Y-76416819D02*
X79684666Y-76416819D01*
X79684666Y-76416819D02*
X80113237Y-77416819D01*
X82369819Y-68667333D02*
X81893628Y-68334000D01*
X82369819Y-68095905D02*
X81369819Y-68095905D01*
X81369819Y-68095905D02*
X81369819Y-68476857D01*
X81369819Y-68476857D02*
X81417438Y-68572095D01*
X81417438Y-68572095D02*
X81465057Y-68619714D01*
X81465057Y-68619714D02*
X81560295Y-68667333D01*
X81560295Y-68667333D02*
X81703152Y-68667333D01*
X81703152Y-68667333D02*
X81798390Y-68619714D01*
X81798390Y-68619714D02*
X81846009Y-68572095D01*
X81846009Y-68572095D02*
X81893628Y-68476857D01*
X81893628Y-68476857D02*
X81893628Y-68095905D01*
X81369819Y-69572095D02*
X81369819Y-69095905D01*
X81369819Y-69095905D02*
X81846009Y-69048286D01*
X81846009Y-69048286D02*
X81798390Y-69095905D01*
X81798390Y-69095905D02*
X81750771Y-69191143D01*
X81750771Y-69191143D02*
X81750771Y-69429238D01*
X81750771Y-69429238D02*
X81798390Y-69524476D01*
X81798390Y-69524476D02*
X81846009Y-69572095D01*
X81846009Y-69572095D02*
X81941247Y-69619714D01*
X81941247Y-69619714D02*
X82179342Y-69619714D01*
X82179342Y-69619714D02*
X82274580Y-69572095D01*
X82274580Y-69572095D02*
X82322200Y-69524476D01*
X82322200Y-69524476D02*
X82369819Y-69429238D01*
X82369819Y-69429238D02*
X82369819Y-69191143D01*
X82369819Y-69191143D02*
X82322200Y-69095905D01*
X82322200Y-69095905D02*
X82274580Y-69048286D01*
X93053819Y-59309095D02*
X93863342Y-59309095D01*
X93863342Y-59309095D02*
X93958580Y-59356714D01*
X93958580Y-59356714D02*
X94006200Y-59404333D01*
X94006200Y-59404333D02*
X94053819Y-59499571D01*
X94053819Y-59499571D02*
X94053819Y-59690047D01*
X94053819Y-59690047D02*
X94006200Y-59785285D01*
X94006200Y-59785285D02*
X93958580Y-59832904D01*
X93958580Y-59832904D02*
X93863342Y-59880523D01*
X93863342Y-59880523D02*
X93053819Y-59880523D01*
X93053819Y-60261476D02*
X93053819Y-60928142D01*
X93053819Y-60928142D02*
X94053819Y-60499571D01*
X80845819Y-61555333D02*
X80369628Y-61222000D01*
X80845819Y-60983905D02*
X79845819Y-60983905D01*
X79845819Y-60983905D02*
X79845819Y-61364857D01*
X79845819Y-61364857D02*
X79893438Y-61460095D01*
X79893438Y-61460095D02*
X79941057Y-61507714D01*
X79941057Y-61507714D02*
X80036295Y-61555333D01*
X80036295Y-61555333D02*
X80179152Y-61555333D01*
X80179152Y-61555333D02*
X80274390Y-61507714D01*
X80274390Y-61507714D02*
X80322009Y-61460095D01*
X80322009Y-61460095D02*
X80369628Y-61364857D01*
X80369628Y-61364857D02*
X80369628Y-60983905D01*
X79845819Y-61888667D02*
X79845819Y-62507714D01*
X79845819Y-62507714D02*
X80226771Y-62174381D01*
X80226771Y-62174381D02*
X80226771Y-62317238D01*
X80226771Y-62317238D02*
X80274390Y-62412476D01*
X80274390Y-62412476D02*
X80322009Y-62460095D01*
X80322009Y-62460095D02*
X80417247Y-62507714D01*
X80417247Y-62507714D02*
X80655342Y-62507714D01*
X80655342Y-62507714D02*
X80750580Y-62460095D01*
X80750580Y-62460095D02*
X80798200Y-62412476D01*
X80798200Y-62412476D02*
X80845819Y-62317238D01*
X80845819Y-62317238D02*
X80845819Y-62031524D01*
X80845819Y-62031524D02*
X80798200Y-61936286D01*
X80798200Y-61936286D02*
X80750580Y-61888667D01*
X78485904Y-61938819D02*
X78485904Y-62748342D01*
X78485904Y-62748342D02*
X78438285Y-62843580D01*
X78438285Y-62843580D02*
X78390666Y-62891200D01*
X78390666Y-62891200D02*
X78295428Y-62938819D01*
X78295428Y-62938819D02*
X78104952Y-62938819D01*
X78104952Y-62938819D02*
X78009714Y-62891200D01*
X78009714Y-62891200D02*
X77962095Y-62843580D01*
X77962095Y-62843580D02*
X77914476Y-62748342D01*
X77914476Y-62748342D02*
X77914476Y-61938819D01*
X76962095Y-61938819D02*
X77438285Y-61938819D01*
X77438285Y-61938819D02*
X77485904Y-62415009D01*
X77485904Y-62415009D02*
X77438285Y-62367390D01*
X77438285Y-62367390D02*
X77343047Y-62319771D01*
X77343047Y-62319771D02*
X77104952Y-62319771D01*
X77104952Y-62319771D02*
X77009714Y-62367390D01*
X77009714Y-62367390D02*
X76962095Y-62415009D01*
X76962095Y-62415009D02*
X76914476Y-62510247D01*
X76914476Y-62510247D02*
X76914476Y-62748342D01*
X76914476Y-62748342D02*
X76962095Y-62843580D01*
X76962095Y-62843580D02*
X77009714Y-62891200D01*
X77009714Y-62891200D02*
X77104952Y-62938819D01*
X77104952Y-62938819D02*
X77343047Y-62938819D01*
X77343047Y-62938819D02*
X77438285Y-62891200D01*
X77438285Y-62891200D02*
X77485904Y-62843580D01*
X81414857Y-79575819D02*
X81748190Y-79099628D01*
X81986285Y-79575819D02*
X81986285Y-78575819D01*
X81986285Y-78575819D02*
X81605333Y-78575819D01*
X81605333Y-78575819D02*
X81510095Y-78623438D01*
X81510095Y-78623438D02*
X81462476Y-78671057D01*
X81462476Y-78671057D02*
X81414857Y-78766295D01*
X81414857Y-78766295D02*
X81414857Y-78909152D01*
X81414857Y-78909152D02*
X81462476Y-79004390D01*
X81462476Y-79004390D02*
X81510095Y-79052009D01*
X81510095Y-79052009D02*
X81605333Y-79099628D01*
X81605333Y-79099628D02*
X81986285Y-79099628D01*
X80462476Y-79575819D02*
X81033904Y-79575819D01*
X80748190Y-79575819D02*
X80748190Y-78575819D01*
X80748190Y-78575819D02*
X80843428Y-78718676D01*
X80843428Y-78718676D02*
X80938666Y-78813914D01*
X80938666Y-78813914D02*
X81033904Y-78861533D01*
X79843428Y-78575819D02*
X79748190Y-78575819D01*
X79748190Y-78575819D02*
X79652952Y-78623438D01*
X79652952Y-78623438D02*
X79605333Y-78671057D01*
X79605333Y-78671057D02*
X79557714Y-78766295D01*
X79557714Y-78766295D02*
X79510095Y-78956771D01*
X79510095Y-78956771D02*
X79510095Y-79194866D01*
X79510095Y-79194866D02*
X79557714Y-79385342D01*
X79557714Y-79385342D02*
X79605333Y-79480580D01*
X79605333Y-79480580D02*
X79652952Y-79528200D01*
X79652952Y-79528200D02*
X79748190Y-79575819D01*
X79748190Y-79575819D02*
X79843428Y-79575819D01*
X79843428Y-79575819D02*
X79938666Y-79528200D01*
X79938666Y-79528200D02*
X79986285Y-79480580D01*
X79986285Y-79480580D02*
X80033904Y-79385342D01*
X80033904Y-79385342D02*
X80081523Y-79194866D01*
X80081523Y-79194866D02*
X80081523Y-78956771D01*
X80081523Y-78956771D02*
X80033904Y-78766295D01*
X80033904Y-78766295D02*
X79986285Y-78671057D01*
X79986285Y-78671057D02*
X79938666Y-78623438D01*
X79938666Y-78623438D02*
X79843428Y-78575819D01*
X83655819Y-91090905D02*
X84465342Y-91090905D01*
X84465342Y-91090905D02*
X84560580Y-91138524D01*
X84560580Y-91138524D02*
X84608200Y-91186143D01*
X84608200Y-91186143D02*
X84655819Y-91281381D01*
X84655819Y-91281381D02*
X84655819Y-91471857D01*
X84655819Y-91471857D02*
X84608200Y-91567095D01*
X84608200Y-91567095D02*
X84560580Y-91614714D01*
X84560580Y-91614714D02*
X84465342Y-91662333D01*
X84465342Y-91662333D02*
X83655819Y-91662333D01*
X84655819Y-92662333D02*
X84655819Y-92090905D01*
X84655819Y-92376619D02*
X83655819Y-92376619D01*
X83655819Y-92376619D02*
X83798676Y-92281381D01*
X83798676Y-92281381D02*
X83893914Y-92186143D01*
X83893914Y-92186143D02*
X83941533Y-92090905D01*
X83655819Y-93281381D02*
X83655819Y-93376619D01*
X83655819Y-93376619D02*
X83703438Y-93471857D01*
X83703438Y-93471857D02*
X83751057Y-93519476D01*
X83751057Y-93519476D02*
X83846295Y-93567095D01*
X83846295Y-93567095D02*
X84036771Y-93614714D01*
X84036771Y-93614714D02*
X84274866Y-93614714D01*
X84274866Y-93614714D02*
X84465342Y-93567095D01*
X84465342Y-93567095D02*
X84560580Y-93519476D01*
X84560580Y-93519476D02*
X84608200Y-93471857D01*
X84608200Y-93471857D02*
X84655819Y-93376619D01*
X84655819Y-93376619D02*
X84655819Y-93281381D01*
X84655819Y-93281381D02*
X84608200Y-93186143D01*
X84608200Y-93186143D02*
X84560580Y-93138524D01*
X84560580Y-93138524D02*
X84465342Y-93090905D01*
X84465342Y-93090905D02*
X84274866Y-93043286D01*
X84274866Y-93043286D02*
X84036771Y-93043286D01*
X84036771Y-93043286D02*
X83846295Y-93090905D01*
X83846295Y-93090905D02*
X83751057Y-93138524D01*
X83751057Y-93138524D02*
X83703438Y-93186143D01*
X83703438Y-93186143D02*
X83655819Y-93281381D01*
X89989819Y-98290142D02*
X89513628Y-97956809D01*
X89989819Y-97718714D02*
X88989819Y-97718714D01*
X88989819Y-97718714D02*
X88989819Y-98099666D01*
X88989819Y-98099666D02*
X89037438Y-98194904D01*
X89037438Y-98194904D02*
X89085057Y-98242523D01*
X89085057Y-98242523D02*
X89180295Y-98290142D01*
X89180295Y-98290142D02*
X89323152Y-98290142D01*
X89323152Y-98290142D02*
X89418390Y-98242523D01*
X89418390Y-98242523D02*
X89466009Y-98194904D01*
X89466009Y-98194904D02*
X89513628Y-98099666D01*
X89513628Y-98099666D02*
X89513628Y-97718714D01*
X89085057Y-98671095D02*
X89037438Y-98718714D01*
X89037438Y-98718714D02*
X88989819Y-98813952D01*
X88989819Y-98813952D02*
X88989819Y-99052047D01*
X88989819Y-99052047D02*
X89037438Y-99147285D01*
X89037438Y-99147285D02*
X89085057Y-99194904D01*
X89085057Y-99194904D02*
X89180295Y-99242523D01*
X89180295Y-99242523D02*
X89275533Y-99242523D01*
X89275533Y-99242523D02*
X89418390Y-99194904D01*
X89418390Y-99194904D02*
X89989819Y-98623476D01*
X89989819Y-98623476D02*
X89989819Y-99242523D01*
X89989819Y-100194904D02*
X89989819Y-99623476D01*
X89989819Y-99909190D02*
X88989819Y-99909190D01*
X88989819Y-99909190D02*
X89132676Y-99813952D01*
X89132676Y-99813952D02*
X89227914Y-99718714D01*
X89227914Y-99718714D02*
X89275533Y-99623476D01*
X78144666Y-66113819D02*
X78477999Y-65637628D01*
X78716094Y-66113819D02*
X78716094Y-65113819D01*
X78716094Y-65113819D02*
X78335142Y-65113819D01*
X78335142Y-65113819D02*
X78239904Y-65161438D01*
X78239904Y-65161438D02*
X78192285Y-65209057D01*
X78192285Y-65209057D02*
X78144666Y-65304295D01*
X78144666Y-65304295D02*
X78144666Y-65447152D01*
X78144666Y-65447152D02*
X78192285Y-65542390D01*
X78192285Y-65542390D02*
X78239904Y-65590009D01*
X78239904Y-65590009D02*
X78335142Y-65637628D01*
X78335142Y-65637628D02*
X78716094Y-65637628D01*
X77287523Y-65113819D02*
X77477999Y-65113819D01*
X77477999Y-65113819D02*
X77573237Y-65161438D01*
X77573237Y-65161438D02*
X77620856Y-65209057D01*
X77620856Y-65209057D02*
X77716094Y-65351914D01*
X77716094Y-65351914D02*
X77763713Y-65542390D01*
X77763713Y-65542390D02*
X77763713Y-65923342D01*
X77763713Y-65923342D02*
X77716094Y-66018580D01*
X77716094Y-66018580D02*
X77668475Y-66066200D01*
X77668475Y-66066200D02*
X77573237Y-66113819D01*
X77573237Y-66113819D02*
X77382761Y-66113819D01*
X77382761Y-66113819D02*
X77287523Y-66066200D01*
X77287523Y-66066200D02*
X77239904Y-66018580D01*
X77239904Y-66018580D02*
X77192285Y-65923342D01*
X77192285Y-65923342D02*
X77192285Y-65685247D01*
X77192285Y-65685247D02*
X77239904Y-65590009D01*
X77239904Y-65590009D02*
X77287523Y-65542390D01*
X77287523Y-65542390D02*
X77382761Y-65494771D01*
X77382761Y-65494771D02*
X77573237Y-65494771D01*
X77573237Y-65494771D02*
X77668475Y-65542390D01*
X77668475Y-65542390D02*
X77716094Y-65590009D01*
X77716094Y-65590009D02*
X77763713Y-65685247D01*
X79065333Y-87465819D02*
X79065333Y-88180104D01*
X79065333Y-88180104D02*
X79112952Y-88322961D01*
X79112952Y-88322961D02*
X79208190Y-88418200D01*
X79208190Y-88418200D02*
X79351047Y-88465819D01*
X79351047Y-88465819D02*
X79446285Y-88465819D01*
X78589142Y-88465819D02*
X78589142Y-87465819D01*
X78589142Y-87465819D02*
X78208190Y-87465819D01*
X78208190Y-87465819D02*
X78112952Y-87513438D01*
X78112952Y-87513438D02*
X78065333Y-87561057D01*
X78065333Y-87561057D02*
X78017714Y-87656295D01*
X78017714Y-87656295D02*
X78017714Y-87799152D01*
X78017714Y-87799152D02*
X78065333Y-87894390D01*
X78065333Y-87894390D02*
X78112952Y-87942009D01*
X78112952Y-87942009D02*
X78208190Y-87989628D01*
X78208190Y-87989628D02*
X78589142Y-87989628D01*
X77065333Y-88465819D02*
X77636761Y-88465819D01*
X77351047Y-88465819D02*
X77351047Y-87465819D01*
X77351047Y-87465819D02*
X77446285Y-87608676D01*
X77446285Y-87608676D02*
X77541523Y-87703914D01*
X77541523Y-87703914D02*
X77636761Y-87751533D01*
X93987857Y-95577819D02*
X94321190Y-95101628D01*
X94559285Y-95577819D02*
X94559285Y-94577819D01*
X94559285Y-94577819D02*
X94178333Y-94577819D01*
X94178333Y-94577819D02*
X94083095Y-94625438D01*
X94083095Y-94625438D02*
X94035476Y-94673057D01*
X94035476Y-94673057D02*
X93987857Y-94768295D01*
X93987857Y-94768295D02*
X93987857Y-94911152D01*
X93987857Y-94911152D02*
X94035476Y-95006390D01*
X94035476Y-95006390D02*
X94083095Y-95054009D01*
X94083095Y-95054009D02*
X94178333Y-95101628D01*
X94178333Y-95101628D02*
X94559285Y-95101628D01*
X93606904Y-94673057D02*
X93559285Y-94625438D01*
X93559285Y-94625438D02*
X93464047Y-94577819D01*
X93464047Y-94577819D02*
X93225952Y-94577819D01*
X93225952Y-94577819D02*
X93130714Y-94625438D01*
X93130714Y-94625438D02*
X93083095Y-94673057D01*
X93083095Y-94673057D02*
X93035476Y-94768295D01*
X93035476Y-94768295D02*
X93035476Y-94863533D01*
X93035476Y-94863533D02*
X93083095Y-95006390D01*
X93083095Y-95006390D02*
X93654523Y-95577819D01*
X93654523Y-95577819D02*
X93035476Y-95577819D01*
X92416428Y-94577819D02*
X92321190Y-94577819D01*
X92321190Y-94577819D02*
X92225952Y-94625438D01*
X92225952Y-94625438D02*
X92178333Y-94673057D01*
X92178333Y-94673057D02*
X92130714Y-94768295D01*
X92130714Y-94768295D02*
X92083095Y-94958771D01*
X92083095Y-94958771D02*
X92083095Y-95196866D01*
X92083095Y-95196866D02*
X92130714Y-95387342D01*
X92130714Y-95387342D02*
X92178333Y-95482580D01*
X92178333Y-95482580D02*
X92225952Y-95530200D01*
X92225952Y-95530200D02*
X92321190Y-95577819D01*
X92321190Y-95577819D02*
X92416428Y-95577819D01*
X92416428Y-95577819D02*
X92511666Y-95530200D01*
X92511666Y-95530200D02*
X92559285Y-95482580D01*
X92559285Y-95482580D02*
X92606904Y-95387342D01*
X92606904Y-95387342D02*
X92654523Y-95196866D01*
X92654523Y-95196866D02*
X92654523Y-94958771D01*
X92654523Y-94958771D02*
X92606904Y-94768295D01*
X92606904Y-94768295D02*
X92559285Y-94673057D01*
X92559285Y-94673057D02*
X92511666Y-94625438D01*
X92511666Y-94625438D02*
X92416428Y-94577819D01*
X78144666Y-50873819D02*
X78477999Y-50397628D01*
X78716094Y-50873819D02*
X78716094Y-49873819D01*
X78716094Y-49873819D02*
X78335142Y-49873819D01*
X78335142Y-49873819D02*
X78239904Y-49921438D01*
X78239904Y-49921438D02*
X78192285Y-49969057D01*
X78192285Y-49969057D02*
X78144666Y-50064295D01*
X78144666Y-50064295D02*
X78144666Y-50207152D01*
X78144666Y-50207152D02*
X78192285Y-50302390D01*
X78192285Y-50302390D02*
X78239904Y-50350009D01*
X78239904Y-50350009D02*
X78335142Y-50397628D01*
X78335142Y-50397628D02*
X78716094Y-50397628D01*
X77763713Y-49969057D02*
X77716094Y-49921438D01*
X77716094Y-49921438D02*
X77620856Y-49873819D01*
X77620856Y-49873819D02*
X77382761Y-49873819D01*
X77382761Y-49873819D02*
X77287523Y-49921438D01*
X77287523Y-49921438D02*
X77239904Y-49969057D01*
X77239904Y-49969057D02*
X77192285Y-50064295D01*
X77192285Y-50064295D02*
X77192285Y-50159533D01*
X77192285Y-50159533D02*
X77239904Y-50302390D01*
X77239904Y-50302390D02*
X77811332Y-50873819D01*
X77811332Y-50873819D02*
X77192285Y-50873819D01*
X91640819Y-91432142D02*
X91164628Y-91098809D01*
X91640819Y-90860714D02*
X90640819Y-90860714D01*
X90640819Y-90860714D02*
X90640819Y-91241666D01*
X90640819Y-91241666D02*
X90688438Y-91336904D01*
X90688438Y-91336904D02*
X90736057Y-91384523D01*
X90736057Y-91384523D02*
X90831295Y-91432142D01*
X90831295Y-91432142D02*
X90974152Y-91432142D01*
X90974152Y-91432142D02*
X91069390Y-91384523D01*
X91069390Y-91384523D02*
X91117009Y-91336904D01*
X91117009Y-91336904D02*
X91164628Y-91241666D01*
X91164628Y-91241666D02*
X91164628Y-90860714D01*
X91640819Y-92384523D02*
X91640819Y-91813095D01*
X91640819Y-92098809D02*
X90640819Y-92098809D01*
X90640819Y-92098809D02*
X90783676Y-92003571D01*
X90783676Y-92003571D02*
X90878914Y-91908333D01*
X90878914Y-91908333D02*
X90926533Y-91813095D01*
X91640819Y-92860714D02*
X91640819Y-93051190D01*
X91640819Y-93051190D02*
X91593200Y-93146428D01*
X91593200Y-93146428D02*
X91545580Y-93194047D01*
X91545580Y-93194047D02*
X91402723Y-93289285D01*
X91402723Y-93289285D02*
X91212247Y-93336904D01*
X91212247Y-93336904D02*
X90831295Y-93336904D01*
X90831295Y-93336904D02*
X90736057Y-93289285D01*
X90736057Y-93289285D02*
X90688438Y-93241666D01*
X90688438Y-93241666D02*
X90640819Y-93146428D01*
X90640819Y-93146428D02*
X90640819Y-92955952D01*
X90640819Y-92955952D02*
X90688438Y-92860714D01*
X90688438Y-92860714D02*
X90736057Y-92813095D01*
X90736057Y-92813095D02*
X90831295Y-92765476D01*
X90831295Y-92765476D02*
X91069390Y-92765476D01*
X91069390Y-92765476D02*
X91164628Y-92813095D01*
X91164628Y-92813095D02*
X91212247Y-92860714D01*
X91212247Y-92860714D02*
X91259866Y-92955952D01*
X91259866Y-92955952D02*
X91259866Y-93146428D01*
X91259866Y-93146428D02*
X91212247Y-93241666D01*
X91212247Y-93241666D02*
X91164628Y-93289285D01*
X91164628Y-93289285D02*
X91069390Y-93336904D01*
X75273819Y-50800095D02*
X76083342Y-50800095D01*
X76083342Y-50800095D02*
X76178580Y-50847714D01*
X76178580Y-50847714D02*
X76226200Y-50895333D01*
X76226200Y-50895333D02*
X76273819Y-50990571D01*
X76273819Y-50990571D02*
X76273819Y-51181047D01*
X76273819Y-51181047D02*
X76226200Y-51276285D01*
X76226200Y-51276285D02*
X76178580Y-51323904D01*
X76178580Y-51323904D02*
X76083342Y-51371523D01*
X76083342Y-51371523D02*
X75273819Y-51371523D01*
X75273819Y-52276285D02*
X75273819Y-52085809D01*
X75273819Y-52085809D02*
X75321438Y-51990571D01*
X75321438Y-51990571D02*
X75369057Y-51942952D01*
X75369057Y-51942952D02*
X75511914Y-51847714D01*
X75511914Y-51847714D02*
X75702390Y-51800095D01*
X75702390Y-51800095D02*
X76083342Y-51800095D01*
X76083342Y-51800095D02*
X76178580Y-51847714D01*
X76178580Y-51847714D02*
X76226200Y-51895333D01*
X76226200Y-51895333D02*
X76273819Y-51990571D01*
X76273819Y-51990571D02*
X76273819Y-52181047D01*
X76273819Y-52181047D02*
X76226200Y-52276285D01*
X76226200Y-52276285D02*
X76178580Y-52323904D01*
X76178580Y-52323904D02*
X76083342Y-52371523D01*
X76083342Y-52371523D02*
X75845247Y-52371523D01*
X75845247Y-52371523D02*
X75750009Y-52323904D01*
X75750009Y-52323904D02*
X75702390Y-52276285D01*
X75702390Y-52276285D02*
X75654771Y-52181047D01*
X75654771Y-52181047D02*
X75654771Y-51990571D01*
X75654771Y-51990571D02*
X75702390Y-51895333D01*
X75702390Y-51895333D02*
X75750009Y-51847714D01*
X75750009Y-51847714D02*
X75845247Y-51800095D01*
X77819238Y-97070057D02*
X77914476Y-97022438D01*
X77914476Y-97022438D02*
X78009714Y-96927200D01*
X78009714Y-96927200D02*
X78152571Y-96784342D01*
X78152571Y-96784342D02*
X78247809Y-96736723D01*
X78247809Y-96736723D02*
X78343047Y-96736723D01*
X78295428Y-96974819D02*
X78390666Y-96927200D01*
X78390666Y-96927200D02*
X78485904Y-96831961D01*
X78485904Y-96831961D02*
X78533523Y-96641485D01*
X78533523Y-96641485D02*
X78533523Y-96308152D01*
X78533523Y-96308152D02*
X78485904Y-96117676D01*
X78485904Y-96117676D02*
X78390666Y-96022438D01*
X78390666Y-96022438D02*
X78295428Y-95974819D01*
X78295428Y-95974819D02*
X78104952Y-95974819D01*
X78104952Y-95974819D02*
X78009714Y-96022438D01*
X78009714Y-96022438D02*
X77914476Y-96117676D01*
X77914476Y-96117676D02*
X77866857Y-96308152D01*
X77866857Y-96308152D02*
X77866857Y-96641485D01*
X77866857Y-96641485D02*
X77914476Y-96831961D01*
X77914476Y-96831961D02*
X78009714Y-96927200D01*
X78009714Y-96927200D02*
X78104952Y-96974819D01*
X78104952Y-96974819D02*
X78295428Y-96974819D01*
X76914476Y-96974819D02*
X77485904Y-96974819D01*
X77200190Y-96974819D02*
X77200190Y-95974819D01*
X77200190Y-95974819D02*
X77295428Y-96117676D01*
X77295428Y-96117676D02*
X77390666Y-96212914D01*
X77390666Y-96212914D02*
X77485904Y-96260533D01*
X78485904Y-84036819D02*
X78485904Y-84846342D01*
X78485904Y-84846342D02*
X78438285Y-84941580D01*
X78438285Y-84941580D02*
X78390666Y-84989200D01*
X78390666Y-84989200D02*
X78295428Y-85036819D01*
X78295428Y-85036819D02*
X78104952Y-85036819D01*
X78104952Y-85036819D02*
X78009714Y-84989200D01*
X78009714Y-84989200D02*
X77962095Y-84941580D01*
X77962095Y-84941580D02*
X77914476Y-84846342D01*
X77914476Y-84846342D02*
X77914476Y-84036819D01*
X77485904Y-84132057D02*
X77438285Y-84084438D01*
X77438285Y-84084438D02*
X77343047Y-84036819D01*
X77343047Y-84036819D02*
X77104952Y-84036819D01*
X77104952Y-84036819D02*
X77009714Y-84084438D01*
X77009714Y-84084438D02*
X76962095Y-84132057D01*
X76962095Y-84132057D02*
X76914476Y-84227295D01*
X76914476Y-84227295D02*
X76914476Y-84322533D01*
X76914476Y-84322533D02*
X76962095Y-84465390D01*
X76962095Y-84465390D02*
X77533523Y-85036819D01*
X77533523Y-85036819D02*
X76914476Y-85036819D01*
X91640819Y-87622142D02*
X91164628Y-87288809D01*
X91640819Y-87050714D02*
X90640819Y-87050714D01*
X90640819Y-87050714D02*
X90640819Y-87431666D01*
X90640819Y-87431666D02*
X90688438Y-87526904D01*
X90688438Y-87526904D02*
X90736057Y-87574523D01*
X90736057Y-87574523D02*
X90831295Y-87622142D01*
X90831295Y-87622142D02*
X90974152Y-87622142D01*
X90974152Y-87622142D02*
X91069390Y-87574523D01*
X91069390Y-87574523D02*
X91117009Y-87526904D01*
X91117009Y-87526904D02*
X91164628Y-87431666D01*
X91164628Y-87431666D02*
X91164628Y-87050714D01*
X91640819Y-88574523D02*
X91640819Y-88003095D01*
X91640819Y-88288809D02*
X90640819Y-88288809D01*
X90640819Y-88288809D02*
X90783676Y-88193571D01*
X90783676Y-88193571D02*
X90878914Y-88098333D01*
X90878914Y-88098333D02*
X90926533Y-88003095D01*
X90640819Y-88907857D02*
X90640819Y-89574523D01*
X90640819Y-89574523D02*
X91640819Y-89145952D01*
X83655819Y-94900905D02*
X84465342Y-94900905D01*
X84465342Y-94900905D02*
X84560580Y-94948524D01*
X84560580Y-94948524D02*
X84608200Y-94996143D01*
X84608200Y-94996143D02*
X84655819Y-95091381D01*
X84655819Y-95091381D02*
X84655819Y-95281857D01*
X84655819Y-95281857D02*
X84608200Y-95377095D01*
X84608200Y-95377095D02*
X84560580Y-95424714D01*
X84560580Y-95424714D02*
X84465342Y-95472333D01*
X84465342Y-95472333D02*
X83655819Y-95472333D01*
X84655819Y-96472333D02*
X84655819Y-95900905D01*
X84655819Y-96186619D02*
X83655819Y-96186619D01*
X83655819Y-96186619D02*
X83798676Y-96091381D01*
X83798676Y-96091381D02*
X83893914Y-95996143D01*
X83893914Y-95996143D02*
X83941533Y-95900905D01*
X84655819Y-97424714D02*
X84655819Y-96853286D01*
X84655819Y-97139000D02*
X83655819Y-97139000D01*
X83655819Y-97139000D02*
X83798676Y-97043762D01*
X83798676Y-97043762D02*
X83893914Y-96948524D01*
X83893914Y-96948524D02*
X83941533Y-96853286D01*
D11*
X89914000Y-81696779D02*
X89914000Y-81371221D01*
X90934000Y-81696779D02*
X90934000Y-81371221D01*
X78140779Y-57914000D02*
X77815221Y-57914000D01*
X78140779Y-56894000D02*
X77815221Y-56894000D01*
X91438000Y-65821779D02*
X91438000Y-65496221D01*
X92458000Y-65821779D02*
X92458000Y-65496221D01*
X78524000Y-71196000D02*
X76924000Y-71196000D01*
X76924000Y-67996000D02*
X79224000Y-67996000D01*
X88390000Y-81696779D02*
X88390000Y-81371221D01*
X89410000Y-81696779D02*
X89410000Y-81371221D01*
X89914000Y-65821779D02*
X89914000Y-65496221D01*
X90934000Y-65821779D02*
X90934000Y-65496221D01*
X80824800Y-81117221D02*
X80824800Y-81442779D01*
X79804800Y-81117221D02*
X79804800Y-81442779D01*
X78524000Y-77038000D02*
X76924000Y-77038000D01*
X76924000Y-73838000D02*
X79224000Y-73838000D01*
X94483000Y-99910000D02*
X91333000Y-99910000D01*
X94483000Y-98210000D02*
X94483000Y-99910000D01*
X94483000Y-98210000D02*
X91333000Y-98210000D01*
X80774000Y-92090021D02*
X80774000Y-92415579D01*
X79754000Y-92090021D02*
X79754000Y-92415579D01*
X80824800Y-53431221D02*
X80824800Y-53756779D01*
X79804800Y-53431221D02*
X79804800Y-53756779D01*
X78140779Y-73408000D02*
X77815221Y-73408000D01*
X78140779Y-72388000D02*
X77815221Y-72388000D01*
X91438000Y-81696779D02*
X91438000Y-81371221D01*
X92458000Y-81696779D02*
X92458000Y-81371221D01*
X88390000Y-65821779D02*
X88390000Y-65496221D01*
X89410000Y-65821779D02*
X89410000Y-65496221D01*
X85968000Y-86909000D02*
X87768000Y-86909000D01*
X87768000Y-90129000D02*
X85318000Y-90129000D01*
X92563000Y-76200000D02*
X92563000Y-74250000D01*
X92563000Y-76200000D02*
X92563000Y-78150000D01*
X82443000Y-76200000D02*
X82443000Y-72750000D01*
X82443000Y-76200000D02*
X82443000Y-78150000D01*
X80824800Y-74513221D02*
X80824800Y-74838779D01*
X79804800Y-74513221D02*
X79804800Y-74838779D01*
X80824800Y-68671221D02*
X80824800Y-68996779D01*
X79804800Y-68671221D02*
X79804800Y-68996779D01*
X92563000Y-60325000D02*
X92563000Y-58375000D01*
X92563000Y-60325000D02*
X92563000Y-62275000D01*
X82443000Y-60325000D02*
X82443000Y-56875000D01*
X82443000Y-60325000D02*
X82443000Y-62275000D01*
X80824800Y-59019221D02*
X80824800Y-59344779D01*
X79804800Y-59019221D02*
X79804800Y-59344779D01*
X78524000Y-61544000D02*
X76924000Y-61544000D01*
X76924000Y-58344000D02*
X79224000Y-58344000D01*
X78140779Y-80012000D02*
X77815221Y-80012000D01*
X78140779Y-78992000D02*
X77815221Y-78992000D01*
X85968000Y-90719000D02*
X87768000Y-90719000D01*
X87768000Y-93939000D02*
X85318000Y-93939000D01*
X90459779Y-97157000D02*
X90134221Y-97157000D01*
X90459779Y-96137000D02*
X90134221Y-96137000D01*
X78140779Y-67566000D02*
X77815221Y-67566000D01*
X78140779Y-66546000D02*
X77815221Y-66546000D01*
X78481200Y-89125600D02*
X77881200Y-89125600D01*
X77181200Y-89825600D02*
X77181200Y-91225600D01*
X79181200Y-91225600D02*
X79181200Y-89825600D01*
X77881200Y-91925600D02*
X78481200Y-91925600D01*
X79181200Y-89825600D02*
G75*
G03*
X78481200Y-89125600I-699999J1D01*
G01*
X77881200Y-89125600D02*
G75*
G03*
X77181200Y-89825600I-1J-699999D01*
G01*
X78481200Y-91925600D02*
G75*
G03*
X79181200Y-91225600I0J700000D01*
G01*
X77181200Y-91225600D02*
G75*
G03*
X77881200Y-91925600I700000J0D01*
G01*
X90459779Y-95633000D02*
X90134221Y-95633000D01*
X90459779Y-94613000D02*
X90134221Y-94613000D01*
X78115279Y-52326000D02*
X77789721Y-52326000D01*
X78115279Y-51306000D02*
X77789721Y-51306000D01*
X89152000Y-92237779D02*
X89152000Y-91912221D01*
X90172000Y-92237779D02*
X90172000Y-91912221D01*
X78524000Y-55956000D02*
X76924000Y-55956000D01*
X76924000Y-52756000D02*
X79224000Y-52756000D01*
X76964000Y-95560000D02*
X78424000Y-95560000D01*
X76964000Y-95560000D02*
X76964000Y-94630000D01*
X76964000Y-92400000D02*
X79124000Y-92400000D01*
X76964000Y-92400000D02*
X76964000Y-93330000D01*
X78524000Y-83642000D02*
X76924000Y-83642000D01*
X76924000Y-80442000D02*
X79224000Y-80442000D01*
X89152000Y-88427779D02*
X89152000Y-88102221D01*
X90172000Y-88427779D02*
X90172000Y-88102221D01*
X85968000Y-94529000D02*
X87768000Y-94529000D01*
X87768000Y-97749000D02*
X85318000Y-97749000D01*
M02*
