%TF.GenerationSoftware,KiCad,Pcbnew,7.0.6*%
%TF.CreationDate,2023-11-17T11:55:58+01:00*%
%TF.ProjectId,blue_64,626c7565-5f36-4342-9e6b-696361645f70,rev?*%
%TF.SameCoordinates,Original*%
%TF.FileFunction,Soldermask,Bot*%
%TF.FilePolarity,Negative*%
%FSLAX46Y46*%
G04 Gerber Fmt 4.6, Leading zero omitted, Abs format (unit mm)*
G04 Created by KiCad (PCBNEW 7.0.6) date 2023-11-17 11:55:58*
%MOMM*%
%LPD*%
G01*
G04 APERTURE LIST*
G04 Aperture macros list*
%AMRoundRect*
0 Rectangle with rounded corners*
0 $1 Rounding radius*
0 $2 $3 $4 $5 $6 $7 $8 $9 X,Y pos of 4 corners*
0 Add a 4 corners polygon primitive as box body*
4,1,4,$2,$3,$4,$5,$6,$7,$8,$9,$2,$3,0*
0 Add four circle primitives for the rounded corners*
1,1,$1+$1,$2,$3*
1,1,$1+$1,$4,$5*
1,1,$1+$1,$6,$7*
1,1,$1+$1,$8,$9*
0 Add four rect primitives between the rounded corners*
20,1,$1+$1,$2,$3,$4,$5,0*
20,1,$1+$1,$4,$5,$6,$7,0*
20,1,$1+$1,$6,$7,$8,$9,0*
20,1,$1+$1,$8,$9,$2,$3,0*%
%AMFreePoly0*
4,1,19,0.500000,-0.750000,0.000000,-0.750000,0.000000,-0.744911,-0.071157,-0.744911,-0.207708,-0.704816,-0.327430,-0.627875,-0.420627,-0.520320,-0.479746,-0.390866,-0.500000,-0.250000,-0.500000,0.250000,-0.479746,0.390866,-0.420627,0.520320,-0.327430,0.627875,-0.207708,0.704816,-0.071157,0.744911,0.000000,0.744911,0.000000,0.750000,0.500000,0.750000,0.500000,-0.750000,0.500000,-0.750000,
$1*%
%AMFreePoly1*
4,1,19,0.000000,0.744911,0.071157,0.744911,0.207708,0.704816,0.327430,0.627875,0.420627,0.520320,0.479746,0.390866,0.500000,0.250000,0.500000,-0.250000,0.479746,-0.390866,0.420627,-0.520320,0.327430,-0.627875,0.207708,-0.704816,0.071157,-0.744911,0.000000,-0.744911,0.000000,-0.750000,-0.500000,-0.750000,-0.500000,0.750000,0.000000,0.750000,0.000000,0.744911,0.000000,0.744911,
$1*%
G04 Aperture macros list end*
%ADD10R,1.700000X1.700000*%
%ADD11O,1.700000X1.700000*%
%ADD12C,1.700000*%
%ADD13RoundRect,0.218750X0.218750X0.256250X-0.218750X0.256250X-0.218750X-0.256250X0.218750X-0.256250X0*%
%ADD14R,0.700000X0.510000*%
%ADD15RoundRect,0.218750X-0.256250X0.218750X-0.256250X-0.218750X0.256250X-0.218750X0.256250X0.218750X0*%
%ADD16R,1.000000X1.000000*%
%ADD17FreePoly0,270.000000*%
%ADD18FreePoly1,270.000000*%
%ADD19R,0.900000X0.800000*%
G04 APERTURE END LIST*
D10*
X71120000Y-50800000D03*
D11*
X73660000Y-50800000D03*
X71120000Y-53340000D03*
X73660000Y-53340000D03*
X71120000Y-55880000D03*
X73660000Y-55880000D03*
X71120000Y-58420000D03*
X73660000Y-58420000D03*
X71120000Y-60960000D03*
X73660000Y-60960000D03*
X71120000Y-63500000D03*
X73660000Y-63500000D03*
X71120000Y-66040000D03*
X73660000Y-66040000D03*
X71120000Y-68580000D03*
X73660000Y-68580000D03*
X71120000Y-71120000D03*
X73660000Y-71120000D03*
X71120000Y-73660000D03*
X73660000Y-73660000D03*
X71120000Y-76200000D03*
X73660000Y-76200000D03*
X71120000Y-78740000D03*
X73660000Y-78740000D03*
X71120000Y-81280000D03*
X73660000Y-81280000D03*
X71120000Y-83820000D03*
X73660000Y-83820000D03*
X71120000Y-86360000D03*
X73660000Y-86360000D03*
X71120000Y-88900000D03*
X73660000Y-88900000D03*
X71120000Y-91440000D03*
X73660000Y-91440000D03*
X71120000Y-93980000D03*
X73660000Y-93980000D03*
X71120000Y-96520000D03*
X73660000Y-96520000D03*
X71120000Y-99060000D03*
X73660000Y-99060000D03*
D12*
X121920000Y-86360000D03*
X121920000Y-88900000D03*
X96520000Y-53340000D03*
X121920000Y-83820000D03*
X121920000Y-76200000D03*
X96520000Y-99060000D03*
X96520000Y-83820000D03*
X96520000Y-88900000D03*
X96520000Y-81280000D03*
X121920000Y-91440000D03*
X121920000Y-81280000D03*
X121920000Y-78740000D03*
X121920000Y-73660000D03*
X121920000Y-71120000D03*
X121920000Y-66040000D03*
X121920000Y-58420000D03*
X121920000Y-55880000D03*
X96520000Y-73660000D03*
X96520000Y-76200000D03*
X96520000Y-78740000D03*
X96520000Y-68580000D03*
X96520000Y-71120000D03*
X96520000Y-63500000D03*
X96520000Y-66040000D03*
X121920000Y-99060000D03*
X96520000Y-96520000D03*
X121920000Y-96520000D03*
X121920000Y-93980000D03*
X96520000Y-91440000D03*
X96520000Y-93980000D03*
X96520000Y-55880000D03*
X96520000Y-86360000D03*
X121920000Y-53340000D03*
X121920000Y-68580000D03*
X121920000Y-63500000D03*
X121920000Y-60960000D03*
X96520000Y-60960000D03*
X96520000Y-58420000D03*
D13*
X78765500Y-56896000D03*
X77190500Y-56896000D03*
D14*
X78884000Y-68646000D03*
X78884000Y-69596000D03*
X78884000Y-70546000D03*
X76564000Y-70546000D03*
X76564000Y-69596000D03*
X76564000Y-68646000D03*
D15*
X80314800Y-80746500D03*
X80314800Y-82321500D03*
D14*
X78884000Y-73726000D03*
X78884000Y-74676000D03*
X78884000Y-75626000D03*
X76564000Y-75626000D03*
X76564000Y-74676000D03*
X76564000Y-73726000D03*
D16*
X93833000Y-99060000D03*
X91333000Y-99060000D03*
D15*
X80264000Y-91465300D03*
X80264000Y-93040300D03*
X80314800Y-52806500D03*
X80314800Y-54381500D03*
D13*
X78765500Y-72136000D03*
X77190500Y-72136000D03*
D15*
X80314800Y-73126500D03*
X80314800Y-74701500D03*
X80314800Y-68046500D03*
X80314800Y-69621500D03*
X80314800Y-57886500D03*
X80314800Y-59461500D03*
D14*
X78884000Y-58486000D03*
X78884000Y-59436000D03*
X78884000Y-60386000D03*
X76564000Y-60386000D03*
X76564000Y-59436000D03*
X76564000Y-58486000D03*
D13*
X78740000Y-79629000D03*
X77165000Y-79629000D03*
X78765500Y-67056000D03*
X77190500Y-67056000D03*
D17*
X78181200Y-89875600D03*
D18*
X78181200Y-91175600D03*
D13*
X78740000Y-51816000D03*
X77165000Y-51816000D03*
D14*
X78884000Y-53406000D03*
X78884000Y-54356000D03*
X78884000Y-55306000D03*
X76564000Y-55306000D03*
X76564000Y-54356000D03*
X76564000Y-53406000D03*
D19*
X78724000Y-93030000D03*
X78724000Y-94930000D03*
X76724000Y-93980000D03*
D14*
X78884000Y-81346000D03*
X78884000Y-82296000D03*
X78884000Y-83246000D03*
X76564000Y-83246000D03*
X76564000Y-82296000D03*
X76564000Y-81346000D03*
M02*
