M48
; DRILL file {KiCad 7.0.6} date Fri Nov 17 11:56:00 2023
; FORMAT={-:-/ absolute / inch / decimal}
; #@! TF.CreationDate,2023-11-17T11:56:00+01:00
; #@! TF.GenerationSoftware,Kicad,Pcbnew,7.0.6
; #@! TF.FileFunction,Plated,1,4,PTH
FMAT,2
INCH
; #@! TA.AperFunction,Plated,PTH,ViaDrill
T1C0.0118
; #@! TA.AperFunction,Plated,PTH,ViaDrill
T2C0.0157
; #@! TA.AperFunction,Plated,PTH,ComponentDrill
T3C0.0394
%
G90
G05
T1
X2.85Y-2.05
X2.85Y-2.15
X2.85Y-2.25
X2.85Y-2.35
X2.85Y-2.45
X2.85Y-2.55
X2.85Y-2.65
X2.85Y-2.75
X2.85Y-2.85
X2.85Y-3.05
X2.85Y-3.15
X2.85Y-3.25
X2.85Y-3.35
X2.85Y-3.45
X2.85Y-3.55
X2.85Y-3.65
X2.85Y-3.75
X2.85Y-3.85
X2.8502Y-2.9498
X2.98Y-2.175
X2.98Y-2.375
X2.98Y-2.775
X2.98Y-2.975
X2.98Y-3.28
X2.99Y-3.5
X3.025Y-2.575
X3.045Y-2.975
X3.05Y-2.175
X3.05Y-2.375
X3.05Y-2.775
X3.05Y-3.28
X3.055Y-3.88
X3.07Y-1.965
X3.075Y-2.1
X3.075Y-2.3
X3.075Y-2.7
X3.075Y-2.9
X3.075Y-3.2
X3.1Y-3.78
X3.13Y-3.055
X3.145Y-3.74
X3.15Y-3.415
X3.175Y-3.3
X3.205Y-3.955
X3.225Y-2.175
X3.245Y-2.53
X3.25Y-2.78
X3.275Y-2.35
X3.3Y-1.97
X3.31Y-2.945
X3.325Y-3.22
X3.325Y-3.495
X3.33Y-3.78
X3.35Y-2.395
X3.39Y-3.92
X3.4Y-2.715
X3.41Y-2.14
X3.41Y-3.645
X3.445Y-3.3
X3.45Y-2.575
X3.455Y-3.05
X3.47Y-3.405
X3.52Y-2.77
X3.535Y-3.74
X3.555Y-1.965
X3.555Y-2.33
X3.565Y-2.99
X3.585Y-2.135
X3.595Y-3.215
X3.595Y-3.505
X3.66Y-3.645
X3.68Y-2.53
X3.68Y-3.28
X3.685Y-2.375
X3.685Y-2.735
X3.685Y-2.935
X3.685Y-3.08
X3.685Y-3.46
X3.7Y-3.765
X3.865Y-2.9
X3.87Y-3.3
X3.87Y-3.4
X3.87Y-3.5
X3.87Y-3.6
X3.89Y-2.49
X3.895Y-2.31
X3.895Y-2.39
X3.93Y-2.64
X3.93Y-3.66
X3.945Y-2.12
X3.95Y-2.81
X3.96Y-2.395
X3.97Y-3.805
X4.01Y-2.31
X4.02Y-2.54
X4.02Y-2.74
X4.02Y-3.25
X4.03Y-3.47
X4.065Y-2.185
X4.065Y-3.14
X4.07Y-2.99
X4.07Y-3.885
X4.1Y-3.33
X4.1Y-3.755
X4.105Y-3.565
X4.12Y-2.35
X4.12Y-2.44
X4.12Y-2.96
X4.125Y-2.88
X4.14Y-3.15
X4.14Y-3.2
X4.145Y-2.605
X4.145Y-2.655
X4.145Y-2.705
X4.155Y-2.455
X4.155Y-2.9
X4.155Y-2.95
X4.22Y-3.455
X4.22Y-3.615
X4.22Y-3.775
X4.225Y-3.415
X4.225Y-3.575
X4.225Y-3.735
X4.23Y-2.105
X4.235Y-3.32
X4.255Y-3.345
X4.26Y-2.655
X4.26Y-2.705
X4.26Y-3.15
X4.26Y-3.2
X4.275Y-3.88
X4.29Y-3.535
X4.29Y-3.695
X4.3Y-3.725
X4.31Y-2.58
X4.315Y-2.99
X4.32Y-3.505
X4.325Y-2.425
X4.335Y-3.08
X4.35Y-2.405
X4.35Y-2.455
X4.35Y-3.0
X4.35Y-3.05
X4.355Y-2.2
X4.385Y-3.375
X4.385Y-3.535
X4.385Y-3.695
X4.4Y-2.82
X4.405Y-2.325
X4.41Y-3.31
X4.43Y-3.915
X4.45Y-3.5
X4.45Y-3.66
X4.455Y-2.355
X4.46Y-2.775
X4.46Y-2.85
X4.475Y-3.27
X4.49Y-2.945
X4.49Y-3.24
X4.495Y-3.765
X4.515Y-2.455
X4.52Y-2.105
X4.53Y-2.845
X4.535Y-3.345
X4.54Y-3.04
X4.545Y-2.335
X4.545Y-3.56
X4.55Y-2.66
X4.55Y-3.44
X4.57Y-2.54
X4.595Y-3.89
X4.61Y-3.695
X4.62Y-2.73
X4.655Y-2.185
X4.655Y-2.4
X4.68Y-3.0
X4.695Y-3.795
X4.7Y-2.68
X4.705Y-2.505
X4.735Y-2.29
X4.75Y-2.45
X4.75Y-2.55
X4.75Y-2.85
X4.75Y-2.95
X4.75Y-3.15
X4.75Y-3.25
X4.75Y-3.35
X4.75Y-3.45
X4.75Y-3.55
X4.75Y-3.65
T2
X3.545Y-3.9
X3.595Y-3.86
X3.595Y-3.94
T3
X2.8Y-2.0
X2.8Y-2.1
X2.8Y-2.2
X2.8Y-2.3
X2.8Y-2.4
X2.8Y-2.5
X2.8Y-2.6
X2.8Y-2.7
X2.8Y-2.8
X2.8Y-2.9
X2.8Y-3.0
X2.8Y-3.1
X2.8Y-3.2
X2.8Y-3.3
X2.8Y-3.4
X2.8Y-3.5
X2.8Y-3.6
X2.8Y-3.7
X2.8Y-3.8
X2.8Y-3.9
X2.9Y-2.0
X2.9Y-2.1
X2.9Y-2.2
X2.9Y-2.3
X2.9Y-2.4
X2.9Y-2.5
X2.9Y-2.6
X2.9Y-2.7
X2.9Y-2.8
X2.9Y-2.9
X2.9Y-3.0
X2.9Y-3.1
X2.9Y-3.2
X2.9Y-3.3
X2.9Y-3.4
X2.9Y-3.5
X2.9Y-3.6
X2.9Y-3.7
X2.9Y-3.8
X2.9Y-3.9
X3.8Y-2.1
X3.8Y-2.2
X3.8Y-2.3
X3.8Y-2.4
X3.8Y-2.5
X3.8Y-2.6
X3.8Y-2.7
X3.8Y-2.8
X3.8Y-2.9
X3.8Y-3.0
X3.8Y-3.1
X3.8Y-3.2
X3.8Y-3.3
X3.8Y-3.4
X3.8Y-3.5
X3.8Y-3.6
X3.8Y-3.7
X3.8Y-3.8
X3.8Y-3.9
X4.8Y-2.1
X4.8Y-2.2
X4.8Y-2.3
X4.8Y-2.4
X4.8Y-2.5
X4.8Y-2.6
X4.8Y-2.7
X4.8Y-2.8
X4.8Y-2.9
X4.8Y-3.0
X4.8Y-3.1
X4.8Y-3.2
X4.8Y-3.3
X4.8Y-3.4
X4.8Y-3.5
X4.8Y-3.6
X4.8Y-3.7
X4.8Y-3.8
X4.8Y-3.9
T0
M30
