%TF.GenerationSoftware,KiCad,Pcbnew,8.0.4*%
%TF.CreationDate,2024-09-22T15:27:49+02:00*%
%TF.ProjectId,blue_64,626c7565-5f36-4342-9e6b-696361645f70,1.0*%
%TF.SameCoordinates,PX3dc4fd0PY7445a00*%
%TF.FileFunction,Copper,L2,Inr*%
%TF.FilePolarity,Positive*%
%FSLAX46Y46*%
G04 Gerber Fmt 4.6, Leading zero omitted, Abs format (unit mm)*
G04 Created by KiCad (PCBNEW 8.0.4) date 2024-09-22 15:27:49*
%MOMM*%
%LPD*%
G01*
G04 APERTURE LIST*
%TA.AperFunction,ComponentPad*%
%ADD10R,1.700000X1.700000*%
%TD*%
%TA.AperFunction,ComponentPad*%
%ADD11O,1.700000X1.700000*%
%TD*%
%TA.AperFunction,ComponentPad*%
%ADD12O,2.200000X2.200000*%
%TD*%
%TA.AperFunction,ComponentPad*%
%ADD13C,2.200000*%
%TD*%
%TA.AperFunction,ViaPad*%
%ADD14C,0.600000*%
%TD*%
%TA.AperFunction,ViaPad*%
%ADD15C,0.800000*%
%TD*%
%TA.AperFunction,Conductor*%
%ADD16C,0.200000*%
%TD*%
%TA.AperFunction,Conductor*%
%ADD17C,1.500000*%
%TD*%
G04 APERTURE END LIST*
D10*
X3810000Y71120000D03*
D11*
X6350000Y71120000D03*
X3810000Y68580000D03*
X6350000Y68580000D03*
X3810000Y66040000D03*
X6350000Y66040000D03*
X3810000Y63500000D03*
X6350000Y63500000D03*
X3810000Y60960000D03*
X6350000Y60960000D03*
X3810000Y58420000D03*
X6350000Y58420000D03*
X3810000Y55880000D03*
X6350000Y55880000D03*
X3810000Y53340000D03*
X6350000Y53340000D03*
X3810000Y50800000D03*
X6350000Y50800000D03*
X3810000Y48260000D03*
X6350000Y48260000D03*
X3810000Y45720000D03*
X6350000Y45720000D03*
X3810000Y43180000D03*
X6350000Y43180000D03*
X3810000Y40640000D03*
X6350000Y40640000D03*
X3810000Y38100000D03*
X6350000Y38100000D03*
X3810000Y35560000D03*
X6350000Y35560000D03*
X3810000Y33020000D03*
X6350000Y33020000D03*
X3810000Y30480000D03*
X6350000Y30480000D03*
X3810000Y27940000D03*
X6350000Y27940000D03*
X3810000Y25400000D03*
X6350000Y25400000D03*
X3810000Y22860000D03*
X6350000Y22860000D03*
D10*
X36830000Y55880000D03*
D11*
X36830000Y53340000D03*
X36830000Y50800000D03*
X36830000Y48260000D03*
X36830000Y45720000D03*
X36830000Y43180000D03*
X36830000Y40640000D03*
X36830000Y38100000D03*
X36830000Y35560000D03*
X36830000Y33020000D03*
X36830000Y30480000D03*
X36830000Y27940000D03*
X36830000Y25400000D03*
X36830000Y22860000D03*
X36830000Y20320000D03*
X36830000Y17780000D03*
X36830000Y15240000D03*
X36830000Y12700000D03*
X36830000Y10160000D03*
X36830000Y7620000D03*
D12*
X6195000Y19177000D03*
D13*
X2695000Y19177000D03*
D14*
X30861000Y38735000D03*
X20701000Y25908000D03*
X19558000Y13208000D03*
X13589000Y51943000D03*
X17430000Y2820000D03*
X31115000Y11684000D03*
X17399000Y50038000D03*
X7493000Y41910000D03*
X28575000Y34798000D03*
X13843000Y33147000D03*
X37719000Y11430000D03*
X35052000Y8763000D03*
X17018000Y1143000D03*
X10160000Y55880000D03*
X22352000Y44323000D03*
X23495000Y34163000D03*
X25781000Y12065000D03*
X10795000Y32893000D03*
X23622000Y16764000D03*
X23876000Y13335000D03*
X29210000Y41910000D03*
X29210000Y1143000D03*
X8255000Y71882000D03*
X20066000Y40894000D03*
X37719000Y26670000D03*
X35941000Y52070000D03*
X31115000Y10160000D03*
X28575000Y9398000D03*
X10033000Y48768000D03*
X17399000Y6858000D03*
X26670000Y34798000D03*
X33528000Y22733000D03*
X37719000Y31750000D03*
X22606000Y26543000D03*
X36068000Y36830000D03*
X8509000Y6223000D03*
X22987000Y20828000D03*
X2921000Y12446000D03*
X5080000Y49530000D03*
X20320000Y38481000D03*
X15748000Y53594000D03*
X26035000Y47244000D03*
X10668000Y26289000D03*
X7493000Y36830000D03*
X5080000Y39370000D03*
X19812000Y20193000D03*
X32639000Y44831000D03*
X17018000Y16637000D03*
X33274000Y49530000D03*
X20447000Y56134000D03*
X19177000Y43180000D03*
X5080000Y67310000D03*
X5080000Y54610000D03*
X13589000Y58420000D03*
X8636000Y40005000D03*
X34544000Y1143000D03*
X28702000Y24892000D03*
X19050000Y26543000D03*
X37719000Y44450000D03*
X5080000Y41910000D03*
X5080000Y62230000D03*
X30480000Y13208000D03*
X7620000Y5080000D03*
X27813000Y13716000D03*
X22225000Y34163000D03*
X38100000Y54610000D03*
X33528000Y30607000D03*
X30988000Y18923000D03*
X24765000Y22606000D03*
X5080000Y36830000D03*
X8001000Y44831000D03*
X8128000Y56642000D03*
X23495000Y3048000D03*
X16764000Y57277000D03*
X20574000Y33655000D03*
X20066000Y1143000D03*
X36068000Y19050000D03*
X28575000Y30988000D03*
X19558000Y34163000D03*
X5080000Y64770000D03*
X12192000Y34163000D03*
X14986000Y50038000D03*
X30861000Y24765000D03*
X34544000Y6223000D03*
X1778000Y6350000D03*
X17145000Y10668000D03*
X18796000Y47371000D03*
X31115000Y51816000D03*
X5080000Y34290000D03*
X22098000Y41402000D03*
X15875000Y56007000D03*
X8128000Y53975000D03*
X26924000Y27305000D03*
X5715000Y8763000D03*
X11557000Y3937000D03*
X26924000Y20828000D03*
X26162000Y1143000D03*
X17145000Y13335000D03*
X20574000Y52197000D03*
X30226000Y17526000D03*
X26546773Y40003358D03*
X30099000Y20193000D03*
X2921000Y16383000D03*
X19050000Y38481000D03*
X38227000Y2540000D03*
X33528000Y25146000D03*
X28956000Y13208000D03*
X27305000Y56007000D03*
X39116000Y5080000D03*
X9652000Y1270000D03*
X14224000Y26416000D03*
X6731000Y16383000D03*
X22860000Y9398000D03*
X10033000Y52451000D03*
X33528000Y19050000D03*
X25019000Y45085000D03*
X5080000Y57150000D03*
X12700000Y10160000D03*
X9730000Y30420000D03*
X5080000Y44450000D03*
X29591000Y38735000D03*
X38227000Y3810000D03*
X14351000Y1143000D03*
X36068000Y21590000D03*
X23114000Y1143000D03*
X9017000Y68326000D03*
X14351000Y6858000D03*
X37084000Y1524000D03*
X28448000Y21971000D03*
X5080000Y46990000D03*
X14732000Y45593000D03*
X11176000Y11557000D03*
X25654000Y53340000D03*
X28702000Y6858000D03*
X21971000Y11938000D03*
X5080000Y52070000D03*
X14097000Y30353000D03*
X9398000Y62865000D03*
X5461000Y2286000D03*
X5080000Y59690000D03*
X20447000Y5842000D03*
X16891000Y18796000D03*
X5080000Y26670000D03*
X18034000Y40386000D03*
X14859000Y46990000D03*
X22352000Y47371000D03*
X12130000Y25720000D03*
X33528000Y33147000D03*
X9652000Y11557000D03*
X18161000Y27432000D03*
X35941000Y46990000D03*
X33528000Y36703000D03*
X10160000Y36576000D03*
X5080000Y69850000D03*
X10033000Y38735000D03*
X29464000Y48133000D03*
X28705000Y44458401D03*
X20066000Y17145000D03*
X31877000Y1143000D03*
X27305000Y44704000D03*
X31623000Y6858000D03*
X32639000Y56261000D03*
X33528000Y27940000D03*
X16129000Y42037000D03*
X7620000Y7366000D03*
X10930000Y13020000D03*
X21082000Y27559000D03*
X10287000Y59055000D03*
X22225000Y22606000D03*
X28448000Y27178000D03*
X23495000Y27559000D03*
X31023500Y21336000D03*
X26670000Y33528000D03*
X30226000Y36576000D03*
X10330000Y21620000D03*
X13630000Y21720000D03*
X30734000Y30734000D03*
X12630000Y21720000D03*
X30038000Y33716000D03*
X10330000Y22520000D03*
X26670000Y25527000D03*
X13130000Y22520000D03*
X14130000Y22520000D03*
X14097000Y49784000D03*
X31242000Y13843000D03*
X14986000Y55753000D03*
X14351000Y4318000D03*
X14986000Y56769000D03*
X14351000Y3048000D03*
X31750000Y10922000D03*
X14986000Y53213000D03*
X31741746Y9398000D03*
X14986000Y54229000D03*
X14097000Y50800000D03*
X31750000Y12446000D03*
X29337000Y17145000D03*
X14521865Y32439467D03*
X14097000Y46355000D03*
X28067000Y45212000D03*
X29718000Y13843000D03*
X14097000Y47371000D03*
X31115000Y17145000D03*
X12827000Y33528000D03*
X12954000Y34417000D03*
X29210000Y20193000D03*
X18034000Y6096000D03*
X11696076Y32893000D03*
X31877000Y2413000D03*
X22987000Y40894000D03*
X13208000Y6985000D03*
X12319000Y8763000D03*
X13208000Y6096000D03*
X13208000Y4953000D03*
X35433000Y3429000D03*
X13208000Y8763000D03*
X34544000Y2413000D03*
X31750000Y39751000D03*
X13208000Y7874000D03*
X19939000Y6731000D03*
X27051000Y41783000D03*
X18034000Y3556000D03*
X14351000Y5579871D03*
X20574000Y4064000D03*
X25400000Y25527000D03*
X24130000Y25527000D03*
X26061263Y27792423D03*
X22860000Y30480000D03*
X21590000Y30480000D03*
X25400000Y33528000D03*
X26162000Y35687000D03*
X25146000Y35687000D03*
X22860000Y38481000D03*
X21590000Y33528000D03*
X22860000Y33528000D03*
X21590000Y38481000D03*
X24130000Y33528000D03*
X21590000Y25527000D03*
X24791263Y27792423D03*
X22860000Y25527000D03*
X22860000Y3810000D03*
D15*
X8763000Y20920000D03*
D16*
X7595000Y19632309D02*
X13037309Y14190000D01*
X32893000Y8763000D02*
X36830000Y12700000D01*
X31115000Y8763000D02*
X32893000Y8763000D01*
X13037309Y14190000D02*
X25146000Y14190000D01*
X25146000Y14190000D02*
X25688000Y14190000D01*
X7595000Y26695000D02*
X7595000Y19632309D01*
X25688000Y14190000D02*
X31115000Y8763000D01*
X6350000Y27940000D02*
X7595000Y26695000D01*
D17*
X8763000Y28072585D02*
X6355585Y30480000D01*
X13472233Y15240000D02*
X11567233Y17145000D01*
X8763000Y20920000D02*
X8763000Y28072585D01*
X36830000Y15240000D02*
X13472233Y15240000D01*
X8763000Y19949234D02*
X8763000Y20920000D01*
X6355585Y30480000D02*
X6350000Y30480000D01*
X12451117Y16261117D02*
X8763000Y19949234D01*
%TA.AperFunction,Conductor*%
G36*
X10077539Y73614815D02*
G01*
X10123294Y73562011D01*
X10134500Y73510500D01*
X10134500Y63510563D01*
X10134500Y63489437D01*
X15229437Y58394500D01*
X15229438Y58394500D01*
X40490500Y58394500D01*
X40557539Y58374815D01*
X40603294Y58322011D01*
X40614500Y58270500D01*
X40614500Y42797500D01*
X40594815Y42730461D01*
X40542011Y42684706D01*
X40490500Y42673500D01*
X37994269Y42673500D01*
X37927230Y42693185D01*
X37881475Y42745989D01*
X37871531Y42815147D01*
X37875003Y42831435D01*
X37916397Y42976918D01*
X37935215Y43180000D01*
X37935215Y43180001D01*
X37916397Y43383083D01*
X37860582Y43579250D01*
X37769673Y43761821D01*
X37646764Y43924579D01*
X37646762Y43924582D01*
X37496041Y44061981D01*
X37496039Y44061983D01*
X37322642Y44169345D01*
X37322635Y44169349D01*
X37227546Y44206186D01*
X37132456Y44243024D01*
X36931976Y44280500D01*
X36728024Y44280500D01*
X36527544Y44243024D01*
X36527541Y44243024D01*
X36527541Y44243023D01*
X36337364Y44169349D01*
X36337357Y44169345D01*
X36163960Y44061983D01*
X36163958Y44061981D01*
X36013237Y43924582D01*
X35890327Y43761822D01*
X35799422Y43579261D01*
X35799417Y43579248D01*
X35743602Y43383083D01*
X35724785Y43180001D01*
X35724785Y43180000D01*
X35743602Y42976918D01*
X35784997Y42831435D01*
X35784411Y42761567D01*
X35746144Y42703109D01*
X35682347Y42674618D01*
X35665731Y42673500D01*
X29765529Y42673500D01*
X29700881Y42665184D01*
X29700879Y42665184D01*
X29700875Y42665183D01*
X29670516Y42657242D01*
X29640151Y42649299D01*
X29640148Y42649298D01*
X29604240Y42636989D01*
X29604239Y42636989D01*
X29522019Y42580624D01*
X29522007Y42580615D01*
X29473203Y42530635D01*
X29473194Y42530624D01*
X29444411Y42495339D01*
X29405714Y42403466D01*
X29405713Y42403462D01*
X29391674Y42335017D01*
X29386537Y42289770D01*
X29386537Y42289766D01*
X29395384Y42239001D01*
X29403652Y42191557D01*
X29403654Y42191551D01*
X29409215Y42177167D01*
X29428846Y42126387D01*
X29464457Y42062975D01*
X29464458Y42062973D01*
X29466491Y42059354D01*
X29472934Y42046090D01*
X29491159Y42002091D01*
X29499537Y41970822D01*
X29505413Y41926185D01*
X29505413Y41893815D01*
X29499536Y41849177D01*
X29491160Y41817914D01*
X29473929Y41776311D01*
X29457741Y41748273D01*
X29430333Y41712555D01*
X29407445Y41689667D01*
X29371727Y41662259D01*
X29343690Y41646072D01*
X29302088Y41628841D01*
X29270824Y41620464D01*
X29226186Y41614587D01*
X29193815Y41614587D01*
X29149173Y41620464D01*
X29117909Y41628841D01*
X29076304Y41646073D01*
X29048273Y41662258D01*
X29012556Y41689665D01*
X28989668Y41712553D01*
X28962254Y41748279D01*
X28946068Y41776314D01*
X28928840Y41817907D01*
X28920462Y41849172D01*
X28914584Y41893823D01*
X28914584Y41926180D01*
X28920462Y41970833D01*
X28928838Y42002091D01*
X28947199Y42046421D01*
X28954560Y42061287D01*
X28988302Y42119327D01*
X28988304Y42119332D01*
X28988306Y42119335D01*
X29012668Y42177173D01*
X29024767Y42213168D01*
X29024767Y42213170D01*
X29024768Y42213172D01*
X29028872Y42289770D01*
X29030102Y42312717D01*
X29020158Y42381875D01*
X29015916Y42399824D01*
X29009685Y42426193D01*
X29009684Y42426198D01*
X28960353Y42512828D01*
X28924562Y42554133D01*
X28914601Y42565629D01*
X28881824Y42597257D01*
X28793487Y42643466D01*
X28793487Y42643467D01*
X28726455Y42663149D01*
X28726443Y42663152D01*
X28654466Y42673500D01*
X28654465Y42673500D01*
X22857000Y42673500D01*
X22856997Y42673500D01*
X22802687Y42667662D01*
X22751181Y42656457D01*
X22751172Y42656454D01*
X22724807Y42649221D01*
X22724796Y42649217D01*
X22638181Y42599895D01*
X22638173Y42599889D01*
X22585371Y42554137D01*
X22553743Y42521360D01*
X22507534Y42433023D01*
X22507533Y42433023D01*
X22487851Y42365991D01*
X22487848Y42365979D01*
X22477500Y42294002D01*
X22477500Y41127149D01*
X22468061Y41079697D01*
X22450670Y41037713D01*
X22431750Y40894001D01*
X22431750Y40894000D01*
X22438453Y40843083D01*
X22450670Y40750292D01*
X22450670Y40750291D01*
X22468061Y40708306D01*
X22477500Y40660853D01*
X22477500Y39493998D01*
X22483338Y39439688D01*
X22494543Y39388182D01*
X22494546Y39388173D01*
X22501779Y39361808D01*
X22501783Y39361797D01*
X22551105Y39275182D01*
X22551110Y39275175D01*
X22551112Y39275172D01*
X22572682Y39250279D01*
X22596863Y39222372D01*
X22596866Y39222369D01*
X22596867Y39222368D01*
X22629641Y39190743D01*
X22629643Y39190742D01*
X22633647Y39187855D01*
X22676511Y39132679D01*
X22682741Y39063087D01*
X22650358Y39001175D01*
X22608577Y38972715D01*
X22582375Y38961861D01*
X22467379Y38873621D01*
X22445097Y38844582D01*
X22379137Y38758622D01*
X22339561Y38663075D01*
X22295720Y38608671D01*
X22229426Y38586606D01*
X22161727Y38603885D01*
X22114116Y38655022D01*
X22110439Y38663075D01*
X22070862Y38758622D01*
X22070861Y38758625D01*
X21982621Y38873621D01*
X21867625Y38961861D01*
X21867624Y38961862D01*
X21867622Y38961863D01*
X21733712Y39017329D01*
X21733710Y39017330D01*
X21733709Y39017330D01*
X21661854Y39026790D01*
X21590001Y39036250D01*
X21589999Y39036250D01*
X21446291Y39017330D01*
X21446287Y39017329D01*
X21312377Y38961863D01*
X21197379Y38873621D01*
X21109137Y38758623D01*
X21053671Y38624713D01*
X21053670Y38624709D01*
X21034750Y38481000D01*
X21051558Y38353330D01*
X21053670Y38337292D01*
X21053671Y38337288D01*
X21109137Y38203378D01*
X21109138Y38203376D01*
X21109139Y38203375D01*
X21197379Y38088379D01*
X21312375Y38000139D01*
X21446291Y37944670D01*
X21573280Y37927952D01*
X21589999Y37925750D01*
X21590000Y37925750D01*
X21590001Y37925750D01*
X21604977Y37927722D01*
X21733709Y37944670D01*
X21867625Y38000139D01*
X21982621Y38088379D01*
X22070861Y38203375D01*
X22110439Y38298926D01*
X22154279Y38353330D01*
X22220573Y38375395D01*
X22288273Y38358116D01*
X22335884Y38306979D01*
X22339561Y38298926D01*
X22379137Y38203378D01*
X22379138Y38203376D01*
X22379139Y38203375D01*
X22467379Y38088379D01*
X22582375Y38000139D01*
X22716291Y37944670D01*
X22843280Y37927952D01*
X22859999Y37925750D01*
X22860000Y37925750D01*
X22860001Y37925750D01*
X22874977Y37927722D01*
X23003709Y37944670D01*
X23137625Y38000139D01*
X23252621Y38088379D01*
X23340861Y38203375D01*
X23396330Y38337291D01*
X23415250Y38481000D01*
X23396330Y38624709D01*
X23340861Y38758625D01*
X23252621Y38873621D01*
X23252619Y38873622D01*
X23252619Y38873623D01*
X23239954Y38883341D01*
X23228506Y38892125D01*
X23187304Y38948552D01*
X23183149Y39018298D01*
X23217361Y39079218D01*
X23279078Y39111971D01*
X23303993Y39114500D01*
X26102587Y39114500D01*
X26102595Y39114500D01*
X26128397Y39115806D01*
X26153312Y39118335D01*
X26209044Y39135242D01*
X26247280Y39146840D01*
X26247286Y39146843D01*
X26308986Y39179587D01*
X26308987Y39179588D01*
X26308999Y39179594D01*
X26347167Y39204446D01*
X26412001Y39280174D01*
X26438802Y39327899D01*
X26488787Y39376710D01*
X26557232Y39390750D01*
X26622402Y39365558D01*
X26654672Y39328540D01*
X26685058Y39275179D01*
X26685061Y39275175D01*
X26685063Y39275172D01*
X26706633Y39250279D01*
X26730814Y39222372D01*
X26730817Y39222369D01*
X26730818Y39222368D01*
X26763592Y39190743D01*
X26851927Y39144535D01*
X26851928Y39144535D01*
X26851928Y39144534D01*
X26902056Y39129816D01*
X26918966Y39124850D01*
X26918970Y39124850D01*
X26918972Y39124849D01*
X26930603Y39123177D01*
X26990951Y39114500D01*
X26990952Y39114500D01*
X35989244Y39114500D01*
X36056283Y39094815D01*
X36102038Y39042011D01*
X36111982Y38972853D01*
X36082957Y38909297D01*
X36072782Y38898863D01*
X36013237Y38844582D01*
X35890327Y38681822D01*
X35799422Y38499261D01*
X35799417Y38499248D01*
X35743602Y38303083D01*
X35724785Y38100001D01*
X35724785Y38100000D01*
X35743602Y37896918D01*
X35799417Y37700753D01*
X35799422Y37700740D01*
X35890327Y37518179D01*
X36013237Y37355419D01*
X36163958Y37218020D01*
X36163960Y37218018D01*
X36263141Y37156608D01*
X36337363Y37110652D01*
X36527544Y37036976D01*
X36728024Y36999500D01*
X36728026Y36999500D01*
X36931974Y36999500D01*
X36931976Y36999500D01*
X37132456Y37036976D01*
X37322637Y37110652D01*
X37496041Y37218019D01*
X37636962Y37346485D01*
X37699766Y37377102D01*
X37769153Y37368904D01*
X37823093Y37324495D01*
X37844461Y37257972D01*
X37844500Y37254848D01*
X37844500Y36405153D01*
X37824815Y36338114D01*
X37772011Y36292359D01*
X37702853Y36282415D01*
X37639297Y36311440D01*
X37636962Y36313516D01*
X37496042Y36441981D01*
X37496039Y36441983D01*
X37322642Y36549345D01*
X37322635Y36549349D01*
X37227546Y36586186D01*
X37132456Y36623024D01*
X36931976Y36660500D01*
X36728024Y36660500D01*
X36527544Y36623024D01*
X36527541Y36623024D01*
X36527541Y36623023D01*
X36337364Y36549349D01*
X36337357Y36549345D01*
X36163960Y36441983D01*
X36163958Y36441981D01*
X36013237Y36304582D01*
X35890327Y36141822D01*
X35799422Y35959261D01*
X35799417Y35959248D01*
X35743602Y35763083D01*
X35724785Y35560001D01*
X35724785Y35560000D01*
X35743602Y35356918D01*
X35799417Y35160753D01*
X35799422Y35160740D01*
X35890327Y34978179D01*
X36013237Y34815419D01*
X36163958Y34678020D01*
X36163960Y34678018D01*
X36263141Y34616608D01*
X36337363Y34570652D01*
X36527544Y34496976D01*
X36728024Y34459500D01*
X36728026Y34459500D01*
X36931974Y34459500D01*
X36931976Y34459500D01*
X37132456Y34496976D01*
X37322637Y34570652D01*
X37496041Y34678019D01*
X37636962Y34806485D01*
X37699766Y34837102D01*
X37769153Y34828904D01*
X37823093Y34784495D01*
X37844461Y34717972D01*
X37844500Y34714848D01*
X37844500Y33865153D01*
X37824815Y33798114D01*
X37772011Y33752359D01*
X37702853Y33742415D01*
X37639297Y33771440D01*
X37636962Y33773516D01*
X37496042Y33901981D01*
X37496039Y33901983D01*
X37322642Y34009345D01*
X37322635Y34009349D01*
X37185200Y34062591D01*
X37132456Y34083024D01*
X36931976Y34120500D01*
X36728024Y34120500D01*
X36527544Y34083024D01*
X36527541Y34083024D01*
X36527541Y34083023D01*
X36337364Y34009349D01*
X36337357Y34009345D01*
X36163960Y33901983D01*
X36163958Y33901981D01*
X36013237Y33764582D01*
X35890327Y33601822D01*
X35799422Y33419261D01*
X35799417Y33419248D01*
X35743602Y33223083D01*
X35724785Y33020001D01*
X35724785Y33020000D01*
X35743602Y32816918D01*
X35799417Y32620753D01*
X35799422Y32620740D01*
X35890327Y32438179D01*
X36013237Y32275419D01*
X36163958Y32138020D01*
X36163960Y32138018D01*
X36229548Y32097408D01*
X36337363Y32030652D01*
X36527544Y31956976D01*
X36728024Y31919500D01*
X36728026Y31919500D01*
X36931974Y31919500D01*
X36931976Y31919500D01*
X37132456Y31956976D01*
X37322637Y32030652D01*
X37496041Y32138019D01*
X37637649Y32267113D01*
X37700453Y32297729D01*
X37769840Y32289532D01*
X37823780Y32245122D01*
X37844011Y32183876D01*
X37844527Y32183939D01*
X37844849Y32181338D01*
X37845079Y32180644D01*
X37845151Y32178908D01*
X37845151Y32178904D01*
X37845152Y32178902D01*
X37862119Y32097412D01*
X37862120Y32097408D01*
X37881611Y32046991D01*
X37887313Y32032243D01*
X37922921Y31968836D01*
X37922923Y31968833D01*
X37922926Y31968829D01*
X37966744Y31911723D01*
X37982928Y31883691D01*
X38000158Y31842094D01*
X38008536Y31810826D01*
X38014413Y31766186D01*
X38014413Y31733817D01*
X38008537Y31689180D01*
X38000159Y31657912D01*
X37982927Y31616310D01*
X37966743Y31588277D01*
X37922895Y31531133D01*
X37916611Y31522580D01*
X37910658Y31514111D01*
X37874536Y31439170D01*
X37874534Y31439164D01*
X37854850Y31372129D01*
X37854849Y31372124D01*
X37845289Y31305634D01*
X37816263Y31242079D01*
X37757485Y31204305D01*
X37687615Y31204305D01*
X37639013Y31231645D01*
X37496041Y31361981D01*
X37496039Y31361983D01*
X37322642Y31469345D01*
X37322635Y31469349D01*
X37227546Y31506186D01*
X37132456Y31543024D01*
X36931976Y31580500D01*
X36728024Y31580500D01*
X36527544Y31543024D01*
X36527541Y31543024D01*
X36527541Y31543023D01*
X36337364Y31469349D01*
X36337357Y31469345D01*
X36163960Y31361983D01*
X36163958Y31361981D01*
X36013237Y31224582D01*
X35890327Y31061822D01*
X35799422Y30879261D01*
X35799417Y30879248D01*
X35743602Y30683083D01*
X35724785Y30480001D01*
X35724785Y30480000D01*
X35743602Y30276918D01*
X35799417Y30080753D01*
X35799422Y30080740D01*
X35890327Y29898179D01*
X36013237Y29735419D01*
X36163958Y29598020D01*
X36163960Y29598018D01*
X36263141Y29536608D01*
X36337363Y29490652D01*
X36527544Y29416976D01*
X36728024Y29379500D01*
X36728026Y29379500D01*
X36931974Y29379500D01*
X36931976Y29379500D01*
X37132456Y29416976D01*
X37322637Y29490652D01*
X37496041Y29598019D01*
X37624363Y29715000D01*
X37636962Y29726485D01*
X37699766Y29757102D01*
X37769153Y29748904D01*
X37823093Y29704495D01*
X37844461Y29637972D01*
X37844500Y29634848D01*
X37844500Y28785153D01*
X37824815Y28718114D01*
X37772011Y28672359D01*
X37702853Y28662415D01*
X37639297Y28691440D01*
X37636962Y28693516D01*
X37496042Y28821981D01*
X37496039Y28821983D01*
X37322642Y28929345D01*
X37322635Y28929349D01*
X37227546Y28966186D01*
X37132456Y29003024D01*
X36931976Y29040500D01*
X36728024Y29040500D01*
X36527544Y29003024D01*
X36527541Y29003024D01*
X36527541Y29003023D01*
X36337364Y28929349D01*
X36337357Y28929345D01*
X36163960Y28821983D01*
X36163958Y28821981D01*
X36013237Y28684582D01*
X35890327Y28521822D01*
X35799422Y28339261D01*
X35799417Y28339248D01*
X35743602Y28143083D01*
X35724785Y27940001D01*
X35724785Y27940000D01*
X35743602Y27736918D01*
X35799417Y27540753D01*
X35799422Y27540740D01*
X35890327Y27358179D01*
X36013237Y27195419D01*
X36163958Y27058020D01*
X36163960Y27058018D01*
X36245621Y27007456D01*
X36337363Y26950652D01*
X36527544Y26876976D01*
X36728024Y26839500D01*
X36728026Y26839500D01*
X36931974Y26839500D01*
X36931976Y26839500D01*
X37132456Y26876976D01*
X37322637Y26950652D01*
X37496041Y27058019D01*
X37637649Y27187113D01*
X37700453Y27217729D01*
X37769840Y27209532D01*
X37823780Y27165122D01*
X37844011Y27103876D01*
X37844527Y27103939D01*
X37844849Y27101338D01*
X37845079Y27100644D01*
X37845151Y27098908D01*
X37845151Y27098904D01*
X37845152Y27098902D01*
X37853823Y27057258D01*
X37862119Y27017412D01*
X37862120Y27017408D01*
X37887313Y26952242D01*
X37887318Y26952232D01*
X37922917Y26888840D01*
X37922921Y26888835D01*
X37937398Y26869968D01*
X37937405Y26869958D01*
X37966741Y26831727D01*
X37982927Y26803692D01*
X38000159Y26762090D01*
X38008537Y26730822D01*
X38014413Y26686185D01*
X38014413Y26653817D01*
X38008537Y26609180D01*
X38000159Y26577912D01*
X37982927Y26536310D01*
X37966743Y26508277D01*
X37922895Y26451133D01*
X37916611Y26442580D01*
X37910658Y26434111D01*
X37874536Y26359170D01*
X37874534Y26359164D01*
X37854850Y26292129D01*
X37854849Y26292124D01*
X37845289Y26225634D01*
X37816263Y26162079D01*
X37757485Y26124305D01*
X37687615Y26124305D01*
X37639013Y26151645D01*
X37496041Y26281981D01*
X37496039Y26281983D01*
X37322642Y26389345D01*
X37322635Y26389349D01*
X37227546Y26426186D01*
X37132456Y26463024D01*
X36931976Y26500500D01*
X36728024Y26500500D01*
X36527544Y26463024D01*
X36527541Y26463024D01*
X36527541Y26463023D01*
X36337364Y26389349D01*
X36337357Y26389345D01*
X36163960Y26281983D01*
X36163958Y26281981D01*
X36013237Y26144582D01*
X35890327Y25981822D01*
X35799422Y25799261D01*
X35799417Y25799248D01*
X35743602Y25603083D01*
X35724785Y25400001D01*
X35724785Y25400000D01*
X35743602Y25196918D01*
X35799417Y25000753D01*
X35799422Y25000740D01*
X35890327Y24818179D01*
X36013237Y24655419D01*
X36163958Y24518020D01*
X36163960Y24518018D01*
X36263141Y24456608D01*
X36337363Y24410652D01*
X36527544Y24336976D01*
X36728024Y24299500D01*
X36728026Y24299500D01*
X36931974Y24299500D01*
X36931976Y24299500D01*
X37132456Y24336976D01*
X37322637Y24410652D01*
X37496041Y24518019D01*
X37612840Y24624495D01*
X37636962Y24646485D01*
X37699766Y24677102D01*
X37769153Y24668904D01*
X37823093Y24624495D01*
X37844461Y24557972D01*
X37844500Y24554848D01*
X37844500Y23705153D01*
X37824815Y23638114D01*
X37772011Y23592359D01*
X37702853Y23582415D01*
X37639297Y23611440D01*
X37636962Y23613516D01*
X37496042Y23741981D01*
X37496039Y23741983D01*
X37322642Y23849345D01*
X37322635Y23849349D01*
X37207761Y23893851D01*
X37132456Y23923024D01*
X36931976Y23960500D01*
X36728024Y23960500D01*
X36527544Y23923024D01*
X36527541Y23923024D01*
X36527541Y23923023D01*
X36337364Y23849349D01*
X36337357Y23849345D01*
X36163960Y23741983D01*
X36163958Y23741981D01*
X36013237Y23604582D01*
X35890327Y23441822D01*
X35799422Y23259261D01*
X35799417Y23259248D01*
X35743602Y23063083D01*
X35724785Y22860001D01*
X35724785Y22860000D01*
X35743602Y22656918D01*
X35799417Y22460753D01*
X35799422Y22460740D01*
X35890327Y22278179D01*
X36013237Y22115419D01*
X36163958Y21978020D01*
X36163960Y21978018D01*
X36263141Y21916608D01*
X36337363Y21870652D01*
X36527544Y21796976D01*
X36728024Y21759500D01*
X36728026Y21759500D01*
X36931974Y21759500D01*
X36931976Y21759500D01*
X37132456Y21796976D01*
X37322637Y21870652D01*
X37496041Y21978019D01*
X37636962Y22106485D01*
X37699766Y22137102D01*
X37769153Y22128904D01*
X37823093Y22084495D01*
X37844461Y22017972D01*
X37844500Y22014848D01*
X37844500Y21165153D01*
X37824815Y21098114D01*
X37772011Y21052359D01*
X37702853Y21042415D01*
X37639297Y21071440D01*
X37636962Y21073516D01*
X37496042Y21201981D01*
X37496039Y21201983D01*
X37322642Y21309345D01*
X37322635Y21309349D01*
X37227546Y21346186D01*
X37132456Y21383024D01*
X36931976Y21420500D01*
X36728024Y21420500D01*
X36527544Y21383024D01*
X36527541Y21383024D01*
X36527541Y21383023D01*
X36337364Y21309349D01*
X36337357Y21309345D01*
X36163960Y21201983D01*
X36163958Y21201981D01*
X36013237Y21064582D01*
X35890327Y20901822D01*
X35799422Y20719261D01*
X35799417Y20719248D01*
X35743602Y20523083D01*
X35724785Y20320001D01*
X35724785Y20320000D01*
X35743602Y20116918D01*
X35799417Y19920753D01*
X35799422Y19920740D01*
X35890327Y19738179D01*
X36013237Y19575419D01*
X36163958Y19438020D01*
X36163960Y19438018D01*
X36242656Y19389292D01*
X36337363Y19330652D01*
X36527544Y19256976D01*
X36728024Y19219500D01*
X36728026Y19219500D01*
X36931974Y19219500D01*
X36931976Y19219500D01*
X37132456Y19256976D01*
X37322637Y19330652D01*
X37496041Y19438019D01*
X37636962Y19566485D01*
X37699766Y19597102D01*
X37769153Y19588904D01*
X37823093Y19544495D01*
X37844461Y19477972D01*
X37844500Y19474848D01*
X37844500Y18625153D01*
X37824815Y18558114D01*
X37772011Y18512359D01*
X37702853Y18502415D01*
X37639297Y18531440D01*
X37636962Y18533516D01*
X37496042Y18661981D01*
X37496039Y18661983D01*
X37322642Y18769345D01*
X37322635Y18769349D01*
X37142089Y18839292D01*
X37132456Y18843024D01*
X36931976Y18880500D01*
X36728024Y18880500D01*
X36527544Y18843024D01*
X36527541Y18843024D01*
X36527541Y18843023D01*
X36337364Y18769349D01*
X36337357Y18769345D01*
X36163960Y18661983D01*
X36163958Y18661981D01*
X36013237Y18524582D01*
X35890327Y18361822D01*
X35799422Y18179261D01*
X35799417Y18179248D01*
X35743602Y17983083D01*
X35724785Y17780001D01*
X35724785Y17780000D01*
X35743602Y17576918D01*
X35799417Y17380753D01*
X35799422Y17380740D01*
X35890327Y17198179D01*
X36013237Y17035419D01*
X36163958Y16898020D01*
X36163960Y16898018D01*
X36169550Y16894557D01*
X36337363Y16790652D01*
X36527544Y16716976D01*
X36728024Y16679500D01*
X36728026Y16679500D01*
X36931974Y16679500D01*
X36931976Y16679500D01*
X37132456Y16716976D01*
X37322637Y16790652D01*
X37496041Y16898019D01*
X37636962Y17026485D01*
X37699766Y17057102D01*
X37769153Y17048904D01*
X37823093Y17004495D01*
X37844461Y16937972D01*
X37844500Y16934848D01*
X37844500Y16085153D01*
X37824815Y16018114D01*
X37772011Y15972359D01*
X37702853Y15962415D01*
X37639297Y15991440D01*
X37636962Y15993516D01*
X37496042Y16121981D01*
X37496039Y16121983D01*
X37322642Y16229345D01*
X37322635Y16229349D01*
X37200099Y16276819D01*
X37132456Y16303024D01*
X36931976Y16340500D01*
X36728024Y16340500D01*
X36527544Y16303024D01*
X36527541Y16303024D01*
X36527541Y16303023D01*
X36387763Y16248873D01*
X36342969Y16240500D01*
X13938015Y16240500D01*
X13870976Y16260185D01*
X13850334Y16276819D01*
X13232596Y16894557D01*
X13232576Y16894579D01*
X12982154Y17145001D01*
X28781750Y17145001D01*
X28781750Y17145000D01*
X28800670Y17001292D01*
X28800671Y17001288D01*
X28856137Y16867378D01*
X28856138Y16867376D01*
X28856139Y16867375D01*
X28944379Y16752379D01*
X29059375Y16664139D01*
X29193291Y16608670D01*
X29320280Y16591952D01*
X29336999Y16589750D01*
X29337000Y16589750D01*
X29337001Y16589750D01*
X29351977Y16591722D01*
X29480709Y16608670D01*
X29614625Y16664139D01*
X29729621Y16752379D01*
X29817861Y16867375D01*
X29873330Y17001291D01*
X29892250Y17145000D01*
X29892250Y17145001D01*
X30559750Y17145001D01*
X30559750Y17145000D01*
X30578670Y17001292D01*
X30578671Y17001288D01*
X30634137Y16867378D01*
X30634138Y16867376D01*
X30634139Y16867375D01*
X30722379Y16752379D01*
X30837375Y16664139D01*
X30971291Y16608670D01*
X31098280Y16591952D01*
X31114999Y16589750D01*
X31115000Y16589750D01*
X31115001Y16589750D01*
X31129977Y16591722D01*
X31258709Y16608670D01*
X31392625Y16664139D01*
X31507621Y16752379D01*
X31595861Y16867375D01*
X31651330Y17001291D01*
X31670250Y17145000D01*
X31651330Y17288709D01*
X31595861Y17422625D01*
X31507621Y17537621D01*
X31392625Y17625861D01*
X31392624Y17625862D01*
X31392622Y17625863D01*
X31258712Y17681329D01*
X31258710Y17681330D01*
X31258709Y17681330D01*
X31186854Y17690790D01*
X31115001Y17700250D01*
X31114999Y17700250D01*
X30971291Y17681330D01*
X30971287Y17681329D01*
X30837377Y17625863D01*
X30722379Y17537621D01*
X30634137Y17422623D01*
X30578671Y17288713D01*
X30578670Y17288709D01*
X30559750Y17145001D01*
X29892250Y17145001D01*
X29873330Y17288709D01*
X29817861Y17422625D01*
X29729621Y17537621D01*
X29614625Y17625861D01*
X29614624Y17625862D01*
X29614622Y17625863D01*
X29480712Y17681329D01*
X29480710Y17681330D01*
X29480709Y17681330D01*
X29408854Y17690790D01*
X29337001Y17700250D01*
X29336999Y17700250D01*
X29193291Y17681330D01*
X29193287Y17681329D01*
X29059377Y17625863D01*
X28944379Y17537621D01*
X28856137Y17422623D01*
X28800671Y17288713D01*
X28800670Y17288709D01*
X28781750Y17145001D01*
X12982154Y17145001D01*
X9934153Y20193001D01*
X28654750Y20193001D01*
X28654750Y20193000D01*
X28673670Y20049292D01*
X28673671Y20049288D01*
X28729137Y19915378D01*
X28729138Y19915376D01*
X28729139Y19915375D01*
X28817379Y19800379D01*
X28932375Y19712139D01*
X29066291Y19656670D01*
X29187859Y19640665D01*
X29209999Y19637750D01*
X29210000Y19637750D01*
X29210001Y19637750D01*
X29224977Y19639722D01*
X29353709Y19656670D01*
X29487625Y19712139D01*
X29602621Y19800379D01*
X29690861Y19915375D01*
X29746330Y20049291D01*
X29765250Y20193000D01*
X29746330Y20336709D01*
X29699487Y20449799D01*
X29690862Y20470623D01*
X29690861Y20470624D01*
X29690861Y20470625D01*
X29602621Y20585621D01*
X29487625Y20673861D01*
X29487624Y20673862D01*
X29487622Y20673863D01*
X29353712Y20729329D01*
X29353710Y20729330D01*
X29353709Y20729330D01*
X29281854Y20738790D01*
X29210001Y20748250D01*
X29209999Y20748250D01*
X29066291Y20729330D01*
X29066287Y20729329D01*
X28932377Y20673863D01*
X28817379Y20585621D01*
X28729137Y20470623D01*
X28673671Y20336713D01*
X28673670Y20336709D01*
X28654750Y20193001D01*
X9934153Y20193001D01*
X9886598Y20240556D01*
X9853113Y20301879D01*
X9858097Y20371571D01*
X9899969Y20427504D01*
X9965433Y20451921D01*
X9991918Y20450976D01*
X10030000Y20445500D01*
X10030004Y20445500D01*
X14426639Y20445500D01*
X14428075Y20445578D01*
X14453952Y20446964D01*
X14480310Y20449798D01*
X14575444Y20479587D01*
X14636767Y20513072D01*
X14694985Y20556653D01*
X16579512Y22441182D01*
X16640835Y22474666D01*
X16667193Y22477500D01*
X21598892Y22477500D01*
X21598895Y22477500D01*
X21603454Y22477541D01*
X21607881Y22477620D01*
X21684013Y22490655D01*
X21750307Y22512721D01*
X21792065Y22530898D01*
X21868559Y22594827D01*
X21912397Y22649227D01*
X21949505Y22711769D01*
X21961069Y22739688D01*
X21977255Y22767724D01*
X21999767Y22797063D01*
X22004666Y22803448D01*
X22027552Y22826334D01*
X22063281Y22853749D01*
X22091308Y22869931D01*
X22132907Y22887162D01*
X22164168Y22895538D01*
X22208813Y22901415D01*
X22241183Y22901415D01*
X22263503Y22898476D01*
X22263504Y22898476D01*
X22285833Y22895537D01*
X22317092Y22887161D01*
X22358687Y22869932D01*
X22386721Y22853746D01*
X22422446Y22826333D01*
X22445332Y22803448D01*
X22472743Y22767725D01*
X22488925Y22739697D01*
X22500505Y22711742D01*
X22502320Y22707468D01*
X22504072Y22703447D01*
X22504076Y22703440D01*
X22545215Y22638174D01*
X22590961Y22585380D01*
X22590965Y22585375D01*
X22590970Y22585370D01*
X22590972Y22585368D01*
X22623746Y22553743D01*
X22712081Y22507535D01*
X22712082Y22507535D01*
X22712082Y22507534D01*
X22762210Y22492816D01*
X22779120Y22487850D01*
X22779124Y22487850D01*
X22779126Y22487849D01*
X22790757Y22486177D01*
X22851105Y22477500D01*
X22851106Y22477500D01*
X24138892Y22477500D01*
X24138895Y22477500D01*
X24143454Y22477541D01*
X24147881Y22477620D01*
X24224013Y22490655D01*
X24290307Y22512721D01*
X24332065Y22530898D01*
X24408559Y22594827D01*
X24452397Y22649227D01*
X24489505Y22711769D01*
X24501069Y22739688D01*
X24517255Y22767724D01*
X24539767Y22797063D01*
X24544666Y22803448D01*
X24567552Y22826334D01*
X24603281Y22853749D01*
X24631308Y22869931D01*
X24672907Y22887162D01*
X24704168Y22895538D01*
X24748813Y22901415D01*
X24781183Y22901415D01*
X24803503Y22898476D01*
X24803504Y22898476D01*
X24825833Y22895537D01*
X24857092Y22887161D01*
X24898687Y22869932D01*
X24926721Y22853746D01*
X24962446Y22826333D01*
X24985332Y22803448D01*
X25012743Y22767725D01*
X25028925Y22739697D01*
X25040505Y22711742D01*
X25042320Y22707468D01*
X25044072Y22703447D01*
X25044076Y22703440D01*
X25085215Y22638174D01*
X25130961Y22585380D01*
X25130965Y22585375D01*
X25130970Y22585370D01*
X25130972Y22585368D01*
X25163746Y22553743D01*
X25252081Y22507535D01*
X25252082Y22507535D01*
X25252082Y22507534D01*
X25302210Y22492816D01*
X25319120Y22487850D01*
X25319124Y22487850D01*
X25319126Y22487849D01*
X25330757Y22486177D01*
X25391105Y22477500D01*
X25391106Y22477500D01*
X25729639Y22477500D01*
X25731075Y22477578D01*
X25756952Y22478964D01*
X25783310Y22481798D01*
X25878444Y22511587D01*
X25939767Y22545072D01*
X25997985Y22588653D01*
X28407646Y24998316D01*
X28419074Y25010518D01*
X28429768Y25022712D01*
X28440375Y25035637D01*
X28481669Y25089454D01*
X28504546Y25112331D01*
X28558363Y25153625D01*
X28571288Y25164232D01*
X28583482Y25174926D01*
X28595684Y25186354D01*
X29354347Y25945016D01*
X29372626Y25965366D01*
X29389260Y25986008D01*
X29435465Y26074339D01*
X29455150Y26141378D01*
X29465500Y26213363D01*
X29465500Y26955717D01*
X29458652Y27014474D01*
X29458226Y27016275D01*
X29451602Y27044308D01*
X29445536Y27069979D01*
X29436274Y27100512D01*
X29427414Y27114855D01*
X29408929Y27182235D01*
X29423034Y27237498D01*
X29435465Y27261260D01*
X29455150Y27328299D01*
X29465500Y27400284D01*
X29465500Y29211500D01*
X29485185Y29278539D01*
X29537989Y29324294D01*
X29589500Y29335500D01*
X31245000Y29335500D01*
X31299313Y29341339D01*
X31350824Y29352545D01*
X31377198Y29359781D01*
X31406074Y29376225D01*
X31463818Y29409106D01*
X31463819Y29409108D01*
X31463828Y29409112D01*
X31516632Y29454867D01*
X31548257Y29487641D01*
X31594465Y29575976D01*
X31614150Y29643015D01*
X31624500Y29715000D01*
X31624500Y37595000D01*
X31618661Y37649313D01*
X31607455Y37700824D01*
X31600219Y37727198D01*
X31596332Y37734024D01*
X31550894Y37813819D01*
X31550890Y37813824D01*
X31550888Y37813828D01*
X31515097Y37855133D01*
X31505136Y37866629D01*
X31472359Y37898257D01*
X31384022Y37944466D01*
X31384022Y37944467D01*
X31316990Y37964149D01*
X31316978Y37964152D01*
X31245001Y37974500D01*
X31245000Y37974500D01*
X29588000Y37974500D01*
X29587997Y37974500D01*
X29533687Y37968662D01*
X29482181Y37957457D01*
X29482172Y37957454D01*
X29455807Y37950221D01*
X29455796Y37950217D01*
X29369181Y37900895D01*
X29369173Y37900889D01*
X29316371Y37855137D01*
X29284743Y37822360D01*
X29238534Y37734023D01*
X29238533Y37734023D01*
X29218851Y37666991D01*
X29218848Y37666979D01*
X29208500Y37595002D01*
X29208500Y34288500D01*
X29188815Y34221461D01*
X29136011Y34175706D01*
X29084500Y34164500D01*
X26023619Y34164500D01*
X25991769Y34162508D01*
X25961128Y34158659D01*
X25956601Y34158050D01*
X25956595Y34158049D01*
X25956594Y34158048D01*
X25913823Y34142960D01*
X25862580Y34124882D01*
X25802499Y34089236D01*
X25802492Y34089231D01*
X25765548Y34062591D01*
X25759167Y34056433D01*
X25756676Y34059014D01*
X25713761Y34028149D01*
X25643987Y34024496D01*
X25625203Y34030575D01*
X25562774Y34056433D01*
X25543709Y34064330D01*
X25471854Y34073790D01*
X25400001Y34083250D01*
X25399999Y34083250D01*
X25256291Y34064330D01*
X25256287Y34064329D01*
X25122377Y34008863D01*
X25058477Y33959830D01*
X25007379Y33920621D01*
X24993078Y33901983D01*
X24919137Y33805622D01*
X24879561Y33710075D01*
X24835720Y33655671D01*
X24769426Y33633606D01*
X24701727Y33650885D01*
X24654116Y33702022D01*
X24650439Y33710075D01*
X24610862Y33805622D01*
X24610861Y33805625D01*
X24522621Y33920621D01*
X24407625Y34008861D01*
X24407624Y34008862D01*
X24407622Y34008863D01*
X24273712Y34064329D01*
X24273710Y34064330D01*
X24273709Y34064330D01*
X24201854Y34073790D01*
X24130001Y34083250D01*
X24129999Y34083250D01*
X23986291Y34064330D01*
X23986287Y34064329D01*
X23852377Y34008863D01*
X23788477Y33959830D01*
X23737379Y33920621D01*
X23723078Y33901983D01*
X23649137Y33805622D01*
X23609561Y33710075D01*
X23565720Y33655671D01*
X23499426Y33633606D01*
X23431727Y33650885D01*
X23384116Y33702022D01*
X23380439Y33710075D01*
X23340862Y33805622D01*
X23340861Y33805625D01*
X23252621Y33920621D01*
X23137625Y34008861D01*
X23137624Y34008862D01*
X23137622Y34008863D01*
X23003712Y34064329D01*
X23003710Y34064330D01*
X23003709Y34064330D01*
X22931854Y34073790D01*
X22860001Y34083250D01*
X22859999Y34083250D01*
X22716291Y34064330D01*
X22716287Y34064329D01*
X22582377Y34008863D01*
X22518477Y33959830D01*
X22467379Y33920621D01*
X22453078Y33901983D01*
X22379137Y33805622D01*
X22339561Y33710075D01*
X22295720Y33655671D01*
X22229426Y33633606D01*
X22161727Y33650885D01*
X22114116Y33702022D01*
X22110439Y33710075D01*
X22070862Y33805622D01*
X22070861Y33805625D01*
X21982621Y33920621D01*
X21867625Y34008861D01*
X21867624Y34008862D01*
X21867622Y34008863D01*
X21733712Y34064329D01*
X21733710Y34064330D01*
X21733709Y34064330D01*
X21661854Y34073790D01*
X21590001Y34083250D01*
X21589999Y34083250D01*
X21446291Y34064330D01*
X21446287Y34064329D01*
X21312377Y34008863D01*
X21197379Y33920621D01*
X21109137Y33805623D01*
X21053671Y33671713D01*
X21053670Y33671709D01*
X21034750Y33528000D01*
X21051558Y33400330D01*
X21053670Y33384292D01*
X21053671Y33384288D01*
X21109137Y33250378D01*
X21109138Y33250376D01*
X21109139Y33250375D01*
X21197379Y33135379D01*
X21312375Y33047139D01*
X21312376Y33047139D01*
X21312377Y33047138D01*
X21357013Y33028650D01*
X21446291Y32991670D01*
X21566864Y32975796D01*
X21589999Y32972750D01*
X21590000Y32972750D01*
X21590001Y32972750D01*
X21613136Y32975796D01*
X21733709Y32991670D01*
X21867625Y33047139D01*
X21982621Y33135379D01*
X22070861Y33250375D01*
X22110439Y33345926D01*
X22154279Y33400330D01*
X22220573Y33422395D01*
X22288273Y33405116D01*
X22335884Y33353979D01*
X22339561Y33345926D01*
X22379137Y33250378D01*
X22379138Y33250376D01*
X22379139Y33250375D01*
X22467379Y33135379D01*
X22582375Y33047139D01*
X22582376Y33047139D01*
X22582377Y33047138D01*
X22627013Y33028650D01*
X22716291Y32991670D01*
X22836864Y32975796D01*
X22859999Y32972750D01*
X22860000Y32972750D01*
X22860001Y32972750D01*
X22883136Y32975796D01*
X23003709Y32991670D01*
X23137625Y33047139D01*
X23252621Y33135379D01*
X23340861Y33250375D01*
X23380439Y33345926D01*
X23424279Y33400330D01*
X23490573Y33422395D01*
X23558273Y33405116D01*
X23605884Y33353979D01*
X23609561Y33345926D01*
X23649137Y33250378D01*
X23649138Y33250376D01*
X23649139Y33250375D01*
X23737379Y33135379D01*
X23852375Y33047139D01*
X23852376Y33047139D01*
X23852377Y33047138D01*
X23897013Y33028650D01*
X23986291Y32991670D01*
X24106864Y32975796D01*
X24129999Y32972750D01*
X24130000Y32972750D01*
X24130001Y32972750D01*
X24153136Y32975796D01*
X24273709Y32991670D01*
X24407625Y33047139D01*
X24522621Y33135379D01*
X24610861Y33250375D01*
X24650439Y33345926D01*
X24694279Y33400330D01*
X24760573Y33422395D01*
X24828273Y33405116D01*
X24875884Y33353979D01*
X24879561Y33345926D01*
X24915664Y33258763D01*
X24919139Y33250375D01*
X24940081Y33223083D01*
X24948465Y33212157D01*
X24973658Y33146987D01*
X24959963Y33079196D01*
X24920536Y33003824D01*
X24920533Y33003819D01*
X24900851Y32936787D01*
X24900848Y32936775D01*
X24890500Y32864798D01*
X24890500Y28469483D01*
X24870815Y28402444D01*
X24818011Y28356689D01*
X24782686Y28346544D01*
X24647554Y28328753D01*
X24647550Y28328752D01*
X24513640Y28273286D01*
X24398642Y28185044D01*
X24310400Y28070046D01*
X24254934Y27936136D01*
X24254933Y27936132D01*
X24236013Y27792424D01*
X24236013Y27792423D01*
X24254933Y27648715D01*
X24254934Y27648711D01*
X24310400Y27514801D01*
X24310401Y27514799D01*
X24310402Y27514798D01*
X24398642Y27399802D01*
X24513638Y27311562D01*
X24647554Y27256093D01*
X24782687Y27238303D01*
X24846582Y27210037D01*
X24885053Y27151712D01*
X24890500Y27115364D01*
X24890500Y26573195D01*
X24870815Y26506156D01*
X24854181Y26485514D01*
X24466397Y26097731D01*
X24463247Y26094524D01*
X24460170Y26091335D01*
X24459771Y26090770D01*
X24459573Y26090614D01*
X24457174Y26087716D01*
X24456556Y26088228D01*
X24404975Y26047420D01*
X24335442Y26040576D01*
X24311104Y26047841D01*
X24296532Y26053877D01*
X24273709Y26063330D01*
X24190066Y26074342D01*
X24130001Y26082250D01*
X24129999Y26082250D01*
X23986291Y26063330D01*
X23986287Y26063329D01*
X23852377Y26007863D01*
X23737379Y25919621D01*
X23649137Y25804622D01*
X23609561Y25709075D01*
X23565720Y25654671D01*
X23499426Y25632606D01*
X23431727Y25649885D01*
X23384116Y25701022D01*
X23380439Y25709075D01*
X23340862Y25804622D01*
X23340861Y25804625D01*
X23252621Y25919621D01*
X23137625Y26007861D01*
X23137624Y26007862D01*
X23137622Y26007863D01*
X23003712Y26063329D01*
X23003710Y26063330D01*
X23003709Y26063330D01*
X22920066Y26074342D01*
X22860001Y26082250D01*
X22859999Y26082250D01*
X22716291Y26063330D01*
X22716287Y26063329D01*
X22582377Y26007863D01*
X22467379Y25919621D01*
X22379137Y25804622D01*
X22339561Y25709075D01*
X22295720Y25654671D01*
X22229426Y25632606D01*
X22161727Y25649885D01*
X22114116Y25701022D01*
X22110439Y25709075D01*
X22070862Y25804622D01*
X22070861Y25804625D01*
X21982621Y25919621D01*
X21867625Y26007861D01*
X21867624Y26007862D01*
X21867622Y26007863D01*
X21733712Y26063329D01*
X21733710Y26063330D01*
X21733709Y26063330D01*
X21650066Y26074342D01*
X21590001Y26082250D01*
X21589999Y26082250D01*
X21446291Y26063330D01*
X21446287Y26063329D01*
X21312377Y26007863D01*
X21197379Y25919621D01*
X21109137Y25804623D01*
X21053671Y25670713D01*
X21053670Y25670709D01*
X21034750Y25527000D01*
X21051558Y25399330D01*
X21053670Y25383292D01*
X21053671Y25383288D01*
X21109137Y25249378D01*
X21109138Y25249376D01*
X21109139Y25249375D01*
X21197379Y25134379D01*
X21312375Y25046139D01*
X21446291Y24990670D01*
X21573280Y24973952D01*
X21589999Y24971750D01*
X21590000Y24971750D01*
X21590001Y24971750D01*
X21604977Y24973722D01*
X21733709Y24990670D01*
X21867625Y25046139D01*
X21982621Y25134379D01*
X22070861Y25249375D01*
X22110439Y25344926D01*
X22154279Y25399330D01*
X22220573Y25421395D01*
X22288273Y25404116D01*
X22335884Y25352979D01*
X22339561Y25344926D01*
X22379137Y25249378D01*
X22379138Y25249376D01*
X22379139Y25249375D01*
X22467379Y25134379D01*
X22582375Y25046139D01*
X22716291Y24990670D01*
X22843280Y24973952D01*
X22859999Y24971750D01*
X22860000Y24971750D01*
X22860001Y24971750D01*
X22874977Y24973722D01*
X23003709Y24990670D01*
X23034867Y25003577D01*
X23104335Y25011046D01*
X23166815Y24979772D01*
X23202468Y24919684D01*
X23199975Y24849858D01*
X23170002Y24801335D01*
X23127029Y24758361D01*
X23044485Y24675818D01*
X22983165Y24642334D01*
X22956806Y24639500D01*
X10029997Y24639500D01*
X9975687Y24633662D01*
X9924188Y24622458D01*
X9924181Y24622457D01*
X9924176Y24622455D01*
X9920297Y24621392D01*
X9850440Y24622643D01*
X9792348Y24661464D01*
X9764466Y24725529D01*
X9763500Y24740975D01*
X9763500Y28171129D01*
X9725052Y28364415D01*
X9725051Y28364416D01*
X9725051Y28364420D01*
X9659854Y28521821D01*
X9649635Y28546493D01*
X9649628Y28546506D01*
X9540139Y28710367D01*
X9540136Y28710371D01*
X9397686Y28852821D01*
X9397655Y28852850D01*
X9167505Y29083000D01*
X10922000Y29083000D01*
X13462000Y29210000D01*
X13462000Y30480000D01*
X21034750Y30480000D01*
X21051558Y30352330D01*
X21053670Y30336292D01*
X21053671Y30336288D01*
X21109137Y30202378D01*
X21109138Y30202376D01*
X21109139Y30202375D01*
X21197379Y30087379D01*
X21312375Y29999139D01*
X21446291Y29943670D01*
X21573280Y29926952D01*
X21589999Y29924750D01*
X21590000Y29924750D01*
X21590001Y29924750D01*
X21604977Y29926722D01*
X21733709Y29943670D01*
X21867625Y29999139D01*
X21982621Y30087379D01*
X22070861Y30202375D01*
X22110439Y30297926D01*
X22154279Y30352330D01*
X22220573Y30374395D01*
X22288273Y30357116D01*
X22335884Y30305979D01*
X22339561Y30297926D01*
X22379137Y30202378D01*
X22379138Y30202376D01*
X22379139Y30202375D01*
X22467379Y30087379D01*
X22582375Y29999139D01*
X22716291Y29943670D01*
X22843280Y29926952D01*
X22859999Y29924750D01*
X22860000Y29924750D01*
X22860001Y29924750D01*
X22874977Y29926722D01*
X23003709Y29943670D01*
X23137625Y29999139D01*
X23252621Y30087379D01*
X23340861Y30202375D01*
X23396330Y30336291D01*
X23415250Y30480000D01*
X23396330Y30623709D01*
X23354416Y30724900D01*
X23340862Y30757623D01*
X23340861Y30757624D01*
X23340861Y30757625D01*
X23252621Y30872621D01*
X23137625Y30960861D01*
X23137624Y30960862D01*
X23137622Y30960863D01*
X23003712Y31016329D01*
X23003710Y31016330D01*
X23003709Y31016330D01*
X22931854Y31025790D01*
X22860001Y31035250D01*
X22859999Y31035250D01*
X22716291Y31016330D01*
X22716287Y31016329D01*
X22582377Y30960863D01*
X22557285Y30941609D01*
X22467379Y30872621D01*
X22453332Y30854314D01*
X22379137Y30757622D01*
X22339561Y30662075D01*
X22295720Y30607671D01*
X22229426Y30585606D01*
X22161727Y30602885D01*
X22114116Y30654022D01*
X22110439Y30662075D01*
X22070862Y30757622D01*
X22070861Y30757625D01*
X21982621Y30872621D01*
X21867625Y30960861D01*
X21867624Y30960862D01*
X21867622Y30960863D01*
X21733712Y31016329D01*
X21733710Y31016330D01*
X21733709Y31016330D01*
X21661854Y31025790D01*
X21590001Y31035250D01*
X21589999Y31035250D01*
X21446291Y31016330D01*
X21446287Y31016329D01*
X21312377Y30960863D01*
X21197379Y30872621D01*
X21109137Y30757623D01*
X21053671Y30623713D01*
X21053670Y30623709D01*
X21034750Y30480000D01*
X13462000Y30480000D01*
X13462000Y30988000D01*
X10922000Y30988000D01*
X10922000Y29083000D01*
X9167505Y29083000D01*
X7404136Y30846369D01*
X7380817Y30878779D01*
X7289674Y31061820D01*
X7166762Y31224582D01*
X7016041Y31361981D01*
X7016039Y31361983D01*
X6842642Y31469345D01*
X6842635Y31469349D01*
X6747546Y31506186D01*
X6652456Y31543024D01*
X6451976Y31580500D01*
X6248024Y31580500D01*
X6047544Y31543024D01*
X6047541Y31543024D01*
X6047541Y31543023D01*
X5857364Y31469349D01*
X5857357Y31469345D01*
X5683960Y31361983D01*
X5683958Y31361981D01*
X5533237Y31224582D01*
X5410327Y31061822D01*
X5319422Y30879261D01*
X5319417Y30879248D01*
X5263602Y30683083D01*
X5244785Y30480001D01*
X5244785Y30480000D01*
X5263602Y30276918D01*
X5319417Y30080753D01*
X5319422Y30080740D01*
X5410327Y29898179D01*
X5533237Y29735419D01*
X5683958Y29598020D01*
X5683960Y29598018D01*
X5783141Y29536608D01*
X5857363Y29490652D01*
X5949736Y29454867D01*
X5951564Y29454159D01*
X5994452Y29426213D01*
X6193010Y29227655D01*
X6226495Y29166332D01*
X6221511Y29096640D01*
X6179639Y29040707D01*
X6128115Y29018086D01*
X6047544Y29003024D01*
X6047542Y29003024D01*
X6047540Y29003023D01*
X5857364Y28929349D01*
X5857357Y28929345D01*
X5683960Y28821983D01*
X5683958Y28821981D01*
X5533237Y28684582D01*
X5410327Y28521822D01*
X5319422Y28339261D01*
X5319417Y28339248D01*
X5263602Y28143083D01*
X5244785Y27940001D01*
X5244785Y27940000D01*
X5263602Y27736918D01*
X5319417Y27540753D01*
X5319422Y27540740D01*
X5410327Y27358179D01*
X5533237Y27195419D01*
X5683958Y27058020D01*
X5683960Y27058018D01*
X5765621Y27007456D01*
X5857363Y26950652D01*
X6047544Y26876976D01*
X6248024Y26839500D01*
X6248026Y26839500D01*
X6451974Y26839500D01*
X6451976Y26839500D01*
X6652456Y26876976D01*
X6768037Y26921753D01*
X6837658Y26927615D01*
X6899399Y26894906D01*
X6900511Y26893807D01*
X7208181Y26586137D01*
X7241666Y26524814D01*
X7244500Y26498456D01*
X7244500Y26354547D01*
X7224815Y26287508D01*
X7172011Y26241753D01*
X7102853Y26231809D01*
X7039297Y26260834D01*
X7036963Y26262909D01*
X7016041Y26281981D01*
X7016039Y26281983D01*
X6842642Y26389345D01*
X6842635Y26389349D01*
X6747546Y26426186D01*
X6652456Y26463024D01*
X6451976Y26500500D01*
X6248024Y26500500D01*
X6047544Y26463024D01*
X6047541Y26463024D01*
X6047541Y26463023D01*
X5857364Y26389349D01*
X5857357Y26389345D01*
X5683960Y26281983D01*
X5683958Y26281981D01*
X5533237Y26144582D01*
X5410327Y25981822D01*
X5319422Y25799261D01*
X5319417Y25799248D01*
X5263602Y25603083D01*
X5244785Y25400001D01*
X5244785Y25400000D01*
X5263602Y25196918D01*
X5319417Y25000753D01*
X5319422Y25000740D01*
X5410327Y24818179D01*
X5533237Y24655419D01*
X5683958Y24518020D01*
X5683960Y24518018D01*
X5783141Y24456608D01*
X5857363Y24410652D01*
X6047544Y24336976D01*
X6248024Y24299500D01*
X6248026Y24299500D01*
X6451974Y24299500D01*
X6451976Y24299500D01*
X6652456Y24336976D01*
X6842637Y24410652D01*
X7016041Y24518019D01*
X7036961Y24537090D01*
X7099765Y24567708D01*
X7169152Y24559511D01*
X7223093Y24515101D01*
X7244461Y24448579D01*
X7244500Y24445454D01*
X7244500Y23880777D01*
X7224815Y23813738D01*
X7172011Y23767983D01*
X7102853Y23758039D01*
X7051397Y23779479D01*
X7050874Y23778634D01*
X6864798Y23893847D01*
X6864789Y23893851D01*
X6666063Y23970837D01*
X6666058Y23970838D01*
X6456561Y24010000D01*
X6243439Y24010000D01*
X6033941Y23970838D01*
X6033940Y23970838D01*
X5835206Y23893849D01*
X5689320Y23803522D01*
X6164823Y23328020D01*
X6157007Y23325925D01*
X6042993Y23260099D01*
X5949901Y23167007D01*
X5884075Y23052993D01*
X5881980Y23045178D01*
X5407259Y23519899D01*
X5368062Y23467992D01*
X5368055Y23467981D01*
X5273066Y23277217D01*
X5273058Y23277197D01*
X5214738Y23072220D01*
X5214737Y23072217D01*
X5203471Y22950629D01*
X5177685Y22885691D01*
X5141533Y22859796D01*
X5169503Y22843752D01*
X5201693Y22781739D01*
X5203471Y22769372D01*
X5214737Y22647784D01*
X5214738Y22647781D01*
X5273058Y22442804D01*
X5273066Y22442784D01*
X5368059Y22252011D01*
X5407259Y22200103D01*
X5881980Y22674824D01*
X5884075Y22667007D01*
X5949901Y22552993D01*
X6042993Y22459901D01*
X6157007Y22394075D01*
X6164821Y22391982D01*
X5689320Y21916480D01*
X5689321Y21916479D01*
X5835201Y21826154D01*
X5835210Y21826150D01*
X6033936Y21749164D01*
X6033941Y21749163D01*
X6243439Y21710000D01*
X6456561Y21710000D01*
X6666058Y21749163D01*
X6666063Y21749164D01*
X6864789Y21826150D01*
X6864798Y21826154D01*
X7050874Y21941366D01*
X7051508Y21940342D01*
X7111120Y21962869D01*
X7179457Y21948312D01*
X7229075Y21899120D01*
X7244500Y21839224D01*
X7244500Y20328991D01*
X7224815Y20261952D01*
X7172011Y20216197D01*
X7102853Y20206253D01*
X7049377Y20227416D01*
X6872834Y20351033D01*
X6872830Y20351035D01*
X6868505Y20353052D01*
X6658663Y20450903D01*
X6658659Y20450904D01*
X6658655Y20450906D01*
X6430413Y20512062D01*
X6430403Y20512064D01*
X6195001Y20532659D01*
X6194999Y20532659D01*
X5959596Y20512064D01*
X5959586Y20512062D01*
X5731344Y20450906D01*
X5731337Y20450904D01*
X5731337Y20450903D01*
X5728967Y20449798D01*
X5517171Y20351036D01*
X5517169Y20351035D01*
X5323597Y20215495D01*
X5156505Y20048403D01*
X5020965Y19854831D01*
X5020964Y19854829D01*
X4921098Y19640665D01*
X4921094Y19640656D01*
X4859938Y19412414D01*
X4859936Y19412404D01*
X4839341Y19177001D01*
X4839341Y19177000D01*
X4859936Y18941597D01*
X4859938Y18941587D01*
X4921094Y18713345D01*
X4921096Y18713341D01*
X4921097Y18713337D01*
X4943879Y18664482D01*
X5020965Y18499170D01*
X5020967Y18499166D01*
X5117137Y18361822D01*
X5156505Y18305599D01*
X5323599Y18138505D01*
X5420384Y18070735D01*
X5517165Y18002968D01*
X5517167Y18002967D01*
X5517170Y18002965D01*
X5731337Y17903097D01*
X5959592Y17841937D01*
X6147918Y17825461D01*
X6194999Y17821341D01*
X6195000Y17821341D01*
X6195001Y17821341D01*
X6234234Y17824774D01*
X6430408Y17841937D01*
X6658663Y17903097D01*
X6872830Y18002965D01*
X7066401Y18138505D01*
X7233495Y18305599D01*
X7369035Y18499170D01*
X7468903Y18713337D01*
X7529414Y18939174D01*
X7565777Y18998830D01*
X7628624Y19029360D01*
X7698000Y19021066D01*
X7736869Y18994758D01*
X12822097Y13909530D01*
X12902021Y13863386D01*
X12991165Y13839500D01*
X25099856Y13839500D01*
X25491456Y13839500D01*
X25558495Y13819815D01*
X25579137Y13803181D01*
X30899788Y8482530D01*
X30979712Y8436386D01*
X31068856Y8412500D01*
X31068858Y8412500D01*
X32939142Y8412500D01*
X32939144Y8412500D01*
X33028288Y8436386D01*
X33108212Y8482530D01*
X36279489Y11653809D01*
X36340810Y11687292D01*
X36410502Y11682308D01*
X36411962Y11681752D01*
X36527536Y11636979D01*
X36527544Y11636976D01*
X36728024Y11599500D01*
X36728026Y11599500D01*
X36931974Y11599500D01*
X36931976Y11599500D01*
X37132456Y11636976D01*
X37322637Y11710652D01*
X37496041Y11818019D01*
X37637649Y11947113D01*
X37700453Y11977729D01*
X37769840Y11969532D01*
X37823780Y11925122D01*
X37844011Y11863876D01*
X37844527Y11863939D01*
X37844849Y11861338D01*
X37845079Y11860644D01*
X37845151Y11858908D01*
X37845151Y11858904D01*
X37845152Y11858902D01*
X37862119Y11777412D01*
X37862120Y11777408D01*
X37881611Y11726991D01*
X37887313Y11712243D01*
X37922921Y11648836D01*
X37922923Y11648833D01*
X37922926Y11648829D01*
X37966744Y11591723D01*
X37982928Y11563691D01*
X38000158Y11522094D01*
X38008536Y11490826D01*
X38014413Y11446186D01*
X38014413Y11413817D01*
X38008537Y11369180D01*
X38000159Y11337912D01*
X37982927Y11296310D01*
X37966743Y11268277D01*
X37922895Y11211133D01*
X37916611Y11202580D01*
X37910658Y11194111D01*
X37874536Y11119170D01*
X37874534Y11119164D01*
X37854850Y11052129D01*
X37854849Y11052124D01*
X37845289Y10985634D01*
X37816263Y10922079D01*
X37757485Y10884305D01*
X37687615Y10884305D01*
X37639013Y10911645D01*
X37496041Y11041981D01*
X37496039Y11041983D01*
X37322642Y11149345D01*
X37322635Y11149349D01*
X37227546Y11186186D01*
X37132456Y11223024D01*
X36931976Y11260500D01*
X36728024Y11260500D01*
X36527544Y11223024D01*
X36527541Y11223024D01*
X36527541Y11223023D01*
X36337364Y11149349D01*
X36337357Y11149345D01*
X36163960Y11041983D01*
X36163958Y11041981D01*
X36013237Y10904582D01*
X35890327Y10741822D01*
X35799422Y10559261D01*
X35799417Y10559248D01*
X35743602Y10363083D01*
X35724785Y10160001D01*
X35724785Y10160000D01*
X35743602Y9956918D01*
X35799417Y9760753D01*
X35799422Y9760740D01*
X35890327Y9578179D01*
X36013237Y9415419D01*
X36163958Y9278020D01*
X36163960Y9278018D01*
X36202281Y9254291D01*
X36337363Y9170652D01*
X36527544Y9096976D01*
X36728024Y9059500D01*
X36728026Y9059500D01*
X36931974Y9059500D01*
X36931976Y9059500D01*
X37132456Y9096976D01*
X37322637Y9170652D01*
X37496041Y9278019D01*
X37627655Y9398001D01*
X37636962Y9406485D01*
X37699766Y9437102D01*
X37769153Y9428904D01*
X37823093Y9384495D01*
X37844461Y9317972D01*
X37844500Y9314848D01*
X37844500Y8532133D01*
X37824815Y8465094D01*
X37772011Y8419339D01*
X37702853Y8409395D01*
X37639297Y8438420D01*
X37636962Y8440496D01*
X37525999Y8541652D01*
X37525997Y8541654D01*
X37344798Y8653847D01*
X37344789Y8653851D01*
X37146059Y8730838D01*
X37030000Y8752534D01*
X37030000Y8081880D01*
X37022993Y8085925D01*
X36895826Y8120000D01*
X36764174Y8120000D01*
X36637007Y8085925D01*
X36630000Y8081880D01*
X36630000Y8752534D01*
X36513940Y8730838D01*
X36513939Y8730838D01*
X36315210Y8653851D01*
X36315201Y8653847D01*
X36134002Y8541654D01*
X36134000Y8541652D01*
X35976500Y8398072D01*
X35848059Y8227990D01*
X35753066Y8037217D01*
X35753058Y8037197D01*
X35694738Y7832219D01*
X35693606Y7820001D01*
X35693606Y7820000D01*
X36368120Y7820000D01*
X36364075Y7812993D01*
X36330000Y7685826D01*
X36330000Y7554174D01*
X36364075Y7427007D01*
X36368120Y7420000D01*
X35693606Y7420000D01*
X35694738Y7407782D01*
X35753058Y7202804D01*
X35753066Y7202784D01*
X35848059Y7012011D01*
X35976500Y6841929D01*
X36134000Y6698349D01*
X36134002Y6698347D01*
X36315201Y6586154D01*
X36315207Y6586151D01*
X36513936Y6509164D01*
X36630000Y6487468D01*
X36630000Y7158121D01*
X36637007Y7154075D01*
X36764174Y7120000D01*
X36895826Y7120000D01*
X37022993Y7154075D01*
X37030000Y7158121D01*
X37030000Y6487468D01*
X37146063Y6509164D01*
X37344792Y6586151D01*
X37344798Y6586154D01*
X37525995Y6698346D01*
X37636961Y6799505D01*
X37699765Y6830122D01*
X37769152Y6821925D01*
X37823093Y6777515D01*
X37844461Y6710993D01*
X37844500Y6707868D01*
X37844500Y6348500D01*
X37824815Y6281461D01*
X37772011Y6235706D01*
X37720500Y6224500D01*
X35104139Y6224500D01*
X35060269Y6220706D01*
X35060267Y6220706D01*
X35060261Y6220705D01*
X35018322Y6213396D01*
X35001960Y6209988D01*
X35001957Y6209987D01*
X34911525Y6168037D01*
X34911523Y6168036D01*
X34898559Y6158571D01*
X34855098Y6126838D01*
X34855098Y6126837D01*
X34803065Y6076030D01*
X34764332Y6025554D01*
X34741446Y6002669D01*
X34705726Y5975259D01*
X34677688Y5959071D01*
X34636088Y5941841D01*
X34604824Y5933464D01*
X34560186Y5927587D01*
X34527815Y5927587D01*
X34483173Y5933464D01*
X34451907Y5941841D01*
X34410309Y5959072D01*
X34382275Y5975257D01*
X34346554Y6002667D01*
X34323667Y6025554D01*
X34295442Y6062337D01*
X34284943Y6076020D01*
X34272389Y6089747D01*
X34255220Y6108521D01*
X34255215Y6108526D01*
X34255209Y6108532D01*
X34223891Y6137343D01*
X34211223Y6148255D01*
X34211215Y6148260D01*
X34122884Y6194466D01*
X34122883Y6194467D01*
X34055851Y6214149D01*
X34055839Y6214152D01*
X33983862Y6224500D01*
X33983861Y6224500D01*
X22264158Y6224500D01*
X22197119Y6244185D01*
X22173042Y6264393D01*
X19983078Y8636854D01*
X19876296Y8752534D01*
X19274566Y9404408D01*
X19251080Y9426811D01*
X19227003Y9447019D01*
X19223067Y9450257D01*
X19218037Y9452888D01*
X19134731Y9496466D01*
X19134730Y9496467D01*
X19067698Y9516149D01*
X19067686Y9516152D01*
X18995709Y9526500D01*
X18995708Y9526500D01*
X10792000Y9526500D01*
X10791997Y9526500D01*
X10737687Y9520662D01*
X10686181Y9509457D01*
X10686172Y9509454D01*
X10659807Y9502221D01*
X10659796Y9502217D01*
X10573181Y9452895D01*
X10573173Y9452889D01*
X10520371Y9407137D01*
X10488743Y9374360D01*
X10442534Y9286023D01*
X10442533Y9286023D01*
X10422851Y9218991D01*
X10422848Y9218979D01*
X10412500Y9147002D01*
X10412500Y1901998D01*
X10418338Y1847688D01*
X10429543Y1796182D01*
X10429546Y1796173D01*
X10436779Y1769808D01*
X10436783Y1769797D01*
X10486105Y1683182D01*
X10486110Y1683175D01*
X10486112Y1683172D01*
X10496687Y1670968D01*
X10531863Y1630372D01*
X10531866Y1630369D01*
X10531867Y1630368D01*
X10564641Y1598743D01*
X10652976Y1552535D01*
X10652977Y1552535D01*
X10652977Y1552534D01*
X10703105Y1537816D01*
X10720015Y1532850D01*
X10720019Y1532850D01*
X10720021Y1532849D01*
X10731652Y1531177D01*
X10792000Y1522500D01*
X10792001Y1522500D01*
X36523855Y1522500D01*
X36523861Y1522500D01*
X36567731Y1526294D01*
X36609678Y1533605D01*
X36626042Y1537013D01*
X36716477Y1578964D01*
X36772905Y1620166D01*
X36824938Y1670974D01*
X36863665Y1721446D01*
X36886555Y1744336D01*
X36919737Y1769797D01*
X36922279Y1771749D01*
X36950306Y1787930D01*
X36991912Y1805163D01*
X37023168Y1813538D01*
X37067813Y1819415D01*
X37100183Y1819415D01*
X37122503Y1816476D01*
X37122504Y1816476D01*
X37144833Y1813537D01*
X37176092Y1805161D01*
X37197790Y1796173D01*
X37217688Y1787931D01*
X37245719Y1771748D01*
X37281443Y1744336D01*
X37304328Y1721452D01*
X37343063Y1670973D01*
X37372780Y1638479D01*
X37372784Y1638476D01*
X37372790Y1638469D01*
X37404108Y1609658D01*
X37416776Y1598746D01*
X37416777Y1598745D01*
X37416780Y1598743D01*
X37481351Y1564966D01*
X37505115Y1552535D01*
X37505116Y1552534D01*
X37555244Y1537816D01*
X37572154Y1532850D01*
X37572158Y1532850D01*
X37572160Y1532849D01*
X37583791Y1531177D01*
X37644139Y1522500D01*
X37644140Y1522500D01*
X38004710Y1522500D01*
X38004716Y1522500D01*
X38063473Y1529348D01*
X38118978Y1542464D01*
X38149511Y1551726D01*
X38163852Y1560586D01*
X38231228Y1579071D01*
X38286494Y1564966D01*
X38310256Y1552537D01*
X38310261Y1552534D01*
X38360389Y1537816D01*
X38377299Y1532850D01*
X38377303Y1532850D01*
X38377305Y1532849D01*
X38388936Y1531177D01*
X38449284Y1522500D01*
X38449285Y1522500D01*
X40490500Y1522500D01*
X40557539Y1502815D01*
X40603294Y1450011D01*
X40614500Y1398500D01*
X40614500Y149500D01*
X40594815Y82461D01*
X40542011Y36706D01*
X40490500Y25500D01*
X149500Y25500D01*
X82461Y45185D01*
X36706Y97989D01*
X25500Y149500D01*
X25500Y19177006D01*
X1290202Y19177006D01*
X1290202Y19176995D01*
X1309361Y18945782D01*
X1366317Y18720865D01*
X1459516Y18508391D01*
X1571753Y18336598D01*
X2188844Y18953688D01*
X2254890Y18839292D01*
X2357292Y18736890D01*
X2471686Y18670846D01*
X1856438Y18055598D01*
X1926649Y18000950D01*
X2130697Y17890524D01*
X2130706Y17890521D01*
X2350139Y17815189D01*
X2578993Y17777000D01*
X2811007Y17777000D01*
X3039860Y17815189D01*
X3259293Y17890521D01*
X3259302Y17890524D01*
X3463353Y18000952D01*
X3533560Y18055597D01*
X3533561Y18055598D01*
X2918313Y18670846D01*
X3032708Y18736890D01*
X3135110Y18839292D01*
X3201154Y18953687D01*
X3818244Y18336597D01*
X3930484Y18508394D01*
X4023682Y18720865D01*
X4080638Y18945782D01*
X4099798Y19176995D01*
X4099798Y19177006D01*
X4080638Y19408219D01*
X4023682Y19633136D01*
X3930483Y19845610D01*
X3818244Y20017405D01*
X3201154Y19400315D01*
X3135110Y19514708D01*
X3032708Y19617110D01*
X2918311Y19683156D01*
X3533560Y20298404D01*
X3533560Y20298405D01*
X3463349Y20353052D01*
X3259302Y20463477D01*
X3259293Y20463480D01*
X3039860Y20538812D01*
X2811007Y20577000D01*
X2578993Y20577000D01*
X2350139Y20538812D01*
X2130706Y20463480D01*
X2130697Y20463477D01*
X1926646Y20353049D01*
X1856438Y20298405D01*
X1856438Y20298404D01*
X2471686Y19683156D01*
X2357292Y19617110D01*
X2254890Y19514708D01*
X2188844Y19400314D01*
X1571754Y20017404D01*
X1459516Y19845609D01*
X1459514Y19845605D01*
X1366317Y19633136D01*
X1309361Y19408219D01*
X1290202Y19177006D01*
X25500Y19177006D01*
X25500Y22860001D01*
X2655073Y22860001D01*
X2655073Y22860000D01*
X2674737Y22647784D01*
X2674738Y22647781D01*
X2733058Y22442804D01*
X2733066Y22442784D01*
X2828059Y22252011D01*
X2867259Y22200103D01*
X3341980Y22674824D01*
X3344075Y22667007D01*
X3409901Y22552993D01*
X3502993Y22459901D01*
X3617007Y22394075D01*
X3624822Y22391981D01*
X3149320Y21916480D01*
X3149321Y21916479D01*
X3295201Y21826154D01*
X3295210Y21826150D01*
X3493936Y21749164D01*
X3493941Y21749163D01*
X3703439Y21710000D01*
X3916561Y21710000D01*
X4126058Y21749163D01*
X4126063Y21749164D01*
X4324789Y21826150D01*
X4324793Y21826152D01*
X4470678Y21916480D01*
X3995177Y22391981D01*
X4002993Y22394075D01*
X4117007Y22459901D01*
X4210099Y22552993D01*
X4275925Y22667007D01*
X4278019Y22674824D01*
X4752740Y22200103D01*
X4791937Y22252007D01*
X4791944Y22252019D01*
X4886933Y22442784D01*
X4886941Y22442804D01*
X4945261Y22647781D01*
X4945262Y22647784D01*
X4956529Y22769372D01*
X4982315Y22834310D01*
X5018466Y22860206D01*
X4990497Y22876249D01*
X4958307Y22938262D01*
X4956529Y22950629D01*
X4945262Y23072217D01*
X4945261Y23072220D01*
X4886941Y23277197D01*
X4886933Y23277217D01*
X4791940Y23467990D01*
X4752740Y23519898D01*
X4278019Y23045178D01*
X4275925Y23052993D01*
X4210099Y23167007D01*
X4117007Y23260099D01*
X4002993Y23325925D01*
X3995176Y23328020D01*
X4470678Y23803522D01*
X4470677Y23803523D01*
X4324798Y23893846D01*
X4324789Y23893851D01*
X4126063Y23970837D01*
X4126058Y23970838D01*
X3916561Y24010000D01*
X3703439Y24010000D01*
X3493941Y23970838D01*
X3493940Y23970838D01*
X3295206Y23893849D01*
X3149320Y23803522D01*
X3624823Y23328020D01*
X3617007Y23325925D01*
X3502993Y23260099D01*
X3409901Y23167007D01*
X3344075Y23052993D01*
X3341980Y23045178D01*
X2867259Y23519899D01*
X2828062Y23467992D01*
X2828055Y23467981D01*
X2733066Y23277217D01*
X2733058Y23277197D01*
X2674738Y23072220D01*
X2674737Y23072217D01*
X2655073Y22860001D01*
X25500Y22860001D01*
X25500Y25400001D01*
X2704785Y25400001D01*
X2704785Y25400000D01*
X2723602Y25196918D01*
X2779417Y25000753D01*
X2779422Y25000740D01*
X2870327Y24818179D01*
X2993237Y24655419D01*
X3143958Y24518020D01*
X3143960Y24518018D01*
X3243141Y24456608D01*
X3317363Y24410652D01*
X3507544Y24336976D01*
X3708024Y24299500D01*
X3708026Y24299500D01*
X3911974Y24299500D01*
X3911976Y24299500D01*
X4112456Y24336976D01*
X4302637Y24410652D01*
X4476041Y24518019D01*
X4604122Y24634781D01*
X4626762Y24655419D01*
X4631327Y24661464D01*
X4749673Y24818179D01*
X4840582Y25000750D01*
X4896397Y25196917D01*
X4915215Y25400000D01*
X4896397Y25603083D01*
X4840582Y25799250D01*
X4837907Y25804622D01*
X4768006Y25945003D01*
X4749673Y25981821D01*
X4679807Y26074339D01*
X4626762Y26144582D01*
X4476041Y26281981D01*
X4476039Y26281983D01*
X4302642Y26389345D01*
X4302635Y26389349D01*
X4207546Y26426186D01*
X4112456Y26463024D01*
X3911976Y26500500D01*
X3708024Y26500500D01*
X3507544Y26463024D01*
X3507541Y26463024D01*
X3507541Y26463023D01*
X3317364Y26389349D01*
X3317357Y26389345D01*
X3143960Y26281983D01*
X3143958Y26281981D01*
X2993237Y26144582D01*
X2870327Y25981822D01*
X2779422Y25799261D01*
X2779417Y25799248D01*
X2723602Y25603083D01*
X2704785Y25400001D01*
X25500Y25400001D01*
X25500Y27940001D01*
X2704785Y27940001D01*
X2704785Y27940000D01*
X2723602Y27736918D01*
X2779417Y27540753D01*
X2779422Y27540740D01*
X2870327Y27358179D01*
X2993237Y27195419D01*
X3143958Y27058020D01*
X3143960Y27058018D01*
X3225621Y27007456D01*
X3317363Y26950652D01*
X3507544Y26876976D01*
X3708024Y26839500D01*
X3708026Y26839500D01*
X3911974Y26839500D01*
X3911976Y26839500D01*
X4112456Y26876976D01*
X4302637Y26950652D01*
X4476041Y27058019D01*
X4612300Y27182235D01*
X4626762Y27195419D01*
X4630075Y27199806D01*
X4749673Y27358179D01*
X4840582Y27540750D01*
X4896397Y27736917D01*
X4915215Y27940000D01*
X4896397Y28143083D01*
X4840582Y28339250D01*
X4831898Y28356689D01*
X4775734Y28469483D01*
X4749673Y28521821D01*
X4690704Y28599909D01*
X4626762Y28684582D01*
X4476041Y28821981D01*
X4476039Y28821983D01*
X4302642Y28929345D01*
X4302635Y28929349D01*
X4207546Y28966186D01*
X4112456Y29003024D01*
X3911976Y29040500D01*
X3708024Y29040500D01*
X3507544Y29003024D01*
X3507541Y29003024D01*
X3507541Y29003023D01*
X3317364Y28929349D01*
X3317357Y28929345D01*
X3143960Y28821983D01*
X3143958Y28821981D01*
X2993237Y28684582D01*
X2870327Y28521822D01*
X2779422Y28339261D01*
X2779417Y28339248D01*
X2723602Y28143083D01*
X2704785Y27940001D01*
X25500Y27940001D01*
X25500Y30480001D01*
X2704785Y30480001D01*
X2704785Y30480000D01*
X2723602Y30276918D01*
X2779417Y30080753D01*
X2779422Y30080740D01*
X2870327Y29898179D01*
X2993237Y29735419D01*
X3143958Y29598020D01*
X3143960Y29598018D01*
X3243141Y29536608D01*
X3317363Y29490652D01*
X3507544Y29416976D01*
X3708024Y29379500D01*
X3708026Y29379500D01*
X3911974Y29379500D01*
X3911976Y29379500D01*
X4112456Y29416976D01*
X4302637Y29490652D01*
X4476041Y29598019D01*
X4626764Y29735421D01*
X4749673Y29898179D01*
X4840582Y30080750D01*
X4896397Y30276917D01*
X4915215Y30480000D01*
X4896397Y30683083D01*
X4840582Y30879250D01*
X4832284Y30895914D01*
X4786431Y30988000D01*
X4749673Y31061821D01*
X4639033Y31208332D01*
X4626762Y31224582D01*
X4476041Y31361981D01*
X4476039Y31361983D01*
X4302642Y31469345D01*
X4302635Y31469349D01*
X4207546Y31506186D01*
X4112456Y31543024D01*
X3911976Y31580500D01*
X3708024Y31580500D01*
X3507544Y31543024D01*
X3507541Y31543024D01*
X3507541Y31543023D01*
X3317364Y31469349D01*
X3317357Y31469345D01*
X3143960Y31361983D01*
X3143958Y31361981D01*
X2993237Y31224582D01*
X2870327Y31061822D01*
X2779422Y30879261D01*
X2779417Y30879248D01*
X2723602Y30683083D01*
X2704785Y30480001D01*
X25500Y30480001D01*
X25500Y33020001D01*
X2704785Y33020001D01*
X2704785Y33020000D01*
X2723602Y32816918D01*
X2779417Y32620753D01*
X2779422Y32620740D01*
X2870327Y32438179D01*
X2993237Y32275419D01*
X3143958Y32138020D01*
X3143960Y32138018D01*
X3209548Y32097408D01*
X3317363Y32030652D01*
X3507544Y31956976D01*
X3708024Y31919500D01*
X3708026Y31919500D01*
X3911974Y31919500D01*
X3911976Y31919500D01*
X4112456Y31956976D01*
X4302637Y32030652D01*
X4476041Y32138019D01*
X4604122Y32254781D01*
X4626762Y32275419D01*
X4637420Y32289532D01*
X4749673Y32438179D01*
X4840582Y32620750D01*
X4896397Y32816917D01*
X4915215Y33020000D01*
X4915215Y33020001D01*
X5244785Y33020001D01*
X5244785Y33020000D01*
X5263602Y32816918D01*
X5319417Y32620753D01*
X5319422Y32620740D01*
X5410327Y32438179D01*
X5533237Y32275419D01*
X5683958Y32138020D01*
X5683960Y32138018D01*
X5749548Y32097408D01*
X5857363Y32030652D01*
X6047544Y31956976D01*
X6248024Y31919500D01*
X6248026Y31919500D01*
X6451974Y31919500D01*
X6451976Y31919500D01*
X6652456Y31956976D01*
X6842637Y32030652D01*
X7016041Y32138019D01*
X7144122Y32254781D01*
X7166762Y32275419D01*
X7177420Y32289532D01*
X7289673Y32438179D01*
X7380582Y32620750D01*
X7436397Y32816917D01*
X7443447Y32893001D01*
X11140826Y32893001D01*
X11140826Y32893000D01*
X11159746Y32749292D01*
X11159747Y32749288D01*
X11215213Y32615378D01*
X11215214Y32615376D01*
X11215215Y32615375D01*
X11303455Y32500379D01*
X11418451Y32412139D01*
X11552367Y32356670D01*
X11679356Y32339952D01*
X11696075Y32337750D01*
X11696076Y32337750D01*
X11696077Y32337750D01*
X11711053Y32339722D01*
X11839785Y32356670D01*
X11973701Y32412139D01*
X12009317Y32439468D01*
X13966615Y32439468D01*
X13966615Y32439467D01*
X13985535Y32295759D01*
X13985536Y32295755D01*
X14041002Y32161845D01*
X14041003Y32161843D01*
X14041004Y32161842D01*
X14129244Y32046846D01*
X14244240Y31958606D01*
X14378156Y31903137D01*
X14505145Y31886419D01*
X14521864Y31884217D01*
X14521865Y31884217D01*
X14521866Y31884217D01*
X14536842Y31886189D01*
X14665574Y31903137D01*
X14799490Y31958606D01*
X14914486Y32046846D01*
X15002726Y32161842D01*
X15058195Y32295758D01*
X15077115Y32439467D01*
X15058195Y32583176D01*
X15002726Y32717092D01*
X14914486Y32832088D01*
X14799490Y32920328D01*
X14799489Y32920329D01*
X14799487Y32920330D01*
X14665577Y32975796D01*
X14665575Y32975797D01*
X14665574Y32975797D01*
X14593719Y32985257D01*
X14521866Y32994717D01*
X14521864Y32994717D01*
X14378156Y32975797D01*
X14378152Y32975796D01*
X14244242Y32920330D01*
X14129244Y32832088D01*
X14041002Y32717090D01*
X13985536Y32583180D01*
X13985535Y32583176D01*
X13966615Y32439468D01*
X12009317Y32439468D01*
X12088697Y32500379D01*
X12176937Y32615375D01*
X12232406Y32749291D01*
X12251326Y32893000D01*
X12234334Y33022063D01*
X12245099Y33091096D01*
X12291479Y33143352D01*
X12358748Y33162238D01*
X12425548Y33141758D01*
X12432760Y33136622D01*
X12434377Y33135381D01*
X12434379Y33135379D01*
X12498505Y33086173D01*
X12549373Y33047140D01*
X12549374Y33047140D01*
X12549375Y33047139D01*
X12683291Y32991670D01*
X12803864Y32975796D01*
X12826999Y32972750D01*
X12827000Y32972750D01*
X12827001Y32972750D01*
X12850136Y32975796D01*
X12970709Y32991670D01*
X13104625Y33047139D01*
X13219621Y33135379D01*
X13307861Y33250375D01*
X13363330Y33384291D01*
X13382250Y33528000D01*
X13363330Y33671709D01*
X13307861Y33805625D01*
X13292061Y33826216D01*
X13266867Y33891385D01*
X13280905Y33959830D01*
X13314951Y34000078D01*
X13346621Y34024379D01*
X13434861Y34139375D01*
X13490330Y34273291D01*
X13509250Y34417000D01*
X13490330Y34560709D01*
X13434861Y34694625D01*
X13346621Y34809621D01*
X13231625Y34897861D01*
X13231624Y34897862D01*
X13231622Y34897863D01*
X13097712Y34953329D01*
X13097710Y34953330D01*
X13097709Y34953330D01*
X13025854Y34962790D01*
X12954001Y34972250D01*
X12953999Y34972250D01*
X12810291Y34953330D01*
X12810287Y34953329D01*
X12676377Y34897863D01*
X12561379Y34809621D01*
X12473137Y34694623D01*
X12417671Y34560713D01*
X12417670Y34560709D01*
X12398750Y34417001D01*
X12398750Y34417000D01*
X12417670Y34273292D01*
X12417671Y34273288D01*
X12473138Y34139377D01*
X12473139Y34139375D01*
X12488938Y34118785D01*
X12514132Y34053616D01*
X12500093Y33985171D01*
X12466051Y33944925D01*
X12434380Y33920623D01*
X12346137Y33805623D01*
X12290671Y33671713D01*
X12290670Y33671709D01*
X12271750Y33528001D01*
X12271750Y33527998D01*
X12288741Y33398939D01*
X12277975Y33329904D01*
X12231595Y33277648D01*
X12164327Y33258763D01*
X12097526Y33279244D01*
X12090315Y33284379D01*
X12088697Y33285620D01*
X12088697Y33285621D01*
X12030987Y33329904D01*
X11973702Y33373861D01*
X11973699Y33373862D01*
X11839788Y33429329D01*
X11839786Y33429330D01*
X11839785Y33429330D01*
X11767930Y33438790D01*
X11696077Y33448250D01*
X11696075Y33448250D01*
X11552367Y33429330D01*
X11552363Y33429329D01*
X11418453Y33373863D01*
X11303455Y33285621D01*
X11215213Y33170623D01*
X11159747Y33036713D01*
X11159746Y33036709D01*
X11140826Y32893001D01*
X7443447Y32893001D01*
X7455215Y33020000D01*
X7436397Y33223083D01*
X7380582Y33419250D01*
X7375563Y33429329D01*
X7326431Y33528001D01*
X7289673Y33601821D01*
X7214005Y33702022D01*
X7166762Y33764582D01*
X7016041Y33901981D01*
X7016039Y33901983D01*
X6842642Y34009345D01*
X6842635Y34009349D01*
X6705200Y34062591D01*
X6652456Y34083024D01*
X6451976Y34120500D01*
X6248024Y34120500D01*
X6047544Y34083024D01*
X6047541Y34083024D01*
X6047541Y34083023D01*
X5857364Y34009349D01*
X5857357Y34009345D01*
X5683960Y33901983D01*
X5683958Y33901981D01*
X5533237Y33764582D01*
X5410327Y33601822D01*
X5319422Y33419261D01*
X5319417Y33419248D01*
X5263602Y33223083D01*
X5244785Y33020001D01*
X4915215Y33020001D01*
X4896397Y33223083D01*
X4840582Y33419250D01*
X4835563Y33429329D01*
X4786431Y33528001D01*
X4749673Y33601821D01*
X4674005Y33702022D01*
X4626762Y33764582D01*
X4476041Y33901981D01*
X4476039Y33901983D01*
X4302642Y34009345D01*
X4302635Y34009349D01*
X4165200Y34062591D01*
X4112456Y34083024D01*
X3911976Y34120500D01*
X3708024Y34120500D01*
X3507544Y34083024D01*
X3507541Y34083024D01*
X3507541Y34083023D01*
X3317364Y34009349D01*
X3317357Y34009345D01*
X3143960Y33901983D01*
X3143958Y33901981D01*
X2993237Y33764582D01*
X2870327Y33601822D01*
X2779422Y33419261D01*
X2779417Y33419248D01*
X2723602Y33223083D01*
X2704785Y33020001D01*
X25500Y33020001D01*
X25500Y35560001D01*
X2704785Y35560001D01*
X2704785Y35560000D01*
X2723602Y35356918D01*
X2779417Y35160753D01*
X2779422Y35160740D01*
X2870327Y34978179D01*
X2993237Y34815419D01*
X3143958Y34678020D01*
X3143960Y34678018D01*
X3243141Y34616608D01*
X3317363Y34570652D01*
X3507544Y34496976D01*
X3708024Y34459500D01*
X3708026Y34459500D01*
X3911974Y34459500D01*
X3911976Y34459500D01*
X4112456Y34496976D01*
X4302637Y34570652D01*
X4476041Y34678019D01*
X4626764Y34815421D01*
X4749673Y34978179D01*
X4840582Y35160750D01*
X4896397Y35356917D01*
X4915215Y35560000D01*
X4915215Y35560001D01*
X5244785Y35560001D01*
X5244785Y35560000D01*
X5263602Y35356918D01*
X5319417Y35160753D01*
X5319422Y35160740D01*
X5410327Y34978179D01*
X5533237Y34815419D01*
X5683958Y34678020D01*
X5683960Y34678018D01*
X5783141Y34616608D01*
X5857363Y34570652D01*
X6047544Y34496976D01*
X6248024Y34459500D01*
X6248026Y34459500D01*
X6451974Y34459500D01*
X6451976Y34459500D01*
X6652456Y34496976D01*
X6842637Y34570652D01*
X7016041Y34678019D01*
X7166764Y34815421D01*
X7289673Y34978179D01*
X7380582Y35160750D01*
X7436397Y35356917D01*
X7455215Y35560000D01*
X7443447Y35687001D01*
X24590750Y35687001D01*
X24590750Y35687000D01*
X24609670Y35543292D01*
X24609671Y35543288D01*
X24665137Y35409378D01*
X24665138Y35409376D01*
X24665139Y35409375D01*
X24753379Y35294379D01*
X24868375Y35206139D01*
X25002291Y35150670D01*
X25129280Y35133952D01*
X25145999Y35131750D01*
X25146000Y35131750D01*
X25146001Y35131750D01*
X25160977Y35133722D01*
X25289709Y35150670D01*
X25423625Y35206139D01*
X25538621Y35294379D01*
X25555626Y35316541D01*
X25612052Y35357741D01*
X25681798Y35361896D01*
X25742719Y35327684D01*
X25752366Y35316550D01*
X25769379Y35294379D01*
X25884375Y35206139D01*
X26018291Y35150670D01*
X26145280Y35133952D01*
X26161999Y35131750D01*
X26162000Y35131750D01*
X26162001Y35131750D01*
X26176977Y35133722D01*
X26305709Y35150670D01*
X26439625Y35206139D01*
X26554621Y35294379D01*
X26642861Y35409375D01*
X26698330Y35543291D01*
X26717250Y35687000D01*
X26698330Y35830709D01*
X26645088Y35959248D01*
X26642862Y35964623D01*
X26642861Y35964624D01*
X26642861Y35964625D01*
X26554621Y36079621D01*
X26439625Y36167861D01*
X26439624Y36167862D01*
X26439622Y36167863D01*
X26305712Y36223329D01*
X26305710Y36223330D01*
X26305709Y36223330D01*
X26233854Y36232790D01*
X26162001Y36242250D01*
X26161999Y36242250D01*
X26018291Y36223330D01*
X26018287Y36223329D01*
X25884377Y36167863D01*
X25850440Y36141822D01*
X25769379Y36079621D01*
X25769377Y36079620D01*
X25769376Y36079618D01*
X25752374Y36057461D01*
X25695946Y36016259D01*
X25626200Y36012106D01*
X25565280Y36046319D01*
X25555626Y36057461D01*
X25538623Y36079618D01*
X25538621Y36079621D01*
X25423625Y36167861D01*
X25423624Y36167862D01*
X25423622Y36167863D01*
X25289712Y36223329D01*
X25289710Y36223330D01*
X25289709Y36223330D01*
X25217854Y36232790D01*
X25146001Y36242250D01*
X25145999Y36242250D01*
X25002291Y36223330D01*
X25002287Y36223329D01*
X24868377Y36167863D01*
X24753379Y36079621D01*
X24665137Y35964623D01*
X24609671Y35830713D01*
X24609670Y35830709D01*
X24590750Y35687001D01*
X7443447Y35687001D01*
X7436397Y35763083D01*
X7380582Y35959250D01*
X7289673Y36141821D01*
X7213833Y36242250D01*
X7166762Y36304582D01*
X7016041Y36441981D01*
X7016039Y36441983D01*
X6842642Y36549345D01*
X6842635Y36549349D01*
X6747546Y36586186D01*
X6652456Y36623024D01*
X6451976Y36660500D01*
X6248024Y36660500D01*
X6047544Y36623024D01*
X6047541Y36623024D01*
X6047541Y36623023D01*
X5857364Y36549349D01*
X5857357Y36549345D01*
X5683960Y36441983D01*
X5683958Y36441981D01*
X5533237Y36304582D01*
X5410327Y36141822D01*
X5319422Y35959261D01*
X5319417Y35959248D01*
X5263602Y35763083D01*
X5244785Y35560001D01*
X4915215Y35560001D01*
X4896397Y35763083D01*
X4840582Y35959250D01*
X4749673Y36141821D01*
X4673833Y36242250D01*
X4626762Y36304582D01*
X4476041Y36441981D01*
X4476039Y36441983D01*
X4302642Y36549345D01*
X4302635Y36549349D01*
X4207546Y36586186D01*
X4112456Y36623024D01*
X3911976Y36660500D01*
X3708024Y36660500D01*
X3507544Y36623024D01*
X3507541Y36623024D01*
X3507541Y36623023D01*
X3317364Y36549349D01*
X3317357Y36549345D01*
X3143960Y36441983D01*
X3143958Y36441981D01*
X2993237Y36304582D01*
X2870327Y36141822D01*
X2779422Y35959261D01*
X2779417Y35959248D01*
X2723602Y35763083D01*
X2704785Y35560001D01*
X25500Y35560001D01*
X25500Y38100001D01*
X2704785Y38100001D01*
X2704785Y38100000D01*
X2723602Y37896918D01*
X2779417Y37700753D01*
X2779422Y37700740D01*
X2870327Y37518179D01*
X2993237Y37355419D01*
X3143958Y37218020D01*
X3143960Y37218018D01*
X3243141Y37156608D01*
X3317363Y37110652D01*
X3507544Y37036976D01*
X3708024Y36999500D01*
X3708026Y36999500D01*
X3911974Y36999500D01*
X3911976Y36999500D01*
X4112456Y37036976D01*
X4302637Y37110652D01*
X4476041Y37218019D01*
X4626764Y37355421D01*
X4749673Y37518179D01*
X4840582Y37700750D01*
X4896397Y37896917D01*
X4915215Y38100000D01*
X4915215Y38100001D01*
X5244785Y38100001D01*
X5244785Y38100000D01*
X5263602Y37896918D01*
X5319417Y37700753D01*
X5319422Y37700740D01*
X5410327Y37518179D01*
X5533237Y37355419D01*
X5683958Y37218020D01*
X5683960Y37218018D01*
X5783141Y37156608D01*
X5857363Y37110652D01*
X6047544Y37036976D01*
X6248024Y36999500D01*
X6248026Y36999500D01*
X6451974Y36999500D01*
X6451976Y36999500D01*
X6652456Y37036976D01*
X6842637Y37110652D01*
X7016041Y37218019D01*
X7166764Y37355421D01*
X7289673Y37518179D01*
X7380582Y37700750D01*
X7436397Y37896917D01*
X7455215Y38100000D01*
X7436397Y38303083D01*
X7380582Y38499250D01*
X7289673Y38681821D01*
X7166764Y38844579D01*
X7166762Y38844582D01*
X7016041Y38981981D01*
X7016039Y38981983D01*
X6842642Y39089345D01*
X6842635Y39089349D01*
X6730786Y39132679D01*
X6652456Y39163024D01*
X6451976Y39200500D01*
X6248024Y39200500D01*
X6047544Y39163024D01*
X6047541Y39163024D01*
X6047541Y39163023D01*
X5857364Y39089349D01*
X5857357Y39089345D01*
X5683960Y38981983D01*
X5683958Y38981981D01*
X5533237Y38844582D01*
X5410327Y38681822D01*
X5319422Y38499261D01*
X5319417Y38499248D01*
X5263602Y38303083D01*
X5244785Y38100001D01*
X4915215Y38100001D01*
X4896397Y38303083D01*
X4840582Y38499250D01*
X4749673Y38681821D01*
X4626764Y38844579D01*
X4626762Y38844582D01*
X4476041Y38981981D01*
X4476039Y38981983D01*
X4302642Y39089345D01*
X4302635Y39089349D01*
X4190786Y39132679D01*
X4112456Y39163024D01*
X3911976Y39200500D01*
X3708024Y39200500D01*
X3507544Y39163024D01*
X3507541Y39163024D01*
X3507541Y39163023D01*
X3317364Y39089349D01*
X3317357Y39089345D01*
X3143960Y38981983D01*
X3143958Y38981981D01*
X2993237Y38844582D01*
X2870327Y38681822D01*
X2779422Y38499261D01*
X2779417Y38499248D01*
X2723602Y38303083D01*
X2704785Y38100001D01*
X25500Y38100001D01*
X25500Y40640001D01*
X2704785Y40640001D01*
X2704785Y40640000D01*
X2723602Y40436918D01*
X2779417Y40240753D01*
X2779422Y40240740D01*
X2870327Y40058179D01*
X2993237Y39895419D01*
X3143958Y39758020D01*
X3143960Y39758018D01*
X3168138Y39743048D01*
X3317363Y39650652D01*
X3507544Y39576976D01*
X3708024Y39539500D01*
X3708026Y39539500D01*
X3911974Y39539500D01*
X3911976Y39539500D01*
X4112456Y39576976D01*
X4302637Y39650652D01*
X4476041Y39758019D01*
X4626764Y39895421D01*
X4749673Y40058179D01*
X4840582Y40240750D01*
X4896397Y40436917D01*
X4915215Y40640000D01*
X4915215Y40640001D01*
X5244785Y40640001D01*
X5244785Y40640000D01*
X5263602Y40436918D01*
X5319417Y40240753D01*
X5319422Y40240740D01*
X5410327Y40058179D01*
X5533237Y39895419D01*
X5683958Y39758020D01*
X5683960Y39758018D01*
X5708138Y39743048D01*
X5857363Y39650652D01*
X6047544Y39576976D01*
X6248024Y39539500D01*
X6248026Y39539500D01*
X6451974Y39539500D01*
X6451976Y39539500D01*
X6652456Y39576976D01*
X6842637Y39650652D01*
X7016041Y39758019D01*
X7166764Y39895421D01*
X7289673Y40058179D01*
X7380582Y40240750D01*
X7436397Y40436917D01*
X7455215Y40640000D01*
X7436397Y40843083D01*
X7380582Y41039250D01*
X7349095Y41102484D01*
X7336272Y41128236D01*
X7289673Y41221821D01*
X7166764Y41384579D01*
X7166762Y41384582D01*
X7016041Y41521981D01*
X7016039Y41521983D01*
X6842642Y41629345D01*
X6842635Y41629349D01*
X6747546Y41666186D01*
X6652456Y41703024D01*
X6451976Y41740500D01*
X6248024Y41740500D01*
X6047544Y41703024D01*
X6047541Y41703024D01*
X6047541Y41703023D01*
X5857364Y41629349D01*
X5857357Y41629345D01*
X5683960Y41521983D01*
X5683958Y41521981D01*
X5533237Y41384582D01*
X5410327Y41221822D01*
X5319422Y41039261D01*
X5319417Y41039248D01*
X5263602Y40843083D01*
X5244785Y40640001D01*
X4915215Y40640001D01*
X4896397Y40843083D01*
X4840582Y41039250D01*
X4809095Y41102484D01*
X4796272Y41128236D01*
X4749673Y41221821D01*
X4626764Y41384579D01*
X4626762Y41384582D01*
X4476041Y41521981D01*
X4476039Y41521983D01*
X4302642Y41629345D01*
X4302635Y41629349D01*
X4207546Y41666186D01*
X4112456Y41703024D01*
X3911976Y41740500D01*
X3708024Y41740500D01*
X3507544Y41703024D01*
X3507541Y41703024D01*
X3507541Y41703023D01*
X3317364Y41629349D01*
X3317357Y41629345D01*
X3143960Y41521983D01*
X3143958Y41521981D01*
X2993237Y41384582D01*
X2870327Y41221822D01*
X2779422Y41039261D01*
X2779417Y41039248D01*
X2723602Y40843083D01*
X2704785Y40640001D01*
X25500Y40640001D01*
X25500Y43180001D01*
X2704785Y43180001D01*
X2704785Y43180000D01*
X2723602Y42976918D01*
X2779417Y42780753D01*
X2779422Y42780740D01*
X2870327Y42598179D01*
X2993237Y42435419D01*
X3143958Y42298020D01*
X3143960Y42298018D01*
X3157288Y42289766D01*
X3317363Y42190652D01*
X3507544Y42116976D01*
X3708024Y42079500D01*
X3708026Y42079500D01*
X3911974Y42079500D01*
X3911976Y42079500D01*
X4112456Y42116976D01*
X4302637Y42190652D01*
X4476041Y42298019D01*
X4626764Y42435421D01*
X4749673Y42598179D01*
X4840582Y42780750D01*
X4896397Y42976917D01*
X4915215Y43180000D01*
X4915215Y43180001D01*
X5244785Y43180001D01*
X5244785Y43180000D01*
X5263602Y42976918D01*
X5319417Y42780753D01*
X5319422Y42780740D01*
X5410327Y42598179D01*
X5533237Y42435419D01*
X5683958Y42298020D01*
X5683960Y42298018D01*
X5697288Y42289766D01*
X5857363Y42190652D01*
X6047544Y42116976D01*
X6248024Y42079500D01*
X6248026Y42079500D01*
X6451974Y42079500D01*
X6451976Y42079500D01*
X6652456Y42116976D01*
X6842637Y42190652D01*
X7016041Y42298019D01*
X7166764Y42435421D01*
X7289673Y42598179D01*
X7380582Y42780750D01*
X7436397Y42976917D01*
X7455215Y43180000D01*
X7436397Y43383083D01*
X7380582Y43579250D01*
X7289673Y43761821D01*
X7166764Y43924579D01*
X7166762Y43924582D01*
X7016041Y44061981D01*
X7016039Y44061983D01*
X6842642Y44169345D01*
X6842635Y44169349D01*
X6747546Y44206186D01*
X6652456Y44243024D01*
X6451976Y44280500D01*
X6248024Y44280500D01*
X6047544Y44243024D01*
X6047541Y44243024D01*
X6047541Y44243023D01*
X5857364Y44169349D01*
X5857357Y44169345D01*
X5683960Y44061983D01*
X5683958Y44061981D01*
X5533237Y43924582D01*
X5410327Y43761822D01*
X5319422Y43579261D01*
X5319417Y43579248D01*
X5263602Y43383083D01*
X5244785Y43180001D01*
X4915215Y43180001D01*
X4896397Y43383083D01*
X4840582Y43579250D01*
X4749673Y43761821D01*
X4626764Y43924579D01*
X4626762Y43924582D01*
X4476041Y44061981D01*
X4476039Y44061983D01*
X4302642Y44169345D01*
X4302635Y44169349D01*
X4207546Y44206186D01*
X4112456Y44243024D01*
X3911976Y44280500D01*
X3708024Y44280500D01*
X3507544Y44243024D01*
X3507541Y44243024D01*
X3507541Y44243023D01*
X3317364Y44169349D01*
X3317357Y44169345D01*
X3143960Y44061983D01*
X3143958Y44061981D01*
X2993237Y43924582D01*
X2870327Y43761822D01*
X2779422Y43579261D01*
X2779417Y43579248D01*
X2723602Y43383083D01*
X2704785Y43180001D01*
X25500Y43180001D01*
X25500Y45720001D01*
X2704785Y45720001D01*
X2704785Y45720000D01*
X2723602Y45516918D01*
X2779417Y45320753D01*
X2779422Y45320740D01*
X2870327Y45138179D01*
X2993237Y44975419D01*
X3143958Y44838020D01*
X3143960Y44838018D01*
X3243141Y44776608D01*
X3317363Y44730652D01*
X3507544Y44656976D01*
X3708024Y44619500D01*
X3708026Y44619500D01*
X3911974Y44619500D01*
X3911976Y44619500D01*
X4112456Y44656976D01*
X4302637Y44730652D01*
X4476041Y44838019D01*
X4626764Y44975421D01*
X4749673Y45138179D01*
X4840582Y45320750D01*
X4896397Y45516917D01*
X4915215Y45720000D01*
X4915215Y45720001D01*
X5244785Y45720001D01*
X5244785Y45720000D01*
X5263602Y45516918D01*
X5319417Y45320753D01*
X5319422Y45320740D01*
X5410327Y45138179D01*
X5533237Y44975419D01*
X5683958Y44838020D01*
X5683960Y44838018D01*
X5783141Y44776608D01*
X5857363Y44730652D01*
X6047544Y44656976D01*
X6248024Y44619500D01*
X6248026Y44619500D01*
X6451974Y44619500D01*
X6451976Y44619500D01*
X6652456Y44656976D01*
X6842637Y44730652D01*
X7016041Y44838019D01*
X7166764Y44975421D01*
X7289673Y45138179D01*
X7326432Y45212001D01*
X27511750Y45212001D01*
X27511750Y45212000D01*
X27530670Y45068292D01*
X27530671Y45068288D01*
X27586137Y44934378D01*
X27586138Y44934376D01*
X27586139Y44934375D01*
X27674379Y44819379D01*
X27789375Y44731139D01*
X27789376Y44731139D01*
X27789377Y44731138D01*
X27834013Y44712650D01*
X27923291Y44675670D01*
X28050280Y44658952D01*
X28066999Y44656750D01*
X28067000Y44656750D01*
X28067001Y44656750D01*
X28081977Y44658722D01*
X28210709Y44675670D01*
X28344625Y44731139D01*
X28459621Y44819379D01*
X28547861Y44934375D01*
X28603330Y45068291D01*
X28622250Y45212000D01*
X28603330Y45355709D01*
X28547861Y45489625D01*
X28459621Y45604621D01*
X28344625Y45692861D01*
X28344624Y45692862D01*
X28344622Y45692863D01*
X28279103Y45720001D01*
X35724785Y45720001D01*
X35724785Y45720000D01*
X35743602Y45516918D01*
X35799417Y45320753D01*
X35799422Y45320740D01*
X35890327Y45138179D01*
X36013237Y44975419D01*
X36163958Y44838020D01*
X36163960Y44838018D01*
X36263141Y44776608D01*
X36337363Y44730652D01*
X36527544Y44656976D01*
X36728024Y44619500D01*
X36728026Y44619500D01*
X36931974Y44619500D01*
X36931976Y44619500D01*
X37132456Y44656976D01*
X37322637Y44730652D01*
X37496041Y44838019D01*
X37646764Y44975421D01*
X37769673Y45138179D01*
X37860582Y45320750D01*
X37916397Y45516917D01*
X37935215Y45720000D01*
X37916397Y45923083D01*
X37860582Y46119250D01*
X37769673Y46301821D01*
X37646764Y46464579D01*
X37646762Y46464582D01*
X37496041Y46601981D01*
X37496039Y46601983D01*
X37322642Y46709345D01*
X37322635Y46709349D01*
X37155027Y46774280D01*
X37132456Y46783024D01*
X36931976Y46820500D01*
X36728024Y46820500D01*
X36527544Y46783024D01*
X36527541Y46783024D01*
X36527541Y46783023D01*
X36337364Y46709349D01*
X36337357Y46709345D01*
X36163960Y46601983D01*
X36163958Y46601981D01*
X36013237Y46464582D01*
X35890327Y46301822D01*
X35799422Y46119261D01*
X35799417Y46119248D01*
X35743602Y45923083D01*
X35724785Y45720001D01*
X28279103Y45720001D01*
X28210712Y45748329D01*
X28210710Y45748330D01*
X28210709Y45748330D01*
X28138854Y45757790D01*
X28067001Y45767250D01*
X28066999Y45767250D01*
X27923291Y45748330D01*
X27923287Y45748329D01*
X27789377Y45692863D01*
X27674379Y45604621D01*
X27586137Y45489623D01*
X27530671Y45355713D01*
X27530670Y45355709D01*
X27511750Y45212001D01*
X7326432Y45212001D01*
X7380582Y45320750D01*
X7436397Y45516917D01*
X7455215Y45720000D01*
X7436397Y45923083D01*
X7380582Y46119250D01*
X7289673Y46301821D01*
X7166764Y46464579D01*
X7166762Y46464582D01*
X7016041Y46601981D01*
X7016039Y46601983D01*
X6842642Y46709345D01*
X6842635Y46709349D01*
X6675027Y46774280D01*
X6652456Y46783024D01*
X6451976Y46820500D01*
X6248024Y46820500D01*
X6047544Y46783024D01*
X6047541Y46783024D01*
X6047541Y46783023D01*
X5857364Y46709349D01*
X5857357Y46709345D01*
X5683960Y46601983D01*
X5683958Y46601981D01*
X5533237Y46464582D01*
X5410327Y46301822D01*
X5319422Y46119261D01*
X5319417Y46119248D01*
X5263602Y45923083D01*
X5244785Y45720001D01*
X4915215Y45720001D01*
X4896397Y45923083D01*
X4840582Y46119250D01*
X4749673Y46301821D01*
X4626764Y46464579D01*
X4626762Y46464582D01*
X4476041Y46601981D01*
X4476039Y46601983D01*
X4302642Y46709345D01*
X4302635Y46709349D01*
X4135027Y46774280D01*
X4112456Y46783024D01*
X3911976Y46820500D01*
X3708024Y46820500D01*
X3507544Y46783024D01*
X3507541Y46783024D01*
X3507541Y46783023D01*
X3317364Y46709349D01*
X3317357Y46709345D01*
X3143960Y46601983D01*
X3143958Y46601981D01*
X2993237Y46464582D01*
X2870327Y46301822D01*
X2779422Y46119261D01*
X2779417Y46119248D01*
X2723602Y45923083D01*
X2704785Y45720001D01*
X25500Y45720001D01*
X25500Y48260001D01*
X2704785Y48260001D01*
X2704785Y48260000D01*
X2723602Y48056918D01*
X2779417Y47860753D01*
X2779422Y47860740D01*
X2870327Y47678179D01*
X2993237Y47515419D01*
X3143958Y47378020D01*
X3143960Y47378018D01*
X3155293Y47371001D01*
X3317363Y47270652D01*
X3507544Y47196976D01*
X3708024Y47159500D01*
X3708026Y47159500D01*
X3911974Y47159500D01*
X3911976Y47159500D01*
X4112456Y47196976D01*
X4302637Y47270652D01*
X4476041Y47378019D01*
X4625983Y47514709D01*
X4626762Y47515419D01*
X4626764Y47515421D01*
X4749673Y47678179D01*
X4840582Y47860750D01*
X4896397Y48056917D01*
X4915215Y48260000D01*
X4915215Y48260001D01*
X5244785Y48260001D01*
X5244785Y48260000D01*
X5263602Y48056918D01*
X5319417Y47860753D01*
X5319422Y47860740D01*
X5410327Y47678179D01*
X5533237Y47515419D01*
X5683958Y47378020D01*
X5683960Y47378018D01*
X5695293Y47371001D01*
X5857363Y47270652D01*
X6047544Y47196976D01*
X6248024Y47159500D01*
X6248026Y47159500D01*
X6451974Y47159500D01*
X6451976Y47159500D01*
X6652456Y47196976D01*
X6842637Y47270652D01*
X7004707Y47371001D01*
X13541750Y47371001D01*
X13541750Y47371000D01*
X13560670Y47227292D01*
X13560671Y47227288D01*
X13616137Y47093378D01*
X13616138Y47093376D01*
X13616139Y47093375D01*
X13704379Y46978379D01*
X13704382Y46978377D01*
X13726539Y46961374D01*
X13767741Y46904946D01*
X13771894Y46835200D01*
X13737681Y46774280D01*
X13726539Y46764626D01*
X13704382Y46747624D01*
X13704380Y46747623D01*
X13704379Y46747621D01*
X13675012Y46709349D01*
X13616137Y46632623D01*
X13560671Y46498713D01*
X13560670Y46498709D01*
X13541750Y46355001D01*
X13541750Y46355000D01*
X13560670Y46211292D01*
X13560671Y46211288D01*
X13616137Y46077378D01*
X13616138Y46077376D01*
X13616139Y46077375D01*
X13704379Y45962379D01*
X13819375Y45874139D01*
X13953291Y45818670D01*
X14080280Y45801952D01*
X14096999Y45799750D01*
X14097000Y45799750D01*
X14097001Y45799750D01*
X14111977Y45801722D01*
X14240709Y45818670D01*
X14374625Y45874139D01*
X14489621Y45962379D01*
X14577861Y46077375D01*
X14633330Y46211291D01*
X14652250Y46355000D01*
X14633330Y46498709D01*
X14577861Y46632625D01*
X14489621Y46747621D01*
X14467459Y46764627D01*
X14426259Y46821052D01*
X14422104Y46890798D01*
X14456316Y46951719D01*
X14467450Y46961367D01*
X14489621Y46978379D01*
X14577861Y47093375D01*
X14633330Y47227291D01*
X14652250Y47371000D01*
X14633330Y47514709D01*
X14577861Y47648625D01*
X14489621Y47763621D01*
X14374625Y47851861D01*
X14374624Y47851862D01*
X14374622Y47851863D01*
X14240712Y47907329D01*
X14240710Y47907330D01*
X14240709Y47907330D01*
X14168854Y47916790D01*
X14097001Y47926250D01*
X14096999Y47926250D01*
X13953291Y47907330D01*
X13953287Y47907329D01*
X13819377Y47851863D01*
X13704379Y47763621D01*
X13616137Y47648623D01*
X13560671Y47514713D01*
X13560670Y47514709D01*
X13541750Y47371001D01*
X7004707Y47371001D01*
X7016041Y47378019D01*
X7165983Y47514709D01*
X7166762Y47515419D01*
X7166764Y47515421D01*
X7289673Y47678179D01*
X7380582Y47860750D01*
X7436397Y48056917D01*
X7455215Y48260000D01*
X7455215Y48260001D01*
X35724785Y48260001D01*
X35724785Y48260000D01*
X35743602Y48056918D01*
X35799417Y47860753D01*
X35799422Y47860740D01*
X35890327Y47678179D01*
X36013237Y47515419D01*
X36163958Y47378020D01*
X36163960Y47378018D01*
X36175293Y47371001D01*
X36337363Y47270652D01*
X36527544Y47196976D01*
X36728024Y47159500D01*
X36728026Y47159500D01*
X36931974Y47159500D01*
X36931976Y47159500D01*
X37132456Y47196976D01*
X37322637Y47270652D01*
X37496041Y47378019D01*
X37645983Y47514709D01*
X37646762Y47515419D01*
X37646764Y47515421D01*
X37769673Y47678179D01*
X37860582Y47860750D01*
X37916397Y48056917D01*
X37935215Y48260000D01*
X37916397Y48463083D01*
X37860582Y48659250D01*
X37769673Y48841821D01*
X37646764Y49004579D01*
X37646762Y49004582D01*
X37496041Y49141981D01*
X37496039Y49141983D01*
X37322642Y49249345D01*
X37322635Y49249349D01*
X37183785Y49303139D01*
X37132456Y49323024D01*
X36931976Y49360500D01*
X36728024Y49360500D01*
X36527544Y49323024D01*
X36527541Y49323024D01*
X36527541Y49323023D01*
X36337364Y49249349D01*
X36337357Y49249345D01*
X36163960Y49141983D01*
X36163958Y49141981D01*
X36013237Y49004582D01*
X35890327Y48841822D01*
X35799422Y48659261D01*
X35799417Y48659248D01*
X35743602Y48463083D01*
X35724785Y48260001D01*
X7455215Y48260001D01*
X7436397Y48463083D01*
X7380582Y48659250D01*
X7289673Y48841821D01*
X7166764Y49004579D01*
X7166762Y49004582D01*
X7016041Y49141981D01*
X7016039Y49141983D01*
X6842642Y49249345D01*
X6842635Y49249349D01*
X6703785Y49303139D01*
X6652456Y49323024D01*
X6451976Y49360500D01*
X6248024Y49360500D01*
X6047544Y49323024D01*
X6047541Y49323024D01*
X6047541Y49323023D01*
X5857364Y49249349D01*
X5857357Y49249345D01*
X5683960Y49141983D01*
X5683958Y49141981D01*
X5533237Y49004582D01*
X5410327Y48841822D01*
X5319422Y48659261D01*
X5319417Y48659248D01*
X5263602Y48463083D01*
X5244785Y48260001D01*
X4915215Y48260001D01*
X4896397Y48463083D01*
X4840582Y48659250D01*
X4749673Y48841821D01*
X4626764Y49004579D01*
X4626762Y49004582D01*
X4476041Y49141981D01*
X4476039Y49141983D01*
X4302642Y49249345D01*
X4302635Y49249349D01*
X4163785Y49303139D01*
X4112456Y49323024D01*
X3911976Y49360500D01*
X3708024Y49360500D01*
X3507544Y49323024D01*
X3507541Y49323024D01*
X3507541Y49323023D01*
X3317364Y49249349D01*
X3317357Y49249345D01*
X3143960Y49141983D01*
X3143958Y49141981D01*
X2993237Y49004582D01*
X2870327Y48841822D01*
X2779422Y48659261D01*
X2779417Y48659248D01*
X2723602Y48463083D01*
X2704785Y48260001D01*
X25500Y48260001D01*
X25500Y50800001D01*
X2704785Y50800001D01*
X2704785Y50800000D01*
X2723602Y50596918D01*
X2779417Y50400753D01*
X2779422Y50400740D01*
X2870327Y50218179D01*
X2993237Y50055419D01*
X3143958Y49918020D01*
X3143960Y49918018D01*
X3243141Y49856608D01*
X3317363Y49810652D01*
X3507544Y49736976D01*
X3708024Y49699500D01*
X3708026Y49699500D01*
X3911974Y49699500D01*
X3911976Y49699500D01*
X4112456Y49736976D01*
X4302637Y49810652D01*
X4476041Y49918019D01*
X4626764Y50055421D01*
X4749673Y50218179D01*
X4840582Y50400750D01*
X4896397Y50596917D01*
X4915215Y50800000D01*
X4915215Y50800001D01*
X5244785Y50800001D01*
X5244785Y50800000D01*
X5263602Y50596918D01*
X5319417Y50400753D01*
X5319422Y50400740D01*
X5410327Y50218179D01*
X5533237Y50055419D01*
X5683958Y49918020D01*
X5683960Y49918018D01*
X5783141Y49856608D01*
X5857363Y49810652D01*
X6047544Y49736976D01*
X6248024Y49699500D01*
X6248026Y49699500D01*
X6451974Y49699500D01*
X6451976Y49699500D01*
X6652456Y49736976D01*
X6842637Y49810652D01*
X7016041Y49918019D01*
X7166764Y50055421D01*
X7289673Y50218179D01*
X7380582Y50400750D01*
X7436397Y50596917D01*
X7455215Y50800000D01*
X7455215Y50800001D01*
X13541750Y50800001D01*
X13541750Y50800000D01*
X13560670Y50656292D01*
X13560671Y50656288D01*
X13616137Y50522378D01*
X13616138Y50522376D01*
X13616139Y50522375D01*
X13704379Y50407379D01*
X13704382Y50407377D01*
X13726539Y50390374D01*
X13767741Y50333946D01*
X13771894Y50264200D01*
X13737681Y50203280D01*
X13726539Y50193626D01*
X13704382Y50176624D01*
X13704380Y50176623D01*
X13704379Y50176621D01*
X13651435Y50107624D01*
X13616137Y50061623D01*
X13560671Y49927713D01*
X13560670Y49927709D01*
X13541750Y49784001D01*
X13541750Y49784000D01*
X13560670Y49640292D01*
X13560671Y49640288D01*
X13616137Y49506378D01*
X13616138Y49506376D01*
X13616139Y49506375D01*
X13704379Y49391379D01*
X13819375Y49303139D01*
X13953291Y49247670D01*
X14080280Y49230952D01*
X14096999Y49228750D01*
X14097000Y49228750D01*
X14097001Y49228750D01*
X14111977Y49230722D01*
X14240709Y49247670D01*
X14374625Y49303139D01*
X14489621Y49391379D01*
X14577861Y49506375D01*
X14633330Y49640291D01*
X14652250Y49784000D01*
X14633330Y49927709D01*
X14577861Y50061625D01*
X14489621Y50176621D01*
X14467459Y50193627D01*
X14426259Y50250052D01*
X14422104Y50319798D01*
X14456316Y50380719D01*
X14467450Y50390367D01*
X14489621Y50407379D01*
X14577861Y50522375D01*
X14633330Y50656291D01*
X14652250Y50800000D01*
X14652250Y50800001D01*
X35724785Y50800001D01*
X35724785Y50800000D01*
X35743602Y50596918D01*
X35799417Y50400753D01*
X35799422Y50400740D01*
X35890327Y50218179D01*
X36013237Y50055419D01*
X36163958Y49918020D01*
X36163960Y49918018D01*
X36263141Y49856608D01*
X36337363Y49810652D01*
X36527544Y49736976D01*
X36728024Y49699500D01*
X36728026Y49699500D01*
X36931974Y49699500D01*
X36931976Y49699500D01*
X37132456Y49736976D01*
X37322637Y49810652D01*
X37496041Y49918019D01*
X37646764Y50055421D01*
X37769673Y50218179D01*
X37860582Y50400750D01*
X37916397Y50596917D01*
X37935215Y50800000D01*
X37916397Y51003083D01*
X37860582Y51199250D01*
X37769673Y51381821D01*
X37646764Y51544579D01*
X37646762Y51544582D01*
X37496041Y51681981D01*
X37496039Y51681983D01*
X37322642Y51789345D01*
X37322635Y51789349D01*
X37227546Y51826186D01*
X37132456Y51863024D01*
X36931976Y51900500D01*
X36728024Y51900500D01*
X36527544Y51863024D01*
X36527541Y51863024D01*
X36527541Y51863023D01*
X36337364Y51789349D01*
X36337357Y51789345D01*
X36163960Y51681983D01*
X36163958Y51681981D01*
X36013237Y51544582D01*
X35890327Y51381822D01*
X35799422Y51199261D01*
X35799417Y51199248D01*
X35743602Y51003083D01*
X35724785Y50800001D01*
X14652250Y50800001D01*
X14633330Y50943709D01*
X14577861Y51077625D01*
X14489621Y51192621D01*
X14374625Y51280861D01*
X14374624Y51280862D01*
X14374622Y51280863D01*
X14240712Y51336329D01*
X14240710Y51336330D01*
X14240709Y51336330D01*
X14168854Y51345790D01*
X14097001Y51355250D01*
X14096999Y51355250D01*
X13953291Y51336330D01*
X13953287Y51336329D01*
X13819377Y51280863D01*
X13704379Y51192621D01*
X13616137Y51077623D01*
X13560671Y50943713D01*
X13560670Y50943709D01*
X13541750Y50800001D01*
X7455215Y50800001D01*
X7436397Y51003083D01*
X7380582Y51199250D01*
X7289673Y51381821D01*
X7166764Y51544579D01*
X7166762Y51544582D01*
X7016041Y51681981D01*
X7016039Y51681983D01*
X6842642Y51789345D01*
X6842635Y51789349D01*
X6747546Y51826186D01*
X6652456Y51863024D01*
X6451976Y51900500D01*
X6248024Y51900500D01*
X6047544Y51863024D01*
X6047541Y51863024D01*
X6047541Y51863023D01*
X5857364Y51789349D01*
X5857357Y51789345D01*
X5683960Y51681983D01*
X5683958Y51681981D01*
X5533237Y51544582D01*
X5410327Y51381822D01*
X5319422Y51199261D01*
X5319417Y51199248D01*
X5263602Y51003083D01*
X5244785Y50800001D01*
X4915215Y50800001D01*
X4896397Y51003083D01*
X4840582Y51199250D01*
X4749673Y51381821D01*
X4626764Y51544579D01*
X4626762Y51544582D01*
X4476041Y51681981D01*
X4476039Y51681983D01*
X4302642Y51789345D01*
X4302635Y51789349D01*
X4207546Y51826186D01*
X4112456Y51863024D01*
X3911976Y51900500D01*
X3708024Y51900500D01*
X3507544Y51863024D01*
X3507541Y51863024D01*
X3507541Y51863023D01*
X3317364Y51789349D01*
X3317357Y51789345D01*
X3143960Y51681983D01*
X3143958Y51681981D01*
X2993237Y51544582D01*
X2870327Y51381822D01*
X2779422Y51199261D01*
X2779417Y51199248D01*
X2723602Y51003083D01*
X2704785Y50800001D01*
X25500Y50800001D01*
X25500Y53340001D01*
X2704785Y53340001D01*
X2704785Y53340000D01*
X2723602Y53136918D01*
X2779417Y52940753D01*
X2779422Y52940740D01*
X2870327Y52758179D01*
X2993237Y52595419D01*
X3143958Y52458020D01*
X3143960Y52458018D01*
X3243141Y52396608D01*
X3317363Y52350652D01*
X3507544Y52276976D01*
X3708024Y52239500D01*
X3708026Y52239500D01*
X3911974Y52239500D01*
X3911976Y52239500D01*
X4112456Y52276976D01*
X4302637Y52350652D01*
X4476041Y52458019D01*
X4626764Y52595421D01*
X4749673Y52758179D01*
X4840582Y52940750D01*
X4896397Y53136917D01*
X4915215Y53340000D01*
X4915215Y53340001D01*
X5244785Y53340001D01*
X5244785Y53340000D01*
X5263602Y53136918D01*
X5319417Y52940753D01*
X5319422Y52940740D01*
X5410327Y52758179D01*
X5533237Y52595419D01*
X5683958Y52458020D01*
X5683960Y52458018D01*
X5783141Y52396608D01*
X5857363Y52350652D01*
X6047544Y52276976D01*
X6248024Y52239500D01*
X6248026Y52239500D01*
X6451974Y52239500D01*
X6451976Y52239500D01*
X6652456Y52276976D01*
X6842637Y52350652D01*
X7016041Y52458019D01*
X7166764Y52595421D01*
X7289673Y52758179D01*
X7380582Y52940750D01*
X7436397Y53136917D01*
X7455215Y53340000D01*
X7446180Y53437500D01*
X7436397Y53543083D01*
X7397710Y53679052D01*
X7380582Y53739250D01*
X7289673Y53921821D01*
X7166764Y54084579D01*
X7166762Y54084582D01*
X7016041Y54221981D01*
X7016039Y54221983D01*
X7004704Y54229001D01*
X14430750Y54229001D01*
X14430750Y54229000D01*
X14449670Y54085292D01*
X14449671Y54085288D01*
X14505137Y53951378D01*
X14505138Y53951376D01*
X14505139Y53951375D01*
X14593379Y53836379D01*
X14598751Y53832257D01*
X14615539Y53819374D01*
X14656741Y53762946D01*
X14660894Y53693200D01*
X14626681Y53632280D01*
X14615539Y53622626D01*
X14593382Y53605624D01*
X14593380Y53605623D01*
X14593379Y53605621D01*
X14545392Y53543083D01*
X14505137Y53490623D01*
X14449671Y53356713D01*
X14449670Y53356709D01*
X14430750Y53213001D01*
X14430750Y53213000D01*
X14449670Y53069292D01*
X14449671Y53069288D01*
X14505137Y52935378D01*
X14505138Y52935376D01*
X14505139Y52935375D01*
X14593379Y52820379D01*
X14708375Y52732139D01*
X14842291Y52676670D01*
X14969280Y52659952D01*
X14985999Y52657750D01*
X14986000Y52657750D01*
X14986001Y52657750D01*
X15000977Y52659722D01*
X15129709Y52676670D01*
X15263625Y52732139D01*
X15378621Y52820379D01*
X15466861Y52935375D01*
X15522330Y53069291D01*
X15541250Y53213000D01*
X15524530Y53340001D01*
X35724785Y53340001D01*
X35724785Y53340000D01*
X35743602Y53136918D01*
X35799417Y52940753D01*
X35799422Y52940740D01*
X35890327Y52758179D01*
X36013237Y52595419D01*
X36163958Y52458020D01*
X36163960Y52458018D01*
X36263141Y52396608D01*
X36337363Y52350652D01*
X36527544Y52276976D01*
X36728024Y52239500D01*
X36728026Y52239500D01*
X36931974Y52239500D01*
X36931976Y52239500D01*
X37132456Y52276976D01*
X37322637Y52350652D01*
X37496041Y52458019D01*
X37646764Y52595421D01*
X37769673Y52758179D01*
X37860582Y52940750D01*
X37916397Y53136917D01*
X37935215Y53340000D01*
X37926180Y53437500D01*
X37916397Y53543083D01*
X37877710Y53679052D01*
X37860582Y53739250D01*
X37769673Y53921821D01*
X37646764Y54084579D01*
X37646762Y54084582D01*
X37496041Y54221981D01*
X37496039Y54221983D01*
X37322642Y54329345D01*
X37322635Y54329349D01*
X37227546Y54366186D01*
X37132456Y54403024D01*
X36931976Y54440500D01*
X36728024Y54440500D01*
X36527544Y54403024D01*
X36527541Y54403024D01*
X36527541Y54403023D01*
X36337364Y54329349D01*
X36337357Y54329345D01*
X36163960Y54221983D01*
X36163958Y54221981D01*
X36013237Y54084582D01*
X35890327Y53921822D01*
X35799422Y53739261D01*
X35799417Y53739248D01*
X35743602Y53543083D01*
X35724785Y53340001D01*
X15524530Y53340001D01*
X15522330Y53356709D01*
X15466861Y53490625D01*
X15378621Y53605621D01*
X15356459Y53622627D01*
X15315259Y53679052D01*
X15311104Y53748798D01*
X15345316Y53809719D01*
X15356450Y53819367D01*
X15378621Y53836379D01*
X15466861Y53951375D01*
X15522330Y54085291D01*
X15526120Y54114080D01*
X22236499Y54114080D01*
X22265340Y53969093D01*
X22265343Y53969083D01*
X22321912Y53832512D01*
X22321919Y53832499D01*
X22404048Y53709585D01*
X22404051Y53709581D01*
X22508580Y53605052D01*
X22508584Y53605049D01*
X22631498Y53522920D01*
X22631511Y53522913D01*
X22709467Y53490623D01*
X22768087Y53466342D01*
X22768091Y53466342D01*
X22768092Y53466341D01*
X22913079Y53437500D01*
X22913082Y53437500D01*
X23060920Y53437500D01*
X23158462Y53456904D01*
X23205913Y53466342D01*
X23342495Y53522916D01*
X23465416Y53605049D01*
X23569951Y53709584D01*
X23652084Y53832505D01*
X23708658Y53969087D01*
X23718096Y54016538D01*
X23737500Y54114080D01*
X30236499Y54114080D01*
X30265340Y53969093D01*
X30265343Y53969083D01*
X30321912Y53832512D01*
X30321919Y53832499D01*
X30404048Y53709585D01*
X30404051Y53709581D01*
X30508580Y53605052D01*
X30508584Y53605049D01*
X30631498Y53522920D01*
X30631511Y53522913D01*
X30709467Y53490623D01*
X30768087Y53466342D01*
X30768091Y53466342D01*
X30768092Y53466341D01*
X30913079Y53437500D01*
X30913082Y53437500D01*
X31060920Y53437500D01*
X31158462Y53456904D01*
X31205913Y53466342D01*
X31342495Y53522916D01*
X31465416Y53605049D01*
X31569951Y53709584D01*
X31652084Y53832505D01*
X31708658Y53969087D01*
X31718096Y54016538D01*
X31737500Y54114080D01*
X31737500Y54261921D01*
X31708659Y54406908D01*
X31708658Y54406909D01*
X31708658Y54406913D01*
X31667356Y54506625D01*
X31652087Y54543489D01*
X31652080Y54543502D01*
X31569951Y54666416D01*
X31569948Y54666420D01*
X31465419Y54770949D01*
X31465415Y54770952D01*
X31342501Y54853081D01*
X31342488Y54853088D01*
X31205917Y54909657D01*
X31205907Y54909660D01*
X31060920Y54938500D01*
X31060918Y54938500D01*
X30913082Y54938500D01*
X30913080Y54938500D01*
X30768092Y54909660D01*
X30768082Y54909657D01*
X30631511Y54853088D01*
X30631498Y54853081D01*
X30508584Y54770952D01*
X30508580Y54770949D01*
X30404051Y54666420D01*
X30404048Y54666416D01*
X30321919Y54543502D01*
X30321912Y54543489D01*
X30265343Y54406918D01*
X30265340Y54406908D01*
X30236500Y54261921D01*
X30236500Y54261918D01*
X30236500Y54114082D01*
X30236500Y54114080D01*
X30236499Y54114080D01*
X23737500Y54114080D01*
X23737500Y54261921D01*
X23708659Y54406908D01*
X23708658Y54406909D01*
X23708658Y54406913D01*
X23667356Y54506625D01*
X23652087Y54543489D01*
X23652080Y54543502D01*
X23569951Y54666416D01*
X23569948Y54666420D01*
X23465419Y54770949D01*
X23465415Y54770952D01*
X23342501Y54853081D01*
X23342488Y54853088D01*
X23205917Y54909657D01*
X23205907Y54909660D01*
X23060920Y54938500D01*
X23060918Y54938500D01*
X22913082Y54938500D01*
X22913080Y54938500D01*
X22768092Y54909660D01*
X22768082Y54909657D01*
X22631511Y54853088D01*
X22631498Y54853081D01*
X22508584Y54770952D01*
X22508580Y54770949D01*
X22404051Y54666420D01*
X22404048Y54666416D01*
X22321919Y54543502D01*
X22321912Y54543489D01*
X22265343Y54406918D01*
X22265340Y54406908D01*
X22236500Y54261921D01*
X22236500Y54261918D01*
X22236500Y54114082D01*
X22236500Y54114080D01*
X22236499Y54114080D01*
X15526120Y54114080D01*
X15541250Y54229000D01*
X15522330Y54372709D01*
X15466861Y54506625D01*
X15378621Y54621621D01*
X15263625Y54709861D01*
X15263624Y54709862D01*
X15263622Y54709863D01*
X15129712Y54765329D01*
X15129710Y54765330D01*
X15129709Y54765330D01*
X15057854Y54774790D01*
X14986001Y54784250D01*
X14985999Y54784250D01*
X14842291Y54765330D01*
X14842287Y54765329D01*
X14708377Y54709863D01*
X14593379Y54621621D01*
X14505137Y54506623D01*
X14449671Y54372713D01*
X14449670Y54372709D01*
X14430750Y54229001D01*
X7004704Y54229001D01*
X6842642Y54329345D01*
X6842635Y54329349D01*
X6747546Y54366186D01*
X6652456Y54403024D01*
X6451976Y54440500D01*
X6248024Y54440500D01*
X6047544Y54403024D01*
X6047541Y54403024D01*
X6047541Y54403023D01*
X5857364Y54329349D01*
X5857357Y54329345D01*
X5683960Y54221983D01*
X5683958Y54221981D01*
X5533237Y54084582D01*
X5410327Y53921822D01*
X5319422Y53739261D01*
X5319417Y53739248D01*
X5263602Y53543083D01*
X5244785Y53340001D01*
X4915215Y53340001D01*
X4906180Y53437500D01*
X4896397Y53543083D01*
X4857710Y53679052D01*
X4840582Y53739250D01*
X4749673Y53921821D01*
X4626764Y54084579D01*
X4626762Y54084582D01*
X4476041Y54221981D01*
X4476039Y54221983D01*
X4302642Y54329345D01*
X4302635Y54329349D01*
X4207546Y54366186D01*
X4112456Y54403024D01*
X3911976Y54440500D01*
X3708024Y54440500D01*
X3507544Y54403024D01*
X3507541Y54403024D01*
X3507541Y54403023D01*
X3317364Y54329349D01*
X3317357Y54329345D01*
X3143960Y54221983D01*
X3143958Y54221981D01*
X2993237Y54084582D01*
X2870327Y53921822D01*
X2779422Y53739261D01*
X2779417Y53739248D01*
X2723602Y53543083D01*
X2704785Y53340001D01*
X25500Y53340001D01*
X25500Y55880001D01*
X2704785Y55880001D01*
X2704785Y55880000D01*
X2723602Y55676918D01*
X2779417Y55480753D01*
X2779422Y55480740D01*
X2870327Y55298179D01*
X2993237Y55135419D01*
X3143958Y54998020D01*
X3143960Y54998018D01*
X3240086Y54938500D01*
X3317363Y54890652D01*
X3507544Y54816976D01*
X3708024Y54779500D01*
X3708026Y54779500D01*
X3911974Y54779500D01*
X3911976Y54779500D01*
X4112456Y54816976D01*
X4302637Y54890652D01*
X4476041Y54998019D01*
X4626764Y55135421D01*
X4749673Y55298179D01*
X4840582Y55480750D01*
X4896397Y55676917D01*
X4915215Y55880000D01*
X4915215Y55880001D01*
X5244785Y55880001D01*
X5244785Y55880000D01*
X5263602Y55676918D01*
X5319417Y55480753D01*
X5319422Y55480740D01*
X5410327Y55298179D01*
X5533237Y55135419D01*
X5683958Y54998020D01*
X5683960Y54998018D01*
X5780086Y54938500D01*
X5857363Y54890652D01*
X6047544Y54816976D01*
X6248024Y54779500D01*
X6248026Y54779500D01*
X6451974Y54779500D01*
X6451976Y54779500D01*
X6652456Y54816976D01*
X6842637Y54890652D01*
X7016041Y54998019D01*
X7166764Y55135421D01*
X7289673Y55298179D01*
X7380582Y55480750D01*
X7436397Y55676917D01*
X7455215Y55880000D01*
X7436397Y56083083D01*
X7380582Y56279250D01*
X7289673Y56461821D01*
X7166764Y56624579D01*
X7166762Y56624582D01*
X7016041Y56761981D01*
X7016039Y56761983D01*
X7004704Y56769001D01*
X14430750Y56769001D01*
X14430750Y56769000D01*
X14449670Y56625292D01*
X14449671Y56625288D01*
X14505137Y56491378D01*
X14505138Y56491376D01*
X14505139Y56491375D01*
X14593379Y56376379D01*
X14593382Y56376377D01*
X14615539Y56359374D01*
X14656741Y56302946D01*
X14660894Y56233200D01*
X14626681Y56172280D01*
X14615539Y56162626D01*
X14593382Y56145624D01*
X14593380Y56145623D01*
X14593379Y56145621D01*
X14545392Y56083083D01*
X14505137Y56030623D01*
X14449671Y55896713D01*
X14449670Y55896709D01*
X14430750Y55753001D01*
X14430750Y55753000D01*
X14449670Y55609292D01*
X14449671Y55609288D01*
X14505137Y55475378D01*
X14505138Y55475376D01*
X14505139Y55475375D01*
X14593379Y55360379D01*
X14708375Y55272139D01*
X14842291Y55216670D01*
X14969280Y55199952D01*
X14985999Y55197750D01*
X14986000Y55197750D01*
X14986001Y55197750D01*
X15000977Y55199722D01*
X15129709Y55216670D01*
X15263625Y55272139D01*
X15378621Y55360379D01*
X15466861Y55475375D01*
X15522330Y55609291D01*
X15541250Y55753000D01*
X15522330Y55896709D01*
X15466861Y56030625D01*
X15378621Y56145621D01*
X15356459Y56162627D01*
X15315259Y56219052D01*
X15311104Y56288798D01*
X15345316Y56349719D01*
X15356450Y56359367D01*
X15378621Y56376379D01*
X15466861Y56491375D01*
X15522330Y56625291D01*
X15539365Y56754679D01*
X35729500Y56754679D01*
X35729500Y55005322D01*
X35744032Y54932265D01*
X35744033Y54932261D01*
X35744034Y54932260D01*
X35799399Y54849399D01*
X35882260Y54794034D01*
X35882264Y54794033D01*
X35955321Y54779501D01*
X35955324Y54779500D01*
X35955326Y54779500D01*
X37704676Y54779500D01*
X37704677Y54779501D01*
X37777740Y54794034D01*
X37860601Y54849399D01*
X37915966Y54932260D01*
X37930500Y55005326D01*
X37930500Y56754674D01*
X37930500Y56754677D01*
X37930499Y56754679D01*
X37915967Y56827736D01*
X37915966Y56827740D01*
X37860601Y56910601D01*
X37777740Y56965966D01*
X37777739Y56965967D01*
X37777735Y56965968D01*
X37704677Y56980500D01*
X37704674Y56980500D01*
X35955326Y56980500D01*
X35955323Y56980500D01*
X35882264Y56965968D01*
X35882260Y56965967D01*
X35799399Y56910601D01*
X35744033Y56827740D01*
X35744032Y56827736D01*
X35729500Y56754679D01*
X15539365Y56754679D01*
X15541250Y56769000D01*
X15522330Y56912709D01*
X15466861Y57046625D01*
X15378621Y57161621D01*
X15263625Y57249861D01*
X15263624Y57249862D01*
X15263622Y57249863D01*
X15129712Y57305329D01*
X15129710Y57305330D01*
X15129709Y57305330D01*
X15057854Y57314790D01*
X14986001Y57324250D01*
X14985999Y57324250D01*
X14842291Y57305330D01*
X14842287Y57305329D01*
X14708377Y57249863D01*
X14593379Y57161621D01*
X14505137Y57046623D01*
X14449671Y56912713D01*
X14449670Y56912709D01*
X14430750Y56769001D01*
X7004704Y56769001D01*
X6842642Y56869345D01*
X6842635Y56869349D01*
X6736150Y56910601D01*
X6652456Y56943024D01*
X6451976Y56980500D01*
X6248024Y56980500D01*
X6047544Y56943024D01*
X6047541Y56943024D01*
X6047541Y56943023D01*
X5857364Y56869349D01*
X5857357Y56869345D01*
X5683960Y56761983D01*
X5683958Y56761981D01*
X5533237Y56624582D01*
X5410327Y56461822D01*
X5319422Y56279261D01*
X5319417Y56279248D01*
X5263602Y56083083D01*
X5244785Y55880001D01*
X4915215Y55880001D01*
X4896397Y56083083D01*
X4840582Y56279250D01*
X4749673Y56461821D01*
X4626764Y56624579D01*
X4626762Y56624582D01*
X4476041Y56761981D01*
X4476039Y56761983D01*
X4302642Y56869345D01*
X4302635Y56869349D01*
X4196150Y56910601D01*
X4112456Y56943024D01*
X3911976Y56980500D01*
X3708024Y56980500D01*
X3507544Y56943024D01*
X3507541Y56943024D01*
X3507541Y56943023D01*
X3317364Y56869349D01*
X3317357Y56869345D01*
X3143960Y56761983D01*
X3143958Y56761981D01*
X2993237Y56624582D01*
X2870327Y56461822D01*
X2779422Y56279261D01*
X2779417Y56279248D01*
X2723602Y56083083D01*
X2704785Y55880001D01*
X25500Y55880001D01*
X25500Y58420001D01*
X2704785Y58420001D01*
X2704785Y58420000D01*
X2723602Y58216918D01*
X2779417Y58020753D01*
X2779422Y58020740D01*
X2870327Y57838179D01*
X2993237Y57675419D01*
X3143958Y57538020D01*
X3143960Y57538018D01*
X3243141Y57476608D01*
X3317363Y57430652D01*
X3507544Y57356976D01*
X3708024Y57319500D01*
X3708026Y57319500D01*
X3911974Y57319500D01*
X3911976Y57319500D01*
X4112456Y57356976D01*
X4302637Y57430652D01*
X4476041Y57538019D01*
X4626764Y57675421D01*
X4749673Y57838179D01*
X4840582Y58020750D01*
X4896397Y58216917D01*
X4915215Y58420000D01*
X4915215Y58420001D01*
X5244785Y58420001D01*
X5244785Y58420000D01*
X5263602Y58216918D01*
X5319417Y58020753D01*
X5319422Y58020740D01*
X5410327Y57838179D01*
X5533237Y57675419D01*
X5683958Y57538020D01*
X5683960Y57538018D01*
X5783141Y57476608D01*
X5857363Y57430652D01*
X6047544Y57356976D01*
X6248024Y57319500D01*
X6248026Y57319500D01*
X6451974Y57319500D01*
X6451976Y57319500D01*
X6652456Y57356976D01*
X6842637Y57430652D01*
X7016041Y57538019D01*
X7166764Y57675421D01*
X7289673Y57838179D01*
X7380582Y58020750D01*
X7436397Y58216917D01*
X7455215Y58420000D01*
X7436397Y58623083D01*
X7380582Y58819250D01*
X7289673Y59001821D01*
X7166764Y59164579D01*
X7166762Y59164582D01*
X7016041Y59301981D01*
X7016039Y59301983D01*
X6842642Y59409345D01*
X6842635Y59409349D01*
X6747546Y59446186D01*
X6652456Y59483024D01*
X6451976Y59520500D01*
X6248024Y59520500D01*
X6047544Y59483024D01*
X6047541Y59483024D01*
X6047541Y59483023D01*
X5857364Y59409349D01*
X5857357Y59409345D01*
X5683960Y59301983D01*
X5683958Y59301981D01*
X5533237Y59164582D01*
X5410327Y59001822D01*
X5319422Y58819261D01*
X5319417Y58819248D01*
X5263602Y58623083D01*
X5244785Y58420001D01*
X4915215Y58420001D01*
X4896397Y58623083D01*
X4840582Y58819250D01*
X4749673Y59001821D01*
X4626764Y59164579D01*
X4626762Y59164582D01*
X4476041Y59301981D01*
X4476039Y59301983D01*
X4302642Y59409345D01*
X4302635Y59409349D01*
X4207546Y59446186D01*
X4112456Y59483024D01*
X3911976Y59520500D01*
X3708024Y59520500D01*
X3507544Y59483024D01*
X3507541Y59483024D01*
X3507541Y59483023D01*
X3317364Y59409349D01*
X3317357Y59409345D01*
X3143960Y59301983D01*
X3143958Y59301981D01*
X2993237Y59164582D01*
X2870327Y59001822D01*
X2779422Y58819261D01*
X2779417Y58819248D01*
X2723602Y58623083D01*
X2704785Y58420001D01*
X25500Y58420001D01*
X25500Y60960001D01*
X2704785Y60960001D01*
X2704785Y60960000D01*
X2723602Y60756918D01*
X2779417Y60560753D01*
X2779422Y60560740D01*
X2870327Y60378179D01*
X2993237Y60215419D01*
X3143958Y60078020D01*
X3143960Y60078018D01*
X3243141Y60016608D01*
X3317363Y59970652D01*
X3507544Y59896976D01*
X3708024Y59859500D01*
X3708026Y59859500D01*
X3911974Y59859500D01*
X3911976Y59859500D01*
X4112456Y59896976D01*
X4302637Y59970652D01*
X4476041Y60078019D01*
X4626764Y60215421D01*
X4749673Y60378179D01*
X4840582Y60560750D01*
X4896397Y60756917D01*
X4915215Y60960000D01*
X4915215Y60960001D01*
X5244785Y60960001D01*
X5244785Y60960000D01*
X5263602Y60756918D01*
X5319417Y60560753D01*
X5319422Y60560740D01*
X5410327Y60378179D01*
X5533237Y60215419D01*
X5683958Y60078020D01*
X5683960Y60078018D01*
X5783141Y60016608D01*
X5857363Y59970652D01*
X6047544Y59896976D01*
X6248024Y59859500D01*
X6248026Y59859500D01*
X6451974Y59859500D01*
X6451976Y59859500D01*
X6652456Y59896976D01*
X6842637Y59970652D01*
X7016041Y60078019D01*
X7166764Y60215421D01*
X7289673Y60378179D01*
X7380582Y60560750D01*
X7436397Y60756917D01*
X7455215Y60960000D01*
X7436397Y61163083D01*
X7380582Y61359250D01*
X7289673Y61541821D01*
X7166764Y61704579D01*
X7166762Y61704582D01*
X7016041Y61841981D01*
X7016039Y61841983D01*
X6842642Y61949345D01*
X6842635Y61949349D01*
X6747546Y61986186D01*
X6652456Y62023024D01*
X6451976Y62060500D01*
X6248024Y62060500D01*
X6047544Y62023024D01*
X6047541Y62023024D01*
X6047541Y62023023D01*
X5857364Y61949349D01*
X5857357Y61949345D01*
X5683960Y61841983D01*
X5683958Y61841981D01*
X5533237Y61704582D01*
X5410327Y61541822D01*
X5319422Y61359261D01*
X5319417Y61359248D01*
X5263602Y61163083D01*
X5244785Y60960001D01*
X4915215Y60960001D01*
X4896397Y61163083D01*
X4840582Y61359250D01*
X4749673Y61541821D01*
X4626764Y61704579D01*
X4626762Y61704582D01*
X4476041Y61841981D01*
X4476039Y61841983D01*
X4302642Y61949345D01*
X4302635Y61949349D01*
X4207546Y61986186D01*
X4112456Y62023024D01*
X3911976Y62060500D01*
X3708024Y62060500D01*
X3507544Y62023024D01*
X3507541Y62023024D01*
X3507541Y62023023D01*
X3317364Y61949349D01*
X3317357Y61949345D01*
X3143960Y61841983D01*
X3143958Y61841981D01*
X2993237Y61704582D01*
X2870327Y61541822D01*
X2779422Y61359261D01*
X2779417Y61359248D01*
X2723602Y61163083D01*
X2704785Y60960001D01*
X25500Y60960001D01*
X25500Y63500001D01*
X2704785Y63500001D01*
X2704785Y63500000D01*
X2723602Y63296918D01*
X2779417Y63100753D01*
X2779422Y63100740D01*
X2870327Y62918179D01*
X2993237Y62755419D01*
X3143958Y62618020D01*
X3143960Y62618018D01*
X3243141Y62556608D01*
X3317363Y62510652D01*
X3507544Y62436976D01*
X3708024Y62399500D01*
X3708026Y62399500D01*
X3911974Y62399500D01*
X3911976Y62399500D01*
X4112456Y62436976D01*
X4302637Y62510652D01*
X4476041Y62618019D01*
X4626764Y62755421D01*
X4749673Y62918179D01*
X4840582Y63100750D01*
X4896397Y63296917D01*
X4915215Y63500000D01*
X4915215Y63500001D01*
X5244785Y63500001D01*
X5244785Y63500000D01*
X5263602Y63296918D01*
X5319417Y63100753D01*
X5319422Y63100740D01*
X5410327Y62918179D01*
X5533237Y62755419D01*
X5683958Y62618020D01*
X5683960Y62618018D01*
X5783141Y62556608D01*
X5857363Y62510652D01*
X6047544Y62436976D01*
X6248024Y62399500D01*
X6248026Y62399500D01*
X6451974Y62399500D01*
X6451976Y62399500D01*
X6652456Y62436976D01*
X6842637Y62510652D01*
X7016041Y62618019D01*
X7166764Y62755421D01*
X7289673Y62918179D01*
X7380582Y63100750D01*
X7436397Y63296917D01*
X7455215Y63500000D01*
X7436397Y63703083D01*
X7380582Y63899250D01*
X7289673Y64081821D01*
X7166764Y64244579D01*
X7166762Y64244582D01*
X7016041Y64381981D01*
X7016039Y64381983D01*
X6842642Y64489345D01*
X6842635Y64489349D01*
X6747546Y64526186D01*
X6652456Y64563024D01*
X6451976Y64600500D01*
X6248024Y64600500D01*
X6047544Y64563024D01*
X6047541Y64563024D01*
X6047541Y64563023D01*
X5857364Y64489349D01*
X5857357Y64489345D01*
X5683960Y64381983D01*
X5683958Y64381981D01*
X5533237Y64244582D01*
X5410327Y64081822D01*
X5319422Y63899261D01*
X5319417Y63899248D01*
X5263602Y63703083D01*
X5244785Y63500001D01*
X4915215Y63500001D01*
X4896397Y63703083D01*
X4840582Y63899250D01*
X4749673Y64081821D01*
X4626764Y64244579D01*
X4626762Y64244582D01*
X4476041Y64381981D01*
X4476039Y64381983D01*
X4302642Y64489345D01*
X4302635Y64489349D01*
X4207546Y64526186D01*
X4112456Y64563024D01*
X3911976Y64600500D01*
X3708024Y64600500D01*
X3507544Y64563024D01*
X3507541Y64563024D01*
X3507541Y64563023D01*
X3317364Y64489349D01*
X3317357Y64489345D01*
X3143960Y64381983D01*
X3143958Y64381981D01*
X2993237Y64244582D01*
X2870327Y64081822D01*
X2779422Y63899261D01*
X2779417Y63899248D01*
X2723602Y63703083D01*
X2704785Y63500001D01*
X25500Y63500001D01*
X25500Y66040001D01*
X2704785Y66040001D01*
X2704785Y66040000D01*
X2723602Y65836918D01*
X2779417Y65640753D01*
X2779422Y65640740D01*
X2870327Y65458179D01*
X2993237Y65295419D01*
X3143958Y65158020D01*
X3143960Y65158018D01*
X3243141Y65096608D01*
X3317363Y65050652D01*
X3507544Y64976976D01*
X3708024Y64939500D01*
X3708026Y64939500D01*
X3911974Y64939500D01*
X3911976Y64939500D01*
X4112456Y64976976D01*
X4302637Y65050652D01*
X4476041Y65158019D01*
X4626764Y65295421D01*
X4749673Y65458179D01*
X4840582Y65640750D01*
X4896397Y65836917D01*
X4915215Y66040000D01*
X4915215Y66040001D01*
X5244785Y66040001D01*
X5244785Y66040000D01*
X5263602Y65836918D01*
X5319417Y65640753D01*
X5319422Y65640740D01*
X5410327Y65458179D01*
X5533237Y65295419D01*
X5683958Y65158020D01*
X5683960Y65158018D01*
X5783141Y65096608D01*
X5857363Y65050652D01*
X6047544Y64976976D01*
X6248024Y64939500D01*
X6248026Y64939500D01*
X6451974Y64939500D01*
X6451976Y64939500D01*
X6652456Y64976976D01*
X6842637Y65050652D01*
X7016041Y65158019D01*
X7166764Y65295421D01*
X7289673Y65458179D01*
X7380582Y65640750D01*
X7436397Y65836917D01*
X7455215Y66040000D01*
X7436397Y66243083D01*
X7380582Y66439250D01*
X7289673Y66621821D01*
X7166764Y66784579D01*
X7166762Y66784582D01*
X7016041Y66921981D01*
X7016039Y66921983D01*
X6842642Y67029345D01*
X6842635Y67029349D01*
X6747546Y67066186D01*
X6652456Y67103024D01*
X6451976Y67140500D01*
X6248024Y67140500D01*
X6047544Y67103024D01*
X6047541Y67103024D01*
X6047541Y67103023D01*
X5857364Y67029349D01*
X5857357Y67029345D01*
X5683960Y66921983D01*
X5683958Y66921981D01*
X5533237Y66784582D01*
X5410327Y66621822D01*
X5319422Y66439261D01*
X5319417Y66439248D01*
X5263602Y66243083D01*
X5244785Y66040001D01*
X4915215Y66040001D01*
X4896397Y66243083D01*
X4840582Y66439250D01*
X4749673Y66621821D01*
X4626764Y66784579D01*
X4626762Y66784582D01*
X4476041Y66921981D01*
X4476039Y66921983D01*
X4302642Y67029345D01*
X4302635Y67029349D01*
X4207546Y67066186D01*
X4112456Y67103024D01*
X3911976Y67140500D01*
X3708024Y67140500D01*
X3507544Y67103024D01*
X3507541Y67103024D01*
X3507541Y67103023D01*
X3317364Y67029349D01*
X3317357Y67029345D01*
X3143960Y66921983D01*
X3143958Y66921981D01*
X2993237Y66784582D01*
X2870327Y66621822D01*
X2779422Y66439261D01*
X2779417Y66439248D01*
X2723602Y66243083D01*
X2704785Y66040001D01*
X25500Y66040001D01*
X25500Y68580001D01*
X2704785Y68580001D01*
X2704785Y68580000D01*
X2723602Y68376918D01*
X2779417Y68180753D01*
X2779422Y68180740D01*
X2870327Y67998179D01*
X2993237Y67835419D01*
X3143958Y67698020D01*
X3143960Y67698018D01*
X3243141Y67636608D01*
X3317363Y67590652D01*
X3507544Y67516976D01*
X3708024Y67479500D01*
X3708026Y67479500D01*
X3911974Y67479500D01*
X3911976Y67479500D01*
X4112456Y67516976D01*
X4302637Y67590652D01*
X4476041Y67698019D01*
X4626764Y67835421D01*
X4749673Y67998179D01*
X4840582Y68180750D01*
X4896397Y68376917D01*
X4915215Y68580000D01*
X4915215Y68580001D01*
X5244785Y68580001D01*
X5244785Y68580000D01*
X5263602Y68376918D01*
X5319417Y68180753D01*
X5319422Y68180740D01*
X5410327Y67998179D01*
X5533237Y67835419D01*
X5683958Y67698020D01*
X5683960Y67698018D01*
X5783141Y67636608D01*
X5857363Y67590652D01*
X6047544Y67516976D01*
X6248024Y67479500D01*
X6248026Y67479500D01*
X6451974Y67479500D01*
X6451976Y67479500D01*
X6652456Y67516976D01*
X6842637Y67590652D01*
X7016041Y67698019D01*
X7166764Y67835421D01*
X7289673Y67998179D01*
X7380582Y68180750D01*
X7436397Y68376917D01*
X7455215Y68580000D01*
X7436397Y68783083D01*
X7380582Y68979250D01*
X7289673Y69161821D01*
X7166764Y69324579D01*
X7166762Y69324582D01*
X7016041Y69461981D01*
X7016039Y69461983D01*
X6842642Y69569345D01*
X6842635Y69569349D01*
X6747546Y69606186D01*
X6652456Y69643024D01*
X6451976Y69680500D01*
X6248024Y69680500D01*
X6047544Y69643024D01*
X6047541Y69643024D01*
X6047541Y69643023D01*
X5857364Y69569349D01*
X5857357Y69569345D01*
X5683960Y69461983D01*
X5683958Y69461981D01*
X5533237Y69324582D01*
X5410327Y69161822D01*
X5319422Y68979261D01*
X5319417Y68979248D01*
X5263602Y68783083D01*
X5244785Y68580001D01*
X4915215Y68580001D01*
X4896397Y68783083D01*
X4840582Y68979250D01*
X4749673Y69161821D01*
X4626764Y69324579D01*
X4626762Y69324582D01*
X4476041Y69461981D01*
X4476039Y69461983D01*
X4302642Y69569345D01*
X4302635Y69569349D01*
X4207546Y69606186D01*
X4112456Y69643024D01*
X3911976Y69680500D01*
X3708024Y69680500D01*
X3507544Y69643024D01*
X3507541Y69643024D01*
X3507541Y69643023D01*
X3317364Y69569349D01*
X3317357Y69569345D01*
X3143960Y69461983D01*
X3143958Y69461981D01*
X2993237Y69324582D01*
X2870327Y69161822D01*
X2779422Y68979261D01*
X2779417Y68979248D01*
X2723602Y68783083D01*
X2704785Y68580001D01*
X25500Y68580001D01*
X25500Y71994679D01*
X2709500Y71994679D01*
X2709500Y70245322D01*
X2724032Y70172265D01*
X2724033Y70172261D01*
X2724034Y70172260D01*
X2779399Y70089399D01*
X2862260Y70034034D01*
X2862264Y70034033D01*
X2935321Y70019501D01*
X2935324Y70019500D01*
X2935326Y70019500D01*
X4684676Y70019500D01*
X4684677Y70019501D01*
X4757740Y70034034D01*
X4840601Y70089399D01*
X4895966Y70172260D01*
X4910500Y70245326D01*
X4910500Y71120001D01*
X5244785Y71120001D01*
X5244785Y71120000D01*
X5263602Y70916918D01*
X5319417Y70720753D01*
X5319422Y70720740D01*
X5410327Y70538179D01*
X5533237Y70375419D01*
X5683958Y70238020D01*
X5683960Y70238018D01*
X5783141Y70176608D01*
X5857363Y70130652D01*
X6047544Y70056976D01*
X6248024Y70019500D01*
X6248026Y70019500D01*
X6451974Y70019500D01*
X6451976Y70019500D01*
X6652456Y70056976D01*
X6842637Y70130652D01*
X7016041Y70238019D01*
X7166764Y70375421D01*
X7289673Y70538179D01*
X7380582Y70720750D01*
X7436397Y70916917D01*
X7455215Y71120000D01*
X7436397Y71323083D01*
X7380582Y71519250D01*
X7289673Y71701821D01*
X7166764Y71864579D01*
X7166762Y71864582D01*
X7016041Y72001981D01*
X7016039Y72001983D01*
X6842642Y72109345D01*
X6842635Y72109349D01*
X6736150Y72150601D01*
X6652456Y72183024D01*
X6451976Y72220500D01*
X6248024Y72220500D01*
X6047544Y72183024D01*
X6047541Y72183024D01*
X6047541Y72183023D01*
X5857364Y72109349D01*
X5857357Y72109345D01*
X5683960Y72001983D01*
X5683958Y72001981D01*
X5533237Y71864582D01*
X5410327Y71701822D01*
X5319422Y71519261D01*
X5319417Y71519248D01*
X5263602Y71323083D01*
X5244785Y71120001D01*
X4910500Y71120001D01*
X4910500Y71994674D01*
X4910500Y71994677D01*
X4910499Y71994679D01*
X4895967Y72067736D01*
X4895966Y72067740D01*
X4840601Y72150601D01*
X4757740Y72205966D01*
X4757739Y72205967D01*
X4757735Y72205968D01*
X4684677Y72220500D01*
X4684674Y72220500D01*
X2935326Y72220500D01*
X2935323Y72220500D01*
X2862264Y72205968D01*
X2862260Y72205967D01*
X2779399Y72150601D01*
X2724033Y72067740D01*
X2724032Y72067736D01*
X2709500Y71994679D01*
X25500Y71994679D01*
X25500Y73510500D01*
X45185Y73577539D01*
X97989Y73623294D01*
X149500Y73634500D01*
X10010500Y73634500D01*
X10077539Y73614815D01*
G37*
%TD.AperFunction*%
%TA.AperFunction,Conductor*%
G36*
X38292082Y2835790D02*
G01*
X38311301Y2824387D01*
X38360688Y2803931D01*
X38388722Y2787746D01*
X38393512Y2784071D01*
X38424445Y2760335D01*
X38447333Y2737447D01*
X38474741Y2701729D01*
X38490929Y2673691D01*
X38508160Y2632088D01*
X38516536Y2600825D01*
X38522413Y2556187D01*
X38522413Y2523815D01*
X38516536Y2479177D01*
X38508160Y2447914D01*
X38490929Y2406311D01*
X38474741Y2378272D01*
X38447335Y2342557D01*
X38424448Y2319670D01*
X38388725Y2292258D01*
X38360691Y2276073D01*
X38304060Y2252616D01*
X38286918Y2243056D01*
X38218780Y2227599D01*
X38163258Y2244713D01*
X38160767Y2246191D01*
X38149943Y2252613D01*
X38093305Y2276074D01*
X38065272Y2292259D01*
X38029555Y2319666D01*
X38006667Y2342554D01*
X37979254Y2378279D01*
X37963068Y2406314D01*
X37945840Y2447907D01*
X37937462Y2479172D01*
X37931584Y2523823D01*
X37931584Y2556180D01*
X37937462Y2600834D01*
X37945838Y2632093D01*
X37963069Y2673692D01*
X37979250Y2701719D01*
X38006669Y2737451D01*
X38029548Y2760330D01*
X38065283Y2787750D01*
X38093309Y2803930D01*
X38142699Y2824387D01*
X38151047Y2828021D01*
X38159100Y2831698D01*
X38159919Y2832246D01*
X38160288Y2832361D01*
X38163452Y2834125D01*
X38163819Y2833467D01*
X38226591Y2853126D01*
X38292082Y2835790D01*
G37*
%TD.AperFunction*%
%TA.AperFunction,Conductor*%
G36*
X17668319Y3142707D02*
G01*
X17672860Y3139223D01*
X17697223Y3120528D01*
X17738425Y3064099D01*
X17742579Y2994353D01*
X17738178Y2979526D01*
X17737191Y2976833D01*
X17737188Y2976821D01*
X17726424Y2907794D01*
X17726424Y2907790D01*
X17725559Y2835073D01*
X17725823Y2830647D01*
X17725413Y2830623D01*
X17725413Y2803811D01*
X17719536Y2759176D01*
X17711160Y2727914D01*
X17693929Y2686311D01*
X17677741Y2658273D01*
X17650333Y2622555D01*
X17627445Y2599667D01*
X17591728Y2572260D01*
X17563694Y2556074D01*
X17524893Y2540002D01*
X17524871Y2539993D01*
X17522069Y2538833D01*
X17490824Y2530464D01*
X17446186Y2524587D01*
X17413815Y2524587D01*
X17369173Y2530464D01*
X17337909Y2538841D01*
X17296304Y2556073D01*
X17268273Y2572258D01*
X17232556Y2599665D01*
X17209668Y2622553D01*
X17182254Y2658279D01*
X17166068Y2686314D01*
X17165050Y2688771D01*
X17148838Y2727910D01*
X17140461Y2759175D01*
X17140461Y2759176D01*
X17134584Y2803821D01*
X17134584Y2836179D01*
X17140462Y2880832D01*
X17148840Y2912094D01*
X17166069Y2953689D01*
X17182253Y2981721D01*
X17186865Y2987733D01*
X17209666Y3017448D01*
X17232552Y3040334D01*
X17268279Y3067747D01*
X17296309Y3083930D01*
X17314977Y3091664D01*
X17337904Y3101160D01*
X17369179Y3109539D01*
X17376562Y3110510D01*
X17411722Y3115139D01*
X17464808Y3128018D01*
X17514416Y3145852D01*
X17539618Y3156467D01*
X17539617Y3156467D01*
X17544699Y3158607D01*
X17614122Y3166490D01*
X17668319Y3142707D01*
G37*
%TD.AperFunction*%
%TA.AperFunction,Conductor*%
G36*
X23345246Y3395103D02*
G01*
X23355549Y3391085D01*
X23409423Y3367251D01*
X23409425Y3367251D01*
X23409426Y3367250D01*
X23466767Y3351153D01*
X23479443Y3347594D01*
X23497269Y3345248D01*
X23497273Y3345246D01*
X23543541Y3339156D01*
X23543541Y3339155D01*
X23555826Y3337538D01*
X23587088Y3329162D01*
X23628691Y3311930D01*
X23656721Y3295746D01*
X23692447Y3268332D01*
X23715336Y3245443D01*
X23742741Y3209728D01*
X23758927Y3181694D01*
X23776159Y3140091D01*
X23784536Y3108828D01*
X23785546Y3101159D01*
X23790414Y3064187D01*
X23790414Y3031815D01*
X23784536Y2987175D01*
X23776160Y2955914D01*
X23758929Y2914311D01*
X23742741Y2886273D01*
X23715333Y2850555D01*
X23692445Y2827667D01*
X23656727Y2800259D01*
X23628690Y2784072D01*
X23587088Y2766841D01*
X23555824Y2758464D01*
X23511186Y2752587D01*
X23478815Y2752587D01*
X23434173Y2758464D01*
X23402909Y2766841D01*
X23361304Y2784073D01*
X23333273Y2800258D01*
X23297556Y2827665D01*
X23274668Y2850553D01*
X23247254Y2886279D01*
X23231068Y2914314D01*
X23213840Y2955907D01*
X23205462Y2987175D01*
X23199585Y3031819D01*
X23199585Y3064192D01*
X23200230Y3069090D01*
X23202275Y3084620D01*
X23203575Y3139227D01*
X23199189Y3191760D01*
X23195458Y3218854D01*
X23190546Y3230914D01*
X23183491Y3300425D01*
X23215137Y3362717D01*
X23275437Y3398011D01*
X23345246Y3395103D01*
G37*
%TD.AperFunction*%
%TA.AperFunction,Conductor*%
G36*
X38265503Y4102476D02*
G01*
X38265504Y4102476D01*
X38287833Y4099537D01*
X38319092Y4091161D01*
X38360687Y4073932D01*
X38388721Y4057746D01*
X38424447Y4030332D01*
X38447333Y4007447D01*
X38474743Y3971726D01*
X38490929Y3943691D01*
X38508160Y3902088D01*
X38516536Y3870825D01*
X38522413Y3826187D01*
X38522413Y3793815D01*
X38516536Y3749177D01*
X38508160Y3717914D01*
X38490929Y3676311D01*
X38474741Y3648273D01*
X38447333Y3612555D01*
X38424444Y3589666D01*
X38388726Y3562259D01*
X38360695Y3546075D01*
X38311316Y3525621D01*
X38302951Y3521979D01*
X38294899Y3518303D01*
X38294890Y3518297D01*
X38294055Y3517739D01*
X38293678Y3517622D01*
X38290547Y3515875D01*
X38290183Y3516528D01*
X38227373Y3496875D01*
X38161914Y3514213D01*
X38142703Y3525611D01*
X38142693Y3525616D01*
X38093305Y3546074D01*
X38065272Y3562259D01*
X38029555Y3589666D01*
X38006667Y3612554D01*
X37979254Y3648279D01*
X37963068Y3676314D01*
X37961823Y3679319D01*
X37945838Y3717910D01*
X37937461Y3749175D01*
X37937461Y3749177D01*
X37931584Y3793821D01*
X37931584Y3826179D01*
X37937462Y3870832D01*
X37945840Y3902094D01*
X37963069Y3943689D01*
X37979253Y3971721D01*
X37983865Y3977733D01*
X38006666Y4007448D01*
X38029552Y4030334D01*
X38059267Y4053135D01*
X38065279Y4057747D01*
X38093308Y4073931D01*
X38134907Y4091162D01*
X38166168Y4099538D01*
X38210813Y4105415D01*
X38243183Y4105415D01*
X38265503Y4102476D01*
G37*
%TD.AperFunction*%
%TA.AperFunction,Conductor*%
G36*
X11595503Y4229476D02*
G01*
X11595504Y4229476D01*
X11617833Y4226537D01*
X11649092Y4218161D01*
X11690687Y4200932D01*
X11718721Y4184746D01*
X11754447Y4157332D01*
X11777333Y4134447D01*
X11804743Y4098726D01*
X11820929Y4070691D01*
X11838160Y4029088D01*
X11846536Y3997825D01*
X11852413Y3953187D01*
X11852413Y3920815D01*
X11846536Y3876177D01*
X11838160Y3844914D01*
X11820929Y3803311D01*
X11804741Y3775273D01*
X11777333Y3739555D01*
X11754445Y3716667D01*
X11718727Y3689259D01*
X11690690Y3673072D01*
X11649088Y3655841D01*
X11617824Y3647464D01*
X11573186Y3641587D01*
X11540815Y3641587D01*
X11496173Y3647464D01*
X11464909Y3655841D01*
X11423304Y3673073D01*
X11395273Y3689258D01*
X11359556Y3716665D01*
X11336668Y3739553D01*
X11309254Y3775279D01*
X11293068Y3803314D01*
X11275840Y3844907D01*
X11267462Y3876172D01*
X11261584Y3920823D01*
X11261584Y3953180D01*
X11267462Y3997834D01*
X11275838Y4029093D01*
X11293069Y4070692D01*
X11309253Y4098721D01*
X11316024Y4107546D01*
X11336666Y4134448D01*
X11359552Y4157334D01*
X11389267Y4180135D01*
X11395279Y4184747D01*
X11423308Y4200931D01*
X11464907Y4218162D01*
X11496168Y4226538D01*
X11540813Y4232415D01*
X11573183Y4232415D01*
X11595503Y4229476D01*
G37*
%TD.AperFunction*%
%TA.AperFunction,Conductor*%
G36*
X39154503Y5372476D02*
G01*
X39154504Y5372476D01*
X39176833Y5369537D01*
X39208092Y5361161D01*
X39249687Y5343932D01*
X39277721Y5327746D01*
X39313447Y5300332D01*
X39336333Y5277447D01*
X39363743Y5241726D01*
X39379929Y5213691D01*
X39397160Y5172088D01*
X39405536Y5140825D01*
X39411413Y5096187D01*
X39411413Y5063815D01*
X39405536Y5019177D01*
X39397160Y4987914D01*
X39379929Y4946311D01*
X39363741Y4918273D01*
X39336333Y4882555D01*
X39313445Y4859667D01*
X39277727Y4832259D01*
X39249690Y4816072D01*
X39208088Y4798841D01*
X39176824Y4790464D01*
X39132185Y4784587D01*
X39099814Y4784587D01*
X39055172Y4790464D01*
X39023905Y4798842D01*
X38986395Y4814379D01*
X38986372Y4814390D01*
X38986372Y4814389D01*
X38982293Y4816079D01*
X38980871Y4816900D01*
X38978393Y4818031D01*
X38978381Y4818037D01*
X38978497Y4818271D01*
X38954269Y4832261D01*
X38918556Y4859665D01*
X38895668Y4882553D01*
X38868254Y4918279D01*
X38852068Y4946314D01*
X38834839Y4987909D01*
X38826461Y5019175D01*
X38826461Y5019177D01*
X38820584Y5063821D01*
X38820584Y5096179D01*
X38826462Y5140832D01*
X38834840Y5172094D01*
X38852069Y5213689D01*
X38868253Y5241721D01*
X38872865Y5247733D01*
X38895666Y5277448D01*
X38918552Y5300334D01*
X38948267Y5323135D01*
X38954279Y5327747D01*
X38982308Y5343931D01*
X39023907Y5361162D01*
X39055168Y5369538D01*
X39099813Y5375415D01*
X39132183Y5375415D01*
X39154503Y5372476D01*
G37*
%TD.AperFunction*%
%TA.AperFunction,Conductor*%
G36*
X20485503Y6134476D02*
G01*
X20485504Y6134476D01*
X20507833Y6131537D01*
X20539092Y6123161D01*
X20580687Y6105932D01*
X20608721Y6089746D01*
X20644447Y6062332D01*
X20667333Y6039447D01*
X20694743Y6003726D01*
X20710929Y5975691D01*
X20728160Y5934088D01*
X20736536Y5902825D01*
X20742413Y5858187D01*
X20742413Y5825815D01*
X20736536Y5781177D01*
X20728160Y5749914D01*
X20710929Y5708311D01*
X20694741Y5680273D01*
X20667333Y5644555D01*
X20644445Y5621667D01*
X20608727Y5594259D01*
X20580690Y5578072D01*
X20539088Y5560841D01*
X20507824Y5552464D01*
X20463185Y5546587D01*
X20430814Y5546587D01*
X20386172Y5552464D01*
X20354905Y5560842D01*
X20317395Y5576379D01*
X20317372Y5576390D01*
X20317372Y5576389D01*
X20313293Y5578079D01*
X20311871Y5578900D01*
X20309393Y5580031D01*
X20309381Y5580037D01*
X20309497Y5580271D01*
X20285269Y5594261D01*
X20249556Y5621665D01*
X20226668Y5644553D01*
X20199254Y5680279D01*
X20183068Y5708314D01*
X20165840Y5749907D01*
X20157462Y5781172D01*
X20151584Y5825823D01*
X20151584Y5858180D01*
X20157462Y5902834D01*
X20165838Y5934093D01*
X20183069Y5975692D01*
X20199253Y6003721D01*
X20206068Y6012603D01*
X20226666Y6039448D01*
X20249552Y6062334D01*
X20279267Y6085135D01*
X20285279Y6089747D01*
X20313308Y6105931D01*
X20354907Y6123162D01*
X20386168Y6131538D01*
X20430813Y6137415D01*
X20463183Y6137415D01*
X20485503Y6134476D01*
G37*
%TD.AperFunction*%
%TA.AperFunction,Conductor*%
G36*
X17437503Y7150476D02*
G01*
X17437504Y7150476D01*
X17459833Y7147537D01*
X17491092Y7139161D01*
X17532687Y7121932D01*
X17560721Y7105746D01*
X17596447Y7078332D01*
X17619333Y7055447D01*
X17646743Y7019726D01*
X17662929Y6991691D01*
X17680160Y6950088D01*
X17688536Y6918825D01*
X17694413Y6874188D01*
X17694414Y6841820D01*
X17691724Y6821387D01*
X17691723Y6821381D01*
X17690424Y6766779D01*
X17690424Y6766773D01*
X17694809Y6714250D01*
X17698540Y6687151D01*
X17698540Y6687150D01*
X17703453Y6675087D01*
X17710507Y6605574D01*
X17678860Y6543282D01*
X17618560Y6507989D01*
X17548751Y6510899D01*
X17538455Y6514915D01*
X17484572Y6538751D01*
X17484570Y6538752D01*
X17484567Y6538753D01*
X17414559Y6558407D01*
X17414553Y6558408D01*
X17338171Y6568464D01*
X17306905Y6576842D01*
X17269395Y6592379D01*
X17269372Y6592390D01*
X17269372Y6592389D01*
X17265293Y6594079D01*
X17263871Y6594900D01*
X17261393Y6596031D01*
X17261381Y6596037D01*
X17261497Y6596271D01*
X17237269Y6610261D01*
X17201556Y6637665D01*
X17178668Y6660553D01*
X17151254Y6696279D01*
X17135068Y6724314D01*
X17117840Y6765907D01*
X17109462Y6797174D01*
X17107563Y6811602D01*
X17106204Y6821925D01*
X17103585Y6841816D01*
X17103585Y6874187D01*
X17109462Y6918827D01*
X17117840Y6950094D01*
X17135069Y6991689D01*
X17151253Y7019721D01*
X17155865Y7025733D01*
X17178666Y7055448D01*
X17201552Y7078334D01*
X17231267Y7101135D01*
X17237279Y7105747D01*
X17265308Y7121931D01*
X17306907Y7139162D01*
X17338168Y7147538D01*
X17382813Y7153415D01*
X17415183Y7153415D01*
X17437503Y7150476D01*
G37*
%TD.AperFunction*%
%TA.AperFunction,Conductor*%
G36*
X14389503Y7150476D02*
G01*
X14389504Y7150476D01*
X14411833Y7147537D01*
X14443092Y7139161D01*
X14484687Y7121932D01*
X14512721Y7105746D01*
X14548447Y7078332D01*
X14571333Y7055447D01*
X14598743Y7019726D01*
X14614929Y6991691D01*
X14632160Y6950088D01*
X14640536Y6918828D01*
X14643011Y6900032D01*
X14646414Y6874188D01*
X14646414Y6841814D01*
X14640536Y6797174D01*
X14632159Y6765912D01*
X14614928Y6724310D01*
X14598741Y6696273D01*
X14571334Y6660556D01*
X14548446Y6637668D01*
X14512730Y6610261D01*
X14512726Y6610258D01*
X14484693Y6594074D01*
X14425485Y6569549D01*
X14417112Y6565904D01*
X14417098Y6565898D01*
X14417092Y6565895D01*
X14409065Y6562229D01*
X14409062Y6562228D01*
X14404532Y6560158D01*
X14403634Y6562124D01*
X14344313Y6548695D01*
X14304663Y6557888D01*
X14276508Y6569550D01*
X14276509Y6569550D01*
X14229979Y6588823D01*
X14229978Y6588824D01*
X14217304Y6594074D01*
X14189272Y6610259D01*
X14153555Y6637666D01*
X14130667Y6660554D01*
X14103254Y6696279D01*
X14087068Y6724314D01*
X14069840Y6765907D01*
X14061462Y6797174D01*
X14059563Y6811602D01*
X14058204Y6821925D01*
X14055585Y6841816D01*
X14055585Y6874187D01*
X14061462Y6918827D01*
X14069840Y6950094D01*
X14087069Y6991689D01*
X14103253Y7019721D01*
X14107865Y7025733D01*
X14130666Y7055448D01*
X14153552Y7078334D01*
X14183267Y7101135D01*
X14189279Y7105747D01*
X14217308Y7121931D01*
X14258907Y7139162D01*
X14290168Y7147538D01*
X14334813Y7153415D01*
X14367183Y7153415D01*
X14389503Y7150476D01*
G37*
%TD.AperFunction*%
%TA.AperFunction,Conductor*%
G36*
X37769153Y14508904D02*
G01*
X37823093Y14464495D01*
X37844461Y14397972D01*
X37844500Y14394848D01*
X37844500Y13545153D01*
X37824815Y13478114D01*
X37772011Y13432359D01*
X37702853Y13422415D01*
X37639297Y13451440D01*
X37636962Y13453516D01*
X37496042Y13581981D01*
X37496039Y13581983D01*
X37322642Y13689345D01*
X37322635Y13689349D01*
X37227546Y13726186D01*
X37132456Y13763024D01*
X36931976Y13800500D01*
X36728024Y13800500D01*
X36527544Y13763024D01*
X36527541Y13763024D01*
X36527541Y13763023D01*
X36337364Y13689349D01*
X36337357Y13689345D01*
X36163960Y13581983D01*
X36163958Y13581981D01*
X36013237Y13444582D01*
X35890327Y13281822D01*
X35799422Y13099261D01*
X35799417Y13099248D01*
X35743602Y12903083D01*
X35724785Y12700001D01*
X35724785Y12700000D01*
X35743602Y12496918D01*
X35799418Y12300747D01*
X35804741Y12290059D01*
X35817002Y12221274D01*
X35790129Y12156779D01*
X35781422Y12147106D01*
X32784137Y9149819D01*
X32722814Y9116334D01*
X32696456Y9113500D01*
X32400935Y9113500D01*
X32333896Y9133185D01*
X32288141Y9185989D01*
X32277996Y9253686D01*
X32281200Y9278018D01*
X32296996Y9398000D01*
X32278076Y9541709D01*
X32222607Y9675625D01*
X32134367Y9790621D01*
X32019371Y9878861D01*
X32019370Y9878862D01*
X32019368Y9878863D01*
X31885458Y9934329D01*
X31885456Y9934330D01*
X31885455Y9934330D01*
X31813600Y9943790D01*
X31741747Y9953250D01*
X31741745Y9953250D01*
X31598037Y9934330D01*
X31598033Y9934329D01*
X31464123Y9878863D01*
X31349125Y9790621D01*
X31260883Y9675623D01*
X31205417Y9541713D01*
X31205416Y9541710D01*
X31205416Y9541709D01*
X31200217Y9502221D01*
X31194791Y9461006D01*
X31166524Y9397110D01*
X31108199Y9358639D01*
X31038335Y9357808D01*
X30984171Y9389511D01*
X29451681Y10922001D01*
X31194750Y10922001D01*
X31194750Y10922000D01*
X31213670Y10778292D01*
X31213671Y10778288D01*
X31269137Y10644378D01*
X31269138Y10644376D01*
X31269139Y10644375D01*
X31357379Y10529379D01*
X31472375Y10441139D01*
X31606291Y10385670D01*
X31733280Y10368952D01*
X31749999Y10366750D01*
X31750000Y10366750D01*
X31750001Y10366750D01*
X31764977Y10368722D01*
X31893709Y10385670D01*
X32027625Y10441139D01*
X32142621Y10529379D01*
X32230861Y10644375D01*
X32286330Y10778291D01*
X32305250Y10922000D01*
X32286330Y11065709D01*
X32230861Y11199625D01*
X32142621Y11314621D01*
X32027625Y11402861D01*
X32027624Y11402862D01*
X32027622Y11402863D01*
X31893712Y11458329D01*
X31893710Y11458330D01*
X31893709Y11458330D01*
X31821854Y11467790D01*
X31750001Y11477250D01*
X31749999Y11477250D01*
X31606291Y11458330D01*
X31606287Y11458329D01*
X31472377Y11402863D01*
X31357379Y11314621D01*
X31269137Y11199623D01*
X31213671Y11065713D01*
X31213670Y11065709D01*
X31194750Y10922001D01*
X29451681Y10922001D01*
X27927681Y12446001D01*
X31194750Y12446001D01*
X31194750Y12446000D01*
X31213670Y12302292D01*
X31213671Y12302288D01*
X31269137Y12168378D01*
X31269138Y12168376D01*
X31269139Y12168375D01*
X31357379Y12053379D01*
X31472375Y11965139D01*
X31472376Y11965139D01*
X31472377Y11965138D01*
X31515897Y11947112D01*
X31606291Y11909670D01*
X31733280Y11892952D01*
X31749999Y11890750D01*
X31750000Y11890750D01*
X31750001Y11890750D01*
X31764977Y11892722D01*
X31893709Y11909670D01*
X32027625Y11965139D01*
X32142621Y12053379D01*
X32230861Y12168375D01*
X32286330Y12302291D01*
X32305250Y12446000D01*
X32286330Y12589709D01*
X32230861Y12723625D01*
X32142621Y12838621D01*
X32027625Y12926861D01*
X32027624Y12926862D01*
X32027622Y12926863D01*
X31893712Y12982329D01*
X31893710Y12982330D01*
X31893709Y12982330D01*
X31821854Y12991790D01*
X31750001Y13001250D01*
X31749999Y13001250D01*
X31606291Y12982330D01*
X31606287Y12982329D01*
X31472377Y12926863D01*
X31357379Y12838621D01*
X31269137Y12723623D01*
X31213671Y12589713D01*
X31213670Y12589709D01*
X31194750Y12446001D01*
X27927681Y12446001D01*
X26345863Y14027819D01*
X26312378Y14089142D01*
X26317362Y14158834D01*
X26359234Y14214767D01*
X26424698Y14239184D01*
X26433544Y14239500D01*
X29100800Y14239500D01*
X29167839Y14219815D01*
X29213594Y14167011D01*
X29223538Y14097853D01*
X29215361Y14068048D01*
X29181671Y13986713D01*
X29181670Y13986709D01*
X29162750Y13843001D01*
X29162750Y13843000D01*
X29181670Y13699292D01*
X29181671Y13699288D01*
X29237137Y13565378D01*
X29237138Y13565376D01*
X29237139Y13565375D01*
X29325379Y13450379D01*
X29440375Y13362139D01*
X29574291Y13306670D01*
X29701280Y13289952D01*
X29717999Y13287750D01*
X29718000Y13287750D01*
X29718001Y13287750D01*
X29732977Y13289722D01*
X29861709Y13306670D01*
X29995625Y13362139D01*
X30110621Y13450379D01*
X30198861Y13565375D01*
X30254330Y13699291D01*
X30273250Y13843000D01*
X30254330Y13986709D01*
X30220639Y14068048D01*
X30213170Y14137517D01*
X30244446Y14199996D01*
X30304535Y14235648D01*
X30335200Y14239500D01*
X30624800Y14239500D01*
X30691839Y14219815D01*
X30737594Y14167011D01*
X30747538Y14097853D01*
X30739361Y14068048D01*
X30705671Y13986713D01*
X30705670Y13986709D01*
X30686750Y13843001D01*
X30686750Y13843000D01*
X30705670Y13699292D01*
X30705671Y13699288D01*
X30761137Y13565378D01*
X30761138Y13565376D01*
X30761139Y13565375D01*
X30849379Y13450379D01*
X30964375Y13362139D01*
X31098291Y13306670D01*
X31225280Y13289952D01*
X31241999Y13287750D01*
X31242000Y13287750D01*
X31242001Y13287750D01*
X31256977Y13289722D01*
X31385709Y13306670D01*
X31519625Y13362139D01*
X31634621Y13450379D01*
X31722861Y13565375D01*
X31778330Y13699291D01*
X31797250Y13843000D01*
X31778330Y13986709D01*
X31744639Y14068048D01*
X31737170Y14137517D01*
X31768446Y14199996D01*
X31828535Y14235648D01*
X31859200Y14239500D01*
X36342969Y14239500D01*
X36387763Y14231127D01*
X36527544Y14176976D01*
X36728024Y14139500D01*
X36728026Y14139500D01*
X36931974Y14139500D01*
X36931976Y14139500D01*
X37132456Y14176976D01*
X37322637Y14250652D01*
X37496041Y14358019D01*
X37636962Y14486485D01*
X37699766Y14517102D01*
X37769153Y14508904D01*
G37*
%TD.AperFunction*%
%TA.AperFunction,Conductor*%
G36*
X28486503Y27470476D02*
G01*
X28486504Y27470476D01*
X28508833Y27467537D01*
X28540092Y27459161D01*
X28581687Y27441932D01*
X28609721Y27425746D01*
X28645446Y27398333D01*
X28668334Y27375445D01*
X28695741Y27339728D01*
X28711926Y27311695D01*
X28735387Y27255057D01*
X28744730Y27238303D01*
X28744942Y27237924D01*
X28760401Y27169786D01*
X28743289Y27114264D01*
X28735392Y27100954D01*
X28735383Y27100935D01*
X28711927Y27044308D01*
X28695742Y27016275D01*
X28668332Y26980554D01*
X28645444Y26957666D01*
X28609727Y26930259D01*
X28581690Y26914072D01*
X28540088Y26896841D01*
X28508824Y26888464D01*
X28464186Y26882587D01*
X28431815Y26882587D01*
X28387173Y26888464D01*
X28355908Y26896841D01*
X28314304Y26914073D01*
X28286273Y26930258D01*
X28250556Y26957665D01*
X28227668Y26980553D01*
X28200254Y27016279D01*
X28184068Y27044314D01*
X28183919Y27044673D01*
X28166839Y27085908D01*
X28158462Y27117174D01*
X28156563Y27131602D01*
X28152585Y27161815D01*
X28152585Y27194186D01*
X28155050Y27212912D01*
X28158462Y27238828D01*
X28166840Y27270094D01*
X28184069Y27311689D01*
X28200253Y27339721D01*
X28214416Y27358179D01*
X28227666Y27375448D01*
X28250552Y27398334D01*
X28280267Y27421135D01*
X28286279Y27425747D01*
X28314308Y27441931D01*
X28355907Y27459162D01*
X28387168Y27467538D01*
X28431813Y27473415D01*
X28464183Y27473415D01*
X28486503Y27470476D01*
G37*
%TD.AperFunction*%
%TA.AperFunction,Conductor*%
G36*
X26962503Y27597476D02*
G01*
X26962504Y27597476D01*
X26984833Y27594537D01*
X27016092Y27586161D01*
X27057687Y27568932D01*
X27085721Y27552746D01*
X27121447Y27525332D01*
X27144333Y27502447D01*
X27171743Y27466726D01*
X27187929Y27438691D01*
X27205160Y27397088D01*
X27213536Y27365825D01*
X27219413Y27321187D01*
X27219413Y27288815D01*
X27213536Y27244176D01*
X27205159Y27212912D01*
X27190699Y27178000D01*
X27190695Y27177990D01*
X27187923Y27171299D01*
X27171740Y27143272D01*
X27144333Y27107555D01*
X27121445Y27084667D01*
X27085727Y27057259D01*
X27057690Y27041072D01*
X27016088Y27023841D01*
X26984824Y27015464D01*
X26940186Y27009587D01*
X26907815Y27009587D01*
X26863173Y27015464D01*
X26831908Y27023841D01*
X26790304Y27041073D01*
X26762273Y27057258D01*
X26726556Y27084665D01*
X26703668Y27107552D01*
X26685208Y27131609D01*
X26676255Y27143277D01*
X26660070Y27171311D01*
X26613950Y27282657D01*
X26612602Y27286052D01*
X26604419Y27307597D01*
X26604416Y27307601D01*
X26604416Y27307603D01*
X26568769Y27367679D01*
X26568765Y27367686D01*
X26557070Y27383902D01*
X26533824Y27449788D01*
X26549889Y27517785D01*
X26600165Y27566304D01*
X26668690Y27579938D01*
X26726002Y27574807D01*
X26795472Y27582273D01*
X26815442Y27587371D01*
X26829909Y27590159D01*
X26907813Y27600415D01*
X26940183Y27600415D01*
X26962503Y27597476D01*
G37*
%TD.AperFunction*%
%TA.AperFunction,Conductor*%
G36*
X28613503Y31280476D02*
G01*
X28613504Y31280476D01*
X28635833Y31277537D01*
X28667092Y31269161D01*
X28708687Y31251932D01*
X28736721Y31235746D01*
X28772447Y31208332D01*
X28795333Y31185447D01*
X28822743Y31149726D01*
X28838929Y31121691D01*
X28856160Y31080088D01*
X28864536Y31048825D01*
X28870413Y31004187D01*
X28870413Y30971815D01*
X28864536Y30927177D01*
X28856160Y30895914D01*
X28838929Y30854311D01*
X28822741Y30826273D01*
X28795333Y30790555D01*
X28772445Y30767667D01*
X28736727Y30740259D01*
X28708690Y30724072D01*
X28667088Y30706841D01*
X28635824Y30698464D01*
X28591185Y30692587D01*
X28558814Y30692587D01*
X28514172Y30698464D01*
X28482905Y30706842D01*
X28445395Y30722379D01*
X28445372Y30722390D01*
X28445372Y30722389D01*
X28441293Y30724079D01*
X28439871Y30724900D01*
X28437393Y30726031D01*
X28437381Y30726037D01*
X28437497Y30726271D01*
X28413269Y30740261D01*
X28377556Y30767665D01*
X28354668Y30790553D01*
X28327254Y30826279D01*
X28311068Y30854314D01*
X28300934Y30878779D01*
X28293839Y30895908D01*
X28285462Y30927177D01*
X28283563Y30941602D01*
X28279585Y30971815D01*
X28279585Y31004186D01*
X28285462Y31048827D01*
X28293840Y31080094D01*
X28311069Y31121689D01*
X28327253Y31149721D01*
X28331865Y31155733D01*
X28354666Y31185448D01*
X28377552Y31208334D01*
X28407933Y31231645D01*
X28413279Y31235747D01*
X28441308Y31251931D01*
X28482907Y31269162D01*
X28514168Y31277538D01*
X28558813Y31283415D01*
X28591183Y31283415D01*
X28613503Y31280476D01*
G37*
%TD.AperFunction*%
%TA.AperFunction,Conductor*%
G36*
X26585276Y40295834D02*
G01*
X26585277Y40295834D01*
X26607606Y40292895D01*
X26638865Y40284519D01*
X26680460Y40267290D01*
X26708494Y40251104D01*
X26744220Y40223690D01*
X26767106Y40200805D01*
X26794516Y40165084D01*
X26810702Y40137049D01*
X26827933Y40095446D01*
X26836309Y40064183D01*
X26842186Y40019545D01*
X26842186Y39987173D01*
X26836309Y39942535D01*
X26827932Y39911269D01*
X26810700Y39869666D01*
X26794515Y39841633D01*
X26764663Y39802728D01*
X26746657Y39783786D01*
X26740264Y39778346D01*
X26740249Y39778332D01*
X26722025Y39761161D01*
X26719773Y39758018D01*
X26664826Y39681342D01*
X26659289Y39669216D01*
X26613532Y39616414D01*
X26546492Y39596732D01*
X26479453Y39616419D01*
X26434011Y39668550D01*
X26425627Y39686623D01*
X26384424Y39743050D01*
X26344070Y39784376D01*
X26334413Y39795521D01*
X26299028Y39841636D01*
X26282844Y39869668D01*
X26265620Y39911249D01*
X26257236Y39942554D01*
X26252992Y39974857D01*
X26252956Y39975033D01*
X26251358Y39987167D01*
X26251357Y40019537D01*
X26257235Y40064190D01*
X26265613Y40095452D01*
X26282842Y40137047D01*
X26299026Y40165079D01*
X26303638Y40171091D01*
X26326439Y40200806D01*
X26349325Y40223692D01*
X26379040Y40246493D01*
X26385052Y40251105D01*
X26413081Y40267289D01*
X26454680Y40284520D01*
X26485941Y40292896D01*
X26530586Y40298773D01*
X26562956Y40298773D01*
X26585276Y40295834D01*
G37*
%TD.AperFunction*%
%TA.AperFunction,Conductor*%
G36*
X28721504Y42398315D02*
G01*
X28767259Y42345511D01*
X28777203Y42276353D01*
X28752841Y42218515D01*
X28738776Y42200186D01*
X28729137Y42187623D01*
X28673671Y42053713D01*
X28673670Y42053709D01*
X28654750Y41910001D01*
X28654750Y41910000D01*
X28673670Y41766292D01*
X28673671Y41766288D01*
X28729137Y41632378D01*
X28729138Y41632376D01*
X28729139Y41632375D01*
X28817379Y41517379D01*
X28932375Y41429139D01*
X29066291Y41373670D01*
X29193280Y41356952D01*
X29209999Y41354750D01*
X29210000Y41354750D01*
X29210001Y41354750D01*
X29224977Y41356722D01*
X29353709Y41373670D01*
X29487625Y41429139D01*
X29602621Y41517379D01*
X29690861Y41632375D01*
X29746330Y41766291D01*
X29765250Y41910000D01*
X29746330Y42053709D01*
X29690861Y42187625D01*
X29667158Y42218515D01*
X29641965Y42283683D01*
X29656003Y42352127D01*
X29704817Y42402117D01*
X29765535Y42418000D01*
X35984308Y42418000D01*
X36051347Y42398315D01*
X36067846Y42385637D01*
X36163958Y42298020D01*
X36163960Y42298018D01*
X36263141Y42236608D01*
X36337363Y42190652D01*
X36527544Y42116976D01*
X36728024Y42079500D01*
X36728026Y42079500D01*
X36931974Y42079500D01*
X36931976Y42079500D01*
X37132456Y42116976D01*
X37322637Y42190652D01*
X37496041Y42298019D01*
X37565171Y42361039D01*
X37592154Y42385637D01*
X37654958Y42416254D01*
X37675692Y42418000D01*
X40490500Y42418000D01*
X40557539Y42398315D01*
X40603294Y42345511D01*
X40614500Y42294000D01*
X40614500Y1902000D01*
X40594815Y1834961D01*
X40542011Y1789206D01*
X40490500Y1778000D01*
X38449284Y1778000D01*
X38382245Y1797685D01*
X38336490Y1850489D01*
X38326546Y1919647D01*
X38355571Y1983203D01*
X38401832Y2016561D01*
X38464394Y2042476D01*
X38504625Y2059139D01*
X38619621Y2147379D01*
X38707861Y2262375D01*
X38763330Y2396291D01*
X38782250Y2540000D01*
X38763330Y2683709D01*
X38707861Y2817625D01*
X38619621Y2932621D01*
X38504625Y3020861D01*
X38504624Y3020862D01*
X38504622Y3020863D01*
X38409074Y3060439D01*
X38354670Y3104279D01*
X38332605Y3170573D01*
X38349884Y3238273D01*
X38401021Y3285884D01*
X38409074Y3289561D01*
X38496141Y3325625D01*
X38504625Y3329139D01*
X38619621Y3417379D01*
X38707861Y3532375D01*
X38763330Y3666291D01*
X38782250Y3810000D01*
X38763330Y3953709D01*
X38707861Y4087625D01*
X38619621Y4202621D01*
X38504625Y4290861D01*
X38504624Y4290862D01*
X38504622Y4290863D01*
X38370712Y4346329D01*
X38370710Y4346330D01*
X38370709Y4346330D01*
X38298854Y4355790D01*
X38227001Y4365250D01*
X38226999Y4365250D01*
X38083291Y4346330D01*
X38083287Y4346329D01*
X37949377Y4290863D01*
X37834379Y4202621D01*
X37746137Y4087623D01*
X37690671Y3953713D01*
X37690670Y3953709D01*
X37671750Y3810000D01*
X37687887Y3687426D01*
X37690670Y3666292D01*
X37690671Y3666288D01*
X37746137Y3532378D01*
X37746138Y3532376D01*
X37746139Y3532375D01*
X37834379Y3417379D01*
X37949375Y3329139D01*
X37957859Y3325625D01*
X38044925Y3289561D01*
X38099329Y3245720D01*
X38121394Y3179426D01*
X38104115Y3111727D01*
X38052978Y3064116D01*
X38044925Y3060439D01*
X37949378Y3020863D01*
X37949375Y3020862D01*
X37949375Y3020861D01*
X37840681Y2937457D01*
X37834379Y2932621D01*
X37746137Y2817623D01*
X37690671Y2683713D01*
X37690670Y2683709D01*
X37671750Y2540001D01*
X37671750Y2540000D01*
X37690670Y2396292D01*
X37690671Y2396288D01*
X37746137Y2262378D01*
X37746138Y2262376D01*
X37746139Y2262375D01*
X37834379Y2147379D01*
X37949375Y2059139D01*
X37949376Y2059139D01*
X37949377Y2059138D01*
X38052168Y2016561D01*
X38106572Y1972720D01*
X38128637Y1906426D01*
X38111358Y1838727D01*
X38060221Y1791116D01*
X38004716Y1778000D01*
X37644139Y1778000D01*
X37577100Y1797685D01*
X37545764Y1826513D01*
X37484444Y1906426D01*
X37476621Y1916621D01*
X37361625Y2004861D01*
X37361624Y2004862D01*
X37361622Y2004863D01*
X37227712Y2060329D01*
X37227710Y2060330D01*
X37227709Y2060330D01*
X37155854Y2069790D01*
X37084001Y2079250D01*
X37083999Y2079250D01*
X36940291Y2060330D01*
X36940287Y2060329D01*
X36806377Y2004863D01*
X36780166Y1984750D01*
X36691379Y1916621D01*
X36691378Y1916620D01*
X36691377Y1916619D01*
X36622236Y1826513D01*
X36565808Y1785311D01*
X36523861Y1778000D01*
X10792000Y1778000D01*
X10724961Y1797685D01*
X10679206Y1850489D01*
X10668000Y1902000D01*
X10668000Y3937001D01*
X11001750Y3937001D01*
X11001750Y3937000D01*
X11020670Y3793292D01*
X11020671Y3793288D01*
X11076137Y3659378D01*
X11076138Y3659376D01*
X11076139Y3659375D01*
X11164379Y3544379D01*
X11279375Y3456139D01*
X11413291Y3400670D01*
X11540280Y3383952D01*
X11556999Y3381750D01*
X11557000Y3381750D01*
X11557001Y3381750D01*
X11571977Y3383722D01*
X11700709Y3400670D01*
X11834625Y3456139D01*
X11949621Y3544379D01*
X12037861Y3659375D01*
X12093330Y3793291D01*
X12112250Y3937000D01*
X12093330Y4080709D01*
X12037861Y4214625D01*
X11949621Y4329621D01*
X11834625Y4417861D01*
X11834624Y4417862D01*
X11834622Y4417863D01*
X11700712Y4473329D01*
X11700710Y4473330D01*
X11700709Y4473330D01*
X11628854Y4482790D01*
X11557001Y4492250D01*
X11556999Y4492250D01*
X11413291Y4473330D01*
X11413287Y4473329D01*
X11279377Y4417863D01*
X11164379Y4329621D01*
X11076137Y4214623D01*
X11020671Y4080713D01*
X11020670Y4080709D01*
X11001750Y3937001D01*
X10668000Y3937001D01*
X10668000Y6858000D01*
X13795750Y6858000D01*
X13806249Y6778250D01*
X13814670Y6714292D01*
X13814671Y6714288D01*
X13870137Y6580378D01*
X13870138Y6580376D01*
X13870139Y6580375D01*
X13958379Y6465379D01*
X14073375Y6377139D01*
X14073376Y6377139D01*
X14073377Y6377138D01*
X14132205Y6352771D01*
X14178735Y6333498D01*
X14178738Y6333497D01*
X14233142Y6289657D01*
X14255207Y6223363D01*
X14237928Y6155663D01*
X14186791Y6108053D01*
X14178739Y6104375D01*
X14073376Y6060733D01*
X13958379Y5972492D01*
X13870137Y5857494D01*
X13814671Y5723584D01*
X13814670Y5723580D01*
X13795750Y5579871D01*
X13800900Y5540750D01*
X13814670Y5436163D01*
X13814671Y5436159D01*
X13870137Y5302249D01*
X13870138Y5302247D01*
X13870139Y5302246D01*
X13958379Y5187250D01*
X14073375Y5099010D01*
X14073376Y5099010D01*
X14073377Y5099009D01*
X14159112Y5063497D01*
X14213516Y5019657D01*
X14235581Y4953363D01*
X14218302Y4885663D01*
X14167165Y4838052D01*
X14159113Y4834375D01*
X14073376Y4798862D01*
X13958379Y4710621D01*
X13870137Y4595623D01*
X13814671Y4461713D01*
X13814670Y4461709D01*
X13795750Y4318001D01*
X13795750Y4318000D01*
X13814670Y4174292D01*
X13814671Y4174288D01*
X13870137Y4040378D01*
X13870138Y4040376D01*
X13870139Y4040375D01*
X13958379Y3925379D01*
X14073375Y3837139D01*
X14081859Y3833625D01*
X14168925Y3797561D01*
X14223329Y3753720D01*
X14245394Y3687426D01*
X14228115Y3619727D01*
X14176978Y3572116D01*
X14168925Y3568439D01*
X14073378Y3528863D01*
X14073375Y3528862D01*
X14073375Y3528861D01*
X14071823Y3527670D01*
X13958379Y3440621D01*
X13870137Y3325623D01*
X13814671Y3191713D01*
X13814670Y3191709D01*
X13795750Y3048001D01*
X13795750Y3048000D01*
X13814670Y2904292D01*
X13814671Y2904288D01*
X13870137Y2770378D01*
X13870138Y2770376D01*
X13870139Y2770375D01*
X13958379Y2655379D01*
X14073375Y2567139D01*
X14207291Y2511670D01*
X14334280Y2494952D01*
X14350999Y2492750D01*
X14351000Y2492750D01*
X14351001Y2492750D01*
X14365977Y2494722D01*
X14494709Y2511670D01*
X14628625Y2567139D01*
X14743621Y2655379D01*
X14831861Y2770375D01*
X14852416Y2820000D01*
X16874750Y2820000D01*
X16892693Y2683709D01*
X16893670Y2676292D01*
X16893671Y2676288D01*
X16949137Y2542378D01*
X16949138Y2542376D01*
X16949139Y2542375D01*
X17037379Y2427379D01*
X17152375Y2339139D01*
X17286291Y2283670D01*
X17413280Y2266952D01*
X17429999Y2264750D01*
X17430000Y2264750D01*
X17430001Y2264750D01*
X17444977Y2266722D01*
X17573709Y2283670D01*
X17707625Y2339139D01*
X17822621Y2427379D01*
X17910861Y2542375D01*
X17966330Y2676291D01*
X17985250Y2820000D01*
X17978874Y2868425D01*
X17989639Y2937457D01*
X18036018Y2989714D01*
X18085623Y3007547D01*
X18177709Y3019670D01*
X18311625Y3075139D01*
X18426621Y3163379D01*
X18514861Y3278375D01*
X18570330Y3412291D01*
X18589250Y3556000D01*
X18570330Y3699709D01*
X18514861Y3833625D01*
X18426621Y3948621D01*
X18311625Y4036861D01*
X18311624Y4036862D01*
X18311622Y4036863D01*
X18246103Y4064001D01*
X20018750Y4064001D01*
X20018750Y4064000D01*
X20037670Y3920292D01*
X20037671Y3920288D01*
X20093137Y3786378D01*
X20093138Y3786376D01*
X20093139Y3786375D01*
X20181379Y3671379D01*
X20296375Y3583139D01*
X20430291Y3527670D01*
X20557280Y3510952D01*
X20573999Y3508750D01*
X20574000Y3508750D01*
X20574001Y3508750D01*
X20588977Y3510722D01*
X20717709Y3527670D01*
X20851625Y3583139D01*
X20966621Y3671379D01*
X21054861Y3786375D01*
X21064647Y3810000D01*
X22304750Y3810000D01*
X22320887Y3687426D01*
X22323670Y3666292D01*
X22323671Y3666288D01*
X22379137Y3532378D01*
X22379138Y3532376D01*
X22379139Y3532375D01*
X22467379Y3417379D01*
X22582375Y3329139D01*
X22582376Y3329139D01*
X22582377Y3329138D01*
X22627013Y3310650D01*
X22716291Y3273670D01*
X22842208Y3257093D01*
X22906104Y3228827D01*
X22944575Y3170502D01*
X22948961Y3117969D01*
X22939750Y3048003D01*
X22939750Y3048000D01*
X22958670Y2904292D01*
X22958671Y2904288D01*
X23014137Y2770378D01*
X23014138Y2770376D01*
X23014139Y2770375D01*
X23102379Y2655379D01*
X23217375Y2567139D01*
X23351291Y2511670D01*
X23478280Y2494952D01*
X23494999Y2492750D01*
X23495000Y2492750D01*
X23495001Y2492750D01*
X23509977Y2494722D01*
X23638709Y2511670D01*
X23772625Y2567139D01*
X23887621Y2655379D01*
X23975861Y2770375D01*
X24031330Y2904291D01*
X24050250Y3048000D01*
X24031330Y3191709D01*
X23990799Y3289561D01*
X23975862Y3325623D01*
X23975861Y3325624D01*
X23975861Y3325625D01*
X23887621Y3440621D01*
X23772625Y3528861D01*
X23772624Y3528862D01*
X23772622Y3528863D01*
X23638712Y3584329D01*
X23638710Y3584330D01*
X23638709Y3584330D01*
X23576894Y3592469D01*
X23512791Y3600908D01*
X23448895Y3629175D01*
X23410424Y3687500D01*
X23406038Y3740032D01*
X23415250Y3810000D01*
X23396330Y3953709D01*
X23340861Y4087625D01*
X23252621Y4202621D01*
X23137625Y4290861D01*
X23137624Y4290862D01*
X23137622Y4290863D01*
X23003712Y4346329D01*
X23003710Y4346330D01*
X23003709Y4346330D01*
X22931854Y4355790D01*
X22860001Y4365250D01*
X22859999Y4365250D01*
X22716291Y4346330D01*
X22716287Y4346329D01*
X22582377Y4290863D01*
X22467379Y4202621D01*
X22379137Y4087623D01*
X22323671Y3953713D01*
X22323670Y3953709D01*
X22304750Y3810000D01*
X21064647Y3810000D01*
X21110330Y3920291D01*
X21129250Y4064000D01*
X21110330Y4207709D01*
X21054861Y4341625D01*
X20966621Y4456621D01*
X20851625Y4544861D01*
X20851624Y4544862D01*
X20851622Y4544863D01*
X20717712Y4600329D01*
X20717710Y4600330D01*
X20717709Y4600330D01*
X20645854Y4609790D01*
X20574001Y4619250D01*
X20573999Y4619250D01*
X20430291Y4600330D01*
X20430287Y4600329D01*
X20296377Y4544863D01*
X20181379Y4456621D01*
X20093137Y4341623D01*
X20037671Y4207713D01*
X20037670Y4207709D01*
X20018750Y4064001D01*
X18246103Y4064001D01*
X18177712Y4092329D01*
X18177710Y4092330D01*
X18177709Y4092330D01*
X18105854Y4101790D01*
X18034001Y4111250D01*
X18033999Y4111250D01*
X17890291Y4092330D01*
X17890287Y4092329D01*
X17756377Y4036863D01*
X17641379Y3948621D01*
X17553137Y3833623D01*
X17497671Y3699713D01*
X17497670Y3699709D01*
X17478750Y3556001D01*
X17478750Y3556000D01*
X17485125Y3507578D01*
X17474360Y3438542D01*
X17427980Y3386287D01*
X17378372Y3368453D01*
X17343212Y3363824D01*
X17286291Y3356330D01*
X17286290Y3356330D01*
X17286287Y3356329D01*
X17152377Y3300863D01*
X17037379Y3212621D01*
X16949137Y3097623D01*
X16893671Y2963713D01*
X16893670Y2963709D01*
X16874750Y2820000D01*
X14852416Y2820000D01*
X14887330Y2904291D01*
X14906250Y3048000D01*
X14887330Y3191709D01*
X14846799Y3289561D01*
X14831862Y3325623D01*
X14831861Y3325624D01*
X14831861Y3325625D01*
X14743621Y3440621D01*
X14628625Y3528861D01*
X14628624Y3528862D01*
X14628622Y3528863D01*
X14533074Y3568439D01*
X14478670Y3612279D01*
X14456605Y3678573D01*
X14473884Y3746273D01*
X14525021Y3793884D01*
X14533074Y3797561D01*
X14620141Y3833625D01*
X14628625Y3837139D01*
X14743621Y3925379D01*
X14831861Y4040375D01*
X14887330Y4174291D01*
X14906250Y4318000D01*
X14887330Y4461709D01*
X14831861Y4595625D01*
X14743621Y4710621D01*
X14628625Y4798861D01*
X14628623Y4798862D01*
X14542886Y4834375D01*
X14488483Y4878216D01*
X14466418Y4944510D01*
X14483697Y5012209D01*
X14534834Y5059820D01*
X14542856Y5063484D01*
X14582730Y5080000D01*
X38560750Y5080000D01*
X38577422Y4953363D01*
X38579670Y4936292D01*
X38579671Y4936288D01*
X38635137Y4802378D01*
X38635138Y4802376D01*
X38635139Y4802375D01*
X38723379Y4687379D01*
X38838375Y4599139D01*
X38838376Y4599139D01*
X38838377Y4599138D01*
X38883013Y4580650D01*
X38972291Y4543670D01*
X39099280Y4526952D01*
X39115999Y4524750D01*
X39116000Y4524750D01*
X39116001Y4524750D01*
X39130977Y4526722D01*
X39259709Y4543670D01*
X39393625Y4599139D01*
X39508621Y4687379D01*
X39596861Y4802375D01*
X39652330Y4936291D01*
X39671250Y5080000D01*
X39652330Y5223709D01*
X39596861Y5357625D01*
X39508621Y5472621D01*
X39393625Y5560861D01*
X39393624Y5560862D01*
X39393622Y5560863D01*
X39259712Y5616329D01*
X39259710Y5616330D01*
X39259709Y5616330D01*
X39187854Y5625790D01*
X39116001Y5635250D01*
X39115999Y5635250D01*
X38972291Y5616330D01*
X38972287Y5616329D01*
X38838377Y5560863D01*
X38723379Y5472621D01*
X38635137Y5357623D01*
X38579671Y5223713D01*
X38579670Y5223709D01*
X38560750Y5080000D01*
X14582730Y5080000D01*
X14628625Y5099010D01*
X14743621Y5187250D01*
X14831861Y5302246D01*
X14887330Y5436162D01*
X14906250Y5579871D01*
X14887330Y5723580D01*
X14831861Y5857496D01*
X14743621Y5972492D01*
X14628625Y6060732D01*
X14628624Y6060733D01*
X14628622Y6060734D01*
X14523261Y6104375D01*
X14468857Y6148216D01*
X14446792Y6214510D01*
X14464071Y6282209D01*
X14515208Y6329820D01*
X14523235Y6333486D01*
X14628625Y6377139D01*
X14743621Y6465379D01*
X14831861Y6580375D01*
X14887330Y6714291D01*
X14906250Y6858000D01*
X16843750Y6858000D01*
X16854249Y6778250D01*
X16862670Y6714292D01*
X16862671Y6714288D01*
X16918137Y6580378D01*
X16918138Y6580376D01*
X16918139Y6580375D01*
X17006379Y6465379D01*
X17121375Y6377139D01*
X17121376Y6377139D01*
X17121377Y6377138D01*
X17166013Y6358650D01*
X17255291Y6321670D01*
X17381208Y6305093D01*
X17445104Y6276827D01*
X17483575Y6218502D01*
X17487961Y6165969D01*
X17478750Y6096003D01*
X17478750Y6096000D01*
X17495010Y5972492D01*
X17497670Y5952292D01*
X17497671Y5952288D01*
X17553137Y5818378D01*
X17553138Y5818376D01*
X17553139Y5818375D01*
X17641379Y5703379D01*
X17756375Y5615139D01*
X17890291Y5559670D01*
X18017280Y5542952D01*
X18033999Y5540750D01*
X18034000Y5540750D01*
X18034001Y5540750D01*
X18048977Y5542722D01*
X18177709Y5559670D01*
X18311625Y5615139D01*
X18426621Y5703379D01*
X18514861Y5818375D01*
X18524647Y5842001D01*
X19891750Y5842001D01*
X19891750Y5842000D01*
X19910670Y5698292D01*
X19910671Y5698288D01*
X19966137Y5564378D01*
X19966138Y5564376D01*
X19966139Y5564375D01*
X20054379Y5449379D01*
X20169375Y5361139D01*
X20169376Y5361139D01*
X20169377Y5361138D01*
X20214013Y5342650D01*
X20303291Y5305670D01*
X20430280Y5288952D01*
X20446999Y5286750D01*
X20447000Y5286750D01*
X20447001Y5286750D01*
X20461977Y5288722D01*
X20590709Y5305670D01*
X20724625Y5361139D01*
X20839621Y5449379D01*
X20927861Y5564375D01*
X20983330Y5698291D01*
X21002250Y5842000D01*
X20983330Y5985709D01*
X20927861Y6119625D01*
X20839621Y6234621D01*
X20724625Y6322861D01*
X20724624Y6322862D01*
X20724622Y6322863D01*
X20590712Y6378329D01*
X20590710Y6378330D01*
X20590709Y6378330D01*
X20518854Y6387790D01*
X20447001Y6397250D01*
X20446999Y6397250D01*
X20303291Y6378330D01*
X20303287Y6378329D01*
X20169377Y6322863D01*
X20054379Y6234621D01*
X19966137Y6119623D01*
X19910671Y5985713D01*
X19910670Y5985709D01*
X19891750Y5842001D01*
X18524647Y5842001D01*
X18570330Y5952291D01*
X18589250Y6096000D01*
X18570330Y6239709D01*
X18514861Y6373625D01*
X18426621Y6488621D01*
X18311625Y6576861D01*
X18311624Y6576862D01*
X18311622Y6576863D01*
X18177712Y6632329D01*
X18177710Y6632330D01*
X18177709Y6632330D01*
X18115894Y6640469D01*
X18051791Y6648908D01*
X17987895Y6677175D01*
X17949424Y6735500D01*
X17945038Y6788032D01*
X17954250Y6858000D01*
X17935330Y7001709D01*
X17879861Y7135625D01*
X17791621Y7250621D01*
X17676625Y7338861D01*
X17676624Y7338862D01*
X17676622Y7338863D01*
X17542712Y7394329D01*
X17542710Y7394330D01*
X17542709Y7394330D01*
X17470854Y7403790D01*
X17399001Y7413250D01*
X17398999Y7413250D01*
X17255291Y7394330D01*
X17255287Y7394329D01*
X17121377Y7338863D01*
X17006379Y7250621D01*
X16918137Y7135623D01*
X16862671Y7001713D01*
X16862670Y7001709D01*
X16846044Y6875421D01*
X16843750Y6858000D01*
X14906250Y6858000D01*
X14887330Y7001709D01*
X14831861Y7135625D01*
X14743621Y7250621D01*
X14628625Y7338861D01*
X14628624Y7338862D01*
X14628622Y7338863D01*
X14494712Y7394329D01*
X14494710Y7394330D01*
X14494709Y7394330D01*
X14422854Y7403790D01*
X14351001Y7413250D01*
X14350999Y7413250D01*
X14207291Y7394330D01*
X14207287Y7394329D01*
X14073377Y7338863D01*
X13958379Y7250621D01*
X13870137Y7135623D01*
X13814671Y7001713D01*
X13814670Y7001709D01*
X13798044Y6875421D01*
X13795750Y6858000D01*
X10668000Y6858000D01*
X10668000Y9147000D01*
X10687685Y9214039D01*
X10740489Y9259794D01*
X10792000Y9271000D01*
X18995708Y9271000D01*
X19062747Y9251315D01*
X19086824Y9231107D01*
X19795336Y8463553D01*
X22098000Y5969000D01*
X22098001Y5969000D01*
X33983861Y5969000D01*
X34050900Y5949315D01*
X34082236Y5920487D01*
X34151379Y5830379D01*
X34266375Y5742139D01*
X34400291Y5686670D01*
X34527280Y5669952D01*
X34543999Y5667750D01*
X34544000Y5667750D01*
X34544001Y5667750D01*
X34558977Y5669722D01*
X34687709Y5686670D01*
X34821625Y5742139D01*
X34936621Y5830379D01*
X35005764Y5920487D01*
X35062192Y5961689D01*
X35104139Y5969000D01*
X38100000Y5969000D01*
X38100000Y10980142D01*
X38119685Y11047181D01*
X38125615Y11055617D01*
X38199861Y11152375D01*
X38255330Y11286291D01*
X38274250Y11430000D01*
X38255330Y11573709D01*
X38199861Y11707625D01*
X38182160Y11730693D01*
X38125624Y11804373D01*
X38100430Y11869542D01*
X38100000Y11879859D01*
X38100000Y26220142D01*
X38119685Y26287181D01*
X38125615Y26295617D01*
X38199861Y26392375D01*
X38255330Y26526291D01*
X38274250Y26670000D01*
X38255330Y26813709D01*
X38199861Y26947625D01*
X38141363Y27023861D01*
X38125624Y27044373D01*
X38100430Y27109542D01*
X38100000Y27119859D01*
X38100000Y31300142D01*
X38119685Y31367181D01*
X38125615Y31375617D01*
X38199861Y31472375D01*
X38255330Y31606291D01*
X38274250Y31750000D01*
X38255330Y31893709D01*
X38199861Y32027625D01*
X38182160Y32050693D01*
X38125624Y32124373D01*
X38100430Y32189542D01*
X38100000Y32199859D01*
X38100000Y39370000D01*
X37261532Y39370000D01*
X37194493Y39389685D01*
X37148738Y39442489D01*
X37138794Y39511647D01*
X37167819Y39575203D01*
X37216737Y39609627D01*
X37322637Y39650652D01*
X37496041Y39758019D01*
X37646764Y39895421D01*
X37769673Y40058179D01*
X37860582Y40240750D01*
X37916397Y40436917D01*
X37935215Y40640000D01*
X37916397Y40843083D01*
X37860582Y41039250D01*
X37769673Y41221821D01*
X37655002Y41373670D01*
X37646762Y41384582D01*
X37496041Y41521981D01*
X37496039Y41521983D01*
X37322642Y41629345D01*
X37322635Y41629349D01*
X37192856Y41679625D01*
X37132456Y41703024D01*
X36931976Y41740500D01*
X36728024Y41740500D01*
X36527544Y41703024D01*
X36527541Y41703024D01*
X36527541Y41703023D01*
X36337364Y41629349D01*
X36337357Y41629345D01*
X36163960Y41521983D01*
X36163958Y41521981D01*
X36013237Y41384582D01*
X35890327Y41221822D01*
X35799422Y41039261D01*
X35799417Y41039248D01*
X35743602Y40843083D01*
X35724785Y40640001D01*
X35724785Y40640000D01*
X35743602Y40436918D01*
X35799417Y40240753D01*
X35799422Y40240740D01*
X35890327Y40058179D01*
X36013237Y39895419D01*
X36163958Y39758020D01*
X36163960Y39758018D01*
X36263141Y39696608D01*
X36337363Y39650652D01*
X36443262Y39609627D01*
X36498663Y39567054D01*
X36522254Y39501287D01*
X36506543Y39433207D01*
X36456519Y39384428D01*
X36398468Y39370000D01*
X26990951Y39370000D01*
X26923912Y39389685D01*
X26878157Y39442489D01*
X26868213Y39511647D01*
X26897238Y39575203D01*
X26915462Y39592374D01*
X26939394Y39610737D01*
X27027634Y39725733D01*
X27083103Y39859649D01*
X27102023Y40003358D01*
X27083103Y40147067D01*
X27027634Y40280983D01*
X26939394Y40395979D01*
X26824398Y40484219D01*
X26824397Y40484220D01*
X26824395Y40484221D01*
X26690485Y40539687D01*
X26690483Y40539688D01*
X26690482Y40539688D01*
X26618627Y40549148D01*
X26546774Y40558608D01*
X26546772Y40558608D01*
X26403064Y40539688D01*
X26403060Y40539687D01*
X26269150Y40484221D01*
X26154152Y40395979D01*
X26065910Y40280981D01*
X26010444Y40147071D01*
X26010443Y40147067D01*
X25991523Y40003358D01*
X26005733Y39895421D01*
X26010443Y39859650D01*
X26010444Y39859646D01*
X26065910Y39725736D01*
X26154153Y39610736D01*
X26162139Y39604608D01*
X26178081Y39592375D01*
X26219284Y39535948D01*
X26223439Y39466202D01*
X26189227Y39405282D01*
X26127510Y39372529D01*
X26102595Y39370000D01*
X22857000Y39370000D01*
X22789961Y39389685D01*
X22744206Y39442489D01*
X22733000Y39494000D01*
X22733000Y42294000D01*
X22752685Y42361039D01*
X22805489Y42406794D01*
X22857000Y42418000D01*
X28654465Y42418000D01*
X28721504Y42398315D01*
G37*
%TD.AperFunction*%
%TA.AperFunction,Conductor*%
G36*
X31312039Y37699315D02*
G01*
X31357794Y37646511D01*
X31369000Y37595000D01*
X31369000Y29715000D01*
X31349315Y29647961D01*
X31296511Y29602206D01*
X31245000Y29591000D01*
X29210000Y29591000D01*
X29210000Y27400284D01*
X29190315Y27333245D01*
X29137511Y27287490D01*
X29068353Y27277546D01*
X29004797Y27306571D01*
X28971439Y27352832D01*
X28928862Y27455623D01*
X28928861Y27455624D01*
X28928861Y27455625D01*
X28840621Y27570621D01*
X28725625Y27658861D01*
X28725624Y27658862D01*
X28725622Y27658863D01*
X28591712Y27714329D01*
X28591710Y27714330D01*
X28591709Y27714330D01*
X28519854Y27723790D01*
X28448001Y27733250D01*
X28447999Y27733250D01*
X28304291Y27714330D01*
X28304287Y27714329D01*
X28170377Y27658863D01*
X28055379Y27570621D01*
X27967137Y27455623D01*
X27911671Y27321713D01*
X27911670Y27321709D01*
X27892750Y27178000D01*
X27903249Y27098250D01*
X27911670Y27034292D01*
X27911671Y27034288D01*
X27967137Y26900378D01*
X27967138Y26900376D01*
X27967139Y26900375D01*
X28055379Y26785379D01*
X28170375Y26697139D01*
X28170376Y26697139D01*
X28170377Y26697138D01*
X28207839Y26681621D01*
X28304291Y26641670D01*
X28431280Y26624952D01*
X28447999Y26622750D01*
X28448000Y26622750D01*
X28448001Y26622750D01*
X28462977Y26624722D01*
X28591709Y26641670D01*
X28725625Y26697139D01*
X28840621Y26785379D01*
X28928861Y26900375D01*
X28971439Y27003170D01*
X29015279Y27057573D01*
X29081573Y27079638D01*
X29149273Y27062359D01*
X29196884Y27011222D01*
X29210000Y26955717D01*
X29210000Y26213363D01*
X29190315Y26146324D01*
X29173681Y26125682D01*
X28415018Y25367020D01*
X28402824Y25356326D01*
X28309378Y25284622D01*
X28237674Y25191176D01*
X28226980Y25178982D01*
X25817319Y22769319D01*
X25755996Y22735834D01*
X25729638Y22733000D01*
X25391105Y22733000D01*
X25324066Y22752685D01*
X25278311Y22805489D01*
X25276568Y22809490D01*
X25245861Y22883625D01*
X25157621Y22998621D01*
X25042625Y23086861D01*
X25042624Y23086862D01*
X25042622Y23086863D01*
X24908712Y23142329D01*
X24908710Y23142330D01*
X24908709Y23142330D01*
X24836854Y23151790D01*
X24765001Y23161250D01*
X24764999Y23161250D01*
X24621291Y23142330D01*
X24621287Y23142329D01*
X24487377Y23086863D01*
X24372379Y22998621D01*
X24284139Y22883626D01*
X24284139Y22883625D01*
X24253454Y22809545D01*
X24209616Y22755145D01*
X24143322Y22733079D01*
X24138895Y22733000D01*
X22851105Y22733000D01*
X22784066Y22752685D01*
X22738311Y22805489D01*
X22736568Y22809490D01*
X22705861Y22883625D01*
X22617621Y22998621D01*
X22502625Y23086861D01*
X22502624Y23086862D01*
X22502622Y23086863D01*
X22368712Y23142329D01*
X22368710Y23142330D01*
X22368709Y23142330D01*
X22296854Y23151790D01*
X22225001Y23161250D01*
X22224999Y23161250D01*
X22081291Y23142330D01*
X22081287Y23142329D01*
X21947377Y23086863D01*
X21832379Y22998621D01*
X21744139Y22883626D01*
X21744139Y22883625D01*
X21713454Y22809545D01*
X21669616Y22755145D01*
X21603322Y22733079D01*
X21598895Y22733000D01*
X16509999Y22733000D01*
X14514319Y20737319D01*
X14452996Y20703834D01*
X14426638Y20701000D01*
X10030000Y20701000D01*
X9962961Y20720685D01*
X9917206Y20773489D01*
X9906000Y20825000D01*
X9906000Y24260000D01*
X9925685Y24327039D01*
X9978489Y24372794D01*
X10030000Y24384000D01*
X23114000Y24384000D01*
X23739884Y25009885D01*
X23801203Y25043367D01*
X23870894Y25038383D01*
X23875013Y25036762D01*
X23912246Y25021340D01*
X23986291Y24990670D01*
X24113280Y24973952D01*
X24129999Y24971750D01*
X24130000Y24971750D01*
X24130001Y24971750D01*
X24144977Y24973722D01*
X24273709Y24990670D01*
X24407625Y25046139D01*
X24522621Y25134379D01*
X24610861Y25249375D01*
X24650439Y25344926D01*
X24694279Y25399330D01*
X24760573Y25421395D01*
X24828273Y25404116D01*
X24875884Y25352979D01*
X24879561Y25344926D01*
X24919137Y25249378D01*
X24919138Y25249376D01*
X24919139Y25249375D01*
X25007379Y25134379D01*
X25122375Y25046139D01*
X25122376Y25046139D01*
X25122377Y25046138D01*
X25167013Y25027650D01*
X25256291Y24990670D01*
X25383280Y24973952D01*
X25399999Y24971750D01*
X25400000Y24971750D01*
X25400001Y24971750D01*
X25414977Y24973722D01*
X25543709Y24990670D01*
X25677625Y25046139D01*
X25792621Y25134379D01*
X25880861Y25249375D01*
X25936330Y25383291D01*
X25955250Y25527000D01*
X25936330Y25670709D01*
X25880861Y25804625D01*
X25792621Y25919621D01*
X25677625Y26007861D01*
X25677624Y26007862D01*
X25677622Y26007863D01*
X25543712Y26063329D01*
X25543710Y26063330D01*
X25543709Y26063330D01*
X25471854Y26072790D01*
X25400001Y26082250D01*
X25399999Y26082250D01*
X25256291Y26063330D01*
X25256287Y26063329D01*
X25122377Y26007863D01*
X25027602Y25935139D01*
X25007379Y25919621D01*
X24921836Y25808139D01*
X24919137Y25804622D01*
X24879561Y25709075D01*
X24835720Y25654671D01*
X24769426Y25632606D01*
X24701727Y25649885D01*
X24654116Y25701022D01*
X24650439Y25709074D01*
X24632381Y25752670D01*
X24620237Y25781987D01*
X24612769Y25851456D01*
X24644044Y25913935D01*
X24647062Y25917063D01*
X25146000Y26416000D01*
X25146000Y27310555D01*
X25165685Y27377594D01*
X25182319Y27398236D01*
X25183882Y27399800D01*
X25183884Y27399802D01*
X25272124Y27514798D01*
X25311702Y27610349D01*
X25355542Y27664753D01*
X25421836Y27686818D01*
X25489536Y27669539D01*
X25537147Y27618402D01*
X25540824Y27610349D01*
X25580400Y27514801D01*
X25580401Y27514800D01*
X25580402Y27514798D01*
X25668642Y27399802D01*
X25783638Y27311562D01*
X25783639Y27311562D01*
X25783640Y27311561D01*
X25799478Y27305001D01*
X25917554Y27256093D01*
X26044543Y27239375D01*
X26061262Y27237173D01*
X26061263Y27237173D01*
X26061264Y27237173D01*
X26076240Y27239145D01*
X26204972Y27256093D01*
X26217087Y27261112D01*
X26286554Y27268581D01*
X26349034Y27237308D01*
X26384688Y27177219D01*
X26387478Y27162748D01*
X26387669Y27161295D01*
X26387671Y27161288D01*
X26443137Y27027378D01*
X26443138Y27027376D01*
X26443139Y27027375D01*
X26531379Y26912379D01*
X26646375Y26824139D01*
X26646376Y26824139D01*
X26646377Y26824138D01*
X26683839Y26808621D01*
X26780291Y26768670D01*
X26907280Y26751952D01*
X26923999Y26749750D01*
X26924000Y26749750D01*
X26924001Y26749750D01*
X26938977Y26751722D01*
X27067709Y26768670D01*
X27201625Y26824139D01*
X27316621Y26912379D01*
X27404861Y27027375D01*
X27460330Y27161291D01*
X27479250Y27305000D01*
X27460330Y27448709D01*
X27404861Y27582625D01*
X27316621Y27697621D01*
X27201625Y27785861D01*
X27201624Y27785862D01*
X27201622Y27785863D01*
X27067712Y27841329D01*
X27067710Y27841330D01*
X27067709Y27841330D01*
X26995854Y27850790D01*
X26924001Y27860250D01*
X26923999Y27860250D01*
X26780291Y27841330D01*
X26780287Y27841329D01*
X26768170Y27836310D01*
X26698700Y27828844D01*
X26636222Y27860122D01*
X26600573Y27920212D01*
X26597783Y27934687D01*
X26597593Y27936132D01*
X26542124Y28070048D01*
X26453884Y28185044D01*
X26338888Y28273284D01*
X26338887Y28273285D01*
X26338885Y28273286D01*
X26204975Y28328752D01*
X26204973Y28328753D01*
X26204972Y28328753D01*
X26133117Y28338213D01*
X26061264Y28347673D01*
X26061262Y28347673D01*
X25917554Y28328753D01*
X25917550Y28328752D01*
X25783640Y28273286D01*
X25668642Y28185044D01*
X25580400Y28070045D01*
X25540824Y27974498D01*
X25496983Y27920094D01*
X25430689Y27898029D01*
X25362990Y27915308D01*
X25315379Y27966445D01*
X25311702Y27974498D01*
X25272125Y28070045D01*
X25272124Y28070048D01*
X25183884Y28185044D01*
X25183881Y28185046D01*
X25183877Y28185052D01*
X25182313Y28186616D01*
X25181415Y28188260D01*
X25178936Y28191491D01*
X25179440Y28191878D01*
X25148832Y28247941D01*
X25146000Y28274291D01*
X25146000Y30988000D01*
X28019750Y30988000D01*
X28030249Y30908250D01*
X28038670Y30844292D01*
X28038671Y30844288D01*
X28094137Y30710378D01*
X28094138Y30710376D01*
X28094139Y30710375D01*
X28182379Y30595379D01*
X28297375Y30507139D01*
X28297376Y30507139D01*
X28297377Y30507138D01*
X28342013Y30488650D01*
X28431291Y30451670D01*
X28558280Y30434952D01*
X28574999Y30432750D01*
X28575000Y30432750D01*
X28575001Y30432750D01*
X28589977Y30434722D01*
X28718709Y30451670D01*
X28852625Y30507139D01*
X28967621Y30595379D01*
X29055861Y30710375D01*
X29111330Y30844291D01*
X29130250Y30988000D01*
X29111330Y31131709D01*
X29055861Y31265625D01*
X28967621Y31380621D01*
X28852625Y31468861D01*
X28852624Y31468862D01*
X28852622Y31468863D01*
X28718712Y31524329D01*
X28718710Y31524330D01*
X28718709Y31524330D01*
X28646854Y31533790D01*
X28575001Y31543250D01*
X28574999Y31543250D01*
X28431291Y31524330D01*
X28431287Y31524329D01*
X28297377Y31468863D01*
X28182379Y31380621D01*
X28094137Y31265623D01*
X28038671Y31131713D01*
X28038670Y31131709D01*
X28019750Y30988000D01*
X25146000Y30988000D01*
X25146000Y32864796D01*
X25165685Y32931835D01*
X25218489Y32977590D01*
X25286183Y32987735D01*
X25400000Y32972750D01*
X25400001Y32972750D01*
X25414977Y32974722D01*
X25543709Y32991670D01*
X25677625Y33047139D01*
X25792621Y33135379D01*
X25880861Y33250375D01*
X25936330Y33384291D01*
X25955250Y33528000D01*
X25936330Y33671709D01*
X25909059Y33737548D01*
X25901590Y33807017D01*
X25932865Y33869496D01*
X25992954Y33905148D01*
X26023620Y33909000D01*
X29464000Y33909000D01*
X29464000Y37595000D01*
X29483685Y37662039D01*
X29536489Y37707794D01*
X29588000Y37719000D01*
X31245000Y37719000D01*
X31312039Y37699315D01*
G37*
%TD.AperFunction*%
M02*
