%TF.GenerationSoftware,KiCad,Pcbnew,8.0.4*%
%TF.CreationDate,2024-09-22T15:27:49+02:00*%
%TF.ProjectId,blue_64,626c7565-5f36-4342-9e6b-696361645f70,1.0*%
%TF.SameCoordinates,PX3dc4fd0PY7445a00*%
%TF.FileFunction,Soldermask,Bot*%
%TF.FilePolarity,Negative*%
%FSLAX46Y46*%
G04 Gerber Fmt 4.6, Leading zero omitted, Abs format (unit mm)*
G04 Created by KiCad (PCBNEW 8.0.4) date 2024-09-22 15:27:49*
%MOMM*%
%LPD*%
G01*
G04 APERTURE LIST*
G04 Aperture macros list*
%AMFreePoly0*
4,1,19,0.500000,-0.750000,0.000000,-0.750000,0.000000,-0.744911,-0.071157,-0.744911,-0.207708,-0.704816,-0.327430,-0.627875,-0.420627,-0.520320,-0.479746,-0.390866,-0.500000,-0.250000,-0.500000,0.250000,-0.479746,0.390866,-0.420627,0.520320,-0.327430,0.627875,-0.207708,0.704816,-0.071157,0.744911,0.000000,0.744911,0.000000,0.750000,0.500000,0.750000,0.500000,-0.750000,0.500000,-0.750000,
$1*%
%AMFreePoly1*
4,1,19,0.000000,0.744911,0.071157,0.744911,0.207708,0.704816,0.327430,0.627875,0.420627,0.520320,0.479746,0.390866,0.500000,0.250000,0.500000,-0.250000,0.479746,-0.390866,0.420627,-0.520320,0.327430,-0.627875,0.207708,-0.704816,0.071157,-0.744911,0.000000,-0.744911,0.000000,-0.750000,-0.500000,-0.750000,-0.500000,0.750000,0.000000,0.750000,0.000000,0.744911,0.000000,0.744911,
$1*%
G04 Aperture macros list end*
%ADD10C,1.000000*%
%ADD11R,1.700000X1.700000*%
%ADD12O,1.700000X1.700000*%
%ADD13FreePoly0,0.000000*%
%ADD14FreePoly1,0.000000*%
%ADD15O,2.200000X2.200000*%
%ADD16C,2.200000*%
G04 APERTURE END LIST*
D10*
X30987000Y54188000D03*
X22987000Y54188000D03*
D11*
X21590000Y2540000D03*
D12*
X19050000Y2540000D03*
X21590000Y5080000D03*
X19050000Y5080000D03*
X21590000Y7620000D03*
X19050000Y7620000D03*
D11*
X3810000Y71120000D03*
D12*
X6350000Y71120000D03*
X3810000Y68580000D03*
X6350000Y68580000D03*
X3810000Y66040000D03*
X6350000Y66040000D03*
X3810000Y63500000D03*
X6350000Y63500000D03*
X3810000Y60960000D03*
X6350000Y60960000D03*
X3810000Y58420000D03*
X6350000Y58420000D03*
X3810000Y55880000D03*
X6350000Y55880000D03*
X3810000Y53340000D03*
X6350000Y53340000D03*
X3810000Y50800000D03*
X6350000Y50800000D03*
X3810000Y48260000D03*
X6350000Y48260000D03*
X3810000Y45720000D03*
X6350000Y45720000D03*
X3810000Y43180000D03*
X6350000Y43180000D03*
X3810000Y40640000D03*
X6350000Y40640000D03*
X3810000Y38100000D03*
X6350000Y38100000D03*
X3810000Y35560000D03*
X6350000Y35560000D03*
X3810000Y33020000D03*
X6350000Y33020000D03*
X3810000Y30480000D03*
X6350000Y30480000D03*
X3810000Y27940000D03*
X6350000Y27940000D03*
X3810000Y25400000D03*
X6350000Y25400000D03*
X3810000Y22860000D03*
X6350000Y22860000D03*
D11*
X36830000Y55880000D03*
D12*
X36830000Y53340000D03*
X36830000Y50800000D03*
X36830000Y48260000D03*
X36830000Y45720000D03*
X36830000Y43180000D03*
X36830000Y40640000D03*
X36830000Y38100000D03*
X36830000Y35560000D03*
X36830000Y33020000D03*
X36830000Y30480000D03*
X36830000Y27940000D03*
X36830000Y25400000D03*
X36830000Y22860000D03*
X36830000Y20320000D03*
X36830000Y17780000D03*
X36830000Y15240000D03*
X36830000Y12700000D03*
X36830000Y10160000D03*
X36830000Y7620000D03*
D13*
X11542000Y30099000D03*
D14*
X12842000Y30099000D03*
D15*
X6195000Y19177000D03*
D16*
X2695000Y19177000D03*
M02*
