%TF.GenerationSoftware,KiCad,Pcbnew,8.0.4*%
%TF.CreationDate,2024-09-22T15:27:49+02:00*%
%TF.ProjectId,blue_64,626c7565-5f36-4342-9e6b-696361645f70,1.0*%
%TF.SameCoordinates,PX3dc4fd0PY7445a00*%
%TF.FileFunction,AssemblyDrawing,Top*%
%FSLAX46Y46*%
G04 Gerber Fmt 4.6, Leading zero omitted, Abs format (unit mm)*
G04 Created by KiCad (PCBNEW 8.0.4) date 2024-09-22 15:27:49*
%MOMM*%
%LPD*%
G01*
G04 APERTURE LIST*
%ADD10C,0.040000*%
%ADD11C,0.075000*%
%ADD12C,0.150000*%
%ADD13C,0.060000*%
%ADD14C,0.085000*%
%ADD15C,0.100000*%
G04 APERTURE END LIST*
D10*
X18381285Y22111426D02*
X18297952Y22230473D01*
X18238428Y22111426D02*
X18238428Y22361426D01*
X18238428Y22361426D02*
X18333666Y22361426D01*
X18333666Y22361426D02*
X18357476Y22349521D01*
X18357476Y22349521D02*
X18369381Y22337616D01*
X18369381Y22337616D02*
X18381285Y22313807D01*
X18381285Y22313807D02*
X18381285Y22278092D01*
X18381285Y22278092D02*
X18369381Y22254283D01*
X18369381Y22254283D02*
X18357476Y22242378D01*
X18357476Y22242378D02*
X18333666Y22230473D01*
X18333666Y22230473D02*
X18238428Y22230473D01*
X18619381Y22111426D02*
X18476524Y22111426D01*
X18547952Y22111426D02*
X18547952Y22361426D01*
X18547952Y22361426D02*
X18524143Y22325711D01*
X18524143Y22325711D02*
X18500333Y22301902D01*
X18500333Y22301902D02*
X18476524Y22289997D01*
X18845571Y22361426D02*
X18726523Y22361426D01*
X18726523Y22361426D02*
X18714619Y22242378D01*
X18714619Y22242378D02*
X18726523Y22254283D01*
X18726523Y22254283D02*
X18750333Y22266188D01*
X18750333Y22266188D02*
X18809857Y22266188D01*
X18809857Y22266188D02*
X18833666Y22254283D01*
X18833666Y22254283D02*
X18845571Y22242378D01*
X18845571Y22242378D02*
X18857476Y22218569D01*
X18857476Y22218569D02*
X18857476Y22159045D01*
X18857476Y22159045D02*
X18845571Y22135235D01*
X18845571Y22135235D02*
X18833666Y22123330D01*
X18833666Y22123330D02*
X18809857Y22111426D01*
X18809857Y22111426D02*
X18750333Y22111426D01*
X18750333Y22111426D02*
X18726523Y22123330D01*
X18726523Y22123330D02*
X18714619Y22135235D01*
X13547333Y54115426D02*
X13464000Y54234473D01*
X13404476Y54115426D02*
X13404476Y54365426D01*
X13404476Y54365426D02*
X13499714Y54365426D01*
X13499714Y54365426D02*
X13523524Y54353521D01*
X13523524Y54353521D02*
X13535429Y54341616D01*
X13535429Y54341616D02*
X13547333Y54317807D01*
X13547333Y54317807D02*
X13547333Y54282092D01*
X13547333Y54282092D02*
X13535429Y54258283D01*
X13535429Y54258283D02*
X13523524Y54246378D01*
X13523524Y54246378D02*
X13499714Y54234473D01*
X13499714Y54234473D02*
X13404476Y54234473D01*
X13761619Y54282092D02*
X13761619Y54115426D01*
X13702095Y54377330D02*
X13642572Y54198759D01*
X13642572Y54198759D02*
X13797333Y54198759D01*
X15841285Y31255426D02*
X15757952Y31374473D01*
X15698428Y31255426D02*
X15698428Y31505426D01*
X15698428Y31505426D02*
X15793666Y31505426D01*
X15793666Y31505426D02*
X15817476Y31493521D01*
X15817476Y31493521D02*
X15829381Y31481616D01*
X15829381Y31481616D02*
X15841285Y31457807D01*
X15841285Y31457807D02*
X15841285Y31422092D01*
X15841285Y31422092D02*
X15829381Y31398283D01*
X15829381Y31398283D02*
X15817476Y31386378D01*
X15817476Y31386378D02*
X15793666Y31374473D01*
X15793666Y31374473D02*
X15698428Y31374473D01*
X16079381Y31255426D02*
X15936524Y31255426D01*
X16007952Y31255426D02*
X16007952Y31505426D01*
X16007952Y31505426D02*
X15984143Y31469711D01*
X15984143Y31469711D02*
X15960333Y31445902D01*
X15960333Y31445902D02*
X15936524Y31433997D01*
X16162714Y31505426D02*
X16317476Y31505426D01*
X16317476Y31505426D02*
X16234142Y31410188D01*
X16234142Y31410188D02*
X16269857Y31410188D01*
X16269857Y31410188D02*
X16293666Y31398283D01*
X16293666Y31398283D02*
X16305571Y31386378D01*
X16305571Y31386378D02*
X16317476Y31362569D01*
X16317476Y31362569D02*
X16317476Y31303045D01*
X16317476Y31303045D02*
X16305571Y31279235D01*
X16305571Y31279235D02*
X16293666Y31267330D01*
X16293666Y31267330D02*
X16269857Y31255426D01*
X16269857Y31255426D02*
X16198428Y31255426D01*
X16198428Y31255426D02*
X16174619Y31267330D01*
X16174619Y31267330D02*
X16162714Y31279235D01*
D11*
X9887409Y51308048D02*
X10292171Y51308048D01*
X10292171Y51308048D02*
X10339790Y51331858D01*
X10339790Y51331858D02*
X10363600Y51355667D01*
X10363600Y51355667D02*
X10387409Y51403286D01*
X10387409Y51403286D02*
X10387409Y51498524D01*
X10387409Y51498524D02*
X10363600Y51546143D01*
X10363600Y51546143D02*
X10339790Y51569953D01*
X10339790Y51569953D02*
X10292171Y51593762D01*
X10292171Y51593762D02*
X9887409Y51593762D01*
X10054076Y52046144D02*
X10387409Y52046144D01*
X9863600Y51927096D02*
X10220742Y51808049D01*
X10220742Y51808049D02*
X10220742Y52117572D01*
D10*
X20286285Y22111426D02*
X20202952Y22230473D01*
X20143428Y22111426D02*
X20143428Y22361426D01*
X20143428Y22361426D02*
X20238666Y22361426D01*
X20238666Y22361426D02*
X20262476Y22349521D01*
X20262476Y22349521D02*
X20274381Y22337616D01*
X20274381Y22337616D02*
X20286285Y22313807D01*
X20286285Y22313807D02*
X20286285Y22278092D01*
X20286285Y22278092D02*
X20274381Y22254283D01*
X20274381Y22254283D02*
X20262476Y22242378D01*
X20262476Y22242378D02*
X20238666Y22230473D01*
X20238666Y22230473D02*
X20143428Y22230473D01*
X20524381Y22111426D02*
X20381524Y22111426D01*
X20452952Y22111426D02*
X20452952Y22361426D01*
X20452952Y22361426D02*
X20429143Y22325711D01*
X20429143Y22325711D02*
X20405333Y22301902D01*
X20405333Y22301902D02*
X20381524Y22289997D01*
X20738666Y22278092D02*
X20738666Y22111426D01*
X20679142Y22373330D02*
X20619619Y22194759D01*
X20619619Y22194759D02*
X20774380Y22194759D01*
X15841285Y30239426D02*
X15757952Y30358473D01*
X15698428Y30239426D02*
X15698428Y30489426D01*
X15698428Y30489426D02*
X15793666Y30489426D01*
X15793666Y30489426D02*
X15817476Y30477521D01*
X15817476Y30477521D02*
X15829381Y30465616D01*
X15829381Y30465616D02*
X15841285Y30441807D01*
X15841285Y30441807D02*
X15841285Y30406092D01*
X15841285Y30406092D02*
X15829381Y30382283D01*
X15829381Y30382283D02*
X15817476Y30370378D01*
X15817476Y30370378D02*
X15793666Y30358473D01*
X15793666Y30358473D02*
X15698428Y30358473D01*
X16079381Y30239426D02*
X15936524Y30239426D01*
X16007952Y30239426D02*
X16007952Y30489426D01*
X16007952Y30489426D02*
X15984143Y30453711D01*
X15984143Y30453711D02*
X15960333Y30429902D01*
X15960333Y30429902D02*
X15936524Y30417997D01*
X16174619Y30465616D02*
X16186523Y30477521D01*
X16186523Y30477521D02*
X16210333Y30489426D01*
X16210333Y30489426D02*
X16269857Y30489426D01*
X16269857Y30489426D02*
X16293666Y30477521D01*
X16293666Y30477521D02*
X16305571Y30465616D01*
X16305571Y30465616D02*
X16317476Y30441807D01*
X16317476Y30441807D02*
X16317476Y30417997D01*
X16317476Y30417997D02*
X16305571Y30382283D01*
X16305571Y30382283D02*
X16162714Y30239426D01*
X16162714Y30239426D02*
X16317476Y30239426D01*
X24878574Y40733286D02*
X24759527Y40649953D01*
X24878574Y40590429D02*
X24628574Y40590429D01*
X24628574Y40590429D02*
X24628574Y40685667D01*
X24628574Y40685667D02*
X24640479Y40709477D01*
X24640479Y40709477D02*
X24652384Y40721382D01*
X24652384Y40721382D02*
X24676193Y40733286D01*
X24676193Y40733286D02*
X24711908Y40733286D01*
X24711908Y40733286D02*
X24735717Y40721382D01*
X24735717Y40721382D02*
X24747622Y40709477D01*
X24747622Y40709477D02*
X24759527Y40685667D01*
X24759527Y40685667D02*
X24759527Y40590429D01*
X24652384Y40828525D02*
X24640479Y40840429D01*
X24640479Y40840429D02*
X24628574Y40864239D01*
X24628574Y40864239D02*
X24628574Y40923763D01*
X24628574Y40923763D02*
X24640479Y40947572D01*
X24640479Y40947572D02*
X24652384Y40959477D01*
X24652384Y40959477D02*
X24676193Y40971382D01*
X24676193Y40971382D02*
X24700003Y40971382D01*
X24700003Y40971382D02*
X24735717Y40959477D01*
X24735717Y40959477D02*
X24878574Y40816620D01*
X24878574Y40816620D02*
X24878574Y40971382D01*
X24628574Y41054715D02*
X24628574Y41221381D01*
X24628574Y41221381D02*
X24878574Y41114239D01*
D12*
X9491905Y23415181D02*
X9491905Y24415181D01*
X9491905Y24415181D02*
X9730000Y24415181D01*
X9730000Y24415181D02*
X9872857Y24367562D01*
X9872857Y24367562D02*
X9968095Y24272324D01*
X9968095Y24272324D02*
X10015714Y24177086D01*
X10015714Y24177086D02*
X10063333Y23986610D01*
X10063333Y23986610D02*
X10063333Y23843753D01*
X10063333Y23843753D02*
X10015714Y23653277D01*
X10015714Y23653277D02*
X9968095Y23558039D01*
X9968095Y23558039D02*
X9872857Y23462800D01*
X9872857Y23462800D02*
X9730000Y23415181D01*
X9730000Y23415181D02*
X9491905Y23415181D01*
X10396667Y24415181D02*
X11015714Y24415181D01*
X11015714Y24415181D02*
X10682381Y24034229D01*
X10682381Y24034229D02*
X10825238Y24034229D01*
X10825238Y24034229D02*
X10920476Y23986610D01*
X10920476Y23986610D02*
X10968095Y23938991D01*
X10968095Y23938991D02*
X11015714Y23843753D01*
X11015714Y23843753D02*
X11015714Y23605658D01*
X11015714Y23605658D02*
X10968095Y23510420D01*
X10968095Y23510420D02*
X10920476Y23462800D01*
X10920476Y23462800D02*
X10825238Y23415181D01*
X10825238Y23415181D02*
X10539524Y23415181D01*
X10539524Y23415181D02*
X10444286Y23462800D01*
X10444286Y23462800D02*
X10396667Y23510420D01*
D10*
X30847574Y40733286D02*
X30728527Y40649953D01*
X30847574Y40590429D02*
X30597574Y40590429D01*
X30597574Y40590429D02*
X30597574Y40685667D01*
X30597574Y40685667D02*
X30609479Y40709477D01*
X30609479Y40709477D02*
X30621384Y40721382D01*
X30621384Y40721382D02*
X30645193Y40733286D01*
X30645193Y40733286D02*
X30680908Y40733286D01*
X30680908Y40733286D02*
X30704717Y40721382D01*
X30704717Y40721382D02*
X30716622Y40709477D01*
X30716622Y40709477D02*
X30728527Y40685667D01*
X30728527Y40685667D02*
X30728527Y40590429D01*
X30621384Y40828525D02*
X30609479Y40840429D01*
X30609479Y40840429D02*
X30597574Y40864239D01*
X30597574Y40864239D02*
X30597574Y40923763D01*
X30597574Y40923763D02*
X30609479Y40947572D01*
X30609479Y40947572D02*
X30621384Y40959477D01*
X30621384Y40959477D02*
X30645193Y40971382D01*
X30645193Y40971382D02*
X30669003Y40971382D01*
X30669003Y40971382D02*
X30704717Y40959477D01*
X30704717Y40959477D02*
X30847574Y40816620D01*
X30847574Y40816620D02*
X30847574Y40971382D01*
X30847574Y41090429D02*
X30847574Y41138048D01*
X30847574Y41138048D02*
X30835670Y41161858D01*
X30835670Y41161858D02*
X30823765Y41173762D01*
X30823765Y41173762D02*
X30788050Y41197572D01*
X30788050Y41197572D02*
X30740431Y41209477D01*
X30740431Y41209477D02*
X30645193Y41209477D01*
X30645193Y41209477D02*
X30621384Y41197572D01*
X30621384Y41197572D02*
X30609479Y41185667D01*
X30609479Y41185667D02*
X30597574Y41161858D01*
X30597574Y41161858D02*
X30597574Y41114239D01*
X30597574Y41114239D02*
X30609479Y41090429D01*
X30609479Y41090429D02*
X30621384Y41078524D01*
X30621384Y41078524D02*
X30645193Y41066620D01*
X30645193Y41066620D02*
X30704717Y41066620D01*
X30704717Y41066620D02*
X30728527Y41078524D01*
X30728527Y41078524D02*
X30740431Y41090429D01*
X30740431Y41090429D02*
X30752336Y41114239D01*
X30752336Y41114239D02*
X30752336Y41161858D01*
X30752336Y41161858D02*
X30740431Y41185667D01*
X30740431Y41185667D02*
X30728527Y41197572D01*
X30728527Y41197572D02*
X30704717Y41209477D01*
X9511574Y3141286D02*
X9392527Y3057953D01*
X9511574Y2998429D02*
X9261574Y2998429D01*
X9261574Y2998429D02*
X9261574Y3093667D01*
X9261574Y3093667D02*
X9273479Y3117477D01*
X9273479Y3117477D02*
X9285384Y3129382D01*
X9285384Y3129382D02*
X9309193Y3141286D01*
X9309193Y3141286D02*
X9344908Y3141286D01*
X9344908Y3141286D02*
X9368717Y3129382D01*
X9368717Y3129382D02*
X9380622Y3117477D01*
X9380622Y3117477D02*
X9392527Y3093667D01*
X9392527Y3093667D02*
X9392527Y2998429D01*
X9285384Y3236525D02*
X9273479Y3248429D01*
X9273479Y3248429D02*
X9261574Y3272239D01*
X9261574Y3272239D02*
X9261574Y3331763D01*
X9261574Y3331763D02*
X9273479Y3355572D01*
X9273479Y3355572D02*
X9285384Y3367477D01*
X9285384Y3367477D02*
X9309193Y3379382D01*
X9309193Y3379382D02*
X9333003Y3379382D01*
X9333003Y3379382D02*
X9368717Y3367477D01*
X9368717Y3367477D02*
X9511574Y3224620D01*
X9511574Y3224620D02*
X9511574Y3379382D01*
X9344908Y3593667D02*
X9511574Y3593667D01*
X9249670Y3534143D02*
X9428241Y3474620D01*
X9428241Y3474620D02*
X9428241Y3629381D01*
X16623574Y23588286D02*
X16504527Y23504953D01*
X16623574Y23445429D02*
X16373574Y23445429D01*
X16373574Y23445429D02*
X16373574Y23540667D01*
X16373574Y23540667D02*
X16385479Y23564477D01*
X16385479Y23564477D02*
X16397384Y23576382D01*
X16397384Y23576382D02*
X16421193Y23588286D01*
X16421193Y23588286D02*
X16456908Y23588286D01*
X16456908Y23588286D02*
X16480717Y23576382D01*
X16480717Y23576382D02*
X16492622Y23564477D01*
X16492622Y23564477D02*
X16504527Y23540667D01*
X16504527Y23540667D02*
X16504527Y23445429D01*
X16373574Y23671620D02*
X16373574Y23826382D01*
X16373574Y23826382D02*
X16468812Y23743048D01*
X16468812Y23743048D02*
X16468812Y23778763D01*
X16468812Y23778763D02*
X16480717Y23802572D01*
X16480717Y23802572D02*
X16492622Y23814477D01*
X16492622Y23814477D02*
X16516431Y23826382D01*
X16516431Y23826382D02*
X16575955Y23826382D01*
X16575955Y23826382D02*
X16599765Y23814477D01*
X16599765Y23814477D02*
X16611670Y23802572D01*
X16611670Y23802572D02*
X16623574Y23778763D01*
X16623574Y23778763D02*
X16623574Y23707334D01*
X16623574Y23707334D02*
X16611670Y23683525D01*
X16611670Y23683525D02*
X16599765Y23671620D01*
X16623574Y24064477D02*
X16623574Y23921620D01*
X16623574Y23993048D02*
X16373574Y23993048D01*
X16373574Y23993048D02*
X16409289Y23969239D01*
X16409289Y23969239D02*
X16433098Y23945429D01*
X16433098Y23945429D02*
X16445003Y23921620D01*
X12912333Y35192426D02*
X12829000Y35311473D01*
X12769476Y35192426D02*
X12769476Y35442426D01*
X12769476Y35442426D02*
X12864714Y35442426D01*
X12864714Y35442426D02*
X12888524Y35430521D01*
X12888524Y35430521D02*
X12900429Y35418616D01*
X12900429Y35418616D02*
X12912333Y35394807D01*
X12912333Y35394807D02*
X12912333Y35359092D01*
X12912333Y35359092D02*
X12900429Y35335283D01*
X12900429Y35335283D02*
X12888524Y35323378D01*
X12888524Y35323378D02*
X12864714Y35311473D01*
X12864714Y35311473D02*
X12769476Y35311473D01*
X13031381Y35192426D02*
X13079000Y35192426D01*
X13079000Y35192426D02*
X13102810Y35204330D01*
X13102810Y35204330D02*
X13114714Y35216235D01*
X13114714Y35216235D02*
X13138524Y35251950D01*
X13138524Y35251950D02*
X13150429Y35299569D01*
X13150429Y35299569D02*
X13150429Y35394807D01*
X13150429Y35394807D02*
X13138524Y35418616D01*
X13138524Y35418616D02*
X13126619Y35430521D01*
X13126619Y35430521D02*
X13102810Y35442426D01*
X13102810Y35442426D02*
X13055191Y35442426D01*
X13055191Y35442426D02*
X13031381Y35430521D01*
X13031381Y35430521D02*
X13019476Y35418616D01*
X13019476Y35418616D02*
X13007572Y35394807D01*
X13007572Y35394807D02*
X13007572Y35335283D01*
X13007572Y35335283D02*
X13019476Y35311473D01*
X13019476Y35311473D02*
X13031381Y35299569D01*
X13031381Y35299569D02*
X13055191Y35287664D01*
X13055191Y35287664D02*
X13102810Y35287664D01*
X13102810Y35287664D02*
X13126619Y35299569D01*
X13126619Y35299569D02*
X13138524Y35311473D01*
X13138524Y35311473D02*
X13150429Y35335283D01*
D11*
X9887409Y47625048D02*
X10292171Y47625048D01*
X10292171Y47625048D02*
X10339790Y47648858D01*
X10339790Y47648858D02*
X10363600Y47672667D01*
X10363600Y47672667D02*
X10387409Y47720286D01*
X10387409Y47720286D02*
X10387409Y47815524D01*
X10387409Y47815524D02*
X10363600Y47863143D01*
X10363600Y47863143D02*
X10339790Y47886953D01*
X10339790Y47886953D02*
X10292171Y47910762D01*
X10292171Y47910762D02*
X9887409Y47910762D01*
X9887409Y48101239D02*
X9887409Y48410763D01*
X9887409Y48410763D02*
X10077885Y48244096D01*
X10077885Y48244096D02*
X10077885Y48315525D01*
X10077885Y48315525D02*
X10101695Y48363144D01*
X10101695Y48363144D02*
X10125504Y48386953D01*
X10125504Y48386953D02*
X10173123Y48410763D01*
X10173123Y48410763D02*
X10292171Y48410763D01*
X10292171Y48410763D02*
X10339790Y48386953D01*
X10339790Y48386953D02*
X10363600Y48363144D01*
X10363600Y48363144D02*
X10387409Y48315525D01*
X10387409Y48315525D02*
X10387409Y48172668D01*
X10387409Y48172668D02*
X10363600Y48125049D01*
X10363600Y48125049D02*
X10339790Y48101239D01*
D10*
X36788333Y3720235D02*
X36776429Y3708330D01*
X36776429Y3708330D02*
X36740714Y3696426D01*
X36740714Y3696426D02*
X36716905Y3696426D01*
X36716905Y3696426D02*
X36681191Y3708330D01*
X36681191Y3708330D02*
X36657381Y3732140D01*
X36657381Y3732140D02*
X36645476Y3755950D01*
X36645476Y3755950D02*
X36633572Y3803569D01*
X36633572Y3803569D02*
X36633572Y3839283D01*
X36633572Y3839283D02*
X36645476Y3886902D01*
X36645476Y3886902D02*
X36657381Y3910711D01*
X36657381Y3910711D02*
X36681191Y3934521D01*
X36681191Y3934521D02*
X36716905Y3946426D01*
X36716905Y3946426D02*
X36740714Y3946426D01*
X36740714Y3946426D02*
X36776429Y3934521D01*
X36776429Y3934521D02*
X36788333Y3922616D01*
X37002619Y3946426D02*
X36955000Y3946426D01*
X36955000Y3946426D02*
X36931191Y3934521D01*
X36931191Y3934521D02*
X36919286Y3922616D01*
X36919286Y3922616D02*
X36895476Y3886902D01*
X36895476Y3886902D02*
X36883572Y3839283D01*
X36883572Y3839283D02*
X36883572Y3744045D01*
X36883572Y3744045D02*
X36895476Y3720235D01*
X36895476Y3720235D02*
X36907381Y3708330D01*
X36907381Y3708330D02*
X36931191Y3696426D01*
X36931191Y3696426D02*
X36978810Y3696426D01*
X36978810Y3696426D02*
X37002619Y3708330D01*
X37002619Y3708330D02*
X37014524Y3720235D01*
X37014524Y3720235D02*
X37026429Y3744045D01*
X37026429Y3744045D02*
X37026429Y3803569D01*
X37026429Y3803569D02*
X37014524Y3827378D01*
X37014524Y3827378D02*
X37002619Y3839283D01*
X37002619Y3839283D02*
X36978810Y3851188D01*
X36978810Y3851188D02*
X36931191Y3851188D01*
X36931191Y3851188D02*
X36907381Y3839283D01*
X36907381Y3839283D02*
X36895476Y3827378D01*
X36895476Y3827378D02*
X36883572Y3803569D01*
D13*
X13262927Y2028858D02*
X13072451Y1895525D01*
X13262927Y1800287D02*
X12862927Y1800287D01*
X12862927Y1800287D02*
X12862927Y1952668D01*
X12862927Y1952668D02*
X12881975Y1990763D01*
X12881975Y1990763D02*
X12901022Y2009810D01*
X12901022Y2009810D02*
X12939118Y2028858D01*
X12939118Y2028858D02*
X12996260Y2028858D01*
X12996260Y2028858D02*
X13034356Y2009810D01*
X13034356Y2009810D02*
X13053403Y1990763D01*
X13053403Y1990763D02*
X13072451Y1952668D01*
X13072451Y1952668D02*
X13072451Y1800287D01*
X12901022Y2181239D02*
X12881975Y2200287D01*
X12881975Y2200287D02*
X12862927Y2238382D01*
X12862927Y2238382D02*
X12862927Y2333620D01*
X12862927Y2333620D02*
X12881975Y2371715D01*
X12881975Y2371715D02*
X12901022Y2390763D01*
X12901022Y2390763D02*
X12939118Y2409810D01*
X12939118Y2409810D02*
X12977213Y2409810D01*
X12977213Y2409810D02*
X13034356Y2390763D01*
X13034356Y2390763D02*
X13262927Y2162191D01*
X13262927Y2162191D02*
X13262927Y2409810D01*
X12862927Y2543143D02*
X12862927Y2790762D01*
X12862927Y2790762D02*
X13015308Y2657429D01*
X13015308Y2657429D02*
X13015308Y2714572D01*
X13015308Y2714572D02*
X13034356Y2752667D01*
X13034356Y2752667D02*
X13053403Y2771715D01*
X13053403Y2771715D02*
X13091499Y2790762D01*
X13091499Y2790762D02*
X13186737Y2790762D01*
X13186737Y2790762D02*
X13224832Y2771715D01*
X13224832Y2771715D02*
X13243880Y2752667D01*
X13243880Y2752667D02*
X13262927Y2714572D01*
X13262927Y2714572D02*
X13262927Y2600286D01*
X13262927Y2600286D02*
X13243880Y2562191D01*
X13243880Y2562191D02*
X13224832Y2543143D01*
D12*
X27020333Y49842820D02*
X27020333Y50557105D01*
X27020333Y50557105D02*
X27067952Y50699962D01*
X27067952Y50699962D02*
X27163190Y50795200D01*
X27163190Y50795200D02*
X27306047Y50842820D01*
X27306047Y50842820D02*
X27401285Y50842820D01*
X26115571Y50176153D02*
X26115571Y50842820D01*
X26353666Y49795200D02*
X26591761Y50509486D01*
X26591761Y50509486D02*
X25972714Y50509486D01*
D11*
X10522409Y5842048D02*
X10927171Y5842048D01*
X10927171Y5842048D02*
X10974790Y5865858D01*
X10974790Y5865858D02*
X10998600Y5889667D01*
X10998600Y5889667D02*
X11022409Y5937286D01*
X11022409Y5937286D02*
X11022409Y6032524D01*
X11022409Y6032524D02*
X10998600Y6080143D01*
X10998600Y6080143D02*
X10974790Y6103953D01*
X10974790Y6103953D02*
X10927171Y6127762D01*
X10927171Y6127762D02*
X10522409Y6127762D01*
X11022409Y6627763D02*
X11022409Y6342049D01*
X11022409Y6484906D02*
X10522409Y6484906D01*
X10522409Y6484906D02*
X10593838Y6437287D01*
X10593838Y6437287D02*
X10641457Y6389668D01*
X10641457Y6389668D02*
X10665266Y6342049D01*
D10*
X31863574Y40733286D02*
X31744527Y40649953D01*
X31863574Y40590429D02*
X31613574Y40590429D01*
X31613574Y40590429D02*
X31613574Y40685667D01*
X31613574Y40685667D02*
X31625479Y40709477D01*
X31625479Y40709477D02*
X31637384Y40721382D01*
X31637384Y40721382D02*
X31661193Y40733286D01*
X31661193Y40733286D02*
X31696908Y40733286D01*
X31696908Y40733286D02*
X31720717Y40721382D01*
X31720717Y40721382D02*
X31732622Y40709477D01*
X31732622Y40709477D02*
X31744527Y40685667D01*
X31744527Y40685667D02*
X31744527Y40590429D01*
X31613574Y40816620D02*
X31613574Y40971382D01*
X31613574Y40971382D02*
X31708812Y40888048D01*
X31708812Y40888048D02*
X31708812Y40923763D01*
X31708812Y40923763D02*
X31720717Y40947572D01*
X31720717Y40947572D02*
X31732622Y40959477D01*
X31732622Y40959477D02*
X31756431Y40971382D01*
X31756431Y40971382D02*
X31815955Y40971382D01*
X31815955Y40971382D02*
X31839765Y40959477D01*
X31839765Y40959477D02*
X31851670Y40947572D01*
X31851670Y40947572D02*
X31863574Y40923763D01*
X31863574Y40923763D02*
X31863574Y40852334D01*
X31863574Y40852334D02*
X31851670Y40828525D01*
X31851670Y40828525D02*
X31839765Y40816620D01*
X31613574Y41126143D02*
X31613574Y41149953D01*
X31613574Y41149953D02*
X31625479Y41173762D01*
X31625479Y41173762D02*
X31637384Y41185667D01*
X31637384Y41185667D02*
X31661193Y41197572D01*
X31661193Y41197572D02*
X31708812Y41209477D01*
X31708812Y41209477D02*
X31768336Y41209477D01*
X31768336Y41209477D02*
X31815955Y41197572D01*
X31815955Y41197572D02*
X31839765Y41185667D01*
X31839765Y41185667D02*
X31851670Y41173762D01*
X31851670Y41173762D02*
X31863574Y41149953D01*
X31863574Y41149953D02*
X31863574Y41126143D01*
X31863574Y41126143D02*
X31851670Y41102334D01*
X31851670Y41102334D02*
X31839765Y41090429D01*
X31839765Y41090429D02*
X31815955Y41078524D01*
X31815955Y41078524D02*
X31768336Y41066620D01*
X31768336Y41066620D02*
X31708812Y41066620D01*
X31708812Y41066620D02*
X31661193Y41078524D01*
X31661193Y41078524D02*
X31637384Y41090429D01*
X31637384Y41090429D02*
X31625479Y41102334D01*
X31625479Y41102334D02*
X31613574Y41126143D01*
D13*
X37271333Y4936168D02*
X37252285Y4917120D01*
X37252285Y4917120D02*
X37195143Y4898073D01*
X37195143Y4898073D02*
X37157047Y4898073D01*
X37157047Y4898073D02*
X37099904Y4917120D01*
X37099904Y4917120D02*
X37061809Y4955216D01*
X37061809Y4955216D02*
X37042762Y4993311D01*
X37042762Y4993311D02*
X37023714Y5069501D01*
X37023714Y5069501D02*
X37023714Y5126644D01*
X37023714Y5126644D02*
X37042762Y5202835D01*
X37042762Y5202835D02*
X37061809Y5240930D01*
X37061809Y5240930D02*
X37099904Y5279025D01*
X37099904Y5279025D02*
X37157047Y5298073D01*
X37157047Y5298073D02*
X37195143Y5298073D01*
X37195143Y5298073D02*
X37252285Y5279025D01*
X37252285Y5279025D02*
X37271333Y5259978D01*
X37404666Y5298073D02*
X37671333Y5298073D01*
X37671333Y5298073D02*
X37499904Y4898073D01*
D10*
X12559574Y32097286D02*
X12440527Y32013953D01*
X12559574Y31954429D02*
X12309574Y31954429D01*
X12309574Y31954429D02*
X12309574Y32049667D01*
X12309574Y32049667D02*
X12321479Y32073477D01*
X12321479Y32073477D02*
X12333384Y32085382D01*
X12333384Y32085382D02*
X12357193Y32097286D01*
X12357193Y32097286D02*
X12392908Y32097286D01*
X12392908Y32097286D02*
X12416717Y32085382D01*
X12416717Y32085382D02*
X12428622Y32073477D01*
X12428622Y32073477D02*
X12440527Y32049667D01*
X12440527Y32049667D02*
X12440527Y31954429D01*
X12559574Y32335382D02*
X12559574Y32192525D01*
X12559574Y32263953D02*
X12309574Y32263953D01*
X12309574Y32263953D02*
X12345289Y32240144D01*
X12345289Y32240144D02*
X12369098Y32216334D01*
X12369098Y32216334D02*
X12381003Y32192525D01*
X12416717Y32478239D02*
X12404812Y32454429D01*
X12404812Y32454429D02*
X12392908Y32442524D01*
X12392908Y32442524D02*
X12369098Y32430620D01*
X12369098Y32430620D02*
X12357193Y32430620D01*
X12357193Y32430620D02*
X12333384Y32442524D01*
X12333384Y32442524D02*
X12321479Y32454429D01*
X12321479Y32454429D02*
X12309574Y32478239D01*
X12309574Y32478239D02*
X12309574Y32525858D01*
X12309574Y32525858D02*
X12321479Y32549667D01*
X12321479Y32549667D02*
X12333384Y32561572D01*
X12333384Y32561572D02*
X12357193Y32573477D01*
X12357193Y32573477D02*
X12369098Y32573477D01*
X12369098Y32573477D02*
X12392908Y32561572D01*
X12392908Y32561572D02*
X12404812Y32549667D01*
X12404812Y32549667D02*
X12416717Y32525858D01*
X12416717Y32525858D02*
X12416717Y32478239D01*
X12416717Y32478239D02*
X12428622Y32454429D01*
X12428622Y32454429D02*
X12440527Y32442524D01*
X12440527Y32442524D02*
X12464336Y32430620D01*
X12464336Y32430620D02*
X12511955Y32430620D01*
X12511955Y32430620D02*
X12535765Y32442524D01*
X12535765Y32442524D02*
X12547670Y32454429D01*
X12547670Y32454429D02*
X12559574Y32478239D01*
X12559574Y32478239D02*
X12559574Y32525858D01*
X12559574Y32525858D02*
X12547670Y32549667D01*
X12547670Y32549667D02*
X12535765Y32561572D01*
X12535765Y32561572D02*
X12511955Y32573477D01*
X12511955Y32573477D02*
X12464336Y32573477D01*
X12464336Y32573477D02*
X12440527Y32561572D01*
X12440527Y32561572D02*
X12428622Y32549667D01*
X12428622Y32549667D02*
X12416717Y32525858D01*
X13547333Y56274426D02*
X13464000Y56393473D01*
X13404476Y56274426D02*
X13404476Y56524426D01*
X13404476Y56524426D02*
X13499714Y56524426D01*
X13499714Y56524426D02*
X13523524Y56512521D01*
X13523524Y56512521D02*
X13535429Y56500616D01*
X13535429Y56500616D02*
X13547333Y56476807D01*
X13547333Y56476807D02*
X13547333Y56441092D01*
X13547333Y56441092D02*
X13535429Y56417283D01*
X13535429Y56417283D02*
X13523524Y56405378D01*
X13523524Y56405378D02*
X13499714Y56393473D01*
X13499714Y56393473D02*
X13404476Y56393473D01*
X13785429Y56274426D02*
X13642572Y56274426D01*
X13714000Y56274426D02*
X13714000Y56524426D01*
X13714000Y56524426D02*
X13690191Y56488711D01*
X13690191Y56488711D02*
X13666381Y56464902D01*
X13666381Y56464902D02*
X13642572Y56452997D01*
D13*
X11319832Y9585334D02*
X11338880Y9566286D01*
X11338880Y9566286D02*
X11357927Y9509144D01*
X11357927Y9509144D02*
X11357927Y9471048D01*
X11357927Y9471048D02*
X11338880Y9413905D01*
X11338880Y9413905D02*
X11300784Y9375810D01*
X11300784Y9375810D02*
X11262689Y9356763D01*
X11262689Y9356763D02*
X11186499Y9337715D01*
X11186499Y9337715D02*
X11129356Y9337715D01*
X11129356Y9337715D02*
X11053165Y9356763D01*
X11053165Y9356763D02*
X11015070Y9375810D01*
X11015070Y9375810D02*
X10976975Y9413905D01*
X10976975Y9413905D02*
X10957927Y9471048D01*
X10957927Y9471048D02*
X10957927Y9509144D01*
X10957927Y9509144D02*
X10976975Y9566286D01*
X10976975Y9566286D02*
X10996022Y9585334D01*
X10957927Y9718667D02*
X10957927Y9966286D01*
X10957927Y9966286D02*
X11110308Y9832953D01*
X11110308Y9832953D02*
X11110308Y9890096D01*
X11110308Y9890096D02*
X11129356Y9928191D01*
X11129356Y9928191D02*
X11148403Y9947239D01*
X11148403Y9947239D02*
X11186499Y9966286D01*
X11186499Y9966286D02*
X11281737Y9966286D01*
X11281737Y9966286D02*
X11319832Y9947239D01*
X11319832Y9947239D02*
X11338880Y9928191D01*
X11338880Y9928191D02*
X11357927Y9890096D01*
X11357927Y9890096D02*
X11357927Y9775810D01*
X11357927Y9775810D02*
X11338880Y9737715D01*
X11338880Y9737715D02*
X11319832Y9718667D01*
D12*
X23172905Y8722181D02*
X23172905Y7912658D01*
X23172905Y7912658D02*
X23220524Y7817420D01*
X23220524Y7817420D02*
X23268143Y7769800D01*
X23268143Y7769800D02*
X23363381Y7722181D01*
X23363381Y7722181D02*
X23553857Y7722181D01*
X23553857Y7722181D02*
X23649095Y7769800D01*
X23649095Y7769800D02*
X23696714Y7817420D01*
X23696714Y7817420D02*
X23744333Y7912658D01*
X23744333Y7912658D02*
X23744333Y8722181D01*
X24744333Y7722181D02*
X24172905Y7722181D01*
X24458619Y7722181D02*
X24458619Y8722181D01*
X24458619Y8722181D02*
X24363381Y8579324D01*
X24363381Y8579324D02*
X24268143Y8484086D01*
X24268143Y8484086D02*
X24172905Y8436467D01*
X25125286Y8626943D02*
X25172905Y8674562D01*
X25172905Y8674562D02*
X25268143Y8722181D01*
X25268143Y8722181D02*
X25506238Y8722181D01*
X25506238Y8722181D02*
X25601476Y8674562D01*
X25601476Y8674562D02*
X25649095Y8626943D01*
X25649095Y8626943D02*
X25696714Y8531705D01*
X25696714Y8531705D02*
X25696714Y8436467D01*
X25696714Y8436467D02*
X25649095Y8293610D01*
X25649095Y8293610D02*
X25077667Y7722181D01*
X25077667Y7722181D02*
X25696714Y7722181D01*
D10*
X23862574Y40733286D02*
X23743527Y40649953D01*
X23862574Y40590429D02*
X23612574Y40590429D01*
X23612574Y40590429D02*
X23612574Y40685667D01*
X23612574Y40685667D02*
X23624479Y40709477D01*
X23624479Y40709477D02*
X23636384Y40721382D01*
X23636384Y40721382D02*
X23660193Y40733286D01*
X23660193Y40733286D02*
X23695908Y40733286D01*
X23695908Y40733286D02*
X23719717Y40721382D01*
X23719717Y40721382D02*
X23731622Y40709477D01*
X23731622Y40709477D02*
X23743527Y40685667D01*
X23743527Y40685667D02*
X23743527Y40590429D01*
X23636384Y40828525D02*
X23624479Y40840429D01*
X23624479Y40840429D02*
X23612574Y40864239D01*
X23612574Y40864239D02*
X23612574Y40923763D01*
X23612574Y40923763D02*
X23624479Y40947572D01*
X23624479Y40947572D02*
X23636384Y40959477D01*
X23636384Y40959477D02*
X23660193Y40971382D01*
X23660193Y40971382D02*
X23684003Y40971382D01*
X23684003Y40971382D02*
X23719717Y40959477D01*
X23719717Y40959477D02*
X23862574Y40816620D01*
X23862574Y40816620D02*
X23862574Y40971382D01*
X23612574Y41197572D02*
X23612574Y41078524D01*
X23612574Y41078524D02*
X23731622Y41066620D01*
X23731622Y41066620D02*
X23719717Y41078524D01*
X23719717Y41078524D02*
X23707812Y41102334D01*
X23707812Y41102334D02*
X23707812Y41161858D01*
X23707812Y41161858D02*
X23719717Y41185667D01*
X23719717Y41185667D02*
X23731622Y41197572D01*
X23731622Y41197572D02*
X23755431Y41209477D01*
X23755431Y41209477D02*
X23814955Y41209477D01*
X23814955Y41209477D02*
X23838765Y41197572D01*
X23838765Y41197572D02*
X23850670Y41185667D01*
X23850670Y41185667D02*
X23862574Y41161858D01*
X23862574Y41161858D02*
X23862574Y41102334D01*
X23862574Y41102334D02*
X23850670Y41078524D01*
X23850670Y41078524D02*
X23838765Y41066620D01*
D12*
X19774819Y4746667D02*
X20489104Y4746667D01*
X20489104Y4746667D02*
X20631961Y4699048D01*
X20631961Y4699048D02*
X20727200Y4603810D01*
X20727200Y4603810D02*
X20774819Y4460953D01*
X20774819Y4460953D02*
X20774819Y4365715D01*
X19774819Y5699048D02*
X19774819Y5222858D01*
X19774819Y5222858D02*
X20251009Y5175239D01*
X20251009Y5175239D02*
X20203390Y5222858D01*
X20203390Y5222858D02*
X20155771Y5318096D01*
X20155771Y5318096D02*
X20155771Y5556191D01*
X20155771Y5556191D02*
X20203390Y5651429D01*
X20203390Y5651429D02*
X20251009Y5699048D01*
X20251009Y5699048D02*
X20346247Y5746667D01*
X20346247Y5746667D02*
X20584342Y5746667D01*
X20584342Y5746667D02*
X20679580Y5699048D01*
X20679580Y5699048D02*
X20727200Y5651429D01*
X20727200Y5651429D02*
X20774819Y5556191D01*
X20774819Y5556191D02*
X20774819Y5318096D01*
X20774819Y5318096D02*
X20727200Y5222858D01*
X20727200Y5222858D02*
X20679580Y5175239D01*
D13*
X36255333Y2396168D02*
X36236285Y2377120D01*
X36236285Y2377120D02*
X36179143Y2358073D01*
X36179143Y2358073D02*
X36141047Y2358073D01*
X36141047Y2358073D02*
X36083904Y2377120D01*
X36083904Y2377120D02*
X36045809Y2415216D01*
X36045809Y2415216D02*
X36026762Y2453311D01*
X36026762Y2453311D02*
X36007714Y2529501D01*
X36007714Y2529501D02*
X36007714Y2586644D01*
X36007714Y2586644D02*
X36026762Y2662835D01*
X36026762Y2662835D02*
X36045809Y2700930D01*
X36045809Y2700930D02*
X36083904Y2739025D01*
X36083904Y2739025D02*
X36141047Y2758073D01*
X36141047Y2758073D02*
X36179143Y2758073D01*
X36179143Y2758073D02*
X36236285Y2739025D01*
X36236285Y2739025D02*
X36255333Y2719978D01*
X36598190Y2624740D02*
X36598190Y2358073D01*
X36502952Y2777120D02*
X36407714Y2491406D01*
X36407714Y2491406D02*
X36655333Y2491406D01*
D10*
X12912333Y47257426D02*
X12829000Y47376473D01*
X12769476Y47257426D02*
X12769476Y47507426D01*
X12769476Y47507426D02*
X12864714Y47507426D01*
X12864714Y47507426D02*
X12888524Y47495521D01*
X12888524Y47495521D02*
X12900429Y47483616D01*
X12900429Y47483616D02*
X12912333Y47459807D01*
X12912333Y47459807D02*
X12912333Y47424092D01*
X12912333Y47424092D02*
X12900429Y47400283D01*
X12900429Y47400283D02*
X12888524Y47388378D01*
X12888524Y47388378D02*
X12864714Y47376473D01*
X12864714Y47376473D02*
X12769476Y47376473D01*
X13055191Y47400283D02*
X13031381Y47412188D01*
X13031381Y47412188D02*
X13019476Y47424092D01*
X13019476Y47424092D02*
X13007572Y47447902D01*
X13007572Y47447902D02*
X13007572Y47459807D01*
X13007572Y47459807D02*
X13019476Y47483616D01*
X13019476Y47483616D02*
X13031381Y47495521D01*
X13031381Y47495521D02*
X13055191Y47507426D01*
X13055191Y47507426D02*
X13102810Y47507426D01*
X13102810Y47507426D02*
X13126619Y47495521D01*
X13126619Y47495521D02*
X13138524Y47483616D01*
X13138524Y47483616D02*
X13150429Y47459807D01*
X13150429Y47459807D02*
X13150429Y47447902D01*
X13150429Y47447902D02*
X13138524Y47424092D01*
X13138524Y47424092D02*
X13126619Y47412188D01*
X13126619Y47412188D02*
X13102810Y47400283D01*
X13102810Y47400283D02*
X13055191Y47400283D01*
X13055191Y47400283D02*
X13031381Y47388378D01*
X13031381Y47388378D02*
X13019476Y47376473D01*
X13019476Y47376473D02*
X13007572Y47352664D01*
X13007572Y47352664D02*
X13007572Y47305045D01*
X13007572Y47305045D02*
X13019476Y47281235D01*
X13019476Y47281235D02*
X13031381Y47269330D01*
X13031381Y47269330D02*
X13055191Y47257426D01*
X13055191Y47257426D02*
X13102810Y47257426D01*
X13102810Y47257426D02*
X13126619Y47269330D01*
X13126619Y47269330D02*
X13138524Y47281235D01*
X13138524Y47281235D02*
X13150429Y47305045D01*
X13150429Y47305045D02*
X13150429Y47352664D01*
X13150429Y47352664D02*
X13138524Y47376473D01*
X13138524Y47376473D02*
X13126619Y47388378D01*
X13126619Y47388378D02*
X13102810Y47400283D01*
X17131574Y21683286D02*
X17012527Y21599953D01*
X17131574Y21540429D02*
X16881574Y21540429D01*
X16881574Y21540429D02*
X16881574Y21635667D01*
X16881574Y21635667D02*
X16893479Y21659477D01*
X16893479Y21659477D02*
X16905384Y21671382D01*
X16905384Y21671382D02*
X16929193Y21683286D01*
X16929193Y21683286D02*
X16964908Y21683286D01*
X16964908Y21683286D02*
X16988717Y21671382D01*
X16988717Y21671382D02*
X17000622Y21659477D01*
X17000622Y21659477D02*
X17012527Y21635667D01*
X17012527Y21635667D02*
X17012527Y21540429D01*
X17131574Y21921382D02*
X17131574Y21778525D01*
X17131574Y21849953D02*
X16881574Y21849953D01*
X16881574Y21849953D02*
X16917289Y21826144D01*
X16917289Y21826144D02*
X16941098Y21802334D01*
X16941098Y21802334D02*
X16953003Y21778525D01*
X16881574Y22135667D02*
X16881574Y22088048D01*
X16881574Y22088048D02*
X16893479Y22064239D01*
X16893479Y22064239D02*
X16905384Y22052334D01*
X16905384Y22052334D02*
X16941098Y22028524D01*
X16941098Y22028524D02*
X16988717Y22016620D01*
X16988717Y22016620D02*
X17083955Y22016620D01*
X17083955Y22016620D02*
X17107765Y22028524D01*
X17107765Y22028524D02*
X17119670Y22040429D01*
X17119670Y22040429D02*
X17131574Y22064239D01*
X17131574Y22064239D02*
X17131574Y22111858D01*
X17131574Y22111858D02*
X17119670Y22135667D01*
X17119670Y22135667D02*
X17107765Y22147572D01*
X17107765Y22147572D02*
X17083955Y22159477D01*
X17083955Y22159477D02*
X17024431Y22159477D01*
X17024431Y22159477D02*
X17000622Y22147572D01*
X17000622Y22147572D02*
X16988717Y22135667D01*
X16988717Y22135667D02*
X16976812Y22111858D01*
X16976812Y22111858D02*
X16976812Y22064239D01*
X16976812Y22064239D02*
X16988717Y22040429D01*
X16988717Y22040429D02*
X17000622Y22028524D01*
X17000622Y22028524D02*
X17024431Y22016620D01*
X16623574Y28668286D02*
X16504527Y28584953D01*
X16623574Y28525429D02*
X16373574Y28525429D01*
X16373574Y28525429D02*
X16373574Y28620667D01*
X16373574Y28620667D02*
X16385479Y28644477D01*
X16385479Y28644477D02*
X16397384Y28656382D01*
X16397384Y28656382D02*
X16421193Y28668286D01*
X16421193Y28668286D02*
X16456908Y28668286D01*
X16456908Y28668286D02*
X16480717Y28656382D01*
X16480717Y28656382D02*
X16492622Y28644477D01*
X16492622Y28644477D02*
X16504527Y28620667D01*
X16504527Y28620667D02*
X16504527Y28525429D01*
X16623574Y28906382D02*
X16623574Y28763525D01*
X16623574Y28834953D02*
X16373574Y28834953D01*
X16373574Y28834953D02*
X16409289Y28811144D01*
X16409289Y28811144D02*
X16433098Y28787334D01*
X16433098Y28787334D02*
X16445003Y28763525D01*
X16623574Y29144477D02*
X16623574Y29001620D01*
X16623574Y29073048D02*
X16373574Y29073048D01*
X16373574Y29073048D02*
X16409289Y29049239D01*
X16409289Y29049239D02*
X16433098Y29025429D01*
X16433098Y29025429D02*
X16445003Y29001620D01*
D11*
X29445409Y36068048D02*
X29850171Y36068048D01*
X29850171Y36068048D02*
X29897790Y36091858D01*
X29897790Y36091858D02*
X29921600Y36115667D01*
X29921600Y36115667D02*
X29945409Y36163286D01*
X29945409Y36163286D02*
X29945409Y36258524D01*
X29945409Y36258524D02*
X29921600Y36306143D01*
X29921600Y36306143D02*
X29897790Y36329953D01*
X29897790Y36329953D02*
X29850171Y36353762D01*
X29850171Y36353762D02*
X29445409Y36353762D01*
X29945409Y36615668D02*
X29945409Y36710906D01*
X29945409Y36710906D02*
X29921600Y36758525D01*
X29921600Y36758525D02*
X29897790Y36782334D01*
X29897790Y36782334D02*
X29826361Y36829953D01*
X29826361Y36829953D02*
X29731123Y36853763D01*
X29731123Y36853763D02*
X29540647Y36853763D01*
X29540647Y36853763D02*
X29493028Y36829953D01*
X29493028Y36829953D02*
X29469219Y36806144D01*
X29469219Y36806144D02*
X29445409Y36758525D01*
X29445409Y36758525D02*
X29445409Y36663287D01*
X29445409Y36663287D02*
X29469219Y36615668D01*
X29469219Y36615668D02*
X29493028Y36591858D01*
X29493028Y36591858D02*
X29540647Y36568049D01*
X29540647Y36568049D02*
X29659695Y36568049D01*
X29659695Y36568049D02*
X29707314Y36591858D01*
X29707314Y36591858D02*
X29731123Y36615668D01*
X29731123Y36615668D02*
X29754933Y36663287D01*
X29754933Y36663287D02*
X29754933Y36758525D01*
X29754933Y36758525D02*
X29731123Y36806144D01*
X29731123Y36806144D02*
X29707314Y36829953D01*
X29707314Y36829953D02*
X29659695Y36853763D01*
D10*
X13575574Y31589286D02*
X13456527Y31505953D01*
X13575574Y31446429D02*
X13325574Y31446429D01*
X13325574Y31446429D02*
X13325574Y31541667D01*
X13325574Y31541667D02*
X13337479Y31565477D01*
X13337479Y31565477D02*
X13349384Y31577382D01*
X13349384Y31577382D02*
X13373193Y31589286D01*
X13373193Y31589286D02*
X13408908Y31589286D01*
X13408908Y31589286D02*
X13432717Y31577382D01*
X13432717Y31577382D02*
X13444622Y31565477D01*
X13444622Y31565477D02*
X13456527Y31541667D01*
X13456527Y31541667D02*
X13456527Y31446429D01*
X13349384Y31684525D02*
X13337479Y31696429D01*
X13337479Y31696429D02*
X13325574Y31720239D01*
X13325574Y31720239D02*
X13325574Y31779763D01*
X13325574Y31779763D02*
X13337479Y31803572D01*
X13337479Y31803572D02*
X13349384Y31815477D01*
X13349384Y31815477D02*
X13373193Y31827382D01*
X13373193Y31827382D02*
X13397003Y31827382D01*
X13397003Y31827382D02*
X13432717Y31815477D01*
X13432717Y31815477D02*
X13575574Y31672620D01*
X13575574Y31672620D02*
X13575574Y31827382D01*
X13325574Y32041667D02*
X13325574Y31994048D01*
X13325574Y31994048D02*
X13337479Y31970239D01*
X13337479Y31970239D02*
X13349384Y31958334D01*
X13349384Y31958334D02*
X13385098Y31934524D01*
X13385098Y31934524D02*
X13432717Y31922620D01*
X13432717Y31922620D02*
X13527955Y31922620D01*
X13527955Y31922620D02*
X13551765Y31934524D01*
X13551765Y31934524D02*
X13563670Y31946429D01*
X13563670Y31946429D02*
X13575574Y31970239D01*
X13575574Y31970239D02*
X13575574Y32017858D01*
X13575574Y32017858D02*
X13563670Y32041667D01*
X13563670Y32041667D02*
X13551765Y32053572D01*
X13551765Y32053572D02*
X13527955Y32065477D01*
X13527955Y32065477D02*
X13468431Y32065477D01*
X13468431Y32065477D02*
X13444622Y32053572D01*
X13444622Y32053572D02*
X13432717Y32041667D01*
X13432717Y32041667D02*
X13420812Y32017858D01*
X13420812Y32017858D02*
X13420812Y31970239D01*
X13420812Y31970239D02*
X13432717Y31946429D01*
X13432717Y31946429D02*
X13444622Y31934524D01*
X13444622Y31934524D02*
X13468431Y31922620D01*
D12*
X4534819Y46656667D02*
X5249104Y46656667D01*
X5249104Y46656667D02*
X5391961Y46609048D01*
X5391961Y46609048D02*
X5487200Y46513810D01*
X5487200Y46513810D02*
X5534819Y46370953D01*
X5534819Y46370953D02*
X5534819Y46275715D01*
X4534819Y47037620D02*
X4534819Y47656667D01*
X4534819Y47656667D02*
X4915771Y47323334D01*
X4915771Y47323334D02*
X4915771Y47466191D01*
X4915771Y47466191D02*
X4963390Y47561429D01*
X4963390Y47561429D02*
X5011009Y47609048D01*
X5011009Y47609048D02*
X5106247Y47656667D01*
X5106247Y47656667D02*
X5344342Y47656667D01*
X5344342Y47656667D02*
X5439580Y47609048D01*
X5439580Y47609048D02*
X5487200Y47561429D01*
X5487200Y47561429D02*
X5534819Y47466191D01*
X5534819Y47466191D02*
X5534819Y47180477D01*
X5534819Y47180477D02*
X5487200Y47085239D01*
X5487200Y47085239D02*
X5439580Y47037620D01*
X21690566Y25796334D02*
X22483900Y25796334D01*
X22483900Y25796334D02*
X22577233Y25843000D01*
X22577233Y25843000D02*
X22623900Y25889667D01*
X22623900Y25889667D02*
X22670566Y25983000D01*
X22670566Y25983000D02*
X22670566Y26169667D01*
X22670566Y26169667D02*
X22623900Y26263000D01*
X22623900Y26263000D02*
X22577233Y26309667D01*
X22577233Y26309667D02*
X22483900Y26356334D01*
X22483900Y26356334D02*
X21690566Y26356334D01*
X22110566Y26963001D02*
X22063900Y26869667D01*
X22063900Y26869667D02*
X22017233Y26823001D01*
X22017233Y26823001D02*
X21923900Y26776334D01*
X21923900Y26776334D02*
X21877233Y26776334D01*
X21877233Y26776334D02*
X21783900Y26823001D01*
X21783900Y26823001D02*
X21737233Y26869667D01*
X21737233Y26869667D02*
X21690566Y26963001D01*
X21690566Y26963001D02*
X21690566Y27149667D01*
X21690566Y27149667D02*
X21737233Y27243001D01*
X21737233Y27243001D02*
X21783900Y27289667D01*
X21783900Y27289667D02*
X21877233Y27336334D01*
X21877233Y27336334D02*
X21923900Y27336334D01*
X21923900Y27336334D02*
X22017233Y27289667D01*
X22017233Y27289667D02*
X22063900Y27243001D01*
X22063900Y27243001D02*
X22110566Y27149667D01*
X22110566Y27149667D02*
X22110566Y26963001D01*
X22110566Y26963001D02*
X22157233Y26869667D01*
X22157233Y26869667D02*
X22203900Y26823001D01*
X22203900Y26823001D02*
X22297233Y26776334D01*
X22297233Y26776334D02*
X22483900Y26776334D01*
X22483900Y26776334D02*
X22577233Y26823001D01*
X22577233Y26823001D02*
X22623900Y26869667D01*
X22623900Y26869667D02*
X22670566Y26963001D01*
X22670566Y26963001D02*
X22670566Y27149667D01*
X22670566Y27149667D02*
X22623900Y27243001D01*
X22623900Y27243001D02*
X22577233Y27289667D01*
X22577233Y27289667D02*
X22483900Y27336334D01*
X22483900Y27336334D02*
X22297233Y27336334D01*
X22297233Y27336334D02*
X22203900Y27289667D01*
X22203900Y27289667D02*
X22157233Y27243001D01*
X22157233Y27243001D02*
X22110566Y27149667D01*
D10*
X12912333Y46241426D02*
X12829000Y46360473D01*
X12769476Y46241426D02*
X12769476Y46491426D01*
X12769476Y46491426D02*
X12864714Y46491426D01*
X12864714Y46491426D02*
X12888524Y46479521D01*
X12888524Y46479521D02*
X12900429Y46467616D01*
X12900429Y46467616D02*
X12912333Y46443807D01*
X12912333Y46443807D02*
X12912333Y46408092D01*
X12912333Y46408092D02*
X12900429Y46384283D01*
X12900429Y46384283D02*
X12888524Y46372378D01*
X12888524Y46372378D02*
X12864714Y46360473D01*
X12864714Y46360473D02*
X12769476Y46360473D01*
X12995667Y46491426D02*
X13162333Y46491426D01*
X13162333Y46491426D02*
X13055191Y46241426D01*
X35419574Y4538286D02*
X35300527Y4454953D01*
X35419574Y4395429D02*
X35169574Y4395429D01*
X35169574Y4395429D02*
X35169574Y4490667D01*
X35169574Y4490667D02*
X35181479Y4514477D01*
X35181479Y4514477D02*
X35193384Y4526382D01*
X35193384Y4526382D02*
X35217193Y4538286D01*
X35217193Y4538286D02*
X35252908Y4538286D01*
X35252908Y4538286D02*
X35276717Y4526382D01*
X35276717Y4526382D02*
X35288622Y4514477D01*
X35288622Y4514477D02*
X35300527Y4490667D01*
X35300527Y4490667D02*
X35300527Y4395429D01*
X35193384Y4633525D02*
X35181479Y4645429D01*
X35181479Y4645429D02*
X35169574Y4669239D01*
X35169574Y4669239D02*
X35169574Y4728763D01*
X35169574Y4728763D02*
X35181479Y4752572D01*
X35181479Y4752572D02*
X35193384Y4764477D01*
X35193384Y4764477D02*
X35217193Y4776382D01*
X35217193Y4776382D02*
X35241003Y4776382D01*
X35241003Y4776382D02*
X35276717Y4764477D01*
X35276717Y4764477D02*
X35419574Y4621620D01*
X35419574Y4621620D02*
X35419574Y4776382D01*
X35193384Y4871620D02*
X35181479Y4883524D01*
X35181479Y4883524D02*
X35169574Y4907334D01*
X35169574Y4907334D02*
X35169574Y4966858D01*
X35169574Y4966858D02*
X35181479Y4990667D01*
X35181479Y4990667D02*
X35193384Y5002572D01*
X35193384Y5002572D02*
X35217193Y5014477D01*
X35217193Y5014477D02*
X35241003Y5014477D01*
X35241003Y5014477D02*
X35276717Y5002572D01*
X35276717Y5002572D02*
X35419574Y4859715D01*
X35419574Y4859715D02*
X35419574Y5014477D01*
D14*
X11814731Y26325557D02*
X11814731Y26055715D01*
X11814731Y26055715D02*
X11248064Y26055715D01*
X11302032Y26487461D02*
X11275048Y26514445D01*
X11275048Y26514445D02*
X11248064Y26568413D01*
X11248064Y26568413D02*
X11248064Y26703334D01*
X11248064Y26703334D02*
X11275048Y26757302D01*
X11275048Y26757302D02*
X11302032Y26784287D01*
X11302032Y26784287D02*
X11356000Y26811271D01*
X11356000Y26811271D02*
X11409969Y26811271D01*
X11409969Y26811271D02*
X11490921Y26784287D01*
X11490921Y26784287D02*
X11814731Y26460477D01*
X11814731Y26460477D02*
X11814731Y26811271D01*
D10*
X12912333Y49670426D02*
X12829000Y49789473D01*
X12769476Y49670426D02*
X12769476Y49920426D01*
X12769476Y49920426D02*
X12864714Y49920426D01*
X12864714Y49920426D02*
X12888524Y49908521D01*
X12888524Y49908521D02*
X12900429Y49896616D01*
X12900429Y49896616D02*
X12912333Y49872807D01*
X12912333Y49872807D02*
X12912333Y49837092D01*
X12912333Y49837092D02*
X12900429Y49813283D01*
X12900429Y49813283D02*
X12888524Y49801378D01*
X12888524Y49801378D02*
X12864714Y49789473D01*
X12864714Y49789473D02*
X12769476Y49789473D01*
X13138524Y49920426D02*
X13019476Y49920426D01*
X13019476Y49920426D02*
X13007572Y49801378D01*
X13007572Y49801378D02*
X13019476Y49813283D01*
X13019476Y49813283D02*
X13043286Y49825188D01*
X13043286Y49825188D02*
X13102810Y49825188D01*
X13102810Y49825188D02*
X13126619Y49813283D01*
X13126619Y49813283D02*
X13138524Y49801378D01*
X13138524Y49801378D02*
X13150429Y49777569D01*
X13150429Y49777569D02*
X13150429Y49718045D01*
X13150429Y49718045D02*
X13138524Y49694235D01*
X13138524Y49694235D02*
X13126619Y49682330D01*
X13126619Y49682330D02*
X13102810Y49670426D01*
X13102810Y49670426D02*
X13043286Y49670426D01*
X13043286Y49670426D02*
X13019476Y49682330D01*
X13019476Y49682330D02*
X13007572Y49694235D01*
D12*
X21690566Y33797334D02*
X22483900Y33797334D01*
X22483900Y33797334D02*
X22577233Y33844000D01*
X22577233Y33844000D02*
X22623900Y33890667D01*
X22623900Y33890667D02*
X22670566Y33984000D01*
X22670566Y33984000D02*
X22670566Y34170667D01*
X22670566Y34170667D02*
X22623900Y34264000D01*
X22623900Y34264000D02*
X22577233Y34310667D01*
X22577233Y34310667D02*
X22483900Y34357334D01*
X22483900Y34357334D02*
X21690566Y34357334D01*
X21690566Y34730667D02*
X21690566Y35384001D01*
X21690566Y35384001D02*
X22670566Y34964001D01*
D10*
X13547333Y53099426D02*
X13464000Y53218473D01*
X13404476Y53099426D02*
X13404476Y53349426D01*
X13404476Y53349426D02*
X13499714Y53349426D01*
X13499714Y53349426D02*
X13523524Y53337521D01*
X13523524Y53337521D02*
X13535429Y53325616D01*
X13535429Y53325616D02*
X13547333Y53301807D01*
X13547333Y53301807D02*
X13547333Y53266092D01*
X13547333Y53266092D02*
X13535429Y53242283D01*
X13535429Y53242283D02*
X13523524Y53230378D01*
X13523524Y53230378D02*
X13499714Y53218473D01*
X13499714Y53218473D02*
X13404476Y53218473D01*
X13630667Y53349426D02*
X13785429Y53349426D01*
X13785429Y53349426D02*
X13702095Y53254188D01*
X13702095Y53254188D02*
X13737810Y53254188D01*
X13737810Y53254188D02*
X13761619Y53242283D01*
X13761619Y53242283D02*
X13773524Y53230378D01*
X13773524Y53230378D02*
X13785429Y53206569D01*
X13785429Y53206569D02*
X13785429Y53147045D01*
X13785429Y53147045D02*
X13773524Y53123235D01*
X13773524Y53123235D02*
X13761619Y53111330D01*
X13761619Y53111330D02*
X13737810Y53099426D01*
X13737810Y53099426D02*
X13666381Y53099426D01*
X13666381Y53099426D02*
X13642572Y53111330D01*
X13642572Y53111330D02*
X13630667Y53123235D01*
D11*
X9887409Y54991048D02*
X10292171Y54991048D01*
X10292171Y54991048D02*
X10339790Y55014858D01*
X10339790Y55014858D02*
X10363600Y55038667D01*
X10363600Y55038667D02*
X10387409Y55086286D01*
X10387409Y55086286D02*
X10387409Y55181524D01*
X10387409Y55181524D02*
X10363600Y55229143D01*
X10363600Y55229143D02*
X10339790Y55252953D01*
X10339790Y55252953D02*
X10292171Y55276762D01*
X10292171Y55276762D02*
X9887409Y55276762D01*
X9887409Y55752953D02*
X9887409Y55514858D01*
X9887409Y55514858D02*
X10125504Y55491049D01*
X10125504Y55491049D02*
X10101695Y55514858D01*
X10101695Y55514858D02*
X10077885Y55562477D01*
X10077885Y55562477D02*
X10077885Y55681525D01*
X10077885Y55681525D02*
X10101695Y55729144D01*
X10101695Y55729144D02*
X10125504Y55752953D01*
X10125504Y55752953D02*
X10173123Y55776763D01*
X10173123Y55776763D02*
X10292171Y55776763D01*
X10292171Y55776763D02*
X10339790Y55752953D01*
X10339790Y55752953D02*
X10363600Y55729144D01*
X10363600Y55729144D02*
X10387409Y55681525D01*
X10387409Y55681525D02*
X10387409Y55562477D01*
X10387409Y55562477D02*
X10363600Y55514858D01*
X10363600Y55514858D02*
X10339790Y55491049D01*
D10*
X12793285Y36208426D02*
X12709952Y36327473D01*
X12650428Y36208426D02*
X12650428Y36458426D01*
X12650428Y36458426D02*
X12745666Y36458426D01*
X12745666Y36458426D02*
X12769476Y36446521D01*
X12769476Y36446521D02*
X12781381Y36434616D01*
X12781381Y36434616D02*
X12793285Y36410807D01*
X12793285Y36410807D02*
X12793285Y36375092D01*
X12793285Y36375092D02*
X12781381Y36351283D01*
X12781381Y36351283D02*
X12769476Y36339378D01*
X12769476Y36339378D02*
X12745666Y36327473D01*
X12745666Y36327473D02*
X12650428Y36327473D01*
X13031381Y36208426D02*
X12888524Y36208426D01*
X12959952Y36208426D02*
X12959952Y36458426D01*
X12959952Y36458426D02*
X12936143Y36422711D01*
X12936143Y36422711D02*
X12912333Y36398902D01*
X12912333Y36398902D02*
X12888524Y36386997D01*
X13186142Y36458426D02*
X13209952Y36458426D01*
X13209952Y36458426D02*
X13233761Y36446521D01*
X13233761Y36446521D02*
X13245666Y36434616D01*
X13245666Y36434616D02*
X13257571Y36410807D01*
X13257571Y36410807D02*
X13269476Y36363188D01*
X13269476Y36363188D02*
X13269476Y36303664D01*
X13269476Y36303664D02*
X13257571Y36256045D01*
X13257571Y36256045D02*
X13245666Y36232235D01*
X13245666Y36232235D02*
X13233761Y36220330D01*
X13233761Y36220330D02*
X13209952Y36208426D01*
X13209952Y36208426D02*
X13186142Y36208426D01*
X13186142Y36208426D02*
X13162333Y36220330D01*
X13162333Y36220330D02*
X13150428Y36232235D01*
X13150428Y36232235D02*
X13138523Y36256045D01*
X13138523Y36256045D02*
X13126619Y36303664D01*
X13126619Y36303664D02*
X13126619Y36363188D01*
X13126619Y36363188D02*
X13138523Y36410807D01*
X13138523Y36410807D02*
X13150428Y36434616D01*
X13150428Y36434616D02*
X13162333Y36446521D01*
X13162333Y36446521D02*
X13186142Y36458426D01*
D11*
X29445409Y32146953D02*
X29850171Y32146953D01*
X29850171Y32146953D02*
X29897790Y32170763D01*
X29897790Y32170763D02*
X29921600Y32194572D01*
X29921600Y32194572D02*
X29945409Y32242191D01*
X29945409Y32242191D02*
X29945409Y32337429D01*
X29945409Y32337429D02*
X29921600Y32385048D01*
X29921600Y32385048D02*
X29897790Y32408858D01*
X29897790Y32408858D02*
X29850171Y32432667D01*
X29850171Y32432667D02*
X29445409Y32432667D01*
X29945409Y32932668D02*
X29945409Y32646954D01*
X29945409Y32789811D02*
X29445409Y32789811D01*
X29445409Y32789811D02*
X29516838Y32742192D01*
X29516838Y32742192D02*
X29564457Y32694573D01*
X29564457Y32694573D02*
X29588266Y32646954D01*
X29445409Y33242191D02*
X29445409Y33289810D01*
X29445409Y33289810D02*
X29469219Y33337429D01*
X29469219Y33337429D02*
X29493028Y33361239D01*
X29493028Y33361239D02*
X29540647Y33385048D01*
X29540647Y33385048D02*
X29635885Y33408858D01*
X29635885Y33408858D02*
X29754933Y33408858D01*
X29754933Y33408858D02*
X29850171Y33385048D01*
X29850171Y33385048D02*
X29897790Y33361239D01*
X29897790Y33361239D02*
X29921600Y33337429D01*
X29921600Y33337429D02*
X29945409Y33289810D01*
X29945409Y33289810D02*
X29945409Y33242191D01*
X29945409Y33242191D02*
X29921600Y33194572D01*
X29921600Y33194572D02*
X29897790Y33170763D01*
X29897790Y33170763D02*
X29850171Y33146953D01*
X29850171Y33146953D02*
X29754933Y33123144D01*
X29754933Y33123144D02*
X29635885Y33123144D01*
X29635885Y33123144D02*
X29540647Y33146953D01*
X29540647Y33146953D02*
X29493028Y33170763D01*
X29493028Y33170763D02*
X29469219Y33194572D01*
X29469219Y33194572D02*
X29445409Y33242191D01*
D10*
X25894574Y40733286D02*
X25775527Y40649953D01*
X25894574Y40590429D02*
X25644574Y40590429D01*
X25644574Y40590429D02*
X25644574Y40685667D01*
X25644574Y40685667D02*
X25656479Y40709477D01*
X25656479Y40709477D02*
X25668384Y40721382D01*
X25668384Y40721382D02*
X25692193Y40733286D01*
X25692193Y40733286D02*
X25727908Y40733286D01*
X25727908Y40733286D02*
X25751717Y40721382D01*
X25751717Y40721382D02*
X25763622Y40709477D01*
X25763622Y40709477D02*
X25775527Y40685667D01*
X25775527Y40685667D02*
X25775527Y40590429D01*
X25668384Y40828525D02*
X25656479Y40840429D01*
X25656479Y40840429D02*
X25644574Y40864239D01*
X25644574Y40864239D02*
X25644574Y40923763D01*
X25644574Y40923763D02*
X25656479Y40947572D01*
X25656479Y40947572D02*
X25668384Y40959477D01*
X25668384Y40959477D02*
X25692193Y40971382D01*
X25692193Y40971382D02*
X25716003Y40971382D01*
X25716003Y40971382D02*
X25751717Y40959477D01*
X25751717Y40959477D02*
X25894574Y40816620D01*
X25894574Y40816620D02*
X25894574Y40971382D01*
X25751717Y41114239D02*
X25739812Y41090429D01*
X25739812Y41090429D02*
X25727908Y41078524D01*
X25727908Y41078524D02*
X25704098Y41066620D01*
X25704098Y41066620D02*
X25692193Y41066620D01*
X25692193Y41066620D02*
X25668384Y41078524D01*
X25668384Y41078524D02*
X25656479Y41090429D01*
X25656479Y41090429D02*
X25644574Y41114239D01*
X25644574Y41114239D02*
X25644574Y41161858D01*
X25644574Y41161858D02*
X25656479Y41185667D01*
X25656479Y41185667D02*
X25668384Y41197572D01*
X25668384Y41197572D02*
X25692193Y41209477D01*
X25692193Y41209477D02*
X25704098Y41209477D01*
X25704098Y41209477D02*
X25727908Y41197572D01*
X25727908Y41197572D02*
X25739812Y41185667D01*
X25739812Y41185667D02*
X25751717Y41161858D01*
X25751717Y41161858D02*
X25751717Y41114239D01*
X25751717Y41114239D02*
X25763622Y41090429D01*
X25763622Y41090429D02*
X25775527Y41078524D01*
X25775527Y41078524D02*
X25799336Y41066620D01*
X25799336Y41066620D02*
X25846955Y41066620D01*
X25846955Y41066620D02*
X25870765Y41078524D01*
X25870765Y41078524D02*
X25882670Y41090429D01*
X25882670Y41090429D02*
X25894574Y41114239D01*
X25894574Y41114239D02*
X25894574Y41161858D01*
X25894574Y41161858D02*
X25882670Y41185667D01*
X25882670Y41185667D02*
X25870765Y41197572D01*
X25870765Y41197572D02*
X25846955Y41209477D01*
X25846955Y41209477D02*
X25799336Y41209477D01*
X25799336Y41209477D02*
X25775527Y41197572D01*
X25775527Y41197572D02*
X25763622Y41185667D01*
X25763622Y41185667D02*
X25751717Y41161858D01*
X12912333Y50686426D02*
X12829000Y50805473D01*
X12769476Y50686426D02*
X12769476Y50936426D01*
X12769476Y50936426D02*
X12864714Y50936426D01*
X12864714Y50936426D02*
X12888524Y50924521D01*
X12888524Y50924521D02*
X12900429Y50912616D01*
X12900429Y50912616D02*
X12912333Y50888807D01*
X12912333Y50888807D02*
X12912333Y50853092D01*
X12912333Y50853092D02*
X12900429Y50829283D01*
X12900429Y50829283D02*
X12888524Y50817378D01*
X12888524Y50817378D02*
X12864714Y50805473D01*
X12864714Y50805473D02*
X12769476Y50805473D01*
X13126619Y50936426D02*
X13079000Y50936426D01*
X13079000Y50936426D02*
X13055191Y50924521D01*
X13055191Y50924521D02*
X13043286Y50912616D01*
X13043286Y50912616D02*
X13019476Y50876902D01*
X13019476Y50876902D02*
X13007572Y50829283D01*
X13007572Y50829283D02*
X13007572Y50734045D01*
X13007572Y50734045D02*
X13019476Y50710235D01*
X13019476Y50710235D02*
X13031381Y50698330D01*
X13031381Y50698330D02*
X13055191Y50686426D01*
X13055191Y50686426D02*
X13102810Y50686426D01*
X13102810Y50686426D02*
X13126619Y50698330D01*
X13126619Y50698330D02*
X13138524Y50710235D01*
X13138524Y50710235D02*
X13150429Y50734045D01*
X13150429Y50734045D02*
X13150429Y50793569D01*
X13150429Y50793569D02*
X13138524Y50817378D01*
X13138524Y50817378D02*
X13126619Y50829283D01*
X13126619Y50829283D02*
X13102810Y50841188D01*
X13102810Y50841188D02*
X13055191Y50841188D01*
X13055191Y50841188D02*
X13031381Y50829283D01*
X13031381Y50829283D02*
X13019476Y50817378D01*
X13019476Y50817378D02*
X13007572Y50793569D01*
D13*
X11738927Y1990763D02*
X11338927Y1990763D01*
X11338927Y1990763D02*
X11338927Y2086001D01*
X11338927Y2086001D02*
X11357975Y2143144D01*
X11357975Y2143144D02*
X11396070Y2181239D01*
X11396070Y2181239D02*
X11434165Y2200286D01*
X11434165Y2200286D02*
X11510356Y2219334D01*
X11510356Y2219334D02*
X11567499Y2219334D01*
X11567499Y2219334D02*
X11643689Y2200286D01*
X11643689Y2200286D02*
X11681784Y2181239D01*
X11681784Y2181239D02*
X11719880Y2143144D01*
X11719880Y2143144D02*
X11738927Y2086001D01*
X11738927Y2086001D02*
X11738927Y1990763D01*
X11377022Y2371715D02*
X11357975Y2390763D01*
X11357975Y2390763D02*
X11338927Y2428858D01*
X11338927Y2428858D02*
X11338927Y2524096D01*
X11338927Y2524096D02*
X11357975Y2562191D01*
X11357975Y2562191D02*
X11377022Y2581239D01*
X11377022Y2581239D02*
X11415118Y2600286D01*
X11415118Y2600286D02*
X11453213Y2600286D01*
X11453213Y2600286D02*
X11510356Y2581239D01*
X11510356Y2581239D02*
X11738927Y2352667D01*
X11738927Y2352667D02*
X11738927Y2600286D01*
D10*
X31208285Y26683426D02*
X31124952Y26802473D01*
X31065428Y26683426D02*
X31065428Y26933426D01*
X31065428Y26933426D02*
X31160666Y26933426D01*
X31160666Y26933426D02*
X31184476Y26921521D01*
X31184476Y26921521D02*
X31196381Y26909616D01*
X31196381Y26909616D02*
X31208285Y26885807D01*
X31208285Y26885807D02*
X31208285Y26850092D01*
X31208285Y26850092D02*
X31196381Y26826283D01*
X31196381Y26826283D02*
X31184476Y26814378D01*
X31184476Y26814378D02*
X31160666Y26802473D01*
X31160666Y26802473D02*
X31065428Y26802473D01*
X31303524Y26909616D02*
X31315428Y26921521D01*
X31315428Y26921521D02*
X31339238Y26933426D01*
X31339238Y26933426D02*
X31398762Y26933426D01*
X31398762Y26933426D02*
X31422571Y26921521D01*
X31422571Y26921521D02*
X31434476Y26909616D01*
X31434476Y26909616D02*
X31446381Y26885807D01*
X31446381Y26885807D02*
X31446381Y26861997D01*
X31446381Y26861997D02*
X31434476Y26826283D01*
X31434476Y26826283D02*
X31291619Y26683426D01*
X31291619Y26683426D02*
X31446381Y26683426D01*
X31601142Y26933426D02*
X31624952Y26933426D01*
X31624952Y26933426D02*
X31648761Y26921521D01*
X31648761Y26921521D02*
X31660666Y26909616D01*
X31660666Y26909616D02*
X31672571Y26885807D01*
X31672571Y26885807D02*
X31684476Y26838188D01*
X31684476Y26838188D02*
X31684476Y26778664D01*
X31684476Y26778664D02*
X31672571Y26731045D01*
X31672571Y26731045D02*
X31660666Y26707235D01*
X31660666Y26707235D02*
X31648761Y26695330D01*
X31648761Y26695330D02*
X31624952Y26683426D01*
X31624952Y26683426D02*
X31601142Y26683426D01*
X31601142Y26683426D02*
X31577333Y26695330D01*
X31577333Y26695330D02*
X31565428Y26707235D01*
X31565428Y26707235D02*
X31553523Y26731045D01*
X31553523Y26731045D02*
X31541619Y26778664D01*
X31541619Y26778664D02*
X31541619Y26838188D01*
X31541619Y26838188D02*
X31553523Y26885807D01*
X31553523Y26885807D02*
X31565428Y26909616D01*
X31565428Y26909616D02*
X31577333Y26921521D01*
X31577333Y26921521D02*
X31601142Y26933426D01*
X13547333Y57290426D02*
X13464000Y57409473D01*
X13404476Y57290426D02*
X13404476Y57540426D01*
X13404476Y57540426D02*
X13499714Y57540426D01*
X13499714Y57540426D02*
X13523524Y57528521D01*
X13523524Y57528521D02*
X13535429Y57516616D01*
X13535429Y57516616D02*
X13547333Y57492807D01*
X13547333Y57492807D02*
X13547333Y57457092D01*
X13547333Y57457092D02*
X13535429Y57433283D01*
X13535429Y57433283D02*
X13523524Y57421378D01*
X13523524Y57421378D02*
X13499714Y57409473D01*
X13499714Y57409473D02*
X13404476Y57409473D01*
X13642572Y57516616D02*
X13654476Y57528521D01*
X13654476Y57528521D02*
X13678286Y57540426D01*
X13678286Y57540426D02*
X13737810Y57540426D01*
X13737810Y57540426D02*
X13761619Y57528521D01*
X13761619Y57528521D02*
X13773524Y57516616D01*
X13773524Y57516616D02*
X13785429Y57492807D01*
X13785429Y57492807D02*
X13785429Y57468997D01*
X13785429Y57468997D02*
X13773524Y57433283D01*
X13773524Y57433283D02*
X13630667Y57290426D01*
X13630667Y57290426D02*
X13785429Y57290426D01*
X32244574Y31081286D02*
X32125527Y30997953D01*
X32244574Y30938429D02*
X31994574Y30938429D01*
X31994574Y30938429D02*
X31994574Y31033667D01*
X31994574Y31033667D02*
X32006479Y31057477D01*
X32006479Y31057477D02*
X32018384Y31069382D01*
X32018384Y31069382D02*
X32042193Y31081286D01*
X32042193Y31081286D02*
X32077908Y31081286D01*
X32077908Y31081286D02*
X32101717Y31069382D01*
X32101717Y31069382D02*
X32113622Y31057477D01*
X32113622Y31057477D02*
X32125527Y31033667D01*
X32125527Y31033667D02*
X32125527Y30938429D01*
X32244574Y31319382D02*
X32244574Y31176525D01*
X32244574Y31247953D02*
X31994574Y31247953D01*
X31994574Y31247953D02*
X32030289Y31224144D01*
X32030289Y31224144D02*
X32054098Y31200334D01*
X32054098Y31200334D02*
X32066003Y31176525D01*
X32244574Y31438429D02*
X32244574Y31486048D01*
X32244574Y31486048D02*
X32232670Y31509858D01*
X32232670Y31509858D02*
X32220765Y31521762D01*
X32220765Y31521762D02*
X32185050Y31545572D01*
X32185050Y31545572D02*
X32137431Y31557477D01*
X32137431Y31557477D02*
X32042193Y31557477D01*
X32042193Y31557477D02*
X32018384Y31545572D01*
X32018384Y31545572D02*
X32006479Y31533667D01*
X32006479Y31533667D02*
X31994574Y31509858D01*
X31994574Y31509858D02*
X31994574Y31462239D01*
X31994574Y31462239D02*
X32006479Y31438429D01*
X32006479Y31438429D02*
X32018384Y31426524D01*
X32018384Y31426524D02*
X32042193Y31414620D01*
X32042193Y31414620D02*
X32101717Y31414620D01*
X32101717Y31414620D02*
X32125527Y31426524D01*
X32125527Y31426524D02*
X32137431Y31438429D01*
X32137431Y31438429D02*
X32149336Y31462239D01*
X32149336Y31462239D02*
X32149336Y31509858D01*
X32149336Y31509858D02*
X32137431Y31533667D01*
X32137431Y31533667D02*
X32125527Y31545572D01*
X32125527Y31545572D02*
X32101717Y31557477D01*
D11*
X10014409Y58674048D02*
X10419171Y58674048D01*
X10419171Y58674048D02*
X10466790Y58697858D01*
X10466790Y58697858D02*
X10490600Y58721667D01*
X10490600Y58721667D02*
X10514409Y58769286D01*
X10514409Y58769286D02*
X10514409Y58864524D01*
X10514409Y58864524D02*
X10490600Y58912143D01*
X10490600Y58912143D02*
X10466790Y58935953D01*
X10466790Y58935953D02*
X10419171Y58959762D01*
X10419171Y58959762D02*
X10014409Y58959762D01*
X10014409Y59412144D02*
X10014409Y59316906D01*
X10014409Y59316906D02*
X10038219Y59269287D01*
X10038219Y59269287D02*
X10062028Y59245477D01*
X10062028Y59245477D02*
X10133457Y59197858D01*
X10133457Y59197858D02*
X10228695Y59174049D01*
X10228695Y59174049D02*
X10419171Y59174049D01*
X10419171Y59174049D02*
X10466790Y59197858D01*
X10466790Y59197858D02*
X10490600Y59221668D01*
X10490600Y59221668D02*
X10514409Y59269287D01*
X10514409Y59269287D02*
X10514409Y59364525D01*
X10514409Y59364525D02*
X10490600Y59412144D01*
X10490600Y59412144D02*
X10466790Y59435953D01*
X10466790Y59435953D02*
X10419171Y59459763D01*
X10419171Y59459763D02*
X10300123Y59459763D01*
X10300123Y59459763D02*
X10252504Y59435953D01*
X10252504Y59435953D02*
X10228695Y59412144D01*
X10228695Y59412144D02*
X10204885Y59364525D01*
X10204885Y59364525D02*
X10204885Y59269287D01*
X10204885Y59269287D02*
X10228695Y59221668D01*
X10228695Y59221668D02*
X10252504Y59197858D01*
X10252504Y59197858D02*
X10300123Y59174049D01*
D12*
X8684819Y16481906D02*
X7684819Y16481906D01*
X7684819Y16481906D02*
X7684819Y16720001D01*
X7684819Y16720001D02*
X7732438Y16862858D01*
X7732438Y16862858D02*
X7827676Y16958096D01*
X7827676Y16958096D02*
X7922914Y17005715D01*
X7922914Y17005715D02*
X8113390Y17053334D01*
X8113390Y17053334D02*
X8256247Y17053334D01*
X8256247Y17053334D02*
X8446723Y17005715D01*
X8446723Y17005715D02*
X8541961Y16958096D01*
X8541961Y16958096D02*
X8637200Y16862858D01*
X8637200Y16862858D02*
X8684819Y16720001D01*
X8684819Y16720001D02*
X8684819Y16481906D01*
X8684819Y18005715D02*
X8684819Y17434287D01*
X8684819Y17720001D02*
X7684819Y17720001D01*
X7684819Y17720001D02*
X7827676Y17624763D01*
X7827676Y17624763D02*
X7922914Y17529525D01*
X7922914Y17529525D02*
X7970533Y17434287D01*
D11*
X10435028Y32845381D02*
X10411219Y32797762D01*
X10411219Y32797762D02*
X10363600Y32750143D01*
X10363600Y32750143D02*
X10292171Y32678715D01*
X10292171Y32678715D02*
X10268361Y32631096D01*
X10268361Y32631096D02*
X10268361Y32583477D01*
X10387409Y32607286D02*
X10363600Y32559667D01*
X10363600Y32559667D02*
X10315980Y32512048D01*
X10315980Y32512048D02*
X10220742Y32488239D01*
X10220742Y32488239D02*
X10054076Y32488239D01*
X10054076Y32488239D02*
X9958838Y32512048D01*
X9958838Y32512048D02*
X9911219Y32559667D01*
X9911219Y32559667D02*
X9887409Y32607286D01*
X9887409Y32607286D02*
X9887409Y32702524D01*
X9887409Y32702524D02*
X9911219Y32750143D01*
X9911219Y32750143D02*
X9958838Y32797762D01*
X9958838Y32797762D02*
X10054076Y32821572D01*
X10054076Y32821572D02*
X10220742Y32821572D01*
X10220742Y32821572D02*
X10315980Y32797762D01*
X10315980Y32797762D02*
X10363600Y32750143D01*
X10363600Y32750143D02*
X10387409Y32702524D01*
X10387409Y32702524D02*
X10387409Y32607286D01*
X10387409Y33297763D02*
X10387409Y33012049D01*
X10387409Y33154906D02*
X9887409Y33154906D01*
X9887409Y33154906D02*
X9958838Y33107287D01*
X9958838Y33107287D02*
X10006457Y33059668D01*
X10006457Y33059668D02*
X10030266Y33012049D01*
D12*
X39054819Y31416667D02*
X39769104Y31416667D01*
X39769104Y31416667D02*
X39911961Y31369048D01*
X39911961Y31369048D02*
X40007200Y31273810D01*
X40007200Y31273810D02*
X40054819Y31130953D01*
X40054819Y31130953D02*
X40054819Y31035715D01*
X39150057Y31845239D02*
X39102438Y31892858D01*
X39102438Y31892858D02*
X39054819Y31988096D01*
X39054819Y31988096D02*
X39054819Y32226191D01*
X39054819Y32226191D02*
X39102438Y32321429D01*
X39102438Y32321429D02*
X39150057Y32369048D01*
X39150057Y32369048D02*
X39245295Y32416667D01*
X39245295Y32416667D02*
X39340533Y32416667D01*
X39340533Y32416667D02*
X39483390Y32369048D01*
X39483390Y32369048D02*
X40054819Y31797620D01*
X40054819Y31797620D02*
X40054819Y32416667D01*
D11*
X9887409Y36195048D02*
X10292171Y36195048D01*
X10292171Y36195048D02*
X10339790Y36218858D01*
X10339790Y36218858D02*
X10363600Y36242667D01*
X10363600Y36242667D02*
X10387409Y36290286D01*
X10387409Y36290286D02*
X10387409Y36385524D01*
X10387409Y36385524D02*
X10363600Y36433143D01*
X10363600Y36433143D02*
X10339790Y36456953D01*
X10339790Y36456953D02*
X10292171Y36480762D01*
X10292171Y36480762D02*
X9887409Y36480762D01*
X9935028Y36695049D02*
X9911219Y36718858D01*
X9911219Y36718858D02*
X9887409Y36766477D01*
X9887409Y36766477D02*
X9887409Y36885525D01*
X9887409Y36885525D02*
X9911219Y36933144D01*
X9911219Y36933144D02*
X9935028Y36956953D01*
X9935028Y36956953D02*
X9982647Y36980763D01*
X9982647Y36980763D02*
X10030266Y36980763D01*
X10030266Y36980763D02*
X10101695Y36956953D01*
X10101695Y36956953D02*
X10387409Y36671239D01*
X10387409Y36671239D02*
X10387409Y36980763D01*
D10*
X32244574Y34764286D02*
X32125527Y34680953D01*
X32244574Y34621429D02*
X31994574Y34621429D01*
X31994574Y34621429D02*
X31994574Y34716667D01*
X31994574Y34716667D02*
X32006479Y34740477D01*
X32006479Y34740477D02*
X32018384Y34752382D01*
X32018384Y34752382D02*
X32042193Y34764286D01*
X32042193Y34764286D02*
X32077908Y34764286D01*
X32077908Y34764286D02*
X32101717Y34752382D01*
X32101717Y34752382D02*
X32113622Y34740477D01*
X32113622Y34740477D02*
X32125527Y34716667D01*
X32125527Y34716667D02*
X32125527Y34621429D01*
X32244574Y35002382D02*
X32244574Y34859525D01*
X32244574Y34930953D02*
X31994574Y34930953D01*
X31994574Y34930953D02*
X32030289Y34907144D01*
X32030289Y34907144D02*
X32054098Y34883334D01*
X32054098Y34883334D02*
X32066003Y34859525D01*
X31994574Y35085715D02*
X31994574Y35252381D01*
X31994574Y35252381D02*
X32244574Y35145239D01*
D11*
X29445409Y28463953D02*
X29850171Y28463953D01*
X29850171Y28463953D02*
X29897790Y28487763D01*
X29897790Y28487763D02*
X29921600Y28511572D01*
X29921600Y28511572D02*
X29945409Y28559191D01*
X29945409Y28559191D02*
X29945409Y28654429D01*
X29945409Y28654429D02*
X29921600Y28702048D01*
X29921600Y28702048D02*
X29897790Y28725858D01*
X29897790Y28725858D02*
X29850171Y28749667D01*
X29850171Y28749667D02*
X29445409Y28749667D01*
X29945409Y29249668D02*
X29945409Y28963954D01*
X29945409Y29106811D02*
X29445409Y29106811D01*
X29445409Y29106811D02*
X29516838Y29059192D01*
X29516838Y29059192D02*
X29564457Y29011573D01*
X29564457Y29011573D02*
X29588266Y28963954D01*
X29945409Y29725858D02*
X29945409Y29440144D01*
X29945409Y29583001D02*
X29445409Y29583001D01*
X29445409Y29583001D02*
X29516838Y29535382D01*
X29516838Y29535382D02*
X29564457Y29487763D01*
X29564457Y29487763D02*
X29588266Y29440144D01*
D13*
X9795832Y9585334D02*
X9814880Y9566286D01*
X9814880Y9566286D02*
X9833927Y9509144D01*
X9833927Y9509144D02*
X9833927Y9471048D01*
X9833927Y9471048D02*
X9814880Y9413905D01*
X9814880Y9413905D02*
X9776784Y9375810D01*
X9776784Y9375810D02*
X9738689Y9356763D01*
X9738689Y9356763D02*
X9662499Y9337715D01*
X9662499Y9337715D02*
X9605356Y9337715D01*
X9605356Y9337715D02*
X9529165Y9356763D01*
X9529165Y9356763D02*
X9491070Y9375810D01*
X9491070Y9375810D02*
X9452975Y9413905D01*
X9452975Y9413905D02*
X9433927Y9471048D01*
X9433927Y9471048D02*
X9433927Y9509144D01*
X9433927Y9509144D02*
X9452975Y9566286D01*
X9452975Y9566286D02*
X9472022Y9585334D01*
X9472022Y9737715D02*
X9452975Y9756763D01*
X9452975Y9756763D02*
X9433927Y9794858D01*
X9433927Y9794858D02*
X9433927Y9890096D01*
X9433927Y9890096D02*
X9452975Y9928191D01*
X9452975Y9928191D02*
X9472022Y9947239D01*
X9472022Y9947239D02*
X9510118Y9966286D01*
X9510118Y9966286D02*
X9548213Y9966286D01*
X9548213Y9966286D02*
X9605356Y9947239D01*
X9605356Y9947239D02*
X9833927Y9718667D01*
X9833927Y9718667D02*
X9833927Y9966286D01*
X28000333Y40877168D02*
X27981285Y40858120D01*
X27981285Y40858120D02*
X27924143Y40839073D01*
X27924143Y40839073D02*
X27886047Y40839073D01*
X27886047Y40839073D02*
X27828904Y40858120D01*
X27828904Y40858120D02*
X27790809Y40896216D01*
X27790809Y40896216D02*
X27771762Y40934311D01*
X27771762Y40934311D02*
X27752714Y41010501D01*
X27752714Y41010501D02*
X27752714Y41067644D01*
X27752714Y41067644D02*
X27771762Y41143835D01*
X27771762Y41143835D02*
X27790809Y41181930D01*
X27790809Y41181930D02*
X27828904Y41220025D01*
X27828904Y41220025D02*
X27886047Y41239073D01*
X27886047Y41239073D02*
X27924143Y41239073D01*
X27924143Y41239073D02*
X27981285Y41220025D01*
X27981285Y41220025D02*
X28000333Y41200978D01*
X28362238Y41239073D02*
X28171762Y41239073D01*
X28171762Y41239073D02*
X28152714Y41048597D01*
X28152714Y41048597D02*
X28171762Y41067644D01*
X28171762Y41067644D02*
X28209857Y41086692D01*
X28209857Y41086692D02*
X28305095Y41086692D01*
X28305095Y41086692D02*
X28343190Y41067644D01*
X28343190Y41067644D02*
X28362238Y41048597D01*
X28362238Y41048597D02*
X28381285Y41010501D01*
X28381285Y41010501D02*
X28381285Y40915263D01*
X28381285Y40915263D02*
X28362238Y40877168D01*
X28362238Y40877168D02*
X28343190Y40858120D01*
X28343190Y40858120D02*
X28305095Y40839073D01*
X28305095Y40839073D02*
X28209857Y40839073D01*
X28209857Y40839073D02*
X28171762Y40858120D01*
X28171762Y40858120D02*
X28152714Y40877168D01*
D15*
X18042000Y22475000D02*
X19042000Y22475000D01*
X18042000Y21975000D02*
X18042000Y22475000D01*
X19042000Y22475000D02*
X19042000Y21975000D01*
X19042000Y21975000D02*
X18042000Y21975000D01*
X13089000Y54479000D02*
X14089000Y54479000D01*
X13089000Y53979000D02*
X13089000Y54479000D01*
X14089000Y54479000D02*
X14089000Y53979000D01*
X14089000Y53979000D02*
X13089000Y53979000D01*
X15502000Y31619000D02*
X16502000Y31619000D01*
X15502000Y31119000D02*
X15502000Y31619000D01*
X16502000Y31619000D02*
X16502000Y31119000D01*
X16502000Y31119000D02*
X15502000Y31119000D01*
X9335000Y52789000D02*
X9335000Y50164000D01*
X9335000Y52789000D02*
X9735000Y53214000D01*
X10985000Y53214000D02*
X9735000Y53214000D01*
X10985000Y53214000D02*
X10985000Y50164000D01*
X10985000Y50164000D02*
X9335000Y50164000D01*
X19947000Y22475000D02*
X20947000Y22475000D01*
X19947000Y21975000D02*
X19947000Y22475000D01*
X20947000Y22475000D02*
X20947000Y21975000D01*
X20947000Y21975000D02*
X19947000Y21975000D01*
X15502000Y30603000D02*
X16502000Y30603000D01*
X15502000Y30103000D02*
X15502000Y30603000D01*
X16502000Y30603000D02*
X16502000Y30103000D01*
X16502000Y30103000D02*
X15502000Y30103000D01*
X24515000Y41394000D02*
X25015000Y41394000D01*
X24515000Y40394000D02*
X24515000Y41394000D01*
X25015000Y41394000D02*
X25015000Y40394000D01*
X25015000Y40394000D02*
X24515000Y40394000D01*
X9330000Y22720000D02*
X11130000Y22720000D01*
X9330000Y21320000D02*
X9330000Y22720000D01*
X9930000Y22370000D02*
X9930000Y21670000D01*
X9930000Y22020000D02*
X9730000Y22020000D01*
X9930000Y22020000D02*
X10430000Y22370000D01*
X10430000Y22370000D02*
X10430000Y21670000D01*
X10430000Y22020000D02*
X10680000Y22020000D01*
X10430000Y21670000D02*
X9930000Y22020000D01*
X11130000Y22720000D02*
X11130000Y21320000D01*
X11130000Y21320000D02*
X9330000Y21320000D01*
X30484000Y41394000D02*
X30984000Y41394000D01*
X30484000Y40394000D02*
X30484000Y41394000D01*
X30984000Y41394000D02*
X30984000Y40394000D01*
X30984000Y40394000D02*
X30484000Y40394000D01*
X9148000Y3802000D02*
X9648000Y3802000D01*
X9148000Y2802000D02*
X9148000Y3802000D01*
X9648000Y3802000D02*
X9648000Y2802000D01*
X9648000Y2802000D02*
X9148000Y2802000D01*
X16260000Y24249000D02*
X16760000Y24249000D01*
X16260000Y23249000D02*
X16260000Y24249000D01*
X16760000Y24249000D02*
X16760000Y23249000D01*
X16760000Y23249000D02*
X16260000Y23249000D01*
X12454000Y35556000D02*
X13454000Y35556000D01*
X12454000Y35056000D02*
X12454000Y35556000D01*
X13454000Y35556000D02*
X13454000Y35056000D01*
X13454000Y35056000D02*
X12454000Y35056000D01*
X9335000Y49106000D02*
X9335000Y46481000D01*
X9335000Y49106000D02*
X9735000Y49531000D01*
X10985000Y49531000D02*
X9735000Y49531000D01*
X10985000Y49531000D02*
X10985000Y46481000D01*
X10985000Y46481000D02*
X9335000Y46481000D01*
X36330000Y4060000D02*
X37330000Y4060000D01*
X36330000Y3560000D02*
X36330000Y4060000D01*
X37330000Y4060000D02*
X37330000Y3560000D01*
X37330000Y3560000D02*
X36330000Y3560000D01*
X12681000Y3086000D02*
X13481000Y3086000D01*
X12681000Y1486000D02*
X12681000Y3086000D01*
X13481000Y3086000D02*
X13481000Y1486000D01*
X13481000Y1486000D02*
X12681000Y1486000D01*
X9895000Y7123000D02*
X9895000Y4673000D01*
X9895000Y7123000D02*
X10545000Y7773000D01*
X11695000Y7773000D02*
X10545000Y7773000D01*
X11695000Y7773000D02*
X11695000Y4673000D01*
X11695000Y4673000D02*
X9895000Y4673000D01*
X31500000Y41394000D02*
X32000000Y41394000D01*
X31500000Y40394000D02*
X31500000Y41394000D01*
X32000000Y41394000D02*
X32000000Y40394000D01*
X32000000Y40394000D02*
X31500000Y40394000D01*
X36538000Y5480000D02*
X38138000Y5480000D01*
X36538000Y4680000D02*
X36538000Y5480000D01*
X38138000Y5480000D02*
X38138000Y4680000D01*
X38138000Y4680000D02*
X36538000Y4680000D01*
X12196000Y32758000D02*
X12696000Y32758000D01*
X12196000Y31758000D02*
X12196000Y32758000D01*
X12696000Y32758000D02*
X12696000Y31758000D01*
X12696000Y31758000D02*
X12196000Y31758000D01*
X13089000Y56638000D02*
X14089000Y56638000D01*
X13089000Y56138000D02*
X13089000Y56638000D01*
X14089000Y56638000D02*
X14089000Y56138000D01*
X14089000Y56138000D02*
X13089000Y56138000D01*
X10776000Y10452000D02*
X11576000Y10452000D01*
X10776000Y8852000D02*
X10776000Y10452000D01*
X11576000Y10452000D02*
X11576000Y8852000D01*
X11576000Y8852000D02*
X10776000Y8852000D01*
X23499000Y41394000D02*
X23999000Y41394000D01*
X23499000Y40394000D02*
X23499000Y41394000D01*
X23999000Y41394000D02*
X23999000Y40394000D01*
X23999000Y40394000D02*
X23499000Y40394000D01*
X35522000Y2940000D02*
X37122000Y2940000D01*
X35522000Y2140000D02*
X35522000Y2940000D01*
X37122000Y2940000D02*
X37122000Y2140000D01*
X37122000Y2140000D02*
X35522000Y2140000D01*
X12454000Y47621000D02*
X13454000Y47621000D01*
X12454000Y47121000D02*
X12454000Y47621000D01*
X13454000Y47621000D02*
X13454000Y47121000D01*
X13454000Y47121000D02*
X12454000Y47121000D01*
X16768000Y22344000D02*
X17268000Y22344000D01*
X16768000Y21344000D02*
X16768000Y22344000D01*
X17268000Y22344000D02*
X17268000Y21344000D01*
X17268000Y21344000D02*
X16768000Y21344000D01*
X16260000Y29329000D02*
X16760000Y29329000D01*
X16260000Y28329000D02*
X16260000Y29329000D01*
X16760000Y29329000D02*
X16760000Y28329000D01*
X16760000Y28329000D02*
X16260000Y28329000D01*
X28818000Y37349000D02*
X28818000Y34899000D01*
X28818000Y37349000D02*
X29468000Y37999000D01*
X30618000Y37999000D02*
X29468000Y37999000D01*
X30618000Y37999000D02*
X30618000Y34899000D01*
X30618000Y34899000D02*
X28818000Y34899000D01*
X13212000Y32250000D02*
X13712000Y32250000D01*
X13212000Y31250000D02*
X13212000Y32250000D01*
X13712000Y32250000D02*
X13712000Y31250000D01*
X13712000Y31250000D02*
X13212000Y31250000D01*
X2540000Y71120000D02*
X3810000Y72390000D01*
X2540000Y21590000D02*
X2540000Y71120000D01*
X3810000Y72390000D02*
X7620000Y72390000D01*
X7620000Y72390000D02*
X7620000Y21590000D01*
X7620000Y21590000D02*
X2540000Y21590000D01*
X17275000Y28493000D02*
X26200000Y28493000D01*
X17275000Y24593000D02*
X17275000Y28493000D01*
X26200000Y28493000D02*
X27175000Y27518000D01*
X27175000Y27518000D02*
X27175000Y24593000D01*
X27175000Y24593000D02*
X17275000Y24593000D01*
X12454000Y46605000D02*
X13454000Y46605000D01*
X12454000Y46105000D02*
X12454000Y46605000D01*
X13454000Y46605000D02*
X13454000Y46105000D01*
X13454000Y46105000D02*
X12454000Y46105000D01*
X35056000Y5199000D02*
X35556000Y5199000D01*
X35056000Y4199000D02*
X35056000Y5199000D01*
X35556000Y5199000D02*
X35556000Y4199000D01*
X35556000Y4199000D02*
X35056000Y4199000D01*
X8557000Y29420000D02*
X8557000Y23420000D01*
X8557000Y23420000D02*
X14557000Y23420000D01*
X14557000Y29420000D02*
X8557000Y29420000D01*
X14557000Y23420000D02*
X14557000Y29420000D01*
X12454000Y50034000D02*
X13454000Y50034000D01*
X12454000Y49534000D02*
X12454000Y50034000D01*
X13454000Y50034000D02*
X13454000Y49534000D01*
X13454000Y49534000D02*
X12454000Y49534000D01*
X17275000Y36494000D02*
X26200000Y36494000D01*
X17275000Y32594000D02*
X17275000Y36494000D01*
X26200000Y36494000D02*
X27175000Y35519000D01*
X27175000Y35519000D02*
X27175000Y32594000D01*
X27175000Y32594000D02*
X17275000Y32594000D01*
X13089000Y53463000D02*
X14089000Y53463000D01*
X13089000Y52963000D02*
X13089000Y53463000D01*
X14089000Y53463000D02*
X14089000Y52963000D01*
X14089000Y52963000D02*
X13089000Y52963000D01*
X9335000Y56472000D02*
X9335000Y53847000D01*
X9335000Y56472000D02*
X9735000Y56897000D01*
X10985000Y56897000D02*
X9735000Y56897000D01*
X10985000Y56897000D02*
X10985000Y53847000D01*
X10985000Y53847000D02*
X9335000Y53847000D01*
X12454000Y36572000D02*
X13454000Y36572000D01*
X12454000Y36072000D02*
X12454000Y36572000D01*
X13454000Y36572000D02*
X13454000Y36072000D01*
X13454000Y36072000D02*
X12454000Y36072000D01*
X28818000Y33666000D02*
X28818000Y31216000D01*
X28818000Y33666000D02*
X29468000Y34316000D01*
X30618000Y34316000D02*
X29468000Y34316000D01*
X30618000Y34316000D02*
X30618000Y31216000D01*
X30618000Y31216000D02*
X28818000Y31216000D01*
X25531000Y41394000D02*
X26031000Y41394000D01*
X25531000Y40394000D02*
X25531000Y41394000D01*
X26031000Y41394000D02*
X26031000Y40394000D01*
X26031000Y40394000D02*
X25531000Y40394000D01*
X12454000Y51050000D02*
X13454000Y51050000D01*
X12454000Y50550000D02*
X12454000Y51050000D01*
X13454000Y51050000D02*
X13454000Y50550000D01*
X13454000Y50550000D02*
X12454000Y50550000D01*
X11157000Y3086000D02*
X11157000Y1486000D01*
X11157000Y1486000D02*
X11957000Y1486000D01*
X11657000Y3086000D02*
X11157000Y3086000D01*
X11957000Y2786000D02*
X11657000Y3086000D01*
X11957000Y1486000D02*
X11957000Y2786000D01*
X30869000Y27047000D02*
X31869000Y27047000D01*
X30869000Y26547000D02*
X30869000Y27047000D01*
X31869000Y27047000D02*
X31869000Y26547000D01*
X31869000Y26547000D02*
X30869000Y26547000D01*
X13089000Y57654000D02*
X14089000Y57654000D01*
X13089000Y57154000D02*
X13089000Y57654000D01*
X14089000Y57654000D02*
X14089000Y57154000D01*
X14089000Y57154000D02*
X13089000Y57154000D01*
X31881000Y31742000D02*
X32381000Y31742000D01*
X31881000Y30742000D02*
X31881000Y31742000D01*
X32381000Y31742000D02*
X32381000Y30742000D01*
X32381000Y30742000D02*
X31881000Y30742000D01*
X9462000Y60155000D02*
X9462000Y57530000D01*
X9462000Y60155000D02*
X9862000Y60580000D01*
X11112000Y60580000D02*
X9862000Y60580000D01*
X11112000Y60580000D02*
X11112000Y57530000D01*
X11112000Y57530000D02*
X9462000Y57530000D01*
X9230000Y19520000D02*
X9230000Y14920000D01*
X9230000Y19520000D02*
X12230000Y19520000D01*
X9930920Y16570560D02*
X11531120Y16570560D01*
X10731020Y17721180D02*
X10731020Y18719400D01*
X10731020Y16570560D02*
X9930920Y17721180D01*
X10731020Y16570560D02*
X10731020Y15668860D01*
X10731020Y16570560D02*
X11480320Y17721180D01*
X11480320Y17721180D02*
X9930920Y17721180D01*
X12230000Y19520000D02*
X12230000Y14920000D01*
X12230000Y14920000D02*
X9230000Y14920000D01*
X9460000Y31373000D02*
X9460000Y34413000D01*
X10310000Y31373000D02*
X9460000Y31373000D01*
X10860000Y34413000D02*
X9460000Y34413000D01*
X10860000Y31943000D02*
X10310000Y31373000D01*
X10860000Y31943000D02*
X10860000Y34393000D01*
X36510000Y56200000D02*
X36510000Y55560000D01*
X36510000Y56200000D02*
X38330000Y56200000D01*
X36510000Y55560000D02*
X38330000Y55560000D01*
X36510000Y53660000D02*
X36510000Y53020000D01*
X36510000Y53660000D02*
X38330000Y53660000D01*
X36510000Y53020000D02*
X38330000Y53020000D01*
X36510000Y51120000D02*
X36510000Y50480000D01*
X36510000Y51120000D02*
X38330000Y51120000D01*
X36510000Y50480000D02*
X38330000Y50480000D01*
X36510000Y48580000D02*
X36510000Y47940000D01*
X36510000Y48580000D02*
X38330000Y48580000D01*
X36510000Y47940000D02*
X38330000Y47940000D01*
X36510000Y46040000D02*
X36510000Y45400000D01*
X36510000Y46040000D02*
X38330000Y46040000D01*
X36510000Y45400000D02*
X38330000Y45400000D01*
X36510000Y43500000D02*
X36510000Y42860000D01*
X36510000Y43500000D02*
X38330000Y43500000D01*
X36510000Y42860000D02*
X38330000Y42860000D01*
X36510000Y40960000D02*
X36510000Y40320000D01*
X36510000Y40960000D02*
X38330000Y40960000D01*
X36510000Y40320000D02*
X38330000Y40320000D01*
X36510000Y38420000D02*
X36510000Y37780000D01*
X36510000Y38420000D02*
X38330000Y38420000D01*
X36510000Y37780000D02*
X38330000Y37780000D01*
X36510000Y35880000D02*
X36510000Y35240000D01*
X36510000Y35880000D02*
X38330000Y35880000D01*
X36510000Y35240000D02*
X38330000Y35240000D01*
X36510000Y33340000D02*
X36510000Y32700000D01*
X36510000Y33340000D02*
X38330000Y33340000D01*
X36510000Y32700000D02*
X38330000Y32700000D01*
X36510000Y30800000D02*
X36510000Y30160000D01*
X36510000Y30800000D02*
X38330000Y30800000D01*
X36510000Y30160000D02*
X38330000Y30160000D01*
X36510000Y28260000D02*
X36510000Y27620000D01*
X36510000Y28260000D02*
X38330000Y28260000D01*
X36510000Y27620000D02*
X38330000Y27620000D01*
X36510000Y25720000D02*
X36510000Y25080000D01*
X36510000Y25720000D02*
X38330000Y25720000D01*
X36510000Y25080000D02*
X38330000Y25080000D01*
X36510000Y23180000D02*
X36510000Y22540000D01*
X36510000Y23180000D02*
X38330000Y23180000D01*
X36510000Y22540000D02*
X38330000Y22540000D01*
X36510000Y20640000D02*
X36510000Y20000000D01*
X36510000Y20640000D02*
X38330000Y20640000D01*
X36510000Y20000000D02*
X38330000Y20000000D01*
X36510000Y18100000D02*
X36510000Y17460000D01*
X36510000Y18100000D02*
X38330000Y18100000D01*
X36510000Y17460000D02*
X38330000Y17460000D01*
X36510000Y15560000D02*
X36510000Y14920000D01*
X36510000Y15560000D02*
X38330000Y15560000D01*
X36510000Y14920000D02*
X38330000Y14920000D01*
X36510000Y13020000D02*
X36510000Y12380000D01*
X36510000Y13020000D02*
X38330000Y13020000D01*
X36510000Y12380000D02*
X38330000Y12380000D01*
X36510000Y10480000D02*
X36510000Y9840000D01*
X36510000Y10480000D02*
X38330000Y10480000D01*
X36510000Y9840000D02*
X38330000Y9840000D01*
X36510000Y7940000D02*
X36510000Y7300000D01*
X36510000Y7940000D02*
X38330000Y7940000D01*
X36510000Y7300000D02*
X38330000Y7300000D01*
X38330000Y56515000D02*
X38965000Y57150000D01*
X38330000Y6350000D02*
X38330000Y56515000D01*
X38965000Y57150000D02*
X40870000Y57150000D01*
X40870000Y57150000D02*
X40870000Y6350000D01*
X40870000Y56200000D02*
X46870000Y56200000D01*
X40870000Y55560000D02*
X46870000Y55560000D01*
X40870000Y53660000D02*
X46870000Y53660000D01*
X40870000Y53020000D02*
X46870000Y53020000D01*
X40870000Y51120000D02*
X46870000Y51120000D01*
X40870000Y50480000D02*
X46870000Y50480000D01*
X40870000Y48580000D02*
X46870000Y48580000D01*
X40870000Y47940000D02*
X46870000Y47940000D01*
X40870000Y46040000D02*
X46870000Y46040000D01*
X40870000Y45400000D02*
X46870000Y45400000D01*
X40870000Y43500000D02*
X46870000Y43500000D01*
X40870000Y42860000D02*
X46870000Y42860000D01*
X40870000Y40960000D02*
X46870000Y40960000D01*
X40870000Y40320000D02*
X46870000Y40320000D01*
X40870000Y38420000D02*
X46870000Y38420000D01*
X40870000Y37780000D02*
X46870000Y37780000D01*
X40870000Y35880000D02*
X46870000Y35880000D01*
X40870000Y35240000D02*
X46870000Y35240000D01*
X40870000Y33340000D02*
X46870000Y33340000D01*
X40870000Y32700000D02*
X46870000Y32700000D01*
X40870000Y30800000D02*
X46870000Y30800000D01*
X40870000Y30160000D02*
X46870000Y30160000D01*
X40870000Y28260000D02*
X46870000Y28260000D01*
X40870000Y27620000D02*
X46870000Y27620000D01*
X40870000Y25720000D02*
X46870000Y25720000D01*
X40870000Y25080000D02*
X46870000Y25080000D01*
X40870000Y23180000D02*
X46870000Y23180000D01*
X40870000Y22540000D02*
X46870000Y22540000D01*
X40870000Y20640000D02*
X46870000Y20640000D01*
X40870000Y20000000D02*
X46870000Y20000000D01*
X40870000Y18100000D02*
X46870000Y18100000D01*
X40870000Y17460000D02*
X46870000Y17460000D01*
X40870000Y15560000D02*
X46870000Y15560000D01*
X40870000Y14920000D02*
X46870000Y14920000D01*
X40870000Y13020000D02*
X46870000Y13020000D01*
X40870000Y12380000D02*
X46870000Y12380000D01*
X40870000Y10480000D02*
X46870000Y10480000D01*
X40870000Y9840000D02*
X46870000Y9840000D01*
X40870000Y7940000D02*
X46870000Y7940000D01*
X40870000Y7300000D02*
X46870000Y7300000D01*
X40870000Y6350000D02*
X38330000Y6350000D01*
X46870000Y56200000D02*
X46870000Y55560000D01*
X46870000Y53660000D02*
X46870000Y53020000D01*
X46870000Y51120000D02*
X46870000Y50480000D01*
X46870000Y48580000D02*
X46870000Y47940000D01*
X46870000Y46040000D02*
X46870000Y45400000D01*
X46870000Y43500000D02*
X46870000Y42860000D01*
X46870000Y40960000D02*
X46870000Y40320000D01*
X46870000Y38420000D02*
X46870000Y37780000D01*
X46870000Y35880000D02*
X46870000Y35240000D01*
X46870000Y33340000D02*
X46870000Y32700000D01*
X46870000Y30800000D02*
X46870000Y30160000D01*
X46870000Y28260000D02*
X46870000Y27620000D01*
X46870000Y25720000D02*
X46870000Y25080000D01*
X46870000Y23180000D02*
X46870000Y22540000D01*
X46870000Y20640000D02*
X46870000Y20000000D01*
X46870000Y18100000D02*
X46870000Y17460000D01*
X46870000Y15560000D02*
X46870000Y14920000D01*
X46870000Y13020000D02*
X46870000Y12380000D01*
X46870000Y10480000D02*
X46870000Y9840000D01*
X46870000Y7940000D02*
X46870000Y7300000D01*
X9335000Y37676000D02*
X9335000Y35051000D01*
X9335000Y37676000D02*
X9735000Y38101000D01*
X10985000Y38101000D02*
X9735000Y38101000D01*
X10985000Y38101000D02*
X10985000Y35051000D01*
X10985000Y35051000D02*
X9335000Y35051000D01*
X31881000Y35425000D02*
X32381000Y35425000D01*
X31881000Y34425000D02*
X31881000Y35425000D01*
X32381000Y35425000D02*
X32381000Y34425000D01*
X32381000Y34425000D02*
X31881000Y34425000D01*
X28818000Y29983000D02*
X28818000Y27533000D01*
X28818000Y29983000D02*
X29468000Y30633000D01*
X30618000Y30633000D02*
X29468000Y30633000D01*
X30618000Y30633000D02*
X30618000Y27533000D01*
X30618000Y27533000D02*
X28818000Y27533000D01*
X9252000Y10452000D02*
X10052000Y10452000D01*
X9252000Y8852000D02*
X9252000Y10452000D01*
X10052000Y10452000D02*
X10052000Y8852000D01*
X10052000Y8852000D02*
X9252000Y8852000D01*
X27267000Y41421000D02*
X28867000Y41421000D01*
X27267000Y40621000D02*
X27267000Y41421000D01*
X28867000Y41421000D02*
X28867000Y40621000D01*
X28867000Y40621000D02*
X27267000Y40621000D01*
M02*
