M48
; DRILL file {KiCad 8.0.4} date 2024-09-22T15:27:50+0200
; FORMAT={-:-/ absolute / inch / decimal}
; #@! TF.CreationDate,2024-09-22T15:27:50+02:00
; #@! TF.GenerationSoftware,Kicad,Pcbnew,8.0.4
; #@! TF.FileFunction,Plated,1,4,PTH
FMAT,2
INCH
; #@! TA.AperFunction,Plated,PTH,ViaDrill
T1C0.0118
; #@! TA.AperFunction,Plated,PTH,ViaDrill
T2C0.0157
; #@! TA.AperFunction,Plated,PTH,ComponentDrill
T3C0.0394
; #@! TA.AperFunction,Plated,PTH,ComponentDrill
T4C0.0433
%
G90
G05
T1
X0.07Y0.25
X0.115Y0.645
X0.115Y0.49
X0.2Y2.75
X0.2Y2.65
X0.2Y2.55
X0.2Y2.45
X0.2Y2.35
X0.2Y2.25
X0.2Y2.15
X0.2Y2.05
X0.2Y1.95
X0.2Y1.85
X0.2Y1.75
X0.2Y1.65
X0.2Y1.55
X0.2Y1.45
X0.2Y1.35
X0.2Y1.05
X0.215Y0.09
X0.225Y0.345
X0.265Y0.645
X0.295Y1.65
X0.295Y1.45
X0.3Y0.29
X0.3Y0.2
X0.315Y1.765
X0.32Y2.23
X0.32Y2.125
X0.325Y2.83
X0.335Y0.245
X0.34Y1.575
X0.355Y2.69
X0.37Y2.475
X0.38Y0.455
X0.38Y0.05
X0.3831Y1.1976
X0.395Y2.065
X0.395Y1.92
X0.395Y1.525
X0.4Y2.2
X0.4Y1.44
X0.405Y2.325
X0.4067Y0.8866
X0.4067Y0.8512
X0.42Y1.035
X0.425Y1.295
X0.4303Y0.5126
X0.44Y0.455
X0.455Y0.155
X0.4605Y1.295
X0.4776Y1.0126
X0.48Y1.345
X0.485Y0.345
X0.4972Y0.8551
X0.5Y0.4
X0.505Y1.32
X0.51Y1.355
X0.5169Y0.8866
X0.52Y0.345
X0.52Y0.31
X0.52Y0.275
X0.52Y0.24
X0.52Y0.195
X0.535Y2.3
X0.535Y2.045
X0.5366Y0.8551
X0.545Y1.305
X0.555Y2.0
X0.555Y1.96
X0.555Y1.865
X0.555Y1.825
X0.555Y1.195
X0.5563Y0.8866
X0.56Y1.04
X0.565Y0.27
X0.565Y0.2197
X0.565Y0.17
X0.565Y0.12
X0.565Y0.045
X0.5717Y1.2771
X0.58Y1.795
X0.585Y1.85
X0.59Y2.235
X0.59Y2.195
X0.59Y2.135
X0.59Y2.095
X0.59Y1.97
X0.62Y2.11
X0.625Y2.205
X0.635Y1.655
X0.66Y2.255
X0.665Y0.74
X0.67Y0.655
X0.67Y0.045
X0.675Y0.525
X0.675Y0.42
X0.685Y1.97
X0.685Y0.27
X0.6862Y0.111
X0.71Y1.59
X0.71Y0.24
X0.71Y0.14
X0.715Y1.08
X0.74Y1.865
X0.75Y1.515
X0.75Y1.045
X0.755Y1.7
X0.77Y1.345
X0.77Y0.52
X0.78Y0.795
X0.785Y0.265
X0.79Y1.61
X0.79Y0.675
X0.79Y0.045
X0.8Y1.515
X0.805Y2.21
X0.805Y0.23
X0.81Y2.055
X0.81Y1.325
X0.81Y0.16
X0.815Y1.02
X0.83Y1.085
X0.85Y1.515
X0.85Y1.32
X0.85Y1.2
X0.85Y1.005
X0.865Y0.47
X0.87Y1.63
X0.875Y1.345
X0.875Y0.89
X0.88Y1.865
X0.88Y1.745
X0.89Y1.045
X0.9Y1.515
X0.9Y1.32
X0.9Y1.2
X0.9Y1.005
X0.9Y0.37
X0.9Y0.15
X0.905Y1.61
X0.905Y0.82
X0.91Y0.045
X0.925Y1.345
X0.925Y1.085
X0.925Y0.12
X0.93Y0.66
X0.94Y0.525
X0.95Y1.32
X0.95Y1.005
X0.975Y0.89
X0.976Y1.0942
X0.985Y1.775
X0.99Y1.405
X1.0Y1.32
X1.0Y1.005
X1.01Y2.1
X1.015Y0.475
X1.025Y1.86
X1.026Y1.0942
X1.03Y1.405
X1.03Y0.045
X1.0451Y1.5749
X1.05Y1.37
X1.05Y1.32
X1.05Y1.005
X1.06Y1.075
X1.06Y0.82
X1.065Y1.645
X1.075Y2.205
X1.075Y1.76
X1.095Y0.54
X1.105Y1.78
X1.12Y1.07
X1.12Y0.865
X1.125Y1.37
X1.125Y1.22
X1.125Y0.37
X1.13Y0.98
X1.13Y0.27
X1.1301Y1.7503
X1.14Y0.52
X1.15Y1.65
X1.15Y0.795
X1.15Y0.045
X1.155Y0.675
X1.16Y1.895
X1.165Y1.525
X1.17Y0.545
X1.1826Y1.3274
X1.185Y0.795
X1.19Y1.44
X1.19Y0.69
X1.2Y0.52
X1.21Y1.21
X1.215Y1.525
X1.215Y0.975
X1.22Y0.745
X1.2214Y0.84
X1.225Y2.04
X1.225Y0.675
X1.225Y0.46
X1.225Y0.4
X1.23Y0.545
X1.245Y0.27
X1.2497Y0.37
X1.25Y1.565
X1.25Y0.49
X1.25Y0.43
X1.255Y0.095
X1.255Y0.045
X1.285Y2.215
X1.285Y1.765
X1.31Y1.95
X1.32Y1.445
X1.32Y1.305
X1.32Y1.205
X1.32Y1.1
X1.32Y0.99
X1.32Y0.895
X1.32Y0.75
X1.36Y0.245
X1.36Y0.095
X1.36Y0.045
X1.38Y0.345
X1.395Y0.135
X1.415Y2.05
X1.415Y1.85
X1.42Y1.45
X1.42Y0.85
X1.42Y0.75
X1.46Y0.06
X1.485Y1.75
X1.485Y1.25
X1.485Y1.05
X1.485Y0.45
X1.5Y2.15
X1.505Y0.15
X1.505Y0.1
X1.54Y0.2
T2
X0.345Y0.8236
T3
X0.15Y2.8
X0.15Y2.7
X0.15Y2.6
X0.15Y2.5
X0.15Y2.4
X0.15Y2.3
X0.15Y2.2
X0.15Y2.1
X0.15Y2.0
X0.15Y1.9
X0.15Y1.8
X0.15Y1.7
X0.15Y1.6
X0.15Y1.5
X0.15Y1.4
X0.15Y1.3
X0.15Y1.2
X0.15Y1.1
X0.15Y1.0
X0.15Y0.9
X0.25Y2.8
X0.25Y2.7
X0.25Y2.6
X0.25Y2.5
X0.25Y2.4
X0.25Y2.3
X0.25Y2.2
X0.25Y2.1
X0.25Y2.0
X0.25Y1.9
X0.25Y1.8
X0.25Y1.7
X0.25Y1.6
X0.25Y1.5
X0.25Y1.4
X0.25Y1.3
X0.25Y1.2
X0.25Y1.1
X0.25Y1.0
X0.25Y0.9
X1.45Y2.2
X1.45Y2.1
X1.45Y2.0
X1.45Y1.9
X1.45Y1.8
X1.45Y1.7
X1.45Y1.6
X1.45Y1.5
X1.45Y1.4
X1.45Y1.3
X1.45Y1.2
X1.45Y1.1
X1.45Y1.0
X1.45Y0.9
X1.45Y0.8
X1.45Y0.7
X1.45Y0.6
X1.45Y0.5
X1.45Y0.4
X1.45Y0.3
T4
X0.1061Y0.755
X0.2439Y0.755
M30
