%TF.GenerationSoftware,KiCad,Pcbnew,8.0.4*%
%TF.CreationDate,2024-09-22T15:27:09+02:00*%
%TF.ProjectId,blue_64,626c7565-5f36-4342-9e6b-696361645f70,0.3*%
%TF.SameCoordinates,PX38ecc10PY60e4b00*%
%TF.FileFunction,Copper,L3,Inr*%
%TF.FilePolarity,Positive*%
%FSLAX46Y46*%
G04 Gerber Fmt 4.6, Leading zero omitted, Abs format (unit mm)*
G04 Created by KiCad (PCBNEW 8.0.4) date 2024-09-22 15:27:09*
%MOMM*%
%LPD*%
G01*
G04 APERTURE LIST*
%TA.AperFunction,ComponentPad*%
%ADD10C,2.200000*%
%TD*%
%TA.AperFunction,ComponentPad*%
%ADD11O,2.200000X2.200000*%
%TD*%
%TA.AperFunction,ComponentPad*%
%ADD12R,1.700000X1.700000*%
%TD*%
%TA.AperFunction,ComponentPad*%
%ADD13O,1.700000X1.700000*%
%TD*%
%TA.AperFunction,ComponentPad*%
%ADD14C,1.700000*%
%TD*%
%TA.AperFunction,ViaPad*%
%ADD15C,0.600000*%
%TD*%
G04 APERTURE END LIST*
D10*
X5437000Y12700000D03*
D11*
X2437000Y12700000D03*
D12*
X10160000Y50800000D03*
D13*
X12700000Y50800000D03*
X10160000Y48260000D03*
X12700000Y48260000D03*
X10160000Y45720000D03*
X12700000Y45720000D03*
X10160000Y43180000D03*
X12700000Y43180000D03*
X10160000Y40640000D03*
X12700000Y40640000D03*
X10160000Y38100000D03*
X12700000Y38100000D03*
X10160000Y35560000D03*
X12700000Y35560000D03*
X10160000Y33020000D03*
X12700000Y33020000D03*
X10160000Y30480000D03*
X12700000Y30480000D03*
X10160000Y27940000D03*
X12700000Y27940000D03*
X10160000Y25400000D03*
X12700000Y25400000D03*
X10160000Y22860000D03*
X12700000Y22860000D03*
X10160000Y20320000D03*
X12700000Y20320000D03*
X10160000Y17780000D03*
X12700000Y17780000D03*
X10160000Y15240000D03*
X12700000Y15240000D03*
X10160000Y12700000D03*
X12700000Y12700000D03*
X10160000Y10160000D03*
X12700000Y10160000D03*
X10160000Y7620000D03*
X12700000Y7620000D03*
X10160000Y5080000D03*
X12700000Y5080000D03*
X10160000Y2540000D03*
X12700000Y2540000D03*
D11*
X5687000Y16510000D03*
D10*
X2187000Y16510000D03*
D14*
X62230000Y15240000D03*
X62230000Y12700000D03*
X36830000Y48260000D03*
X62230000Y17780000D03*
X62230000Y25400000D03*
X36830000Y2540000D03*
X36830000Y17780000D03*
X36830000Y12700000D03*
X36830000Y20320000D03*
X62230000Y10160000D03*
X62230000Y20320000D03*
X62230000Y22860000D03*
X62230000Y27940000D03*
X62230000Y30480000D03*
X62230000Y35560000D03*
X62230000Y43180000D03*
X62230000Y45720000D03*
X36830000Y27940000D03*
X36830000Y25400000D03*
X36830000Y22860000D03*
X36830000Y33020000D03*
X36830000Y30480000D03*
X36830000Y38100000D03*
X36830000Y35560000D03*
X62230000Y2540000D03*
X36830000Y5080000D03*
X62230000Y5080000D03*
X62230000Y7620000D03*
X36830000Y10160000D03*
X36830000Y7620000D03*
X36830000Y45720000D03*
X36830000Y15240000D03*
X62230000Y48260000D03*
X62230000Y33020000D03*
X62230000Y38100000D03*
X62230000Y40640000D03*
X36830000Y40640000D03*
X36830000Y43180000D03*
D15*
X52197000Y1905000D03*
X46482000Y28448000D03*
X8636000Y22860000D03*
X21463000Y1651000D03*
X16002000Y18669000D03*
X24511000Y11430000D03*
X15494000Y49276000D03*
X41529000Y28321000D03*
X24511000Y3683000D03*
X22225000Y48133000D03*
X48641000Y5842000D03*
X49149000Y14097000D03*
X57404000Y30353000D03*
X53975000Y5969000D03*
X20193000Y6731000D03*
X51054000Y46355000D03*
X34544000Y42926000D03*
X8636000Y20320000D03*
X54864000Y34417000D03*
X30099000Y33655000D03*
X38481000Y27686000D03*
X23876000Y18669000D03*
X19939000Y38735000D03*
X46482000Y17399000D03*
X33909000Y7747000D03*
X41529000Y17653000D03*
X16129000Y28575000D03*
X38989000Y30480000D03*
X60579000Y25400000D03*
X53467000Y28321000D03*
X34290000Y10668000D03*
X38989000Y38100000D03*
X16002000Y46355000D03*
X34798000Y48387000D03*
X56388000Y48260000D03*
X8636000Y50800000D03*
X16256000Y34544000D03*
X47498000Y48133000D03*
X29845000Y30099000D03*
X47371000Y24892000D03*
X51816000Y17653000D03*
X17780000Y18669000D03*
X8636000Y25400000D03*
X34671000Y30480000D03*
X41148000Y41402000D03*
X17780000Y3302000D03*
X33782000Y23495000D03*
X38989000Y43180000D03*
X23368000Y47244000D03*
X17780000Y40767000D03*
X8636000Y7620000D03*
X8636000Y15240000D03*
X17780000Y31115000D03*
X32258000Y12827000D03*
X32766000Y33528000D03*
X17780000Y25273000D03*
X55880000Y13843000D03*
X25019000Y10287000D03*
X42037000Y37465000D03*
X22098000Y35306000D03*
X60960000Y19177000D03*
X25146000Y14097000D03*
X24765000Y33909000D03*
X50800000Y37592000D03*
X8636000Y48260000D03*
X43307000Y46228000D03*
X8636000Y27940000D03*
X18288000Y33020000D03*
X18288000Y48260000D03*
X52324000Y10795000D03*
X43053000Y14097000D03*
X16002000Y40767000D03*
X33020000Y18034000D03*
X27813000Y5461000D03*
X45847000Y1905000D03*
X16129000Y43815000D03*
X57277000Y41275000D03*
X20574000Y22860000D03*
X21463000Y4572000D03*
X28956000Y47371000D03*
X32258000Y41910000D03*
X44069000Y22098000D03*
X18288000Y42672000D03*
X25146000Y45593000D03*
X16002000Y31115000D03*
X27305000Y14859000D03*
X34798000Y40640000D03*
X54102000Y25019000D03*
X24384000Y7620000D03*
X60579000Y35560000D03*
X60579000Y43180000D03*
X15494000Y5080000D03*
X8636000Y45720000D03*
X45593000Y38100000D03*
X39243000Y17780000D03*
X27305000Y13081000D03*
X8636000Y33020000D03*
X41656000Y24765000D03*
X21717000Y27940000D03*
X33782000Y21717000D03*
X18288000Y20574000D03*
X26797000Y1524000D03*
X28448000Y17399000D03*
X50800000Y22098000D03*
X46355000Y10795000D03*
X60579000Y40640000D03*
X18288000Y27178000D03*
X29718000Y41910000D03*
X38989000Y25400000D03*
X32004000Y46101000D03*
X57277000Y22352000D03*
X16002000Y25273000D03*
X46101000Y43053000D03*
X34671000Y19304000D03*
X60579000Y30480000D03*
X38989000Y35560000D03*
X8636000Y40640000D03*
X33655000Y5334000D03*
X15748000Y16510000D03*
X21463000Y12192000D03*
X17145000Y38735000D03*
X24130000Y25908000D03*
X27940000Y41910000D03*
X24638000Y51816000D03*
X39878000Y1778000D03*
X15240000Y51689000D03*
X8636000Y35560000D03*
X8636000Y30480000D03*
X38989000Y22860000D03*
X26416000Y41910000D03*
X32258000Y26162000D03*
X20701000Y50292000D03*
X57023000Y37973000D03*
X59182000Y7112000D03*
X27813000Y51181000D03*
X50292000Y41529000D03*
X28702000Y26162000D03*
X8636000Y43180000D03*
X8636000Y12700000D03*
X15621000Y12700000D03*
X42545000Y5842000D03*
X20320000Y29464000D03*
X38989000Y48260000D03*
X60579000Y27940000D03*
X54737000Y43434000D03*
X21844000Y44704000D03*
X16129000Y22225000D03*
X60960000Y21463000D03*
X50292000Y30226000D03*
X22860000Y16764000D03*
X49149000Y34417000D03*
X8636000Y38100000D03*
X58166000Y17907000D03*
X21590000Y20066000D03*
X24257000Y42164000D03*
X60579000Y45720000D03*
X24003000Y30099000D03*
X43942000Y30353000D03*
X60579000Y11176000D03*
X25019000Y6477000D03*
X17780000Y46355000D03*
X44069000Y34417000D03*
X57785000Y2286000D03*
X30099000Y17780000D03*
X8636000Y17780000D03*
X18669000Y14859000D03*
X27813000Y9271000D03*
X30099000Y52451000D03*
X40894000Y10668000D03*
X21590000Y41021000D03*
X30607000Y2540000D03*
X31623000Y3556000D03*
X22606000Y38735000D03*
X22606000Y22860000D03*
X28321000Y7493000D03*
X31623000Y1524000D03*
X28321000Y11303000D03*
X28321000Y3683000D03*
X21717000Y48768000D03*
X20066000Y49784000D03*
X23495000Y25146000D03*
X21336000Y27178000D03*
X24955500Y26352500D03*
X19812000Y28702000D03*
X24765000Y19050000D03*
X20066000Y22098000D03*
X23622000Y17780000D03*
X21717000Y20955000D03*
X29210000Y34290000D03*
X30734000Y34290000D03*
X32258000Y34290000D03*
X29210000Y18415000D03*
X30734000Y18415000D03*
X32258000Y18415000D03*
X29718000Y29210000D03*
X25019000Y8255000D03*
X23368000Y29464000D03*
X27178000Y42291000D03*
X25019000Y13081000D03*
X25908000Y29210000D03*
X25654000Y42291000D03*
X25019000Y9271000D03*
X28702000Y42291000D03*
X24638000Y29464000D03*
X25019000Y12065000D03*
X24892000Y4445000D03*
%TA.AperFunction,Conductor*%
G36*
X30486620Y53295593D02*
G01*
X30498433Y53285504D01*
X34279437Y49504500D01*
X34279438Y49504500D01*
X36466385Y49504500D01*
X36524576Y49485593D01*
X36560540Y49436093D01*
X36560540Y49374907D01*
X36524576Y49325407D01*
X36502151Y49313188D01*
X36337363Y49249348D01*
X36163959Y49141981D01*
X36013237Y49004580D01*
X35890328Y48841823D01*
X35890323Y48841814D01*
X35799419Y48659253D01*
X35799418Y48659250D01*
X35743603Y48463083D01*
X35724785Y48260000D01*
X35743603Y48056917D01*
X35799418Y47860750D01*
X35890327Y47678179D01*
X36013236Y47515421D01*
X36163959Y47378019D01*
X36337363Y47270652D01*
X36527544Y47196976D01*
X36728024Y47159500D01*
X36931976Y47159500D01*
X37132456Y47196976D01*
X37322637Y47270652D01*
X37496041Y47378019D01*
X37646764Y47515421D01*
X37769673Y47678179D01*
X37860582Y47860750D01*
X37916397Y48056917D01*
X37935215Y48260000D01*
X37916397Y48463083D01*
X37860582Y48659250D01*
X37769673Y48841821D01*
X37646764Y49004579D01*
X37496041Y49141981D01*
X37322637Y49249348D01*
X37157850Y49313187D01*
X37110421Y49351837D01*
X37094767Y49410985D01*
X37116870Y49468039D01*
X37168286Y49501205D01*
X37193615Y49504500D01*
X61729358Y49504500D01*
X61787549Y49485593D01*
X61823513Y49436093D01*
X61823513Y49374907D01*
X61787549Y49325407D01*
X61765121Y49313185D01*
X61715204Y49293848D01*
X61715202Y49293847D01*
X61612992Y49230562D01*
X62100591Y48742963D01*
X62037007Y48725925D01*
X61922993Y48660099D01*
X61829901Y48567007D01*
X61764075Y48452993D01*
X61747037Y48389409D01*
X61256835Y48879611D01*
X61248067Y48868000D01*
X61248057Y48867984D01*
X61153064Y48677211D01*
X61094738Y48472217D01*
X61075073Y48260000D01*
X61094738Y48047784D01*
X61153064Y47842790D01*
X61248057Y47652016D01*
X61248058Y47652013D01*
X61256835Y47640392D01*
X61747036Y48130594D01*
X61764075Y48067007D01*
X61829901Y47952993D01*
X61922993Y47859901D01*
X62037007Y47794075D01*
X62100589Y47777038D01*
X61612992Y47289440D01*
X61715199Y47226156D01*
X61715204Y47226153D01*
X61913941Y47149162D01*
X62123437Y47110000D01*
X62336563Y47110000D01*
X62546058Y47149162D01*
X62744797Y47226154D01*
X62744803Y47226157D01*
X62847006Y47289440D01*
X62359408Y47777038D01*
X62422993Y47794075D01*
X62537007Y47859901D01*
X62630099Y47952993D01*
X62695925Y48067007D01*
X62712962Y48130592D01*
X63203163Y47640391D01*
X63211936Y47652006D01*
X63211940Y47652012D01*
X63306935Y47842790D01*
X63365261Y48047784D01*
X63384926Y48260000D01*
X63365261Y48472217D01*
X63306935Y48677211D01*
X63211941Y48867988D01*
X63211938Y48867993D01*
X63203163Y48879611D01*
X62712962Y48389411D01*
X62695925Y48452993D01*
X62630099Y48567007D01*
X62537007Y48660099D01*
X62422993Y48725925D01*
X62359407Y48742964D01*
X62847006Y49230562D01*
X62744800Y49293845D01*
X62744795Y49293848D01*
X62694879Y49313185D01*
X62647448Y49351837D01*
X62631794Y49410986D01*
X62653897Y49468039D01*
X62705314Y49501205D01*
X62730642Y49504500D01*
X64645500Y49504500D01*
X64703691Y49485593D01*
X64739655Y49436093D01*
X64744500Y49405500D01*
X64744500Y124500D01*
X64725593Y66309D01*
X64676093Y30345D01*
X64645500Y25500D01*
X124500Y25500D01*
X66309Y44407D01*
X30345Y93907D01*
X25500Y124500D01*
X25500Y2540000D01*
X9005073Y2540000D01*
X9024738Y2327784D01*
X9083064Y2122790D01*
X9178057Y1932016D01*
X9178058Y1932013D01*
X9186835Y1920392D01*
X9677036Y2410594D01*
X9694075Y2347007D01*
X9759901Y2232993D01*
X9852993Y2139901D01*
X9967007Y2074075D01*
X10030589Y2057038D01*
X9542992Y1569440D01*
X9645199Y1506156D01*
X9645204Y1506153D01*
X9843941Y1429162D01*
X10053437Y1390000D01*
X10266563Y1390000D01*
X10476058Y1429162D01*
X10674797Y1506154D01*
X10674803Y1506157D01*
X10777006Y1569440D01*
X10289408Y2057038D01*
X10352993Y2074075D01*
X10467007Y2139901D01*
X10560099Y2232993D01*
X10625925Y2347007D01*
X10642962Y2410592D01*
X11133163Y1920391D01*
X11141936Y1932006D01*
X11141940Y1932012D01*
X11236935Y2122790D01*
X11295261Y2327784D01*
X11314926Y2540000D01*
X11545073Y2540000D01*
X11564738Y2327784D01*
X11623064Y2122790D01*
X11718057Y1932016D01*
X11718058Y1932013D01*
X11726835Y1920392D01*
X12217036Y2410594D01*
X12234075Y2347007D01*
X12299901Y2232993D01*
X12392993Y2139901D01*
X12507007Y2074075D01*
X12570589Y2057038D01*
X12082992Y1569440D01*
X12185199Y1506156D01*
X12185204Y1506153D01*
X12383941Y1429162D01*
X12593437Y1390000D01*
X12806563Y1390000D01*
X13016058Y1429162D01*
X13214797Y1506154D01*
X13214803Y1506157D01*
X13243621Y1524001D01*
X31067750Y1524001D01*
X31067750Y1524000D01*
X31086669Y1380292D01*
X31086670Y1380291D01*
X31142139Y1246375D01*
X31230379Y1131379D01*
X31345375Y1043139D01*
X31479291Y987670D01*
X31623000Y968750D01*
X31766709Y987670D01*
X31900625Y1043139D01*
X32015621Y1131379D01*
X32103861Y1246375D01*
X32159330Y1380291D01*
X32178250Y1524000D01*
X32159330Y1667709D01*
X32103861Y1801625D01*
X32015621Y1916621D01*
X31900625Y2004861D01*
X31900621Y2004863D01*
X31766709Y2060330D01*
X31766708Y2060331D01*
X31623000Y2079250D01*
X31479291Y2060331D01*
X31479290Y2060330D01*
X31345378Y2004863D01*
X31345374Y2004861D01*
X31230381Y1916623D01*
X31230377Y1916619D01*
X31142139Y1801626D01*
X31142137Y1801622D01*
X31086670Y1667710D01*
X31086669Y1667709D01*
X31067750Y1524001D01*
X13243621Y1524001D01*
X13317006Y1569440D01*
X12829408Y2057038D01*
X12892993Y2074075D01*
X13007007Y2139901D01*
X13100099Y2232993D01*
X13165925Y2347007D01*
X13182962Y2410592D01*
X13673163Y1920391D01*
X13681936Y1932006D01*
X13681940Y1932012D01*
X13776935Y2122790D01*
X13835261Y2327784D01*
X13854926Y2540000D01*
X13854926Y2540001D01*
X30051750Y2540001D01*
X30051750Y2540000D01*
X30070669Y2396292D01*
X30070670Y2396291D01*
X30126139Y2262375D01*
X30214379Y2147379D01*
X30329375Y2059139D01*
X30463291Y2003670D01*
X30607000Y1984750D01*
X30750709Y2003670D01*
X30884625Y2059139D01*
X30999621Y2147379D01*
X31087861Y2262375D01*
X31143330Y2396291D01*
X31162250Y2540000D01*
X35724785Y2540000D01*
X35743603Y2336917D01*
X35799418Y2140750D01*
X35890327Y1958179D01*
X36013236Y1795421D01*
X36163959Y1658019D01*
X36337363Y1550652D01*
X36527544Y1476976D01*
X36728024Y1439500D01*
X36931976Y1439500D01*
X37132456Y1476976D01*
X37322637Y1550652D01*
X37496041Y1658019D01*
X37646764Y1795421D01*
X37769673Y1958179D01*
X37860582Y2140750D01*
X37916397Y2336917D01*
X37935215Y2540000D01*
X61124785Y2540000D01*
X61143603Y2336917D01*
X61199418Y2140750D01*
X61290327Y1958179D01*
X61413236Y1795421D01*
X61563959Y1658019D01*
X61737363Y1550652D01*
X61927544Y1476976D01*
X62128024Y1439500D01*
X62331976Y1439500D01*
X62532456Y1476976D01*
X62722637Y1550652D01*
X62896041Y1658019D01*
X63046764Y1795421D01*
X63169673Y1958179D01*
X63260582Y2140750D01*
X63316397Y2336917D01*
X63335215Y2540000D01*
X63316397Y2743083D01*
X63260582Y2939250D01*
X63169673Y3121821D01*
X63046764Y3284579D01*
X62896041Y3421981D01*
X62722637Y3529348D01*
X62532456Y3603024D01*
X62532455Y3603025D01*
X62532453Y3603025D01*
X62331976Y3640500D01*
X62128024Y3640500D01*
X61927546Y3603025D01*
X61857632Y3575941D01*
X61737363Y3529348D01*
X61707023Y3510562D01*
X61563959Y3421981D01*
X61413237Y3284580D01*
X61290328Y3121823D01*
X61290323Y3121814D01*
X61199419Y2939253D01*
X61199418Y2939250D01*
X61143603Y2743083D01*
X61124785Y2540000D01*
X37935215Y2540000D01*
X37916397Y2743083D01*
X37860582Y2939250D01*
X37769673Y3121821D01*
X37646764Y3284579D01*
X37496041Y3421981D01*
X37322637Y3529348D01*
X37132456Y3603024D01*
X37132455Y3603025D01*
X37132453Y3603025D01*
X36931976Y3640500D01*
X36728024Y3640500D01*
X36527546Y3603025D01*
X36457632Y3575941D01*
X36337363Y3529348D01*
X36307023Y3510562D01*
X36163959Y3421981D01*
X36013237Y3284580D01*
X35890328Y3121823D01*
X35890323Y3121814D01*
X35799419Y2939253D01*
X35799418Y2939250D01*
X35743603Y2743083D01*
X35724785Y2540000D01*
X31162250Y2540000D01*
X31143330Y2683709D01*
X31087861Y2817625D01*
X30999621Y2932621D01*
X30884625Y3020861D01*
X30884621Y3020863D01*
X30750709Y3076330D01*
X30750708Y3076331D01*
X30607000Y3095250D01*
X30463291Y3076331D01*
X30463290Y3076330D01*
X30329378Y3020863D01*
X30329374Y3020861D01*
X30214381Y2932623D01*
X30214377Y2932619D01*
X30126139Y2817626D01*
X30126137Y2817622D01*
X30070670Y2683710D01*
X30070669Y2683709D01*
X30051750Y2540001D01*
X13854926Y2540001D01*
X13835261Y2752217D01*
X13776935Y2957211D01*
X13681941Y3147988D01*
X13681938Y3147993D01*
X13673163Y3159611D01*
X13182962Y2669411D01*
X13165925Y2732993D01*
X13100099Y2847007D01*
X13007007Y2940099D01*
X12892993Y3005925D01*
X12829407Y3022964D01*
X13317006Y3510562D01*
X13214800Y3573845D01*
X13214795Y3573848D01*
X13016058Y3650839D01*
X12844005Y3683001D01*
X27765750Y3683001D01*
X27765750Y3683000D01*
X27784669Y3539292D01*
X27784670Y3539291D01*
X27833260Y3421981D01*
X27840139Y3405375D01*
X27928379Y3290379D01*
X28043375Y3202139D01*
X28177291Y3146670D01*
X28321000Y3127750D01*
X28464709Y3146670D01*
X28598625Y3202139D01*
X28713621Y3290379D01*
X28801861Y3405375D01*
X28857330Y3539291D01*
X28859530Y3556001D01*
X31067750Y3556001D01*
X31067750Y3556000D01*
X31086669Y3412292D01*
X31086670Y3412291D01*
X31137165Y3290382D01*
X31142139Y3278375D01*
X31230379Y3163379D01*
X31345375Y3075139D01*
X31479291Y3019670D01*
X31623000Y3000750D01*
X31766709Y3019670D01*
X31900625Y3075139D01*
X32015621Y3163379D01*
X32103861Y3278375D01*
X32159330Y3412291D01*
X32178250Y3556000D01*
X32159330Y3699709D01*
X32103861Y3833625D01*
X32015621Y3948621D01*
X31900625Y4036861D01*
X31900621Y4036863D01*
X31766709Y4092330D01*
X31766708Y4092331D01*
X31623000Y4111250D01*
X31479291Y4092331D01*
X31479290Y4092330D01*
X31345378Y4036863D01*
X31345374Y4036861D01*
X31230381Y3948623D01*
X31230377Y3948619D01*
X31142139Y3833626D01*
X31142137Y3833622D01*
X31086670Y3699710D01*
X31086669Y3699709D01*
X31067750Y3556001D01*
X28859530Y3556001D01*
X28876250Y3683000D01*
X28875328Y3690000D01*
X28857330Y3826709D01*
X28801861Y3960625D01*
X28713621Y4075621D01*
X28598625Y4163861D01*
X28598621Y4163863D01*
X28464709Y4219330D01*
X28464708Y4219331D01*
X28321000Y4238250D01*
X28177291Y4219331D01*
X28177290Y4219330D01*
X28043378Y4163863D01*
X28043374Y4163861D01*
X27928381Y4075623D01*
X27928377Y4075619D01*
X27840139Y3960626D01*
X27840137Y3960622D01*
X27784670Y3826710D01*
X27784669Y3826709D01*
X27765750Y3683001D01*
X12844005Y3683001D01*
X12806563Y3690000D01*
X12593437Y3690000D01*
X12383941Y3650839D01*
X12185204Y3573848D01*
X12185202Y3573847D01*
X12082992Y3510562D01*
X12570591Y3022963D01*
X12507007Y3005925D01*
X12392993Y2940099D01*
X12299901Y2847007D01*
X12234075Y2732993D01*
X12217037Y2669409D01*
X11726835Y3159611D01*
X11718067Y3148000D01*
X11718057Y3147984D01*
X11623064Y2957211D01*
X11564738Y2752217D01*
X11545073Y2540000D01*
X11314926Y2540000D01*
X11295261Y2752217D01*
X11236935Y2957211D01*
X11141941Y3147988D01*
X11141938Y3147993D01*
X11133163Y3159611D01*
X10642962Y2669411D01*
X10625925Y2732993D01*
X10560099Y2847007D01*
X10467007Y2940099D01*
X10352993Y3005925D01*
X10289407Y3022964D01*
X10777006Y3510562D01*
X10674800Y3573845D01*
X10674795Y3573848D01*
X10476058Y3650839D01*
X10266563Y3690000D01*
X10053437Y3690000D01*
X9843941Y3650839D01*
X9645204Y3573848D01*
X9645202Y3573847D01*
X9542992Y3510562D01*
X10030591Y3022963D01*
X9967007Y3005925D01*
X9852993Y2940099D01*
X9759901Y2847007D01*
X9694075Y2732993D01*
X9677037Y2669409D01*
X9186835Y3159611D01*
X9178067Y3148000D01*
X9178057Y3147984D01*
X9083064Y2957211D01*
X9024738Y2752217D01*
X9005073Y2540000D01*
X25500Y2540000D01*
X25500Y5080000D01*
X9054785Y5080000D01*
X9073603Y4876917D01*
X9129418Y4680750D01*
X9220327Y4498179D01*
X9343236Y4335421D01*
X9493959Y4198019D01*
X9667363Y4090652D01*
X9857544Y4016976D01*
X10058024Y3979500D01*
X10261976Y3979500D01*
X10462456Y4016976D01*
X10652637Y4090652D01*
X10826041Y4198019D01*
X10976764Y4335421D01*
X11099673Y4498179D01*
X11190582Y4680750D01*
X11246397Y4876917D01*
X11265215Y5080000D01*
X11594785Y5080000D01*
X11613603Y4876917D01*
X11669418Y4680750D01*
X11760327Y4498179D01*
X11883236Y4335421D01*
X12033959Y4198019D01*
X12207363Y4090652D01*
X12397544Y4016976D01*
X12598024Y3979500D01*
X12801976Y3979500D01*
X13002456Y4016976D01*
X13192637Y4090652D01*
X13366041Y4198019D01*
X13516764Y4335421D01*
X13599515Y4445001D01*
X24336750Y4445001D01*
X24336750Y4445000D01*
X24355669Y4301292D01*
X24355670Y4301291D01*
X24398445Y4198020D01*
X24411139Y4167375D01*
X24499379Y4052379D01*
X24614375Y3964139D01*
X24748291Y3908670D01*
X24892000Y3889750D01*
X25035709Y3908670D01*
X25169625Y3964139D01*
X25284621Y4052379D01*
X25372861Y4167375D01*
X25428330Y4301291D01*
X25447250Y4445000D01*
X25428330Y4588709D01*
X25372861Y4722625D01*
X25284621Y4837621D01*
X25169625Y4925861D01*
X25169621Y4925863D01*
X25035709Y4981330D01*
X25035708Y4981331D01*
X24892000Y5000250D01*
X24748291Y4981331D01*
X24748290Y4981330D01*
X24614378Y4925863D01*
X24614374Y4925861D01*
X24499381Y4837623D01*
X24499377Y4837619D01*
X24411139Y4722626D01*
X24411137Y4722622D01*
X24355670Y4588710D01*
X24355669Y4588709D01*
X24336750Y4445001D01*
X13599515Y4445001D01*
X13639673Y4498179D01*
X13730582Y4680750D01*
X13786397Y4876917D01*
X13805215Y5080000D01*
X35724785Y5080000D01*
X35743603Y4876917D01*
X35799418Y4680750D01*
X35890327Y4498179D01*
X36013236Y4335421D01*
X36163959Y4198019D01*
X36337363Y4090652D01*
X36527544Y4016976D01*
X36728024Y3979500D01*
X36931976Y3979500D01*
X37132456Y4016976D01*
X37322637Y4090652D01*
X37496041Y4198019D01*
X37646764Y4335421D01*
X37769673Y4498179D01*
X37860582Y4680750D01*
X37916397Y4876917D01*
X37935215Y5080000D01*
X61124785Y5080000D01*
X61143603Y4876917D01*
X61199418Y4680750D01*
X61290327Y4498179D01*
X61413236Y4335421D01*
X61563959Y4198019D01*
X61737363Y4090652D01*
X61927544Y4016976D01*
X62128024Y3979500D01*
X62331976Y3979500D01*
X62532456Y4016976D01*
X62722637Y4090652D01*
X62896041Y4198019D01*
X63046764Y4335421D01*
X63169673Y4498179D01*
X63260582Y4680750D01*
X63316397Y4876917D01*
X63335215Y5080000D01*
X63316397Y5283083D01*
X63260582Y5479250D01*
X63169673Y5661821D01*
X63046764Y5824579D01*
X62896041Y5961981D01*
X62722637Y6069348D01*
X62532456Y6143024D01*
X62532455Y6143025D01*
X62532453Y6143025D01*
X62331976Y6180500D01*
X62128024Y6180500D01*
X61927546Y6143025D01*
X61857632Y6115941D01*
X61737363Y6069348D01*
X61563959Y5961981D01*
X61413237Y5824580D01*
X61290328Y5661823D01*
X61290323Y5661814D01*
X61199419Y5479253D01*
X61199418Y5479250D01*
X61143603Y5283083D01*
X61124785Y5080000D01*
X37935215Y5080000D01*
X37916397Y5283083D01*
X37860582Y5479250D01*
X37769673Y5661821D01*
X37646764Y5824579D01*
X37496041Y5961981D01*
X37322637Y6069348D01*
X37132456Y6143024D01*
X37132455Y6143025D01*
X37132453Y6143025D01*
X36931976Y6180500D01*
X36728024Y6180500D01*
X36527546Y6143025D01*
X36457632Y6115941D01*
X36337363Y6069348D01*
X36163959Y5961981D01*
X36013237Y5824580D01*
X35890328Y5661823D01*
X35890323Y5661814D01*
X35799419Y5479253D01*
X35799418Y5479250D01*
X35743603Y5283083D01*
X35724785Y5080000D01*
X13805215Y5080000D01*
X13786397Y5283083D01*
X13730582Y5479250D01*
X13639673Y5661821D01*
X13516764Y5824579D01*
X13366041Y5961981D01*
X13192637Y6069348D01*
X13002456Y6143024D01*
X13002455Y6143025D01*
X13002453Y6143025D01*
X12801976Y6180500D01*
X12598024Y6180500D01*
X12397546Y6143025D01*
X12327632Y6115941D01*
X12207363Y6069348D01*
X12033959Y5961981D01*
X11883237Y5824580D01*
X11760328Y5661823D01*
X11760323Y5661814D01*
X11669419Y5479253D01*
X11669418Y5479250D01*
X11613603Y5283083D01*
X11594785Y5080000D01*
X11265215Y5080000D01*
X11246397Y5283083D01*
X11190582Y5479250D01*
X11099673Y5661821D01*
X10976764Y5824579D01*
X10826041Y5961981D01*
X10652637Y6069348D01*
X10462456Y6143024D01*
X10462455Y6143025D01*
X10462453Y6143025D01*
X10261976Y6180500D01*
X10058024Y6180500D01*
X9857546Y6143025D01*
X9787632Y6115941D01*
X9667363Y6069348D01*
X9493959Y5961981D01*
X9343237Y5824580D01*
X9220328Y5661823D01*
X9220323Y5661814D01*
X9129419Y5479253D01*
X9129418Y5479250D01*
X9073603Y5283083D01*
X9054785Y5080000D01*
X25500Y5080000D01*
X25500Y7620000D01*
X9054785Y7620000D01*
X9073603Y7416917D01*
X9129418Y7220750D01*
X9220327Y7038179D01*
X9343236Y6875421D01*
X9493959Y6738019D01*
X9667363Y6630652D01*
X9857544Y6556976D01*
X10058024Y6519500D01*
X10261976Y6519500D01*
X10462456Y6556976D01*
X10652637Y6630652D01*
X10826041Y6738019D01*
X10976764Y6875421D01*
X11099673Y7038179D01*
X11190582Y7220750D01*
X11246397Y7416917D01*
X11265215Y7620000D01*
X11594785Y7620000D01*
X11613603Y7416917D01*
X11669418Y7220750D01*
X11760327Y7038179D01*
X11883236Y6875421D01*
X12033959Y6738019D01*
X12207363Y6630652D01*
X12397544Y6556976D01*
X12598024Y6519500D01*
X12801976Y6519500D01*
X13002456Y6556976D01*
X13192637Y6630652D01*
X13366041Y6738019D01*
X13516764Y6875421D01*
X13639673Y7038179D01*
X13730582Y7220750D01*
X13786397Y7416917D01*
X13793447Y7493001D01*
X27765750Y7493001D01*
X27765750Y7493000D01*
X27784669Y7349292D01*
X27784670Y7349291D01*
X27837912Y7220750D01*
X27840139Y7215375D01*
X27928379Y7100379D01*
X28043375Y7012139D01*
X28177291Y6956670D01*
X28321000Y6937750D01*
X28464709Y6956670D01*
X28598625Y7012139D01*
X28713621Y7100379D01*
X28801861Y7215375D01*
X28857330Y7349291D01*
X28876250Y7493000D01*
X28859530Y7620000D01*
X35724785Y7620000D01*
X35743603Y7416917D01*
X35799418Y7220750D01*
X35890327Y7038179D01*
X36013236Y6875421D01*
X36163959Y6738019D01*
X36337363Y6630652D01*
X36527544Y6556976D01*
X36728024Y6519500D01*
X36931976Y6519500D01*
X37132456Y6556976D01*
X37322637Y6630652D01*
X37496041Y6738019D01*
X37646764Y6875421D01*
X37769673Y7038179D01*
X37860582Y7220750D01*
X37916397Y7416917D01*
X37935215Y7620000D01*
X61124785Y7620000D01*
X61143603Y7416917D01*
X61199418Y7220750D01*
X61290327Y7038179D01*
X61413236Y6875421D01*
X61563959Y6738019D01*
X61737363Y6630652D01*
X61927544Y6556976D01*
X62128024Y6519500D01*
X62331976Y6519500D01*
X62532456Y6556976D01*
X62722637Y6630652D01*
X62896041Y6738019D01*
X63046764Y6875421D01*
X63169673Y7038179D01*
X63260582Y7220750D01*
X63316397Y7416917D01*
X63335215Y7620000D01*
X63316397Y7823083D01*
X63260582Y8019250D01*
X63169673Y8201821D01*
X63046764Y8364579D01*
X62896041Y8501981D01*
X62722637Y8609348D01*
X62532456Y8683024D01*
X62532455Y8683025D01*
X62532453Y8683025D01*
X62331976Y8720500D01*
X62128024Y8720500D01*
X61927546Y8683025D01*
X61857632Y8655941D01*
X61737363Y8609348D01*
X61613451Y8532625D01*
X61563959Y8501981D01*
X61413237Y8364580D01*
X61290328Y8201823D01*
X61290323Y8201814D01*
X61204437Y8029330D01*
X61199418Y8019250D01*
X61143603Y7823083D01*
X61124785Y7620000D01*
X37935215Y7620000D01*
X37916397Y7823083D01*
X37860582Y8019250D01*
X37769673Y8201821D01*
X37646764Y8364579D01*
X37496041Y8501981D01*
X37322637Y8609348D01*
X37132456Y8683024D01*
X37132455Y8683025D01*
X37132453Y8683025D01*
X36931976Y8720500D01*
X36728024Y8720500D01*
X36527546Y8683025D01*
X36457632Y8655941D01*
X36337363Y8609348D01*
X36213451Y8532625D01*
X36163959Y8501981D01*
X36013237Y8364580D01*
X35890328Y8201823D01*
X35890323Y8201814D01*
X35804437Y8029330D01*
X35799418Y8019250D01*
X35743603Y7823083D01*
X35724785Y7620000D01*
X28859530Y7620000D01*
X28857330Y7636709D01*
X28801861Y7770625D01*
X28713621Y7885621D01*
X28598625Y7973861D01*
X28598621Y7973863D01*
X28464709Y8029330D01*
X28464708Y8029331D01*
X28321000Y8048250D01*
X28177291Y8029331D01*
X28177290Y8029330D01*
X28043378Y7973863D01*
X28043374Y7973861D01*
X27928381Y7885623D01*
X27928377Y7885619D01*
X27840139Y7770626D01*
X27840137Y7770622D01*
X27784670Y7636710D01*
X27784669Y7636709D01*
X27765750Y7493001D01*
X13793447Y7493001D01*
X13805215Y7620000D01*
X13786397Y7823083D01*
X13730582Y8019250D01*
X13639673Y8201821D01*
X13516764Y8364579D01*
X13366041Y8501981D01*
X13192637Y8609348D01*
X13002456Y8683024D01*
X13002455Y8683025D01*
X13002453Y8683025D01*
X12801976Y8720500D01*
X12598024Y8720500D01*
X12397546Y8683025D01*
X12327632Y8655941D01*
X12207363Y8609348D01*
X12083451Y8532625D01*
X12033959Y8501981D01*
X11883237Y8364580D01*
X11760328Y8201823D01*
X11760323Y8201814D01*
X11674437Y8029330D01*
X11669418Y8019250D01*
X11613603Y7823083D01*
X11594785Y7620000D01*
X11265215Y7620000D01*
X11246397Y7823083D01*
X11190582Y8019250D01*
X11099673Y8201821D01*
X10976764Y8364579D01*
X10826041Y8501981D01*
X10652637Y8609348D01*
X10462456Y8683024D01*
X10462455Y8683025D01*
X10462453Y8683025D01*
X10261976Y8720500D01*
X10058024Y8720500D01*
X9857546Y8683025D01*
X9787632Y8655941D01*
X9667363Y8609348D01*
X9543451Y8532625D01*
X9493959Y8501981D01*
X9343237Y8364580D01*
X9220328Y8201823D01*
X9220323Y8201814D01*
X9134437Y8029330D01*
X9129418Y8019250D01*
X9073603Y7823083D01*
X9054785Y7620000D01*
X25500Y7620000D01*
X25500Y10160000D01*
X9054785Y10160000D01*
X9073603Y9956917D01*
X9129418Y9760750D01*
X9220327Y9578179D01*
X9343236Y9415421D01*
X9493959Y9278019D01*
X9667363Y9170652D01*
X9857544Y9096976D01*
X10058024Y9059500D01*
X10261976Y9059500D01*
X10462456Y9096976D01*
X10652637Y9170652D01*
X10826041Y9278019D01*
X10976764Y9415421D01*
X11099673Y9578179D01*
X11190582Y9760750D01*
X11246397Y9956917D01*
X11265215Y10160000D01*
X11594785Y10160000D01*
X11613603Y9956917D01*
X11669418Y9760750D01*
X11760327Y9578179D01*
X11883236Y9415421D01*
X12033959Y9278019D01*
X12207363Y9170652D01*
X12397544Y9096976D01*
X12598024Y9059500D01*
X12801976Y9059500D01*
X13002456Y9096976D01*
X13192637Y9170652D01*
X13354707Y9271001D01*
X24463750Y9271001D01*
X24463750Y9271000D01*
X24482669Y9127292D01*
X24482670Y9127291D01*
X24510749Y9059500D01*
X24538139Y8993375D01*
X24626379Y8878379D01*
X24674386Y8841542D01*
X24709041Y8791117D01*
X24707439Y8729953D01*
X24674386Y8684458D01*
X24626381Y8647623D01*
X24626377Y8647619D01*
X24538139Y8532626D01*
X24538137Y8532622D01*
X24482670Y8398710D01*
X24482669Y8398709D01*
X24463750Y8255001D01*
X24463750Y8255000D01*
X24482669Y8111292D01*
X24482670Y8111291D01*
X24538139Y7977375D01*
X24626379Y7862379D01*
X24741375Y7774139D01*
X24875291Y7718670D01*
X25019000Y7699750D01*
X25162709Y7718670D01*
X25296625Y7774139D01*
X25411621Y7862379D01*
X25499861Y7977375D01*
X25555330Y8111291D01*
X25574250Y8255000D01*
X25555330Y8398709D01*
X25499861Y8532625D01*
X25411621Y8647621D01*
X25411616Y8647625D01*
X25411615Y8647626D01*
X25363614Y8684458D01*
X25328958Y8734882D01*
X25330559Y8796047D01*
X25363614Y8841542D01*
X25411621Y8878379D01*
X25499861Y8993375D01*
X25555330Y9127291D01*
X25574250Y9271000D01*
X25555330Y9414709D01*
X25499861Y9548625D01*
X25411621Y9663621D01*
X25296625Y9751861D01*
X25296621Y9751863D01*
X25162709Y9807330D01*
X25162708Y9807331D01*
X25019000Y9826250D01*
X24875291Y9807331D01*
X24875290Y9807330D01*
X24741378Y9751863D01*
X24741374Y9751861D01*
X24626381Y9663623D01*
X24626377Y9663619D01*
X24538139Y9548626D01*
X24538137Y9548622D01*
X24482670Y9414710D01*
X24482669Y9414709D01*
X24463750Y9271001D01*
X13354707Y9271001D01*
X13366041Y9278019D01*
X13516764Y9415421D01*
X13639673Y9578179D01*
X13730582Y9760750D01*
X13786397Y9956917D01*
X13805215Y10160000D01*
X35724785Y10160000D01*
X35743603Y9956917D01*
X35799418Y9760750D01*
X35890327Y9578179D01*
X36013236Y9415421D01*
X36163959Y9278019D01*
X36337363Y9170652D01*
X36527544Y9096976D01*
X36728024Y9059500D01*
X36931976Y9059500D01*
X37132456Y9096976D01*
X37322637Y9170652D01*
X37496041Y9278019D01*
X37646764Y9415421D01*
X37769673Y9578179D01*
X37860582Y9760750D01*
X37916397Y9956917D01*
X37935215Y10160000D01*
X61124785Y10160000D01*
X61143603Y9956917D01*
X61199418Y9760750D01*
X61290327Y9578179D01*
X61413236Y9415421D01*
X61563959Y9278019D01*
X61737363Y9170652D01*
X61927544Y9096976D01*
X62128024Y9059500D01*
X62331976Y9059500D01*
X62532456Y9096976D01*
X62722637Y9170652D01*
X62896041Y9278019D01*
X63046764Y9415421D01*
X63169673Y9578179D01*
X63260582Y9760750D01*
X63316397Y9956917D01*
X63335215Y10160000D01*
X63316397Y10363083D01*
X63260582Y10559250D01*
X63169673Y10741821D01*
X63046764Y10904579D01*
X62896041Y11041981D01*
X62722637Y11149348D01*
X62532456Y11223024D01*
X62532455Y11223025D01*
X62532453Y11223025D01*
X62331976Y11260500D01*
X62128024Y11260500D01*
X61927546Y11223025D01*
X61857632Y11195941D01*
X61737363Y11149348D01*
X61563959Y11041981D01*
X61413237Y10904580D01*
X61290328Y10741823D01*
X61290323Y10741814D01*
X61199419Y10559253D01*
X61199418Y10559250D01*
X61143603Y10363083D01*
X61124785Y10160000D01*
X37935215Y10160000D01*
X37916397Y10363083D01*
X37860582Y10559250D01*
X37769673Y10741821D01*
X37646764Y10904579D01*
X37496041Y11041981D01*
X37322637Y11149348D01*
X37132456Y11223024D01*
X37132455Y11223025D01*
X37132453Y11223025D01*
X36931976Y11260500D01*
X36728024Y11260500D01*
X36527546Y11223025D01*
X36457632Y11195941D01*
X36337363Y11149348D01*
X36163959Y11041981D01*
X36013237Y10904580D01*
X35890328Y10741823D01*
X35890323Y10741814D01*
X35799419Y10559253D01*
X35799418Y10559250D01*
X35743603Y10363083D01*
X35724785Y10160000D01*
X13805215Y10160000D01*
X13786397Y10363083D01*
X13730582Y10559250D01*
X13639673Y10741821D01*
X13516764Y10904579D01*
X13366041Y11041981D01*
X13192637Y11149348D01*
X13002456Y11223024D01*
X13002455Y11223025D01*
X13002453Y11223025D01*
X12801976Y11260500D01*
X12598024Y11260500D01*
X12397546Y11223025D01*
X12327632Y11195941D01*
X12207363Y11149348D01*
X12033959Y11041981D01*
X11883237Y10904580D01*
X11760328Y10741823D01*
X11760323Y10741814D01*
X11669419Y10559253D01*
X11669418Y10559250D01*
X11613603Y10363083D01*
X11594785Y10160000D01*
X11265215Y10160000D01*
X11246397Y10363083D01*
X11190582Y10559250D01*
X11099673Y10741821D01*
X10976764Y10904579D01*
X10826041Y11041981D01*
X10652637Y11149348D01*
X10462456Y11223024D01*
X10462455Y11223025D01*
X10462453Y11223025D01*
X10261976Y11260500D01*
X10058024Y11260500D01*
X9857546Y11223025D01*
X9787632Y11195941D01*
X9667363Y11149348D01*
X9493959Y11041981D01*
X9343237Y10904580D01*
X9220328Y10741823D01*
X9220323Y10741814D01*
X9129419Y10559253D01*
X9129418Y10559250D01*
X9073603Y10363083D01*
X9054785Y10160000D01*
X25500Y10160000D01*
X25500Y11303001D01*
X27765750Y11303001D01*
X27765750Y11303000D01*
X27784669Y11159292D01*
X27784670Y11159291D01*
X27833260Y11041981D01*
X27840139Y11025375D01*
X27928379Y10910379D01*
X28043375Y10822139D01*
X28177291Y10766670D01*
X28321000Y10747750D01*
X28464709Y10766670D01*
X28598625Y10822139D01*
X28713621Y10910379D01*
X28801861Y11025375D01*
X28857330Y11159291D01*
X28876250Y11303000D01*
X28857330Y11446709D01*
X28801861Y11580625D01*
X28713621Y11695621D01*
X28598625Y11783861D01*
X28598621Y11783863D01*
X28464709Y11839330D01*
X28464708Y11839331D01*
X28321000Y11858250D01*
X28177291Y11839331D01*
X28177290Y11839330D01*
X28043378Y11783863D01*
X28043374Y11783861D01*
X27928381Y11695623D01*
X27928377Y11695619D01*
X27840139Y11580626D01*
X27840137Y11580622D01*
X27784670Y11446710D01*
X27784669Y11446709D01*
X27765750Y11303001D01*
X25500Y11303001D01*
X25500Y12700005D01*
X1081341Y12700005D01*
X1081341Y12699996D01*
X1101935Y12464600D01*
X1101936Y12464593D01*
X1101937Y12464592D01*
X1163097Y12236337D01*
X1262965Y12022170D01*
X1398505Y11828599D01*
X1565599Y11661505D01*
X1759170Y11525965D01*
X1973337Y11426097D01*
X2201592Y11364937D01*
X2201596Y11364937D01*
X2201599Y11364936D01*
X2436996Y11344341D01*
X2437000Y11344341D01*
X2437004Y11344341D01*
X2672400Y11364936D01*
X2672401Y11364937D01*
X2672408Y11364937D01*
X2900663Y11426097D01*
X3114830Y11525965D01*
X3308401Y11661505D01*
X3475495Y11828599D01*
X3611035Y12022170D01*
X3710903Y12236337D01*
X3772063Y12464592D01*
X3774891Y12496917D01*
X3792659Y12699996D01*
X3792659Y12700005D01*
X4081341Y12700005D01*
X4081341Y12699996D01*
X4101935Y12464600D01*
X4101936Y12464593D01*
X4101937Y12464592D01*
X4163097Y12236337D01*
X4262965Y12022170D01*
X4398505Y11828599D01*
X4565599Y11661505D01*
X4759170Y11525965D01*
X4973337Y11426097D01*
X5201592Y11364937D01*
X5201596Y11364937D01*
X5201599Y11364936D01*
X5436996Y11344341D01*
X5437000Y11344341D01*
X5437004Y11344341D01*
X5672400Y11364936D01*
X5672401Y11364937D01*
X5672408Y11364937D01*
X5900663Y11426097D01*
X6114830Y11525965D01*
X6308401Y11661505D01*
X6475495Y11828599D01*
X6611035Y12022170D01*
X6710903Y12236337D01*
X6772063Y12464592D01*
X6774891Y12496917D01*
X6792659Y12699996D01*
X6792659Y12700000D01*
X9054785Y12700000D01*
X9073603Y12496917D01*
X9129418Y12300750D01*
X9220327Y12118179D01*
X9343236Y11955421D01*
X9493959Y11818019D01*
X9667363Y11710652D01*
X9857544Y11636976D01*
X10058024Y11599500D01*
X10261976Y11599500D01*
X10462456Y11636976D01*
X10652637Y11710652D01*
X10826041Y11818019D01*
X10976764Y11955421D01*
X11099673Y12118179D01*
X11190582Y12300750D01*
X11246397Y12496917D01*
X11265215Y12700000D01*
X11594785Y12700000D01*
X11613603Y12496917D01*
X11669418Y12300750D01*
X11760327Y12118179D01*
X11883236Y11955421D01*
X12033959Y11818019D01*
X12207363Y11710652D01*
X12397544Y11636976D01*
X12598024Y11599500D01*
X12801976Y11599500D01*
X13002456Y11636976D01*
X13192637Y11710652D01*
X13366041Y11818019D01*
X13516764Y11955421D01*
X13639673Y12118179D01*
X13730582Y12300750D01*
X13786397Y12496917D01*
X13805215Y12700000D01*
X13786397Y12903083D01*
X13735774Y13081001D01*
X24463750Y13081001D01*
X24463750Y13081000D01*
X24482669Y12937292D01*
X24482670Y12937291D01*
X24538139Y12803375D01*
X24626379Y12688379D01*
X24674386Y12651542D01*
X24709041Y12601117D01*
X24707439Y12539953D01*
X24674386Y12494458D01*
X24626381Y12457623D01*
X24626377Y12457619D01*
X24538139Y12342626D01*
X24538137Y12342622D01*
X24482670Y12208710D01*
X24482669Y12208709D01*
X24463750Y12065001D01*
X24463750Y12065000D01*
X24482669Y11921292D01*
X24482670Y11921291D01*
X24525445Y11818020D01*
X24538139Y11787375D01*
X24626379Y11672379D01*
X24741375Y11584139D01*
X24875291Y11528670D01*
X25019000Y11509750D01*
X25162709Y11528670D01*
X25296625Y11584139D01*
X25411621Y11672379D01*
X25499861Y11787375D01*
X25555330Y11921291D01*
X25574250Y12065000D01*
X25555330Y12208709D01*
X25499861Y12342625D01*
X25411621Y12457621D01*
X25411616Y12457625D01*
X25411615Y12457626D01*
X25363614Y12494458D01*
X25328958Y12544882D01*
X25330559Y12606047D01*
X25363614Y12651542D01*
X25411621Y12688379D01*
X25420538Y12700000D01*
X35724785Y12700000D01*
X35743603Y12496917D01*
X35799418Y12300750D01*
X35890327Y12118179D01*
X36013236Y11955421D01*
X36163959Y11818019D01*
X36337363Y11710652D01*
X36527544Y11636976D01*
X36728024Y11599500D01*
X36931976Y11599500D01*
X37132456Y11636976D01*
X37322637Y11710652D01*
X37496041Y11818019D01*
X37646764Y11955421D01*
X37769673Y12118179D01*
X37860582Y12300750D01*
X37916397Y12496917D01*
X37935215Y12700000D01*
X61124785Y12700000D01*
X61143603Y12496917D01*
X61199418Y12300750D01*
X61290327Y12118179D01*
X61413236Y11955421D01*
X61563959Y11818019D01*
X61737363Y11710652D01*
X61927544Y11636976D01*
X62128024Y11599500D01*
X62331976Y11599500D01*
X62532456Y11636976D01*
X62722637Y11710652D01*
X62896041Y11818019D01*
X63046764Y11955421D01*
X63169673Y12118179D01*
X63260582Y12300750D01*
X63316397Y12496917D01*
X63335215Y12700000D01*
X63316397Y12903083D01*
X63260582Y13099250D01*
X63169673Y13281821D01*
X63046764Y13444579D01*
X62896041Y13581981D01*
X62722637Y13689348D01*
X62532456Y13763024D01*
X62532455Y13763025D01*
X62532453Y13763025D01*
X62331976Y13800500D01*
X62128024Y13800500D01*
X61927546Y13763025D01*
X61864237Y13738499D01*
X61737363Y13689348D01*
X61621050Y13617330D01*
X61563959Y13581981D01*
X61413237Y13444580D01*
X61290328Y13281823D01*
X61290323Y13281814D01*
X61199419Y13099253D01*
X61199418Y13099250D01*
X61143603Y12903083D01*
X61124785Y12700000D01*
X37935215Y12700000D01*
X37916397Y12903083D01*
X37860582Y13099250D01*
X37769673Y13281821D01*
X37646764Y13444579D01*
X37496041Y13581981D01*
X37322637Y13689348D01*
X37132456Y13763024D01*
X37132455Y13763025D01*
X37132453Y13763025D01*
X36931976Y13800500D01*
X36728024Y13800500D01*
X36527546Y13763025D01*
X36464237Y13738499D01*
X36337363Y13689348D01*
X36221050Y13617330D01*
X36163959Y13581981D01*
X36013237Y13444580D01*
X35890328Y13281823D01*
X35890323Y13281814D01*
X35799419Y13099253D01*
X35799418Y13099250D01*
X35743603Y12903083D01*
X35724785Y12700000D01*
X25420538Y12700000D01*
X25499861Y12803375D01*
X25555330Y12937291D01*
X25574250Y13081000D01*
X25555330Y13224709D01*
X25499861Y13358625D01*
X25411621Y13473621D01*
X25296625Y13561861D01*
X25296621Y13561863D01*
X25162709Y13617330D01*
X25162708Y13617331D01*
X25019000Y13636250D01*
X24875291Y13617331D01*
X24875290Y13617330D01*
X24741378Y13561863D01*
X24741374Y13561861D01*
X24626381Y13473623D01*
X24626377Y13473619D01*
X24538139Y13358626D01*
X24538137Y13358622D01*
X24482670Y13224710D01*
X24482669Y13224709D01*
X24463750Y13081001D01*
X13735774Y13081001D01*
X13730582Y13099250D01*
X13639673Y13281821D01*
X13516764Y13444579D01*
X13366041Y13581981D01*
X13192637Y13689348D01*
X13002456Y13763024D01*
X13002455Y13763025D01*
X13002453Y13763025D01*
X12801976Y13800500D01*
X12598024Y13800500D01*
X12397546Y13763025D01*
X12334237Y13738499D01*
X12207363Y13689348D01*
X12091050Y13617330D01*
X12033959Y13581981D01*
X11883237Y13444580D01*
X11760328Y13281823D01*
X11760323Y13281814D01*
X11669419Y13099253D01*
X11669418Y13099250D01*
X11613603Y12903083D01*
X11594785Y12700000D01*
X11265215Y12700000D01*
X11246397Y12903083D01*
X11190582Y13099250D01*
X11099673Y13281821D01*
X10976764Y13444579D01*
X10826041Y13581981D01*
X10652637Y13689348D01*
X10462456Y13763024D01*
X10462455Y13763025D01*
X10462453Y13763025D01*
X10261976Y13800500D01*
X10058024Y13800500D01*
X9857546Y13763025D01*
X9794237Y13738499D01*
X9667363Y13689348D01*
X9551050Y13617330D01*
X9493959Y13581981D01*
X9343237Y13444580D01*
X9220328Y13281823D01*
X9220323Y13281814D01*
X9129419Y13099253D01*
X9129418Y13099250D01*
X9073603Y12903083D01*
X9054785Y12700000D01*
X6792659Y12700000D01*
X6792659Y12700005D01*
X6772064Y12935401D01*
X6772063Y12935404D01*
X6772063Y12935408D01*
X6710903Y13163663D01*
X6655804Y13281823D01*
X6611040Y13377819D01*
X6611036Y13377827D01*
X6564295Y13444580D01*
X6475495Y13571401D01*
X6308401Y13738495D01*
X6308397Y13738498D01*
X6308396Y13738499D01*
X6201007Y13813693D01*
X6114830Y13874035D01*
X5900663Y13973903D01*
X5672408Y14035063D01*
X5672407Y14035064D01*
X5672400Y14035065D01*
X5437004Y14055659D01*
X5436996Y14055659D01*
X5201599Y14035065D01*
X4973332Y13973902D01*
X4759181Y13874041D01*
X4759173Y13874037D01*
X4565603Y13738499D01*
X4398501Y13571397D01*
X4262963Y13377827D01*
X4262959Y13377819D01*
X4163098Y13163668D01*
X4101935Y12935401D01*
X4081341Y12700005D01*
X3792659Y12700005D01*
X3772064Y12935401D01*
X3772063Y12935404D01*
X3772063Y12935408D01*
X3710903Y13163663D01*
X3655804Y13281823D01*
X3611040Y13377819D01*
X3611036Y13377827D01*
X3564295Y13444580D01*
X3475495Y13571401D01*
X3308401Y13738495D01*
X3308397Y13738498D01*
X3308396Y13738499D01*
X3201007Y13813693D01*
X3114830Y13874035D01*
X2900663Y13973903D01*
X2672408Y14035063D01*
X2672407Y14035064D01*
X2672400Y14035065D01*
X2437004Y14055659D01*
X2436996Y14055659D01*
X2201599Y14035065D01*
X1973332Y13973902D01*
X1759181Y13874041D01*
X1759173Y13874037D01*
X1565603Y13738499D01*
X1398501Y13571397D01*
X1262963Y13377827D01*
X1262959Y13377819D01*
X1163098Y13163668D01*
X1101935Y12935401D01*
X1081341Y12700005D01*
X25500Y12700005D01*
X25500Y16510000D01*
X782202Y16510000D01*
X801361Y16278780D01*
X858319Y16053863D01*
X858320Y16053860D01*
X951514Y15841395D01*
X951519Y15841386D01*
X1035811Y15712368D01*
X1663211Y16339769D01*
X1674482Y16297708D01*
X1746890Y16172292D01*
X1849292Y16069890D01*
X1974708Y15997482D01*
X2016765Y15986213D01*
X1388201Y15357649D01*
X1388201Y15357648D01*
X1418643Y15333954D01*
X1418647Y15333951D01*
X1622695Y15223525D01*
X1842145Y15148188D01*
X2070993Y15110000D01*
X2303007Y15110000D01*
X2531854Y15148188D01*
X2751304Y15223525D01*
X2955351Y15333950D01*
X2955357Y15333954D01*
X2985797Y15357648D01*
X2357232Y15986213D01*
X2399292Y15997482D01*
X2524708Y16069890D01*
X2627110Y16172292D01*
X2699518Y16297708D01*
X2710787Y16339768D01*
X3338187Y15712368D01*
X3422480Y15841386D01*
X3422485Y15841395D01*
X3515679Y16053860D01*
X3515680Y16053863D01*
X3572638Y16278780D01*
X3591797Y16510000D01*
X3591797Y16510005D01*
X4331341Y16510005D01*
X4331341Y16509996D01*
X4351935Y16274600D01*
X4351936Y16274593D01*
X4351937Y16274592D01*
X4413097Y16046337D01*
X4512965Y15832170D01*
X4573307Y15745993D01*
X4647454Y15640099D01*
X4648505Y15638599D01*
X4815599Y15471505D01*
X5009170Y15335965D01*
X5223337Y15236097D01*
X5451592Y15174937D01*
X5451596Y15174937D01*
X5451599Y15174936D01*
X5686996Y15154341D01*
X5687000Y15154341D01*
X5687004Y15154341D01*
X5922400Y15174936D01*
X5922401Y15174937D01*
X5922408Y15174937D01*
X6150663Y15236097D01*
X6159033Y15240000D01*
X9054785Y15240000D01*
X9073603Y15036917D01*
X9129418Y14840750D01*
X9220327Y14658179D01*
X9343236Y14495421D01*
X9493959Y14358019D01*
X9667363Y14250652D01*
X9857544Y14176976D01*
X10058024Y14139500D01*
X10261976Y14139500D01*
X10462456Y14176976D01*
X10652637Y14250652D01*
X10826041Y14358019D01*
X10976764Y14495421D01*
X11099673Y14658179D01*
X11190582Y14840750D01*
X11246397Y15036917D01*
X11265215Y15240000D01*
X11594785Y15240000D01*
X11613603Y15036917D01*
X11669418Y14840750D01*
X11760327Y14658179D01*
X11883236Y14495421D01*
X12033959Y14358019D01*
X12207363Y14250652D01*
X12397544Y14176976D01*
X12598024Y14139500D01*
X12801976Y14139500D01*
X13002456Y14176976D01*
X13192637Y14250652D01*
X13366041Y14358019D01*
X13516764Y14495421D01*
X13639673Y14658179D01*
X13730582Y14840750D01*
X13786397Y15036917D01*
X13805215Y15240000D01*
X35675073Y15240000D01*
X35694738Y15027784D01*
X35753064Y14822790D01*
X35848057Y14632016D01*
X35848058Y14632013D01*
X35856835Y14620392D01*
X36347036Y15110594D01*
X36364075Y15047007D01*
X36429901Y14932993D01*
X36522993Y14839901D01*
X36637007Y14774075D01*
X36700589Y14757038D01*
X36212992Y14269440D01*
X36315199Y14206156D01*
X36315204Y14206153D01*
X36513941Y14129162D01*
X36723437Y14090000D01*
X36936563Y14090000D01*
X37146058Y14129162D01*
X37344797Y14206154D01*
X37344803Y14206157D01*
X37447006Y14269440D01*
X36959408Y14757038D01*
X37022993Y14774075D01*
X37137007Y14839901D01*
X37230099Y14932993D01*
X37295925Y15047007D01*
X37312962Y15110592D01*
X37803163Y14620391D01*
X37811936Y14632006D01*
X37811940Y14632012D01*
X37906935Y14822790D01*
X37965261Y15027784D01*
X37984926Y15240000D01*
X61124785Y15240000D01*
X61143603Y15036917D01*
X61199418Y14840750D01*
X61290327Y14658179D01*
X61413236Y14495421D01*
X61563959Y14358019D01*
X61737363Y14250652D01*
X61927544Y14176976D01*
X62128024Y14139500D01*
X62331976Y14139500D01*
X62532456Y14176976D01*
X62722637Y14250652D01*
X62896041Y14358019D01*
X63046764Y14495421D01*
X63169673Y14658179D01*
X63260582Y14840750D01*
X63316397Y15036917D01*
X63335215Y15240000D01*
X63316397Y15443083D01*
X63260582Y15639250D01*
X63169673Y15821821D01*
X63046764Y15984579D01*
X62896041Y16121981D01*
X62722637Y16229348D01*
X62532456Y16303024D01*
X62532455Y16303025D01*
X62532453Y16303025D01*
X62331976Y16340500D01*
X62128024Y16340500D01*
X61927546Y16303025D01*
X61864963Y16278780D01*
X61737363Y16229348D01*
X61619622Y16156446D01*
X61563959Y16121981D01*
X61413237Y15984580D01*
X61290328Y15821823D01*
X61290323Y15821814D01*
X61199419Y15639253D01*
X61199418Y15639250D01*
X61143603Y15443083D01*
X61124785Y15240000D01*
X37984926Y15240000D01*
X37965261Y15452217D01*
X37906935Y15657211D01*
X37811941Y15847988D01*
X37811938Y15847993D01*
X37803163Y15859611D01*
X37312962Y15369411D01*
X37295925Y15432993D01*
X37230099Y15547007D01*
X37137007Y15640099D01*
X37022993Y15705925D01*
X36959407Y15722964D01*
X37447006Y16210562D01*
X37344800Y16273845D01*
X37344795Y16273848D01*
X37146058Y16350839D01*
X36936563Y16390000D01*
X36723437Y16390000D01*
X36513941Y16350839D01*
X36315204Y16273848D01*
X36315202Y16273847D01*
X36212992Y16210562D01*
X36700591Y15722963D01*
X36637007Y15705925D01*
X36522993Y15640099D01*
X36429901Y15547007D01*
X36364075Y15432993D01*
X36347037Y15369409D01*
X35856835Y15859611D01*
X35848067Y15848000D01*
X35848057Y15847984D01*
X35753064Y15657211D01*
X35694738Y15452217D01*
X35675073Y15240000D01*
X13805215Y15240000D01*
X13786397Y15443083D01*
X13730582Y15639250D01*
X13639673Y15821821D01*
X13516764Y15984579D01*
X13366041Y16121981D01*
X13192637Y16229348D01*
X13002456Y16303024D01*
X13002455Y16303025D01*
X13002453Y16303025D01*
X12801976Y16340500D01*
X12598024Y16340500D01*
X12397546Y16303025D01*
X12334963Y16278780D01*
X12207363Y16229348D01*
X12089622Y16156446D01*
X12033959Y16121981D01*
X11883237Y15984580D01*
X11760328Y15821823D01*
X11760323Y15821814D01*
X11669419Y15639253D01*
X11669418Y15639250D01*
X11613603Y15443083D01*
X11594785Y15240000D01*
X11265215Y15240000D01*
X11246397Y15443083D01*
X11190582Y15639250D01*
X11099673Y15821821D01*
X10976764Y15984579D01*
X10826041Y16121981D01*
X10652637Y16229348D01*
X10462456Y16303024D01*
X10462455Y16303025D01*
X10462453Y16303025D01*
X10261976Y16340500D01*
X10058024Y16340500D01*
X9857546Y16303025D01*
X9794963Y16278780D01*
X9667363Y16229348D01*
X9549622Y16156446D01*
X9493959Y16121981D01*
X9343237Y15984580D01*
X9220328Y15821823D01*
X9220323Y15821814D01*
X9129419Y15639253D01*
X9129418Y15639250D01*
X9073603Y15443083D01*
X9054785Y15240000D01*
X6159033Y15240000D01*
X6364830Y15335965D01*
X6558401Y15471505D01*
X6725495Y15638599D01*
X6861035Y15832170D01*
X6960903Y16046337D01*
X7022063Y16274592D01*
X7022064Y16274600D01*
X7042659Y16509996D01*
X7042659Y16510005D01*
X7022064Y16745401D01*
X7022063Y16745404D01*
X7022063Y16745408D01*
X6960903Y16973663D01*
X6960901Y16973668D01*
X6861040Y17187819D01*
X6861036Y17187827D01*
X6853788Y17198178D01*
X6725495Y17381401D01*
X6558401Y17548495D01*
X6558397Y17548498D01*
X6558396Y17548499D01*
X6433014Y17636292D01*
X6364830Y17684035D01*
X6159033Y17780000D01*
X9054785Y17780000D01*
X9073603Y17576917D01*
X9129418Y17380750D01*
X9220327Y17198179D01*
X9343236Y17035421D01*
X9493959Y16898019D01*
X9667363Y16790652D01*
X9857544Y16716976D01*
X10058024Y16679500D01*
X10261976Y16679500D01*
X10462456Y16716976D01*
X10652637Y16790652D01*
X10826041Y16898019D01*
X10976764Y17035421D01*
X11099673Y17198179D01*
X11190582Y17380750D01*
X11246397Y17576917D01*
X11265215Y17780000D01*
X11594785Y17780000D01*
X11613603Y17576917D01*
X11669418Y17380750D01*
X11760327Y17198179D01*
X11883236Y17035421D01*
X12033959Y16898019D01*
X12207363Y16790652D01*
X12397544Y16716976D01*
X12598024Y16679500D01*
X12801976Y16679500D01*
X13002456Y16716976D01*
X13192637Y16790652D01*
X13366041Y16898019D01*
X13516764Y17035421D01*
X13639673Y17198179D01*
X13730582Y17380750D01*
X13786397Y17576917D01*
X13805215Y17780000D01*
X13805215Y17780001D01*
X23066750Y17780001D01*
X23066750Y17780000D01*
X23085669Y17636292D01*
X23085670Y17636291D01*
X23141139Y17502375D01*
X23229379Y17387379D01*
X23344375Y17299139D01*
X23478291Y17243670D01*
X23622000Y17224750D01*
X23765709Y17243670D01*
X23899625Y17299139D01*
X24014621Y17387379D01*
X24102861Y17502375D01*
X24158330Y17636291D01*
X24177250Y17780000D01*
X35724785Y17780000D01*
X35743603Y17576917D01*
X35799418Y17380750D01*
X35890327Y17198179D01*
X36013236Y17035421D01*
X36163959Y16898019D01*
X36337363Y16790652D01*
X36527544Y16716976D01*
X36728024Y16679500D01*
X36931976Y16679500D01*
X37132456Y16716976D01*
X37322637Y16790652D01*
X37496041Y16898019D01*
X37646764Y17035421D01*
X37769673Y17198179D01*
X37860582Y17380750D01*
X37916397Y17576917D01*
X37935215Y17780000D01*
X61124785Y17780000D01*
X61143603Y17576917D01*
X61199418Y17380750D01*
X61290327Y17198179D01*
X61413236Y17035421D01*
X61563959Y16898019D01*
X61737363Y16790652D01*
X61927544Y16716976D01*
X62128024Y16679500D01*
X62331976Y16679500D01*
X62532456Y16716976D01*
X62722637Y16790652D01*
X62896041Y16898019D01*
X63046764Y17035421D01*
X63169673Y17198179D01*
X63260582Y17380750D01*
X63316397Y17576917D01*
X63335215Y17780000D01*
X63316397Y17983083D01*
X63260582Y18179250D01*
X63169673Y18361821D01*
X63046764Y18524579D01*
X62896041Y18661981D01*
X62722637Y18769348D01*
X62532456Y18843024D01*
X62532455Y18843025D01*
X62532453Y18843025D01*
X62331976Y18880500D01*
X62128024Y18880500D01*
X61927546Y18843025D01*
X61857632Y18815941D01*
X61737363Y18769348D01*
X61613451Y18692625D01*
X61563959Y18661981D01*
X61413237Y18524580D01*
X61290328Y18361823D01*
X61290323Y18361814D01*
X61240056Y18260863D01*
X61199418Y18179250D01*
X61143603Y17983083D01*
X61124785Y17780000D01*
X37935215Y17780000D01*
X37916397Y17983083D01*
X37860582Y18179250D01*
X37769673Y18361821D01*
X37646764Y18524579D01*
X37496041Y18661981D01*
X37322637Y18769348D01*
X37132456Y18843024D01*
X37132455Y18843025D01*
X37132453Y18843025D01*
X36931976Y18880500D01*
X36728024Y18880500D01*
X36527546Y18843025D01*
X36457632Y18815941D01*
X36337363Y18769348D01*
X36213451Y18692625D01*
X36163959Y18661981D01*
X36013237Y18524580D01*
X35890328Y18361823D01*
X35890323Y18361814D01*
X35840056Y18260863D01*
X35799418Y18179250D01*
X35743603Y17983083D01*
X35724785Y17780000D01*
X24177250Y17780000D01*
X24164259Y17878671D01*
X24158330Y17923709D01*
X24102861Y18057625D01*
X24014621Y18172621D01*
X23899625Y18260861D01*
X23899621Y18260863D01*
X23765709Y18316330D01*
X23765708Y18316331D01*
X23622000Y18335250D01*
X23478291Y18316331D01*
X23478290Y18316330D01*
X23344378Y18260863D01*
X23344374Y18260861D01*
X23229381Y18172623D01*
X23229377Y18172619D01*
X23141139Y18057626D01*
X23141137Y18057622D01*
X23085670Y17923710D01*
X23085669Y17923709D01*
X23066750Y17780001D01*
X13805215Y17780001D01*
X13786397Y17983083D01*
X13730582Y18179250D01*
X13639673Y18361821D01*
X13599513Y18415001D01*
X28654750Y18415001D01*
X28654750Y18415000D01*
X28673669Y18271292D01*
X28673670Y18271291D01*
X28714540Y18172619D01*
X28729139Y18137375D01*
X28817379Y18022379D01*
X28932375Y17934139D01*
X29066291Y17878670D01*
X29210000Y17859750D01*
X29353709Y17878670D01*
X29487625Y17934139D01*
X29602621Y18022379D01*
X29690861Y18137375D01*
X29746330Y18271291D01*
X29765250Y18415000D01*
X29765250Y18415001D01*
X30178750Y18415001D01*
X30178750Y18415000D01*
X30197669Y18271292D01*
X30197670Y18271291D01*
X30238540Y18172619D01*
X30253139Y18137375D01*
X30341379Y18022379D01*
X30456375Y17934139D01*
X30590291Y17878670D01*
X30734000Y17859750D01*
X30877709Y17878670D01*
X31011625Y17934139D01*
X31126621Y18022379D01*
X31214861Y18137375D01*
X31270330Y18271291D01*
X31289250Y18415000D01*
X31289250Y18415001D01*
X31702750Y18415001D01*
X31702750Y18415000D01*
X31721669Y18271292D01*
X31721670Y18271291D01*
X31762540Y18172619D01*
X31777139Y18137375D01*
X31865379Y18022379D01*
X31980375Y17934139D01*
X32114291Y17878670D01*
X32258000Y17859750D01*
X32401709Y17878670D01*
X32535625Y17934139D01*
X32650621Y18022379D01*
X32738861Y18137375D01*
X32794330Y18271291D01*
X32813250Y18415000D01*
X32800259Y18513671D01*
X32794330Y18558709D01*
X32738861Y18692625D01*
X32650621Y18807621D01*
X32535625Y18895861D01*
X32535621Y18895863D01*
X32401709Y18951330D01*
X32401708Y18951331D01*
X32258000Y18970250D01*
X32114291Y18951331D01*
X32114290Y18951330D01*
X31980378Y18895863D01*
X31980374Y18895861D01*
X31865381Y18807623D01*
X31865377Y18807619D01*
X31777139Y18692626D01*
X31777137Y18692622D01*
X31721670Y18558710D01*
X31721669Y18558709D01*
X31702750Y18415001D01*
X31289250Y18415001D01*
X31276259Y18513671D01*
X31270330Y18558709D01*
X31214861Y18692625D01*
X31126621Y18807621D01*
X31011625Y18895861D01*
X31011621Y18895863D01*
X30877709Y18951330D01*
X30877708Y18951331D01*
X30734000Y18970250D01*
X30590291Y18951331D01*
X30590290Y18951330D01*
X30456378Y18895863D01*
X30456374Y18895861D01*
X30341381Y18807623D01*
X30341377Y18807619D01*
X30253139Y18692626D01*
X30253137Y18692622D01*
X30197670Y18558710D01*
X30197669Y18558709D01*
X30178750Y18415001D01*
X29765250Y18415001D01*
X29752259Y18513671D01*
X29746330Y18558709D01*
X29690861Y18692625D01*
X29602621Y18807621D01*
X29487625Y18895861D01*
X29487621Y18895863D01*
X29353709Y18951330D01*
X29353708Y18951331D01*
X29210000Y18970250D01*
X29066291Y18951331D01*
X29066290Y18951330D01*
X28932378Y18895863D01*
X28932374Y18895861D01*
X28817381Y18807623D01*
X28817377Y18807619D01*
X28729139Y18692626D01*
X28729137Y18692622D01*
X28673670Y18558710D01*
X28673669Y18558709D01*
X28654750Y18415001D01*
X13599513Y18415001D01*
X13516764Y18524579D01*
X13366041Y18661981D01*
X13192637Y18769348D01*
X13002456Y18843024D01*
X13002455Y18843025D01*
X13002453Y18843025D01*
X12801976Y18880500D01*
X12598024Y18880500D01*
X12397546Y18843025D01*
X12327632Y18815941D01*
X12207363Y18769348D01*
X12083451Y18692625D01*
X12033959Y18661981D01*
X11883237Y18524580D01*
X11760328Y18361823D01*
X11760323Y18361814D01*
X11710056Y18260863D01*
X11669418Y18179250D01*
X11613603Y17983083D01*
X11594785Y17780000D01*
X11265215Y17780000D01*
X11246397Y17983083D01*
X11190582Y18179250D01*
X11099673Y18361821D01*
X10976764Y18524579D01*
X10826041Y18661981D01*
X10652637Y18769348D01*
X10462456Y18843024D01*
X10462455Y18843025D01*
X10462453Y18843025D01*
X10261976Y18880500D01*
X10058024Y18880500D01*
X9857546Y18843025D01*
X9787632Y18815941D01*
X9667363Y18769348D01*
X9543451Y18692625D01*
X9493959Y18661981D01*
X9343237Y18524580D01*
X9220328Y18361823D01*
X9220323Y18361814D01*
X9170056Y18260863D01*
X9129418Y18179250D01*
X9073603Y17983083D01*
X9054785Y17780000D01*
X6159033Y17780000D01*
X6150663Y17783903D01*
X5922408Y17845063D01*
X5922407Y17845064D01*
X5922400Y17845065D01*
X5687004Y17865659D01*
X5686996Y17865659D01*
X5451599Y17845065D01*
X5223332Y17783902D01*
X5009181Y17684041D01*
X5009173Y17684037D01*
X4815603Y17548499D01*
X4648501Y17381397D01*
X4512963Y17187827D01*
X4512959Y17187819D01*
X4413098Y16973668D01*
X4351935Y16745401D01*
X4331341Y16510005D01*
X3591797Y16510005D01*
X3572638Y16741221D01*
X3515680Y16966138D01*
X3515679Y16966141D01*
X3422485Y17178606D01*
X3422480Y17178615D01*
X3338187Y17307634D01*
X2710787Y16680235D01*
X2699518Y16722292D01*
X2627110Y16847708D01*
X2524708Y16950110D01*
X2399292Y17022518D01*
X2357231Y17033789D01*
X2985797Y17662354D01*
X2955355Y17686048D01*
X2955352Y17686050D01*
X2751304Y17796476D01*
X2531854Y17871813D01*
X2303007Y17910000D01*
X2070993Y17910000D01*
X1842145Y17871813D01*
X1622695Y17796476D01*
X1418646Y17686049D01*
X1418637Y17686044D01*
X1388201Y17662355D01*
X1388201Y17662354D01*
X2016767Y17033788D01*
X1974708Y17022518D01*
X1849292Y16950110D01*
X1746890Y16847708D01*
X1674482Y16722292D01*
X1663212Y16680233D01*
X1035812Y17307633D01*
X951517Y17178610D01*
X858318Y16966138D01*
X801361Y16741221D01*
X782202Y16510000D01*
X25500Y16510000D01*
X25500Y19050001D01*
X24209750Y19050001D01*
X24209750Y19050000D01*
X24228669Y18906292D01*
X24228670Y18906291D01*
X24269540Y18807619D01*
X24284139Y18772375D01*
X24372379Y18657379D01*
X24487375Y18569139D01*
X24621291Y18513670D01*
X24765000Y18494750D01*
X24908709Y18513670D01*
X25042625Y18569139D01*
X25157621Y18657379D01*
X25245861Y18772375D01*
X25301330Y18906291D01*
X25320250Y19050000D01*
X25301330Y19193709D01*
X25245861Y19327625D01*
X25157621Y19442621D01*
X25042625Y19530861D01*
X25042621Y19530863D01*
X24908709Y19586330D01*
X24908708Y19586331D01*
X24765000Y19605250D01*
X24621291Y19586331D01*
X24621290Y19586330D01*
X24487378Y19530863D01*
X24487374Y19530861D01*
X24372381Y19442623D01*
X24372377Y19442619D01*
X24284139Y19327626D01*
X24284137Y19327622D01*
X24228670Y19193710D01*
X24228669Y19193709D01*
X24209750Y19050001D01*
X25500Y19050001D01*
X25500Y20320000D01*
X9054785Y20320000D01*
X9073603Y20116917D01*
X9129418Y19920750D01*
X9220327Y19738179D01*
X9343236Y19575421D01*
X9493959Y19438019D01*
X9667363Y19330652D01*
X9857544Y19256976D01*
X10058024Y19219500D01*
X10261976Y19219500D01*
X10462456Y19256976D01*
X10652637Y19330652D01*
X10826041Y19438019D01*
X10976764Y19575421D01*
X11099673Y19738179D01*
X11190582Y19920750D01*
X11246397Y20116917D01*
X11265215Y20320000D01*
X11594785Y20320000D01*
X11613603Y20116917D01*
X11669418Y19920750D01*
X11760327Y19738179D01*
X11883236Y19575421D01*
X12033959Y19438019D01*
X12207363Y19330652D01*
X12397544Y19256976D01*
X12598024Y19219500D01*
X12801976Y19219500D01*
X13002456Y19256976D01*
X13192637Y19330652D01*
X13366041Y19438019D01*
X13516764Y19575421D01*
X13639673Y19738179D01*
X13730582Y19920750D01*
X13786397Y20116917D01*
X13805215Y20320000D01*
X35724785Y20320000D01*
X35743603Y20116917D01*
X35799418Y19920750D01*
X35890327Y19738179D01*
X36013236Y19575421D01*
X36163959Y19438019D01*
X36337363Y19330652D01*
X36527544Y19256976D01*
X36728024Y19219500D01*
X36931976Y19219500D01*
X37132456Y19256976D01*
X37322637Y19330652D01*
X37496041Y19438019D01*
X37646764Y19575421D01*
X37769673Y19738179D01*
X37860582Y19920750D01*
X37916397Y20116917D01*
X37935215Y20320000D01*
X61124785Y20320000D01*
X61143603Y20116917D01*
X61199418Y19920750D01*
X61290327Y19738179D01*
X61413236Y19575421D01*
X61563959Y19438019D01*
X61737363Y19330652D01*
X61927544Y19256976D01*
X62128024Y19219500D01*
X62331976Y19219500D01*
X62532456Y19256976D01*
X62722637Y19330652D01*
X62896041Y19438019D01*
X63046764Y19575421D01*
X63169673Y19738179D01*
X63260582Y19920750D01*
X63316397Y20116917D01*
X63335215Y20320000D01*
X63316397Y20523083D01*
X63260582Y20719250D01*
X63169673Y20901821D01*
X63046764Y21064579D01*
X62896041Y21201981D01*
X62722637Y21309348D01*
X62532456Y21383024D01*
X62532455Y21383025D01*
X62532453Y21383025D01*
X62331976Y21420500D01*
X62128024Y21420500D01*
X61927546Y21383025D01*
X61857632Y21355941D01*
X61737363Y21309348D01*
X61613451Y21232625D01*
X61563959Y21201981D01*
X61413237Y21064580D01*
X61290328Y20901823D01*
X61290323Y20901814D01*
X61199419Y20719253D01*
X61199418Y20719250D01*
X61143603Y20523083D01*
X61124785Y20320000D01*
X37935215Y20320000D01*
X37916397Y20523083D01*
X37860582Y20719250D01*
X37769673Y20901821D01*
X37646764Y21064579D01*
X37496041Y21201981D01*
X37322637Y21309348D01*
X37132456Y21383024D01*
X37132455Y21383025D01*
X37132453Y21383025D01*
X36931976Y21420500D01*
X36728024Y21420500D01*
X36527546Y21383025D01*
X36457632Y21355941D01*
X36337363Y21309348D01*
X36213451Y21232625D01*
X36163959Y21201981D01*
X36013237Y21064580D01*
X35890328Y20901823D01*
X35890323Y20901814D01*
X35799419Y20719253D01*
X35799418Y20719250D01*
X35743603Y20523083D01*
X35724785Y20320000D01*
X13805215Y20320000D01*
X13786397Y20523083D01*
X13730582Y20719250D01*
X13639673Y20901821D01*
X13599513Y20955001D01*
X21161750Y20955001D01*
X21161750Y20955000D01*
X21180669Y20811292D01*
X21180670Y20811291D01*
X21236139Y20677375D01*
X21324379Y20562379D01*
X21439375Y20474139D01*
X21573291Y20418670D01*
X21717000Y20399750D01*
X21860709Y20418670D01*
X21994625Y20474139D01*
X22109621Y20562379D01*
X22197861Y20677375D01*
X22253330Y20811291D01*
X22272250Y20955000D01*
X22253330Y21098709D01*
X22197861Y21232625D01*
X22109621Y21347621D01*
X21994625Y21435861D01*
X21994621Y21435863D01*
X21860709Y21491330D01*
X21860708Y21491331D01*
X21717000Y21510250D01*
X21573291Y21491331D01*
X21573290Y21491330D01*
X21439378Y21435863D01*
X21439374Y21435861D01*
X21324381Y21347623D01*
X21324377Y21347619D01*
X21236139Y21232626D01*
X21236137Y21232622D01*
X21180670Y21098710D01*
X21180669Y21098709D01*
X21161750Y20955001D01*
X13599513Y20955001D01*
X13516764Y21064579D01*
X13366041Y21201981D01*
X13192637Y21309348D01*
X13002456Y21383024D01*
X13002455Y21383025D01*
X13002453Y21383025D01*
X12801976Y21420500D01*
X12598024Y21420500D01*
X12397546Y21383025D01*
X12327632Y21355941D01*
X12207363Y21309348D01*
X12083451Y21232625D01*
X12033959Y21201981D01*
X11883237Y21064580D01*
X11760328Y20901823D01*
X11760323Y20901814D01*
X11669419Y20719253D01*
X11669418Y20719250D01*
X11613603Y20523083D01*
X11594785Y20320000D01*
X11265215Y20320000D01*
X11246397Y20523083D01*
X11190582Y20719250D01*
X11099673Y20901821D01*
X10976764Y21064579D01*
X10826041Y21201981D01*
X10652637Y21309348D01*
X10462456Y21383024D01*
X10462455Y21383025D01*
X10462453Y21383025D01*
X10261976Y21420500D01*
X10058024Y21420500D01*
X9857546Y21383025D01*
X9787632Y21355941D01*
X9667363Y21309348D01*
X9543451Y21232625D01*
X9493959Y21201981D01*
X9343237Y21064580D01*
X9220328Y20901823D01*
X9220323Y20901814D01*
X9129419Y20719253D01*
X9129418Y20719250D01*
X9073603Y20523083D01*
X9054785Y20320000D01*
X25500Y20320000D01*
X25500Y22860000D01*
X9054785Y22860000D01*
X9073603Y22656917D01*
X9129418Y22460750D01*
X9220327Y22278179D01*
X9343236Y22115421D01*
X9493959Y21978019D01*
X9667363Y21870652D01*
X9857544Y21796976D01*
X10058024Y21759500D01*
X10261976Y21759500D01*
X10462456Y21796976D01*
X10652637Y21870652D01*
X10826041Y21978019D01*
X10976764Y22115421D01*
X11099673Y22278179D01*
X11190582Y22460750D01*
X11246397Y22656917D01*
X11265215Y22860000D01*
X11594785Y22860000D01*
X11613603Y22656917D01*
X11669418Y22460750D01*
X11760327Y22278179D01*
X11883236Y22115421D01*
X12033959Y21978019D01*
X12207363Y21870652D01*
X12397544Y21796976D01*
X12598024Y21759500D01*
X12801976Y21759500D01*
X13002456Y21796976D01*
X13192637Y21870652D01*
X13366041Y21978019D01*
X13497655Y22098001D01*
X19510750Y22098001D01*
X19510750Y22098000D01*
X19529669Y21954292D01*
X19529670Y21954291D01*
X19585139Y21820375D01*
X19673379Y21705379D01*
X19788375Y21617139D01*
X19922291Y21561670D01*
X20066000Y21542750D01*
X20209709Y21561670D01*
X20343625Y21617139D01*
X20458621Y21705379D01*
X20546861Y21820375D01*
X20602330Y21954291D01*
X20621250Y22098000D01*
X20618956Y22115421D01*
X20602330Y22241709D01*
X20546861Y22375625D01*
X20458621Y22490621D01*
X20343625Y22578861D01*
X20343621Y22578863D01*
X20209709Y22634330D01*
X20209708Y22634331D01*
X20066000Y22653250D01*
X19922291Y22634331D01*
X19922290Y22634330D01*
X19788378Y22578863D01*
X19788374Y22578861D01*
X19673381Y22490623D01*
X19673377Y22490619D01*
X19585139Y22375626D01*
X19585137Y22375622D01*
X19529670Y22241710D01*
X19529669Y22241709D01*
X19510750Y22098001D01*
X13497655Y22098001D01*
X13516764Y22115421D01*
X13639673Y22278179D01*
X13730582Y22460750D01*
X13786397Y22656917D01*
X13805215Y22860000D01*
X13805215Y22860001D01*
X22050750Y22860001D01*
X22050750Y22860000D01*
X22069669Y22716292D01*
X22069670Y22716291D01*
X22125139Y22582375D01*
X22213379Y22467379D01*
X22328375Y22379139D01*
X22462291Y22323670D01*
X22606000Y22304750D01*
X22749709Y22323670D01*
X22883625Y22379139D01*
X22998621Y22467379D01*
X23086861Y22582375D01*
X23142330Y22716291D01*
X23161250Y22860000D01*
X35724785Y22860000D01*
X35743603Y22656917D01*
X35799418Y22460750D01*
X35890327Y22278179D01*
X36013236Y22115421D01*
X36163959Y21978019D01*
X36337363Y21870652D01*
X36527544Y21796976D01*
X36728024Y21759500D01*
X36931976Y21759500D01*
X37132456Y21796976D01*
X37322637Y21870652D01*
X37496041Y21978019D01*
X37646764Y22115421D01*
X37769673Y22278179D01*
X37860582Y22460750D01*
X37916397Y22656917D01*
X37935215Y22860000D01*
X61124785Y22860000D01*
X61143603Y22656917D01*
X61199418Y22460750D01*
X61290327Y22278179D01*
X61413236Y22115421D01*
X61563959Y21978019D01*
X61737363Y21870652D01*
X61927544Y21796976D01*
X62128024Y21759500D01*
X62331976Y21759500D01*
X62532456Y21796976D01*
X62722637Y21870652D01*
X62896041Y21978019D01*
X63046764Y22115421D01*
X63169673Y22278179D01*
X63260582Y22460750D01*
X63316397Y22656917D01*
X63335215Y22860000D01*
X63316397Y23063083D01*
X63260582Y23259250D01*
X63169673Y23441821D01*
X63046764Y23604579D01*
X62896041Y23741981D01*
X62722637Y23849348D01*
X62532456Y23923024D01*
X62532455Y23923025D01*
X62532453Y23923025D01*
X62331976Y23960500D01*
X62128024Y23960500D01*
X61927546Y23923025D01*
X61857632Y23895941D01*
X61737363Y23849348D01*
X61563959Y23741981D01*
X61413237Y23604580D01*
X61290328Y23441823D01*
X61290323Y23441814D01*
X61267675Y23396330D01*
X61199418Y23259250D01*
X61143603Y23063083D01*
X61124785Y22860000D01*
X37935215Y22860000D01*
X37916397Y23063083D01*
X37860582Y23259250D01*
X37769673Y23441821D01*
X37646764Y23604579D01*
X37496041Y23741981D01*
X37322637Y23849348D01*
X37132456Y23923024D01*
X37132455Y23923025D01*
X37132453Y23923025D01*
X36931976Y23960500D01*
X36728024Y23960500D01*
X36527546Y23923025D01*
X36457632Y23895941D01*
X36337363Y23849348D01*
X36163959Y23741981D01*
X36013237Y23604580D01*
X35890328Y23441823D01*
X35890323Y23441814D01*
X35867675Y23396330D01*
X35799418Y23259250D01*
X35743603Y23063083D01*
X35724785Y22860000D01*
X23161250Y22860000D01*
X23142330Y23003709D01*
X23086861Y23137625D01*
X22998621Y23252621D01*
X22883625Y23340861D01*
X22883621Y23340863D01*
X22749709Y23396330D01*
X22749708Y23396331D01*
X22606000Y23415250D01*
X22462291Y23396331D01*
X22462290Y23396330D01*
X22328378Y23340863D01*
X22328374Y23340861D01*
X22213381Y23252623D01*
X22213377Y23252619D01*
X22125139Y23137626D01*
X22125137Y23137622D01*
X22069670Y23003710D01*
X22069669Y23003709D01*
X22050750Y22860001D01*
X13805215Y22860001D01*
X13786397Y23063083D01*
X13730582Y23259250D01*
X13639673Y23441821D01*
X13516764Y23604579D01*
X13366041Y23741981D01*
X13192637Y23849348D01*
X13002456Y23923024D01*
X13002455Y23923025D01*
X13002453Y23923025D01*
X12801976Y23960500D01*
X12598024Y23960500D01*
X12397546Y23923025D01*
X12327632Y23895941D01*
X12207363Y23849348D01*
X12033959Y23741981D01*
X11883237Y23604580D01*
X11760328Y23441823D01*
X11760323Y23441814D01*
X11737675Y23396330D01*
X11669418Y23259250D01*
X11613603Y23063083D01*
X11594785Y22860000D01*
X11265215Y22860000D01*
X11246397Y23063083D01*
X11190582Y23259250D01*
X11099673Y23441821D01*
X10976764Y23604579D01*
X10826041Y23741981D01*
X10652637Y23849348D01*
X10462456Y23923024D01*
X10462455Y23923025D01*
X10462453Y23923025D01*
X10261976Y23960500D01*
X10058024Y23960500D01*
X9857546Y23923025D01*
X9787632Y23895941D01*
X9667363Y23849348D01*
X9493959Y23741981D01*
X9343237Y23604580D01*
X9220328Y23441823D01*
X9220323Y23441814D01*
X9197675Y23396330D01*
X9129418Y23259250D01*
X9073603Y23063083D01*
X9054785Y22860000D01*
X25500Y22860000D01*
X25500Y25400000D01*
X9054785Y25400000D01*
X9073603Y25196917D01*
X9129418Y25000750D01*
X9220327Y24818179D01*
X9343236Y24655421D01*
X9493959Y24518019D01*
X9667363Y24410652D01*
X9857544Y24336976D01*
X10058024Y24299500D01*
X10261976Y24299500D01*
X10462456Y24336976D01*
X10652637Y24410652D01*
X10826041Y24518019D01*
X10976764Y24655421D01*
X11099673Y24818179D01*
X11190582Y25000750D01*
X11246397Y25196917D01*
X11265215Y25400000D01*
X11594785Y25400000D01*
X11613603Y25196917D01*
X11669418Y25000750D01*
X11760327Y24818179D01*
X11883236Y24655421D01*
X12033959Y24518019D01*
X12207363Y24410652D01*
X12397544Y24336976D01*
X12598024Y24299500D01*
X12801976Y24299500D01*
X13002456Y24336976D01*
X13192637Y24410652D01*
X13366041Y24518019D01*
X13516764Y24655421D01*
X13639673Y24818179D01*
X13730582Y25000750D01*
X13771910Y25146001D01*
X22939750Y25146001D01*
X22939750Y25146000D01*
X22958669Y25002292D01*
X22958670Y25002291D01*
X23014139Y24868375D01*
X23102379Y24753379D01*
X23217375Y24665139D01*
X23351291Y24609670D01*
X23495000Y24590750D01*
X23638709Y24609670D01*
X23772625Y24665139D01*
X23887621Y24753379D01*
X23975861Y24868375D01*
X24031330Y25002291D01*
X24050250Y25146000D01*
X24031330Y25289709D01*
X23985647Y25400000D01*
X35724785Y25400000D01*
X35743603Y25196917D01*
X35799418Y25000750D01*
X35890327Y24818179D01*
X36013236Y24655421D01*
X36163959Y24518019D01*
X36337363Y24410652D01*
X36527544Y24336976D01*
X36728024Y24299500D01*
X36931976Y24299500D01*
X37132456Y24336976D01*
X37322637Y24410652D01*
X37496041Y24518019D01*
X37646764Y24655421D01*
X37769673Y24818179D01*
X37860582Y25000750D01*
X37916397Y25196917D01*
X37935215Y25400000D01*
X61124785Y25400000D01*
X61143603Y25196917D01*
X61199418Y25000750D01*
X61290327Y24818179D01*
X61413236Y24655421D01*
X61563959Y24518019D01*
X61737363Y24410652D01*
X61927544Y24336976D01*
X62128024Y24299500D01*
X62331976Y24299500D01*
X62532456Y24336976D01*
X62722637Y24410652D01*
X62896041Y24518019D01*
X63046764Y24655421D01*
X63169673Y24818179D01*
X63260582Y25000750D01*
X63316397Y25196917D01*
X63335215Y25400000D01*
X63316397Y25603083D01*
X63260582Y25799250D01*
X63169673Y25981821D01*
X63046764Y26144579D01*
X62896041Y26281981D01*
X62722637Y26389348D01*
X62532456Y26463024D01*
X62532455Y26463025D01*
X62532453Y26463025D01*
X62331976Y26500500D01*
X62128024Y26500500D01*
X61927546Y26463025D01*
X61857632Y26435941D01*
X61737363Y26389348D01*
X61563959Y26281981D01*
X61413237Y26144580D01*
X61290328Y25981823D01*
X61290323Y25981814D01*
X61207843Y25816170D01*
X61199418Y25799250D01*
X61143603Y25603083D01*
X61124785Y25400000D01*
X37935215Y25400000D01*
X37916397Y25603083D01*
X37860582Y25799250D01*
X37769673Y25981821D01*
X37646764Y26144579D01*
X37496041Y26281981D01*
X37322637Y26389348D01*
X37132456Y26463024D01*
X37132455Y26463025D01*
X37132453Y26463025D01*
X36931976Y26500500D01*
X36728024Y26500500D01*
X36527546Y26463025D01*
X36457632Y26435941D01*
X36337363Y26389348D01*
X36163959Y26281981D01*
X36013237Y26144580D01*
X35890328Y25981823D01*
X35890323Y25981814D01*
X35807843Y25816170D01*
X35799418Y25799250D01*
X35743603Y25603083D01*
X35724785Y25400000D01*
X23985647Y25400000D01*
X23975861Y25423625D01*
X23887621Y25538621D01*
X23772625Y25626861D01*
X23772621Y25626863D01*
X23638709Y25682330D01*
X23638708Y25682331D01*
X23495000Y25701250D01*
X23351291Y25682331D01*
X23351290Y25682330D01*
X23217378Y25626863D01*
X23217374Y25626861D01*
X23102381Y25538623D01*
X23102377Y25538619D01*
X23014139Y25423626D01*
X23014137Y25423622D01*
X22958670Y25289710D01*
X22958669Y25289709D01*
X22939750Y25146001D01*
X13771910Y25146001D01*
X13786397Y25196917D01*
X13805215Y25400000D01*
X13786397Y25603083D01*
X13730582Y25799250D01*
X13639673Y25981821D01*
X13516764Y26144579D01*
X13366041Y26281981D01*
X13252147Y26352501D01*
X24400250Y26352501D01*
X24400250Y26352500D01*
X24419169Y26208792D01*
X24419170Y26208791D01*
X24474639Y26074875D01*
X24562879Y25959879D01*
X24677875Y25871639D01*
X24811791Y25816170D01*
X24955500Y25797250D01*
X25099209Y25816170D01*
X25233125Y25871639D01*
X25348121Y25959879D01*
X25436361Y26074875D01*
X25491830Y26208791D01*
X25510750Y26352500D01*
X25491830Y26496209D01*
X25436361Y26630125D01*
X25348121Y26745121D01*
X25233125Y26833361D01*
X25233121Y26833363D01*
X25099209Y26888830D01*
X25099208Y26888831D01*
X24955500Y26907750D01*
X24811791Y26888831D01*
X24811790Y26888830D01*
X24677878Y26833363D01*
X24677874Y26833361D01*
X24562881Y26745123D01*
X24562877Y26745119D01*
X24474639Y26630126D01*
X24474637Y26630122D01*
X24419170Y26496210D01*
X24419169Y26496209D01*
X24400250Y26352501D01*
X13252147Y26352501D01*
X13192637Y26389348D01*
X13002456Y26463024D01*
X13002455Y26463025D01*
X13002453Y26463025D01*
X12801976Y26500500D01*
X12598024Y26500500D01*
X12397546Y26463025D01*
X12327632Y26435941D01*
X12207363Y26389348D01*
X12033959Y26281981D01*
X11883237Y26144580D01*
X11760328Y25981823D01*
X11760323Y25981814D01*
X11677843Y25816170D01*
X11669418Y25799250D01*
X11613603Y25603083D01*
X11594785Y25400000D01*
X11265215Y25400000D01*
X11246397Y25603083D01*
X11190582Y25799250D01*
X11099673Y25981821D01*
X10976764Y26144579D01*
X10826041Y26281981D01*
X10652637Y26389348D01*
X10462456Y26463024D01*
X10462455Y26463025D01*
X10462453Y26463025D01*
X10261976Y26500500D01*
X10058024Y26500500D01*
X9857546Y26463025D01*
X9787632Y26435941D01*
X9667363Y26389348D01*
X9493959Y26281981D01*
X9343237Y26144580D01*
X9220328Y25981823D01*
X9220323Y25981814D01*
X9137843Y25816170D01*
X9129418Y25799250D01*
X9073603Y25603083D01*
X9054785Y25400000D01*
X25500Y25400000D01*
X25500Y27940000D01*
X9054785Y27940000D01*
X9073603Y27736917D01*
X9129418Y27540750D01*
X9220327Y27358179D01*
X9343236Y27195421D01*
X9493959Y27058019D01*
X9667363Y26950652D01*
X9857544Y26876976D01*
X10058024Y26839500D01*
X10261976Y26839500D01*
X10462456Y26876976D01*
X10652637Y26950652D01*
X10826041Y27058019D01*
X10976764Y27195421D01*
X11099673Y27358179D01*
X11190582Y27540750D01*
X11246397Y27736917D01*
X11265215Y27940000D01*
X11594785Y27940000D01*
X11613603Y27736917D01*
X11669418Y27540750D01*
X11760327Y27358179D01*
X11883236Y27195421D01*
X12033959Y27058019D01*
X12207363Y26950652D01*
X12397544Y26876976D01*
X12598024Y26839500D01*
X12801976Y26839500D01*
X13002456Y26876976D01*
X13192637Y26950652D01*
X13366041Y27058019D01*
X13497655Y27178001D01*
X20780750Y27178001D01*
X20780750Y27178000D01*
X20799669Y27034292D01*
X20799670Y27034291D01*
X20855139Y26900375D01*
X20943379Y26785379D01*
X21058375Y26697139D01*
X21192291Y26641670D01*
X21336000Y26622750D01*
X21479709Y26641670D01*
X21613625Y26697139D01*
X21728621Y26785379D01*
X21816861Y26900375D01*
X21872330Y27034291D01*
X21891250Y27178000D01*
X21888956Y27195421D01*
X21872330Y27321709D01*
X21816861Y27455625D01*
X21728621Y27570621D01*
X21613625Y27658861D01*
X21613621Y27658863D01*
X21479709Y27714330D01*
X21479708Y27714331D01*
X21336000Y27733250D01*
X21192291Y27714331D01*
X21192290Y27714330D01*
X21058378Y27658863D01*
X21058374Y27658861D01*
X20943381Y27570623D01*
X20943377Y27570619D01*
X20855139Y27455626D01*
X20855137Y27455622D01*
X20799670Y27321710D01*
X20799669Y27321709D01*
X20780750Y27178001D01*
X13497655Y27178001D01*
X13516764Y27195421D01*
X13639673Y27358179D01*
X13730582Y27540750D01*
X13786397Y27736917D01*
X13805215Y27940000D01*
X35724785Y27940000D01*
X35743603Y27736917D01*
X35799418Y27540750D01*
X35890327Y27358179D01*
X36013236Y27195421D01*
X36163959Y27058019D01*
X36337363Y26950652D01*
X36527544Y26876976D01*
X36728024Y26839500D01*
X36931976Y26839500D01*
X37132456Y26876976D01*
X37322637Y26950652D01*
X37496041Y27058019D01*
X37646764Y27195421D01*
X37769673Y27358179D01*
X37860582Y27540750D01*
X37916397Y27736917D01*
X37935215Y27940000D01*
X61124785Y27940000D01*
X61143603Y27736917D01*
X61199418Y27540750D01*
X61290327Y27358179D01*
X61413236Y27195421D01*
X61563959Y27058019D01*
X61737363Y26950652D01*
X61927544Y26876976D01*
X62128024Y26839500D01*
X62331976Y26839500D01*
X62532456Y26876976D01*
X62722637Y26950652D01*
X62896041Y27058019D01*
X63046764Y27195421D01*
X63169673Y27358179D01*
X63260582Y27540750D01*
X63316397Y27736917D01*
X63335215Y27940000D01*
X63316397Y28143083D01*
X63260582Y28339250D01*
X63169673Y28521821D01*
X63046764Y28684579D01*
X62896041Y28821981D01*
X62722637Y28929348D01*
X62532456Y29003024D01*
X62532455Y29003025D01*
X62532453Y29003025D01*
X62331976Y29040500D01*
X62128024Y29040500D01*
X61927546Y29003025D01*
X61876212Y28983138D01*
X61737363Y28929348D01*
X61602283Y28845710D01*
X61563959Y28821981D01*
X61413237Y28684580D01*
X61290328Y28521823D01*
X61290323Y28521814D01*
X61199419Y28339253D01*
X61199418Y28339250D01*
X61143603Y28143083D01*
X61124785Y27940000D01*
X37935215Y27940000D01*
X37916397Y28143083D01*
X37860582Y28339250D01*
X37769673Y28521821D01*
X37646764Y28684579D01*
X37496041Y28821981D01*
X37322637Y28929348D01*
X37132456Y29003024D01*
X37132455Y29003025D01*
X37132453Y29003025D01*
X36931976Y29040500D01*
X36728024Y29040500D01*
X36527546Y29003025D01*
X36476212Y28983138D01*
X36337363Y28929348D01*
X36202283Y28845710D01*
X36163959Y28821981D01*
X36013237Y28684580D01*
X35890328Y28521823D01*
X35890323Y28521814D01*
X35799419Y28339253D01*
X35799418Y28339250D01*
X35743603Y28143083D01*
X35724785Y27940000D01*
X13805215Y27940000D01*
X13786397Y28143083D01*
X13730582Y28339250D01*
X13639673Y28521821D01*
X13516764Y28684579D01*
X13497653Y28702001D01*
X19256750Y28702001D01*
X19256750Y28702000D01*
X19275669Y28558292D01*
X19275670Y28558291D01*
X19331139Y28424375D01*
X19419379Y28309379D01*
X19534375Y28221139D01*
X19668291Y28165670D01*
X19812000Y28146750D01*
X19955709Y28165670D01*
X20089625Y28221139D01*
X20204621Y28309379D01*
X20292861Y28424375D01*
X20348330Y28558291D01*
X20367250Y28702000D01*
X20348330Y28845709D01*
X20292861Y28979625D01*
X20204621Y29094621D01*
X20089625Y29182861D01*
X20089621Y29182863D01*
X19955709Y29238330D01*
X19955708Y29238331D01*
X19812000Y29257250D01*
X19668291Y29238331D01*
X19668290Y29238330D01*
X19534378Y29182863D01*
X19534374Y29182861D01*
X19419381Y29094623D01*
X19419377Y29094619D01*
X19331139Y28979626D01*
X19331137Y28979622D01*
X19275670Y28845710D01*
X19275669Y28845709D01*
X19256750Y28702001D01*
X13497653Y28702001D01*
X13366041Y28821981D01*
X13192637Y28929348D01*
X13002456Y29003024D01*
X13002455Y29003025D01*
X13002453Y29003025D01*
X12801976Y29040500D01*
X12598024Y29040500D01*
X12397546Y29003025D01*
X12346212Y28983138D01*
X12207363Y28929348D01*
X12072283Y28845710D01*
X12033959Y28821981D01*
X11883237Y28684580D01*
X11760328Y28521823D01*
X11760323Y28521814D01*
X11669419Y28339253D01*
X11669418Y28339250D01*
X11613603Y28143083D01*
X11594785Y27940000D01*
X11265215Y27940000D01*
X11246397Y28143083D01*
X11190582Y28339250D01*
X11099673Y28521821D01*
X10976764Y28684579D01*
X10826041Y28821981D01*
X10652637Y28929348D01*
X10462456Y29003024D01*
X10462455Y29003025D01*
X10462453Y29003025D01*
X10261976Y29040500D01*
X10058024Y29040500D01*
X9857546Y29003025D01*
X9806212Y28983138D01*
X9667363Y28929348D01*
X9532283Y28845710D01*
X9493959Y28821981D01*
X9343237Y28684580D01*
X9220328Y28521823D01*
X9220323Y28521814D01*
X9129419Y28339253D01*
X9129418Y28339250D01*
X9073603Y28143083D01*
X9054785Y27940000D01*
X25500Y27940000D01*
X25500Y30480000D01*
X9054785Y30480000D01*
X9073603Y30276917D01*
X9129418Y30080750D01*
X9220327Y29898179D01*
X9343236Y29735421D01*
X9493959Y29598019D01*
X9667363Y29490652D01*
X9857544Y29416976D01*
X10058024Y29379500D01*
X10261976Y29379500D01*
X10462456Y29416976D01*
X10652637Y29490652D01*
X10826041Y29598019D01*
X10976764Y29735421D01*
X11099673Y29898179D01*
X11190582Y30080750D01*
X11246397Y30276917D01*
X11265215Y30480000D01*
X11594785Y30480000D01*
X11613603Y30276917D01*
X11669418Y30080750D01*
X11760327Y29898179D01*
X11883236Y29735421D01*
X12033959Y29598019D01*
X12207363Y29490652D01*
X12397544Y29416976D01*
X12598024Y29379500D01*
X12801976Y29379500D01*
X13002456Y29416976D01*
X13123842Y29464001D01*
X22812750Y29464001D01*
X22812750Y29464000D01*
X22831669Y29320292D01*
X22831670Y29320291D01*
X22887139Y29186375D01*
X22975379Y29071379D01*
X23090375Y28983139D01*
X23224291Y28927670D01*
X23368000Y28908750D01*
X23511709Y28927670D01*
X23645625Y28983139D01*
X23760621Y29071379D01*
X23848861Y29186375D01*
X23904330Y29320291D01*
X23904847Y29324220D01*
X23931188Y29379444D01*
X23984958Y29408639D01*
X24045620Y29400653D01*
X24090003Y29358536D01*
X24101152Y29324220D01*
X24101670Y29320291D01*
X24157139Y29186375D01*
X24245379Y29071379D01*
X24360375Y28983139D01*
X24494291Y28927670D01*
X24638000Y28908750D01*
X24781709Y28927670D01*
X24915625Y28983139D01*
X25030621Y29071379D01*
X25118861Y29186375D01*
X25169396Y29308381D01*
X25181248Y29322258D01*
X25339567Y29322258D01*
X25357124Y29293607D01*
X25359013Y29257573D01*
X25352750Y29210001D01*
X25352750Y29210000D01*
X25371669Y29066292D01*
X25371670Y29066291D01*
X25407567Y28979625D01*
X25427139Y28932375D01*
X25515379Y28817379D01*
X25630375Y28729139D01*
X25764291Y28673670D01*
X25908000Y28654750D01*
X26051709Y28673670D01*
X26185625Y28729139D01*
X26300621Y28817379D01*
X26388861Y28932375D01*
X26444330Y29066291D01*
X26463250Y29210000D01*
X26463250Y29210001D01*
X29162750Y29210001D01*
X29162750Y29210000D01*
X29181669Y29066292D01*
X29181670Y29066291D01*
X29217567Y28979625D01*
X29237139Y28932375D01*
X29325379Y28817379D01*
X29440375Y28729139D01*
X29574291Y28673670D01*
X29718000Y28654750D01*
X29861709Y28673670D01*
X29995625Y28729139D01*
X30110621Y28817379D01*
X30198861Y28932375D01*
X30254330Y29066291D01*
X30273250Y29210000D01*
X30254330Y29353709D01*
X30198861Y29487625D01*
X30110621Y29602621D01*
X29995625Y29690861D01*
X29995621Y29690863D01*
X29861709Y29746330D01*
X29861708Y29746331D01*
X29718000Y29765250D01*
X29574291Y29746331D01*
X29574290Y29746330D01*
X29440378Y29690863D01*
X29440374Y29690861D01*
X29325381Y29602623D01*
X29325377Y29602619D01*
X29237139Y29487626D01*
X29237137Y29487622D01*
X29181670Y29353710D01*
X29181669Y29353709D01*
X29162750Y29210001D01*
X26463250Y29210001D01*
X26444330Y29353709D01*
X26388861Y29487625D01*
X26300621Y29602621D01*
X26185625Y29690861D01*
X26185621Y29690863D01*
X26051709Y29746330D01*
X26051708Y29746331D01*
X25908000Y29765250D01*
X25764291Y29746331D01*
X25764290Y29746330D01*
X25630378Y29690863D01*
X25630374Y29690861D01*
X25515381Y29602623D01*
X25515377Y29602619D01*
X25427139Y29487626D01*
X25427138Y29487625D01*
X25376603Y29365620D01*
X25339567Y29322258D01*
X25181248Y29322258D01*
X25206431Y29351745D01*
X25188874Y29380395D01*
X25186986Y29416424D01*
X25193250Y29464000D01*
X25174330Y29607709D01*
X25118861Y29741625D01*
X25030621Y29856621D01*
X24915625Y29944861D01*
X24915621Y29944863D01*
X24781709Y30000330D01*
X24781708Y30000331D01*
X24638000Y30019250D01*
X24494291Y30000331D01*
X24494290Y30000330D01*
X24360378Y29944863D01*
X24360374Y29944861D01*
X24245381Y29856623D01*
X24245377Y29856619D01*
X24157139Y29741626D01*
X24157137Y29741622D01*
X24101670Y29607710D01*
X24101670Y29607709D01*
X24101153Y29603781D01*
X24074812Y29548556D01*
X24021041Y29519362D01*
X23960379Y29527348D01*
X23915997Y29569466D01*
X23904847Y29603781D01*
X23904330Y29607709D01*
X23848861Y29741625D01*
X23760621Y29856621D01*
X23645625Y29944861D01*
X23645621Y29944863D01*
X23511709Y30000330D01*
X23511708Y30000331D01*
X23368000Y30019250D01*
X23224291Y30000331D01*
X23224290Y30000330D01*
X23090378Y29944863D01*
X23090374Y29944861D01*
X22975381Y29856623D01*
X22975377Y29856619D01*
X22887139Y29741626D01*
X22887137Y29741622D01*
X22831670Y29607710D01*
X22831669Y29607709D01*
X22812750Y29464001D01*
X13123842Y29464001D01*
X13192637Y29490652D01*
X13366041Y29598019D01*
X13516764Y29735421D01*
X13639673Y29898179D01*
X13730582Y30080750D01*
X13786397Y30276917D01*
X13805215Y30480000D01*
X35724785Y30480000D01*
X35743603Y30276917D01*
X35799418Y30080750D01*
X35890327Y29898179D01*
X36013236Y29735421D01*
X36163959Y29598019D01*
X36337363Y29490652D01*
X36527544Y29416976D01*
X36728024Y29379500D01*
X36931976Y29379500D01*
X37132456Y29416976D01*
X37322637Y29490652D01*
X37496041Y29598019D01*
X37646764Y29735421D01*
X37769673Y29898179D01*
X37860582Y30080750D01*
X37916397Y30276917D01*
X37935215Y30480000D01*
X61124785Y30480000D01*
X61143603Y30276917D01*
X61199418Y30080750D01*
X61290327Y29898179D01*
X61413236Y29735421D01*
X61563959Y29598019D01*
X61737363Y29490652D01*
X61927544Y29416976D01*
X62128024Y29379500D01*
X62331976Y29379500D01*
X62532456Y29416976D01*
X62722637Y29490652D01*
X62896041Y29598019D01*
X63046764Y29735421D01*
X63169673Y29898179D01*
X63260582Y30080750D01*
X63316397Y30276917D01*
X63335215Y30480000D01*
X63316397Y30683083D01*
X63260582Y30879250D01*
X63169673Y31061821D01*
X63046764Y31224579D01*
X62896041Y31361981D01*
X62722637Y31469348D01*
X62532456Y31543024D01*
X62532455Y31543025D01*
X62532453Y31543025D01*
X62331976Y31580500D01*
X62128024Y31580500D01*
X61927546Y31543025D01*
X61857632Y31515941D01*
X61737363Y31469348D01*
X61563959Y31361981D01*
X61413237Y31224580D01*
X61290328Y31061823D01*
X61290323Y31061814D01*
X61199419Y30879253D01*
X61199418Y30879250D01*
X61143603Y30683083D01*
X61124785Y30480000D01*
X37935215Y30480000D01*
X37916397Y30683083D01*
X37860582Y30879250D01*
X37769673Y31061821D01*
X37646764Y31224579D01*
X37496041Y31361981D01*
X37322637Y31469348D01*
X37132456Y31543024D01*
X37132455Y31543025D01*
X37132453Y31543025D01*
X36931976Y31580500D01*
X36728024Y31580500D01*
X36527546Y31543025D01*
X36457632Y31515941D01*
X36337363Y31469348D01*
X36163959Y31361981D01*
X36013237Y31224580D01*
X35890328Y31061823D01*
X35890323Y31061814D01*
X35799419Y30879253D01*
X35799418Y30879250D01*
X35743603Y30683083D01*
X35724785Y30480000D01*
X13805215Y30480000D01*
X13786397Y30683083D01*
X13730582Y30879250D01*
X13639673Y31061821D01*
X13516764Y31224579D01*
X13366041Y31361981D01*
X13192637Y31469348D01*
X13002456Y31543024D01*
X13002455Y31543025D01*
X13002453Y31543025D01*
X12801976Y31580500D01*
X12598024Y31580500D01*
X12397546Y31543025D01*
X12327632Y31515941D01*
X12207363Y31469348D01*
X12033959Y31361981D01*
X11883237Y31224580D01*
X11760328Y31061823D01*
X11760323Y31061814D01*
X11669419Y30879253D01*
X11669418Y30879250D01*
X11613603Y30683083D01*
X11594785Y30480000D01*
X11265215Y30480000D01*
X11246397Y30683083D01*
X11190582Y30879250D01*
X11099673Y31061821D01*
X10976764Y31224579D01*
X10826041Y31361981D01*
X10652637Y31469348D01*
X10462456Y31543024D01*
X10462455Y31543025D01*
X10462453Y31543025D01*
X10261976Y31580500D01*
X10058024Y31580500D01*
X9857546Y31543025D01*
X9787632Y31515941D01*
X9667363Y31469348D01*
X9493959Y31361981D01*
X9343237Y31224580D01*
X9220328Y31061823D01*
X9220323Y31061814D01*
X9129419Y30879253D01*
X9129418Y30879250D01*
X9073603Y30683083D01*
X9054785Y30480000D01*
X25500Y30480000D01*
X25500Y33020000D01*
X9054785Y33020000D01*
X9073603Y32816917D01*
X9129418Y32620750D01*
X9220327Y32438179D01*
X9343236Y32275421D01*
X9493959Y32138019D01*
X9667363Y32030652D01*
X9857544Y31956976D01*
X10058024Y31919500D01*
X10261976Y31919500D01*
X10462456Y31956976D01*
X10652637Y32030652D01*
X10826041Y32138019D01*
X10976764Y32275421D01*
X11099673Y32438179D01*
X11190582Y32620750D01*
X11246397Y32816917D01*
X11265215Y33020000D01*
X11594785Y33020000D01*
X11613603Y32816917D01*
X11669418Y32620750D01*
X11760327Y32438179D01*
X11883236Y32275421D01*
X12033959Y32138019D01*
X12207363Y32030652D01*
X12397544Y31956976D01*
X12598024Y31919500D01*
X12801976Y31919500D01*
X13002456Y31956976D01*
X13192637Y32030652D01*
X13366041Y32138019D01*
X13516764Y32275421D01*
X13639673Y32438179D01*
X13730582Y32620750D01*
X13786397Y32816917D01*
X13805215Y33020000D01*
X35724785Y33020000D01*
X35743603Y32816917D01*
X35799418Y32620750D01*
X35890327Y32438179D01*
X36013236Y32275421D01*
X36163959Y32138019D01*
X36337363Y32030652D01*
X36527544Y31956976D01*
X36728024Y31919500D01*
X36931976Y31919500D01*
X37132456Y31956976D01*
X37322637Y32030652D01*
X37496041Y32138019D01*
X37646764Y32275421D01*
X37769673Y32438179D01*
X37860582Y32620750D01*
X37916397Y32816917D01*
X37935215Y33020000D01*
X61075073Y33020000D01*
X61094738Y32807784D01*
X61153064Y32602790D01*
X61248057Y32412016D01*
X61248058Y32412013D01*
X61256835Y32400392D01*
X61747036Y32890594D01*
X61764075Y32827007D01*
X61829901Y32712993D01*
X61922993Y32619901D01*
X62037007Y32554075D01*
X62100589Y32537038D01*
X61612992Y32049440D01*
X61715199Y31986156D01*
X61715204Y31986153D01*
X61913941Y31909162D01*
X62123437Y31870000D01*
X62336563Y31870000D01*
X62546058Y31909162D01*
X62744797Y31986154D01*
X62744803Y31986157D01*
X62847006Y32049440D01*
X62359408Y32537038D01*
X62422993Y32554075D01*
X62537007Y32619901D01*
X62630099Y32712993D01*
X62695925Y32827007D01*
X62712962Y32890592D01*
X63203163Y32400391D01*
X63211936Y32412006D01*
X63211940Y32412012D01*
X63306935Y32602790D01*
X63365261Y32807784D01*
X63384926Y33020000D01*
X63365261Y33232217D01*
X63306935Y33437211D01*
X63211941Y33627988D01*
X63211938Y33627993D01*
X63203163Y33639611D01*
X62712962Y33149411D01*
X62695925Y33212993D01*
X62630099Y33327007D01*
X62537007Y33420099D01*
X62422993Y33485925D01*
X62359407Y33502964D01*
X62847006Y33990562D01*
X62744800Y34053845D01*
X62744795Y34053848D01*
X62546058Y34130839D01*
X62336563Y34170000D01*
X62123437Y34170000D01*
X61913941Y34130839D01*
X61715204Y34053848D01*
X61715202Y34053847D01*
X61612992Y33990562D01*
X62100591Y33502963D01*
X62037007Y33485925D01*
X61922993Y33420099D01*
X61829901Y33327007D01*
X61764075Y33212993D01*
X61747037Y33149409D01*
X61256835Y33639611D01*
X61248067Y33628000D01*
X61248057Y33627984D01*
X61153064Y33437211D01*
X61094738Y33232217D01*
X61075073Y33020000D01*
X37935215Y33020000D01*
X37916397Y33223083D01*
X37860582Y33419250D01*
X37769673Y33601821D01*
X37646764Y33764579D01*
X37496041Y33901981D01*
X37322637Y34009348D01*
X37132456Y34083024D01*
X37132455Y34083025D01*
X37132453Y34083025D01*
X36931976Y34120500D01*
X36728024Y34120500D01*
X36527546Y34083025D01*
X36457632Y34055941D01*
X36337363Y34009348D01*
X36307023Y33990562D01*
X36163959Y33901981D01*
X36013237Y33764580D01*
X35890328Y33601823D01*
X35890323Y33601814D01*
X35799419Y33419253D01*
X35799418Y33419250D01*
X35743603Y33223083D01*
X35724785Y33020000D01*
X13805215Y33020000D01*
X13786397Y33223083D01*
X13730582Y33419250D01*
X13639673Y33601821D01*
X13516764Y33764579D01*
X13366041Y33901981D01*
X13192637Y34009348D01*
X13002456Y34083024D01*
X13002455Y34083025D01*
X13002453Y34083025D01*
X12801976Y34120500D01*
X12598024Y34120500D01*
X12397546Y34083025D01*
X12327632Y34055941D01*
X12207363Y34009348D01*
X12177023Y33990562D01*
X12033959Y33901981D01*
X11883237Y33764580D01*
X11760328Y33601823D01*
X11760323Y33601814D01*
X11669419Y33419253D01*
X11669418Y33419250D01*
X11613603Y33223083D01*
X11594785Y33020000D01*
X11265215Y33020000D01*
X11246397Y33223083D01*
X11190582Y33419250D01*
X11099673Y33601821D01*
X10976764Y33764579D01*
X10826041Y33901981D01*
X10652637Y34009348D01*
X10462456Y34083024D01*
X10462455Y34083025D01*
X10462453Y34083025D01*
X10261976Y34120500D01*
X10058024Y34120500D01*
X9857546Y34083025D01*
X9787632Y34055941D01*
X9667363Y34009348D01*
X9637023Y33990562D01*
X9493959Y33901981D01*
X9343237Y33764580D01*
X9220328Y33601823D01*
X9220323Y33601814D01*
X9129419Y33419253D01*
X9129418Y33419250D01*
X9073603Y33223083D01*
X9054785Y33020000D01*
X25500Y33020000D01*
X25500Y34290001D01*
X28654750Y34290001D01*
X28654750Y34290000D01*
X28673669Y34146292D01*
X28673670Y34146291D01*
X28711960Y34053848D01*
X28729139Y34012375D01*
X28817379Y33897379D01*
X28932375Y33809139D01*
X29066291Y33753670D01*
X29210000Y33734750D01*
X29353709Y33753670D01*
X29487625Y33809139D01*
X29602621Y33897379D01*
X29690861Y34012375D01*
X29746330Y34146291D01*
X29765250Y34290000D01*
X29765250Y34290001D01*
X30178750Y34290001D01*
X30178750Y34290000D01*
X30197669Y34146292D01*
X30197670Y34146291D01*
X30235960Y34053848D01*
X30253139Y34012375D01*
X30341379Y33897379D01*
X30456375Y33809139D01*
X30590291Y33753670D01*
X30734000Y33734750D01*
X30877709Y33753670D01*
X31011625Y33809139D01*
X31126621Y33897379D01*
X31214861Y34012375D01*
X31270330Y34146291D01*
X31289250Y34290000D01*
X31289250Y34290001D01*
X31702750Y34290001D01*
X31702750Y34290000D01*
X31721669Y34146292D01*
X31721670Y34146291D01*
X31759960Y34053848D01*
X31777139Y34012375D01*
X31865379Y33897379D01*
X31980375Y33809139D01*
X32114291Y33753670D01*
X32258000Y33734750D01*
X32401709Y33753670D01*
X32535625Y33809139D01*
X32650621Y33897379D01*
X32738861Y34012375D01*
X32794330Y34146291D01*
X32813250Y34290000D01*
X32794330Y34433709D01*
X32738861Y34567625D01*
X32650621Y34682621D01*
X32535625Y34770861D01*
X32535621Y34770863D01*
X32401709Y34826330D01*
X32401708Y34826331D01*
X32258000Y34845250D01*
X32114291Y34826331D01*
X32114290Y34826330D01*
X31980378Y34770863D01*
X31980374Y34770861D01*
X31865381Y34682623D01*
X31865377Y34682619D01*
X31777139Y34567626D01*
X31777137Y34567622D01*
X31721670Y34433710D01*
X31721669Y34433709D01*
X31702750Y34290001D01*
X31289250Y34290001D01*
X31270330Y34433709D01*
X31214861Y34567625D01*
X31126621Y34682621D01*
X31011625Y34770861D01*
X31011621Y34770863D01*
X30877709Y34826330D01*
X30877708Y34826331D01*
X30734000Y34845250D01*
X30590291Y34826331D01*
X30590290Y34826330D01*
X30456378Y34770863D01*
X30456374Y34770861D01*
X30341381Y34682623D01*
X30341377Y34682619D01*
X30253139Y34567626D01*
X30253137Y34567622D01*
X30197670Y34433710D01*
X30197669Y34433709D01*
X30178750Y34290001D01*
X29765250Y34290001D01*
X29746330Y34433709D01*
X29690861Y34567625D01*
X29602621Y34682621D01*
X29487625Y34770861D01*
X29487621Y34770863D01*
X29353709Y34826330D01*
X29353708Y34826331D01*
X29210000Y34845250D01*
X29066291Y34826331D01*
X29066290Y34826330D01*
X28932378Y34770863D01*
X28932374Y34770861D01*
X28817381Y34682623D01*
X28817377Y34682619D01*
X28729139Y34567626D01*
X28729137Y34567622D01*
X28673670Y34433710D01*
X28673669Y34433709D01*
X28654750Y34290001D01*
X25500Y34290001D01*
X25500Y35560000D01*
X9054785Y35560000D01*
X9073603Y35356917D01*
X9129418Y35160750D01*
X9220327Y34978179D01*
X9343236Y34815421D01*
X9493959Y34678019D01*
X9667363Y34570652D01*
X9857544Y34496976D01*
X10058024Y34459500D01*
X10261976Y34459500D01*
X10462456Y34496976D01*
X10652637Y34570652D01*
X10826041Y34678019D01*
X10976764Y34815421D01*
X11099673Y34978179D01*
X11190582Y35160750D01*
X11246397Y35356917D01*
X11265215Y35560000D01*
X11594785Y35560000D01*
X11613603Y35356917D01*
X11669418Y35160750D01*
X11760327Y34978179D01*
X11883236Y34815421D01*
X12033959Y34678019D01*
X12207363Y34570652D01*
X12397544Y34496976D01*
X12598024Y34459500D01*
X12801976Y34459500D01*
X13002456Y34496976D01*
X13192637Y34570652D01*
X13366041Y34678019D01*
X13516764Y34815421D01*
X13639673Y34978179D01*
X13730582Y35160750D01*
X13786397Y35356917D01*
X13805215Y35560000D01*
X35724785Y35560000D01*
X35743603Y35356917D01*
X35799418Y35160750D01*
X35890327Y34978179D01*
X36013236Y34815421D01*
X36163959Y34678019D01*
X36337363Y34570652D01*
X36527544Y34496976D01*
X36728024Y34459500D01*
X36931976Y34459500D01*
X37132456Y34496976D01*
X37322637Y34570652D01*
X37496041Y34678019D01*
X37646764Y34815421D01*
X37769673Y34978179D01*
X37860582Y35160750D01*
X37916397Y35356917D01*
X37935215Y35560000D01*
X61124785Y35560000D01*
X61143603Y35356917D01*
X61199418Y35160750D01*
X61290327Y34978179D01*
X61413236Y34815421D01*
X61563959Y34678019D01*
X61737363Y34570652D01*
X61927544Y34496976D01*
X62128024Y34459500D01*
X62331976Y34459500D01*
X62532456Y34496976D01*
X62722637Y34570652D01*
X62896041Y34678019D01*
X63046764Y34815421D01*
X63169673Y34978179D01*
X63260582Y35160750D01*
X63316397Y35356917D01*
X63335215Y35560000D01*
X63316397Y35763083D01*
X63260582Y35959250D01*
X63169673Y36141821D01*
X63046764Y36304579D01*
X62896041Y36441981D01*
X62722637Y36549348D01*
X62532456Y36623024D01*
X62532455Y36623025D01*
X62532453Y36623025D01*
X62331976Y36660500D01*
X62128024Y36660500D01*
X61927546Y36623025D01*
X61857632Y36595941D01*
X61737363Y36549348D01*
X61563959Y36441981D01*
X61413237Y36304580D01*
X61290328Y36141823D01*
X61290323Y36141814D01*
X61199419Y35959253D01*
X61199418Y35959250D01*
X61143603Y35763083D01*
X61124785Y35560000D01*
X37935215Y35560000D01*
X37916397Y35763083D01*
X37860582Y35959250D01*
X37769673Y36141821D01*
X37646764Y36304579D01*
X37496041Y36441981D01*
X37322637Y36549348D01*
X37132456Y36623024D01*
X37132455Y36623025D01*
X37132453Y36623025D01*
X36931976Y36660500D01*
X36728024Y36660500D01*
X36527546Y36623025D01*
X36457632Y36595941D01*
X36337363Y36549348D01*
X36163959Y36441981D01*
X36013237Y36304580D01*
X35890328Y36141823D01*
X35890323Y36141814D01*
X35799419Y35959253D01*
X35799418Y35959250D01*
X35743603Y35763083D01*
X35724785Y35560000D01*
X13805215Y35560000D01*
X13786397Y35763083D01*
X13730582Y35959250D01*
X13639673Y36141821D01*
X13516764Y36304579D01*
X13366041Y36441981D01*
X13192637Y36549348D01*
X13002456Y36623024D01*
X13002455Y36623025D01*
X13002453Y36623025D01*
X12801976Y36660500D01*
X12598024Y36660500D01*
X12397546Y36623025D01*
X12327632Y36595941D01*
X12207363Y36549348D01*
X12033959Y36441981D01*
X11883237Y36304580D01*
X11760328Y36141823D01*
X11760323Y36141814D01*
X11669419Y35959253D01*
X11669418Y35959250D01*
X11613603Y35763083D01*
X11594785Y35560000D01*
X11265215Y35560000D01*
X11246397Y35763083D01*
X11190582Y35959250D01*
X11099673Y36141821D01*
X10976764Y36304579D01*
X10826041Y36441981D01*
X10652637Y36549348D01*
X10462456Y36623024D01*
X10462455Y36623025D01*
X10462453Y36623025D01*
X10261976Y36660500D01*
X10058024Y36660500D01*
X9857546Y36623025D01*
X9787632Y36595941D01*
X9667363Y36549348D01*
X9493959Y36441981D01*
X9343237Y36304580D01*
X9220328Y36141823D01*
X9220323Y36141814D01*
X9129419Y35959253D01*
X9129418Y35959250D01*
X9073603Y35763083D01*
X9054785Y35560000D01*
X25500Y35560000D01*
X25500Y36070500D01*
X44407Y36128691D01*
X93907Y36164655D01*
X124500Y36169500D01*
X7630561Y36169500D01*
X7630562Y36169500D01*
X7645500Y36184438D01*
X7645500Y38100000D01*
X9054785Y38100000D01*
X9073603Y37896917D01*
X9129418Y37700750D01*
X9220327Y37518179D01*
X9343236Y37355421D01*
X9493959Y37218019D01*
X9667363Y37110652D01*
X9857544Y37036976D01*
X10058024Y36999500D01*
X10261976Y36999500D01*
X10462456Y37036976D01*
X10652637Y37110652D01*
X10826041Y37218019D01*
X10976764Y37355421D01*
X11099673Y37518179D01*
X11190582Y37700750D01*
X11246397Y37896917D01*
X11265215Y38100000D01*
X11594785Y38100000D01*
X11613603Y37896917D01*
X11669418Y37700750D01*
X11760327Y37518179D01*
X11883236Y37355421D01*
X12033959Y37218019D01*
X12207363Y37110652D01*
X12397544Y37036976D01*
X12598024Y36999500D01*
X12801976Y36999500D01*
X13002456Y37036976D01*
X13192637Y37110652D01*
X13366041Y37218019D01*
X13516764Y37355421D01*
X13639673Y37518179D01*
X13730582Y37700750D01*
X13786397Y37896917D01*
X13805215Y38100000D01*
X35724785Y38100000D01*
X35743603Y37896917D01*
X35799418Y37700750D01*
X35890327Y37518179D01*
X36013236Y37355421D01*
X36163959Y37218019D01*
X36337363Y37110652D01*
X36527544Y37036976D01*
X36728024Y36999500D01*
X36931976Y36999500D01*
X37132456Y37036976D01*
X37322637Y37110652D01*
X37496041Y37218019D01*
X37646764Y37355421D01*
X37769673Y37518179D01*
X37860582Y37700750D01*
X37916397Y37896917D01*
X37935215Y38100000D01*
X61124785Y38100000D01*
X61143603Y37896917D01*
X61199418Y37700750D01*
X61290327Y37518179D01*
X61413236Y37355421D01*
X61563959Y37218019D01*
X61737363Y37110652D01*
X61927544Y37036976D01*
X62128024Y36999500D01*
X62331976Y36999500D01*
X62532456Y37036976D01*
X62722637Y37110652D01*
X62896041Y37218019D01*
X63046764Y37355421D01*
X63169673Y37518179D01*
X63260582Y37700750D01*
X63316397Y37896917D01*
X63335215Y38100000D01*
X63316397Y38303083D01*
X63260582Y38499250D01*
X63169673Y38681821D01*
X63046764Y38844579D01*
X62896041Y38981981D01*
X62722637Y39089348D01*
X62532456Y39163024D01*
X62532455Y39163025D01*
X62532453Y39163025D01*
X62331976Y39200500D01*
X62128024Y39200500D01*
X61927546Y39163025D01*
X61857632Y39135941D01*
X61737363Y39089348D01*
X61613451Y39012625D01*
X61563959Y38981981D01*
X61413237Y38844580D01*
X61290328Y38681823D01*
X61290323Y38681814D01*
X61199419Y38499253D01*
X61199418Y38499250D01*
X61143603Y38303083D01*
X61124785Y38100000D01*
X37935215Y38100000D01*
X37916397Y38303083D01*
X37860582Y38499250D01*
X37769673Y38681821D01*
X37646764Y38844579D01*
X37496041Y38981981D01*
X37322637Y39089348D01*
X37132456Y39163024D01*
X37132455Y39163025D01*
X37132453Y39163025D01*
X36931976Y39200500D01*
X36728024Y39200500D01*
X36527546Y39163025D01*
X36457632Y39135941D01*
X36337363Y39089348D01*
X36213451Y39012625D01*
X36163959Y38981981D01*
X36013237Y38844580D01*
X35890328Y38681823D01*
X35890323Y38681814D01*
X35799419Y38499253D01*
X35799418Y38499250D01*
X35743603Y38303083D01*
X35724785Y38100000D01*
X13805215Y38100000D01*
X13786397Y38303083D01*
X13730582Y38499250D01*
X13639673Y38681821D01*
X13599513Y38735001D01*
X22050750Y38735001D01*
X22050750Y38735000D01*
X22069669Y38591292D01*
X22069670Y38591291D01*
X22125139Y38457375D01*
X22213379Y38342379D01*
X22328375Y38254139D01*
X22462291Y38198670D01*
X22606000Y38179750D01*
X22749709Y38198670D01*
X22883625Y38254139D01*
X22998621Y38342379D01*
X23086861Y38457375D01*
X23142330Y38591291D01*
X23161250Y38735000D01*
X23142330Y38878709D01*
X23086861Y39012625D01*
X22998621Y39127621D01*
X22883625Y39215861D01*
X22883621Y39215863D01*
X22749709Y39271330D01*
X22749708Y39271331D01*
X22606000Y39290250D01*
X22462291Y39271331D01*
X22462290Y39271330D01*
X22328378Y39215863D01*
X22328374Y39215861D01*
X22213381Y39127623D01*
X22213377Y39127619D01*
X22125139Y39012626D01*
X22125137Y39012622D01*
X22069670Y38878710D01*
X22069669Y38878709D01*
X22050750Y38735001D01*
X13599513Y38735001D01*
X13516764Y38844579D01*
X13366041Y38981981D01*
X13192637Y39089348D01*
X13002456Y39163024D01*
X13002455Y39163025D01*
X13002453Y39163025D01*
X12801976Y39200500D01*
X12598024Y39200500D01*
X12397546Y39163025D01*
X12327632Y39135941D01*
X12207363Y39089348D01*
X12083451Y39012625D01*
X12033959Y38981981D01*
X11883237Y38844580D01*
X11760328Y38681823D01*
X11760323Y38681814D01*
X11669419Y38499253D01*
X11669418Y38499250D01*
X11613603Y38303083D01*
X11594785Y38100000D01*
X11265215Y38100000D01*
X11246397Y38303083D01*
X11190582Y38499250D01*
X11099673Y38681821D01*
X10976764Y38844579D01*
X10826041Y38981981D01*
X10652637Y39089348D01*
X10462456Y39163024D01*
X10462455Y39163025D01*
X10462453Y39163025D01*
X10261976Y39200500D01*
X10058024Y39200500D01*
X9857546Y39163025D01*
X9787632Y39135941D01*
X9667363Y39089348D01*
X9543451Y39012625D01*
X9493959Y38981981D01*
X9343237Y38844580D01*
X9220328Y38681823D01*
X9220323Y38681814D01*
X9129419Y38499253D01*
X9129418Y38499250D01*
X9073603Y38303083D01*
X9054785Y38100000D01*
X7645500Y38100000D01*
X7645500Y40640000D01*
X9054785Y40640000D01*
X9073603Y40436917D01*
X9129418Y40240750D01*
X9220327Y40058179D01*
X9343236Y39895421D01*
X9493959Y39758019D01*
X9667363Y39650652D01*
X9857544Y39576976D01*
X10058024Y39539500D01*
X10261976Y39539500D01*
X10462456Y39576976D01*
X10652637Y39650652D01*
X10826041Y39758019D01*
X10976764Y39895421D01*
X11099673Y40058179D01*
X11190582Y40240750D01*
X11246397Y40436917D01*
X11265215Y40640000D01*
X11594785Y40640000D01*
X11613603Y40436917D01*
X11669418Y40240750D01*
X11760327Y40058179D01*
X11883236Y39895421D01*
X12033959Y39758019D01*
X12207363Y39650652D01*
X12397544Y39576976D01*
X12598024Y39539500D01*
X12801976Y39539500D01*
X13002456Y39576976D01*
X13192637Y39650652D01*
X13366041Y39758019D01*
X13516764Y39895421D01*
X13639673Y40058179D01*
X13730582Y40240750D01*
X13786397Y40436917D01*
X13805215Y40640000D01*
X35724785Y40640000D01*
X35743603Y40436917D01*
X35799418Y40240750D01*
X35890327Y40058179D01*
X36013236Y39895421D01*
X36163959Y39758019D01*
X36337363Y39650652D01*
X36527544Y39576976D01*
X36728024Y39539500D01*
X36931976Y39539500D01*
X37132456Y39576976D01*
X37322637Y39650652D01*
X37496041Y39758019D01*
X37646764Y39895421D01*
X37769673Y40058179D01*
X37860582Y40240750D01*
X37916397Y40436917D01*
X37935215Y40640000D01*
X61124785Y40640000D01*
X61143603Y40436917D01*
X61199418Y40240750D01*
X61290327Y40058179D01*
X61413236Y39895421D01*
X61563959Y39758019D01*
X61737363Y39650652D01*
X61927544Y39576976D01*
X62128024Y39539500D01*
X62331976Y39539500D01*
X62532456Y39576976D01*
X62722637Y39650652D01*
X62896041Y39758019D01*
X63046764Y39895421D01*
X63169673Y40058179D01*
X63260582Y40240750D01*
X63316397Y40436917D01*
X63335215Y40640000D01*
X63316397Y40843083D01*
X63260582Y41039250D01*
X63169673Y41221821D01*
X63046764Y41384579D01*
X62896041Y41521981D01*
X62722637Y41629348D01*
X62532456Y41703024D01*
X62532455Y41703025D01*
X62532453Y41703025D01*
X62331976Y41740500D01*
X62128024Y41740500D01*
X61927546Y41703025D01*
X61857632Y41675941D01*
X61737363Y41629348D01*
X61563959Y41521981D01*
X61413237Y41384580D01*
X61290328Y41221823D01*
X61290323Y41221814D01*
X61199419Y41039253D01*
X61199418Y41039250D01*
X61143603Y40843083D01*
X61124785Y40640000D01*
X37935215Y40640000D01*
X37916397Y40843083D01*
X37860582Y41039250D01*
X37769673Y41221821D01*
X37646764Y41384579D01*
X37496041Y41521981D01*
X37322637Y41629348D01*
X37132456Y41703024D01*
X37132455Y41703025D01*
X37132453Y41703025D01*
X36931976Y41740500D01*
X36728024Y41740500D01*
X36527546Y41703025D01*
X36457632Y41675941D01*
X36337363Y41629348D01*
X36163959Y41521981D01*
X36013237Y41384580D01*
X35890328Y41221823D01*
X35890323Y41221814D01*
X35799419Y41039253D01*
X35799418Y41039250D01*
X35743603Y40843083D01*
X35724785Y40640000D01*
X13805215Y40640000D01*
X13786397Y40843083D01*
X13730582Y41039250D01*
X13639673Y41221821D01*
X13516764Y41384579D01*
X13366041Y41521981D01*
X13192637Y41629348D01*
X13002456Y41703024D01*
X13002455Y41703025D01*
X13002453Y41703025D01*
X12801976Y41740500D01*
X12598024Y41740500D01*
X12397546Y41703025D01*
X12327632Y41675941D01*
X12207363Y41629348D01*
X12033959Y41521981D01*
X11883237Y41384580D01*
X11760328Y41221823D01*
X11760323Y41221814D01*
X11669419Y41039253D01*
X11669418Y41039250D01*
X11613603Y40843083D01*
X11594785Y40640000D01*
X11265215Y40640000D01*
X11246397Y40843083D01*
X11190582Y41039250D01*
X11099673Y41221821D01*
X10976764Y41384579D01*
X10826041Y41521981D01*
X10652637Y41629348D01*
X10462456Y41703024D01*
X10462455Y41703025D01*
X10462453Y41703025D01*
X10261976Y41740500D01*
X10058024Y41740500D01*
X9857546Y41703025D01*
X9787632Y41675941D01*
X9667363Y41629348D01*
X9493959Y41521981D01*
X9343237Y41384580D01*
X9220328Y41221823D01*
X9220323Y41221814D01*
X9129419Y41039253D01*
X9129418Y41039250D01*
X9073603Y40843083D01*
X9054785Y40640000D01*
X7645500Y40640000D01*
X7645500Y43180000D01*
X9054785Y43180000D01*
X9073603Y42976917D01*
X9129418Y42780750D01*
X9220327Y42598179D01*
X9343236Y42435421D01*
X9493959Y42298019D01*
X9667363Y42190652D01*
X9857544Y42116976D01*
X10058024Y42079500D01*
X10261976Y42079500D01*
X10462456Y42116976D01*
X10652637Y42190652D01*
X10826041Y42298019D01*
X10976764Y42435421D01*
X11099673Y42598179D01*
X11190582Y42780750D01*
X11246397Y42976917D01*
X11265215Y43180000D01*
X11594785Y43180000D01*
X11613603Y42976917D01*
X11669418Y42780750D01*
X11760327Y42598179D01*
X11883236Y42435421D01*
X12033959Y42298019D01*
X12207363Y42190652D01*
X12397544Y42116976D01*
X12598024Y42079500D01*
X12801976Y42079500D01*
X13002456Y42116976D01*
X13192637Y42190652D01*
X13354707Y42291001D01*
X25098750Y42291001D01*
X25098750Y42291000D01*
X25117669Y42147292D01*
X25117670Y42147291D01*
X25145749Y42079500D01*
X25173139Y42013375D01*
X25261379Y41898379D01*
X25376375Y41810139D01*
X25510291Y41754670D01*
X25654000Y41735750D01*
X25797709Y41754670D01*
X25931625Y41810139D01*
X26046621Y41898379D01*
X26134861Y42013375D01*
X26190330Y42147291D01*
X26209250Y42291000D01*
X26209250Y42291001D01*
X26622750Y42291001D01*
X26622750Y42291000D01*
X26641669Y42147292D01*
X26641670Y42147291D01*
X26669749Y42079500D01*
X26697139Y42013375D01*
X26785379Y41898379D01*
X26900375Y41810139D01*
X27034291Y41754670D01*
X27178000Y41735750D01*
X27321709Y41754670D01*
X27455625Y41810139D01*
X27570621Y41898379D01*
X27658861Y42013375D01*
X27714330Y42147291D01*
X27733250Y42291000D01*
X27733250Y42291001D01*
X28146750Y42291001D01*
X28146750Y42291000D01*
X28165669Y42147292D01*
X28165670Y42147291D01*
X28193749Y42079500D01*
X28221139Y42013375D01*
X28309379Y41898379D01*
X28424375Y41810139D01*
X28558291Y41754670D01*
X28702000Y41735750D01*
X28845709Y41754670D01*
X28979625Y41810139D01*
X29094621Y41898379D01*
X29182861Y42013375D01*
X29238330Y42147291D01*
X29257250Y42291000D01*
X29238330Y42434709D01*
X29182861Y42568625D01*
X29094621Y42683621D01*
X28979625Y42771861D01*
X28979621Y42771863D01*
X28845709Y42827330D01*
X28845708Y42827331D01*
X28702000Y42846250D01*
X28558291Y42827331D01*
X28558290Y42827330D01*
X28424378Y42771863D01*
X28424374Y42771861D01*
X28309381Y42683623D01*
X28309377Y42683619D01*
X28221139Y42568626D01*
X28221137Y42568622D01*
X28165670Y42434710D01*
X28165669Y42434709D01*
X28146750Y42291001D01*
X27733250Y42291001D01*
X27714330Y42434709D01*
X27658861Y42568625D01*
X27570621Y42683621D01*
X27455625Y42771861D01*
X27455621Y42771863D01*
X27321709Y42827330D01*
X27321708Y42827331D01*
X27178000Y42846250D01*
X27034291Y42827331D01*
X27034290Y42827330D01*
X26900378Y42771863D01*
X26900374Y42771861D01*
X26785381Y42683623D01*
X26785377Y42683619D01*
X26697139Y42568626D01*
X26697137Y42568622D01*
X26641670Y42434710D01*
X26641669Y42434709D01*
X26622750Y42291001D01*
X26209250Y42291001D01*
X26190330Y42434709D01*
X26134861Y42568625D01*
X26046621Y42683621D01*
X25931625Y42771861D01*
X25931621Y42771863D01*
X25797709Y42827330D01*
X25797708Y42827331D01*
X25654000Y42846250D01*
X25510291Y42827331D01*
X25510290Y42827330D01*
X25376378Y42771863D01*
X25376374Y42771861D01*
X25261381Y42683623D01*
X25261377Y42683619D01*
X25173139Y42568626D01*
X25173137Y42568622D01*
X25117670Y42434710D01*
X25117669Y42434709D01*
X25098750Y42291001D01*
X13354707Y42291001D01*
X13366041Y42298019D01*
X13516764Y42435421D01*
X13639673Y42598179D01*
X13730582Y42780750D01*
X13786397Y42976917D01*
X13805215Y43180000D01*
X35724785Y43180000D01*
X35743603Y42976917D01*
X35799418Y42780750D01*
X35890327Y42598179D01*
X36013236Y42435421D01*
X36163959Y42298019D01*
X36337363Y42190652D01*
X36527544Y42116976D01*
X36728024Y42079500D01*
X36931976Y42079500D01*
X37132456Y42116976D01*
X37322637Y42190652D01*
X37496041Y42298019D01*
X37646764Y42435421D01*
X37769673Y42598179D01*
X37860582Y42780750D01*
X37916397Y42976917D01*
X37935215Y43180000D01*
X61124785Y43180000D01*
X61143603Y42976917D01*
X61199418Y42780750D01*
X61290327Y42598179D01*
X61413236Y42435421D01*
X61563959Y42298019D01*
X61737363Y42190652D01*
X61927544Y42116976D01*
X62128024Y42079500D01*
X62331976Y42079500D01*
X62532456Y42116976D01*
X62722637Y42190652D01*
X62896041Y42298019D01*
X63046764Y42435421D01*
X63169673Y42598179D01*
X63260582Y42780750D01*
X63316397Y42976917D01*
X63335215Y43180000D01*
X63316397Y43383083D01*
X63260582Y43579250D01*
X63169673Y43761821D01*
X63046764Y43924579D01*
X62896041Y44061981D01*
X62722637Y44169348D01*
X62532456Y44243024D01*
X62532455Y44243025D01*
X62532453Y44243025D01*
X62331976Y44280500D01*
X62128024Y44280500D01*
X61927546Y44243025D01*
X61857632Y44215941D01*
X61737363Y44169348D01*
X61563959Y44061981D01*
X61413237Y43924580D01*
X61290328Y43761823D01*
X61290323Y43761814D01*
X61199419Y43579253D01*
X61199418Y43579250D01*
X61143603Y43383083D01*
X61124785Y43180000D01*
X37935215Y43180000D01*
X37916397Y43383083D01*
X37860582Y43579250D01*
X37769673Y43761821D01*
X37646764Y43924579D01*
X37496041Y44061981D01*
X37322637Y44169348D01*
X37132456Y44243024D01*
X37132455Y44243025D01*
X37132453Y44243025D01*
X36931976Y44280500D01*
X36728024Y44280500D01*
X36527546Y44243025D01*
X36457632Y44215941D01*
X36337363Y44169348D01*
X36163959Y44061981D01*
X36013237Y43924580D01*
X35890328Y43761823D01*
X35890323Y43761814D01*
X35799419Y43579253D01*
X35799418Y43579250D01*
X35743603Y43383083D01*
X35724785Y43180000D01*
X13805215Y43180000D01*
X13786397Y43383083D01*
X13730582Y43579250D01*
X13639673Y43761821D01*
X13516764Y43924579D01*
X13366041Y44061981D01*
X13192637Y44169348D01*
X13002456Y44243024D01*
X13002455Y44243025D01*
X13002453Y44243025D01*
X12801976Y44280500D01*
X12598024Y44280500D01*
X12397546Y44243025D01*
X12327632Y44215941D01*
X12207363Y44169348D01*
X12033959Y44061981D01*
X11883237Y43924580D01*
X11760328Y43761823D01*
X11760323Y43761814D01*
X11669419Y43579253D01*
X11669418Y43579250D01*
X11613603Y43383083D01*
X11594785Y43180000D01*
X11265215Y43180000D01*
X11246397Y43383083D01*
X11190582Y43579250D01*
X11099673Y43761821D01*
X10976764Y43924579D01*
X10826041Y44061981D01*
X10652637Y44169348D01*
X10462456Y44243024D01*
X10462455Y44243025D01*
X10462453Y44243025D01*
X10261976Y44280500D01*
X10058024Y44280500D01*
X9857546Y44243025D01*
X9787632Y44215941D01*
X9667363Y44169348D01*
X9493959Y44061981D01*
X9343237Y43924580D01*
X9220328Y43761823D01*
X9220323Y43761814D01*
X9129419Y43579253D01*
X9129418Y43579250D01*
X9073603Y43383083D01*
X9054785Y43180000D01*
X7645500Y43180000D01*
X7645500Y45720000D01*
X9054785Y45720000D01*
X9073603Y45516917D01*
X9129418Y45320750D01*
X9220327Y45138179D01*
X9343236Y44975421D01*
X9493959Y44838019D01*
X9667363Y44730652D01*
X9857544Y44656976D01*
X10058024Y44619500D01*
X10261976Y44619500D01*
X10462456Y44656976D01*
X10652637Y44730652D01*
X10826041Y44838019D01*
X10976764Y44975421D01*
X11099673Y45138179D01*
X11190582Y45320750D01*
X11246397Y45516917D01*
X11265215Y45720000D01*
X11594785Y45720000D01*
X11613603Y45516917D01*
X11669418Y45320750D01*
X11760327Y45138179D01*
X11883236Y44975421D01*
X12033959Y44838019D01*
X12207363Y44730652D01*
X12397544Y44656976D01*
X12598024Y44619500D01*
X12801976Y44619500D01*
X13002456Y44656976D01*
X13192637Y44730652D01*
X13366041Y44838019D01*
X13516764Y44975421D01*
X13639673Y45138179D01*
X13730582Y45320750D01*
X13786397Y45516917D01*
X13805215Y45720000D01*
X35724785Y45720000D01*
X35743603Y45516917D01*
X35799418Y45320750D01*
X35890327Y45138179D01*
X36013236Y44975421D01*
X36163959Y44838019D01*
X36337363Y44730652D01*
X36527544Y44656976D01*
X36728024Y44619500D01*
X36931976Y44619500D01*
X37132456Y44656976D01*
X37322637Y44730652D01*
X37496041Y44838019D01*
X37646764Y44975421D01*
X37769673Y45138179D01*
X37860582Y45320750D01*
X37916397Y45516917D01*
X37935215Y45720000D01*
X61124785Y45720000D01*
X61143603Y45516917D01*
X61199418Y45320750D01*
X61290327Y45138179D01*
X61413236Y44975421D01*
X61563959Y44838019D01*
X61737363Y44730652D01*
X61927544Y44656976D01*
X62128024Y44619500D01*
X62331976Y44619500D01*
X62532456Y44656976D01*
X62722637Y44730652D01*
X62896041Y44838019D01*
X63046764Y44975421D01*
X63169673Y45138179D01*
X63260582Y45320750D01*
X63316397Y45516917D01*
X63335215Y45720000D01*
X63316397Y45923083D01*
X63260582Y46119250D01*
X63169673Y46301821D01*
X63046764Y46464579D01*
X62896041Y46601981D01*
X62722637Y46709348D01*
X62532456Y46783024D01*
X62532455Y46783025D01*
X62532453Y46783025D01*
X62331976Y46820500D01*
X62128024Y46820500D01*
X61927546Y46783025D01*
X61857632Y46755941D01*
X61737363Y46709348D01*
X61563959Y46601981D01*
X61413237Y46464580D01*
X61290328Y46301823D01*
X61290323Y46301814D01*
X61199419Y46119253D01*
X61199418Y46119250D01*
X61143603Y45923083D01*
X61124785Y45720000D01*
X37935215Y45720000D01*
X37916397Y45923083D01*
X37860582Y46119250D01*
X37769673Y46301821D01*
X37646764Y46464579D01*
X37496041Y46601981D01*
X37322637Y46709348D01*
X37132456Y46783024D01*
X37132455Y46783025D01*
X37132453Y46783025D01*
X36931976Y46820500D01*
X36728024Y46820500D01*
X36527546Y46783025D01*
X36457632Y46755941D01*
X36337363Y46709348D01*
X36163959Y46601981D01*
X36013237Y46464580D01*
X35890328Y46301823D01*
X35890323Y46301814D01*
X35799419Y46119253D01*
X35799418Y46119250D01*
X35743603Y45923083D01*
X35724785Y45720000D01*
X13805215Y45720000D01*
X13786397Y45923083D01*
X13730582Y46119250D01*
X13639673Y46301821D01*
X13516764Y46464579D01*
X13366041Y46601981D01*
X13192637Y46709348D01*
X13002456Y46783024D01*
X13002455Y46783025D01*
X13002453Y46783025D01*
X12801976Y46820500D01*
X12598024Y46820500D01*
X12397546Y46783025D01*
X12327632Y46755941D01*
X12207363Y46709348D01*
X12033959Y46601981D01*
X11883237Y46464580D01*
X11760328Y46301823D01*
X11760323Y46301814D01*
X11669419Y46119253D01*
X11669418Y46119250D01*
X11613603Y45923083D01*
X11594785Y45720000D01*
X11265215Y45720000D01*
X11246397Y45923083D01*
X11190582Y46119250D01*
X11099673Y46301821D01*
X10976764Y46464579D01*
X10826041Y46601981D01*
X10652637Y46709348D01*
X10462456Y46783024D01*
X10462455Y46783025D01*
X10462453Y46783025D01*
X10261976Y46820500D01*
X10058024Y46820500D01*
X9857546Y46783025D01*
X9787632Y46755941D01*
X9667363Y46709348D01*
X9493959Y46601981D01*
X9343237Y46464580D01*
X9220328Y46301823D01*
X9220323Y46301814D01*
X9129419Y46119253D01*
X9129418Y46119250D01*
X9073603Y45923083D01*
X9054785Y45720000D01*
X7645500Y45720000D01*
X7645500Y48260000D01*
X9054785Y48260000D01*
X9073603Y48056917D01*
X9129418Y47860750D01*
X9220327Y47678179D01*
X9343236Y47515421D01*
X9493959Y47378019D01*
X9667363Y47270652D01*
X9857544Y47196976D01*
X10058024Y47159500D01*
X10261976Y47159500D01*
X10462456Y47196976D01*
X10652637Y47270652D01*
X10826041Y47378019D01*
X10976764Y47515421D01*
X11099673Y47678179D01*
X11190582Y47860750D01*
X11246397Y48056917D01*
X11265215Y48260000D01*
X11594785Y48260000D01*
X11613603Y48056917D01*
X11669418Y47860750D01*
X11760327Y47678179D01*
X11883236Y47515421D01*
X12033959Y47378019D01*
X12207363Y47270652D01*
X12397544Y47196976D01*
X12598024Y47159500D01*
X12801976Y47159500D01*
X13002456Y47196976D01*
X13192637Y47270652D01*
X13366041Y47378019D01*
X13516764Y47515421D01*
X13639673Y47678179D01*
X13730582Y47860750D01*
X13786397Y48056917D01*
X13805215Y48260000D01*
X13786397Y48463083D01*
X13730582Y48659250D01*
X13676431Y48768001D01*
X21161750Y48768001D01*
X21161750Y48768000D01*
X21180669Y48624292D01*
X21180670Y48624291D01*
X21236139Y48490375D01*
X21324379Y48375379D01*
X21439375Y48287139D01*
X21573291Y48231670D01*
X21717000Y48212750D01*
X21860709Y48231670D01*
X21994625Y48287139D01*
X22109621Y48375379D01*
X22197861Y48490375D01*
X22253330Y48624291D01*
X22272250Y48768000D01*
X22253330Y48911709D01*
X22197861Y49045625D01*
X22109621Y49160621D01*
X21994625Y49248861D01*
X21994621Y49248863D01*
X21860709Y49304330D01*
X21860708Y49304331D01*
X21717000Y49323250D01*
X21573291Y49304331D01*
X21573290Y49304330D01*
X21439378Y49248863D01*
X21439374Y49248861D01*
X21324381Y49160623D01*
X21324377Y49160619D01*
X21236139Y49045626D01*
X21236137Y49045622D01*
X21180670Y48911710D01*
X21180669Y48911709D01*
X21161750Y48768001D01*
X13676431Y48768001D01*
X13639673Y48841821D01*
X13516764Y49004579D01*
X13366041Y49141981D01*
X13192637Y49249348D01*
X13002456Y49323024D01*
X13002455Y49323025D01*
X13002453Y49323025D01*
X12801976Y49360500D01*
X12598024Y49360500D01*
X12397546Y49323025D01*
X12346212Y49303138D01*
X12207363Y49249348D01*
X12033959Y49141981D01*
X11883237Y49004580D01*
X11760328Y48841823D01*
X11760323Y48841814D01*
X11669419Y48659253D01*
X11669418Y48659250D01*
X11613603Y48463083D01*
X11594785Y48260000D01*
X11265215Y48260000D01*
X11246397Y48463083D01*
X11190582Y48659250D01*
X11099673Y48841821D01*
X10976764Y49004579D01*
X10826041Y49141981D01*
X10652637Y49249348D01*
X10462456Y49323024D01*
X10462455Y49323025D01*
X10462453Y49323025D01*
X10261976Y49360500D01*
X10058024Y49360500D01*
X9857546Y49323025D01*
X9806212Y49303138D01*
X9667363Y49249348D01*
X9493959Y49141981D01*
X9343237Y49004580D01*
X9220328Y48841823D01*
X9220323Y48841814D01*
X9129419Y48659253D01*
X9129418Y48659250D01*
X9073603Y48463083D01*
X9054785Y48260000D01*
X7645500Y48260000D01*
X7645500Y51674673D01*
X9059500Y51674673D01*
X9059500Y49925328D01*
X9059501Y49925316D01*
X9074033Y49852264D01*
X9074035Y49852258D01*
X9129397Y49769401D01*
X9129399Y49769399D01*
X9212260Y49714034D01*
X9267808Y49702985D01*
X9285315Y49699502D01*
X9285320Y49699502D01*
X9285326Y49699500D01*
X9285327Y49699500D01*
X11034673Y49699500D01*
X11034674Y49699500D01*
X11107740Y49714034D01*
X11190601Y49769399D01*
X11245966Y49852260D01*
X11260500Y49925326D01*
X11260500Y50800000D01*
X11594785Y50800000D01*
X11613603Y50596917D01*
X11669418Y50400750D01*
X11760327Y50218179D01*
X11883236Y50055421D01*
X12033959Y49918019D01*
X12207363Y49810652D01*
X12397544Y49736976D01*
X12598024Y49699500D01*
X12801976Y49699500D01*
X13002456Y49736976D01*
X13123842Y49784001D01*
X19510750Y49784001D01*
X19510750Y49784000D01*
X19529669Y49640292D01*
X19529670Y49640291D01*
X19585139Y49506375D01*
X19673379Y49391379D01*
X19788375Y49303139D01*
X19922291Y49247670D01*
X20066000Y49228750D01*
X20209709Y49247670D01*
X20343625Y49303139D01*
X20458621Y49391379D01*
X20546861Y49506375D01*
X20602330Y49640291D01*
X20621250Y49784000D01*
X20612263Y49852258D01*
X20602330Y49927709D01*
X20546861Y50061625D01*
X20458621Y50176621D01*
X20343625Y50264861D01*
X20343621Y50264863D01*
X20209709Y50320330D01*
X20209708Y50320331D01*
X20066000Y50339250D01*
X19922291Y50320331D01*
X19922290Y50320330D01*
X19788378Y50264863D01*
X19788374Y50264861D01*
X19673381Y50176623D01*
X19673377Y50176619D01*
X19585139Y50061626D01*
X19585137Y50061622D01*
X19529670Y49927710D01*
X19529669Y49927709D01*
X19510750Y49784001D01*
X13123842Y49784001D01*
X13192637Y49810652D01*
X13366041Y49918019D01*
X13516764Y50055421D01*
X13639673Y50218179D01*
X13730582Y50400750D01*
X13786397Y50596917D01*
X13805215Y50800000D01*
X13786397Y51003083D01*
X13730582Y51199250D01*
X13639673Y51381821D01*
X13516764Y51544579D01*
X13366041Y51681981D01*
X13192637Y51789348D01*
X13002456Y51863024D01*
X13002455Y51863025D01*
X13002453Y51863025D01*
X12801976Y51900500D01*
X12598024Y51900500D01*
X12397546Y51863025D01*
X12327632Y51835941D01*
X12207363Y51789348D01*
X12140164Y51747740D01*
X12033959Y51681981D01*
X11883237Y51544580D01*
X11760328Y51381823D01*
X11760323Y51381814D01*
X11669419Y51199253D01*
X11669418Y51199250D01*
X11613603Y51003083D01*
X11594785Y50800000D01*
X11260500Y50800000D01*
X11260500Y51674674D01*
X11245966Y51747740D01*
X11190601Y51830601D01*
X11190599Y51830603D01*
X11107742Y51885965D01*
X11107740Y51885966D01*
X11107737Y51885967D01*
X11107736Y51885967D01*
X11034684Y51900499D01*
X11034674Y51900500D01*
X9285326Y51900500D01*
X9285325Y51900500D01*
X9285315Y51900499D01*
X9212263Y51885967D01*
X9212257Y51885965D01*
X9129400Y51830603D01*
X9129397Y51830600D01*
X9074035Y51747743D01*
X9074033Y51747737D01*
X9059501Y51674685D01*
X9059500Y51674673D01*
X7645500Y51674673D01*
X7645500Y53215500D01*
X7664407Y53273691D01*
X7713907Y53309655D01*
X7744500Y53314500D01*
X30428429Y53314500D01*
X30486620Y53295593D01*
G37*
%TD.AperFunction*%
M02*
