%TF.GenerationSoftware,KiCad,Pcbnew,8.0.4*%
%TF.CreationDate,2024-09-22T15:27:09+02:00*%
%TF.ProjectId,blue_64,626c7565-5f36-4342-9e6b-696361645f70,0.3*%
%TF.SameCoordinates,PX38ecc10PY60e4b00*%
%TF.FileFunction,Soldermask,Bot*%
%TF.FilePolarity,Negative*%
%FSLAX46Y46*%
G04 Gerber Fmt 4.6, Leading zero omitted, Abs format (unit mm)*
G04 Created by KiCad (PCBNEW 8.0.4) date 2024-09-22 15:27:09*
%MOMM*%
%LPD*%
G01*
G04 APERTURE LIST*
G04 Aperture macros list*
%AMRoundRect*
0 Rectangle with rounded corners*
0 $1 Rounding radius*
0 $2 $3 $4 $5 $6 $7 $8 $9 X,Y pos of 4 corners*
0 Add a 4 corners polygon primitive as box body*
4,1,4,$2,$3,$4,$5,$6,$7,$8,$9,$2,$3,0*
0 Add four circle primitives for the rounded corners*
1,1,$1+$1,$2,$3*
1,1,$1+$1,$4,$5*
1,1,$1+$1,$6,$7*
1,1,$1+$1,$8,$9*
0 Add four rect primitives between the rounded corners*
20,1,$1+$1,$2,$3,$4,$5,0*
20,1,$1+$1,$4,$5,$6,$7,0*
20,1,$1+$1,$6,$7,$8,$9,0*
20,1,$1+$1,$8,$9,$2,$3,0*%
%AMFreePoly0*
4,1,19,0.500000,-0.750000,0.000000,-0.750000,0.000000,-0.744911,-0.071157,-0.744911,-0.207708,-0.704816,-0.327430,-0.627875,-0.420627,-0.520320,-0.479746,-0.390866,-0.500000,-0.250000,-0.500000,0.250000,-0.479746,0.390866,-0.420627,0.520320,-0.327430,0.627875,-0.207708,0.704816,-0.071157,0.744911,0.000000,0.744911,0.000000,0.750000,0.500000,0.750000,0.500000,-0.750000,0.500000,-0.750000,
$1*%
%AMFreePoly1*
4,1,19,0.000000,0.744911,0.071157,0.744911,0.207708,0.704816,0.327430,0.627875,0.420627,0.520320,0.479746,0.390866,0.500000,0.250000,0.500000,-0.250000,0.479746,-0.390866,0.420627,-0.520320,0.327430,-0.627875,0.207708,-0.704816,0.071157,-0.744911,0.000000,-0.744911,0.000000,-0.750000,-0.500000,-0.750000,-0.500000,0.750000,0.000000,0.750000,0.000000,0.744911,0.000000,0.744911,
$1*%
G04 Aperture macros list end*
%ADD10C,2.200000*%
%ADD11O,2.200000X2.200000*%
%ADD12R,1.700000X1.700000*%
%ADD13O,1.700000X1.700000*%
%ADD14C,1.700000*%
%ADD15RoundRect,0.218750X0.256250X-0.218750X0.256250X0.218750X-0.256250X0.218750X-0.256250X-0.218750X0*%
%ADD16RoundRect,0.218750X0.218750X0.256250X-0.218750X0.256250X-0.218750X-0.256250X0.218750X-0.256250X0*%
%ADD17R,0.700000X0.510000*%
%ADD18RoundRect,0.218750X-0.256250X0.218750X-0.256250X-0.218750X0.256250X-0.218750X0.256250X0.218750X0*%
%ADD19R,1.000000X1.000000*%
%ADD20R,1.060000X0.650000*%
%ADD21RoundRect,0.150000X-0.150000X0.825000X-0.150000X-0.825000X0.150000X-0.825000X0.150000X0.825000X0*%
%ADD22FreePoly0,270.000000*%
%ADD23FreePoly1,270.000000*%
%ADD24R,0.900000X0.800000*%
G04 APERTURE END LIST*
D10*
X5437000Y12700000D03*
D11*
X2437000Y12700000D03*
D12*
X10160000Y50800000D03*
D13*
X12700000Y50800000D03*
X10160000Y48260000D03*
X12700000Y48260000D03*
X10160000Y45720000D03*
X12700000Y45720000D03*
X10160000Y43180000D03*
X12700000Y43180000D03*
X10160000Y40640000D03*
X12700000Y40640000D03*
X10160000Y38100000D03*
X12700000Y38100000D03*
X10160000Y35560000D03*
X12700000Y35560000D03*
X10160000Y33020000D03*
X12700000Y33020000D03*
X10160000Y30480000D03*
X12700000Y30480000D03*
X10160000Y27940000D03*
X12700000Y27940000D03*
X10160000Y25400000D03*
X12700000Y25400000D03*
X10160000Y22860000D03*
X12700000Y22860000D03*
X10160000Y20320000D03*
X12700000Y20320000D03*
X10160000Y17780000D03*
X12700000Y17780000D03*
X10160000Y15240000D03*
X12700000Y15240000D03*
X10160000Y12700000D03*
X12700000Y12700000D03*
X10160000Y10160000D03*
X12700000Y10160000D03*
X10160000Y7620000D03*
X12700000Y7620000D03*
X10160000Y5080000D03*
X12700000Y5080000D03*
X10160000Y2540000D03*
X12700000Y2540000D03*
D11*
X5687000Y16510000D03*
D10*
X2187000Y16510000D03*
D14*
X62230000Y15240000D03*
X62230000Y12700000D03*
X36830000Y48260000D03*
X62230000Y17780000D03*
X62230000Y25400000D03*
X36830000Y2540000D03*
X36830000Y17780000D03*
X36830000Y12700000D03*
X36830000Y20320000D03*
X62230000Y10160000D03*
X62230000Y20320000D03*
X62230000Y22860000D03*
X62230000Y27940000D03*
X62230000Y30480000D03*
X62230000Y35560000D03*
X62230000Y43180000D03*
X62230000Y45720000D03*
X36830000Y27940000D03*
X36830000Y25400000D03*
X36830000Y22860000D03*
X36830000Y33020000D03*
X36830000Y30480000D03*
X36830000Y38100000D03*
X36830000Y35560000D03*
X62230000Y2540000D03*
X36830000Y5080000D03*
X62230000Y5080000D03*
X62230000Y7620000D03*
X36830000Y10160000D03*
X36830000Y7620000D03*
X36830000Y45720000D03*
X36830000Y15240000D03*
X62230000Y48260000D03*
X62230000Y33020000D03*
X62230000Y38100000D03*
X62230000Y40640000D03*
X36830000Y40640000D03*
X36830000Y43180000D03*
D15*
X30734000Y19278500D03*
X30734000Y20853500D03*
D16*
X19075500Y44196000D03*
X17500500Y44196000D03*
D15*
X32258000Y35153500D03*
X32258000Y36728500D03*
D17*
X19194000Y32954000D03*
X19194000Y32004000D03*
X19194000Y31054000D03*
X16874000Y31054000D03*
X16874000Y32004000D03*
X16874000Y32954000D03*
D15*
X29210000Y19278500D03*
X29210000Y20853500D03*
X30734000Y35153500D03*
X30734000Y36728500D03*
D18*
X20624800Y21107500D03*
X20624800Y19532500D03*
D17*
X19194000Y27112000D03*
X19194000Y26162000D03*
X19194000Y25212000D03*
X16874000Y25212000D03*
X16874000Y26162000D03*
X16874000Y27112000D03*
D19*
X34143000Y2540000D03*
X31643000Y2540000D03*
D18*
X20574000Y10134700D03*
X20574000Y8559700D03*
X20624800Y48793500D03*
X20624800Y47218500D03*
D16*
X19075500Y28702000D03*
X17500500Y28702000D03*
D15*
X32258000Y19278500D03*
X32258000Y20853500D03*
X29210000Y35153500D03*
X29210000Y36728500D03*
D20*
X26078000Y12131000D03*
X26078000Y13081000D03*
X26078000Y14031000D03*
X28278000Y14031000D03*
X28278000Y12131000D03*
D21*
X23368000Y27875000D03*
X24638000Y27875000D03*
X25908000Y27875000D03*
X27178000Y27875000D03*
X28448000Y27875000D03*
X29718000Y27875000D03*
X30988000Y27875000D03*
X32258000Y27875000D03*
X32258000Y22925000D03*
X30988000Y22925000D03*
X29718000Y22925000D03*
X28448000Y22925000D03*
X27178000Y22925000D03*
X25908000Y22925000D03*
X24638000Y22925000D03*
X23368000Y22925000D03*
D18*
X20624800Y27711500D03*
X20624800Y26136500D03*
X20624800Y33553500D03*
X20624800Y31978500D03*
D21*
X23368000Y43750000D03*
X24638000Y43750000D03*
X25908000Y43750000D03*
X27178000Y43750000D03*
X28448000Y43750000D03*
X29718000Y43750000D03*
X30988000Y43750000D03*
X32258000Y43750000D03*
X32258000Y38800000D03*
X30988000Y38800000D03*
X29718000Y38800000D03*
X28448000Y38800000D03*
X27178000Y38800000D03*
X25908000Y38800000D03*
X24638000Y38800000D03*
X23368000Y38800000D03*
D18*
X20624800Y43205500D03*
X20624800Y41630500D03*
D17*
X19194000Y42606000D03*
X19194000Y41656000D03*
X19194000Y40706000D03*
X16874000Y40706000D03*
X16874000Y41656000D03*
X16874000Y42606000D03*
D16*
X19075500Y22098000D03*
X17500500Y22098000D03*
D20*
X26078000Y8321000D03*
X26078000Y9271000D03*
X26078000Y10221000D03*
X28278000Y10221000D03*
X28278000Y8321000D03*
D16*
X31394500Y4953000D03*
X29819500Y4953000D03*
X19075500Y34544000D03*
X17500500Y34544000D03*
D22*
X18491200Y11724400D03*
D23*
X18491200Y10424400D03*
D16*
X31394500Y6477000D03*
X29819500Y6477000D03*
X19050000Y49784000D03*
X17475000Y49784000D03*
D15*
X29972000Y8737500D03*
X29972000Y10312500D03*
D17*
X19194000Y48194000D03*
X19194000Y47244000D03*
X19194000Y46294000D03*
X16874000Y46294000D03*
X16874000Y47244000D03*
X16874000Y48194000D03*
D24*
X19034000Y8570000D03*
X19034000Y6670000D03*
X17034000Y7620000D03*
D17*
X19194000Y20508000D03*
X19194000Y19558000D03*
X19194000Y18608000D03*
X16874000Y18608000D03*
X16874000Y19558000D03*
X16874000Y20508000D03*
D15*
X29972000Y12547500D03*
X29972000Y14122500D03*
D20*
X26078000Y4511000D03*
X26078000Y5461000D03*
X26078000Y6411000D03*
X28278000Y6411000D03*
X28278000Y4511000D03*
M02*
