%TF.GenerationSoftware,KiCad,Pcbnew,8.0.4*%
%TF.CreationDate,2024-09-22T15:27:09+02:00*%
%TF.ProjectId,blue_64,626c7565-5f36-4342-9e6b-696361645f70,0.3*%
%TF.SameCoordinates,PX38ecc10PY60e4b00*%
%TF.FileFunction,AssemblyDrawing,Top*%
%FSLAX46Y46*%
G04 Gerber Fmt 4.6, Leading zero omitted, Abs format (unit mm)*
G04 Created by KiCad (PCBNEW 8.0.4) date 2024-09-22 15:27:09*
%MOMM*%
%LPD*%
G01*
G04 APERTURE LIST*
%ADD10C,0.150000*%
%ADD11C,0.100000*%
G04 APERTURE END LIST*
D10*
X4391819Y5633334D02*
X4391819Y5157144D01*
X4391819Y5157144D02*
X3391819Y5157144D01*
X4391819Y6490477D02*
X4391819Y5919049D01*
X4391819Y6204763D02*
X3391819Y6204763D01*
X3391819Y6204763D02*
X3534676Y6109525D01*
X3534676Y6109525D02*
X3629914Y6014287D01*
X3629914Y6014287D02*
X3677533Y5919049D01*
X10884819Y26336667D02*
X11599104Y26336667D01*
X11599104Y26336667D02*
X11741961Y26289048D01*
X11741961Y26289048D02*
X11837200Y26193810D01*
X11837200Y26193810D02*
X11884819Y26050953D01*
X11884819Y26050953D02*
X11884819Y25955715D01*
X10884819Y26717620D02*
X10884819Y27336667D01*
X10884819Y27336667D02*
X11265771Y27003334D01*
X11265771Y27003334D02*
X11265771Y27146191D01*
X11265771Y27146191D02*
X11313390Y27241429D01*
X11313390Y27241429D02*
X11361009Y27289048D01*
X11361009Y27289048D02*
X11456247Y27336667D01*
X11456247Y27336667D02*
X11694342Y27336667D01*
X11694342Y27336667D02*
X11789580Y27289048D01*
X11789580Y27289048D02*
X11837200Y27241429D01*
X11837200Y27241429D02*
X11884819Y27146191D01*
X11884819Y27146191D02*
X11884819Y26860477D01*
X11884819Y26860477D02*
X11837200Y26765239D01*
X11837200Y26765239D02*
X11789580Y26717620D01*
X4496580Y26143334D02*
X4544200Y26095715D01*
X4544200Y26095715D02*
X4591819Y25952858D01*
X4591819Y25952858D02*
X4591819Y25857620D01*
X4591819Y25857620D02*
X4544200Y25714763D01*
X4544200Y25714763D02*
X4448961Y25619525D01*
X4448961Y25619525D02*
X4353723Y25571906D01*
X4353723Y25571906D02*
X4163247Y25524287D01*
X4163247Y25524287D02*
X4020390Y25524287D01*
X4020390Y25524287D02*
X3829914Y25571906D01*
X3829914Y25571906D02*
X3734676Y25619525D01*
X3734676Y25619525D02*
X3639438Y25714763D01*
X3639438Y25714763D02*
X3591819Y25857620D01*
X3591819Y25857620D02*
X3591819Y25952858D01*
X3591819Y25952858D02*
X3639438Y26095715D01*
X3639438Y26095715D02*
X3687057Y26143334D01*
X4591819Y27095715D02*
X4591819Y26524287D01*
X4591819Y26810001D02*
X3591819Y26810001D01*
X3591819Y26810001D02*
X3734676Y26714763D01*
X3734676Y26714763D02*
X3829914Y26619525D01*
X3829914Y26619525D02*
X3877533Y26524287D01*
D11*
X437000Y10700000D02*
X437000Y1700000D01*
X437000Y1700000D02*
X7437000Y1700000D01*
X7437000Y10700000D02*
X437000Y10700000D01*
X7437000Y1700000D02*
X7437000Y10700000D01*
X8890000Y50800000D02*
X10160000Y52070000D01*
X8890000Y1270000D02*
X8890000Y50800000D01*
X10160000Y52070000D02*
X13970000Y52070000D01*
X13970000Y52070000D02*
X13970000Y1270000D01*
X13970000Y1270000D02*
X8890000Y1270000D01*
X937000Y35010000D02*
X937000Y18510000D01*
X937000Y18510000D02*
X8137000Y18510000D01*
X8137000Y35010000D02*
X937000Y35010000D01*
X8137000Y18510000D02*
X8137000Y35010000D01*
M02*
