M48
; DRILL file {KiCad 8.0.4} date 2024-09-22T15:27:13+0200
; FORMAT={-:-/ absolute / inch / decimal}
; #@! TF.CreationDate,2024-09-22T15:27:13+02:00
; #@! TF.GenerationSoftware,Kicad,Pcbnew,8.0.4
; #@! TF.FileFunction,Plated,1,4,PTH
FMAT,2
INCH
; #@! TA.AperFunction,Plated,PTH,ViaDrill
T1C0.0118
; #@! TA.AperFunction,Plated,PTH,ComponentDrill
T2C0.0394
; #@! TA.AperFunction,Plated,PTH,ComponentDrill
T3C0.0433
%
G90
G05
T1
X0.34Y2.0
X0.34Y1.9
X0.34Y1.8
X0.34Y1.7
X0.34Y1.6
X0.34Y1.5
X0.34Y1.4
X0.34Y1.3
X0.34Y1.2
X0.34Y1.1
X0.34Y1.0
X0.34Y0.9
X0.34Y0.8
X0.34Y0.7
X0.34Y0.6
X0.34Y0.5
X0.34Y0.3
X0.6Y2.035
X0.61Y1.94
X0.61Y0.2
X0.615Y0.5
X0.62Y0.65
X0.63Y1.825
X0.63Y1.605
X0.63Y1.225
X0.63Y0.995
X0.63Y0.735
X0.635Y1.725
X0.635Y1.125
X0.635Y0.875
X0.64Y1.36
X0.675Y1.525
X0.7Y1.825
X0.7Y1.605
X0.7Y1.225
X0.7Y0.995
X0.7Y0.735
X0.7Y0.13
X0.72Y1.9
X0.72Y1.68
X0.72Y1.3
X0.72Y1.07
X0.72Y0.81
X0.735Y0.585
X0.78Y1.13
X0.785Y1.525
X0.79Y1.96
X0.79Y0.87
X0.795Y0.265
X0.8Y1.16
X0.81Y0.9
X0.815Y1.98
X0.84Y1.07
X0.845Y0.48
X0.845Y0.18
X0.845Y0.065
X0.85Y1.615
X0.85Y0.79
X0.855Y1.92
X0.855Y1.1
X0.855Y0.825
X0.86Y1.76
X0.87Y1.39
X0.875Y1.895
X0.89Y1.525
X0.89Y0.9
X0.9Y0.66
X0.92Y1.86
X0.92Y1.16
X0.925Y0.99
X0.93Y0.7
X0.94Y0.735
X0.945Y1.185
X0.95Y1.02
X0.955Y1.66
X0.96Y0.3
X0.965Y0.45
X0.965Y0.145
X0.97Y2.04
X0.97Y1.16
X0.975Y1.335
X0.975Y0.75
X0.98Y0.175
X0.9825Y1.0375
X0.985Y0.515
X0.985Y0.475
X0.985Y0.405
X0.985Y0.365
X0.985Y0.325
X0.985Y0.255
X0.99Y1.795
X0.99Y0.555
X1.01Y1.665
X1.02Y1.15
X1.04Y1.65
X1.055Y0.06
X1.07Y1.665
X1.075Y0.585
X1.075Y0.515
X1.095Y2.015
X1.095Y0.365
X1.095Y0.215
X1.1Y1.65
X1.115Y0.445
X1.115Y0.295
X1.115Y0.145
X1.12Y0.685
X1.13Y1.665
X1.13Y1.03
X1.14Y1.865
X1.15Y1.35
X1.15Y0.725
X1.17Y1.65
X1.17Y1.15
X1.175Y1.185
X1.185Y2.065
X1.185Y1.325
X1.185Y0.7
X1.205Y0.1
X1.21Y1.35
X1.21Y0.725
X1.245Y0.14
X1.245Y0.06
X1.26Y1.815
X1.27Y1.65
X1.27Y1.35
X1.27Y1.03
X1.27Y0.725
X1.27Y0.505
X1.29Y1.32
X1.3Y0.71
X1.325Y0.21
X1.33Y0.925
X1.33Y0.855
X1.335Y0.305
X1.35Y0.42
X1.36Y1.69
X1.365Y1.2
X1.365Y0.76
X1.37Y1.905
X1.37Y1.6
X1.515Y1.09
X1.535Y1.9
X1.535Y1.7
X1.535Y1.5
X1.535Y1.4
X1.535Y1.2
X1.535Y1.0
X1.535Y0.9
X1.545Y0.7
X1.57Y0.07
X1.61Y0.42
X1.62Y1.63
X1.635Y1.115
X1.635Y0.695
X1.64Y0.975
X1.655Y1.475
X1.675Y0.23
X1.695Y0.555
X1.705Y1.82
X1.73Y1.195
X1.735Y1.355
X1.735Y0.87
X1.795Y1.5
X1.805Y0.075
X1.815Y1.695
X1.825Y0.425
X1.83Y1.12
X1.83Y0.685
X1.865Y0.98
X1.87Y1.895
X1.915Y0.23
X1.935Y1.355
X1.935Y0.555
X1.98Y1.635
X1.98Y1.19
X2.0Y1.48
X2.0Y0.87
X2.01Y1.825
X2.04Y0.695
X2.055Y0.075
X2.06Y0.425
X2.105Y1.115
X2.125Y0.235
X2.13Y0.985
X2.155Y1.71
X2.16Y1.355
X2.2Y0.545
X2.22Y1.9
X2.245Y1.495
X2.255Y1.625
X2.255Y0.88
X2.26Y1.195
X2.275Y0.09
X2.29Y0.705
X2.33Y0.28
X2.385Y1.8
X2.385Y1.7
X2.385Y1.6
X2.385Y1.4
X2.385Y1.2
X2.385Y1.1
X2.385Y1.0
X2.385Y0.44
X2.4Y0.845
X2.4Y0.755
T2
X0.4Y2.0
X0.4Y1.9
X0.4Y1.8
X0.4Y1.7
X0.4Y1.6
X0.4Y1.5
X0.4Y1.4
X0.4Y1.3
X0.4Y1.2
X0.4Y1.1
X0.4Y1.0
X0.4Y0.9
X0.4Y0.8
X0.4Y0.7
X0.4Y0.6
X0.4Y0.5
X0.4Y0.4
X0.4Y0.3
X0.4Y0.2
X0.4Y0.1
X0.5Y2.0
X0.5Y1.9
X0.5Y1.8
X0.5Y1.7
X0.5Y1.6
X0.5Y1.5
X0.5Y1.4
X0.5Y1.3
X0.5Y1.2
X0.5Y1.1
X0.5Y1.0
X0.5Y0.9
X0.5Y0.8
X0.5Y0.7
X0.5Y0.6
X0.5Y0.5
X0.5Y0.4
X0.5Y0.3
X0.5Y0.2
X0.5Y0.1
X1.45Y1.9
X1.45Y1.8
X1.45Y1.7
X1.45Y1.6
X1.45Y1.5
X1.45Y1.4
X1.45Y1.3
X1.45Y1.2
X1.45Y1.1
X1.45Y1.0
X1.45Y0.9
X1.45Y0.8
X1.45Y0.7
X1.45Y0.6
X1.45Y0.5
X1.45Y0.4
X1.45Y0.3
X1.45Y0.2
X1.45Y0.1
X2.45Y1.9
X2.45Y1.8
X2.45Y1.7
X2.45Y1.6
X2.45Y1.5
X2.45Y1.4
X2.45Y1.3
X2.45Y1.2
X2.45Y1.1
X2.45Y1.0
X2.45Y0.9
X2.45Y0.8
X2.45Y0.7
X2.45Y0.6
X2.45Y0.5
X2.45Y0.4
X2.45Y0.3
X2.45Y0.2
X2.45Y0.1
T3
X0.0861Y0.65
X0.0959Y0.5
X0.2141Y0.5
X0.2239Y0.65
M30
